%TF.GenerationSoftware,KiCad,Pcbnew,9.0.7*%
%TF.CreationDate,2026-02-14T22:49:23-08:00*%
%TF.ProjectId,main_board,6d61696e-5f62-46f6-9172-642e6b696361,rev?*%
%TF.SameCoordinates,Original*%
%TF.FileFunction,Copper,L2,Bot*%
%TF.FilePolarity,Positive*%
%FSLAX46Y46*%
G04 Gerber Fmt 4.6, Leading zero omitted, Abs format (unit mm)*
G04 Created by KiCad (PCBNEW 9.0.7) date 2026-02-14 22:49:23*
%MOMM*%
%LPD*%
G01*
G04 APERTURE LIST*
G04 Aperture macros list*
%AMRoundRect*
0 Rectangle with rounded corners*
0 $1 Rounding radius*
0 $2 $3 $4 $5 $6 $7 $8 $9 X,Y pos of 4 corners*
0 Add a 4 corners polygon primitive as box body*
4,1,4,$2,$3,$4,$5,$6,$7,$8,$9,$2,$3,0*
0 Add four circle primitives for the rounded corners*
1,1,$1+$1,$2,$3*
1,1,$1+$1,$4,$5*
1,1,$1+$1,$6,$7*
1,1,$1+$1,$8,$9*
0 Add four rect primitives between the rounded corners*
20,1,$1+$1,$2,$3,$4,$5,0*
20,1,$1+$1,$4,$5,$6,$7,0*
20,1,$1+$1,$6,$7,$8,$9,0*
20,1,$1+$1,$8,$9,$2,$3,0*%
G04 Aperture macros list end*
%TA.AperFunction,ComponentPad*%
%ADD10C,3.000000*%
%TD*%
%TA.AperFunction,HeatsinkPad*%
%ADD11C,0.600000*%
%TD*%
%TA.AperFunction,HeatsinkPad*%
%ADD12O,2.100000X1.000000*%
%TD*%
%TA.AperFunction,HeatsinkPad*%
%ADD13O,1.800000X1.000000*%
%TD*%
%TA.AperFunction,ComponentPad*%
%ADD14RoundRect,0.550000X0.550000X-0.550000X0.550000X0.550000X-0.550000X0.550000X-0.550000X-0.550000X0*%
%TD*%
%TA.AperFunction,ComponentPad*%
%ADD15C,2.200000*%
%TD*%
%TA.AperFunction,ComponentPad*%
%ADD16C,2.000000*%
%TD*%
%TA.AperFunction,ComponentPad*%
%ADD17C,1.700000*%
%TD*%
%TA.AperFunction,ComponentPad*%
%ADD18RoundRect,1.375000X-0.000010X-1.125000X0.000010X-1.125000X0.000010X1.125000X-0.000010X1.125000X0*%
%TD*%
%TA.AperFunction,ComponentPad*%
%ADD19C,1.608074*%
%TD*%
%TA.AperFunction,SMDPad,CuDef*%
%ADD20RoundRect,0.200000X0.200000X0.275000X-0.200000X0.275000X-0.200000X-0.275000X0.200000X-0.275000X0*%
%TD*%
%TA.AperFunction,ViaPad*%
%ADD21C,0.762000*%
%TD*%
%TA.AperFunction,ViaPad*%
%ADD22C,1.500000*%
%TD*%
%TA.AperFunction,ViaPad*%
%ADD23C,0.600000*%
%TD*%
%TA.AperFunction,Conductor*%
%ADD24C,0.508000*%
%TD*%
%TA.AperFunction,Conductor*%
%ADD25C,0.381000*%
%TD*%
%TA.AperFunction,Conductor*%
%ADD26C,1.270000*%
%TD*%
%TA.AperFunction,Conductor*%
%ADD27C,0.254000*%
%TD*%
%TA.AperFunction,Conductor*%
%ADD28C,2.540000*%
%TD*%
%TA.AperFunction,Conductor*%
%ADD29C,0.203200*%
%TD*%
%TA.AperFunction,Conductor*%
%ADD30C,0.177800*%
%TD*%
%TA.AperFunction,Conductor*%
%ADD31C,0.200000*%
%TD*%
G04 APERTURE END LIST*
D10*
%TO.P,TP8,1,1*%
%TO.N,Net-(U8-CLKO)*%
X133750000Y-96250000D03*
%TD*%
D11*
%TO.P,U4,41,GND*%
%TO.N,GND*%
X103750000Y-141250000D03*
X103750000Y-139750000D03*
X103000000Y-142000000D03*
X103000000Y-140500000D03*
X103000000Y-139000000D03*
X102250000Y-141250000D03*
X102250000Y-139750000D03*
X101500000Y-142000000D03*
X101500000Y-140500000D03*
X101500000Y-139000000D03*
X100750000Y-141250000D03*
X100750000Y-139750000D03*
%TD*%
D12*
%TO.P,J1,S1,SHIELD*%
%TO.N,Earth*%
X57125000Y-134680000D03*
D13*
X52925000Y-134680000D03*
D12*
X57125000Y-143320000D03*
D13*
X52925000Y-143320000D03*
%TD*%
D14*
%TO.P,F2,1*%
%TO.N,Net-(J2-Pin_1)*%
X65250000Y-97000000D03*
X70250000Y-97000000D03*
D15*
%TO.P,F2,2*%
%TO.N,Net-(F2-Pad2)*%
X65250000Y-78200000D03*
X70250000Y-78200000D03*
%TD*%
D16*
%TO.P,SW3,*%
%TO.N,*%
X103750000Y-51750000D03*
X103750000Y-57750000D03*
X115750000Y-51750000D03*
X115750000Y-57750000D03*
D17*
%TO.P,SW3,1,A*%
%TO.N,Net-(SW3-A)*%
X105750000Y-56000000D03*
%TO.P,SW3,2,B*%
%TO.N,/SYSOFF*%
X109750000Y-56000000D03*
%TO.P,SW3,3,C*%
%TO.N,GND*%
X113750000Y-56000000D03*
%TD*%
D14*
%TO.P,F3,1*%
%TO.N,Net-(J4-Pin_1)*%
X65250000Y-139050000D03*
X70250000Y-139050000D03*
D15*
%TO.P,F3,2*%
%TO.N,Net-(F3-Pad2)*%
X65250000Y-120250000D03*
X70250000Y-120250000D03*
%TD*%
D18*
%TO.P,BT4,1,+*%
%TO.N,+BATT*%
X147110000Y-134000000D03*
%TO.P,BT4,2,-*%
%TO.N,-BATT*%
X74890000Y-134000000D03*
%TD*%
%TO.P,BT1,1,+*%
%TO.N,+BATT*%
X147110000Y-69500000D03*
%TO.P,BT1,2,-*%
%TO.N,-BATT*%
X74890000Y-69500000D03*
%TD*%
D16*
%TO.P,J2,1,Pin_1*%
%TO.N,Net-(J2-Pin_1)*%
X52300001Y-85000000D03*
X60500000Y-85000000D03*
%TO.P,J2,2,Pin_2*%
%TO.N,Net-(J2-Pin_2)*%
X52300001Y-80000000D03*
X60500000Y-80000000D03*
%TD*%
%TO.P,J4,1,Pin_1*%
%TO.N,Net-(J4-Pin_1)*%
X52300001Y-127000000D03*
X60500000Y-127000000D03*
%TO.P,J4,2,Pin_2*%
%TO.N,Net-(J4-Pin_2)*%
X52300001Y-122000000D03*
X60500000Y-122000000D03*
%TD*%
D19*
%TO.P,K2,13*%
%TO.N,Net-(F3-Pad2)*%
X59520001Y-113660000D03*
%TO.P,K2,14*%
%TO.N,Net-(J4-Pin_2)*%
X51900001Y-113660000D03*
%TO.P,K2,A1*%
%TO.N,+3V3*%
X69680001Y-103500000D03*
%TO.P,K2,A2*%
%TO.N,Net-(D7-A)*%
X69680001Y-113660000D03*
%TO.P,K2,B1*%
%TO.N,+3V3*%
X67140001Y-103500000D03*
%TO.P,K2,B2*%
%TO.N,Net-(D6-A)*%
X67140001Y-113660000D03*
%TD*%
%TO.P,K1,13*%
%TO.N,Net-(F2-Pad2)*%
X59520001Y-71750000D03*
%TO.P,K1,14*%
%TO.N,Net-(J2-Pin_2)*%
X51900001Y-71750000D03*
%TO.P,K1,A1*%
%TO.N,+3V3*%
X69680001Y-61590000D03*
%TO.P,K1,A2*%
%TO.N,Net-(D3-A)*%
X69680001Y-71750000D03*
%TO.P,K1,B1*%
%TO.N,+3V3*%
X67140001Y-61590000D03*
%TO.P,K1,B2*%
%TO.N,Net-(D2-A)*%
X67140001Y-71750000D03*
%TD*%
D18*
%TO.P,BT2,1,+*%
%TO.N,+BATT*%
X147110000Y-91000000D03*
%TO.P,BT2,2,-*%
%TO.N,-BATT*%
X74890000Y-91000000D03*
%TD*%
D20*
%TO.P,TH1,1*%
%TO.N,Net-(U2-TS)*%
X135250000Y-57750000D03*
%TO.P,TH1,2*%
%TO.N,GND*%
X133600000Y-57750000D03*
%TD*%
D18*
%TO.P,BT3,1,+*%
%TO.N,+BATT*%
X147100000Y-112500000D03*
%TO.P,BT3,2,-*%
%TO.N,-BATT*%
X74880000Y-112500000D03*
%TD*%
D21*
%TO.N,GND*%
X85500000Y-113000000D03*
D22*
X122500000Y-72500000D03*
D21*
X80500000Y-129500000D03*
X94500000Y-75250000D03*
X119500000Y-98500000D03*
X120250000Y-139000000D03*
D22*
X127500000Y-62500000D03*
D21*
X85000000Y-65250000D03*
X86250000Y-146250000D03*
X64750000Y-151750000D03*
X77000000Y-86000000D03*
D22*
X147500000Y-102500000D03*
D21*
X106000000Y-131500000D03*
X66250000Y-151750000D03*
X80500000Y-131000000D03*
X93750000Y-94750000D03*
D22*
X142500000Y-142500000D03*
X77500000Y-95000000D03*
D21*
X95500000Y-77500000D03*
D22*
X77750000Y-104250000D03*
D21*
X68750000Y-146750000D03*
X80000000Y-146250000D03*
X85500000Y-112000000D03*
D22*
X132500000Y-67500000D03*
X79250000Y-107250000D03*
D21*
X138500000Y-108250000D03*
D22*
X127500000Y-77500000D03*
X127500000Y-57500000D03*
X77750000Y-105750000D03*
D21*
X116000000Y-102000000D03*
D22*
X132500000Y-82500000D03*
D21*
X124750000Y-122500000D03*
X82000000Y-146250000D03*
X77250000Y-112500000D03*
X78000000Y-65250000D03*
X84750000Y-73000000D03*
X118500000Y-106250000D03*
X95250000Y-146000000D03*
D22*
X142500000Y-57500000D03*
D21*
X128500000Y-120750000D03*
X80750000Y-119000000D03*
X118750000Y-118000000D03*
D22*
X142500000Y-67500000D03*
D21*
X83250000Y-64250000D03*
X83750000Y-76250000D03*
D22*
X122500000Y-82500000D03*
D21*
X78250000Y-114500000D03*
D22*
X127500000Y-137500000D03*
D21*
X106000000Y-130250000D03*
D22*
X79250000Y-101250000D03*
X122500000Y-77500000D03*
D21*
X112000000Y-98500000D03*
D22*
X127500000Y-52500000D03*
D21*
X139500000Y-107000000D03*
X77750000Y-68750000D03*
D22*
X117500000Y-72500000D03*
X79250000Y-102750000D03*
D21*
X69750000Y-146750000D03*
X96750000Y-146000000D03*
X82250000Y-131000000D03*
X107500000Y-131500000D03*
X85000000Y-64250000D03*
D22*
X142500000Y-72500000D03*
D21*
X96250000Y-110250000D03*
X118500000Y-108750000D03*
X77250000Y-114500000D03*
D22*
X79250000Y-105750000D03*
X137500000Y-137500000D03*
D21*
X118500000Y-111500000D03*
X118000000Y-115250000D03*
X118500000Y-110000000D03*
D22*
X127500000Y-82500000D03*
X132500000Y-52500000D03*
D21*
X118750000Y-140500000D03*
X78250000Y-113500000D03*
X101250000Y-146000000D03*
X78000000Y-76750000D03*
X79750000Y-119000000D03*
D22*
X77750000Y-101250000D03*
D21*
X77750000Y-71750000D03*
X77750000Y-125000000D03*
X95000000Y-94750000D03*
D22*
X142500000Y-90000000D03*
X79250000Y-104250000D03*
D21*
X124500000Y-108500000D03*
X77750000Y-126000000D03*
X114750000Y-105250000D03*
X63000000Y-143750000D03*
X77000000Y-138500000D03*
D22*
X127500000Y-67500000D03*
D21*
X67750000Y-151750000D03*
D22*
X137500000Y-52500000D03*
D21*
X85500000Y-123250000D03*
X112000000Y-94750000D03*
X94000000Y-104500000D03*
X85500000Y-124500000D03*
D22*
X132500000Y-142500000D03*
X147500000Y-142500000D03*
D21*
X78250000Y-112500000D03*
X96250000Y-112750000D03*
D22*
X122500000Y-52500000D03*
D21*
X107500000Y-132750000D03*
X88500000Y-146250000D03*
X128500000Y-122000000D03*
X106000000Y-132750000D03*
X118750000Y-119000000D03*
X77750000Y-69750000D03*
X85000000Y-66250000D03*
X94500000Y-76250000D03*
D22*
X127500000Y-142500000D03*
D21*
X77750000Y-86750000D03*
X102750000Y-146000000D03*
X77000000Y-76750000D03*
D22*
X137500000Y-57500000D03*
D21*
X124750000Y-123500000D03*
X111500000Y-118250000D03*
D22*
X142500000Y-132500000D03*
X140000000Y-82500000D03*
X142500000Y-62500000D03*
X132500000Y-137500000D03*
D21*
X81750000Y-119000000D03*
X107500000Y-130250000D03*
D22*
X122500000Y-62500000D03*
D21*
X98250000Y-146000000D03*
X118500000Y-107500000D03*
D22*
X142500000Y-137500000D03*
D21*
X84750000Y-71000000D03*
X84000000Y-146250000D03*
X120500000Y-102250000D03*
D22*
X137500000Y-67500000D03*
D21*
X137500000Y-107000000D03*
D22*
X110000000Y-72500000D03*
X132500000Y-127500000D03*
X132500000Y-72500000D03*
X137500000Y-127500000D03*
D21*
X82250000Y-129500000D03*
X83750000Y-78750000D03*
X111500000Y-117250000D03*
X77750000Y-70750000D03*
X80750000Y-118000000D03*
X122000000Y-139000000D03*
X79750000Y-118000000D03*
X83750000Y-77500000D03*
X84750000Y-72000000D03*
X77750000Y-124000000D03*
D22*
X77750000Y-102750000D03*
X117500000Y-77500000D03*
X137500000Y-132500000D03*
D21*
X130750000Y-119250000D03*
X99750000Y-146000000D03*
D22*
X82500000Y-95000000D03*
X137500000Y-72500000D03*
D21*
X77250000Y-113500000D03*
X106750000Y-136750000D03*
X118000000Y-114500000D03*
X81750000Y-118000000D03*
%TO.N,+BATT*%
X133000000Y-64250000D03*
X85750000Y-94500000D03*
X109875000Y-68125000D03*
%TO.N,VBUS*%
X61500000Y-141750000D03*
X59750000Y-136500000D03*
X59250000Y-141500000D03*
D22*
%TO.N,VPP*%
X124500000Y-126000000D03*
X121000000Y-104000000D03*
X111250000Y-84500000D03*
%TO.N,+3V3*%
X116500000Y-137000000D03*
D21*
X79000000Y-139000000D03*
X120125000Y-88125000D03*
X124750000Y-142250000D03*
X81750000Y-139000000D03*
D22*
X74984068Y-141753186D03*
X111250000Y-87000000D03*
D21*
X119000000Y-144000000D03*
%TO.N,Net-(J2-Pin_2)*%
X53000000Y-73000000D03*
X53000000Y-75000000D03*
X59000000Y-81000000D03*
X57000000Y-79000000D03*
X59000000Y-79000000D03*
X53000000Y-77000000D03*
X55000000Y-81000000D03*
X57000000Y-81000000D03*
X57000000Y-77000000D03*
X55000000Y-79000000D03*
X55000000Y-77000000D03*
X55000000Y-75000000D03*
%TO.N,Net-(F2-Pad2)*%
X68000000Y-77000000D03*
X68000000Y-79000000D03*
X62000000Y-75000000D03*
X60000000Y-73000000D03*
X64000000Y-77000000D03*
%TO.N,/BTN2*%
X96000000Y-98500000D03*
X87000000Y-133000000D03*
%TO.N,/BTN1*%
X85500000Y-133000000D03*
X96000000Y-96000000D03*
%TO.N,/BTN3*%
X88500000Y-133000000D03*
X96000000Y-101000000D03*
%TO.N,/BTN4*%
X96000000Y-103250000D03*
X90000000Y-133000000D03*
D23*
%TO.N,/TS_RST*%
X111500000Y-122250000D03*
D21*
X106000000Y-104750000D03*
%TO.N,/DISP_CS*%
X98500000Y-92000000D03*
D23*
X104000000Y-125250000D03*
%TO.N,/DISP_SCLK*%
X101500000Y-125250000D03*
D21*
X98500000Y-94750000D03*
%TO.N,/PRESENCE_RX*%
X94250000Y-110250000D03*
X96000000Y-131500000D03*
%TO.N,/TS_INT*%
X105750000Y-102250000D03*
D23*
X111000000Y-123250000D03*
D21*
%TO.N,/ONEWIRE*%
X96000000Y-137000000D03*
X101295000Y-99750000D03*
X77000000Y-141000000D03*
X94000000Y-78000000D03*
D23*
X94420000Y-134420000D03*
D21*
%TO.N,/PRESENCE_TX*%
X95000000Y-132500000D03*
X95250000Y-108500000D03*
D23*
%TO.N,/DISP_SDA*%
X102750000Y-125250000D03*
D21*
X99500000Y-97250000D03*
%TO.N,/DISP_RES*%
X101250000Y-87000000D03*
D23*
X110750000Y-124250000D03*
D21*
%TO.N,/DISP_D{slash}C*%
X101000000Y-89500000D03*
D23*
X105400500Y-125250000D03*
D21*
%TO.N,/DISP_BUSY*%
X99500000Y-84500000D03*
D23*
X110250000Y-125250000D03*
D21*
%TO.N,Net-(J2-Pin_1)*%
X55000000Y-84000000D03*
X65000000Y-90000000D03*
X59000000Y-92000000D03*
X59000000Y-90000000D03*
X63000000Y-90000000D03*
X55000000Y-88000000D03*
X65000000Y-94000000D03*
X61000000Y-90000000D03*
X61000000Y-94000000D03*
X59000000Y-88000000D03*
X65000000Y-92000000D03*
X61000000Y-92000000D03*
X63000000Y-92000000D03*
X63000000Y-94000000D03*
X67000000Y-98000000D03*
X61000000Y-88000000D03*
X69000000Y-94000000D03*
X67000000Y-92000000D03*
X57000000Y-90000000D03*
X57000000Y-84000000D03*
X57000000Y-86000000D03*
X55000000Y-86000000D03*
X59000000Y-84000000D03*
X63000000Y-88000000D03*
X59000000Y-86000000D03*
X57000000Y-88000000D03*
X67000000Y-96000000D03*
X67000000Y-94000000D03*
%TO.N,/CC1*%
X57250000Y-146000000D03*
X65000000Y-149500000D03*
D23*
%TO.N,/D+*%
X111250000Y-129573000D03*
D21*
X71109211Y-146043211D03*
X56500000Y-138750000D03*
X56500000Y-140250000D03*
D23*
%TO.N,/D-*%
X111250000Y-130427000D03*
D21*
X70390789Y-145324789D03*
%TO.N,/CC2*%
X57250000Y-145000000D03*
X65000000Y-147500000D03*
D22*
%TO.N,+5V*%
X74500000Y-144000000D03*
D21*
X64000000Y-148500000D03*
D22*
X129250000Y-127000000D03*
D21*
%TO.N,Earth*%
X59500000Y-145750000D03*
X59500000Y-143250000D03*
X59500000Y-144500000D03*
D23*
%TO.N,/BOOT0*%
X106500000Y-144750000D03*
X134250000Y-144750000D03*
D21*
%TO.N,/I2C_SDA*%
X118500000Y-99500000D03*
X135500000Y-102000000D03*
X96000000Y-90750000D03*
X141750000Y-113500000D03*
X80250000Y-136500000D03*
X117250000Y-101000000D03*
%TO.N,/I2C_SCL*%
X134000000Y-101000000D03*
X140820367Y-113604865D03*
X96000000Y-93500000D03*
X83000000Y-136500000D03*
D23*
%TO.N,/RTC_INT*%
X118000000Y-98500000D03*
X111500000Y-140250000D03*
D21*
%TO.N,/ALS_INT*%
X106000000Y-107250000D03*
D23*
X111500000Y-121250000D03*
D21*
%TO.N,/RELAY1_SET*%
X95000000Y-105500000D03*
X92250000Y-78750000D03*
%TO.N,/LED_G*%
X106000000Y-109750000D03*
D23*
X111750000Y-120250000D03*
D21*
%TO.N,/SYSOFF*%
X142500000Y-120250000D03*
X143750000Y-96500000D03*
%TO.N,Net-(J4-Pin_2)*%
X52000000Y-117000000D03*
X54000000Y-119000000D03*
X54000000Y-123000000D03*
X58000000Y-121000000D03*
X54000000Y-121000000D03*
X54000000Y-117000000D03*
X56000000Y-117000000D03*
X52000000Y-115000000D03*
X58000000Y-123000000D03*
X52000000Y-119000000D03*
X56000000Y-123000000D03*
X54000000Y-115000000D03*
X58000000Y-119000000D03*
X56000000Y-121000000D03*
X56000000Y-119000000D03*
%TO.N,Net-(F3-Pad2)*%
X67000000Y-121000000D03*
X62000000Y-117000000D03*
X69000000Y-119000000D03*
X67000000Y-119000000D03*
X60000000Y-115000000D03*
X64000000Y-119000000D03*
X69000000Y-121000000D03*
%TO.N,Net-(J4-Pin_1)*%
X68000000Y-137000000D03*
X66000000Y-129000000D03*
X64000000Y-127000000D03*
X54000000Y-127000000D03*
X54000000Y-129000000D03*
X66000000Y-135000000D03*
X68000000Y-139000000D03*
X58000000Y-129000000D03*
X70000000Y-135000000D03*
X68000000Y-129000000D03*
X66000000Y-131000000D03*
X68000000Y-135000000D03*
X68000000Y-133000000D03*
X68000000Y-131000000D03*
X66000000Y-137000000D03*
X64000000Y-129000000D03*
X58000000Y-127000000D03*
X56000000Y-129000000D03*
X70000000Y-137000000D03*
X70000000Y-131000000D03*
X66000000Y-133000000D03*
X70000000Y-133000000D03*
X56000000Y-127000000D03*
X62000000Y-129000000D03*
X60000000Y-129000000D03*
X62000000Y-127000000D03*
%TO.N,Net-(U2-TS)*%
X126500000Y-107250000D03*
%TO.N,/PRESENCE_OUT*%
X111000000Y-112500000D03*
X107750000Y-134000000D03*
%TD*%
D24*
%TO.N,+BATT*%
X85750000Y-94500000D02*
X85750000Y-92250000D01*
X109875000Y-68125000D02*
X113750000Y-64250000D01*
X85750000Y-92250000D02*
X89500000Y-88500000D01*
X90000000Y-74000000D02*
X93000000Y-71000000D01*
X90000000Y-88000000D02*
X90000000Y-74000000D01*
X93000000Y-71000000D02*
X94500000Y-71000000D01*
X107000000Y-71000000D02*
X109875000Y-68125000D01*
X89500000Y-88500000D02*
X90000000Y-88000000D01*
X133000000Y-64250000D02*
X113750000Y-64250000D01*
X94500000Y-71000000D02*
X107000000Y-71000000D01*
D25*
%TO.N,VBUS*%
X61250000Y-141500000D02*
X61500000Y-141750000D01*
X59750000Y-141000000D02*
X59250000Y-141500000D01*
X59750000Y-136500000D02*
X59750000Y-141000000D01*
X59250000Y-141500000D02*
X61250000Y-141500000D01*
D26*
%TO.N,VPP*%
X124250000Y-100750000D02*
X124250000Y-94500000D01*
X120250000Y-121750000D02*
X120250000Y-104750000D01*
X120250000Y-104750000D02*
X121000000Y-104000000D01*
X121250000Y-84500000D02*
X111250000Y-84500000D01*
X124250000Y-87500000D02*
X121250000Y-84500000D01*
X121000000Y-104000000D02*
X124250000Y-100750000D01*
X124250000Y-94500000D02*
X124250000Y-87500000D01*
X124500000Y-126000000D02*
X120250000Y-121750000D01*
%TO.N,+3V3*%
X112654000Y-141346000D02*
X116500000Y-137500000D01*
X75073000Y-141842118D02*
X75073000Y-141987530D01*
X119000000Y-87000000D02*
X111250000Y-87000000D01*
X100000000Y-137000000D02*
X104000000Y-137000000D01*
X121250000Y-89250000D02*
X120125000Y-88125000D01*
X104000000Y-137000000D02*
X108346000Y-141346000D01*
D24*
X119000000Y-144000000D02*
X120750000Y-142250000D01*
D26*
X75073000Y-141987530D02*
X75335470Y-142250000D01*
X121250000Y-99250000D02*
X121250000Y-89250000D01*
X74984068Y-141753186D02*
X75073000Y-141842118D01*
X108346000Y-141346000D02*
X112654000Y-141346000D01*
X116500000Y-104000000D02*
X121250000Y-99250000D01*
X75335470Y-142250000D02*
X94750000Y-142250000D01*
X120125000Y-88125000D02*
X119000000Y-87000000D01*
X116500000Y-137500000D02*
X116500000Y-137000000D01*
X94750000Y-142250000D02*
X100000000Y-137000000D01*
D24*
X120750000Y-142250000D02*
X124750000Y-142250000D01*
X81750000Y-139000000D02*
X79000000Y-139000000D01*
D26*
X116500000Y-137000000D02*
X116500000Y-104000000D01*
D25*
%TO.N,/BTN2*%
X90000000Y-130000000D02*
X87000000Y-133000000D01*
X90000000Y-100500000D02*
X92000000Y-98500000D01*
X90000000Y-100500000D02*
X90000000Y-130000000D01*
X92000000Y-98500000D02*
X96000000Y-98500000D01*
%TO.N,/BTN1*%
X89000000Y-99500000D02*
X89000000Y-129500000D01*
X92500000Y-96000000D02*
X96000000Y-96000000D01*
X89000000Y-129500000D02*
X85500000Y-133000000D01*
X89000000Y-99500000D02*
X92500000Y-96000000D01*
%TO.N,/BTN3*%
X91000000Y-103000000D02*
X93000000Y-101000000D01*
X91000000Y-130500000D02*
X88500000Y-133000000D01*
X93000000Y-101000000D02*
X96000000Y-101000000D01*
X91000000Y-103000000D02*
X91000000Y-130500000D01*
%TO.N,/BTN4*%
X92000000Y-104000000D02*
X92750000Y-103250000D01*
X92000000Y-104000000D02*
X92000000Y-131000000D01*
X92000000Y-131000000D02*
X90000000Y-133000000D01*
X92750000Y-103250000D02*
X96000000Y-103250000D01*
D24*
%TO.N,/TS_RST*%
X105500000Y-104750000D02*
X104250000Y-106000000D01*
X104250000Y-106000000D02*
X104250000Y-115250000D01*
X104250000Y-115250000D02*
X111250000Y-122250000D01*
X106000000Y-104750000D02*
X105500000Y-104750000D01*
X111250000Y-122250000D02*
X111500000Y-122250000D01*
%TO.N,/DISP_CS*%
X99750000Y-96000000D02*
X99750000Y-93250000D01*
X100296000Y-98204000D02*
X100296000Y-96546000D01*
X104000000Y-125250000D02*
X99750000Y-121000000D01*
X100296000Y-96546000D02*
X99750000Y-96000000D01*
X99750000Y-98750000D02*
X100296000Y-98204000D01*
X99750000Y-121000000D02*
X99750000Y-98750000D01*
X99750000Y-93250000D02*
X98500000Y-92000000D01*
%TO.N,/DISP_SCLK*%
X98000000Y-95250000D02*
X98500000Y-94750000D01*
X101500000Y-125250000D02*
X98000000Y-121750000D01*
X98000000Y-121750000D02*
X98000000Y-95250000D01*
D25*
%TO.N,/PRESENCE_RX*%
X94250000Y-110250000D02*
X94000000Y-110500000D01*
X94000000Y-110500000D02*
X94000000Y-129500000D01*
X94000000Y-129500000D02*
X96000000Y-131500000D01*
D24*
%TO.N,/TS_INT*%
X103500000Y-103500000D02*
X103500000Y-115750000D01*
X104750000Y-102250000D02*
X103500000Y-103500000D01*
X103500000Y-115750000D02*
X111000000Y-123250000D01*
X105750000Y-102250000D02*
X104750000Y-102250000D01*
D25*
%TO.N,/ONEWIRE*%
X99750000Y-92000000D02*
X101295000Y-93545000D01*
X94000000Y-84000000D02*
X94000000Y-78000000D01*
X101500000Y-127250000D02*
X103500000Y-127250000D01*
X99750000Y-89750000D02*
X99750000Y-92000000D01*
X104750000Y-126000000D02*
X104750000Y-124750000D01*
X94000000Y-84000000D02*
X99750000Y-89750000D01*
X100500000Y-120500000D02*
X100500000Y-100545000D01*
X103500000Y-127250000D02*
X104750000Y-126000000D01*
X104750000Y-124750000D02*
X100500000Y-120500000D01*
X94420000Y-134420000D02*
X94420000Y-134330000D01*
X92000000Y-141000000D02*
X96000000Y-137000000D01*
X100500000Y-100545000D02*
X101295000Y-99750000D01*
X94420000Y-134330000D02*
X101500000Y-127250000D01*
X101295000Y-93545000D02*
X101295000Y-99750000D01*
X77000000Y-141000000D02*
X92000000Y-141000000D01*
%TO.N,/PRESENCE_TX*%
X94500000Y-108500000D02*
X93000000Y-110000000D01*
X93000000Y-130500000D02*
X95000000Y-132500000D01*
X93000000Y-110000000D02*
X93000000Y-130500000D01*
X95250000Y-108500000D02*
X94500000Y-108500000D01*
D24*
%TO.N,/DISP_SDA*%
X98750000Y-121250000D02*
X98750000Y-98000000D01*
X98750000Y-98000000D02*
X99500000Y-97250000D01*
X102750000Y-125250000D02*
X98750000Y-121250000D01*
%TO.N,/DISP_RES*%
X102750000Y-116250000D02*
X102750000Y-101727573D01*
X103238500Y-92739975D02*
X102750000Y-92251477D01*
X103588000Y-100889573D02*
X103588000Y-98360424D01*
X103588000Y-98360424D02*
X103238500Y-98010925D01*
X102750000Y-88500000D02*
X101250000Y-87000000D01*
X102750000Y-92251477D02*
X102750000Y-88500000D01*
X110750000Y-124250000D02*
X102750000Y-116250000D01*
X102750000Y-101727573D02*
X103588000Y-100889573D01*
X103238500Y-98010925D02*
X103238500Y-92739975D01*
%TO.N,/DISP_D{slash}C*%
X101250000Y-101335357D02*
X101250000Y-120000000D01*
X101250000Y-120000000D02*
X105400500Y-124150500D01*
X102250000Y-98914643D02*
X102250000Y-100335357D01*
X101250000Y-92643694D02*
X101900500Y-93294194D01*
X101000000Y-89500000D02*
X101000000Y-92000000D01*
X101900500Y-93294194D02*
X101900500Y-98565143D01*
X101250000Y-92250000D02*
X101250000Y-92643694D01*
X101900500Y-98565143D02*
X102250000Y-98914643D01*
X102250000Y-100335357D02*
X101250000Y-101335357D01*
X101000000Y-92000000D02*
X101250000Y-92250000D01*
X105400500Y-124150500D02*
X105400500Y-125250000D01*
%TO.N,/DISP_BUSY*%
X102569500Y-93017085D02*
X102000000Y-92447586D01*
X110250000Y-125250000D02*
X102000000Y-117000000D01*
X102919000Y-98637534D02*
X102569500Y-98288035D01*
X102919000Y-100612465D02*
X102919000Y-98637534D01*
X102000000Y-101531465D02*
X102919000Y-100612465D01*
X102000000Y-89250000D02*
X99500000Y-86750000D01*
X99500000Y-86750000D02*
X99500000Y-84500000D01*
X102000000Y-92447586D02*
X102000000Y-89250000D01*
X102569500Y-98288035D02*
X102569500Y-93017085D01*
X102000000Y-117000000D02*
X102000000Y-101531465D01*
D27*
%TO.N,/CC1*%
X57250000Y-146000000D02*
X59250000Y-148000000D01*
X59250000Y-148000000D02*
X60750000Y-148000000D01*
X63000000Y-148750000D02*
X63750000Y-149500000D01*
X63750000Y-149500000D02*
X65000000Y-149500000D01*
X62250000Y-148000000D02*
X63000000Y-148750000D01*
X60750000Y-148000000D02*
X62250000Y-148000000D01*
D28*
%TO.N,-BATT*%
X74890000Y-134000000D02*
X74890000Y-112500000D01*
X74890000Y-112500000D02*
X74890000Y-91000000D01*
X74890000Y-91000000D02*
X74890000Y-69500000D01*
D29*
%TO.N,/D+*%
X73728600Y-143028690D02*
X71109211Y-145648079D01*
X111844689Y-129771399D02*
X112978600Y-130905310D01*
X74257336Y-140228601D02*
X73728600Y-140757337D01*
X111448399Y-129771399D02*
X111844689Y-129771399D01*
X111094690Y-135478600D02*
X95594690Y-135478600D01*
X112978600Y-130905310D02*
X112978600Y-133594690D01*
X73728600Y-140757337D02*
X73728600Y-143028690D01*
X111250000Y-129573000D02*
X111448399Y-129771399D01*
D30*
X56500000Y-138750000D02*
X56500000Y-140250000D01*
D29*
X71109211Y-145648079D02*
X71109211Y-146043211D01*
X95594690Y-135478600D02*
X90844689Y-140228601D01*
X112978600Y-133594690D02*
X111094690Y-135478600D01*
X90844689Y-140228601D02*
X74257336Y-140228601D01*
%TO.N,/D-*%
X73271400Y-140567957D02*
X73271400Y-142839310D01*
X73271400Y-142839310D02*
X70785921Y-145324789D01*
X112521400Y-131094690D02*
X112521400Y-133405310D01*
X112521400Y-133405310D02*
X110905310Y-135021400D01*
X95405310Y-135021400D02*
X90655311Y-139771399D01*
X110905310Y-135021400D02*
X95405310Y-135021400D01*
X111448399Y-130228601D02*
X111655311Y-130228601D01*
X90655311Y-139771399D02*
X74067958Y-139771399D01*
X70785921Y-145324789D02*
X70390789Y-145324789D01*
X111655311Y-130228601D02*
X112521400Y-131094690D01*
X74067958Y-139771399D02*
X73271400Y-140567957D01*
X111250000Y-130427000D02*
X111448399Y-130228601D01*
D27*
%TO.N,/CC2*%
X57250000Y-145000000D02*
X59750000Y-147500000D01*
X59750000Y-147500000D02*
X65000000Y-147500000D01*
D25*
%TO.N,+5V*%
X70750000Y-148500000D02*
X64000000Y-148500000D01*
D26*
X104000000Y-144500000D02*
X105250000Y-143250000D01*
X113000000Y-143250000D02*
X129250000Y-127000000D01*
D25*
X74721828Y-144528172D02*
X70750000Y-148500000D01*
D26*
X78500000Y-144500000D02*
X104000000Y-144500000D01*
D25*
X74500000Y-144000000D02*
X74721828Y-144221828D01*
D26*
X74500000Y-144000000D02*
X78000000Y-144000000D01*
D25*
X74721828Y-144221828D02*
X74721828Y-144528172D01*
D26*
X78000000Y-144000000D02*
X78500000Y-144500000D01*
X105250000Y-143250000D02*
X113000000Y-143250000D01*
D27*
%TO.N,/BOOT0*%
X134250000Y-144750000D02*
X106500000Y-144750000D01*
D25*
%TO.N,/I2C_SDA*%
X118500000Y-99750000D02*
X117250000Y-101000000D01*
X80250000Y-134750000D02*
X87000000Y-128000000D01*
X118500000Y-99500000D02*
X118500000Y-99750000D01*
X141750000Y-113500000D02*
X135500000Y-107250000D01*
X87000000Y-95000000D02*
X91250000Y-90750000D01*
X91250000Y-90750000D02*
X96000000Y-90750000D01*
X87000000Y-128000000D02*
X87000000Y-95000000D01*
X80250000Y-136500000D02*
X80250000Y-134750000D01*
X135500000Y-107250000D02*
X135500000Y-102000000D01*
%TO.N,/I2C_SCL*%
X140354865Y-113604865D02*
X134000000Y-107250000D01*
X83000000Y-136500000D02*
X83000000Y-133500000D01*
X134000000Y-107250000D02*
X134000000Y-101000000D01*
X140820367Y-113604865D02*
X140354865Y-113604865D01*
X88000000Y-128500000D02*
X88000000Y-96000000D01*
X90500000Y-93500000D02*
X96000000Y-93500000D01*
X83000000Y-133500000D02*
X88000000Y-128500000D01*
X88000000Y-96000000D02*
X90500000Y-93500000D01*
D27*
%TO.N,/RTC_INT*%
X113750000Y-138750000D02*
X113750000Y-102750000D01*
X113750000Y-102750000D02*
X118000000Y-98500000D01*
X111500000Y-140250000D02*
X112250000Y-140250000D01*
X112250000Y-140250000D02*
X113750000Y-138750000D01*
D24*
%TO.N,/ALS_INT*%
X105000000Y-114750000D02*
X105000000Y-113500000D01*
X105000000Y-108250000D02*
X106000000Y-107250000D01*
X111500000Y-121250000D02*
X110750000Y-120500000D01*
X107500000Y-117250000D02*
X105000000Y-114750000D01*
X110750000Y-120500000D02*
X107500000Y-117250000D01*
X105000000Y-113500000D02*
X105000000Y-108250000D01*
%TO.N,/RELAY1_SET*%
X97250000Y-103250000D02*
X95000000Y-105500000D01*
X92250000Y-84500000D02*
X97250000Y-89500000D01*
X92250000Y-78750000D02*
X92250000Y-84500000D01*
X97250000Y-89500000D02*
X97250000Y-103250000D01*
%TO.N,/LED_G*%
X111750000Y-120250000D02*
X106000000Y-114500000D01*
X106000000Y-114500000D02*
X106000000Y-109750000D01*
%TO.N,/SYSOFF*%
X143750000Y-96500000D02*
X143750000Y-119000000D01*
X143750000Y-119000000D02*
X142500000Y-120250000D01*
D31*
%TO.N,Net-(U2-TS)*%
X135750000Y-59500000D02*
X135250000Y-59000000D01*
X126500000Y-107250000D02*
X137500000Y-96250000D01*
X137500000Y-80750000D02*
X135750000Y-79000000D01*
X137500000Y-96250000D02*
X137500000Y-80750000D01*
X135750000Y-79000000D02*
X135750000Y-59500000D01*
X135250000Y-59000000D02*
X135250000Y-57750000D01*
D24*
%TO.N,/PRESENCE_OUT*%
X111000000Y-127500000D02*
X109250000Y-129250000D01*
X112750000Y-120750000D02*
X112750000Y-125750000D01*
X109250000Y-132500000D02*
X107750000Y-134000000D01*
X109250000Y-132000000D02*
X109250000Y-132500000D01*
X112750000Y-125750000D02*
X111000000Y-127500000D01*
X112750000Y-114250000D02*
X112750000Y-120750000D01*
X109250000Y-129250000D02*
X109250000Y-132000000D01*
X111000000Y-112500000D02*
X112750000Y-114250000D01*
%TD*%
%TA.AperFunction,Conductor*%
%TO.N,Net-(J4-Pin_2)*%
G36*
X54443039Y-112019685D02*
G01*
X54488794Y-112072489D01*
X54500000Y-112124000D01*
X54500000Y-114500000D01*
X61463681Y-121463681D01*
X61497166Y-121525004D01*
X61500000Y-121551362D01*
X61500000Y-123376000D01*
X61480315Y-123443039D01*
X61427511Y-123488794D01*
X61376000Y-123500000D01*
X50874000Y-123500000D01*
X50806961Y-123480315D01*
X50761206Y-123427511D01*
X50750000Y-123376000D01*
X50750000Y-112124000D01*
X50769685Y-112056961D01*
X50822489Y-112011206D01*
X50874000Y-112000000D01*
X54376000Y-112000000D01*
X54443039Y-112019685D01*
G37*
%TD.AperFunction*%
%TD*%
%TA.AperFunction,Conductor*%
%TO.N,Net-(J2-Pin_2)*%
G36*
X54443039Y-70019685D02*
G01*
X54488794Y-70072489D01*
X54500000Y-70124000D01*
X54500000Y-72500000D01*
X61463681Y-79463681D01*
X61497166Y-79525004D01*
X61500000Y-79551362D01*
X61500000Y-81376000D01*
X61480315Y-81443039D01*
X61427511Y-81488794D01*
X61376000Y-81500000D01*
X50874000Y-81500000D01*
X50806961Y-81480315D01*
X50761206Y-81427511D01*
X50750000Y-81376000D01*
X50750000Y-70124000D01*
X50769685Y-70056961D01*
X50822489Y-70011206D01*
X50874000Y-70000000D01*
X54376000Y-70000000D01*
X54443039Y-70019685D01*
G37*
%TD.AperFunction*%
%TD*%
%TA.AperFunction,Conductor*%
%TO.N,GND*%
G36*
X102645650Y-50519685D02*
G01*
X102691405Y-50572489D01*
X102701349Y-50641647D01*
X102672324Y-50705203D01*
X102666292Y-50711681D01*
X102605485Y-50772487D01*
X102605485Y-50772488D01*
X102605483Y-50772490D01*
X102545862Y-50854550D01*
X102466657Y-50963566D01*
X102359433Y-51174003D01*
X102286446Y-51398631D01*
X102249500Y-51631902D01*
X102249500Y-51868097D01*
X102286446Y-52101368D01*
X102359433Y-52325996D01*
X102430029Y-52464547D01*
X102466657Y-52536433D01*
X102605483Y-52727510D01*
X102772490Y-52894517D01*
X102963567Y-53033343D01*
X103062991Y-53084002D01*
X103174003Y-53140566D01*
X103174005Y-53140566D01*
X103174008Y-53140568D01*
X103294412Y-53179689D01*
X103398631Y-53213553D01*
X103631903Y-53250500D01*
X103631908Y-53250500D01*
X103868097Y-53250500D01*
X104101368Y-53213553D01*
X104325992Y-53140568D01*
X104536433Y-53033343D01*
X104727510Y-52894517D01*
X104894517Y-52727510D01*
X105033343Y-52536433D01*
X105140568Y-52325992D01*
X105213553Y-52101368D01*
X105250500Y-51868097D01*
X105250500Y-51631902D01*
X105213553Y-51398631D01*
X105140566Y-51174003D01*
X105033342Y-50963566D01*
X105018102Y-50942590D01*
X104894517Y-50772490D01*
X104833708Y-50711681D01*
X104800223Y-50650358D01*
X104805207Y-50580666D01*
X104847079Y-50524733D01*
X104912543Y-50500316D01*
X104921389Y-50500000D01*
X114578611Y-50500000D01*
X114645650Y-50519685D01*
X114691405Y-50572489D01*
X114701349Y-50641647D01*
X114672324Y-50705203D01*
X114666292Y-50711681D01*
X114605485Y-50772487D01*
X114605485Y-50772488D01*
X114605483Y-50772490D01*
X114545862Y-50854550D01*
X114466657Y-50963566D01*
X114359433Y-51174003D01*
X114286446Y-51398631D01*
X114249500Y-51631902D01*
X114249500Y-51868097D01*
X114286446Y-52101368D01*
X114359433Y-52325996D01*
X114430029Y-52464547D01*
X114466657Y-52536433D01*
X114605483Y-52727510D01*
X114772490Y-52894517D01*
X114963567Y-53033343D01*
X115062991Y-53084002D01*
X115174003Y-53140566D01*
X115174005Y-53140566D01*
X115174008Y-53140568D01*
X115294412Y-53179689D01*
X115398631Y-53213553D01*
X115631903Y-53250500D01*
X115631908Y-53250500D01*
X115868097Y-53250500D01*
X116101368Y-53213553D01*
X116325992Y-53140568D01*
X116536433Y-53033343D01*
X116727510Y-52894517D01*
X116894517Y-52727510D01*
X117033343Y-52536433D01*
X117140568Y-52325992D01*
X117213553Y-52101368D01*
X117250500Y-51868097D01*
X117250500Y-51631902D01*
X117213553Y-51398631D01*
X117140566Y-51174003D01*
X117033342Y-50963566D01*
X117018102Y-50942590D01*
X116894517Y-50772490D01*
X116833708Y-50711681D01*
X116800223Y-50650358D01*
X116805207Y-50580666D01*
X116847079Y-50524733D01*
X116912543Y-50500316D01*
X116921389Y-50500000D01*
X148409276Y-50500000D01*
X148423955Y-50503786D01*
X148436252Y-50502970D01*
X148469257Y-50515472D01*
X148600326Y-50587911D01*
X148612087Y-50595301D01*
X148833918Y-50752699D01*
X148844768Y-50761351D01*
X149047576Y-50942590D01*
X149057407Y-50952421D01*
X149135618Y-51039940D01*
X149238644Y-51155226D01*
X149247302Y-51166083D01*
X149404691Y-51387902D01*
X149412084Y-51399668D01*
X149484527Y-51530741D01*
X149500000Y-51590723D01*
X149500000Y-151909276D01*
X149484527Y-151969258D01*
X149412087Y-152100327D01*
X149404690Y-152112099D01*
X149247308Y-152333907D01*
X149238644Y-152344773D01*
X149057409Y-152547576D01*
X149047576Y-152557409D01*
X148844773Y-152738644D01*
X148833907Y-152747308D01*
X148652535Y-152876000D01*
X148612100Y-152904690D01*
X148600327Y-152912087D01*
X148469258Y-152984527D01*
X148409276Y-153000000D01*
X125624000Y-153000000D01*
X125556961Y-152980315D01*
X125511206Y-152927511D01*
X125500000Y-152876000D01*
X125500000Y-148881995D01*
X143699500Y-148881995D01*
X143699500Y-149118004D01*
X143699501Y-149118020D01*
X143730306Y-149352010D01*
X143791394Y-149579993D01*
X143881714Y-149798045D01*
X143881719Y-149798056D01*
X143940582Y-149900008D01*
X143999727Y-150002450D01*
X143999729Y-150002453D01*
X143999730Y-150002454D01*
X144143406Y-150189697D01*
X144143412Y-150189704D01*
X144310295Y-150356587D01*
X144310301Y-150356592D01*
X144497550Y-150500273D01*
X144628918Y-150576118D01*
X144701943Y-150618280D01*
X144701948Y-150618282D01*
X144701951Y-150618284D01*
X144920007Y-150708606D01*
X145147986Y-150769693D01*
X145381989Y-150800500D01*
X145381996Y-150800500D01*
X145618004Y-150800500D01*
X145618011Y-150800500D01*
X145852014Y-150769693D01*
X146079993Y-150708606D01*
X146298049Y-150618284D01*
X146502450Y-150500273D01*
X146689699Y-150356592D01*
X146856592Y-150189699D01*
X147000273Y-150002450D01*
X147118284Y-149798049D01*
X147208606Y-149579993D01*
X147269693Y-149352014D01*
X147300500Y-149118011D01*
X147300500Y-148881989D01*
X147269693Y-148647986D01*
X147208606Y-148420007D01*
X147118284Y-148201951D01*
X147118282Y-148201948D01*
X147118280Y-148201943D01*
X147061377Y-148103385D01*
X147000273Y-147997550D01*
X146856592Y-147810301D01*
X146856587Y-147810295D01*
X146689704Y-147643412D01*
X146689697Y-147643406D01*
X146502454Y-147499730D01*
X146502453Y-147499729D01*
X146502450Y-147499727D01*
X146395877Y-147438197D01*
X146298056Y-147381719D01*
X146298045Y-147381714D01*
X146079993Y-147291394D01*
X145852014Y-147230307D01*
X145852013Y-147230306D01*
X145852010Y-147230306D01*
X145618020Y-147199501D01*
X145618017Y-147199500D01*
X145618011Y-147199500D01*
X145381989Y-147199500D01*
X145381983Y-147199500D01*
X145381979Y-147199501D01*
X145147989Y-147230306D01*
X144920006Y-147291394D01*
X144701954Y-147381714D01*
X144701943Y-147381719D01*
X144497545Y-147499730D01*
X144310302Y-147643406D01*
X144310295Y-147643412D01*
X144143412Y-147810295D01*
X144143406Y-147810302D01*
X143999730Y-147997545D01*
X143881719Y-148201943D01*
X143881714Y-148201954D01*
X143791394Y-148420006D01*
X143730306Y-148647989D01*
X143699501Y-148881979D01*
X143699500Y-148881995D01*
X125500000Y-148881995D01*
X125500000Y-146750000D01*
X76250000Y-146750000D01*
X76250000Y-152876000D01*
X76230315Y-152943039D01*
X76177511Y-152988794D01*
X76126000Y-153000000D01*
X61874000Y-153000000D01*
X61806961Y-152980315D01*
X61761206Y-152927511D01*
X61750000Y-152876000D01*
X61750000Y-148751500D01*
X61752550Y-148742814D01*
X61751262Y-148733853D01*
X61762240Y-148709812D01*
X61769685Y-148684461D01*
X61776525Y-148678533D01*
X61780287Y-148670297D01*
X61802521Y-148656007D01*
X61822489Y-148638706D01*
X61833003Y-148636418D01*
X61839065Y-148632523D01*
X61874000Y-148627500D01*
X61938719Y-148627500D01*
X62005758Y-148647185D01*
X62026400Y-148663819D01*
X62512589Y-149150008D01*
X63262589Y-149900008D01*
X63349992Y-149987411D01*
X63349993Y-149987412D01*
X63452760Y-150056079D01*
X63452773Y-150056086D01*
X63566960Y-150103383D01*
X63566965Y-150103385D01*
X63566969Y-150103385D01*
X63566970Y-150103386D01*
X63688194Y-150127500D01*
X63688197Y-150127500D01*
X64329508Y-150127500D01*
X64396547Y-150147185D01*
X64417189Y-150163819D01*
X64438073Y-150184703D01*
X64438077Y-150184706D01*
X64582446Y-150281171D01*
X64582459Y-150281178D01*
X64742871Y-150347622D01*
X64742876Y-150347624D01*
X64742880Y-150347624D01*
X64742881Y-150347625D01*
X64913177Y-150381500D01*
X64913180Y-150381500D01*
X65086822Y-150381500D01*
X65212039Y-150356592D01*
X65257124Y-150347624D01*
X65417547Y-150281175D01*
X65561923Y-150184706D01*
X65684706Y-150061923D01*
X65781175Y-149917547D01*
X65847624Y-149757124D01*
X65881500Y-149586820D01*
X65881500Y-149413180D01*
X65881500Y-149413177D01*
X65866783Y-149339192D01*
X65873010Y-149269600D01*
X65915873Y-149214423D01*
X65981762Y-149191178D01*
X65988400Y-149191000D01*
X70818060Y-149191000D01*
X70907870Y-149173134D01*
X70951557Y-149164445D01*
X71077311Y-149112356D01*
X71122064Y-149082453D01*
X71190487Y-149036735D01*
X75055403Y-145171819D01*
X75116726Y-145138334D01*
X75143084Y-145135500D01*
X77478299Y-145135500D01*
X77545338Y-145155185D01*
X77565980Y-145171819D01*
X77633889Y-145239728D01*
X77760272Y-145366111D01*
X77804711Y-145398398D01*
X77904869Y-145471168D01*
X77987708Y-145513375D01*
X78064119Y-145552309D01*
X78105802Y-145565851D01*
X78105804Y-145565853D01*
X78105805Y-145565853D01*
X78137880Y-145576275D01*
X78234103Y-145607541D01*
X78309759Y-145619523D01*
X78410630Y-145635500D01*
X78410634Y-145635500D01*
X104089370Y-145635500D01*
X104167824Y-145623073D01*
X104265897Y-145607541D01*
X104394193Y-145565853D01*
X104435881Y-145552309D01*
X104595132Y-145471167D01*
X104739728Y-145366111D01*
X104866111Y-145239728D01*
X105487819Y-144618020D01*
X105549142Y-144584535D01*
X105618834Y-144589519D01*
X105674767Y-144631391D01*
X105699184Y-144696855D01*
X105699500Y-144705701D01*
X105699500Y-144828846D01*
X105730261Y-144983489D01*
X105730264Y-144983501D01*
X105790602Y-145129172D01*
X105790609Y-145129185D01*
X105878210Y-145260288D01*
X105878213Y-145260292D01*
X105989707Y-145371786D01*
X105989711Y-145371789D01*
X106120814Y-145459390D01*
X106120827Y-145459397D01*
X106266498Y-145519735D01*
X106266503Y-145519737D01*
X106421153Y-145550499D01*
X106421156Y-145550500D01*
X106421158Y-145550500D01*
X106578844Y-145550500D01*
X106578845Y-145550499D01*
X106733497Y-145519737D01*
X106879179Y-145459394D01*
X106970466Y-145398398D01*
X107037143Y-145377520D01*
X107039357Y-145377500D01*
X133710643Y-145377500D01*
X133777682Y-145397185D01*
X133779534Y-145398398D01*
X133870814Y-145459390D01*
X133870827Y-145459397D01*
X134016498Y-145519735D01*
X134016503Y-145519737D01*
X134171153Y-145550499D01*
X134171156Y-145550500D01*
X134171158Y-145550500D01*
X134328844Y-145550500D01*
X134328845Y-145550499D01*
X134483497Y-145519737D01*
X134629179Y-145459394D01*
X134760289Y-145371789D01*
X134871789Y-145260289D01*
X134959394Y-145129179D01*
X135019737Y-144983497D01*
X135050500Y-144828842D01*
X135050500Y-144671158D01*
X135050500Y-144671155D01*
X135050499Y-144671153D01*
X135019737Y-144516503D01*
X135019735Y-144516498D01*
X134959397Y-144370827D01*
X134959390Y-144370814D01*
X134871789Y-144239711D01*
X134871786Y-144239707D01*
X134760292Y-144128213D01*
X134760288Y-144128210D01*
X134629185Y-144040609D01*
X134629172Y-144040602D01*
X134483501Y-143980264D01*
X134483489Y-143980261D01*
X134328845Y-143949500D01*
X134328842Y-143949500D01*
X134171158Y-143949500D01*
X134171155Y-143949500D01*
X134016510Y-143980261D01*
X134016498Y-143980264D01*
X133870827Y-144040602D01*
X133870814Y-144040609D01*
X133779534Y-144101602D01*
X133712857Y-144122480D01*
X133710643Y-144122500D01*
X120243887Y-144122500D01*
X120176848Y-144102815D01*
X120131093Y-144050011D01*
X120121149Y-143980853D01*
X120150174Y-143917297D01*
X120156206Y-143910819D01*
X121026205Y-143040819D01*
X121087528Y-143007334D01*
X121113886Y-143004500D01*
X124254915Y-143004500D01*
X124321954Y-143024185D01*
X124323805Y-143025398D01*
X124332441Y-143031168D01*
X124332450Y-143031173D01*
X124332453Y-143031175D01*
X124332455Y-143031175D01*
X124332459Y-143031178D01*
X124432194Y-143072489D01*
X124492876Y-143097624D01*
X124492880Y-143097624D01*
X124492881Y-143097625D01*
X124663177Y-143131500D01*
X124663180Y-143131500D01*
X124836822Y-143131500D01*
X124951394Y-143108709D01*
X125007124Y-143097624D01*
X125167547Y-143031175D01*
X125311923Y-142934706D01*
X125434706Y-142811923D01*
X125531175Y-142667547D01*
X125597624Y-142507124D01*
X125622137Y-142383890D01*
X125631500Y-142336822D01*
X125631500Y-142163177D01*
X125597625Y-141992881D01*
X125597624Y-141992880D01*
X125597624Y-141992876D01*
X125575924Y-141940487D01*
X125531178Y-141832459D01*
X125531172Y-141832448D01*
X125513066Y-141805350D01*
X125513065Y-141805349D01*
X125469751Y-141740525D01*
X136624500Y-141740525D01*
X136624500Y-141999474D01*
X136624501Y-141999491D01*
X136658299Y-142256217D01*
X136658300Y-142256222D01*
X136658301Y-142256228D01*
X136679896Y-142336822D01*
X136725324Y-142506364D01*
X136824423Y-142745609D01*
X136824427Y-142745619D01*
X136953906Y-142969883D01*
X137111551Y-143175331D01*
X137111557Y-143175338D01*
X137294661Y-143358442D01*
X137294668Y-143358448D01*
X137500116Y-143516093D01*
X137724380Y-143645572D01*
X137724381Y-143645572D01*
X137724384Y-143645574D01*
X137963634Y-143744675D01*
X138213772Y-143811699D01*
X138470519Y-143845500D01*
X138470526Y-143845500D01*
X138729474Y-143845500D01*
X138729481Y-143845500D01*
X138986228Y-143811699D01*
X139236366Y-143744675D01*
X139475616Y-143645574D01*
X139699884Y-143516093D01*
X139905333Y-143358447D01*
X140088447Y-143175333D01*
X140246093Y-142969884D01*
X140375574Y-142745616D01*
X140474675Y-142506366D01*
X140541699Y-142256228D01*
X140575500Y-141999481D01*
X140575500Y-141740519D01*
X140541699Y-141483772D01*
X140474675Y-141233634D01*
X140375574Y-140994384D01*
X140343332Y-140938540D01*
X140246093Y-140770116D01*
X140088448Y-140564668D01*
X140088442Y-140564661D01*
X139905338Y-140381557D01*
X139905331Y-140381551D01*
X139699883Y-140223906D01*
X139475619Y-140094427D01*
X139475609Y-140094423D01*
X139236364Y-139995324D01*
X139111297Y-139961813D01*
X138986228Y-139928301D01*
X138986222Y-139928300D01*
X138986217Y-139928299D01*
X138729491Y-139894501D01*
X138729486Y-139894500D01*
X138729481Y-139894500D01*
X138470519Y-139894500D01*
X138470513Y-139894500D01*
X138470508Y-139894501D01*
X138213782Y-139928299D01*
X138213775Y-139928300D01*
X138213772Y-139928301D01*
X138160908Y-139942465D01*
X137963635Y-139995324D01*
X137724390Y-140094423D01*
X137724380Y-140094427D01*
X137500116Y-140223906D01*
X137294668Y-140381551D01*
X137294661Y-140381557D01*
X137111557Y-140564661D01*
X137111551Y-140564668D01*
X136953906Y-140770116D01*
X136824427Y-140994380D01*
X136824423Y-140994390D01*
X136725324Y-141233635D01*
X136672465Y-141430908D01*
X136662305Y-141468831D01*
X136658302Y-141483769D01*
X136658299Y-141483782D01*
X136624501Y-141740508D01*
X136624500Y-141740525D01*
X125469751Y-141740525D01*
X125434706Y-141688077D01*
X125434703Y-141688073D01*
X125311926Y-141565296D01*
X125311922Y-141565293D01*
X125167553Y-141468828D01*
X125167540Y-141468821D01*
X125007128Y-141402377D01*
X125007118Y-141402374D01*
X124836822Y-141368500D01*
X124836820Y-141368500D01*
X124663180Y-141368500D01*
X124663178Y-141368500D01*
X124492881Y-141402374D01*
X124492871Y-141402377D01*
X124332459Y-141468821D01*
X124332441Y-141468831D01*
X124323805Y-141474602D01*
X124257128Y-141495480D01*
X124254915Y-141495500D01*
X120830446Y-141495500D01*
X120830426Y-141495499D01*
X120824312Y-141495499D01*
X120675688Y-141495499D01*
X120675686Y-141495499D01*
X120554105Y-141519684D01*
X120529920Y-141524495D01*
X120493229Y-141539693D01*
X120392614Y-141581368D01*
X120392606Y-141581373D01*
X120389010Y-141583776D01*
X120351605Y-141608769D01*
X120313889Y-141633970D01*
X120269033Y-141663941D01*
X120232475Y-141700500D01*
X120163941Y-141769034D01*
X120163939Y-141769036D01*
X118816563Y-143116411D01*
X118755240Y-143149896D01*
X118753075Y-143150347D01*
X118742880Y-143152375D01*
X118742871Y-143152377D01*
X118582459Y-143218821D01*
X118582446Y-143218828D01*
X118438077Y-143315293D01*
X118438073Y-143315296D01*
X118315296Y-143438073D01*
X118315293Y-143438077D01*
X118218828Y-143582446D01*
X118218821Y-143582459D01*
X118152377Y-143742871D01*
X118152374Y-143742881D01*
X118118500Y-143913177D01*
X118118500Y-143998500D01*
X118098815Y-144065539D01*
X118046011Y-144111294D01*
X117994500Y-144122500D01*
X114032700Y-144122500D01*
X113965661Y-144102815D01*
X113919906Y-144050011D01*
X113909962Y-143980853D01*
X113938987Y-143917297D01*
X113945019Y-143910819D01*
X121773387Y-136082451D01*
X125059208Y-132796630D01*
X145234500Y-132796630D01*
X145234500Y-135203370D01*
X145244833Y-135364780D01*
X145294697Y-135609618D01*
X145299621Y-135633794D01*
X145299621Y-135633796D01*
X145392997Y-135891971D01*
X145522961Y-136133787D01*
X145686756Y-136354114D01*
X145686765Y-136354124D01*
X145880875Y-136548234D01*
X145880885Y-136548243D01*
X146060139Y-136681504D01*
X146101212Y-136712038D01*
X146343028Y-136842002D01*
X146343027Y-136842002D01*
X146343031Y-136842003D01*
X146343034Y-136842005D01*
X146601205Y-136935379D01*
X146870220Y-136990167D01*
X147031630Y-137000500D01*
X147031640Y-137000500D01*
X147188360Y-137000500D01*
X147188370Y-137000500D01*
X147349780Y-136990167D01*
X147618795Y-136935379D01*
X147876966Y-136842005D01*
X148118791Y-136712036D01*
X148339115Y-136548243D01*
X148533243Y-136354115D01*
X148697036Y-136133791D01*
X148827005Y-135891966D01*
X148920379Y-135633795D01*
X148975167Y-135364780D01*
X148985500Y-135203370D01*
X148985500Y-132796630D01*
X148975167Y-132635220D01*
X148920379Y-132366205D01*
X148827005Y-132108034D01*
X148729003Y-131925688D01*
X148697038Y-131866212D01*
X148683219Y-131847624D01*
X148533243Y-131645885D01*
X148533234Y-131645875D01*
X148339124Y-131451765D01*
X148339114Y-131451756D01*
X148118787Y-131287961D01*
X147876971Y-131157997D01*
X147876972Y-131157997D01*
X147618795Y-131064621D01*
X147541043Y-131048786D01*
X147349780Y-131009833D01*
X147188370Y-130999500D01*
X147031630Y-130999500D01*
X146870220Y-131009833D01*
X146601205Y-131064621D01*
X146601203Y-131064621D01*
X146343028Y-131157997D01*
X146101212Y-131287961D01*
X145880885Y-131451756D01*
X145880875Y-131451765D01*
X145686765Y-131645875D01*
X145686756Y-131645885D01*
X145522961Y-131866212D01*
X145392997Y-132108028D01*
X145299621Y-132366203D01*
X145299621Y-132366205D01*
X145244833Y-132635220D01*
X145234500Y-132796630D01*
X125059208Y-132796630D01*
X129659989Y-128195849D01*
X129709353Y-128165600D01*
X129730025Y-128158884D01*
X129905405Y-128069524D01*
X130064646Y-127953828D01*
X130203828Y-127814646D01*
X130319524Y-127655405D01*
X130408884Y-127480025D01*
X130469709Y-127292826D01*
X130479678Y-127229883D01*
X130500500Y-127098422D01*
X130500500Y-126901577D01*
X130469709Y-126707173D01*
X130441487Y-126620317D01*
X130408884Y-126519975D01*
X130408882Y-126519971D01*
X130408882Y-126519970D01*
X130319523Y-126344594D01*
X130203828Y-126185354D01*
X130064646Y-126046172D01*
X130028860Y-126020172D01*
X145714500Y-126020172D01*
X145714500Y-126239827D01*
X145746920Y-126444524D01*
X145748862Y-126456780D01*
X145816740Y-126665686D01*
X145856070Y-126742876D01*
X145916464Y-126861404D01*
X146045566Y-127039101D01*
X146200898Y-127194433D01*
X146336327Y-127292826D01*
X146378599Y-127323538D01*
X146574314Y-127423260D01*
X146783220Y-127491138D01*
X147000172Y-127525500D01*
X147000173Y-127525500D01*
X147219827Y-127525500D01*
X147219828Y-127525500D01*
X147436780Y-127491138D01*
X147645686Y-127423260D01*
X147841401Y-127323538D01*
X147970307Y-127229883D01*
X148019101Y-127194433D01*
X148019103Y-127194430D01*
X148019107Y-127194428D01*
X148174428Y-127039107D01*
X148174430Y-127039103D01*
X148174433Y-127039101D01*
X148236386Y-126953828D01*
X148303538Y-126861401D01*
X148403260Y-126665686D01*
X148471138Y-126456780D01*
X148505500Y-126239828D01*
X148505500Y-126020172D01*
X148471138Y-125803220D01*
X148403260Y-125594314D01*
X148303538Y-125398599D01*
X148264302Y-125344595D01*
X148174433Y-125220898D01*
X148019101Y-125065566D01*
X147841404Y-124936464D01*
X147841403Y-124936463D01*
X147841401Y-124936462D01*
X147645686Y-124836740D01*
X147436780Y-124768862D01*
X147436778Y-124768861D01*
X147436777Y-124768861D01*
X147269081Y-124742301D01*
X147219828Y-124734500D01*
X147000172Y-124734500D01*
X146950919Y-124742301D01*
X146783223Y-124768861D01*
X146574311Y-124836741D01*
X146378595Y-124936464D01*
X146200898Y-125065566D01*
X146045566Y-125220898D01*
X145916464Y-125398595D01*
X145816741Y-125594311D01*
X145816740Y-125594313D01*
X145816740Y-125594314D01*
X145805414Y-125629172D01*
X145748861Y-125803223D01*
X145714500Y-126020172D01*
X130028860Y-126020172D01*
X129905405Y-125930476D01*
X129730029Y-125841117D01*
X129542826Y-125780290D01*
X129348422Y-125749500D01*
X129348417Y-125749500D01*
X129151583Y-125749500D01*
X129151578Y-125749500D01*
X128957173Y-125780290D01*
X128769970Y-125841117D01*
X128594594Y-125930476D01*
X128503741Y-125996485D01*
X128435354Y-126046172D01*
X128435352Y-126046174D01*
X128435351Y-126046174D01*
X128296174Y-126185351D01*
X128296174Y-126185352D01*
X128296172Y-126185354D01*
X128284400Y-126201557D01*
X128180476Y-126344594D01*
X128091117Y-126519971D01*
X128091114Y-126519978D01*
X128084398Y-126540649D01*
X128054149Y-126590009D01*
X117916076Y-136728082D01*
X117914994Y-136728672D01*
X117914383Y-136729743D01*
X117884411Y-136745372D01*
X117854753Y-136761567D01*
X117853523Y-136761479D01*
X117852431Y-136762049D01*
X117818771Y-136758993D01*
X117785061Y-136756583D01*
X117784074Y-136755844D01*
X117782847Y-136755733D01*
X117756182Y-136734964D01*
X117729128Y-136714711D01*
X117728379Y-136713308D01*
X117727725Y-136712799D01*
X117720596Y-136698724D01*
X117711406Y-136681504D01*
X117710904Y-136680075D01*
X117658884Y-136519975D01*
X117645258Y-136493233D01*
X117642511Y-136485413D01*
X117641714Y-136470195D01*
X117635500Y-136444310D01*
X117635500Y-104521701D01*
X117655185Y-104454662D01*
X117671819Y-104434020D01*
X119873816Y-102232023D01*
X122116111Y-99989729D01*
X122168554Y-99917547D01*
X122221167Y-99845132D01*
X122302309Y-99685881D01*
X122323463Y-99620775D01*
X122357539Y-99515901D01*
X122357539Y-99515900D01*
X122357540Y-99515897D01*
X122385500Y-99339366D01*
X122385500Y-89160634D01*
X122357540Y-88984103D01*
X122357539Y-88984099D01*
X122357539Y-88984098D01*
X122302310Y-88814121D01*
X122302308Y-88814118D01*
X122274143Y-88758839D01*
X122221167Y-88654868D01*
X122146653Y-88552309D01*
X122146653Y-88552308D01*
X122116114Y-88510275D01*
X122116109Y-88510269D01*
X120995451Y-87389612D01*
X120995431Y-87389590D01*
X119739730Y-86133891D01*
X119739729Y-86133890D01*
X119667442Y-86081370D01*
X119667442Y-86081369D01*
X119614558Y-86042947D01*
X119595132Y-86028833D01*
X119584236Y-86023281D01*
X119435885Y-85947692D01*
X119407056Y-85938325D01*
X119382899Y-85930476D01*
X119265897Y-85892459D01*
X119193584Y-85881006D01*
X119187613Y-85879439D01*
X119162762Y-85864466D01*
X119136557Y-85852044D01*
X119133203Y-85846657D01*
X119127766Y-85843382D01*
X119114955Y-85817353D01*
X119099625Y-85792733D01*
X119099715Y-85786387D01*
X119096913Y-85780693D01*
X119100208Y-85751872D01*
X119100623Y-85722870D01*
X119104130Y-85717580D01*
X119104851Y-85711276D01*
X119123202Y-85688814D01*
X119139233Y-85664637D01*
X119145042Y-85662083D01*
X119149058Y-85657169D01*
X119176642Y-85648194D01*
X119203196Y-85636523D01*
X119214812Y-85635775D01*
X119215499Y-85635552D01*
X119216501Y-85635666D01*
X119219089Y-85635500D01*
X120728299Y-85635500D01*
X120795338Y-85655185D01*
X120815980Y-85671819D01*
X123078181Y-87934020D01*
X123111666Y-87995343D01*
X123114500Y-88021701D01*
X123114500Y-100228298D01*
X123094815Y-100295337D01*
X123078181Y-100315979D01*
X120590011Y-102804148D01*
X120540653Y-102834396D01*
X120519975Y-102841115D01*
X120344594Y-102930476D01*
X120285240Y-102973600D01*
X120185354Y-103046172D01*
X120185352Y-103046174D01*
X120185351Y-103046174D01*
X120046174Y-103185351D01*
X120046174Y-103185352D01*
X120046172Y-103185354D01*
X120010465Y-103234500D01*
X119930476Y-103344594D01*
X119841115Y-103519975D01*
X119834396Y-103540653D01*
X119804148Y-103590011D01*
X119510272Y-103883889D01*
X119383891Y-104010269D01*
X119383890Y-104010270D01*
X119278831Y-104154869D01*
X119197693Y-104314114D01*
X119197689Y-104314122D01*
X119193405Y-104327310D01*
X119142458Y-104484106D01*
X119142457Y-104484107D01*
X119122196Y-104612039D01*
X119121173Y-104618500D01*
X119119492Y-104629112D01*
X119114500Y-104660630D01*
X119114500Y-121839370D01*
X119142458Y-122015894D01*
X119172187Y-122107389D01*
X119197692Y-122185885D01*
X119278833Y-122345132D01*
X119369613Y-122470079D01*
X119369612Y-122470079D01*
X119383886Y-122489724D01*
X119383891Y-122489730D01*
X123304148Y-126409987D01*
X123334397Y-126459347D01*
X123341116Y-126480026D01*
X123386430Y-126568960D01*
X123430476Y-126655405D01*
X123546172Y-126814646D01*
X123685354Y-126953828D01*
X123844595Y-127069524D01*
X123878541Y-127086820D01*
X124019970Y-127158882D01*
X124019972Y-127158882D01*
X124019975Y-127158884D01*
X124120317Y-127191487D01*
X124207173Y-127219709D01*
X124401578Y-127250500D01*
X124401583Y-127250500D01*
X124598422Y-127250500D01*
X124792826Y-127219709D01*
X124980025Y-127158884D01*
X125155405Y-127069524D01*
X125314646Y-126953828D01*
X125453828Y-126814646D01*
X125569524Y-126655405D01*
X125658884Y-126480025D01*
X125719709Y-126292826D01*
X125724990Y-126259481D01*
X125750500Y-126098422D01*
X125750500Y-125901577D01*
X125719709Y-125707173D01*
X125689817Y-125615176D01*
X125658884Y-125519975D01*
X125658882Y-125519972D01*
X125658882Y-125519970D01*
X125569523Y-125344594D01*
X125453828Y-125185354D01*
X125314646Y-125046172D01*
X125155405Y-124930476D01*
X124980026Y-124841116D01*
X124959347Y-124834397D01*
X124909987Y-124804148D01*
X121421819Y-121315980D01*
X121388334Y-121254657D01*
X121385500Y-121228299D01*
X121385500Y-120240525D01*
X136614500Y-120240525D01*
X136614500Y-120499474D01*
X136614501Y-120499491D01*
X136648299Y-120756217D01*
X136648300Y-120756222D01*
X136648301Y-120756228D01*
X136663225Y-120811926D01*
X136715324Y-121006364D01*
X136814423Y-121245609D01*
X136814427Y-121245619D01*
X136943906Y-121469883D01*
X137101551Y-121675331D01*
X137101557Y-121675338D01*
X137284661Y-121858442D01*
X137284668Y-121858448D01*
X137490116Y-122016093D01*
X137714380Y-122145572D01*
X137714381Y-122145572D01*
X137714384Y-122145574D01*
X137953634Y-122244675D01*
X138203772Y-122311699D01*
X138460519Y-122345500D01*
X138460526Y-122345500D01*
X138719474Y-122345500D01*
X138719481Y-122345500D01*
X138976228Y-122311699D01*
X139226366Y-122244675D01*
X139465616Y-122145574D01*
X139689884Y-122016093D01*
X139895333Y-121858447D01*
X140078447Y-121675333D01*
X140236093Y-121469884D01*
X140365574Y-121245616D01*
X140464675Y-121006366D01*
X140531699Y-120756228D01*
X140565500Y-120499481D01*
X140565500Y-120336822D01*
X141618499Y-120336822D01*
X141652374Y-120507118D01*
X141652377Y-120507128D01*
X141718821Y-120667540D01*
X141718828Y-120667553D01*
X141815293Y-120811922D01*
X141815296Y-120811926D01*
X141938073Y-120934703D01*
X141938077Y-120934706D01*
X142082446Y-121031171D01*
X142082459Y-121031178D01*
X142242871Y-121097622D01*
X142242876Y-121097624D01*
X142242880Y-121097624D01*
X142242881Y-121097625D01*
X142413177Y-121131500D01*
X142413180Y-121131500D01*
X142586822Y-121131500D01*
X142701394Y-121108709D01*
X142757124Y-121097624D01*
X142917547Y-121031175D01*
X143061923Y-120934706D01*
X143184706Y-120811923D01*
X143281175Y-120667547D01*
X143347624Y-120507124D01*
X143349652Y-120496926D01*
X143382033Y-120435018D01*
X143383530Y-120433493D01*
X144336059Y-119480966D01*
X144418630Y-119357389D01*
X144475505Y-119220079D01*
X144504501Y-119074312D01*
X144504501Y-118925688D01*
X144504501Y-118920578D01*
X144504500Y-118920552D01*
X144504500Y-111296630D01*
X145224500Y-111296630D01*
X145224500Y-113703370D01*
X145234833Y-113864780D01*
X145274984Y-114061926D01*
X145289621Y-114133794D01*
X145289621Y-114133796D01*
X145382997Y-114391971D01*
X145512961Y-114633787D01*
X145676756Y-114854114D01*
X145676765Y-114854124D01*
X145870875Y-115048234D01*
X145870885Y-115048243D01*
X146091212Y-115212038D01*
X146333028Y-115342002D01*
X146333027Y-115342002D01*
X146333031Y-115342003D01*
X146333034Y-115342005D01*
X146591205Y-115435379D01*
X146860220Y-115490167D01*
X147021630Y-115500500D01*
X147021640Y-115500500D01*
X147178360Y-115500500D01*
X147178370Y-115500500D01*
X147339780Y-115490167D01*
X147608795Y-115435379D01*
X147866966Y-115342005D01*
X148108791Y-115212036D01*
X148329115Y-115048243D01*
X148523243Y-114854115D01*
X148687036Y-114633791D01*
X148817005Y-114391966D01*
X148910379Y-114133795D01*
X148965167Y-113864780D01*
X148975500Y-113703370D01*
X148975500Y-111296630D01*
X148965167Y-111135220D01*
X148910379Y-110866205D01*
X148817005Y-110608034D01*
X148687036Y-110366209D01*
X148523243Y-110145885D01*
X148523234Y-110145875D01*
X148329124Y-109951765D01*
X148329114Y-109951756D01*
X148108787Y-109787961D01*
X147866971Y-109657997D01*
X147866972Y-109657997D01*
X147608795Y-109564621D01*
X147339780Y-109509833D01*
X147178370Y-109499500D01*
X147021630Y-109499500D01*
X146860220Y-109509833D01*
X146591205Y-109564621D01*
X146591203Y-109564621D01*
X146333028Y-109657997D01*
X146091212Y-109787961D01*
X145870885Y-109951756D01*
X145870875Y-109951765D01*
X145676765Y-110145875D01*
X145676756Y-110145885D01*
X145512961Y-110366212D01*
X145382997Y-110608028D01*
X145289621Y-110866203D01*
X145289621Y-110866205D01*
X145234833Y-111135220D01*
X145224500Y-111296630D01*
X144504500Y-111296630D01*
X144504500Y-104520172D01*
X145704500Y-104520172D01*
X145704500Y-104739827D01*
X145735899Y-104938077D01*
X145738862Y-104956780D01*
X145775495Y-105069525D01*
X145806741Y-105165688D01*
X145807685Y-105167540D01*
X145881253Y-105311926D01*
X145906464Y-105361404D01*
X146035566Y-105539101D01*
X146190898Y-105694433D01*
X146357181Y-105815242D01*
X146368599Y-105823538D01*
X146564314Y-105923260D01*
X146773220Y-105991138D01*
X146990172Y-106025500D01*
X146990173Y-106025500D01*
X147209827Y-106025500D01*
X147209828Y-106025500D01*
X147426780Y-105991138D01*
X147635686Y-105923260D01*
X147831401Y-105823538D01*
X147960307Y-105729883D01*
X148009101Y-105694433D01*
X148009103Y-105694430D01*
X148009107Y-105694428D01*
X148164428Y-105539107D01*
X148164430Y-105539103D01*
X148164433Y-105539101D01*
X148240281Y-105434703D01*
X148293538Y-105361401D01*
X148393260Y-105165686D01*
X148461138Y-104956780D01*
X148495500Y-104739828D01*
X148495500Y-104520172D01*
X148461138Y-104303220D01*
X148393260Y-104094314D01*
X148293538Y-103898599D01*
X148271670Y-103868500D01*
X148164433Y-103720898D01*
X148009101Y-103565566D01*
X147831404Y-103436464D01*
X147831403Y-103436463D01*
X147831401Y-103436462D01*
X147635686Y-103336740D01*
X147426780Y-103268862D01*
X147426778Y-103268861D01*
X147426777Y-103268861D01*
X147260120Y-103242465D01*
X147209828Y-103234500D01*
X146990172Y-103234500D01*
X146939879Y-103242465D01*
X146773223Y-103268861D01*
X146564311Y-103336741D01*
X146368595Y-103436464D01*
X146190898Y-103565566D01*
X146035566Y-103720898D01*
X145906464Y-103898595D01*
X145806741Y-104094311D01*
X145738861Y-104303223D01*
X145704500Y-104520172D01*
X144504500Y-104520172D01*
X144504500Y-96995083D01*
X144524185Y-96928044D01*
X144525399Y-96926191D01*
X144531175Y-96917547D01*
X144597624Y-96757124D01*
X144610777Y-96691000D01*
X144631500Y-96586822D01*
X144631500Y-96413177D01*
X144597625Y-96242881D01*
X144597624Y-96242880D01*
X144597624Y-96242876D01*
X144567829Y-96170943D01*
X144531178Y-96082459D01*
X144531171Y-96082446D01*
X144434706Y-95938077D01*
X144434703Y-95938073D01*
X144311926Y-95815296D01*
X144311922Y-95815293D01*
X144167553Y-95718828D01*
X144167540Y-95718821D01*
X144007128Y-95652377D01*
X144007118Y-95652374D01*
X143836822Y-95618500D01*
X143836820Y-95618500D01*
X143663180Y-95618500D01*
X143663178Y-95618500D01*
X143492881Y-95652374D01*
X143492871Y-95652377D01*
X143332459Y-95718821D01*
X143332446Y-95718828D01*
X143188077Y-95815293D01*
X143188073Y-95815296D01*
X143065296Y-95938073D01*
X143065293Y-95938077D01*
X142968828Y-96082446D01*
X142968821Y-96082459D01*
X142902377Y-96242871D01*
X142902374Y-96242881D01*
X142868500Y-96413177D01*
X142868500Y-96413180D01*
X142868500Y-96586820D01*
X142868500Y-96586822D01*
X142868499Y-96586822D01*
X142902374Y-96757118D01*
X142902377Y-96757128D01*
X142968822Y-96917542D01*
X142968824Y-96917545D01*
X142974601Y-96926191D01*
X142995480Y-96992868D01*
X142995500Y-96995083D01*
X142995500Y-118636112D01*
X142975815Y-118703151D01*
X142959181Y-118723793D01*
X142316563Y-119366411D01*
X142255240Y-119399896D01*
X142253073Y-119400347D01*
X142242882Y-119402373D01*
X142242873Y-119402376D01*
X142082459Y-119468821D01*
X142082446Y-119468828D01*
X141938077Y-119565293D01*
X141938073Y-119565296D01*
X141815296Y-119688073D01*
X141815293Y-119688077D01*
X141718828Y-119832446D01*
X141718821Y-119832459D01*
X141652377Y-119992871D01*
X141652374Y-119992881D01*
X141618500Y-120163177D01*
X141618500Y-120163180D01*
X141618500Y-120336820D01*
X141618500Y-120336822D01*
X141618499Y-120336822D01*
X140565500Y-120336822D01*
X140565500Y-120240519D01*
X140531699Y-119983772D01*
X140464675Y-119733634D01*
X140365574Y-119494384D01*
X140357828Y-119480968D01*
X140236093Y-119270116D01*
X140078448Y-119064668D01*
X140078442Y-119064661D01*
X139895338Y-118881557D01*
X139895331Y-118881551D01*
X139689883Y-118723906D01*
X139465619Y-118594427D01*
X139465609Y-118594423D01*
X139226364Y-118495324D01*
X139101297Y-118461813D01*
X138976228Y-118428301D01*
X138976222Y-118428300D01*
X138976217Y-118428299D01*
X138719491Y-118394501D01*
X138719486Y-118394500D01*
X138719481Y-118394500D01*
X138460519Y-118394500D01*
X138460513Y-118394500D01*
X138460508Y-118394501D01*
X138203782Y-118428299D01*
X138203775Y-118428300D01*
X138203772Y-118428301D01*
X138150908Y-118442465D01*
X137953635Y-118495324D01*
X137714390Y-118594423D01*
X137714380Y-118594427D01*
X137490116Y-118723906D01*
X137284668Y-118881551D01*
X137284661Y-118881557D01*
X137101557Y-119064661D01*
X137101551Y-119064668D01*
X136943906Y-119270116D01*
X136814427Y-119494380D01*
X136814423Y-119494390D01*
X136715324Y-119733635D01*
X136648302Y-119983769D01*
X136648299Y-119983782D01*
X136614501Y-120240508D01*
X136614500Y-120240525D01*
X121385500Y-120240525D01*
X121385500Y-107336822D01*
X125618499Y-107336822D01*
X125652374Y-107507118D01*
X125652377Y-107507128D01*
X125718821Y-107667540D01*
X125718828Y-107667553D01*
X125815293Y-107811922D01*
X125815296Y-107811926D01*
X125938073Y-107934703D01*
X125938077Y-107934706D01*
X126082446Y-108031171D01*
X126082459Y-108031178D01*
X126206264Y-108082459D01*
X126242876Y-108097624D01*
X126242880Y-108097624D01*
X126242881Y-108097625D01*
X126413177Y-108131500D01*
X126413180Y-108131500D01*
X126586822Y-108131500D01*
X126701394Y-108108709D01*
X126757124Y-108097624D01*
X126917547Y-108031175D01*
X127061923Y-107934706D01*
X127184706Y-107811923D01*
X127281175Y-107667547D01*
X127347624Y-107507124D01*
X127381500Y-107336820D01*
X127381500Y-107269096D01*
X127401185Y-107202057D01*
X127417814Y-107181420D01*
X133097111Y-101502122D01*
X133115419Y-101492125D01*
X133130896Y-101478129D01*
X133145469Y-101475716D01*
X133158432Y-101468639D01*
X133179241Y-101470127D01*
X133199828Y-101466720D01*
X133213391Y-101472569D01*
X133228124Y-101473623D01*
X133244826Y-101486126D01*
X133263985Y-101494389D01*
X133281009Y-101513213D01*
X133284057Y-101515495D01*
X133287659Y-101520566D01*
X133287869Y-101520878D01*
X133308972Y-101587485D01*
X133309000Y-101590117D01*
X133309000Y-107181942D01*
X133309000Y-107181943D01*
X133309000Y-107318057D01*
X133309000Y-107318059D01*
X133308999Y-107318059D01*
X133335553Y-107451551D01*
X133335556Y-107451561D01*
X133387642Y-107577309D01*
X133387644Y-107577312D01*
X133463263Y-107690485D01*
X133463269Y-107690492D01*
X139914372Y-114141595D01*
X139914379Y-114141601D01*
X140027552Y-114217220D01*
X140027555Y-114217222D01*
X140153303Y-114269308D01*
X140153308Y-114269310D01*
X140203202Y-114279234D01*
X140235640Y-114285687D01*
X140280340Y-114304202D01*
X140402813Y-114386036D01*
X140402826Y-114386043D01*
X140563238Y-114452487D01*
X140563243Y-114452489D01*
X140563247Y-114452489D01*
X140563248Y-114452490D01*
X140733544Y-114486365D01*
X140733547Y-114486365D01*
X140907189Y-114486365D01*
X141021761Y-114463574D01*
X141077491Y-114452489D01*
X141237914Y-114386040D01*
X141237919Y-114386036D01*
X141237922Y-114386035D01*
X141315864Y-114333955D01*
X141382541Y-114313076D01*
X141432208Y-114322495D01*
X141483465Y-114343726D01*
X141492876Y-114347624D01*
X141492880Y-114347624D01*
X141492881Y-114347625D01*
X141663177Y-114381500D01*
X141663180Y-114381500D01*
X141836822Y-114381500D01*
X141951394Y-114358709D01*
X142007124Y-114347624D01*
X142167547Y-114281175D01*
X142311923Y-114184706D01*
X142434706Y-114061923D01*
X142531175Y-113917547D01*
X142597624Y-113757124D01*
X142621633Y-113636426D01*
X142631500Y-113586822D01*
X142631500Y-113413177D01*
X142597625Y-113242881D01*
X142597624Y-113242880D01*
X142597624Y-113242876D01*
X142597622Y-113242871D01*
X142531178Y-113082459D01*
X142531171Y-113082446D01*
X142434706Y-112938077D01*
X142434703Y-112938073D01*
X142311926Y-112815296D01*
X142311922Y-112815293D01*
X142167553Y-112718828D01*
X142167540Y-112718821D01*
X142007128Y-112652377D01*
X142007116Y-112652374D01*
X141884823Y-112628048D01*
X141822912Y-112595663D01*
X141821333Y-112594112D01*
X136227319Y-107000097D01*
X136193834Y-106938774D01*
X136191000Y-106912416D01*
X136191000Y-102590118D01*
X136210685Y-102523079D01*
X136211898Y-102521227D01*
X136222771Y-102504955D01*
X136281175Y-102417547D01*
X136347624Y-102257124D01*
X136362433Y-102182676D01*
X136381500Y-102086822D01*
X136381500Y-101913177D01*
X136347625Y-101742881D01*
X136347624Y-101742880D01*
X136347624Y-101742876D01*
X136334075Y-101710165D01*
X136281178Y-101582459D01*
X136281171Y-101582446D01*
X136184706Y-101438077D01*
X136184703Y-101438073D01*
X136061926Y-101315296D01*
X136061922Y-101315293D01*
X135917553Y-101218828D01*
X135917540Y-101218821D01*
X135757128Y-101152377D01*
X135757118Y-101152374D01*
X135586822Y-101118500D01*
X135586820Y-101118500D01*
X135413180Y-101118500D01*
X135413178Y-101118500D01*
X135242881Y-101152374D01*
X135242871Y-101152377D01*
X135082459Y-101218821D01*
X135082443Y-101218830D01*
X135069320Y-101227598D01*
X135002641Y-101248472D01*
X134935262Y-101229984D01*
X134888575Y-101178002D01*
X134877403Y-101109031D01*
X134878815Y-101100316D01*
X134881500Y-101086820D01*
X134881500Y-100913180D01*
X134881500Y-100913177D01*
X134847625Y-100742881D01*
X134847624Y-100742880D01*
X134847624Y-100742876D01*
X134846673Y-100740579D01*
X134781178Y-100582459D01*
X134781171Y-100582446D01*
X134684706Y-100438077D01*
X134684703Y-100438073D01*
X134561926Y-100315296D01*
X134561922Y-100315293D01*
X134520914Y-100287892D01*
X134476109Y-100234279D01*
X134467402Y-100164954D01*
X134497557Y-100101927D01*
X134502105Y-100097128D01*
X136538888Y-98060345D01*
X136600209Y-98026862D01*
X136669901Y-98031846D01*
X136725834Y-98073718D01*
X136750251Y-98139182D01*
X136741129Y-98195479D01*
X136725324Y-98233635D01*
X136658302Y-98483769D01*
X136658299Y-98483782D01*
X136624501Y-98740508D01*
X136624500Y-98740525D01*
X136624500Y-98999474D01*
X136624501Y-98999491D01*
X136658299Y-99256217D01*
X136658300Y-99256222D01*
X136658301Y-99256228D01*
X136682791Y-99347625D01*
X136725324Y-99506364D01*
X136824423Y-99745609D01*
X136824427Y-99745619D01*
X136953906Y-99969883D01*
X137111551Y-100175331D01*
X137111557Y-100175338D01*
X137294661Y-100358442D01*
X137294668Y-100358448D01*
X137500116Y-100516093D01*
X137724380Y-100645572D01*
X137724381Y-100645572D01*
X137724384Y-100645574D01*
X137963634Y-100744675D01*
X138213772Y-100811699D01*
X138470519Y-100845500D01*
X138470526Y-100845500D01*
X138729474Y-100845500D01*
X138729481Y-100845500D01*
X138986228Y-100811699D01*
X139236366Y-100744675D01*
X139475616Y-100645574D01*
X139699884Y-100516093D01*
X139905333Y-100358447D01*
X140088447Y-100175333D01*
X140246093Y-99969884D01*
X140375574Y-99745616D01*
X140474675Y-99506366D01*
X140541699Y-99256228D01*
X140575500Y-98999481D01*
X140575500Y-98740519D01*
X140541699Y-98483772D01*
X140474675Y-98233634D01*
X140375574Y-97994384D01*
X140357607Y-97963265D01*
X140246093Y-97770116D01*
X140088448Y-97564668D01*
X140088442Y-97564661D01*
X139905338Y-97381557D01*
X139905331Y-97381551D01*
X139699883Y-97223906D01*
X139475619Y-97094427D01*
X139475609Y-97094423D01*
X139236364Y-96995324D01*
X139095081Y-96957468D01*
X138986228Y-96928301D01*
X138986222Y-96928300D01*
X138986217Y-96928299D01*
X138729491Y-96894501D01*
X138729486Y-96894500D01*
X138729481Y-96894500D01*
X138470519Y-96894500D01*
X138470513Y-96894500D01*
X138470508Y-96894501D01*
X138213782Y-96928299D01*
X138213775Y-96928300D01*
X138213772Y-96928301D01*
X138160908Y-96942465D01*
X137963635Y-96995324D01*
X137925479Y-97011129D01*
X137914274Y-97012333D01*
X137904386Y-97017733D01*
X137880157Y-97016000D01*
X137856009Y-97018596D01*
X137845934Y-97013552D01*
X137834694Y-97012749D01*
X137815249Y-96998192D01*
X137793531Y-96987321D01*
X137787780Y-96977629D01*
X137778761Y-96970877D01*
X137770273Y-96948121D01*
X137757879Y-96927231D01*
X137758281Y-96915969D01*
X137754344Y-96905413D01*
X137759506Y-96881681D01*
X137760374Y-96857406D01*
X137767186Y-96846378D01*
X137769196Y-96837140D01*
X137790344Y-96808889D01*
X137858506Y-96740728D01*
X137858511Y-96740724D01*
X137868714Y-96730520D01*
X137868716Y-96730520D01*
X137980520Y-96618716D01*
X138034918Y-96524495D01*
X138059577Y-96481785D01*
X138100500Y-96329057D01*
X138100500Y-96170943D01*
X138100500Y-89796630D01*
X145234500Y-89796630D01*
X145234500Y-92203370D01*
X145244833Y-92364780D01*
X145299621Y-92633794D01*
X145299621Y-92633796D01*
X145311145Y-92665659D01*
X145364122Y-92812136D01*
X145392997Y-92891971D01*
X145522961Y-93133787D01*
X145686756Y-93354114D01*
X145686765Y-93354124D01*
X145880875Y-93548234D01*
X145880885Y-93548243D01*
X146101212Y-93712038D01*
X146343028Y-93842002D01*
X146343027Y-93842002D01*
X146343031Y-93842003D01*
X146343034Y-93842005D01*
X146601205Y-93935379D01*
X146870220Y-93990167D01*
X147031630Y-94000500D01*
X147031640Y-94000500D01*
X147188360Y-94000500D01*
X147188370Y-94000500D01*
X147349780Y-93990167D01*
X147618795Y-93935379D01*
X147876966Y-93842005D01*
X148118791Y-93712036D01*
X148339115Y-93548243D01*
X148533243Y-93354115D01*
X148697036Y-93133791D01*
X148827005Y-92891966D01*
X148920379Y-92633795D01*
X148975167Y-92364780D01*
X148985500Y-92203370D01*
X148985500Y-89796630D01*
X148975167Y-89635220D01*
X148920379Y-89366205D01*
X148827005Y-89108034D01*
X148825771Y-89105738D01*
X148697038Y-88866212D01*
X148683219Y-88847624D01*
X148533243Y-88645885D01*
X148533234Y-88645875D01*
X148339124Y-88451765D01*
X148339114Y-88451756D01*
X148118787Y-88287961D01*
X147876971Y-88157997D01*
X147876972Y-88157997D01*
X147618795Y-88064621D01*
X147349780Y-88009833D01*
X147188370Y-87999500D01*
X147031630Y-87999500D01*
X146870220Y-88009833D01*
X146601205Y-88064621D01*
X146601203Y-88064621D01*
X146343028Y-88157997D01*
X146101212Y-88287961D01*
X145880885Y-88451756D01*
X145880875Y-88451765D01*
X145686765Y-88645875D01*
X145686756Y-88645885D01*
X145522961Y-88866212D01*
X145392997Y-89108028D01*
X145299621Y-89366203D01*
X145299621Y-89366205D01*
X145244833Y-89635220D01*
X145234500Y-89796630D01*
X138100500Y-89796630D01*
X138100500Y-83020172D01*
X145714500Y-83020172D01*
X145714500Y-83239827D01*
X145747422Y-83447692D01*
X145748862Y-83456780D01*
X145816740Y-83665686D01*
X145907898Y-83844594D01*
X145916464Y-83861404D01*
X146045566Y-84039101D01*
X146200898Y-84194433D01*
X146357473Y-84308189D01*
X146378599Y-84323538D01*
X146574314Y-84423260D01*
X146783220Y-84491138D01*
X147000172Y-84525500D01*
X147000173Y-84525500D01*
X147219827Y-84525500D01*
X147219828Y-84525500D01*
X147436780Y-84491138D01*
X147645686Y-84423260D01*
X147841401Y-84323538D01*
X147952424Y-84242876D01*
X148019101Y-84194433D01*
X148019103Y-84194430D01*
X148019107Y-84194428D01*
X148174428Y-84039107D01*
X148174430Y-84039103D01*
X148174433Y-84039101D01*
X148247833Y-83938073D01*
X148303538Y-83861401D01*
X148403260Y-83665686D01*
X148471138Y-83456780D01*
X148505500Y-83239828D01*
X148505500Y-83020172D01*
X148471138Y-82803220D01*
X148403260Y-82594314D01*
X148303538Y-82398599D01*
X148249309Y-82323958D01*
X148174433Y-82220898D01*
X148019101Y-82065566D01*
X147841404Y-81936464D01*
X147841403Y-81936463D01*
X147841401Y-81936462D01*
X147645686Y-81836740D01*
X147436780Y-81768862D01*
X147436778Y-81768861D01*
X147436777Y-81768861D01*
X147270120Y-81742465D01*
X147219828Y-81734500D01*
X147000172Y-81734500D01*
X146949879Y-81742465D01*
X146783223Y-81768861D01*
X146574311Y-81836741D01*
X146378595Y-81936464D01*
X146200898Y-82065566D01*
X146045566Y-82220898D01*
X145916464Y-82398595D01*
X145816741Y-82594311D01*
X145748861Y-82803223D01*
X145714500Y-83020172D01*
X138100500Y-83020172D01*
X138100500Y-80839060D01*
X138100501Y-80839047D01*
X138100501Y-80670944D01*
X138100501Y-80670943D01*
X138059577Y-80518216D01*
X138059573Y-80518209D01*
X137980524Y-80381290D01*
X137980518Y-80381282D01*
X136386819Y-78787583D01*
X136353334Y-78726260D01*
X136350500Y-78699902D01*
X136350500Y-77240525D01*
X136624500Y-77240525D01*
X136624500Y-77499474D01*
X136624501Y-77499491D01*
X136658299Y-77756217D01*
X136658300Y-77756222D01*
X136658301Y-77756228D01*
X136688384Y-77868500D01*
X136725324Y-78006364D01*
X136824423Y-78245609D01*
X136824427Y-78245619D01*
X136953906Y-78469883D01*
X137111551Y-78675331D01*
X137111557Y-78675338D01*
X137294661Y-78858442D01*
X137294668Y-78858448D01*
X137500116Y-79016093D01*
X137724380Y-79145572D01*
X137724381Y-79145572D01*
X137724384Y-79145574D01*
X137963634Y-79244675D01*
X138213772Y-79311699D01*
X138470519Y-79345500D01*
X138470526Y-79345500D01*
X138729474Y-79345500D01*
X138729481Y-79345500D01*
X138986228Y-79311699D01*
X139236366Y-79244675D01*
X139475616Y-79145574D01*
X139699884Y-79016093D01*
X139905333Y-78858447D01*
X140088447Y-78675333D01*
X140246093Y-78469884D01*
X140375574Y-78245616D01*
X140474675Y-78006366D01*
X140541699Y-77756228D01*
X140575500Y-77499481D01*
X140575500Y-77240519D01*
X140541699Y-76983772D01*
X140474675Y-76733634D01*
X140375574Y-76494384D01*
X140304223Y-76370801D01*
X140246093Y-76270116D01*
X140088448Y-76064668D01*
X140088442Y-76064661D01*
X139905338Y-75881557D01*
X139905331Y-75881551D01*
X139699883Y-75723906D01*
X139475619Y-75594427D01*
X139475609Y-75594423D01*
X139236364Y-75495324D01*
X139111297Y-75461813D01*
X138986228Y-75428301D01*
X138986222Y-75428300D01*
X138986217Y-75428299D01*
X138729491Y-75394501D01*
X138729486Y-75394500D01*
X138729481Y-75394500D01*
X138470519Y-75394500D01*
X138470513Y-75394500D01*
X138470508Y-75394501D01*
X138213782Y-75428299D01*
X138213775Y-75428300D01*
X138213772Y-75428301D01*
X138160908Y-75442465D01*
X137963635Y-75495324D01*
X137724390Y-75594423D01*
X137724380Y-75594427D01*
X137500116Y-75723906D01*
X137294668Y-75881551D01*
X137294661Y-75881557D01*
X137111557Y-76064661D01*
X137111551Y-76064668D01*
X136953906Y-76270116D01*
X136824427Y-76494380D01*
X136824423Y-76494390D01*
X136725324Y-76733635D01*
X136658302Y-76983769D01*
X136658299Y-76983782D01*
X136624501Y-77240508D01*
X136624500Y-77240525D01*
X136350500Y-77240525D01*
X136350500Y-68296630D01*
X145234500Y-68296630D01*
X145234500Y-70703370D01*
X145244833Y-70864778D01*
X145299621Y-71133794D01*
X145299621Y-71133796D01*
X145392997Y-71391971D01*
X145522961Y-71633787D01*
X145686756Y-71854114D01*
X145686765Y-71854124D01*
X145880875Y-72048234D01*
X145880885Y-72048243D01*
X146101212Y-72212038D01*
X146343028Y-72342002D01*
X146343027Y-72342002D01*
X146343031Y-72342003D01*
X146343034Y-72342005D01*
X146601205Y-72435379D01*
X146870220Y-72490167D01*
X147031630Y-72500500D01*
X147031640Y-72500500D01*
X147188360Y-72500500D01*
X147188370Y-72500500D01*
X147349780Y-72490167D01*
X147618795Y-72435379D01*
X147876966Y-72342005D01*
X148118791Y-72212036D01*
X148339115Y-72048243D01*
X148533243Y-71854115D01*
X148697036Y-71633791D01*
X148827005Y-71391966D01*
X148920379Y-71133795D01*
X148975167Y-70864780D01*
X148985500Y-70703370D01*
X148985500Y-68296630D01*
X148975167Y-68135220D01*
X148920379Y-67866205D01*
X148827005Y-67608034D01*
X148827002Y-67608028D01*
X148697038Y-67366212D01*
X148680397Y-67343828D01*
X148533243Y-67145885D01*
X148533234Y-67145875D01*
X148339124Y-66951765D01*
X148339114Y-66951756D01*
X148118787Y-66787961D01*
X147876971Y-66657997D01*
X147876972Y-66657997D01*
X147618795Y-66564621D01*
X147349780Y-66509833D01*
X147188370Y-66499500D01*
X147031630Y-66499500D01*
X146870220Y-66509833D01*
X146601205Y-66564621D01*
X146601203Y-66564621D01*
X146343028Y-66657997D01*
X146101212Y-66787961D01*
X145880885Y-66951756D01*
X145880875Y-66951765D01*
X145686765Y-67145875D01*
X145686756Y-67145885D01*
X145522961Y-67366212D01*
X145392997Y-67608028D01*
X145299621Y-67866203D01*
X145299621Y-67866205D01*
X145244833Y-68135220D01*
X145234500Y-68296630D01*
X136350500Y-68296630D01*
X136350500Y-61520172D01*
X145714500Y-61520172D01*
X145714500Y-61739828D01*
X145748862Y-61956780D01*
X145816740Y-62165686D01*
X145871789Y-62273726D01*
X145916464Y-62361404D01*
X146045566Y-62539101D01*
X146200898Y-62694433D01*
X146344773Y-62798962D01*
X146378599Y-62823538D01*
X146574314Y-62923260D01*
X146783220Y-62991138D01*
X147000172Y-63025500D01*
X147000173Y-63025500D01*
X147219827Y-63025500D01*
X147219828Y-63025500D01*
X147436780Y-62991138D01*
X147645686Y-62923260D01*
X147841401Y-62823538D01*
X147970307Y-62729883D01*
X148019101Y-62694433D01*
X148019103Y-62694430D01*
X148019107Y-62694428D01*
X148174428Y-62539107D01*
X148174430Y-62539103D01*
X148174433Y-62539101D01*
X148231049Y-62461174D01*
X148303538Y-62361401D01*
X148403260Y-62165686D01*
X148471138Y-61956780D01*
X148505500Y-61739828D01*
X148505500Y-61520172D01*
X148471138Y-61303220D01*
X148403260Y-61094314D01*
X148303538Y-60898599D01*
X148295242Y-60887181D01*
X148174433Y-60720898D01*
X148019101Y-60565566D01*
X147841404Y-60436464D01*
X147841403Y-60436463D01*
X147841401Y-60436462D01*
X147645686Y-60336740D01*
X147436780Y-60268862D01*
X147436778Y-60268861D01*
X147436777Y-60268861D01*
X147270120Y-60242465D01*
X147219828Y-60234500D01*
X147000172Y-60234500D01*
X146949879Y-60242465D01*
X146783223Y-60268861D01*
X146574311Y-60336741D01*
X146378595Y-60436464D01*
X146200898Y-60565566D01*
X146045566Y-60720898D01*
X145916464Y-60898595D01*
X145816741Y-61094311D01*
X145748861Y-61303223D01*
X145717614Y-61500508D01*
X145714500Y-61520172D01*
X136350500Y-61520172D01*
X136350500Y-59589060D01*
X136350501Y-59589047D01*
X136350501Y-59420944D01*
X136350501Y-59420943D01*
X136309577Y-59268216D01*
X136278018Y-59213553D01*
X136230524Y-59131290D01*
X136230518Y-59131282D01*
X135886819Y-58787583D01*
X135872115Y-58760655D01*
X135855523Y-58734837D01*
X135854631Y-58728636D01*
X135853334Y-58726260D01*
X135850500Y-58699902D01*
X135850500Y-58666519D01*
X135870185Y-58599480D01*
X135886814Y-58578842D01*
X136005472Y-58460185D01*
X136093478Y-58314606D01*
X136144086Y-58152196D01*
X136150500Y-58081616D01*
X136150500Y-57418384D01*
X136144086Y-57347804D01*
X136093478Y-57185394D01*
X136005472Y-57039815D01*
X136005470Y-57039813D01*
X136005469Y-57039811D01*
X135885188Y-56919530D01*
X135819450Y-56879790D01*
X135739606Y-56831522D01*
X135577196Y-56780914D01*
X135577194Y-56780913D01*
X135577192Y-56780913D01*
X135527778Y-56776423D01*
X135506616Y-56774500D01*
X134993384Y-56774500D01*
X134974145Y-56776248D01*
X134922807Y-56780913D01*
X134760393Y-56831522D01*
X134614811Y-56919530D01*
X134614810Y-56919531D01*
X134512327Y-57022015D01*
X134451004Y-57055500D01*
X134381312Y-57050516D01*
X134336965Y-57022015D01*
X134234877Y-56919927D01*
X134089395Y-56831980D01*
X134089396Y-56831980D01*
X133927105Y-56781409D01*
X133927106Y-56781409D01*
X133856572Y-56775000D01*
X133850000Y-56775000D01*
X133850000Y-58724999D01*
X133856581Y-58724999D01*
X133927102Y-58718591D01*
X133927107Y-58718590D01*
X134089396Y-58668018D01*
X134234877Y-58580072D01*
X134234878Y-58580071D01*
X134336963Y-58477985D01*
X134344907Y-58473646D01*
X134350334Y-58466398D01*
X134375095Y-58457162D01*
X134398286Y-58444499D01*
X134407315Y-58445144D01*
X134415798Y-58441981D01*
X134441618Y-58447597D01*
X134467977Y-58449483D01*
X134477031Y-58455301D01*
X134484071Y-58456833D01*
X134512326Y-58477983D01*
X134613182Y-58578839D01*
X134646666Y-58640160D01*
X134649500Y-58666519D01*
X134649500Y-58913330D01*
X134649499Y-58913348D01*
X134649499Y-59079054D01*
X134649498Y-59079054D01*
X134665981Y-59140568D01*
X134690423Y-59231785D01*
X134711457Y-59268216D01*
X134750139Y-59335216D01*
X134769479Y-59368715D01*
X134881285Y-59480521D01*
X135113181Y-59712416D01*
X135146666Y-59773739D01*
X135149500Y-59800097D01*
X135149500Y-78913330D01*
X135149499Y-78913348D01*
X135149499Y-79079054D01*
X135149498Y-79079054D01*
X135190423Y-79231785D01*
X135201228Y-79250499D01*
X135201229Y-79250502D01*
X135269475Y-79368709D01*
X135269481Y-79368717D01*
X135388349Y-79487585D01*
X135388355Y-79487590D01*
X136863181Y-80962416D01*
X136896666Y-81023739D01*
X136899500Y-81050097D01*
X136899500Y-95949903D01*
X136879815Y-96016942D01*
X136863181Y-96037584D01*
X135836093Y-97064671D01*
X135774770Y-97098156D01*
X135705078Y-97093172D01*
X135649145Y-97051300D01*
X135624728Y-96985836D01*
X135633852Y-96929535D01*
X135634363Y-96928302D01*
X135648398Y-96894419D01*
X135716270Y-96641116D01*
X135750500Y-96381120D01*
X135750500Y-96118880D01*
X135716270Y-95858884D01*
X135648398Y-95605581D01*
X135617578Y-95531175D01*
X135548046Y-95363309D01*
X135548041Y-95363299D01*
X135416924Y-95136196D01*
X135257281Y-94928148D01*
X135257274Y-94928140D01*
X135071860Y-94742726D01*
X135071851Y-94742718D01*
X134863803Y-94583075D01*
X134636700Y-94451958D01*
X134636690Y-94451953D01*
X134394428Y-94351605D01*
X134394421Y-94351603D01*
X134394419Y-94351602D01*
X134141116Y-94283730D01*
X134067409Y-94274026D01*
X133881127Y-94249500D01*
X133881120Y-94249500D01*
X133618880Y-94249500D01*
X133618872Y-94249500D01*
X133387772Y-94279926D01*
X133358884Y-94283730D01*
X133251759Y-94312434D01*
X133105581Y-94351602D01*
X133105571Y-94351605D01*
X132863309Y-94451953D01*
X132863299Y-94451958D01*
X132636196Y-94583075D01*
X132428148Y-94742718D01*
X132242718Y-94928148D01*
X132083075Y-95136196D01*
X131951958Y-95363299D01*
X131951953Y-95363309D01*
X131851605Y-95605571D01*
X131851602Y-95605581D01*
X131795410Y-95815296D01*
X131783730Y-95858885D01*
X131749500Y-96118872D01*
X131749500Y-96381127D01*
X131766400Y-96509485D01*
X131783730Y-96641116D01*
X131848189Y-96881681D01*
X131851602Y-96894418D01*
X131851605Y-96894428D01*
X131951953Y-97136690D01*
X131951958Y-97136700D01*
X132083075Y-97363803D01*
X132242718Y-97571851D01*
X132242726Y-97571860D01*
X132428140Y-97757274D01*
X132428148Y-97757281D01*
X132428149Y-97757282D01*
X132445911Y-97770911D01*
X132636196Y-97916924D01*
X132863299Y-98048041D01*
X132863309Y-98048046D01*
X133086137Y-98140344D01*
X133105581Y-98148398D01*
X133358884Y-98216270D01*
X133618880Y-98250500D01*
X133618887Y-98250500D01*
X133881113Y-98250500D01*
X133881120Y-98250500D01*
X134141116Y-98216270D01*
X134394419Y-98148398D01*
X134429536Y-98133851D01*
X134499004Y-98126382D01*
X134561484Y-98157655D01*
X134597138Y-98217744D01*
X134594645Y-98287569D01*
X134564671Y-98336093D01*
X126568584Y-106332181D01*
X126507261Y-106365666D01*
X126480903Y-106368500D01*
X126413178Y-106368500D01*
X126242881Y-106402374D01*
X126242871Y-106402377D01*
X126082459Y-106468821D01*
X126082446Y-106468828D01*
X125938077Y-106565293D01*
X125938073Y-106565296D01*
X125815296Y-106688073D01*
X125815293Y-106688077D01*
X125718828Y-106832446D01*
X125718821Y-106832459D01*
X125652377Y-106992871D01*
X125652374Y-106992881D01*
X125618500Y-107163177D01*
X125618500Y-107163180D01*
X125618500Y-107336820D01*
X125618500Y-107336822D01*
X125618499Y-107336822D01*
X121385500Y-107336822D01*
X121385500Y-105279688D01*
X121405185Y-105212649D01*
X121457989Y-105166894D01*
X121471176Y-105161758D01*
X121480025Y-105158884D01*
X121655405Y-105069524D01*
X121814646Y-104953828D01*
X121953828Y-104814646D01*
X122069524Y-104655405D01*
X122158884Y-104480025D01*
X122165600Y-104459351D01*
X122195849Y-104409988D01*
X125116111Y-101489729D01*
X125221167Y-101345132D01*
X125271187Y-101246962D01*
X125302309Y-101185881D01*
X125310243Y-101161463D01*
X125316726Y-101141513D01*
X125343554Y-101058944D01*
X125357541Y-101015897D01*
X125373613Y-100914422D01*
X125385500Y-100839370D01*
X125385500Y-87410631D01*
X125377067Y-87357392D01*
X125377067Y-87357389D01*
X125370400Y-87315294D01*
X125357541Y-87234103D01*
X125303815Y-87068754D01*
X125302754Y-87064993D01*
X125302309Y-87064119D01*
X125221167Y-86904868D01*
X125116111Y-86760272D01*
X124989728Y-86633889D01*
X121989728Y-83633889D01*
X121956066Y-83609432D01*
X121845132Y-83528833D01*
X121820372Y-83516217D01*
X121685885Y-83447692D01*
X121660461Y-83439431D01*
X121632899Y-83430476D01*
X121632897Y-83430475D01*
X121632896Y-83430474D01*
X121542359Y-83401057D01*
X121515897Y-83392459D01*
X121515895Y-83392458D01*
X121515894Y-83392458D01*
X121339370Y-83364500D01*
X121339366Y-83364500D01*
X111805689Y-83364500D01*
X111749394Y-83350985D01*
X111730028Y-83341117D01*
X111542826Y-83280290D01*
X111348422Y-83249500D01*
X111348417Y-83249500D01*
X111151583Y-83249500D01*
X111151578Y-83249500D01*
X110957173Y-83280290D01*
X110769970Y-83341117D01*
X110594594Y-83430476D01*
X110503741Y-83496485D01*
X110435354Y-83546172D01*
X110435352Y-83546174D01*
X110435351Y-83546174D01*
X110296174Y-83685351D01*
X110296174Y-83685352D01*
X110296172Y-83685354D01*
X110275521Y-83713778D01*
X110180476Y-83844594D01*
X110091117Y-84019970D01*
X110030290Y-84207173D01*
X109999500Y-84401577D01*
X109999500Y-84598422D01*
X110030290Y-84792826D01*
X110091117Y-84980029D01*
X110137826Y-85071700D01*
X110180476Y-85155405D01*
X110296172Y-85314646D01*
X110435354Y-85453828D01*
X110594595Y-85569524D01*
X110663613Y-85604690D01*
X110731960Y-85639515D01*
X110782756Y-85687490D01*
X110799551Y-85755311D01*
X110777014Y-85821446D01*
X110731960Y-85860485D01*
X110594594Y-85930476D01*
X110503741Y-85996485D01*
X110435354Y-86046172D01*
X110435352Y-86046174D01*
X110435351Y-86046174D01*
X110296174Y-86185351D01*
X110296174Y-86185352D01*
X110296172Y-86185354D01*
X110271857Y-86218821D01*
X110180476Y-86344594D01*
X110091117Y-86519970D01*
X110030290Y-86707173D01*
X109999500Y-86901577D01*
X109999500Y-87098422D01*
X110030290Y-87292826D01*
X110091117Y-87480029D01*
X110143305Y-87582453D01*
X110180476Y-87655405D01*
X110296172Y-87814646D01*
X110435354Y-87953828D01*
X110594595Y-88069524D01*
X110628541Y-88086820D01*
X110769970Y-88158882D01*
X110769972Y-88158882D01*
X110769975Y-88158884D01*
X110809785Y-88171819D01*
X110957173Y-88219709D01*
X111151578Y-88250500D01*
X111151583Y-88250500D01*
X111348422Y-88250500D01*
X111542826Y-88219709D01*
X111730025Y-88158884D01*
X111749394Y-88149014D01*
X111805689Y-88135500D01*
X118478299Y-88135500D01*
X118545338Y-88155185D01*
X118565980Y-88171819D01*
X119389590Y-88995431D01*
X119389612Y-88995451D01*
X120078181Y-89684020D01*
X120111666Y-89745343D01*
X120114500Y-89771701D01*
X120114500Y-98728298D01*
X120094815Y-98795337D01*
X120078181Y-98815979D01*
X119562044Y-99332115D01*
X119500721Y-99365600D01*
X119431029Y-99360616D01*
X119375096Y-99318744D01*
X119352746Y-99268626D01*
X119347624Y-99242876D01*
X119327310Y-99193834D01*
X119281178Y-99082459D01*
X119281171Y-99082446D01*
X119184706Y-98938077D01*
X119184703Y-98938073D01*
X119061926Y-98815296D01*
X119061922Y-98815293D01*
X118917553Y-98718828D01*
X118917544Y-98718823D01*
X118876805Y-98701949D01*
X118822402Y-98658108D01*
X118800337Y-98591814D01*
X118800553Y-98584934D01*
X118800500Y-98584934D01*
X118800500Y-98421155D01*
X118800499Y-98421153D01*
X118773637Y-98286111D01*
X118769737Y-98266503D01*
X118765852Y-98257124D01*
X118709397Y-98120827D01*
X118709390Y-98120814D01*
X118621789Y-97989711D01*
X118621786Y-97989707D01*
X118510292Y-97878213D01*
X118510288Y-97878210D01*
X118379185Y-97790609D01*
X118379172Y-97790602D01*
X118233501Y-97730264D01*
X118233489Y-97730261D01*
X118078845Y-97699500D01*
X118078842Y-97699500D01*
X117921158Y-97699500D01*
X117921155Y-97699500D01*
X117766510Y-97730261D01*
X117766498Y-97730264D01*
X117620827Y-97790602D01*
X117620814Y-97790609D01*
X117489711Y-97878210D01*
X117489707Y-97878213D01*
X117378213Y-97989707D01*
X117378210Y-97989711D01*
X117290609Y-98120814D01*
X117290602Y-98120827D01*
X117230264Y-98266498D01*
X117230261Y-98266508D01*
X117208843Y-98374183D01*
X117176458Y-98436094D01*
X117174907Y-98437672D01*
X114297288Y-101315293D01*
X113349992Y-102262589D01*
X113297046Y-102315535D01*
X113262589Y-102349992D01*
X113193917Y-102452767D01*
X113189566Y-102463271D01*
X113149922Y-102558980D01*
X113146614Y-102566965D01*
X113126610Y-102667540D01*
X113125586Y-102672686D01*
X113125585Y-102672691D01*
X113122500Y-102688197D01*
X113122500Y-113256113D01*
X113102815Y-113323152D01*
X113050011Y-113368907D01*
X112980853Y-113378851D01*
X112917297Y-113349826D01*
X112910819Y-113343794D01*
X111883588Y-112316564D01*
X111850103Y-112255241D01*
X111849663Y-112253128D01*
X111847624Y-112242876D01*
X111847623Y-112242875D01*
X111847623Y-112242872D01*
X111781176Y-112082455D01*
X111781171Y-112082446D01*
X111684706Y-111938077D01*
X111684703Y-111938073D01*
X111561926Y-111815296D01*
X111561922Y-111815293D01*
X111417553Y-111718828D01*
X111417540Y-111718821D01*
X111257128Y-111652377D01*
X111257118Y-111652374D01*
X111086822Y-111618500D01*
X111086820Y-111618500D01*
X110913180Y-111618500D01*
X110913178Y-111618500D01*
X110742881Y-111652374D01*
X110742871Y-111652377D01*
X110582459Y-111718821D01*
X110582446Y-111718828D01*
X110438077Y-111815293D01*
X110438073Y-111815296D01*
X110315296Y-111938073D01*
X110315293Y-111938077D01*
X110218828Y-112082446D01*
X110218821Y-112082459D01*
X110152377Y-112242871D01*
X110152374Y-112242881D01*
X110118500Y-112413177D01*
X110118500Y-112413180D01*
X110118500Y-112586820D01*
X110118500Y-112586822D01*
X110118499Y-112586822D01*
X110152374Y-112757118D01*
X110152377Y-112757128D01*
X110218821Y-112917540D01*
X110218828Y-112917553D01*
X110315293Y-113061922D01*
X110315296Y-113061926D01*
X110438073Y-113184703D01*
X110438077Y-113184706D01*
X110582446Y-113281171D01*
X110582455Y-113281176D01*
X110742872Y-113347623D01*
X110742875Y-113347623D01*
X110742876Y-113347624D01*
X110753071Y-113349651D01*
X110814982Y-113382034D01*
X110816564Y-113383588D01*
X111959181Y-114526205D01*
X111992666Y-114587528D01*
X111995500Y-114613886D01*
X111995500Y-119129113D01*
X111975815Y-119196152D01*
X111923011Y-119241907D01*
X111853853Y-119251851D01*
X111790297Y-119222826D01*
X111783819Y-119216794D01*
X106790819Y-114223794D01*
X106757334Y-114162471D01*
X106754500Y-114136113D01*
X106754500Y-110245083D01*
X106774185Y-110178044D01*
X106775399Y-110176191D01*
X106781175Y-110167547D01*
X106847624Y-110007124D01*
X106881500Y-109836820D01*
X106881500Y-109663180D01*
X106881500Y-109663177D01*
X106847625Y-109492881D01*
X106847624Y-109492880D01*
X106847624Y-109492876D01*
X106796542Y-109369552D01*
X106781178Y-109332459D01*
X106781171Y-109332446D01*
X106684706Y-109188077D01*
X106684703Y-109188073D01*
X106561926Y-109065296D01*
X106561922Y-109065293D01*
X106417553Y-108968828D01*
X106417540Y-108968821D01*
X106257128Y-108902377D01*
X106257118Y-108902374D01*
X106086822Y-108868500D01*
X106086820Y-108868500D01*
X105913180Y-108868500D01*
X105902685Y-108870587D01*
X105881703Y-108868708D01*
X105860853Y-108871706D01*
X105847601Y-108865654D01*
X105833094Y-108864355D01*
X105816460Y-108851432D01*
X105797297Y-108842681D01*
X105789421Y-108830426D01*
X105777919Y-108821490D01*
X105770911Y-108801624D01*
X105759523Y-108783903D01*
X105755987Y-108759314D01*
X105754677Y-108755599D01*
X105754500Y-108748968D01*
X105754500Y-108613886D01*
X105774185Y-108546847D01*
X105790819Y-108526205D01*
X105903847Y-108413177D01*
X106183436Y-108133587D01*
X106244757Y-108100104D01*
X106246893Y-108099658D01*
X106257124Y-108097624D01*
X106417547Y-108031175D01*
X106561923Y-107934706D01*
X106684706Y-107811923D01*
X106781175Y-107667547D01*
X106847624Y-107507124D01*
X106881500Y-107336820D01*
X106881500Y-107163180D01*
X106881500Y-107163177D01*
X106847625Y-106992881D01*
X106847624Y-106992880D01*
X106847624Y-106992876D01*
X106835571Y-106963778D01*
X106781178Y-106832459D01*
X106781171Y-106832446D01*
X106684706Y-106688077D01*
X106684703Y-106688073D01*
X106561926Y-106565296D01*
X106561922Y-106565293D01*
X106417553Y-106468828D01*
X106417540Y-106468821D01*
X106257128Y-106402377D01*
X106257118Y-106402374D01*
X106086822Y-106368500D01*
X106086820Y-106368500D01*
X105913180Y-106368500D01*
X105913178Y-106368500D01*
X105742881Y-106402374D01*
X105742871Y-106402377D01*
X105582459Y-106468821D01*
X105582446Y-106468828D01*
X105438077Y-106565293D01*
X105438073Y-106565296D01*
X105315296Y-106688073D01*
X105315293Y-106688077D01*
X105231602Y-106813329D01*
X105177989Y-106858134D01*
X105108664Y-106866841D01*
X105045637Y-106836686D01*
X105008918Y-106777243D01*
X105004500Y-106744438D01*
X105004500Y-106363886D01*
X105024185Y-106296847D01*
X105040815Y-106276209D01*
X105676429Y-105640594D01*
X105737750Y-105607111D01*
X105788299Y-105606660D01*
X105913175Y-105631499D01*
X105913178Y-105631500D01*
X105913180Y-105631500D01*
X106086822Y-105631500D01*
X106209430Y-105607111D01*
X106257124Y-105597624D01*
X106417547Y-105531175D01*
X106561923Y-105434706D01*
X106684706Y-105311923D01*
X106781175Y-105167547D01*
X106781446Y-105166894D01*
X106843853Y-105016228D01*
X106847624Y-105007124D01*
X106858709Y-104951394D01*
X106881500Y-104836822D01*
X106881500Y-104663177D01*
X106847625Y-104492881D01*
X106847624Y-104492880D01*
X106847624Y-104492876D01*
X106838289Y-104470339D01*
X106781178Y-104332459D01*
X106781171Y-104332446D01*
X106684706Y-104188077D01*
X106684703Y-104188073D01*
X106561926Y-104065296D01*
X106561922Y-104065293D01*
X106417553Y-103968828D01*
X106417540Y-103968821D01*
X106257128Y-103902377D01*
X106257118Y-103902374D01*
X106086822Y-103868500D01*
X106086820Y-103868500D01*
X105913180Y-103868500D01*
X105913178Y-103868500D01*
X105742881Y-103902374D01*
X105742871Y-103902377D01*
X105582457Y-103968822D01*
X105582450Y-103968826D01*
X105573808Y-103974601D01*
X105561247Y-103979233D01*
X105553563Y-103985559D01*
X105532328Y-103989898D01*
X105519459Y-103994644D01*
X105512218Y-103995499D01*
X105425688Y-103995499D01*
X105304105Y-104019684D01*
X105299313Y-104020637D01*
X105299306Y-104020638D01*
X105279918Y-104024495D01*
X105279917Y-104024495D01*
X105223045Y-104048053D01*
X105142614Y-104081368D01*
X105019031Y-104163942D01*
X105019030Y-104163943D01*
X104466181Y-104716793D01*
X104404858Y-104750278D01*
X104335166Y-104745294D01*
X104279233Y-104703422D01*
X104254816Y-104637958D01*
X104254500Y-104629112D01*
X104254500Y-103863887D01*
X104274185Y-103796848D01*
X104290819Y-103776206D01*
X105026206Y-103040819D01*
X105053133Y-103026115D01*
X105078952Y-103009523D01*
X105085152Y-103008631D01*
X105087529Y-103007334D01*
X105113887Y-103004500D01*
X105254915Y-103004500D01*
X105321954Y-103024185D01*
X105323805Y-103025398D01*
X105332441Y-103031168D01*
X105332450Y-103031173D01*
X105332453Y-103031175D01*
X105332455Y-103031175D01*
X105332459Y-103031178D01*
X105492871Y-103097622D01*
X105492876Y-103097624D01*
X105492880Y-103097624D01*
X105492881Y-103097625D01*
X105663177Y-103131500D01*
X105663180Y-103131500D01*
X105836822Y-103131500D01*
X105951394Y-103108709D01*
X106007124Y-103097624D01*
X106167547Y-103031175D01*
X106311923Y-102934706D01*
X106434706Y-102811923D01*
X106531175Y-102667547D01*
X106597624Y-102507124D01*
X106608709Y-102451394D01*
X106631500Y-102336822D01*
X106631500Y-102163177D01*
X106597625Y-101992881D01*
X106597624Y-101992880D01*
X106597624Y-101992876D01*
X106564612Y-101913177D01*
X106531178Y-101832459D01*
X106531171Y-101832446D01*
X106434706Y-101688077D01*
X106434703Y-101688073D01*
X106311926Y-101565296D01*
X106311922Y-101565293D01*
X106167553Y-101468828D01*
X106167540Y-101468821D01*
X106007128Y-101402377D01*
X106007118Y-101402374D01*
X105836822Y-101368500D01*
X105836820Y-101368500D01*
X105663180Y-101368500D01*
X105663178Y-101368500D01*
X105492881Y-101402374D01*
X105492871Y-101402377D01*
X105332459Y-101468821D01*
X105332441Y-101468831D01*
X105323805Y-101474602D01*
X105257128Y-101495480D01*
X105254915Y-101495500D01*
X104830446Y-101495500D01*
X104830426Y-101495499D01*
X104824312Y-101495499D01*
X104675688Y-101495499D01*
X104675686Y-101495499D01*
X104562086Y-101518096D01*
X104562082Y-101518097D01*
X104554105Y-101519684D01*
X104529920Y-101524495D01*
X104473045Y-101548053D01*
X104469308Y-101549600D01*
X104469293Y-101549606D01*
X104392614Y-101581368D01*
X104269031Y-101663942D01*
X104269030Y-101663943D01*
X103716181Y-102216793D01*
X103696744Y-102227405D01*
X103680011Y-102241906D01*
X103666679Y-102243822D01*
X103654858Y-102250278D01*
X103632771Y-102248698D01*
X103610853Y-102251850D01*
X103598601Y-102246254D01*
X103585166Y-102245294D01*
X103567439Y-102232023D01*
X103547297Y-102222825D01*
X103540014Y-102211493D01*
X103529233Y-102203422D01*
X103521495Y-102182676D01*
X103509523Y-102164047D01*
X103506371Y-102142128D01*
X103504816Y-102137958D01*
X103504500Y-102129112D01*
X103504500Y-102091460D01*
X103524185Y-102024421D01*
X103540819Y-102003779D01*
X104174057Y-101370541D01*
X104174059Y-101370539D01*
X104256630Y-101246962D01*
X104295808Y-101152376D01*
X104313505Y-101109653D01*
X104323592Y-101058944D01*
X104342501Y-100963885D01*
X104342501Y-100815261D01*
X104342501Y-100810151D01*
X104342500Y-100810125D01*
X104342500Y-98440869D01*
X104342501Y-98440848D01*
X104342501Y-98286108D01*
X104313506Y-98140349D01*
X104313505Y-98140345D01*
X104313023Y-98139182D01*
X104256629Y-98003034D01*
X104223835Y-97953954D01*
X104174059Y-97879458D01*
X104174057Y-97879455D01*
X104065870Y-97771268D01*
X104065839Y-97771239D01*
X104029319Y-97734719D01*
X103995834Y-97673396D01*
X103993000Y-97647038D01*
X103993000Y-92820419D01*
X103993001Y-92820398D01*
X103993001Y-92665659D01*
X103964006Y-92519899D01*
X103964005Y-92519895D01*
X103907130Y-92382586D01*
X103907125Y-92382577D01*
X103824559Y-92259009D01*
X103822674Y-92257124D01*
X103726050Y-92160500D01*
X103719466Y-92153916D01*
X103719464Y-92153914D01*
X103652370Y-92086820D01*
X103540819Y-91975269D01*
X103507334Y-91913946D01*
X103504500Y-91887588D01*
X103504500Y-88425687D01*
X103504499Y-88425683D01*
X103496185Y-88383884D01*
X103475505Y-88279920D01*
X103418629Y-88142610D01*
X103413878Y-88135500D01*
X103336060Y-88019035D01*
X103336054Y-88019028D01*
X103226647Y-87909621D01*
X103226624Y-87909600D01*
X102133588Y-86816564D01*
X102100103Y-86755241D01*
X102099663Y-86753128D01*
X102097624Y-86742876D01*
X102097623Y-86742875D01*
X102097623Y-86742872D01*
X102031176Y-86582455D01*
X102031171Y-86582446D01*
X101934706Y-86438077D01*
X101934703Y-86438073D01*
X101811926Y-86315296D01*
X101811922Y-86315293D01*
X101667553Y-86218828D01*
X101667540Y-86218821D01*
X101507128Y-86152377D01*
X101507118Y-86152374D01*
X101336822Y-86118500D01*
X101336820Y-86118500D01*
X101163180Y-86118500D01*
X101163178Y-86118500D01*
X100992881Y-86152374D01*
X100992871Y-86152377D01*
X100832459Y-86218821D01*
X100832446Y-86218828D01*
X100688077Y-86315293D01*
X100688073Y-86315296D01*
X100565296Y-86438073D01*
X100524991Y-86498394D01*
X100508823Y-86511905D01*
X100496199Y-86528769D01*
X100482553Y-86533858D01*
X100471378Y-86543198D01*
X100450474Y-86545823D01*
X100430735Y-86553186D01*
X100416503Y-86550090D01*
X100402053Y-86551905D01*
X100383048Y-86542812D01*
X100362462Y-86538334D01*
X100342580Y-86523450D01*
X100339026Y-86521750D01*
X100334208Y-86517183D01*
X100290819Y-86473794D01*
X100257334Y-86412471D01*
X100254500Y-86386113D01*
X100254500Y-84995083D01*
X100274185Y-84928044D01*
X100275399Y-84926191D01*
X100281175Y-84917547D01*
X100347624Y-84757124D01*
X100375210Y-84618442D01*
X100381500Y-84586822D01*
X100381500Y-84413177D01*
X100347625Y-84242881D01*
X100347624Y-84242880D01*
X100347624Y-84242876D01*
X100332836Y-84207174D01*
X100281178Y-84082459D01*
X100281171Y-84082446D01*
X100184706Y-83938077D01*
X100184703Y-83938073D01*
X100061926Y-83815296D01*
X100061922Y-83815293D01*
X99917553Y-83718828D01*
X99917540Y-83718821D01*
X99757128Y-83652377D01*
X99757118Y-83652374D01*
X99586822Y-83618500D01*
X99586820Y-83618500D01*
X99413180Y-83618500D01*
X99413178Y-83618500D01*
X99242881Y-83652374D01*
X99242871Y-83652377D01*
X99082459Y-83718821D01*
X99082446Y-83718828D01*
X98938077Y-83815293D01*
X98938073Y-83815296D01*
X98815296Y-83938073D01*
X98815293Y-83938077D01*
X98718828Y-84082446D01*
X98718821Y-84082459D01*
X98652377Y-84242871D01*
X98652374Y-84242881D01*
X98618500Y-84413177D01*
X98618500Y-84413180D01*
X98618500Y-84586820D01*
X98618500Y-84586822D01*
X98618499Y-84586822D01*
X98652374Y-84757118D01*
X98652377Y-84757128D01*
X98718822Y-84917542D01*
X98718824Y-84917545D01*
X98724601Y-84926191D01*
X98745480Y-84992868D01*
X98745500Y-84995083D01*
X98745500Y-86670552D01*
X98745499Y-86670578D01*
X98745499Y-86675688D01*
X98745499Y-86824312D01*
X98745499Y-86824314D01*
X98745498Y-86824314D01*
X98774493Y-86970073D01*
X98774496Y-86970083D01*
X98831366Y-87107381D01*
X98831372Y-87107392D01*
X98913942Y-87230968D01*
X98913943Y-87230969D01*
X100380491Y-88697516D01*
X100413976Y-88758839D01*
X100408992Y-88828531D01*
X100380492Y-88872878D01*
X100315293Y-88938077D01*
X100239021Y-89052226D01*
X100185408Y-89097031D01*
X100116083Y-89105738D01*
X100053056Y-89075583D01*
X100048238Y-89071016D01*
X94727319Y-83750097D01*
X94693834Y-83688774D01*
X94691000Y-83662416D01*
X94691000Y-78590118D01*
X94710685Y-78523079D01*
X94711898Y-78521227D01*
X94781175Y-78417547D01*
X94847624Y-78257124D01*
X94859932Y-78195246D01*
X94881500Y-78086822D01*
X94881500Y-77913177D01*
X94847625Y-77742881D01*
X94847624Y-77742880D01*
X94847624Y-77742876D01*
X94847622Y-77742871D01*
X94781178Y-77582459D01*
X94781171Y-77582446D01*
X94684706Y-77438077D01*
X94684703Y-77438073D01*
X94561926Y-77315296D01*
X94561922Y-77315293D01*
X94417553Y-77218828D01*
X94417540Y-77218821D01*
X94257128Y-77152377D01*
X94257118Y-77152374D01*
X94086822Y-77118500D01*
X94086820Y-77118500D01*
X93913180Y-77118500D01*
X93913178Y-77118500D01*
X93742881Y-77152374D01*
X93742871Y-77152377D01*
X93582459Y-77218821D01*
X93582446Y-77218828D01*
X93438077Y-77315293D01*
X93438073Y-77315296D01*
X93315296Y-77438073D01*
X93315293Y-77438077D01*
X93218828Y-77582446D01*
X93218821Y-77582459D01*
X93152377Y-77742871D01*
X93152374Y-77742881D01*
X93118500Y-77913177D01*
X93118500Y-78072508D01*
X93098815Y-78139547D01*
X93046011Y-78185302D01*
X92976853Y-78195246D01*
X92913297Y-78166221D01*
X92906819Y-78160189D01*
X92811926Y-78065296D01*
X92811922Y-78065293D01*
X92667553Y-77968828D01*
X92667540Y-77968821D01*
X92507128Y-77902377D01*
X92507118Y-77902374D01*
X92336822Y-77868500D01*
X92336820Y-77868500D01*
X92163180Y-77868500D01*
X92163178Y-77868500D01*
X91992881Y-77902374D01*
X91992871Y-77902377D01*
X91832459Y-77968821D01*
X91832446Y-77968828D01*
X91688077Y-78065293D01*
X91688073Y-78065296D01*
X91565296Y-78188073D01*
X91565293Y-78188077D01*
X91468828Y-78332446D01*
X91468821Y-78332459D01*
X91402377Y-78492871D01*
X91402374Y-78492881D01*
X91368500Y-78663177D01*
X91368500Y-78663180D01*
X91368500Y-78836820D01*
X91368500Y-78836822D01*
X91368499Y-78836822D01*
X91402374Y-79007118D01*
X91402377Y-79007128D01*
X91468822Y-79167542D01*
X91468824Y-79167545D01*
X91474601Y-79176191D01*
X91495480Y-79242868D01*
X91495500Y-79245083D01*
X91495500Y-84420552D01*
X91495499Y-84420578D01*
X91495499Y-84425688D01*
X91495499Y-84574312D01*
X91495499Y-84574314D01*
X91495498Y-84574314D01*
X91524493Y-84720073D01*
X91524496Y-84720083D01*
X91581366Y-84857381D01*
X91581372Y-84857392D01*
X91663942Y-84980968D01*
X91663943Y-84980969D01*
X96378230Y-89695254D01*
X96411715Y-89756577D01*
X96406731Y-89826269D01*
X96364859Y-89882202D01*
X96299395Y-89906619D01*
X96263294Y-89902578D01*
X96263098Y-89903564D01*
X96086822Y-89868500D01*
X96086820Y-89868500D01*
X95913180Y-89868500D01*
X95913178Y-89868500D01*
X95742881Y-89902374D01*
X95742871Y-89902377D01*
X95582459Y-89968821D01*
X95582447Y-89968828D01*
X95478773Y-90038102D01*
X95412096Y-90058980D01*
X95409882Y-90059000D01*
X91181940Y-90059000D01*
X91089888Y-90077311D01*
X91089887Y-90077311D01*
X91048450Y-90085553D01*
X91048438Y-90085556D01*
X90922695Y-90137640D01*
X90922682Y-90137647D01*
X90809514Y-90213264D01*
X90809510Y-90213267D01*
X86782235Y-94240541D01*
X86754861Y-94255487D01*
X86728479Y-94272129D01*
X86724448Y-94272094D01*
X86720912Y-94274026D01*
X86689803Y-94271801D01*
X86658612Y-94271537D01*
X86655240Y-94269329D01*
X86651220Y-94269042D01*
X86626249Y-94250348D01*
X86600156Y-94233265D01*
X86597389Y-94228744D01*
X86595287Y-94227170D01*
X86581327Y-94203413D01*
X86580648Y-94201893D01*
X86531175Y-94082453D01*
X86519560Y-94065070D01*
X86515273Y-94055468D01*
X86511944Y-94030840D01*
X86504520Y-94007128D01*
X86504500Y-94004915D01*
X86504500Y-92613885D01*
X86524185Y-92546846D01*
X86540814Y-92526209D01*
X89980963Y-89086060D01*
X89980966Y-89086059D01*
X90480963Y-88586060D01*
X90480966Y-88586059D01*
X90586059Y-88480966D01*
X90650923Y-88383889D01*
X90668630Y-88357389D01*
X90710161Y-88257124D01*
X90725505Y-88220080D01*
X90737678Y-88158884D01*
X90754501Y-88074312D01*
X90754501Y-87925688D01*
X90754501Y-87920578D01*
X90754500Y-87920552D01*
X90754500Y-74363886D01*
X90774185Y-74296847D01*
X90790819Y-74276205D01*
X93276205Y-71790819D01*
X93337528Y-71757334D01*
X93363886Y-71754500D01*
X94425688Y-71754500D01*
X106919554Y-71754500D01*
X106919574Y-71754501D01*
X106925688Y-71754501D01*
X107074314Y-71754501D01*
X107111009Y-71747200D01*
X107195894Y-71730315D01*
X107220080Y-71725505D01*
X107276955Y-71701946D01*
X107357389Y-71668630D01*
X107480966Y-71586059D01*
X110058437Y-69008586D01*
X110119758Y-68975103D01*
X110121790Y-68974679D01*
X110132124Y-68972624D01*
X110292547Y-68906175D01*
X110436923Y-68809706D01*
X110559706Y-68686923D01*
X110656175Y-68542547D01*
X110722624Y-68382124D01*
X110724652Y-68371926D01*
X110757033Y-68310018D01*
X110758532Y-68308491D01*
X114026205Y-65040819D01*
X114087528Y-65007334D01*
X114113886Y-65004500D01*
X132504915Y-65004500D01*
X132571954Y-65024185D01*
X132573805Y-65025398D01*
X132582441Y-65031168D01*
X132582450Y-65031173D01*
X132582453Y-65031175D01*
X132582455Y-65031175D01*
X132582459Y-65031178D01*
X132742871Y-65097622D01*
X132742876Y-65097624D01*
X132742880Y-65097624D01*
X132742881Y-65097625D01*
X132913177Y-65131500D01*
X132913180Y-65131500D01*
X133086822Y-65131500D01*
X133201394Y-65108709D01*
X133257124Y-65097624D01*
X133417547Y-65031175D01*
X133561923Y-64934706D01*
X133684706Y-64811923D01*
X133781175Y-64667547D01*
X133847624Y-64507124D01*
X133858709Y-64451394D01*
X133881500Y-64336822D01*
X133881500Y-64163177D01*
X133847625Y-63992881D01*
X133847624Y-63992880D01*
X133847624Y-63992876D01*
X133847622Y-63992871D01*
X133781178Y-63832459D01*
X133781171Y-63832446D01*
X133684706Y-63688077D01*
X133684703Y-63688073D01*
X133561926Y-63565296D01*
X133561922Y-63565293D01*
X133417553Y-63468828D01*
X133417540Y-63468821D01*
X133257128Y-63402377D01*
X133257118Y-63402374D01*
X133086822Y-63368500D01*
X133086820Y-63368500D01*
X132913180Y-63368500D01*
X132913178Y-63368500D01*
X132742881Y-63402374D01*
X132742871Y-63402377D01*
X132582459Y-63468821D01*
X132582441Y-63468831D01*
X132573805Y-63474602D01*
X132507128Y-63495480D01*
X132504915Y-63495500D01*
X113830446Y-63495500D01*
X113830426Y-63495499D01*
X113824312Y-63495499D01*
X113675688Y-63495499D01*
X113675686Y-63495499D01*
X113554105Y-63519684D01*
X113539540Y-63522581D01*
X113529918Y-63524495D01*
X113529917Y-63524495D01*
X113473045Y-63548052D01*
X113473045Y-63548053D01*
X113392611Y-63581370D01*
X113392609Y-63581371D01*
X113269033Y-63663941D01*
X113216487Y-63716487D01*
X113163941Y-63769034D01*
X113163939Y-63769036D01*
X109691562Y-67241411D01*
X109630239Y-67274896D01*
X109628074Y-67275347D01*
X109617879Y-67277374D01*
X109617873Y-67277376D01*
X109457459Y-67343821D01*
X109457446Y-67343828D01*
X109313077Y-67440293D01*
X109313073Y-67440296D01*
X109190296Y-67563073D01*
X109190293Y-67563077D01*
X109093828Y-67707446D01*
X109093821Y-67707459D01*
X109027376Y-67867873D01*
X109027374Y-67867879D01*
X109025347Y-67878074D01*
X108992961Y-67939984D01*
X108991411Y-67941562D01*
X106723794Y-70209181D01*
X106662471Y-70242666D01*
X106636113Y-70245500D01*
X93080446Y-70245500D01*
X93080426Y-70245499D01*
X93074312Y-70245499D01*
X92925688Y-70245499D01*
X92925686Y-70245499D01*
X92804105Y-70269684D01*
X92789540Y-70272581D01*
X92779918Y-70274495D01*
X92779917Y-70274495D01*
X92723045Y-70298052D01*
X92723045Y-70298053D01*
X92642611Y-70331370D01*
X92642609Y-70331371D01*
X92519033Y-70413941D01*
X92487512Y-70445463D01*
X92413941Y-70519034D01*
X92413939Y-70519036D01*
X89413943Y-73519030D01*
X89413942Y-73519031D01*
X89331372Y-73642607D01*
X89331366Y-73642618D01*
X89274496Y-73779916D01*
X89274493Y-73779926D01*
X89245499Y-73925685D01*
X89245499Y-74080425D01*
X89245500Y-74080446D01*
X89245500Y-87636113D01*
X89225815Y-87703152D01*
X89209181Y-87723794D01*
X88913939Y-88019036D01*
X85163943Y-91769030D01*
X85163942Y-91769031D01*
X85081372Y-91892607D01*
X85081366Y-91892618D01*
X85024496Y-92029916D01*
X85024493Y-92029926D01*
X84995499Y-92175685D01*
X84995499Y-92330425D01*
X84995500Y-92330446D01*
X84995500Y-94004915D01*
X84975815Y-94071954D01*
X84974602Y-94073805D01*
X84968831Y-94082441D01*
X84968821Y-94082459D01*
X84902377Y-94242871D01*
X84902374Y-94242881D01*
X84868500Y-94413177D01*
X84868500Y-94413180D01*
X84868500Y-94586820D01*
X84868500Y-94586822D01*
X84868499Y-94586822D01*
X84902374Y-94757118D01*
X84902377Y-94757128D01*
X84968821Y-94917540D01*
X84968828Y-94917553D01*
X85065293Y-95061922D01*
X85065296Y-95061926D01*
X85188073Y-95184703D01*
X85188077Y-95184706D01*
X85332446Y-95281171D01*
X85332459Y-95281178D01*
X85492871Y-95347622D01*
X85492876Y-95347624D01*
X85492880Y-95347624D01*
X85492881Y-95347625D01*
X85663177Y-95381500D01*
X85663180Y-95381500D01*
X85836822Y-95381500D01*
X85951394Y-95358709D01*
X86007124Y-95347624D01*
X86137548Y-95293600D01*
X86207017Y-95286132D01*
X86269496Y-95317407D01*
X86305148Y-95377496D01*
X86309000Y-95408162D01*
X86309000Y-127662415D01*
X86289315Y-127729454D01*
X86272681Y-127750096D01*
X79713269Y-134309507D01*
X79713268Y-134309508D01*
X79713265Y-134309513D01*
X79641803Y-134416466D01*
X79641083Y-134417543D01*
X79641081Y-134417545D01*
X79637641Y-134422691D01*
X79585556Y-134548438D01*
X79585553Y-134548448D01*
X79559000Y-134681939D01*
X79559000Y-135909881D01*
X79539315Y-135976920D01*
X79538102Y-135978771D01*
X79468825Y-136082451D01*
X79468823Y-136082454D01*
X79402377Y-136242871D01*
X79402374Y-136242881D01*
X79368500Y-136413177D01*
X79368500Y-136413180D01*
X79368500Y-136586820D01*
X79368500Y-136586822D01*
X79368499Y-136586822D01*
X79402374Y-136757118D01*
X79402377Y-136757128D01*
X79468821Y-136917540D01*
X79468828Y-136917553D01*
X79565293Y-137061922D01*
X79565296Y-137061926D01*
X79688073Y-137184703D01*
X79688077Y-137184706D01*
X79832446Y-137281171D01*
X79832459Y-137281178D01*
X79992871Y-137347622D01*
X79992876Y-137347624D01*
X79992880Y-137347624D01*
X79992881Y-137347625D01*
X80163177Y-137381500D01*
X80163180Y-137381500D01*
X80336822Y-137381500D01*
X80451394Y-137358709D01*
X80507124Y-137347624D01*
X80667547Y-137281175D01*
X80811923Y-137184706D01*
X80934706Y-137061923D01*
X81031175Y-136917547D01*
X81037788Y-136901583D01*
X81062465Y-136842005D01*
X81097624Y-136757124D01*
X81131500Y-136586820D01*
X81131500Y-136413180D01*
X81131500Y-136413177D01*
X81097625Y-136242881D01*
X81097624Y-136242880D01*
X81097624Y-136242876D01*
X81057100Y-136145042D01*
X81031176Y-136082454D01*
X81031174Y-136082451D01*
X80961898Y-135978771D01*
X80941020Y-135912094D01*
X80941000Y-135909881D01*
X80941000Y-135087583D01*
X80960685Y-135020544D01*
X80977319Y-134999902D01*
X82097319Y-133879902D01*
X82158642Y-133846417D01*
X82228334Y-133851401D01*
X82284267Y-133893273D01*
X82308684Y-133958737D01*
X82309000Y-133967583D01*
X82309000Y-135909881D01*
X82289315Y-135976920D01*
X82288102Y-135978771D01*
X82218825Y-136082451D01*
X82218823Y-136082454D01*
X82152377Y-136242871D01*
X82152374Y-136242881D01*
X82118500Y-136413177D01*
X82118500Y-136413180D01*
X82118500Y-136586820D01*
X82118500Y-136586822D01*
X82118499Y-136586822D01*
X82152374Y-136757118D01*
X82152377Y-136757128D01*
X82218821Y-136917540D01*
X82218828Y-136917553D01*
X82315293Y-137061922D01*
X82315296Y-137061926D01*
X82438073Y-137184703D01*
X82438077Y-137184706D01*
X82582446Y-137281171D01*
X82582459Y-137281178D01*
X82742871Y-137347622D01*
X82742876Y-137347624D01*
X82742880Y-137347624D01*
X82742881Y-137347625D01*
X82913177Y-137381500D01*
X82913180Y-137381500D01*
X83086822Y-137381500D01*
X83201394Y-137358709D01*
X83257124Y-137347624D01*
X83417547Y-137281175D01*
X83561923Y-137184706D01*
X83684706Y-137061923D01*
X83781175Y-136917547D01*
X83787788Y-136901583D01*
X83812465Y-136842005D01*
X83847624Y-136757124D01*
X83881500Y-136586820D01*
X83881500Y-136413180D01*
X83881500Y-136413177D01*
X83847625Y-136242881D01*
X83847624Y-136242880D01*
X83847624Y-136242876D01*
X83807100Y-136145042D01*
X83781176Y-136082454D01*
X83781174Y-136082451D01*
X83711898Y-135978771D01*
X83691020Y-135912094D01*
X83691000Y-135909881D01*
X83691000Y-133837583D01*
X83710685Y-133770544D01*
X83727319Y-133749902D01*
X84059681Y-133417540D01*
X84416617Y-133060603D01*
X84477938Y-133027120D01*
X84547629Y-133032104D01*
X84603563Y-133073975D01*
X84625913Y-133124094D01*
X84652374Y-133257118D01*
X84652377Y-133257128D01*
X84718821Y-133417540D01*
X84718828Y-133417553D01*
X84815293Y-133561922D01*
X84815296Y-133561926D01*
X84938073Y-133684703D01*
X84938077Y-133684706D01*
X85082446Y-133781171D01*
X85082459Y-133781178D01*
X85239962Y-133846417D01*
X85242876Y-133847624D01*
X85242880Y-133847624D01*
X85242881Y-133847625D01*
X85413177Y-133881500D01*
X85413180Y-133881500D01*
X85586822Y-133881500D01*
X85701394Y-133858709D01*
X85757124Y-133847624D01*
X85917547Y-133781175D01*
X86061923Y-133684706D01*
X86078408Y-133668221D01*
X86162319Y-133584311D01*
X86223642Y-133550826D01*
X86293334Y-133555810D01*
X86337681Y-133584311D01*
X86438073Y-133684703D01*
X86438077Y-133684706D01*
X86582446Y-133781171D01*
X86582459Y-133781178D01*
X86739962Y-133846417D01*
X86742876Y-133847624D01*
X86742880Y-133847624D01*
X86742881Y-133847625D01*
X86913177Y-133881500D01*
X86913180Y-133881500D01*
X87086822Y-133881500D01*
X87201394Y-133858709D01*
X87257124Y-133847624D01*
X87417547Y-133781175D01*
X87561923Y-133684706D01*
X87578408Y-133668221D01*
X87662319Y-133584311D01*
X87723642Y-133550826D01*
X87793334Y-133555810D01*
X87837681Y-133584311D01*
X87938073Y-133684703D01*
X87938077Y-133684706D01*
X88082446Y-133781171D01*
X88082459Y-133781178D01*
X88239962Y-133846417D01*
X88242876Y-133847624D01*
X88242880Y-133847624D01*
X88242881Y-133847625D01*
X88413177Y-133881500D01*
X88413180Y-133881500D01*
X88586822Y-133881500D01*
X88701394Y-133858709D01*
X88757124Y-133847624D01*
X88917547Y-133781175D01*
X89061923Y-133684706D01*
X89078408Y-133668221D01*
X89162319Y-133584311D01*
X89223642Y-133550826D01*
X89293334Y-133555810D01*
X89337681Y-133584311D01*
X89438073Y-133684703D01*
X89438077Y-133684706D01*
X89582446Y-133781171D01*
X89582459Y-133781178D01*
X89739962Y-133846417D01*
X89742876Y-133847624D01*
X89742880Y-133847624D01*
X89742881Y-133847625D01*
X89913177Y-133881500D01*
X89913180Y-133881500D01*
X90086822Y-133881500D01*
X90201394Y-133858709D01*
X90257124Y-133847624D01*
X90417547Y-133781175D01*
X90561923Y-133684706D01*
X90684706Y-133561923D01*
X90781175Y-133417547D01*
X90847624Y-133257124D01*
X90871951Y-133134820D01*
X90904334Y-133072914D01*
X90905829Y-133071391D01*
X92536735Y-131440487D01*
X92612356Y-131327311D01*
X92612357Y-131327307D01*
X92615229Y-131321937D01*
X92617172Y-131322975D01*
X92654771Y-131276283D01*
X92721057Y-131254194D01*
X92788763Y-131271448D01*
X92813210Y-131290432D01*
X94094112Y-132571334D01*
X94127597Y-132632657D01*
X94128048Y-132634823D01*
X94152374Y-132757118D01*
X94152377Y-132757128D01*
X94218821Y-132917540D01*
X94218828Y-132917553D01*
X94315293Y-133061922D01*
X94315296Y-133061926D01*
X94425392Y-133172022D01*
X94458877Y-133233345D01*
X94453893Y-133303037D01*
X94425392Y-133347384D01*
X94094709Y-133678067D01*
X94054487Y-133704944D01*
X94040825Y-133710603D01*
X94040818Y-133710607D01*
X93909715Y-133798207D01*
X93909707Y-133798213D01*
X93798213Y-133909707D01*
X93798210Y-133909711D01*
X93710609Y-134040814D01*
X93710602Y-134040827D01*
X93650264Y-134186498D01*
X93650261Y-134186510D01*
X93619500Y-134341153D01*
X93619500Y-134498846D01*
X93650261Y-134653489D01*
X93650264Y-134653501D01*
X93710602Y-134799172D01*
X93710609Y-134799185D01*
X93798210Y-134930288D01*
X93798213Y-134930292D01*
X93909707Y-135041786D01*
X93909711Y-135041789D01*
X94040814Y-135129390D01*
X94040826Y-135129397D01*
X94127536Y-135165312D01*
X94155744Y-135176996D01*
X94210148Y-135220836D01*
X94232213Y-135287130D01*
X94214934Y-135354830D01*
X94195973Y-135379238D01*
X90442232Y-139132980D01*
X90380909Y-139166465D01*
X90354551Y-139169299D01*
X82755500Y-139169299D01*
X82688461Y-139149614D01*
X82642706Y-139096810D01*
X82631500Y-139045299D01*
X82631500Y-138913177D01*
X82597625Y-138742881D01*
X82597624Y-138742880D01*
X82597624Y-138742876D01*
X82597622Y-138742871D01*
X82531178Y-138582459D01*
X82531171Y-138582446D01*
X82434706Y-138438077D01*
X82434703Y-138438073D01*
X82311926Y-138315296D01*
X82311922Y-138315293D01*
X82167553Y-138218828D01*
X82167540Y-138218821D01*
X82007128Y-138152377D01*
X82007118Y-138152374D01*
X81836822Y-138118500D01*
X81836820Y-138118500D01*
X81663180Y-138118500D01*
X81663178Y-138118500D01*
X81492881Y-138152374D01*
X81492871Y-138152377D01*
X81332459Y-138218821D01*
X81332441Y-138218831D01*
X81323805Y-138224602D01*
X81257128Y-138245480D01*
X81254915Y-138245500D01*
X79495085Y-138245500D01*
X79428046Y-138225815D01*
X79426195Y-138224602D01*
X79417558Y-138218831D01*
X79417540Y-138218821D01*
X79257128Y-138152377D01*
X79257118Y-138152374D01*
X79086822Y-138118500D01*
X79086820Y-138118500D01*
X78913180Y-138118500D01*
X78913178Y-138118500D01*
X78742881Y-138152374D01*
X78742871Y-138152377D01*
X78582459Y-138218821D01*
X78582446Y-138218828D01*
X78438077Y-138315293D01*
X78438073Y-138315296D01*
X78315296Y-138438073D01*
X78315293Y-138438077D01*
X78218828Y-138582446D01*
X78218821Y-138582459D01*
X78152377Y-138742871D01*
X78152374Y-138742881D01*
X78118500Y-138913177D01*
X78118500Y-139045299D01*
X78098815Y-139112338D01*
X78046011Y-139158093D01*
X77994500Y-139169299D01*
X73988690Y-139169299D01*
X73912123Y-139189815D01*
X73835554Y-139210332D01*
X73835553Y-139210333D01*
X73790244Y-139236492D01*
X73754509Y-139257124D01*
X73740446Y-139265242D01*
X73698263Y-139289596D01*
X73698258Y-139289600D01*
X73461681Y-139526178D01*
X73400358Y-139559663D01*
X73330666Y-139554679D01*
X73274733Y-139512807D01*
X73250316Y-139447343D01*
X73250000Y-139438497D01*
X73250000Y-136436425D01*
X73269685Y-136369386D01*
X73322489Y-136323631D01*
X73391647Y-136313687D01*
X73455203Y-136342712D01*
X73463469Y-136350993D01*
X73463552Y-136350911D01*
X73660875Y-136548234D01*
X73660885Y-136548243D01*
X73840139Y-136681504D01*
X73881212Y-136712038D01*
X74123028Y-136842002D01*
X74123027Y-136842002D01*
X74123031Y-136842003D01*
X74123034Y-136842005D01*
X74381205Y-136935379D01*
X74650220Y-136990167D01*
X74811630Y-137000500D01*
X74811640Y-137000500D01*
X74968360Y-137000500D01*
X74968370Y-137000500D01*
X75129780Y-136990167D01*
X75398795Y-136935379D01*
X75656966Y-136842005D01*
X75898791Y-136712036D01*
X76119115Y-136548243D01*
X76313243Y-136354115D01*
X76477036Y-136133791D01*
X76607005Y-135891966D01*
X76700379Y-135633795D01*
X76755167Y-135364780D01*
X76765500Y-135203370D01*
X76765500Y-132796630D01*
X76755167Y-132635220D01*
X76700379Y-132366205D01*
X76667892Y-132276380D01*
X76660500Y-132234207D01*
X76660500Y-126000525D01*
X81424500Y-126000525D01*
X81424500Y-126259474D01*
X81424501Y-126259491D01*
X81458299Y-126516217D01*
X81458300Y-126516222D01*
X81458301Y-126516228D01*
X81486835Y-126622720D01*
X81525324Y-126766364D01*
X81624423Y-127005609D01*
X81624427Y-127005619D01*
X81753906Y-127229883D01*
X81911551Y-127435331D01*
X81911557Y-127435338D01*
X82094661Y-127618442D01*
X82094668Y-127618448D01*
X82300116Y-127776093D01*
X82524380Y-127905572D01*
X82524381Y-127905572D01*
X82524384Y-127905574D01*
X82763634Y-128004675D01*
X83013772Y-128071699D01*
X83270519Y-128105500D01*
X83270526Y-128105500D01*
X83529474Y-128105500D01*
X83529481Y-128105500D01*
X83786228Y-128071699D01*
X84036366Y-128004675D01*
X84275616Y-127905574D01*
X84499884Y-127776093D01*
X84705333Y-127618447D01*
X84888447Y-127435333D01*
X85046093Y-127229884D01*
X85175574Y-127005616D01*
X85274675Y-126766366D01*
X85341699Y-126516228D01*
X85375500Y-126259481D01*
X85375500Y-126000519D01*
X85341699Y-125743772D01*
X85274675Y-125493634D01*
X85175574Y-125254384D01*
X85135718Y-125185352D01*
X85046093Y-125030116D01*
X84888448Y-124824668D01*
X84888442Y-124824661D01*
X84705338Y-124641557D01*
X84705331Y-124641551D01*
X84499883Y-124483906D01*
X84275619Y-124354427D01*
X84275609Y-124354423D01*
X84036364Y-124255324D01*
X83911297Y-124221813D01*
X83786228Y-124188301D01*
X83786222Y-124188300D01*
X83786217Y-124188299D01*
X83529491Y-124154501D01*
X83529486Y-124154500D01*
X83529481Y-124154500D01*
X83270519Y-124154500D01*
X83270513Y-124154500D01*
X83270508Y-124154501D01*
X83013782Y-124188299D01*
X83013775Y-124188300D01*
X83013772Y-124188301D01*
X82968245Y-124200500D01*
X82763635Y-124255324D01*
X82524390Y-124354423D01*
X82524380Y-124354427D01*
X82300116Y-124483906D01*
X82094668Y-124641551D01*
X82094661Y-124641557D01*
X81911557Y-124824661D01*
X81911551Y-124824668D01*
X81753906Y-125030116D01*
X81624427Y-125254380D01*
X81624423Y-125254390D01*
X81525324Y-125493635D01*
X81498348Y-125594314D01*
X81465567Y-125716657D01*
X81458302Y-125743769D01*
X81458299Y-125743782D01*
X81424501Y-126000508D01*
X81424500Y-126000525D01*
X76660500Y-126000525D01*
X76660500Y-114238142D01*
X76667893Y-114195967D01*
X76678929Y-114165450D01*
X76690379Y-114133795D01*
X76745167Y-113864780D01*
X76755500Y-113703370D01*
X76755500Y-111296630D01*
X76745167Y-111135220D01*
X76690379Y-110866205D01*
X76670747Y-110811923D01*
X76667892Y-110804029D01*
X76660500Y-110761856D01*
X76660500Y-104500525D01*
X81414500Y-104500525D01*
X81414500Y-104759474D01*
X81414501Y-104759491D01*
X81448299Y-105016217D01*
X81448300Y-105016222D01*
X81448301Y-105016228D01*
X81481813Y-105141297D01*
X81515324Y-105266364D01*
X81614423Y-105505609D01*
X81614427Y-105505619D01*
X81743906Y-105729883D01*
X81901551Y-105935331D01*
X81901557Y-105935338D01*
X82084661Y-106118442D01*
X82084668Y-106118448D01*
X82290116Y-106276093D01*
X82514380Y-106405572D01*
X82514381Y-106405572D01*
X82514384Y-106405574D01*
X82753634Y-106504675D01*
X83003772Y-106571699D01*
X83260519Y-106605500D01*
X83260526Y-106605500D01*
X83519474Y-106605500D01*
X83519481Y-106605500D01*
X83776228Y-106571699D01*
X84026366Y-106504675D01*
X84265616Y-106405574D01*
X84489884Y-106276093D01*
X84695333Y-106118447D01*
X84878447Y-105935333D01*
X85036093Y-105729884D01*
X85165574Y-105505616D01*
X85264675Y-105266366D01*
X85331699Y-105016228D01*
X85365500Y-104759481D01*
X85365500Y-104500519D01*
X85331699Y-104243772D01*
X85264675Y-103993634D01*
X85165574Y-103754384D01*
X85077981Y-103602669D01*
X85036093Y-103530116D01*
X84878448Y-103324668D01*
X84878442Y-103324661D01*
X84695338Y-103141557D01*
X84695331Y-103141551D01*
X84489883Y-102983906D01*
X84265619Y-102854427D01*
X84265609Y-102854423D01*
X84026364Y-102755324D01*
X83869395Y-102713265D01*
X83776228Y-102688301D01*
X83776222Y-102688300D01*
X83776217Y-102688299D01*
X83519491Y-102654501D01*
X83519486Y-102654500D01*
X83519481Y-102654500D01*
X83260519Y-102654500D01*
X83260513Y-102654500D01*
X83260508Y-102654501D01*
X83003782Y-102688299D01*
X83003775Y-102688300D01*
X83003772Y-102688301D01*
X82950908Y-102702465D01*
X82753635Y-102755324D01*
X82514390Y-102854423D01*
X82514380Y-102854427D01*
X82290116Y-102983906D01*
X82084668Y-103141551D01*
X82084661Y-103141557D01*
X81901557Y-103324661D01*
X81901551Y-103324668D01*
X81743906Y-103530116D01*
X81614427Y-103754380D01*
X81614423Y-103754390D01*
X81515324Y-103993635D01*
X81448302Y-104243769D01*
X81448299Y-104243782D01*
X81414501Y-104500508D01*
X81414500Y-104500525D01*
X76660500Y-104500525D01*
X76660500Y-92765791D01*
X76667893Y-92723616D01*
X76693658Y-92652377D01*
X76700379Y-92633795D01*
X76755167Y-92364780D01*
X76765500Y-92203370D01*
X76765500Y-89796630D01*
X76755167Y-89635220D01*
X76700379Y-89366205D01*
X76681966Y-89315294D01*
X76667892Y-89276380D01*
X76660500Y-89234207D01*
X76660500Y-83000525D01*
X81424500Y-83000525D01*
X81424500Y-83259474D01*
X81424501Y-83259491D01*
X81458299Y-83516217D01*
X81458300Y-83516222D01*
X81458301Y-83516228D01*
X81466325Y-83546174D01*
X81525324Y-83766364D01*
X81624423Y-84005609D01*
X81624427Y-84005619D01*
X81753906Y-84229883D01*
X81911551Y-84435331D01*
X81911557Y-84435338D01*
X82094661Y-84618442D01*
X82094668Y-84618448D01*
X82300116Y-84776093D01*
X82524380Y-84905572D01*
X82524381Y-84905572D01*
X82524384Y-84905574D01*
X82763634Y-85004675D01*
X83013772Y-85071699D01*
X83270519Y-85105500D01*
X83270526Y-85105500D01*
X83529474Y-85105500D01*
X83529481Y-85105500D01*
X83786228Y-85071699D01*
X84036366Y-85004675D01*
X84275616Y-84905574D01*
X84499884Y-84776093D01*
X84705333Y-84618447D01*
X84888447Y-84435333D01*
X85046093Y-84229884D01*
X85175574Y-84005616D01*
X85274675Y-83766366D01*
X85341699Y-83516228D01*
X85375500Y-83259481D01*
X85375500Y-83000519D01*
X85341699Y-82743772D01*
X85274675Y-82493634D01*
X85175574Y-82254384D01*
X85152927Y-82215159D01*
X85046093Y-82030116D01*
X84888448Y-81824668D01*
X84888442Y-81824661D01*
X84705338Y-81641557D01*
X84705331Y-81641551D01*
X84499883Y-81483906D01*
X84275619Y-81354427D01*
X84275609Y-81354423D01*
X84036364Y-81255324D01*
X83911297Y-81221813D01*
X83786228Y-81188301D01*
X83786222Y-81188300D01*
X83786217Y-81188299D01*
X83529491Y-81154501D01*
X83529486Y-81154500D01*
X83529481Y-81154500D01*
X83270519Y-81154500D01*
X83270513Y-81154500D01*
X83270508Y-81154501D01*
X83013782Y-81188299D01*
X83013775Y-81188300D01*
X83013772Y-81188301D01*
X82960908Y-81202465D01*
X82763635Y-81255324D01*
X82524390Y-81354423D01*
X82524380Y-81354427D01*
X82300116Y-81483906D01*
X82094668Y-81641551D01*
X82094661Y-81641557D01*
X81911557Y-81824661D01*
X81911551Y-81824668D01*
X81753906Y-82030116D01*
X81624427Y-82254380D01*
X81624423Y-82254390D01*
X81525324Y-82493635D01*
X81498348Y-82594314D01*
X81461235Y-82732824D01*
X81458302Y-82743769D01*
X81458299Y-82743782D01*
X81424501Y-83000508D01*
X81424500Y-83000525D01*
X76660500Y-83000525D01*
X76660500Y-71265791D01*
X76667893Y-71223616D01*
X76700374Y-71133808D01*
X76700379Y-71133795D01*
X76755167Y-70864780D01*
X76765500Y-70703370D01*
X76765500Y-68296630D01*
X76755167Y-68135220D01*
X76700379Y-67866205D01*
X76607005Y-67608034D01*
X76607002Y-67608028D01*
X76477038Y-67366212D01*
X76460397Y-67343828D01*
X76313243Y-67145885D01*
X76313234Y-67145875D01*
X76119124Y-66951765D01*
X76119114Y-66951756D01*
X75898787Y-66787961D01*
X75656971Y-66657997D01*
X75656972Y-66657997D01*
X75398795Y-66564621D01*
X75129780Y-66509833D01*
X74968370Y-66499500D01*
X74811630Y-66499500D01*
X74650220Y-66509833D01*
X74381205Y-66564621D01*
X74381203Y-66564621D01*
X74123028Y-66657997D01*
X73881212Y-66787961D01*
X73660885Y-66951756D01*
X73660875Y-66951765D01*
X73463552Y-67149089D01*
X73462522Y-67148059D01*
X73409119Y-67182497D01*
X73339249Y-67182605D01*
X73280413Y-67144921D01*
X73251290Y-67081411D01*
X73250000Y-67063574D01*
X73250000Y-64374000D01*
X73269685Y-64306961D01*
X73322489Y-64261206D01*
X73374000Y-64250000D01*
X77500000Y-64250000D01*
X77500000Y-61500525D01*
X81424500Y-61500525D01*
X81424500Y-61759474D01*
X81424501Y-61759491D01*
X81458299Y-62016217D01*
X81458300Y-62016222D01*
X81458301Y-62016228D01*
X81458302Y-62016230D01*
X81525324Y-62266364D01*
X81624423Y-62505609D01*
X81624427Y-62505619D01*
X81753906Y-62729883D01*
X81911551Y-62935331D01*
X81911557Y-62935338D01*
X82094661Y-63118442D01*
X82094668Y-63118448D01*
X82300116Y-63276093D01*
X82524380Y-63405572D01*
X82524381Y-63405572D01*
X82524384Y-63405574D01*
X82763634Y-63504675D01*
X83013772Y-63571699D01*
X83270519Y-63605500D01*
X83270526Y-63605500D01*
X83529474Y-63605500D01*
X83529481Y-63605500D01*
X83786228Y-63571699D01*
X84036366Y-63504675D01*
X84275616Y-63405574D01*
X84499884Y-63276093D01*
X84705333Y-63118447D01*
X84888447Y-62935333D01*
X85046093Y-62729884D01*
X85175574Y-62505616D01*
X85274675Y-62266366D01*
X85341699Y-62016228D01*
X85375500Y-61759481D01*
X85375500Y-61500519D01*
X85341699Y-61243772D01*
X85274675Y-60993634D01*
X85175574Y-60754384D01*
X85046093Y-60530116D01*
X84888447Y-60324667D01*
X84888442Y-60324661D01*
X84705338Y-60141557D01*
X84705331Y-60141551D01*
X84499883Y-59983906D01*
X84275619Y-59854427D01*
X84275609Y-59854423D01*
X84036364Y-59755324D01*
X83911297Y-59721813D01*
X83786228Y-59688301D01*
X83786222Y-59688300D01*
X83786217Y-59688299D01*
X83529491Y-59654501D01*
X83529486Y-59654500D01*
X83529481Y-59654500D01*
X83270519Y-59654500D01*
X83270513Y-59654500D01*
X83270508Y-59654501D01*
X83013782Y-59688299D01*
X83013775Y-59688300D01*
X83013772Y-59688301D01*
X82960908Y-59702465D01*
X82763635Y-59755324D01*
X82524390Y-59854423D01*
X82524380Y-59854427D01*
X82300116Y-59983906D01*
X82094668Y-60141551D01*
X82094661Y-60141557D01*
X81911557Y-60324661D01*
X81911551Y-60324668D01*
X81753906Y-60530116D01*
X81624427Y-60754380D01*
X81624423Y-60754390D01*
X81525324Y-60993635D01*
X81458302Y-61243769D01*
X81458299Y-61243782D01*
X81424501Y-61500508D01*
X81424500Y-61500525D01*
X77500000Y-61500525D01*
X77500000Y-57631902D01*
X102249500Y-57631902D01*
X102249500Y-57868097D01*
X102286446Y-58101368D01*
X102359433Y-58325996D01*
X102427807Y-58460186D01*
X102466657Y-58536433D01*
X102605483Y-58727510D01*
X102772490Y-58894517D01*
X102963567Y-59033343D01*
X103053280Y-59079054D01*
X103174003Y-59140566D01*
X103174005Y-59140566D01*
X103174008Y-59140568D01*
X103294412Y-59179689D01*
X103398631Y-59213553D01*
X103631903Y-59250500D01*
X103631908Y-59250500D01*
X103868097Y-59250500D01*
X104101368Y-59213553D01*
X104325992Y-59140568D01*
X104536433Y-59033343D01*
X104727510Y-58894517D01*
X104894517Y-58727510D01*
X105033343Y-58536433D01*
X105140568Y-58325992D01*
X105213553Y-58101368D01*
X105229608Y-58000000D01*
X105250500Y-57868097D01*
X105250500Y-57631903D01*
X105229608Y-57500000D01*
X105219670Y-57437255D01*
X105228624Y-57367964D01*
X105273620Y-57314512D01*
X105340372Y-57293872D01*
X105380454Y-57299926D01*
X105433757Y-57317246D01*
X105643713Y-57350500D01*
X105643714Y-57350500D01*
X105856286Y-57350500D01*
X105856287Y-57350500D01*
X106066243Y-57317246D01*
X106268412Y-57251557D01*
X106457816Y-57155051D01*
X106512572Y-57115269D01*
X106629786Y-57030109D01*
X106629788Y-57030106D01*
X106629792Y-57030104D01*
X106780104Y-56879792D01*
X106780106Y-56879788D01*
X106780109Y-56879786D01*
X106905048Y-56707820D01*
X106905047Y-56707820D01*
X106905051Y-56707816D01*
X107001557Y-56518412D01*
X107067246Y-56316243D01*
X107100500Y-56106287D01*
X107100500Y-55893713D01*
X108399500Y-55893713D01*
X108399500Y-56106286D01*
X108432735Y-56316127D01*
X108432754Y-56316243D01*
X108476214Y-56450000D01*
X108498444Y-56518414D01*
X108594951Y-56707820D01*
X108719890Y-56879786D01*
X108870213Y-57030109D01*
X109042179Y-57155048D01*
X109042181Y-57155049D01*
X109042184Y-57155051D01*
X109231588Y-57251557D01*
X109433757Y-57317246D01*
X109643713Y-57350500D01*
X109643714Y-57350500D01*
X109856286Y-57350500D01*
X109856287Y-57350500D01*
X110066243Y-57317246D01*
X110268412Y-57251557D01*
X110457816Y-57155051D01*
X110512572Y-57115269D01*
X110629786Y-57030109D01*
X110629788Y-57030106D01*
X110629792Y-57030104D01*
X110780104Y-56879792D01*
X110780106Y-56879788D01*
X110780109Y-56879786D01*
X110905048Y-56707820D01*
X110905047Y-56707820D01*
X110905051Y-56707816D01*
X111001557Y-56518412D01*
X111067246Y-56316243D01*
X111100500Y-56106287D01*
X111100500Y-55893753D01*
X112400000Y-55893753D01*
X112400000Y-56106246D01*
X112433242Y-56316127D01*
X112433242Y-56316130D01*
X112498904Y-56518217D01*
X112595375Y-56707550D01*
X112634728Y-56761716D01*
X113307861Y-56088584D01*
X113330667Y-56173694D01*
X113389910Y-56276306D01*
X113473694Y-56360090D01*
X113576306Y-56419333D01*
X113661415Y-56442138D01*
X112988282Y-57115269D01*
X112988282Y-57115270D01*
X113042449Y-57154624D01*
X113231782Y-57251095D01*
X113433870Y-57316757D01*
X113643754Y-57350000D01*
X113856246Y-57350000D01*
X114066124Y-57316758D01*
X114119623Y-57299375D01*
X114189465Y-57297379D01*
X114249298Y-57333459D01*
X114280127Y-57396160D01*
X114280416Y-57436704D01*
X114249500Y-57631902D01*
X114249500Y-57868097D01*
X114286446Y-58101368D01*
X114359433Y-58325996D01*
X114427807Y-58460186D01*
X114466657Y-58536433D01*
X114605483Y-58727510D01*
X114772490Y-58894517D01*
X114963567Y-59033343D01*
X115053280Y-59079054D01*
X115174003Y-59140566D01*
X115174005Y-59140566D01*
X115174008Y-59140568D01*
X115294412Y-59179689D01*
X115398631Y-59213553D01*
X115631903Y-59250500D01*
X115631908Y-59250500D01*
X115868097Y-59250500D01*
X116101368Y-59213553D01*
X116325992Y-59140568D01*
X116536433Y-59033343D01*
X116727510Y-58894517D01*
X116894517Y-58727510D01*
X117033343Y-58536433D01*
X117140568Y-58325992D01*
X117213553Y-58101368D01*
X117216687Y-58081582D01*
X132700001Y-58081582D01*
X132706408Y-58152102D01*
X132706409Y-58152107D01*
X132756981Y-58314396D01*
X132844927Y-58459877D01*
X132965122Y-58580072D01*
X133110604Y-58668019D01*
X133110603Y-58668019D01*
X133272894Y-58718590D01*
X133272893Y-58718590D01*
X133343408Y-58724998D01*
X133343426Y-58724999D01*
X133349999Y-58724998D01*
X133350000Y-58724998D01*
X133350000Y-58000000D01*
X132700001Y-58000000D01*
X132700001Y-58081582D01*
X117216687Y-58081582D01*
X117229608Y-58000000D01*
X117240816Y-57929240D01*
X117250500Y-57868097D01*
X117250500Y-57631902D01*
X117229608Y-57500000D01*
X117216688Y-57418427D01*
X132700000Y-57418427D01*
X132700000Y-57500000D01*
X133350000Y-57500000D01*
X133350000Y-56775000D01*
X133349999Y-56774999D01*
X133343436Y-56775000D01*
X133343417Y-56775001D01*
X133272897Y-56781408D01*
X133272892Y-56781409D01*
X133110603Y-56831981D01*
X132965122Y-56919927D01*
X132844927Y-57040122D01*
X132756980Y-57185604D01*
X132706409Y-57347893D01*
X132700000Y-57418427D01*
X117216688Y-57418427D01*
X117213553Y-57398632D01*
X117203588Y-57367964D01*
X117165765Y-57251557D01*
X117140568Y-57174008D01*
X117140566Y-57174005D01*
X117140566Y-57174003D01*
X117033342Y-56963566D01*
X116894517Y-56772490D01*
X116727510Y-56605483D01*
X116536433Y-56466657D01*
X116503742Y-56450000D01*
X116325996Y-56359433D01*
X116101368Y-56286446D01*
X115868097Y-56249500D01*
X115868092Y-56249500D01*
X115631908Y-56249500D01*
X115631903Y-56249500D01*
X115398630Y-56286447D01*
X115398627Y-56286447D01*
X115246153Y-56335990D01*
X115176312Y-56337985D01*
X115116479Y-56301905D01*
X115085651Y-56239204D01*
X115085362Y-56198660D01*
X115100000Y-56106244D01*
X115100000Y-55893753D01*
X115066757Y-55683872D01*
X115066757Y-55683869D01*
X115001095Y-55481782D01*
X114904624Y-55292449D01*
X114865270Y-55238282D01*
X114865269Y-55238282D01*
X114192138Y-55911415D01*
X114169333Y-55826306D01*
X114110090Y-55723694D01*
X114026306Y-55639910D01*
X113923694Y-55580667D01*
X113838584Y-55557861D01*
X114511716Y-54884728D01*
X114457550Y-54845375D01*
X114268217Y-54748904D01*
X114066129Y-54683242D01*
X113856246Y-54650000D01*
X113643754Y-54650000D01*
X113433872Y-54683242D01*
X113433869Y-54683242D01*
X113231782Y-54748904D01*
X113042439Y-54845380D01*
X112988282Y-54884727D01*
X112988282Y-54884728D01*
X113661415Y-55557861D01*
X113576306Y-55580667D01*
X113473694Y-55639910D01*
X113389910Y-55723694D01*
X113330667Y-55826306D01*
X113307861Y-55911415D01*
X112634728Y-55238282D01*
X112634727Y-55238282D01*
X112595380Y-55292439D01*
X112498904Y-55481782D01*
X112433242Y-55683869D01*
X112433242Y-55683872D01*
X112400000Y-55893753D01*
X111100500Y-55893753D01*
X111100500Y-55893713D01*
X111067246Y-55683757D01*
X111001557Y-55481588D01*
X110905051Y-55292184D01*
X110905049Y-55292181D01*
X110905048Y-55292179D01*
X110780109Y-55120213D01*
X110629786Y-54969890D01*
X110457820Y-54844951D01*
X110268414Y-54748444D01*
X110268413Y-54748443D01*
X110268412Y-54748443D01*
X110066243Y-54682754D01*
X110066241Y-54682753D01*
X110066240Y-54682753D01*
X109904957Y-54657208D01*
X109856287Y-54649500D01*
X109643713Y-54649500D01*
X109595042Y-54657208D01*
X109433760Y-54682753D01*
X109231585Y-54748444D01*
X109042179Y-54844951D01*
X108870213Y-54969890D01*
X108719890Y-55120213D01*
X108594951Y-55292179D01*
X108498444Y-55481585D01*
X108498443Y-55481587D01*
X108498443Y-55481588D01*
X108491663Y-55502454D01*
X108432753Y-55683760D01*
X108399500Y-55893713D01*
X107100500Y-55893713D01*
X107067246Y-55683757D01*
X107001557Y-55481588D01*
X106905051Y-55292184D01*
X106905049Y-55292181D01*
X106905048Y-55292179D01*
X106780109Y-55120213D01*
X106629786Y-54969890D01*
X106457820Y-54844951D01*
X106268414Y-54748444D01*
X106268413Y-54748443D01*
X106268412Y-54748443D01*
X106066243Y-54682754D01*
X106066241Y-54682753D01*
X106066240Y-54682753D01*
X105904957Y-54657208D01*
X105856287Y-54649500D01*
X105643713Y-54649500D01*
X105595042Y-54657208D01*
X105433760Y-54682753D01*
X105231585Y-54748444D01*
X105042179Y-54844951D01*
X104870213Y-54969890D01*
X104719890Y-55120213D01*
X104594951Y-55292179D01*
X104498444Y-55481585D01*
X104498443Y-55481587D01*
X104498443Y-55481588D01*
X104491663Y-55502454D01*
X104432753Y-55683760D01*
X104399500Y-55893713D01*
X104399500Y-56106286D01*
X104414103Y-56198487D01*
X104405148Y-56267781D01*
X104360152Y-56321233D01*
X104293400Y-56341872D01*
X104253312Y-56335816D01*
X104101370Y-56286447D01*
X103868097Y-56249500D01*
X103868092Y-56249500D01*
X103631908Y-56249500D01*
X103631903Y-56249500D01*
X103398631Y-56286446D01*
X103174003Y-56359433D01*
X102963566Y-56466657D01*
X102854550Y-56545862D01*
X102772490Y-56605483D01*
X102772488Y-56605485D01*
X102772487Y-56605485D01*
X102605485Y-56772487D01*
X102605485Y-56772488D01*
X102605483Y-56772490D01*
X102599363Y-56780914D01*
X102466657Y-56963566D01*
X102359433Y-57174003D01*
X102286446Y-57398631D01*
X102249500Y-57631902D01*
X77500000Y-57631902D01*
X77500000Y-54381995D01*
X143699500Y-54381995D01*
X143699500Y-54618004D01*
X143699501Y-54618020D01*
X143729433Y-54845380D01*
X143730307Y-54852014D01*
X143791394Y-55079993D01*
X143881714Y-55298045D01*
X143881719Y-55298056D01*
X143952677Y-55420957D01*
X143999727Y-55502450D01*
X143999729Y-55502453D01*
X143999730Y-55502454D01*
X144143406Y-55689697D01*
X144143412Y-55689704D01*
X144310295Y-55856587D01*
X144310301Y-55856592D01*
X144497550Y-56000273D01*
X144599691Y-56059244D01*
X144701943Y-56118280D01*
X144701948Y-56118282D01*
X144701951Y-56118284D01*
X144920007Y-56208606D01*
X145147986Y-56269693D01*
X145381989Y-56300500D01*
X145381996Y-56300500D01*
X145618004Y-56300500D01*
X145618011Y-56300500D01*
X145852014Y-56269693D01*
X146079993Y-56208606D01*
X146298049Y-56118284D01*
X146502450Y-56000273D01*
X146689699Y-55856592D01*
X146856592Y-55689699D01*
X147000273Y-55502450D01*
X147118284Y-55298049D01*
X147208606Y-55079993D01*
X147269693Y-54852014D01*
X147300500Y-54618011D01*
X147300500Y-54381989D01*
X147269693Y-54147986D01*
X147208606Y-53920007D01*
X147118284Y-53701951D01*
X147118282Y-53701948D01*
X147118280Y-53701943D01*
X147076118Y-53628918D01*
X147000273Y-53497550D01*
X146856592Y-53310301D01*
X146856587Y-53310295D01*
X146689704Y-53143412D01*
X146689697Y-53143406D01*
X146502454Y-52999730D01*
X146502453Y-52999729D01*
X146502450Y-52999727D01*
X146420957Y-52952677D01*
X146298056Y-52881719D01*
X146298045Y-52881714D01*
X146079993Y-52791394D01*
X145852010Y-52730306D01*
X145618020Y-52699501D01*
X145618017Y-52699500D01*
X145618011Y-52699500D01*
X145381989Y-52699500D01*
X145381983Y-52699500D01*
X145381979Y-52699501D01*
X145147989Y-52730306D01*
X144920006Y-52791394D01*
X144701954Y-52881714D01*
X144701943Y-52881719D01*
X144497545Y-52999730D01*
X144310302Y-53143406D01*
X144310295Y-53143412D01*
X144143412Y-53310295D01*
X144143406Y-53310302D01*
X143999730Y-53497545D01*
X143881719Y-53701943D01*
X143881714Y-53701954D01*
X143791394Y-53920006D01*
X143730306Y-54147989D01*
X143699501Y-54381979D01*
X143699500Y-54381995D01*
X77500000Y-54381995D01*
X77500000Y-50624000D01*
X77519685Y-50556961D01*
X77572489Y-50511206D01*
X77624000Y-50500000D01*
X102578611Y-50500000D01*
X102645650Y-50519685D01*
G37*
%TD.AperFunction*%
%TA.AperFunction,Conductor*%
G36*
X72026889Y-143019685D02*
G01*
X72072644Y-143072489D01*
X72082588Y-143141647D01*
X72053563Y-143205203D01*
X72047535Y-143211676D01*
X71413713Y-143845498D01*
X70801346Y-144457865D01*
X70740023Y-144491350D01*
X70670331Y-144486366D01*
X70666264Y-144484766D01*
X70647913Y-144477165D01*
X70647906Y-144477163D01*
X70477611Y-144443289D01*
X70477609Y-144443289D01*
X70303969Y-144443289D01*
X70303967Y-144443289D01*
X70133670Y-144477163D01*
X70133660Y-144477166D01*
X69973248Y-144543610D01*
X69973235Y-144543617D01*
X69828866Y-144640082D01*
X69828862Y-144640085D01*
X69706085Y-144762862D01*
X69706082Y-144762866D01*
X69609617Y-144907235D01*
X69609610Y-144907248D01*
X69543166Y-145067660D01*
X69543163Y-145067670D01*
X69509289Y-145237966D01*
X69509289Y-145237969D01*
X69509289Y-145411609D01*
X69509289Y-145411611D01*
X69509288Y-145411611D01*
X69543163Y-145581907D01*
X69543166Y-145581917D01*
X69609610Y-145742329D01*
X69609617Y-145742342D01*
X69706082Y-145886711D01*
X69706085Y-145886715D01*
X69828862Y-146009492D01*
X69828866Y-146009495D01*
X69973235Y-146105960D01*
X69973248Y-146105967D01*
X70031345Y-146130031D01*
X70133665Y-146172413D01*
X70159100Y-146177472D01*
X70221010Y-146209855D01*
X70255585Y-146270570D01*
X70256526Y-146274895D01*
X70261586Y-146300332D01*
X70261588Y-146300339D01*
X70328032Y-146460751D01*
X70328039Y-146460764D01*
X70424504Y-146605133D01*
X70424507Y-146605137D01*
X70547284Y-146727914D01*
X70547288Y-146727917D01*
X70691657Y-146824382D01*
X70691670Y-146824389D01*
X70800980Y-146869666D01*
X70852087Y-146890835D01*
X70852091Y-146890835D01*
X70852092Y-146890836D01*
X71022388Y-146924711D01*
X71048704Y-146924711D01*
X71115743Y-146944396D01*
X71161498Y-146997200D01*
X71171442Y-147066358D01*
X71142417Y-147129914D01*
X71136385Y-147136392D01*
X70500097Y-147772681D01*
X70438774Y-147806166D01*
X70412416Y-147809000D01*
X65988400Y-147809000D01*
X65921361Y-147789315D01*
X65875606Y-147736511D01*
X65865662Y-147667353D01*
X65866783Y-147660808D01*
X65881500Y-147586822D01*
X65881500Y-147413177D01*
X65847625Y-147242881D01*
X65847624Y-147242880D01*
X65847624Y-147242876D01*
X65842417Y-147230306D01*
X65781178Y-147082459D01*
X65781171Y-147082446D01*
X65684706Y-146938077D01*
X65684703Y-146938073D01*
X65561926Y-146815296D01*
X65561922Y-146815293D01*
X65417553Y-146718828D01*
X65417540Y-146718821D01*
X65257128Y-146652377D01*
X65257118Y-146652374D01*
X65086822Y-146618500D01*
X65086820Y-146618500D01*
X64913180Y-146618500D01*
X64913178Y-146618500D01*
X64742881Y-146652374D01*
X64742871Y-146652377D01*
X64582459Y-146718821D01*
X64582446Y-146718828D01*
X64438077Y-146815293D01*
X64438073Y-146815296D01*
X64417189Y-146836181D01*
X64355866Y-146869666D01*
X64329508Y-146872500D01*
X61874000Y-146872500D01*
X61806961Y-146852815D01*
X61761206Y-146800011D01*
X61750000Y-146748500D01*
X61750000Y-143124000D01*
X61769685Y-143056961D01*
X61822489Y-143011206D01*
X61874000Y-143000000D01*
X71959850Y-143000000D01*
X72026889Y-143019685D01*
G37*
%TD.AperFunction*%
%TA.AperFunction,Conductor*%
G36*
X103545338Y-138155185D02*
G01*
X103565980Y-138171819D01*
X107296979Y-141902819D01*
X107330464Y-141964142D01*
X107325480Y-142033834D01*
X107283608Y-142089767D01*
X107218144Y-142114184D01*
X107209298Y-142114500D01*
X105160630Y-142114500D01*
X104984105Y-142142458D01*
X104855805Y-142184146D01*
X104855804Y-142184145D01*
X104814118Y-142197690D01*
X104654867Y-142278833D01*
X104510270Y-142383890D01*
X104510269Y-142383891D01*
X103565980Y-143328181D01*
X103504657Y-143361666D01*
X103478299Y-143364500D01*
X95529483Y-143364500D01*
X95462444Y-143344815D01*
X95416689Y-143292011D01*
X95406745Y-143222853D01*
X95435770Y-143159297D01*
X95456597Y-143140183D01*
X95469839Y-143130561D01*
X95489728Y-143116111D01*
X95616111Y-142989728D01*
X95674670Y-142931169D01*
X95674683Y-142931154D01*
X100434021Y-138171819D01*
X100495344Y-138138334D01*
X100521702Y-138135500D01*
X103478299Y-138135500D01*
X103545338Y-138155185D01*
G37*
%TD.AperFunction*%
%TA.AperFunction,Conductor*%
G36*
X113041834Y-134485468D02*
G01*
X113097767Y-134527340D01*
X113122184Y-134592804D01*
X113122500Y-134601650D01*
X113122500Y-138438718D01*
X113102815Y-138505757D01*
X113086181Y-138526399D01*
X112066709Y-139545870D01*
X112005386Y-139579355D01*
X111935694Y-139574371D01*
X111910137Y-139561291D01*
X111879185Y-139540609D01*
X111879172Y-139540602D01*
X111733501Y-139480264D01*
X111733489Y-139480261D01*
X111578845Y-139449500D01*
X111578842Y-139449500D01*
X111421158Y-139449500D01*
X111421155Y-139449500D01*
X111266510Y-139480261D01*
X111266498Y-139480264D01*
X111120827Y-139540602D01*
X111120814Y-139540609D01*
X110989711Y-139628210D01*
X110989707Y-139628213D01*
X110878213Y-139739707D01*
X110878210Y-139739711D01*
X110790609Y-139870814D01*
X110790602Y-139870827D01*
X110730264Y-140016498D01*
X110730261Y-140016508D01*
X110711527Y-140110692D01*
X110679142Y-140172603D01*
X110618426Y-140207177D01*
X110589910Y-140210500D01*
X108867702Y-140210500D01*
X108800663Y-140190815D01*
X108780021Y-140174181D01*
X106851320Y-138245480D01*
X104898219Y-136292380D01*
X104864735Y-136231058D01*
X104869719Y-136161366D01*
X104911591Y-136105433D01*
X104977055Y-136081016D01*
X104985901Y-136080700D01*
X111173956Y-136080700D01*
X111173958Y-136080700D01*
X111327092Y-136039667D01*
X111464388Y-135960400D01*
X111576490Y-135848298D01*
X112910819Y-134513969D01*
X112972142Y-134480484D01*
X113041834Y-134485468D01*
G37*
%TD.AperFunction*%
%TA.AperFunction,Conductor*%
G36*
X116298905Y-101163913D02*
G01*
X116324209Y-101165723D01*
X116332337Y-101171807D01*
X116342218Y-101174141D01*
X116359836Y-101192393D01*
X116380142Y-101207595D01*
X116384981Y-101218445D01*
X116390742Y-101224413D01*
X116400265Y-101251395D01*
X116400607Y-101251292D01*
X116402377Y-101257128D01*
X116468821Y-101417540D01*
X116468828Y-101417553D01*
X116565293Y-101561922D01*
X116565296Y-101561926D01*
X116688073Y-101684703D01*
X116688077Y-101684706D01*
X116832446Y-101781171D01*
X116832450Y-101781173D01*
X116832453Y-101781175D01*
X116859364Y-101792321D01*
X116913767Y-101836161D01*
X116935834Y-101902454D01*
X116918556Y-101970154D01*
X116899594Y-101994564D01*
X115760272Y-103133889D01*
X115633891Y-103260269D01*
X115633890Y-103260270D01*
X115528833Y-103404867D01*
X115447243Y-103564997D01*
X115446184Y-103568754D01*
X115392458Y-103734105D01*
X115392457Y-103734107D01*
X115365808Y-103902374D01*
X115364500Y-103910632D01*
X115364500Y-136444310D01*
X115350985Y-136500603D01*
X115341119Y-136519964D01*
X115280290Y-136707173D01*
X115249500Y-136901577D01*
X115249500Y-137093297D01*
X115229815Y-137160336D01*
X115213181Y-137180978D01*
X114589181Y-137804978D01*
X114527858Y-137838463D01*
X114458166Y-137833479D01*
X114402233Y-137791607D01*
X114377816Y-137726143D01*
X114377500Y-137717297D01*
X114377500Y-103061281D01*
X114397185Y-102994242D01*
X114413819Y-102973600D01*
X115300599Y-102086820D01*
X116193196Y-101194222D01*
X116202104Y-101189358D01*
X116208333Y-101181338D01*
X116232255Y-101172894D01*
X116254517Y-101160739D01*
X116264644Y-101161463D01*
X116274219Y-101158084D01*
X116298905Y-101163913D01*
G37*
%TD.AperFunction*%
%TA.AperFunction,Conductor*%
G36*
X102209703Y-118277173D02*
G01*
X102216181Y-118283205D01*
X109507926Y-125574950D01*
X109534805Y-125615176D01*
X109540604Y-125629175D01*
X109540607Y-125629181D01*
X109628207Y-125760284D01*
X109628213Y-125760292D01*
X109739707Y-125871786D01*
X109739711Y-125871789D01*
X109870814Y-125959390D01*
X109870827Y-125959397D01*
X110016498Y-126019735D01*
X110016503Y-126019737D01*
X110149400Y-126046172D01*
X110171153Y-126050499D01*
X110171156Y-126050500D01*
X110171158Y-126050500D01*
X110328844Y-126050500D01*
X110328845Y-126050499D01*
X110483497Y-126019737D01*
X110629179Y-125959394D01*
X110760289Y-125871789D01*
X110871789Y-125760289D01*
X110959394Y-125629179D01*
X111019737Y-125483497D01*
X111050500Y-125328842D01*
X111050500Y-125171158D01*
X111050500Y-125171155D01*
X111037426Y-125105431D01*
X111043653Y-125035840D01*
X111086515Y-124980662D01*
X111111589Y-124966679D01*
X111129179Y-124959394D01*
X111260289Y-124871789D01*
X111371789Y-124760289D01*
X111459394Y-124629179D01*
X111519737Y-124483497D01*
X111550500Y-124328842D01*
X111550500Y-124171158D01*
X111550500Y-124171155D01*
X111550499Y-124171153D01*
X111541309Y-124124954D01*
X111519737Y-124016503D01*
X111506290Y-123984041D01*
X111498821Y-123914573D01*
X111530095Y-123852093D01*
X111533143Y-123848934D01*
X111621789Y-123760289D01*
X111709394Y-123629179D01*
X111709397Y-123629172D01*
X111756939Y-123514395D01*
X111800779Y-123459991D01*
X111867074Y-123437926D01*
X111934773Y-123455205D01*
X111982384Y-123506342D01*
X111995500Y-123561847D01*
X111995500Y-125386113D01*
X111975815Y-125453152D01*
X111959181Y-125473794D01*
X110413939Y-127019036D01*
X108663943Y-128769030D01*
X108663942Y-128769031D01*
X108581372Y-128892607D01*
X108581366Y-128892618D01*
X108524496Y-129029916D01*
X108524493Y-129029926D01*
X108495499Y-129175685D01*
X108495499Y-129330425D01*
X108495500Y-129330446D01*
X108495500Y-132136113D01*
X108475815Y-132203152D01*
X108459181Y-132223794D01*
X107566563Y-133116411D01*
X107505240Y-133149896D01*
X107503075Y-133150347D01*
X107492880Y-133152375D01*
X107492871Y-133152377D01*
X107332459Y-133218821D01*
X107332446Y-133218828D01*
X107188077Y-133315293D01*
X107188073Y-133315296D01*
X107065296Y-133438073D01*
X107065293Y-133438077D01*
X106968828Y-133582446D01*
X106968821Y-133582459D01*
X106902377Y-133742871D01*
X106902374Y-133742881D01*
X106868500Y-133913177D01*
X106868500Y-133913180D01*
X106868500Y-134086820D01*
X106868500Y-134086822D01*
X106868499Y-134086822D01*
X106902374Y-134257118D01*
X106903037Y-134259302D01*
X106903047Y-134260502D01*
X106903564Y-134263098D01*
X106903071Y-134263195D01*
X106903662Y-134329169D01*
X106866415Y-134388283D01*
X106803121Y-134417875D01*
X106784377Y-134419300D01*
X95607283Y-134419300D01*
X95540244Y-134399615D01*
X95494489Y-134346811D01*
X95484545Y-134277653D01*
X95513570Y-134214097D01*
X95519602Y-134207619D01*
X98556384Y-131170838D01*
X101749903Y-127977319D01*
X101811226Y-127943834D01*
X101837584Y-127941000D01*
X103568060Y-127941000D01*
X103657870Y-127923134D01*
X103701557Y-127914445D01*
X103827311Y-127862356D01*
X103857993Y-127841855D01*
X103940487Y-127786735D01*
X105286735Y-126440486D01*
X105362356Y-126327311D01*
X105414445Y-126201557D01*
X105426892Y-126138977D01*
X105459276Y-126077070D01*
X105519991Y-126042495D01*
X105524318Y-126041554D01*
X105564585Y-126033543D01*
X105633997Y-126019737D01*
X105779679Y-125959394D01*
X105910789Y-125871789D01*
X106022289Y-125760289D01*
X106109894Y-125629179D01*
X106170237Y-125483497D01*
X106201000Y-125328842D01*
X106201000Y-125171158D01*
X106201000Y-125171155D01*
X106200999Y-125171153D01*
X106170239Y-125016511D01*
X106170238Y-125016508D01*
X106170237Y-125016503D01*
X106164437Y-125002501D01*
X106155000Y-124955053D01*
X106155000Y-124076187D01*
X106154999Y-124076183D01*
X106126006Y-123930427D01*
X106126005Y-123930420D01*
X106069129Y-123793110D01*
X106047198Y-123760288D01*
X105986560Y-123669535D01*
X105986554Y-123669528D01*
X105877147Y-123560121D01*
X105877124Y-123560100D01*
X102040819Y-119723794D01*
X102007334Y-119662471D01*
X102004500Y-119636113D01*
X102004500Y-118370886D01*
X102024185Y-118303847D01*
X102076989Y-118258092D01*
X102146147Y-118248148D01*
X102209703Y-118277173D01*
G37*
%TD.AperFunction*%
%TA.AperFunction,Conductor*%
G36*
X95259651Y-103960685D02*
G01*
X95305406Y-104013489D01*
X95315350Y-104082647D01*
X95286325Y-104146203D01*
X95280293Y-104152681D01*
X94816563Y-104616411D01*
X94755240Y-104649896D01*
X94753075Y-104650347D01*
X94742880Y-104652375D01*
X94742871Y-104652377D01*
X94582459Y-104718821D01*
X94582446Y-104718828D01*
X94438077Y-104815293D01*
X94438073Y-104815296D01*
X94315296Y-104938073D01*
X94315293Y-104938077D01*
X94218828Y-105082446D01*
X94218821Y-105082459D01*
X94152377Y-105242871D01*
X94152374Y-105242881D01*
X94118500Y-105413177D01*
X94118500Y-105413180D01*
X94118500Y-105586820D01*
X94118500Y-105586822D01*
X94118499Y-105586822D01*
X94152374Y-105757118D01*
X94152377Y-105757128D01*
X94218821Y-105917540D01*
X94218828Y-105917553D01*
X94315293Y-106061922D01*
X94315296Y-106061926D01*
X94438073Y-106184703D01*
X94438077Y-106184706D01*
X94582446Y-106281171D01*
X94582459Y-106281178D01*
X94705593Y-106332181D01*
X94742876Y-106347624D01*
X94742880Y-106347624D01*
X94742881Y-106347625D01*
X94913177Y-106381500D01*
X94913180Y-106381500D01*
X95086822Y-106381500D01*
X95201394Y-106358709D01*
X95257124Y-106347624D01*
X95417547Y-106281175D01*
X95561923Y-106184706D01*
X95684706Y-106061923D01*
X95781175Y-105917547D01*
X95847624Y-105757124D01*
X95849652Y-105746926D01*
X95882032Y-105685018D01*
X95883531Y-105683491D01*
X97033820Y-104533202D01*
X97095142Y-104499719D01*
X97164834Y-104504703D01*
X97220767Y-104546575D01*
X97245184Y-104612039D01*
X97245500Y-104620885D01*
X97245500Y-121670552D01*
X97245499Y-121670578D01*
X97245499Y-121824314D01*
X97264260Y-121918624D01*
X97264260Y-121918629D01*
X97264261Y-121918629D01*
X97272369Y-121959394D01*
X97272370Y-121959399D01*
X97272369Y-121959399D01*
X97274493Y-121970076D01*
X97293473Y-122015897D01*
X97331370Y-122107389D01*
X97356883Y-122145572D01*
X97413942Y-122230968D01*
X97413943Y-122230969D01*
X100757926Y-125574950D01*
X100784805Y-125615176D01*
X100790604Y-125629175D01*
X100790607Y-125629181D01*
X100878207Y-125760284D01*
X100878213Y-125760292D01*
X100989707Y-125871786D01*
X100989711Y-125871789D01*
X101120814Y-125959390D01*
X101120827Y-125959397D01*
X101266498Y-126019735D01*
X101266503Y-126019737D01*
X101399400Y-126046172D01*
X101421153Y-126050499D01*
X101421156Y-126050500D01*
X101421158Y-126050500D01*
X101578844Y-126050500D01*
X101578845Y-126050499D01*
X101733497Y-126019737D01*
X101879179Y-125959394D01*
X102010289Y-125871789D01*
X102010292Y-125871786D01*
X102037319Y-125844760D01*
X102098642Y-125811275D01*
X102168334Y-125816259D01*
X102212681Y-125844760D01*
X102239707Y-125871786D01*
X102239711Y-125871789D01*
X102370814Y-125959390D01*
X102370827Y-125959397D01*
X102516498Y-126019735D01*
X102516503Y-126019737D01*
X102649400Y-126046172D01*
X102671153Y-126050499D01*
X102671156Y-126050500D01*
X102671158Y-126050500D01*
X102828844Y-126050500D01*
X102828845Y-126050499D01*
X102983497Y-126019737D01*
X103129179Y-125959394D01*
X103260289Y-125871789D01*
X103260292Y-125871786D01*
X103287319Y-125844760D01*
X103348642Y-125811275D01*
X103418334Y-125816259D01*
X103448707Y-125832725D01*
X103456144Y-125838222D01*
X103489711Y-125871789D01*
X103613056Y-125954205D01*
X103615439Y-125955967D01*
X103634843Y-125981562D01*
X103655428Y-126006194D01*
X103655807Y-126009216D01*
X103657649Y-126011645D01*
X103660134Y-126043668D01*
X103664135Y-126075519D01*
X103662820Y-126078267D01*
X103663056Y-126081305D01*
X103647837Y-126109581D01*
X103633980Y-126138546D01*
X103629976Y-126142769D01*
X103629944Y-126142830D01*
X103629891Y-126142858D01*
X103629413Y-126143364D01*
X103250097Y-126522681D01*
X103188774Y-126556166D01*
X103162416Y-126559000D01*
X101431940Y-126559000D01*
X101314038Y-126582453D01*
X101298443Y-126585555D01*
X101298438Y-126585556D01*
X101172690Y-126637642D01*
X101172687Y-126637644D01*
X101059514Y-126713263D01*
X101059507Y-126713269D01*
X96847384Y-130925392D01*
X96786061Y-130958877D01*
X96716369Y-130953893D01*
X96672022Y-130925392D01*
X96561926Y-130815296D01*
X96561922Y-130815293D01*
X96417553Y-130718828D01*
X96417540Y-130718821D01*
X96257128Y-130652377D01*
X96257118Y-130652374D01*
X96134823Y-130628048D01*
X96072912Y-130595663D01*
X96071334Y-130594112D01*
X94727319Y-129250097D01*
X94693834Y-129188774D01*
X94691000Y-129162416D01*
X94691000Y-111081783D01*
X94710685Y-111014744D01*
X94746107Y-110978682D01*
X94811923Y-110934706D01*
X94934706Y-110811923D01*
X95031175Y-110667547D01*
X95097624Y-110507124D01*
X95108709Y-110451394D01*
X95131500Y-110336822D01*
X95131500Y-110163177D01*
X95097625Y-109992881D01*
X95097624Y-109992880D01*
X95097624Y-109992876D01*
X95089287Y-109972749D01*
X95031178Y-109832459D01*
X95031171Y-109832446D01*
X94934706Y-109688077D01*
X94934703Y-109688073D01*
X94811926Y-109565296D01*
X94811922Y-109565293D01*
X94702963Y-109492489D01*
X94658158Y-109438877D01*
X94649451Y-109369552D01*
X94679605Y-109306525D01*
X94739048Y-109269805D01*
X94808907Y-109271052D01*
X94830302Y-109280026D01*
X94832452Y-109281175D01*
X94956264Y-109332459D01*
X94992876Y-109347624D01*
X94992880Y-109347624D01*
X94992881Y-109347625D01*
X95163177Y-109381500D01*
X95163180Y-109381500D01*
X95336822Y-109381500D01*
X95451394Y-109358709D01*
X95507124Y-109347624D01*
X95667547Y-109281175D01*
X95811923Y-109184706D01*
X95934706Y-109061923D01*
X96031175Y-108917547D01*
X96097624Y-108757124D01*
X96131500Y-108586820D01*
X96131500Y-108413180D01*
X96131500Y-108413177D01*
X96097625Y-108242881D01*
X96097624Y-108242880D01*
X96097624Y-108242876D01*
X96041339Y-108106991D01*
X96031178Y-108082459D01*
X96031171Y-108082446D01*
X95934706Y-107938077D01*
X95934703Y-107938073D01*
X95811926Y-107815296D01*
X95811922Y-107815293D01*
X95667553Y-107718828D01*
X95667540Y-107718821D01*
X95507128Y-107652377D01*
X95507118Y-107652374D01*
X95336822Y-107618500D01*
X95336820Y-107618500D01*
X95163180Y-107618500D01*
X95163178Y-107618500D01*
X94992881Y-107652374D01*
X94992871Y-107652377D01*
X94832459Y-107718821D01*
X94832447Y-107718828D01*
X94728773Y-107788102D01*
X94662096Y-107808980D01*
X94659882Y-107809000D01*
X94431940Y-107809000D01*
X94298448Y-107835553D01*
X94298438Y-107835556D01*
X94172690Y-107887642D01*
X94172687Y-107887644D01*
X94059514Y-107963263D01*
X94059507Y-107963269D01*
X92902681Y-109120096D01*
X92841358Y-109153581D01*
X92771666Y-109148597D01*
X92715733Y-109106725D01*
X92691316Y-109041261D01*
X92691000Y-109032415D01*
X92691000Y-104337584D01*
X92710685Y-104270545D01*
X92727319Y-104249903D01*
X92999903Y-103977319D01*
X93061226Y-103943834D01*
X93087584Y-103941000D01*
X95192612Y-103941000D01*
X95259651Y-103960685D01*
G37*
%TD.AperFunction*%
%TA.AperFunction,Conductor*%
G36*
X95428027Y-94196328D02*
G01*
X95446936Y-94196666D01*
X95475151Y-94210165D01*
X95476921Y-94210685D01*
X95478771Y-94211896D01*
X95582453Y-94281175D01*
X95582455Y-94281176D01*
X95582459Y-94281178D01*
X95657919Y-94312434D01*
X95742876Y-94347624D01*
X95742880Y-94347624D01*
X95742881Y-94347625D01*
X95913177Y-94381500D01*
X95913180Y-94381500D01*
X96086822Y-94381500D01*
X96237125Y-94351602D01*
X96257124Y-94347624D01*
X96324049Y-94319902D01*
X96393516Y-94312434D01*
X96455995Y-94343709D01*
X96491648Y-94403797D01*
X96495500Y-94434464D01*
X96495500Y-95065535D01*
X96475815Y-95132574D01*
X96423011Y-95178329D01*
X96353853Y-95188273D01*
X96324048Y-95180096D01*
X96257128Y-95152377D01*
X96257118Y-95152374D01*
X96086822Y-95118500D01*
X96086820Y-95118500D01*
X95913180Y-95118500D01*
X95913178Y-95118500D01*
X95742881Y-95152374D01*
X95742871Y-95152377D01*
X95582459Y-95218821D01*
X95582447Y-95218828D01*
X95478773Y-95288102D01*
X95412096Y-95308980D01*
X95409882Y-95309000D01*
X92431937Y-95309000D01*
X92319484Y-95331368D01*
X92319485Y-95331369D01*
X92298445Y-95335554D01*
X92298435Y-95335557D01*
X92172694Y-95387640D01*
X92172681Y-95387647D01*
X92059513Y-95463264D01*
X92059509Y-95463267D01*
X88902681Y-98620096D01*
X88841358Y-98653581D01*
X88771666Y-98648597D01*
X88715733Y-98606725D01*
X88691316Y-98541261D01*
X88691000Y-98532415D01*
X88691000Y-96337583D01*
X88710685Y-96270544D01*
X88727319Y-96249902D01*
X90749902Y-94227319D01*
X90811225Y-94193834D01*
X90837583Y-94191000D01*
X95409882Y-94191000D01*
X95428027Y-94196328D01*
G37*
%TD.AperFunction*%
%TD*%
%TA.AperFunction,Conductor*%
%TO.N,Net-(J2-Pin_1)*%
G36*
X61260541Y-83519685D02*
G01*
X61287073Y-83542634D01*
X71219571Y-94965007D01*
X71248707Y-95028511D01*
X71250000Y-95046372D01*
X71250000Y-98876000D01*
X71230315Y-98943039D01*
X71177511Y-98988794D01*
X71126000Y-99000000D01*
X64051362Y-99000000D01*
X63984323Y-98980315D01*
X63963681Y-98963681D01*
X50786319Y-85786319D01*
X50752834Y-85724996D01*
X50750000Y-85698638D01*
X50750000Y-83624000D01*
X50769685Y-83556961D01*
X50822489Y-83511206D01*
X50874000Y-83500000D01*
X61193502Y-83500000D01*
X61260541Y-83519685D01*
G37*
%TD.AperFunction*%
%TD*%
%TA.AperFunction,Conductor*%
%TO.N,Earth*%
G36*
X61209191Y-132768907D02*
G01*
X61245155Y-132818407D01*
X61250000Y-132849000D01*
X61250000Y-141010000D01*
X61231093Y-141068191D01*
X61181593Y-141104155D01*
X61151000Y-141109000D01*
X60240001Y-141109000D01*
X60225088Y-141104154D01*
X60209410Y-141104155D01*
X60196724Y-141094938D01*
X60181810Y-141090093D01*
X60172593Y-141077407D01*
X60159909Y-141068192D01*
X60155063Y-141053280D01*
X60145846Y-141040593D01*
X60141001Y-141010001D01*
X60141001Y-141010000D01*
X60141001Y-140948524D01*
X60141000Y-140948520D01*
X60141000Y-136972373D01*
X60159907Y-136914182D01*
X60169990Y-136902375D01*
X60215316Y-136857050D01*
X60291872Y-136724451D01*
X60331500Y-136576556D01*
X60331500Y-136423444D01*
X60291872Y-136275549D01*
X60279425Y-136253991D01*
X60215317Y-136142952D01*
X60215316Y-136142950D01*
X60107050Y-136034684D01*
X60033737Y-135992357D01*
X59974453Y-135958129D01*
X59974452Y-135958128D01*
X59974451Y-135958128D01*
X59826556Y-135918500D01*
X59673444Y-135918500D01*
X59525549Y-135958128D01*
X59525548Y-135958128D01*
X59525546Y-135958129D01*
X59525545Y-135958129D01*
X59392952Y-136034682D01*
X59284682Y-136142952D01*
X59208129Y-136275545D01*
X59208129Y-136275546D01*
X59208128Y-136275548D01*
X59208128Y-136275549D01*
X59168500Y-136423444D01*
X59168500Y-136576556D01*
X59203494Y-136707155D01*
X59208129Y-136724453D01*
X59208129Y-136724454D01*
X59279238Y-136847617D01*
X59284684Y-136857050D01*
X59330005Y-136902371D01*
X59357781Y-136956886D01*
X59359000Y-136972373D01*
X59359000Y-140797034D01*
X59356531Y-140804631D01*
X59357781Y-140812521D01*
X59347256Y-140833176D01*
X59340093Y-140855225D01*
X59330004Y-140867038D01*
X59307538Y-140889504D01*
X59253021Y-140917281D01*
X59237534Y-140918500D01*
X59173444Y-140918500D01*
X59025549Y-140958128D01*
X59025548Y-140958128D01*
X59025546Y-140958129D01*
X59025545Y-140958129D01*
X58892952Y-141034682D01*
X58784682Y-141142952D01*
X58708129Y-141275545D01*
X58708129Y-141275546D01*
X58708128Y-141275548D01*
X58708128Y-141275549D01*
X58668500Y-141423444D01*
X58668500Y-141576556D01*
X58708128Y-141724451D01*
X58708129Y-141724453D01*
X58708129Y-141724454D01*
X58763765Y-141820818D01*
X58784684Y-141857050D01*
X58892950Y-141965316D01*
X59025549Y-142041872D01*
X59173444Y-142081500D01*
X59173446Y-142081500D01*
X59326554Y-142081500D01*
X59326556Y-142081500D01*
X59474451Y-142041872D01*
X59607050Y-141965316D01*
X59639243Y-141933123D01*
X59652371Y-141919996D01*
X59706888Y-141892219D01*
X59722374Y-141891000D01*
X60859802Y-141891000D01*
X60917993Y-141909907D01*
X60953957Y-141959407D01*
X60955428Y-141964374D01*
X60958128Y-141974452D01*
X60958129Y-141974453D01*
X61026477Y-142092836D01*
X61034684Y-142107050D01*
X61142950Y-142215316D01*
X61200500Y-142248542D01*
X61241441Y-142294010D01*
X61250000Y-142334278D01*
X61250000Y-143078666D01*
X61248992Y-143092756D01*
X61244500Y-143123995D01*
X61244500Y-146748497D01*
X61249433Y-146794382D01*
X61250000Y-146804964D01*
X61250000Y-147073500D01*
X61231093Y-147131691D01*
X61181593Y-147167655D01*
X61151000Y-147172500D01*
X59926663Y-147172500D01*
X59868472Y-147153593D01*
X59856659Y-147143504D01*
X57860496Y-145147341D01*
X57832719Y-145092824D01*
X57831500Y-145077337D01*
X57831500Y-144923445D01*
X57831500Y-144923444D01*
X57791872Y-144775549D01*
X57715316Y-144642950D01*
X57607050Y-144534684D01*
X57579067Y-144518528D01*
X57555179Y-144504736D01*
X57514238Y-144459267D01*
X57507842Y-144398417D01*
X57538435Y-144345429D01*
X57594331Y-144320542D01*
X57604679Y-144320000D01*
X57773490Y-144320000D01*
X57773493Y-144319999D01*
X57966688Y-144281570D01*
X57966690Y-144281570D01*
X58148673Y-144206191D01*
X58148685Y-144206185D01*
X58312462Y-144096750D01*
X58312466Y-144096747D01*
X58451747Y-143957466D01*
X58451750Y-143957462D01*
X58561185Y-143793685D01*
X58561191Y-143793673D01*
X58636568Y-143611695D01*
X58636571Y-143611684D01*
X58644863Y-143570000D01*
X57841988Y-143570000D01*
X57859205Y-143560060D01*
X57915060Y-143504205D01*
X57954556Y-143435796D01*
X57975000Y-143359496D01*
X57975000Y-143280504D01*
X57954556Y-143204204D01*
X57915060Y-143135795D01*
X57859205Y-143079940D01*
X57841988Y-143070000D01*
X58644862Y-143070000D01*
X58636571Y-143028315D01*
X58636568Y-143028304D01*
X58561191Y-142846326D01*
X58561185Y-142846314D01*
X58451750Y-142682537D01*
X58451747Y-142682533D01*
X58312466Y-142543252D01*
X58312462Y-142543249D01*
X58148685Y-142433814D01*
X58148673Y-142433808D01*
X57966689Y-142358429D01*
X57773493Y-142320000D01*
X57375001Y-142320000D01*
X57375000Y-142320001D01*
X57375000Y-143020000D01*
X56875000Y-143020000D01*
X56875000Y-142398068D01*
X56893907Y-142339877D01*
X56905769Y-142326336D01*
X56914299Y-142318221D01*
X56927665Y-142310505D01*
X57025505Y-142212665D01*
X57094688Y-142092836D01*
X57130500Y-141959183D01*
X57130500Y-141820817D01*
X57094688Y-141687164D01*
X57025505Y-141567335D01*
X56927665Y-141469495D01*
X56807836Y-141400312D01*
X56674183Y-141364500D01*
X56535817Y-141364500D01*
X56402164Y-141400312D01*
X56282335Y-141469495D01*
X56184495Y-141567335D01*
X56115312Y-141687164D01*
X56079500Y-141820817D01*
X56079500Y-141959183D01*
X56115312Y-142092836D01*
X56184495Y-142212665D01*
X56211741Y-142239911D01*
X56239517Y-142294426D01*
X56229946Y-142354858D01*
X56186681Y-142398123D01*
X56179623Y-142401377D01*
X56101320Y-142433811D01*
X56101314Y-142433814D01*
X55937537Y-142543249D01*
X55937533Y-142543252D01*
X55798252Y-142682533D01*
X55798249Y-142682537D01*
X55688814Y-142846314D01*
X55688808Y-142846326D01*
X55613431Y-143028304D01*
X55613428Y-143028315D01*
X55605137Y-143070000D01*
X56408012Y-143070000D01*
X56390795Y-143079940D01*
X56334940Y-143135795D01*
X56295444Y-143204204D01*
X56275000Y-143280504D01*
X56275000Y-143359496D01*
X56295444Y-143435796D01*
X56334940Y-143504205D01*
X56390795Y-143560060D01*
X56408012Y-143570000D01*
X55605137Y-143570000D01*
X55613428Y-143611684D01*
X55613431Y-143611695D01*
X55688808Y-143793673D01*
X55688814Y-143793685D01*
X55798249Y-143957462D01*
X55798252Y-143957466D01*
X55937533Y-144096747D01*
X55937537Y-144096750D01*
X56101314Y-144206185D01*
X56101326Y-144206191D01*
X56283310Y-144281570D01*
X56476506Y-144319999D01*
X56476510Y-144320000D01*
X56895321Y-144320000D01*
X56953512Y-144338907D01*
X56989476Y-144388407D01*
X56989476Y-144449593D01*
X56953512Y-144499093D01*
X56944821Y-144504736D01*
X56892952Y-144534682D01*
X56784682Y-144642952D01*
X56708129Y-144775545D01*
X56708129Y-144775546D01*
X56708128Y-144775548D01*
X56708128Y-144775549D01*
X56668500Y-144923444D01*
X56668500Y-145076556D01*
X56686665Y-145144348D01*
X56708129Y-145224453D01*
X56708129Y-145224454D01*
X56746773Y-145291387D01*
X56784684Y-145357050D01*
X56857632Y-145429998D01*
X56885408Y-145484513D01*
X56875837Y-145544945D01*
X56857633Y-145570000D01*
X56819071Y-145608563D01*
X56784682Y-145642952D01*
X56708129Y-145775545D01*
X56708129Y-145775546D01*
X56708128Y-145775548D01*
X56708128Y-145775549D01*
X56668500Y-145923444D01*
X56668500Y-146076556D01*
X56708128Y-146224451D01*
X56708129Y-146224453D01*
X56708129Y-146224454D01*
X56784682Y-146357047D01*
X56784684Y-146357050D01*
X56892950Y-146465316D01*
X57025549Y-146541872D01*
X57173444Y-146581500D01*
X57173446Y-146581500D01*
X57327337Y-146581500D01*
X57385528Y-146600407D01*
X57397341Y-146610496D01*
X58987935Y-148201090D01*
X58987934Y-148201090D01*
X59036677Y-148249832D01*
X59048910Y-148262065D01*
X59123590Y-148305181D01*
X59123592Y-148305181D01*
X59123593Y-148305182D01*
X59158368Y-148314500D01*
X59206881Y-148327499D01*
X59206883Y-148327500D01*
X59206884Y-148327500D01*
X60706884Y-148327500D01*
X61151000Y-148327500D01*
X61209191Y-148346407D01*
X61245155Y-148395907D01*
X61250000Y-148426500D01*
X61250000Y-148706158D01*
X61248993Y-148720244D01*
X61244500Y-148751499D01*
X61244500Y-152876001D01*
X61246050Y-152890420D01*
X61233470Y-152950298D01*
X61188097Y-152991346D01*
X61147617Y-153000000D01*
X51584274Y-153000000D01*
X51536386Y-152987647D01*
X51398450Y-152911412D01*
X51389049Y-152905505D01*
X51164948Y-152746496D01*
X51156269Y-152739575D01*
X51054971Y-152649051D01*
X50951368Y-152556466D01*
X50943533Y-152548631D01*
X50814836Y-152404618D01*
X50775181Y-152360243D01*
X50750504Y-152304254D01*
X50750000Y-152294275D01*
X50750000Y-148881987D01*
X52699500Y-148881987D01*
X52699500Y-149118012D01*
X52730306Y-149352006D01*
X52730306Y-149352011D01*
X52791393Y-149579992D01*
X52881713Y-149798044D01*
X52999729Y-150002453D01*
X53143402Y-150189692D01*
X53143404Y-150189694D01*
X53143408Y-150189699D01*
X53310301Y-150356592D01*
X53310305Y-150356595D01*
X53310307Y-150356597D01*
X53497546Y-150500270D01*
X53497550Y-150500273D01*
X53701951Y-150618284D01*
X53701952Y-150618284D01*
X53701955Y-150618286D01*
X53920007Y-150708606D01*
X54147986Y-150769693D01*
X54381989Y-150800500D01*
X54381990Y-150800500D01*
X54618010Y-150800500D01*
X54618011Y-150800500D01*
X54852014Y-150769693D01*
X55079993Y-150708606D01*
X55298049Y-150618284D01*
X55502450Y-150500273D01*
X55689699Y-150356592D01*
X55856592Y-150189699D01*
X56000273Y-150002450D01*
X56118284Y-149798049D01*
X56208606Y-149579993D01*
X56269693Y-149352014D01*
X56300500Y-149118011D01*
X56300500Y-148881989D01*
X56269693Y-148647986D01*
X56208606Y-148420007D01*
X56178120Y-148346407D01*
X56118286Y-148201955D01*
X56074670Y-148126410D01*
X56000273Y-147997550D01*
X55941486Y-147920937D01*
X55856597Y-147810307D01*
X55856595Y-147810305D01*
X55856592Y-147810301D01*
X55689699Y-147643408D01*
X55689694Y-147643404D01*
X55689692Y-147643402D01*
X55502453Y-147499729D01*
X55298044Y-147381713D01*
X55079992Y-147291393D01*
X54924277Y-147249670D01*
X54852014Y-147230307D01*
X54852011Y-147230306D01*
X54852009Y-147230306D01*
X54618012Y-147199500D01*
X54618011Y-147199500D01*
X54381989Y-147199500D01*
X54381987Y-147199500D01*
X54147993Y-147230306D01*
X54147988Y-147230306D01*
X53920007Y-147291393D01*
X53701955Y-147381713D01*
X53497546Y-147499729D01*
X53310307Y-147643402D01*
X53143402Y-147810307D01*
X52999729Y-147997546D01*
X52881713Y-148201955D01*
X52791393Y-148420007D01*
X52730306Y-148647988D01*
X52730306Y-148647993D01*
X52699500Y-148881987D01*
X50750000Y-148881987D01*
X50750000Y-143070000D01*
X51555137Y-143070000D01*
X52358012Y-143070000D01*
X52340795Y-143079940D01*
X52284940Y-143135795D01*
X52245444Y-143204204D01*
X52225000Y-143280504D01*
X52225000Y-143359496D01*
X52245444Y-143435796D01*
X52284940Y-143504205D01*
X52340795Y-143560060D01*
X52358012Y-143570000D01*
X51555137Y-143570000D01*
X51563428Y-143611684D01*
X51563431Y-143611695D01*
X51638808Y-143793673D01*
X51638814Y-143793685D01*
X51748249Y-143957462D01*
X51748252Y-143957466D01*
X51887533Y-144096747D01*
X51887537Y-144096750D01*
X52051314Y-144206185D01*
X52051326Y-144206191D01*
X52233310Y-144281570D01*
X52426506Y-144319999D01*
X52426510Y-144320000D01*
X52674999Y-144320000D01*
X52675000Y-144319999D01*
X52675000Y-143620000D01*
X53175000Y-143620000D01*
X53175000Y-144319999D01*
X53175001Y-144320000D01*
X53423490Y-144320000D01*
X53423493Y-144319999D01*
X53616688Y-144281570D01*
X53616690Y-144281570D01*
X53798673Y-144206191D01*
X53798685Y-144206185D01*
X53962462Y-144096750D01*
X53962466Y-144096747D01*
X54101747Y-143957466D01*
X54101750Y-143957462D01*
X54211185Y-143793685D01*
X54211191Y-143793673D01*
X54286568Y-143611695D01*
X54286571Y-143611684D01*
X54294863Y-143570000D01*
X53491988Y-143570000D01*
X53509205Y-143560060D01*
X53565060Y-143504205D01*
X53604556Y-143435796D01*
X53625000Y-143359496D01*
X53625000Y-143280504D01*
X53604556Y-143204204D01*
X53565060Y-143135795D01*
X53509205Y-143079940D01*
X53491988Y-143070000D01*
X54294862Y-143070000D01*
X54286571Y-143028315D01*
X54286568Y-143028304D01*
X54211191Y-142846326D01*
X54211185Y-142846314D01*
X54101750Y-142682537D01*
X54101747Y-142682533D01*
X53962466Y-142543252D01*
X53962462Y-142543249D01*
X53798685Y-142433814D01*
X53798673Y-142433808D01*
X53616689Y-142358429D01*
X53423493Y-142320000D01*
X53175001Y-142320000D01*
X53175000Y-142320001D01*
X53175000Y-143020000D01*
X52675000Y-143020000D01*
X52675000Y-142320001D01*
X52674999Y-142320000D01*
X52426506Y-142320000D01*
X52233311Y-142358429D01*
X52233309Y-142358429D01*
X52051326Y-142433808D01*
X52051314Y-142433814D01*
X51887537Y-142543249D01*
X51887533Y-142543252D01*
X51748252Y-142682533D01*
X51748249Y-142682537D01*
X51638814Y-142846314D01*
X51638808Y-142846326D01*
X51563431Y-143028304D01*
X51563428Y-143028315D01*
X51555137Y-143070000D01*
X50750000Y-143070000D01*
X50750000Y-138673444D01*
X55918500Y-138673444D01*
X55918500Y-138826556D01*
X55958128Y-138974451D01*
X55958129Y-138974453D01*
X55958129Y-138974454D01*
X55999032Y-139045299D01*
X56034684Y-139107050D01*
X56142950Y-139215316D01*
X56161098Y-139225794D01*
X56202040Y-139271260D01*
X56210600Y-139311530D01*
X56210600Y-139688468D01*
X56191693Y-139746659D01*
X56161101Y-139774204D01*
X56142952Y-139784682D01*
X56034682Y-139892952D01*
X55958129Y-140025545D01*
X55958129Y-140025546D01*
X55958128Y-140025548D01*
X55958128Y-140025549D01*
X55918500Y-140173444D01*
X55918500Y-140326556D01*
X55958128Y-140474451D01*
X55958129Y-140474453D01*
X55958129Y-140474454D01*
X56034682Y-140607047D01*
X56034684Y-140607050D01*
X56142950Y-140715316D01*
X56275549Y-140791872D01*
X56423444Y-140831500D01*
X56423446Y-140831500D01*
X56576554Y-140831500D01*
X56576556Y-140831500D01*
X56724451Y-140791872D01*
X56857050Y-140715316D01*
X56965316Y-140607050D01*
X57041872Y-140474451D01*
X57081500Y-140326556D01*
X57081500Y-140173444D01*
X57041872Y-140025549D01*
X57040412Y-140023021D01*
X56965317Y-139892952D01*
X56965316Y-139892950D01*
X56857050Y-139784684D01*
X56857047Y-139784682D01*
X56838899Y-139774204D01*
X56797959Y-139728734D01*
X56789400Y-139688468D01*
X56789400Y-139311530D01*
X56808307Y-139253339D01*
X56838899Y-139225794D01*
X56857050Y-139215316D01*
X56965316Y-139107050D01*
X57041872Y-138974451D01*
X57081500Y-138826556D01*
X57081500Y-138673444D01*
X57041872Y-138525549D01*
X56965316Y-138392950D01*
X56857050Y-138284684D01*
X56776459Y-138238155D01*
X56724453Y-138208129D01*
X56724452Y-138208128D01*
X56724451Y-138208128D01*
X56576556Y-138168500D01*
X56423444Y-138168500D01*
X56275549Y-138208128D01*
X56275548Y-138208128D01*
X56275546Y-138208129D01*
X56275545Y-138208129D01*
X56142952Y-138284682D01*
X56034682Y-138392952D01*
X55958129Y-138525545D01*
X55958129Y-138525546D01*
X55958128Y-138525548D01*
X55958128Y-138525549D01*
X55918500Y-138673444D01*
X50750000Y-138673444D01*
X50750000Y-134430000D01*
X51555137Y-134430000D01*
X52358012Y-134430000D01*
X52340795Y-134439940D01*
X52284940Y-134495795D01*
X52245444Y-134564204D01*
X52225000Y-134640504D01*
X52225000Y-134719496D01*
X52245444Y-134795796D01*
X52284940Y-134864205D01*
X52340795Y-134920060D01*
X52358012Y-134930000D01*
X51555137Y-134930000D01*
X51563428Y-134971684D01*
X51563431Y-134971695D01*
X51638808Y-135153673D01*
X51638814Y-135153685D01*
X51748249Y-135317462D01*
X51748252Y-135317466D01*
X51887533Y-135456747D01*
X51887537Y-135456750D01*
X52051314Y-135566185D01*
X52051326Y-135566191D01*
X52233310Y-135641570D01*
X52426506Y-135679999D01*
X52426510Y-135680000D01*
X52674999Y-135680000D01*
X52675000Y-135679999D01*
X52675000Y-134980000D01*
X53175000Y-134980000D01*
X53175000Y-135679999D01*
X53175001Y-135680000D01*
X53423490Y-135680000D01*
X53423493Y-135679999D01*
X53616688Y-135641570D01*
X53616690Y-135641570D01*
X53798673Y-135566191D01*
X53798685Y-135566185D01*
X53962462Y-135456750D01*
X53962466Y-135456747D01*
X54101747Y-135317466D01*
X54101750Y-135317462D01*
X54211185Y-135153685D01*
X54211191Y-135153673D01*
X54286568Y-134971695D01*
X54286571Y-134971684D01*
X54294863Y-134930000D01*
X53491988Y-134930000D01*
X53509205Y-134920060D01*
X53565060Y-134864205D01*
X53604556Y-134795796D01*
X53625000Y-134719496D01*
X53625000Y-134640504D01*
X53604556Y-134564204D01*
X53565060Y-134495795D01*
X53509205Y-134439940D01*
X53491988Y-134430000D01*
X54294862Y-134430000D01*
X55605137Y-134430000D01*
X56408012Y-134430000D01*
X56390795Y-134439940D01*
X56334940Y-134495795D01*
X56295444Y-134564204D01*
X56275000Y-134640504D01*
X56275000Y-134719496D01*
X56295444Y-134795796D01*
X56334940Y-134864205D01*
X56390795Y-134920060D01*
X56408012Y-134930000D01*
X55605137Y-134930000D01*
X55613428Y-134971684D01*
X55613431Y-134971695D01*
X55688808Y-135153673D01*
X55688814Y-135153685D01*
X55798249Y-135317462D01*
X55798252Y-135317466D01*
X55937533Y-135456747D01*
X55937537Y-135456750D01*
X56101314Y-135566185D01*
X56101323Y-135566189D01*
X56179622Y-135598622D01*
X56226147Y-135638359D01*
X56240431Y-135697853D01*
X56217016Y-135754381D01*
X56211741Y-135760088D01*
X56184497Y-135787332D01*
X56184495Y-135787334D01*
X56184495Y-135787335D01*
X56115312Y-135907164D01*
X56079500Y-136040817D01*
X56079500Y-136179183D01*
X56115312Y-136312836D01*
X56184495Y-136432665D01*
X56282335Y-136530505D01*
X56402164Y-136599688D01*
X56535817Y-136635500D01*
X56535819Y-136635500D01*
X56674181Y-136635500D01*
X56674183Y-136635500D01*
X56807836Y-136599688D01*
X56927665Y-136530505D01*
X57025505Y-136432665D01*
X57094688Y-136312836D01*
X57130500Y-136179183D01*
X57130500Y-136040817D01*
X57094688Y-135907164D01*
X57025505Y-135787335D01*
X56992551Y-135754381D01*
X56927664Y-135689493D01*
X56924493Y-135687662D01*
X56922740Y-135685714D01*
X56922520Y-135685546D01*
X56922551Y-135685505D01*
X56883556Y-135642189D01*
X56875000Y-135601930D01*
X56875000Y-134980000D01*
X57375000Y-134980000D01*
X57375000Y-135679999D01*
X57375001Y-135680000D01*
X57773490Y-135680000D01*
X57773493Y-135679999D01*
X57966688Y-135641570D01*
X57966690Y-135641570D01*
X58148673Y-135566191D01*
X58148685Y-135566185D01*
X58312462Y-135456750D01*
X58312466Y-135456747D01*
X58451747Y-135317466D01*
X58451750Y-135317462D01*
X58561185Y-135153685D01*
X58561191Y-135153673D01*
X58636568Y-134971695D01*
X58636571Y-134971684D01*
X58644863Y-134930000D01*
X57841988Y-134930000D01*
X57859205Y-134920060D01*
X57915060Y-134864205D01*
X57954556Y-134795796D01*
X57975000Y-134719496D01*
X57975000Y-134640504D01*
X57954556Y-134564204D01*
X57915060Y-134495795D01*
X57859205Y-134439940D01*
X57841988Y-134430000D01*
X58644862Y-134430000D01*
X58636571Y-134388315D01*
X58636568Y-134388304D01*
X58561191Y-134206326D01*
X58561185Y-134206314D01*
X58451750Y-134042537D01*
X58451747Y-134042533D01*
X58312466Y-133903252D01*
X58312462Y-133903249D01*
X58148685Y-133793814D01*
X58148673Y-133793808D01*
X57966689Y-133718429D01*
X57773493Y-133680000D01*
X57375001Y-133680000D01*
X57375000Y-133680001D01*
X57375000Y-134380000D01*
X56875000Y-134380000D01*
X56875000Y-133680001D01*
X56874999Y-133680000D01*
X56476506Y-133680000D01*
X56283311Y-133718429D01*
X56283309Y-133718429D01*
X56101326Y-133793808D01*
X56101314Y-133793814D01*
X55937537Y-133903249D01*
X55937533Y-133903252D01*
X55798252Y-134042533D01*
X55798249Y-134042537D01*
X55688814Y-134206314D01*
X55688808Y-134206326D01*
X55613431Y-134388304D01*
X55613428Y-134388315D01*
X55605137Y-134430000D01*
X54294862Y-134430000D01*
X54286571Y-134388315D01*
X54286568Y-134388304D01*
X54211191Y-134206326D01*
X54211185Y-134206314D01*
X54101750Y-134042537D01*
X54101747Y-134042533D01*
X53962466Y-133903252D01*
X53962462Y-133903249D01*
X53798685Y-133793814D01*
X53798673Y-133793808D01*
X53616689Y-133718429D01*
X53423493Y-133680000D01*
X53175001Y-133680000D01*
X53175000Y-133680001D01*
X53175000Y-134380000D01*
X52675000Y-134380000D01*
X52675000Y-133680001D01*
X52674999Y-133680000D01*
X52426506Y-133680000D01*
X52233311Y-133718429D01*
X52233309Y-133718429D01*
X52051326Y-133793808D01*
X52051314Y-133793814D01*
X51887537Y-133903249D01*
X51887533Y-133903252D01*
X51748252Y-134042533D01*
X51748249Y-134042537D01*
X51638814Y-134206314D01*
X51638808Y-134206326D01*
X51563431Y-134388304D01*
X51563428Y-134388315D01*
X51555137Y-134430000D01*
X50750000Y-134430000D01*
X50750000Y-132849000D01*
X50768907Y-132790809D01*
X50818407Y-132754845D01*
X50849000Y-132750000D01*
X61151000Y-132750000D01*
X61209191Y-132768907D01*
G37*
%TD.AperFunction*%
%TD*%
%TA.AperFunction,Conductor*%
%TO.N,Net-(J4-Pin_1)*%
G36*
X63780382Y-125519242D02*
G01*
X71192347Y-130213486D01*
X71238450Y-130265985D01*
X71250000Y-130318243D01*
X71250000Y-140126000D01*
X71230315Y-140193039D01*
X71177511Y-140238794D01*
X71126000Y-140250000D01*
X64124000Y-140250000D01*
X64056961Y-140230315D01*
X64011206Y-140177511D01*
X64000000Y-140126000D01*
X64000000Y-130250000D01*
X50874000Y-130250000D01*
X50806961Y-130230315D01*
X50761206Y-130177511D01*
X50750000Y-130126000D01*
X50750000Y-125624000D01*
X50769685Y-125556961D01*
X50822489Y-125511206D01*
X50874000Y-125500000D01*
X63714036Y-125500000D01*
X63780382Y-125519242D01*
G37*
%TD.AperFunction*%
%TD*%
%TA.AperFunction,Conductor*%
%TO.N,Net-(F2-Pad2)*%
G36*
X60693039Y-70519685D02*
G01*
X60738794Y-70572489D01*
X60750000Y-70624000D01*
X60750000Y-71750000D01*
X65250000Y-76250000D01*
X70750117Y-76250000D01*
X70750855Y-76250109D01*
X70751224Y-76250005D01*
X70786112Y-76255339D01*
X70794271Y-76257814D01*
X70816729Y-76267117D01*
X70933406Y-76329482D01*
X70953616Y-76342986D01*
X71021475Y-76398676D01*
X71055891Y-76426920D01*
X71073079Y-76444108D01*
X71157012Y-76546381D01*
X71170517Y-76566593D01*
X71232882Y-76683270D01*
X71242181Y-76705714D01*
X71244657Y-76713873D01*
X71250000Y-76749882D01*
X71250000Y-79626000D01*
X71230315Y-79693039D01*
X71177511Y-79738794D01*
X71126000Y-79750000D01*
X65051362Y-79750000D01*
X64984323Y-79730315D01*
X64963681Y-79713681D01*
X58036319Y-72786319D01*
X58002834Y-72724996D01*
X58000000Y-72698638D01*
X58000000Y-70624000D01*
X58019685Y-70556961D01*
X58072489Y-70511206D01*
X58124000Y-70500000D01*
X60626000Y-70500000D01*
X60693039Y-70519685D01*
G37*
%TD.AperFunction*%
%TD*%
%TA.AperFunction,Conductor*%
%TO.N,Net-(F3-Pad2)*%
G36*
X60693039Y-112519685D02*
G01*
X60738794Y-112572489D01*
X60750000Y-112624000D01*
X60750000Y-113750000D01*
X65250000Y-118250000D01*
X71060301Y-118250000D01*
X71061969Y-118250489D01*
X71063651Y-118250045D01*
X71095373Y-118260298D01*
X71127340Y-118269685D01*
X71129007Y-118271169D01*
X71130134Y-118271534D01*
X71156171Y-118295356D01*
X71157032Y-118296405D01*
X71170517Y-118316593D01*
X71232882Y-118433270D01*
X71242181Y-118455714D01*
X71244657Y-118463873D01*
X71250000Y-118499882D01*
X71250000Y-121626000D01*
X71230315Y-121693039D01*
X71177511Y-121738794D01*
X71126000Y-121750000D01*
X65051362Y-121750000D01*
X64984323Y-121730315D01*
X64963681Y-121713681D01*
X58036319Y-114786319D01*
X58002834Y-114724996D01*
X58000000Y-114698638D01*
X58000000Y-112624000D01*
X58019685Y-112556961D01*
X58072489Y-112511206D01*
X58124000Y-112500000D01*
X60626000Y-112500000D01*
X60693039Y-112519685D01*
G37*
%TD.AperFunction*%
%TD*%
M02*
