%TF.GenerationSoftware,KiCad,Pcbnew,9.0.7*%
%TF.CreationDate,2026-02-15T14:56:54-08:00*%
%TF.ProjectId,main_board,6d61696e-5f62-46f6-9172-642e6b696361,rev?*%
%TF.SameCoordinates,Original*%
%TF.FileFunction,Soldermask,Top*%
%TF.FilePolarity,Negative*%
%FSLAX46Y46*%
G04 Gerber Fmt 4.6, Leading zero omitted, Abs format (unit mm)*
G04 Created by KiCad (PCBNEW 9.0.7) date 2026-02-15 14:56:54*
%MOMM*%
%LPD*%
G01*
G04 APERTURE LIST*
G04 Aperture macros list*
%AMRoundRect*
0 Rectangle with rounded corners*
0 $1 Rounding radius*
0 $2 $3 $4 $5 $6 $7 $8 $9 X,Y pos of 4 corners*
0 Add a 4 corners polygon primitive as box body*
4,1,4,$2,$3,$4,$5,$6,$7,$8,$9,$2,$3,0*
0 Add four circle primitives for the rounded corners*
1,1,$1+$1,$2,$3*
1,1,$1+$1,$4,$5*
1,1,$1+$1,$6,$7*
1,1,$1+$1,$8,$9*
0 Add four rect primitives between the rounded corners*
20,1,$1+$1,$2,$3,$4,$5,0*
20,1,$1+$1,$4,$5,$6,$7,0*
20,1,$1+$1,$6,$7,$8,$9,0*
20,1,$1+$1,$8,$9,$2,$3,0*%
%AMFreePoly0*
4,1,23,0.500000,-0.750000,0.000000,-0.750000,0.000000,-0.745722,-0.065263,-0.745722,-0.191342,-0.711940,-0.304381,-0.646677,-0.396677,-0.554381,-0.461940,-0.441342,-0.495722,-0.315263,-0.495722,-0.250000,-0.500000,-0.250000,-0.500000,0.250000,-0.495722,0.250000,-0.495722,0.315263,-0.461940,0.441342,-0.396677,0.554381,-0.304381,0.646677,-0.191342,0.711940,-0.065263,0.745722,0.000000,0.745722,
0.000000,0.750000,0.500000,0.750000,0.500000,-0.750000,0.500000,-0.750000,$1*%
%AMFreePoly1*
4,1,23,0.000000,0.745722,0.065263,0.745722,0.191342,0.711940,0.304381,0.646677,0.396677,0.554381,0.461940,0.441342,0.495722,0.315263,0.495722,0.250000,0.500000,0.250000,0.500000,-0.250000,0.495722,-0.250000,0.495722,-0.315263,0.461940,-0.441342,0.396677,-0.554381,0.304381,-0.646677,0.191342,-0.711940,0.065263,-0.745722,0.000000,-0.745722,0.000000,-0.750000,-0.500000,-0.750000,
-0.500000,0.750000,0.000000,0.750000,0.000000,0.745722,0.000000,0.745722,$1*%
%AMFreePoly2*
4,1,23,0.550000,-0.750000,0.000000,-0.750000,0.000000,-0.745722,-0.065263,-0.745722,-0.191342,-0.711940,-0.304381,-0.646677,-0.396677,-0.554381,-0.461940,-0.441342,-0.495722,-0.315263,-0.495722,-0.250000,-0.500000,-0.250000,-0.500000,0.250000,-0.495722,0.250000,-0.495722,0.315263,-0.461940,0.441342,-0.396677,0.554381,-0.304381,0.646677,-0.191342,0.711940,-0.065263,0.745722,0.000000,0.745722,
0.000000,0.750000,0.550000,0.750000,0.550000,-0.750000,0.550000,-0.750000,$1*%
%AMFreePoly3*
4,1,23,0.000000,0.745722,0.065263,0.745722,0.191342,0.711940,0.304381,0.646677,0.396677,0.554381,0.461940,0.441342,0.495722,0.315263,0.495722,0.250000,0.500000,0.250000,0.500000,-0.250000,0.495722,-0.250000,0.495722,-0.315263,0.461940,-0.441342,0.396677,-0.554381,0.304381,-0.646677,0.191342,-0.711940,0.065263,-0.745722,0.000000,-0.745722,0.000000,-0.750000,-0.550000,-0.750000,
-0.550000,0.750000,0.000000,0.750000,0.000000,0.745722,0.000000,0.745722,$1*%
G04 Aperture macros list end*
%ADD10R,2.000000X2.000000*%
%ADD11RoundRect,0.150000X0.150000X-0.587500X0.150000X0.587500X-0.150000X0.587500X-0.150000X-0.587500X0*%
%ADD12RoundRect,0.200000X0.200000X0.275000X-0.200000X0.275000X-0.200000X-0.275000X0.200000X-0.275000X0*%
%ADD13RoundRect,0.112500X0.112500X-0.187500X0.112500X0.187500X-0.112500X0.187500X-0.112500X-0.187500X0*%
%ADD14C,3.000000*%
%ADD15RoundRect,0.200000X-0.200000X-0.275000X0.200000X-0.275000X0.200000X0.275000X-0.200000X0.275000X0*%
%ADD16RoundRect,0.218750X-0.218750X-0.256250X0.218750X-0.256250X0.218750X0.256250X-0.218750X0.256250X0*%
%ADD17RoundRect,0.225000X-0.250000X0.225000X-0.250000X-0.225000X0.250000X-0.225000X0.250000X0.225000X0*%
%ADD18FreePoly0,180.000000*%
%ADD19FreePoly1,180.000000*%
%ADD20RoundRect,0.225000X0.250000X-0.225000X0.250000X0.225000X-0.250000X0.225000X-0.250000X-0.225000X0*%
%ADD21R,1.800000X1.000000*%
%ADD22RoundRect,0.150000X0.662500X0.150000X-0.662500X0.150000X-0.662500X-0.150000X0.662500X-0.150000X0*%
%ADD23RoundRect,0.150000X0.587500X0.150000X-0.587500X0.150000X-0.587500X-0.150000X0.587500X-0.150000X0*%
%ADD24FreePoly2,90.000000*%
%ADD25R,1.500000X1.000000*%
%ADD26FreePoly3,90.000000*%
%ADD27RoundRect,0.200000X-0.275000X0.200000X-0.275000X-0.200000X0.275000X-0.200000X0.275000X0.200000X0*%
%ADD28RoundRect,0.200000X0.275000X-0.200000X0.275000X0.200000X-0.275000X0.200000X-0.275000X-0.200000X0*%
%ADD29RoundRect,0.225000X0.225000X0.250000X-0.225000X0.250000X-0.225000X-0.250000X0.225000X-0.250000X0*%
%ADD30RoundRect,0.102000X0.700000X1.700000X-0.700000X1.700000X-0.700000X-1.700000X0.700000X-1.700000X0*%
%ADD31RoundRect,0.102000X1.150000X2.800000X-1.150000X2.800000X-1.150000X-2.800000X1.150000X-2.800000X0*%
%ADD32RoundRect,0.150000X0.150000X-0.825000X0.150000X0.825000X-0.150000X0.825000X-0.150000X-0.825000X0*%
%ADD33R,1.500000X0.900000*%
%ADD34R,0.900000X1.500000*%
%ADD35R,1.000000X1.000000*%
%ADD36RoundRect,0.059250X-0.177750X0.422750X-0.177750X-0.422750X0.177750X-0.422750X0.177750X0.422750X0*%
%ADD37RoundRect,0.102000X-0.650000X0.450000X-0.650000X-0.450000X0.650000X-0.450000X0.650000X0.450000X0*%
%ADD38RoundRect,0.250000X-0.650000X1.000000X-0.650000X-1.000000X0.650000X-1.000000X0.650000X1.000000X0*%
%ADD39RoundRect,0.250001X-0.462499X-0.624999X0.462499X-0.624999X0.462499X0.624999X-0.462499X0.624999X0*%
%ADD40R,3.000000X1.000000*%
%ADD41R,0.900000X1.400000*%
%ADD42RoundRect,0.150000X-0.512500X-0.150000X0.512500X-0.150000X0.512500X0.150000X-0.512500X0.150000X0*%
%ADD43R,0.750000X1.000000*%
%ADD44R,1.240000X0.600000*%
%ADD45R,1.240000X0.300000*%
%ADD46O,2.100000X1.000000*%
%ADD47O,1.800000X1.000000*%
%ADD48RoundRect,0.225000X-0.225000X-0.250000X0.225000X-0.250000X0.225000X0.250000X-0.225000X0.250000X0*%
%ADD49RoundRect,0.150000X-0.825000X-0.150000X0.825000X-0.150000X0.825000X0.150000X-0.825000X0.150000X0*%
%ADD50RoundRect,0.218750X-0.256250X0.218750X-0.256250X-0.218750X0.256250X-0.218750X0.256250X0.218750X0*%
%ADD51RoundRect,0.062500X-0.062500X0.375000X-0.062500X-0.375000X0.062500X-0.375000X0.062500X0.375000X0*%
%ADD52RoundRect,0.062500X-0.375000X0.062500X-0.375000X-0.062500X0.375000X-0.062500X0.375000X0.062500X0*%
%ADD53R,1.600000X1.600000*%
%ADD54R,3.510000X2.540000*%
%ADD55RoundRect,0.250000X0.650000X-1.000000X0.650000X1.000000X-0.650000X1.000000X-0.650000X-1.000000X0*%
%ADD56RoundRect,0.112500X0.187500X0.112500X-0.187500X0.112500X-0.187500X-0.112500X0.187500X-0.112500X0*%
%ADD57RoundRect,0.150000X0.825000X0.150000X-0.825000X0.150000X-0.825000X-0.150000X0.825000X-0.150000X0*%
%ADD58RoundRect,0.150000X-0.150000X0.512500X-0.150000X-0.512500X0.150000X-0.512500X0.150000X0.512500X0*%
%ADD59RoundRect,0.375000X-0.625000X-0.375000X0.625000X-0.375000X0.625000X0.375000X-0.625000X0.375000X0*%
%ADD60RoundRect,0.500000X-0.500000X-1.400000X0.500000X-1.400000X0.500000X1.400000X-0.500000X1.400000X0*%
%ADD61RoundRect,0.250000X1.000000X0.650000X-1.000000X0.650000X-1.000000X-0.650000X1.000000X-0.650000X0*%
%ADD62RoundRect,0.550000X0.550000X-0.550000X0.550000X0.550000X-0.550000X0.550000X-0.550000X-0.550000X0*%
%ADD63C,2.200000*%
%ADD64C,2.000000*%
%ADD65C,1.700000*%
%ADD66RoundRect,1.375000X-0.000010X-1.125000X0.000010X-1.125000X0.000010X1.125000X-0.000010X1.125000X0*%
%ADD67C,1.608074*%
G04 APERTURE END LIST*
%TO.C,JP4*%
G36*
X133650000Y-113450000D02*
G01*
X133350000Y-113450000D01*
X133350000Y-111950000D01*
X133650000Y-111950000D01*
X133650000Y-113450000D01*
G37*
%TO.C,JP2*%
G36*
X115250000Y-113750000D02*
G01*
X116750000Y-113750000D01*
X116750000Y-112250000D01*
X115250000Y-112250000D01*
X115250000Y-113750000D01*
G37*
%TO.C,JP3*%
G36*
X133650000Y-116200000D02*
G01*
X133350000Y-116200000D01*
X133350000Y-114700000D01*
X133650000Y-114700000D01*
X133650000Y-116200000D01*
G37*
%TO.C,JP1*%
G36*
X115250000Y-118500000D02*
G01*
X116750000Y-118500000D01*
X116750000Y-117000000D01*
X115250000Y-117000000D01*
X115250000Y-118500000D01*
G37*
%TD*%
D10*
%TO.C,TP4*%
X109250000Y-122000000D03*
%TD*%
D11*
%TO.C,Q1*%
X131300000Y-121875000D03*
X133200000Y-121875000D03*
X132250000Y-120000000D03*
%TD*%
D12*
%TO.C,R21*%
X91325000Y-115750000D03*
X89675000Y-115750000D03*
%TD*%
D13*
%TO.C,D8*%
X93250000Y-76050000D03*
X93250000Y-73950000D03*
%TD*%
D12*
%TO.C,R22*%
X91325000Y-120750000D03*
X89675000Y-120750000D03*
%TD*%
D14*
%TO.C,TP8*%
X133750000Y-96250000D03*
%TD*%
D12*
%TO.C,R6*%
X123325000Y-142250000D03*
X121675000Y-142250000D03*
%TD*%
D15*
%TO.C,R9*%
X126925000Y-110700000D03*
X128575000Y-110700000D03*
%TD*%
D16*
%TO.C,FB2*%
X62212500Y-142750000D03*
X63787500Y-142750000D03*
%TD*%
D17*
%TO.C,C16*%
X87250000Y-73475000D03*
X87250000Y-75025000D03*
%TD*%
D10*
%TO.C,TP3*%
X114750000Y-140500000D03*
%TD*%
D15*
%TO.C,R8*%
X126925000Y-112450000D03*
X128575000Y-112450000D03*
%TD*%
D12*
%TO.C,R7*%
X67575000Y-147500000D03*
X65925000Y-147500000D03*
%TD*%
D18*
%TO.C,JP4*%
X134150000Y-112700000D03*
D19*
X132850000Y-112700000D03*
%TD*%
D20*
%TO.C,C4*%
X115000000Y-145775000D03*
X115000000Y-144225000D03*
%TD*%
D12*
%TO.C,R4*%
X67575000Y-149500000D03*
X65925000Y-149500000D03*
%TD*%
D21*
%TO.C,Y1*%
X118025000Y-96655000D03*
X118025000Y-94155000D03*
%TD*%
D22*
%TO.C,U9*%
X85937500Y-88135000D03*
X85937500Y-86865000D03*
X79562500Y-86865000D03*
X79562500Y-88135000D03*
%TD*%
D23*
%TO.C,Q2*%
X77437500Y-75450000D03*
X77437500Y-73550000D03*
X75562500Y-74500000D03*
%TD*%
D10*
%TO.C,TP5*%
X105500000Y-122000000D03*
%TD*%
D20*
%TO.C,C1*%
X124000000Y-145775000D03*
X124000000Y-144225000D03*
%TD*%
%TO.C,C15*%
X85000000Y-69275000D03*
X85000000Y-67725000D03*
%TD*%
D24*
%TO.C,JP2*%
X116000000Y-114300000D03*
D25*
X116000000Y-113000000D03*
D26*
X116000000Y-111700000D03*
%TD*%
D13*
%TO.C,D10*%
X90750000Y-76050000D03*
X90750000Y-73950000D03*
%TD*%
D27*
%TO.C,R17*%
X105750000Y-60425000D03*
X105750000Y-62075000D03*
%TD*%
D15*
%TO.C,R2*%
X126925000Y-116500000D03*
X128575000Y-116500000D03*
%TD*%
D23*
%TO.C,Q5*%
X77187500Y-122200000D03*
X77187500Y-120300000D03*
X75312500Y-121250000D03*
%TD*%
D15*
%TO.C,R20*%
X128700000Y-94405000D03*
X130350000Y-94405000D03*
%TD*%
D28*
%TO.C,R3*%
X121000000Y-145825000D03*
X121000000Y-144175000D03*
%TD*%
D29*
%TO.C,C12*%
X123775000Y-135500000D03*
X122225000Y-135500000D03*
%TD*%
D20*
%TO.C,C8*%
X120750000Y-121025000D03*
X120750000Y-119475000D03*
%TD*%
D10*
%TO.C,TP9*%
X140250000Y-116500000D03*
%TD*%
D30*
%TO.C,J5*%
X95750000Y-70712500D03*
X93250000Y-70712500D03*
X90750000Y-70712500D03*
D31*
X98400000Y-64112500D03*
X88100000Y-64112500D03*
%TD*%
D10*
%TO.C,TP1*%
X131000000Y-108500000D03*
%TD*%
D12*
%TO.C,R10*%
X87825000Y-99500000D03*
X86175000Y-99500000D03*
%TD*%
D32*
%TO.C,U12*%
X79460000Y-71000000D03*
X80730000Y-71000000D03*
X82000000Y-71000000D03*
X83270000Y-71000000D03*
X83270000Y-66050000D03*
X82000000Y-66050000D03*
X80730000Y-66050000D03*
X79460000Y-66050000D03*
%TD*%
D18*
%TO.C,JP3*%
X134150000Y-115450000D03*
D19*
X132850000Y-115450000D03*
%TD*%
D22*
%TO.C,U14*%
X86437500Y-121385000D03*
X86437500Y-120115000D03*
X80062500Y-120115000D03*
X80062500Y-121385000D03*
%TD*%
D33*
%TO.C,U4*%
X109640000Y-145850000D03*
X109640000Y-144580000D03*
X109640000Y-143310000D03*
X109640000Y-142040000D03*
X109640000Y-140770000D03*
X109640000Y-139500000D03*
X109640000Y-138230000D03*
X109640000Y-136960000D03*
X109640000Y-135690000D03*
X109640000Y-134420000D03*
X109640000Y-133150000D03*
X109640000Y-131880000D03*
X109640000Y-130610000D03*
X109640000Y-129340000D03*
D34*
X107875000Y-128090000D03*
X106605000Y-128090000D03*
X105335000Y-128090000D03*
X104065000Y-128090000D03*
X102795000Y-128090000D03*
X101525000Y-128090000D03*
X100255000Y-128090000D03*
X98985000Y-128090000D03*
X97715000Y-128090000D03*
X96445000Y-128090000D03*
X95175000Y-128090000D03*
X93905000Y-128090000D03*
D33*
X92140000Y-129340000D03*
X92140000Y-130610000D03*
X92140000Y-131880000D03*
X92140000Y-133150000D03*
X92140000Y-134420000D03*
X92140000Y-135690000D03*
X92140000Y-136960000D03*
X92140000Y-138230000D03*
X92140000Y-139500000D03*
X92140000Y-140770000D03*
X92140000Y-142040000D03*
X92140000Y-143310000D03*
X92140000Y-144580000D03*
X92140000Y-145850000D03*
D35*
X103750000Y-142000000D03*
X103750000Y-140500000D03*
X103750000Y-139000000D03*
X102250000Y-142000000D03*
X102250000Y-140500000D03*
X102250000Y-139000000D03*
X100750000Y-142000000D03*
X100750000Y-140500000D03*
X100750000Y-139000000D03*
%TD*%
D27*
%TO.C,R5*%
X124750000Y-119425000D03*
X124750000Y-121075000D03*
%TD*%
D36*
%TO.C,U10*%
X141000000Y-110015000D03*
X140500000Y-110015000D03*
X140000000Y-110015000D03*
X139500000Y-110015000D03*
X139500000Y-111985000D03*
X140000000Y-111985000D03*
X140500000Y-111985000D03*
X141000000Y-111985000D03*
D37*
X140250000Y-111000000D03*
%TD*%
D38*
%TO.C,D6*%
X64750000Y-106500000D03*
X64750000Y-110500000D03*
%TD*%
D17*
%TO.C,C13*%
X142750000Y-110240000D03*
X142750000Y-111790000D03*
%TD*%
D13*
%TO.C,D9*%
X95750000Y-76050000D03*
X95750000Y-73950000D03*
%TD*%
D15*
%TO.C,R14*%
X128925000Y-124250000D03*
X130575000Y-124250000D03*
%TD*%
D29*
%TO.C,C11*%
X123750000Y-130750000D03*
X122200000Y-130750000D03*
%TD*%
D39*
%TO.C,F1*%
X66262500Y-144000000D03*
X69237500Y-144000000D03*
%TD*%
D12*
%TO.C,R13*%
X82575000Y-101250000D03*
X80925000Y-101250000D03*
%TD*%
D40*
%TO.C,J3*%
X108545000Y-84420000D03*
X103505000Y-84420000D03*
X108545000Y-86960000D03*
X103505000Y-86960000D03*
X108545000Y-89500000D03*
X103505000Y-89500000D03*
X108545000Y-92040000D03*
X103505000Y-92040000D03*
X108545000Y-94580000D03*
X103505000Y-94580000D03*
X108545000Y-97120000D03*
X103505000Y-97120000D03*
X108545000Y-99660000D03*
X103505000Y-99660000D03*
X108545000Y-102200000D03*
X103505000Y-102200000D03*
X108545000Y-104740000D03*
X103505000Y-104740000D03*
X108545000Y-107280000D03*
X103505000Y-107280000D03*
X108545000Y-109820000D03*
X103505000Y-109820000D03*
X108545000Y-112360000D03*
X103505000Y-112360000D03*
X108545000Y-114900000D03*
X103505000Y-114900000D03*
X108545000Y-117440000D03*
X103505000Y-117440000D03*
%TD*%
D41*
%TO.C,C10*%
X117575000Y-90905000D03*
X121475000Y-90905000D03*
%TD*%
D10*
%TO.C,TP6*%
X86750000Y-138750000D03*
%TD*%
D16*
%TO.C,FB1*%
X60712500Y-151250000D03*
X62287500Y-151250000D03*
%TD*%
D23*
%TO.C,Q3*%
X77437500Y-80200000D03*
X77437500Y-78300000D03*
X75562500Y-79250000D03*
%TD*%
D42*
%TO.C,U3*%
X81725000Y-97550000D03*
X81725000Y-98500000D03*
X81725000Y-99450000D03*
X84000000Y-99450000D03*
X84000000Y-98500000D03*
X84000000Y-97550000D03*
%TD*%
D43*
%TO.C,SW1*%
X138250000Y-146000000D03*
X138250000Y-152000000D03*
X134500000Y-146000000D03*
X134500000Y-152000000D03*
%TD*%
D42*
%TO.C,U5*%
X77112500Y-97550000D03*
X77112500Y-98500000D03*
X77112500Y-99450000D03*
X79387500Y-99450000D03*
X79387500Y-98500000D03*
X79387500Y-97550000D03*
%TD*%
D24*
%TO.C,JP1*%
X116000000Y-119050000D03*
D25*
X116000000Y-117750000D03*
D26*
X116000000Y-116450000D03*
%TD*%
D12*
%TO.C,R16*%
X90825000Y-79000000D03*
X89175000Y-79000000D03*
%TD*%
D17*
%TO.C,C2*%
X58500000Y-149475000D03*
X58500000Y-151025000D03*
%TD*%
D43*
%TO.C,SW2*%
X130750000Y-146000000D03*
X130750000Y-152000000D03*
X127000000Y-146000000D03*
X127000000Y-152000000D03*
%TD*%
D44*
%TO.C,J1*%
X57725000Y-135800000D03*
X57725000Y-136600000D03*
D45*
X57725000Y-137750000D03*
X57725000Y-138750000D03*
X57725000Y-139250000D03*
X57725000Y-140250000D03*
D44*
X57725000Y-141400000D03*
X57725000Y-142200000D03*
X57725000Y-142200000D03*
X57725000Y-141400000D03*
D45*
X57725000Y-140750000D03*
X57725000Y-139750000D03*
X57725000Y-138250000D03*
X57725000Y-137250000D03*
D44*
X57725000Y-136600000D03*
X57725000Y-135800000D03*
D46*
X57125000Y-134680000D03*
D47*
X52925000Y-134680000D03*
D46*
X57125000Y-143320000D03*
D47*
X52925000Y-143320000D03*
%TD*%
D20*
%TO.C,C3*%
X113250000Y-145775000D03*
X113250000Y-144225000D03*
%TD*%
D38*
%TO.C,D3*%
X68750000Y-64500000D03*
X68750000Y-68500000D03*
%TD*%
D10*
%TO.C,TP7*%
X86750000Y-142000000D03*
%TD*%
D12*
%TO.C,R18*%
X90575000Y-87500000D03*
X88925000Y-87500000D03*
%TD*%
D48*
%TO.C,C5*%
X86225000Y-97500000D03*
X87775000Y-97500000D03*
%TD*%
D38*
%TO.C,D2*%
X64750000Y-64500000D03*
X64750000Y-68500000D03*
%TD*%
D27*
%TO.C,R11*%
X81750000Y-140925000D03*
X81750000Y-142575000D03*
%TD*%
D23*
%TO.C,Q4*%
X77187500Y-118450000D03*
X77187500Y-116550000D03*
X75312500Y-117500000D03*
%TD*%
D49*
%TO.C,U8*%
X121300000Y-94250000D03*
X121300000Y-95520000D03*
X121300000Y-96790000D03*
X121300000Y-98060000D03*
X126250000Y-98060000D03*
X126250000Y-96790000D03*
X126250000Y-95520000D03*
X126250000Y-94250000D03*
%TD*%
D50*
%TO.C,FB3*%
X88750000Y-73462500D03*
X88750000Y-75037500D03*
%TD*%
D22*
%TO.C,U6*%
X86187500Y-78770000D03*
X86187500Y-77500000D03*
X79812500Y-77500000D03*
X79812500Y-78770000D03*
%TD*%
D38*
%TO.C,D7*%
X68750000Y-106500000D03*
X68750000Y-110500000D03*
%TD*%
D28*
%TO.C,R1*%
X120250000Y-111325000D03*
X120250000Y-109675000D03*
%TD*%
D51*
%TO.C,U2*%
X123500000Y-114000000D03*
X123000000Y-114000000D03*
X122500000Y-114000000D03*
X122000000Y-114000000D03*
D52*
X121312500Y-114687500D03*
X121312500Y-115187500D03*
X121312500Y-115687500D03*
X121312500Y-116187500D03*
D51*
X122000000Y-116875000D03*
X122500000Y-116875000D03*
X123000000Y-116875000D03*
X123500000Y-116875000D03*
D52*
X124187500Y-116187500D03*
X124187500Y-115687500D03*
X124187500Y-115187500D03*
X124187500Y-114687500D03*
D53*
X122750000Y-115437500D03*
%TD*%
D20*
%TO.C,C9*%
X124500000Y-111275000D03*
X124500000Y-109725000D03*
%TD*%
D15*
%TO.C,R15*%
X132425000Y-124250000D03*
X134075000Y-124250000D03*
%TD*%
D27*
%TO.C,R12*%
X79000000Y-140925000D03*
X79000000Y-142575000D03*
%TD*%
D54*
%TO.C,BT5*%
X124250000Y-85930000D03*
X124250000Y-56570000D03*
%TD*%
D22*
%TO.C,U11*%
X86375000Y-116520000D03*
X86375000Y-115250000D03*
X80000000Y-115250000D03*
X80000000Y-116520000D03*
%TD*%
D28*
%TO.C,R19*%
X123775000Y-91480000D03*
X123775000Y-89830000D03*
%TD*%
D48*
%TO.C,C14*%
X75225000Y-146000000D03*
X76775000Y-146000000D03*
%TD*%
D55*
%TO.C,D5*%
X135500000Y-90750000D03*
X135500000Y-86750000D03*
%TD*%
D48*
%TO.C,C7*%
X127975000Y-118250000D03*
X129525000Y-118250000D03*
%TD*%
D56*
%TO.C,D1*%
X62550000Y-149250000D03*
X60450000Y-149250000D03*
%TD*%
D57*
%TO.C,U13*%
X75200000Y-151560000D03*
X75200000Y-150290000D03*
X75200000Y-149020000D03*
X75200000Y-147750000D03*
X70250000Y-147750000D03*
X70250000Y-149020000D03*
X70250000Y-150290000D03*
X70250000Y-151560000D03*
%TD*%
D20*
%TO.C,C6*%
X116750000Y-145775000D03*
X116750000Y-144225000D03*
%TD*%
D58*
%TO.C,U1*%
X63950000Y-144862500D03*
X63000000Y-144862500D03*
X62050000Y-144862500D03*
X62050000Y-147137500D03*
X63000000Y-147137500D03*
X63950000Y-147137500D03*
%TD*%
D59*
%TO.C,U7*%
X126350000Y-130700000D03*
X126350000Y-133000000D03*
D60*
X132650000Y-133000000D03*
D59*
X126350000Y-135300000D03*
%TD*%
D61*
%TO.C,D4*%
X131525000Y-90655000D03*
X127525000Y-90655000D03*
%TD*%
D62*
%TO.C,F2*%
X65250000Y-97000000D03*
X70250000Y-97000000D03*
D63*
X65250000Y-78200000D03*
X70250000Y-78200000D03*
%TD*%
D64*
%TO.C,SW3*%
X103750000Y-51750000D03*
X103750000Y-57750000D03*
X115750000Y-51750000D03*
X115750000Y-57750000D03*
D65*
X105750000Y-56000000D03*
X109750000Y-56000000D03*
X113750000Y-56000000D03*
%TD*%
D62*
%TO.C,F3*%
X65250000Y-139050000D03*
X70250000Y-139050000D03*
D63*
X65250000Y-120250000D03*
X70250000Y-120250000D03*
%TD*%
D66*
%TO.C,BT4*%
X147110000Y-134000000D03*
X74890000Y-134000000D03*
%TD*%
%TO.C,BT1*%
X147110000Y-69500000D03*
X74890000Y-69500000D03*
%TD*%
D64*
%TO.C,J2*%
X52300001Y-85000000D03*
X60500000Y-85000000D03*
X52300001Y-80000000D03*
X60500000Y-80000000D03*
%TD*%
%TO.C,J4*%
X52300001Y-127000000D03*
X60500000Y-127000000D03*
X52300001Y-122000000D03*
X60500000Y-122000000D03*
%TD*%
D67*
%TO.C,K2*%
X59520001Y-113660000D03*
X51900001Y-113660000D03*
X69680001Y-103500000D03*
X69680001Y-113660000D03*
X67140001Y-103500000D03*
X67140001Y-113660000D03*
%TD*%
%TO.C,K1*%
X59520001Y-71750000D03*
X51900001Y-71750000D03*
X69680001Y-61590000D03*
X69680001Y-71750000D03*
X67140001Y-61590000D03*
X67140001Y-71750000D03*
%TD*%
D66*
%TO.C,BT2*%
X147110000Y-91000000D03*
X74890000Y-91000000D03*
%TD*%
%TO.C,BT3*%
X147100000Y-112500000D03*
X74880000Y-112500000D03*
%TD*%
M02*
