%TF.GenerationSoftware,KiCad,Pcbnew,8.0.7*%
%TF.CreationDate,2025-02-02T13:14:00-08:00*%
%TF.ProjectId,hstat,68737461-742e-46b6-9963-61645f706362,rev?*%
%TF.SameCoordinates,Original*%
%TF.FileFunction,Legend,Bot*%
%TF.FilePolarity,Positive*%
%FSLAX46Y46*%
G04 Gerber Fmt 4.6, Leading zero omitted, Abs format (unit mm)*
G04 Created by KiCad (PCBNEW 8.0.7) date 2025-02-02 13:14:00*
%MOMM*%
%LPD*%
G01*
G04 APERTURE LIST*
G04 Aperture macros list*
%AMRoundRect*
0 Rectangle with rounded corners*
0 $1 Rounding radius*
0 $2 $3 $4 $5 $6 $7 $8 $9 X,Y pos of 4 corners*
0 Add a 4 corners polygon primitive as box body*
4,1,4,$2,$3,$4,$5,$6,$7,$8,$9,$2,$3,0*
0 Add four circle primitives for the rounded corners*
1,1,$1+$1,$2,$3*
1,1,$1+$1,$4,$5*
1,1,$1+$1,$6,$7*
1,1,$1+$1,$8,$9*
0 Add four rect primitives between the rounded corners*
20,1,$1+$1,$2,$3,$4,$5,0*
20,1,$1+$1,$4,$5,$6,$7,0*
20,1,$1+$1,$6,$7,$8,$9,0*
20,1,$1+$1,$8,$9,$2,$3,0*%
%AMFreePoly0*
4,1,19,0.550000,-0.750000,0.000000,-0.750000,0.000000,-0.744911,-0.071157,-0.744911,-0.207708,-0.704816,-0.327430,-0.627875,-0.420627,-0.520320,-0.479746,-0.390866,-0.500000,-0.250000,-0.500000,0.250000,-0.479746,0.390866,-0.420627,0.520320,-0.327430,0.627875,-0.207708,0.704816,-0.071157,0.744911,0.000000,0.744911,0.000000,0.750000,0.550000,0.750000,0.550000,-0.750000,0.550000,-0.750000,
$1*%
%AMFreePoly1*
4,1,19,0.000000,0.744911,0.071157,0.744911,0.207708,0.704816,0.327430,0.627875,0.420627,0.520320,0.479746,0.390866,0.500000,0.250000,0.500000,-0.250000,0.479746,-0.390866,0.420627,-0.520320,0.327430,-0.627875,0.207708,-0.704816,0.071157,-0.744911,0.000000,-0.744911,0.000000,-0.750000,-0.550000,-0.750000,-0.550000,0.750000,0.000000,0.750000,0.000000,0.744911,0.000000,0.744911,
$1*%
G04 Aperture macros list end*
%ADD10C,0.200000*%
%ADD11C,0.350000*%
%ADD12C,0.400000*%
%ADD13C,0.500000*%
%ADD14C,0.150000*%
%ADD15C,0.120000*%
%ADD16C,0.000000*%
%ADD17C,5.500000*%
%ADD18RoundRect,0.250000X-1.000000X-0.600000X1.000000X-0.600000X1.000000X0.600000X-1.000000X0.600000X0*%
%ADD19O,2.500000X1.700000*%
%ADD20C,0.650000*%
%ADD21O,2.100000X1.000000*%
%ADD22O,1.800000X1.000000*%
%ADD23RoundRect,0.250000X1.500000X1.000000X-1.500000X1.000000X-1.500000X-1.000000X1.500000X-1.000000X0*%
%ADD24RoundRect,0.250000X-0.625000X0.350000X-0.625000X-0.350000X0.625000X-0.350000X0.625000X0.350000X0*%
%ADD25O,1.750000X1.200000*%
%ADD26R,2.600000X2.600000*%
%ADD27C,2.600000*%
%ADD28FreePoly0,270.000000*%
%ADD29R,1.500000X1.000000*%
%ADD30FreePoly1,270.000000*%
%ADD31RoundRect,0.249750X-0.750250X0.305250X-0.750250X-0.305250X0.750250X-0.305250X0.750250X0.305250X0*%
%ADD32FreePoly0,90.000000*%
%ADD33FreePoly1,90.000000*%
G04 APERTURE END LIST*
D10*
X140102500Y-84908500D02*
X170582500Y-84908500D01*
X140102500Y-67636500D02*
X170582500Y-67636500D01*
D11*
X165255619Y-94374442D02*
X165398476Y-94517300D01*
X165398476Y-94517300D02*
X165827048Y-94660157D01*
X165827048Y-94660157D02*
X166112762Y-94660157D01*
X166112762Y-94660157D02*
X166541333Y-94517300D01*
X166541333Y-94517300D02*
X166827048Y-94231585D01*
X166827048Y-94231585D02*
X166969905Y-93945871D01*
X166969905Y-93945871D02*
X167112762Y-93374442D01*
X167112762Y-93374442D02*
X167112762Y-92945871D01*
X167112762Y-92945871D02*
X166969905Y-92374442D01*
X166969905Y-92374442D02*
X166827048Y-92088728D01*
X166827048Y-92088728D02*
X166541333Y-91803014D01*
X166541333Y-91803014D02*
X166112762Y-91660157D01*
X166112762Y-91660157D02*
X165827048Y-91660157D01*
X165827048Y-91660157D02*
X165398476Y-91803014D01*
X165398476Y-91803014D02*
X165255619Y-91945871D01*
X163398476Y-91660157D02*
X162827048Y-91660157D01*
X162827048Y-91660157D02*
X162541333Y-91803014D01*
X162541333Y-91803014D02*
X162255619Y-92088728D01*
X162255619Y-92088728D02*
X162112762Y-92660157D01*
X162112762Y-92660157D02*
X162112762Y-93660157D01*
X162112762Y-93660157D02*
X162255619Y-94231585D01*
X162255619Y-94231585D02*
X162541333Y-94517300D01*
X162541333Y-94517300D02*
X162827048Y-94660157D01*
X162827048Y-94660157D02*
X163398476Y-94660157D01*
X163398476Y-94660157D02*
X163684191Y-94517300D01*
X163684191Y-94517300D02*
X163969905Y-94231585D01*
X163969905Y-94231585D02*
X164112762Y-93660157D01*
X164112762Y-93660157D02*
X164112762Y-92660157D01*
X164112762Y-92660157D02*
X163969905Y-92088728D01*
X163969905Y-92088728D02*
X163684191Y-91803014D01*
X163684191Y-91803014D02*
X163398476Y-91660157D01*
X160827048Y-94660157D02*
X160827048Y-91660157D01*
X160827048Y-91660157D02*
X159827048Y-93803014D01*
X159827048Y-93803014D02*
X158827048Y-91660157D01*
X158827048Y-91660157D02*
X158827048Y-94660157D01*
D12*
X144036132Y-65333833D02*
X144036132Y-63333833D01*
X140536132Y-64333833D02*
X144036132Y-64333833D01*
X142369465Y-62167166D02*
X142369465Y-61000500D01*
X140536132Y-60500500D02*
X140536132Y-62167166D01*
X140536132Y-62167166D02*
X144036132Y-62167166D01*
X144036132Y-62167166D02*
X144036132Y-60500500D01*
X140536132Y-59000499D02*
X144036132Y-59000499D01*
X144036132Y-59000499D02*
X141536132Y-57833833D01*
X141536132Y-57833833D02*
X144036132Y-56667166D01*
X144036132Y-56667166D02*
X140536132Y-56667166D01*
X140536132Y-55000499D02*
X144036132Y-55000499D01*
X144036132Y-55000499D02*
X144036132Y-53667166D01*
X144036132Y-53667166D02*
X143869465Y-53333833D01*
X143869465Y-53333833D02*
X143702799Y-53167166D01*
X143702799Y-53167166D02*
X143369465Y-53000499D01*
X143369465Y-53000499D02*
X142869465Y-53000499D01*
X142869465Y-53000499D02*
X142536132Y-53167166D01*
X142536132Y-53167166D02*
X142369465Y-53333833D01*
X142369465Y-53333833D02*
X142202799Y-53667166D01*
X142202799Y-53667166D02*
X142202799Y-55000499D01*
X144036132Y-82772500D02*
X144036132Y-82105833D01*
X144036132Y-82105833D02*
X143869465Y-81772500D01*
X143869465Y-81772500D02*
X143536132Y-81439166D01*
X143536132Y-81439166D02*
X142869465Y-81272500D01*
X142869465Y-81272500D02*
X141702799Y-81272500D01*
X141702799Y-81272500D02*
X141036132Y-81439166D01*
X141036132Y-81439166D02*
X140702799Y-81772500D01*
X140702799Y-81772500D02*
X140536132Y-82105833D01*
X140536132Y-82105833D02*
X140536132Y-82772500D01*
X140536132Y-82772500D02*
X140702799Y-83105833D01*
X140702799Y-83105833D02*
X141036132Y-83439166D01*
X141036132Y-83439166D02*
X141702799Y-83605833D01*
X141702799Y-83605833D02*
X142869465Y-83605833D01*
X142869465Y-83605833D02*
X143536132Y-83439166D01*
X143536132Y-83439166D02*
X143869465Y-83105833D01*
X143869465Y-83105833D02*
X144036132Y-82772500D01*
X144036132Y-79772499D02*
X141202799Y-79772499D01*
X141202799Y-79772499D02*
X140869465Y-79605833D01*
X140869465Y-79605833D02*
X140702799Y-79439166D01*
X140702799Y-79439166D02*
X140536132Y-79105833D01*
X140536132Y-79105833D02*
X140536132Y-78439166D01*
X140536132Y-78439166D02*
X140702799Y-78105833D01*
X140702799Y-78105833D02*
X140869465Y-77939166D01*
X140869465Y-77939166D02*
X141202799Y-77772499D01*
X141202799Y-77772499D02*
X144036132Y-77772499D01*
X144036132Y-76605832D02*
X144036132Y-74605832D01*
X140536132Y-75605832D02*
X144036132Y-75605832D01*
X140536132Y-68939165D02*
X140536132Y-70939165D01*
X140536132Y-69939165D02*
X144036132Y-69939165D01*
X144036132Y-69939165D02*
X143536132Y-70272498D01*
X143536132Y-70272498D02*
X143202799Y-70605832D01*
X143202799Y-70605832D02*
X143036132Y-70939165D01*
D11*
X163684191Y-99740157D02*
X163684191Y-96740157D01*
X163684191Y-96740157D02*
X161969905Y-99740157D01*
X161969905Y-99740157D02*
X161969905Y-96740157D01*
X159969905Y-96740157D02*
X159398477Y-96740157D01*
X159398477Y-96740157D02*
X159112762Y-96883014D01*
X159112762Y-96883014D02*
X158827048Y-97168728D01*
X158827048Y-97168728D02*
X158684191Y-97740157D01*
X158684191Y-97740157D02*
X158684191Y-98740157D01*
X158684191Y-98740157D02*
X158827048Y-99311585D01*
X158827048Y-99311585D02*
X159112762Y-99597300D01*
X159112762Y-99597300D02*
X159398477Y-99740157D01*
X159398477Y-99740157D02*
X159969905Y-99740157D01*
X159969905Y-99740157D02*
X160255620Y-99597300D01*
X160255620Y-99597300D02*
X160541334Y-99311585D01*
X160541334Y-99311585D02*
X160684191Y-98740157D01*
X160684191Y-98740157D02*
X160684191Y-97740157D01*
X160684191Y-97740157D02*
X160541334Y-97168728D01*
X160541334Y-97168728D02*
X160255620Y-96883014D01*
X160255620Y-96883014D02*
X159969905Y-96740157D01*
D13*
X197511076Y-114750595D02*
X197511076Y-109750595D01*
X195368219Y-114750595D02*
X195368219Y-112131547D01*
X195368219Y-112131547D02*
X195606314Y-111655357D01*
X195606314Y-111655357D02*
X196082505Y-111417261D01*
X196082505Y-111417261D02*
X196796791Y-111417261D01*
X196796791Y-111417261D02*
X197272981Y-111655357D01*
X197272981Y-111655357D02*
X197511076Y-111893452D01*
X193225362Y-114512500D02*
X192749171Y-114750595D01*
X192749171Y-114750595D02*
X191796790Y-114750595D01*
X191796790Y-114750595D02*
X191320600Y-114512500D01*
X191320600Y-114512500D02*
X191082504Y-114036309D01*
X191082504Y-114036309D02*
X191082504Y-113798214D01*
X191082504Y-113798214D02*
X191320600Y-113322023D01*
X191320600Y-113322023D02*
X191796790Y-113083928D01*
X191796790Y-113083928D02*
X192511076Y-113083928D01*
X192511076Y-113083928D02*
X192987266Y-112845833D01*
X192987266Y-112845833D02*
X193225362Y-112369642D01*
X193225362Y-112369642D02*
X193225362Y-112131547D01*
X193225362Y-112131547D02*
X192987266Y-111655357D01*
X192987266Y-111655357D02*
X192511076Y-111417261D01*
X192511076Y-111417261D02*
X191796790Y-111417261D01*
X191796790Y-111417261D02*
X191320600Y-111655357D01*
X189653933Y-111417261D02*
X187749171Y-111417261D01*
X188939647Y-109750595D02*
X188939647Y-114036309D01*
X188939647Y-114036309D02*
X188701552Y-114512500D01*
X188701552Y-114512500D02*
X188225362Y-114750595D01*
X188225362Y-114750595D02*
X187749171Y-114750595D01*
X183939647Y-114750595D02*
X183939647Y-112131547D01*
X183939647Y-112131547D02*
X184177742Y-111655357D01*
X184177742Y-111655357D02*
X184653933Y-111417261D01*
X184653933Y-111417261D02*
X185606314Y-111417261D01*
X185606314Y-111417261D02*
X186082504Y-111655357D01*
X183939647Y-114512500D02*
X184415838Y-114750595D01*
X184415838Y-114750595D02*
X185606314Y-114750595D01*
X185606314Y-114750595D02*
X186082504Y-114512500D01*
X186082504Y-114512500D02*
X186320600Y-114036309D01*
X186320600Y-114036309D02*
X186320600Y-113560119D01*
X186320600Y-113560119D02*
X186082504Y-113083928D01*
X186082504Y-113083928D02*
X185606314Y-112845833D01*
X185606314Y-112845833D02*
X184415838Y-112845833D01*
X184415838Y-112845833D02*
X183939647Y-112607738D01*
X182272980Y-111417261D02*
X180368218Y-111417261D01*
X181558694Y-109750595D02*
X181558694Y-114036309D01*
X181558694Y-114036309D02*
X181320599Y-114512500D01*
X181320599Y-114512500D02*
X180844409Y-114750595D01*
X180844409Y-114750595D02*
X180368218Y-114750595D01*
X174892027Y-112845833D02*
X171082504Y-112845833D01*
X165368218Y-111417261D02*
X164177742Y-114750595D01*
X164177742Y-114750595D02*
X162987265Y-111417261D01*
X158463456Y-114750595D02*
X161320599Y-114750595D01*
X159892027Y-114750595D02*
X159892027Y-109750595D01*
X159892027Y-109750595D02*
X160368218Y-110464880D01*
X160368218Y-110464880D02*
X160844408Y-110941071D01*
X160844408Y-110941071D02*
X161320599Y-111179166D01*
X156320598Y-114274404D02*
X156082503Y-114512500D01*
X156082503Y-114512500D02*
X156320598Y-114750595D01*
X156320598Y-114750595D02*
X156558694Y-114512500D01*
X156558694Y-114512500D02*
X156320598Y-114274404D01*
X156320598Y-114274404D02*
X156320598Y-114750595D01*
X152987265Y-109750595D02*
X152511075Y-109750595D01*
X152511075Y-109750595D02*
X152034884Y-109988690D01*
X152034884Y-109988690D02*
X151796789Y-110226785D01*
X151796789Y-110226785D02*
X151558694Y-110702976D01*
X151558694Y-110702976D02*
X151320599Y-111655357D01*
X151320599Y-111655357D02*
X151320599Y-112845833D01*
X151320599Y-112845833D02*
X151558694Y-113798214D01*
X151558694Y-113798214D02*
X151796789Y-114274404D01*
X151796789Y-114274404D02*
X152034884Y-114512500D01*
X152034884Y-114512500D02*
X152511075Y-114750595D01*
X152511075Y-114750595D02*
X152987265Y-114750595D01*
X152987265Y-114750595D02*
X153463456Y-114512500D01*
X153463456Y-114512500D02*
X153701551Y-114274404D01*
X153701551Y-114274404D02*
X153939646Y-113798214D01*
X153939646Y-113798214D02*
X154177742Y-112845833D01*
X154177742Y-112845833D02*
X154177742Y-111655357D01*
X154177742Y-111655357D02*
X153939646Y-110702976D01*
X153939646Y-110702976D02*
X153701551Y-110226785D01*
X153701551Y-110226785D02*
X153463456Y-109988690D01*
X153463456Y-109988690D02*
X152987265Y-109750595D01*
D11*
X163541334Y-89580157D02*
X163541334Y-86580157D01*
X163541334Y-86580157D02*
X161827048Y-89580157D01*
X161827048Y-89580157D02*
X161827048Y-86580157D01*
X158684191Y-89294442D02*
X158827048Y-89437300D01*
X158827048Y-89437300D02*
X159255620Y-89580157D01*
X159255620Y-89580157D02*
X159541334Y-89580157D01*
X159541334Y-89580157D02*
X159969905Y-89437300D01*
X159969905Y-89437300D02*
X160255620Y-89151585D01*
X160255620Y-89151585D02*
X160398477Y-88865871D01*
X160398477Y-88865871D02*
X160541334Y-88294442D01*
X160541334Y-88294442D02*
X160541334Y-87865871D01*
X160541334Y-87865871D02*
X160398477Y-87294442D01*
X160398477Y-87294442D02*
X160255620Y-87008728D01*
X160255620Y-87008728D02*
X159969905Y-86723014D01*
X159969905Y-86723014D02*
X159541334Y-86580157D01*
X159541334Y-86580157D02*
X159255620Y-86580157D01*
X159255620Y-86580157D02*
X158827048Y-86723014D01*
X158827048Y-86723014D02*
X158684191Y-86865871D01*
X165715906Y-52290157D02*
X163858763Y-52290157D01*
X163858763Y-52290157D02*
X164858763Y-53433014D01*
X164858763Y-53433014D02*
X164430192Y-53433014D01*
X164430192Y-53433014D02*
X164144478Y-53575871D01*
X164144478Y-53575871D02*
X164001620Y-53718728D01*
X164001620Y-53718728D02*
X163858763Y-54004442D01*
X163858763Y-54004442D02*
X163858763Y-54718728D01*
X163858763Y-54718728D02*
X164001620Y-55004442D01*
X164001620Y-55004442D02*
X164144478Y-55147300D01*
X164144478Y-55147300D02*
X164430192Y-55290157D01*
X164430192Y-55290157D02*
X165287335Y-55290157D01*
X165287335Y-55290157D02*
X165573049Y-55147300D01*
X165573049Y-55147300D02*
X165715906Y-55004442D01*
X163001620Y-52290157D02*
X162001620Y-55290157D01*
X162001620Y-55290157D02*
X161001620Y-52290157D01*
X160287334Y-52290157D02*
X158430191Y-52290157D01*
X158430191Y-52290157D02*
X159430191Y-53433014D01*
X159430191Y-53433014D02*
X159001620Y-53433014D01*
X159001620Y-53433014D02*
X158715906Y-53575871D01*
X158715906Y-53575871D02*
X158573048Y-53718728D01*
X158573048Y-53718728D02*
X158430191Y-54004442D01*
X158430191Y-54004442D02*
X158430191Y-54718728D01*
X158430191Y-54718728D02*
X158573048Y-55004442D01*
X158573048Y-55004442D02*
X158715906Y-55147300D01*
X158715906Y-55147300D02*
X159001620Y-55290157D01*
X159001620Y-55290157D02*
X159858763Y-55290157D01*
X159858763Y-55290157D02*
X160144477Y-55147300D01*
X160144477Y-55147300D02*
X160287334Y-55004442D01*
D12*
X143782132Y-100044500D02*
X143782132Y-99377833D01*
X143782132Y-99377833D02*
X143615465Y-99044500D01*
X143615465Y-99044500D02*
X143282132Y-98711166D01*
X143282132Y-98711166D02*
X142615465Y-98544500D01*
X142615465Y-98544500D02*
X141448799Y-98544500D01*
X141448799Y-98544500D02*
X140782132Y-98711166D01*
X140782132Y-98711166D02*
X140448799Y-99044500D01*
X140448799Y-99044500D02*
X140282132Y-99377833D01*
X140282132Y-99377833D02*
X140282132Y-100044500D01*
X140282132Y-100044500D02*
X140448799Y-100377833D01*
X140448799Y-100377833D02*
X140782132Y-100711166D01*
X140782132Y-100711166D02*
X141448799Y-100877833D01*
X141448799Y-100877833D02*
X142615465Y-100877833D01*
X142615465Y-100877833D02*
X143282132Y-100711166D01*
X143282132Y-100711166D02*
X143615465Y-100377833D01*
X143615465Y-100377833D02*
X143782132Y-100044500D01*
X143782132Y-97044499D02*
X140948799Y-97044499D01*
X140948799Y-97044499D02*
X140615465Y-96877833D01*
X140615465Y-96877833D02*
X140448799Y-96711166D01*
X140448799Y-96711166D02*
X140282132Y-96377833D01*
X140282132Y-96377833D02*
X140282132Y-95711166D01*
X140282132Y-95711166D02*
X140448799Y-95377833D01*
X140448799Y-95377833D02*
X140615465Y-95211166D01*
X140615465Y-95211166D02*
X140948799Y-95044499D01*
X140948799Y-95044499D02*
X143782132Y-95044499D01*
X143782132Y-93877832D02*
X143782132Y-91877832D01*
X140282132Y-92877832D02*
X143782132Y-92877832D01*
X143448799Y-88211165D02*
X143615465Y-88044498D01*
X143615465Y-88044498D02*
X143782132Y-87711165D01*
X143782132Y-87711165D02*
X143782132Y-86877832D01*
X143782132Y-86877832D02*
X143615465Y-86544498D01*
X143615465Y-86544498D02*
X143448799Y-86377832D01*
X143448799Y-86377832D02*
X143115465Y-86211165D01*
X143115465Y-86211165D02*
X142782132Y-86211165D01*
X142782132Y-86211165D02*
X142282132Y-86377832D01*
X142282132Y-86377832D02*
X140282132Y-88377832D01*
X140282132Y-88377832D02*
X140282132Y-86211165D01*
D11*
X164969905Y-62593014D02*
X165255620Y-62450157D01*
X165255620Y-62450157D02*
X165684191Y-62450157D01*
X165684191Y-62450157D02*
X166112762Y-62593014D01*
X166112762Y-62593014D02*
X166398477Y-62878728D01*
X166398477Y-62878728D02*
X166541334Y-63164442D01*
X166541334Y-63164442D02*
X166684191Y-63735871D01*
X166684191Y-63735871D02*
X166684191Y-64164442D01*
X166684191Y-64164442D02*
X166541334Y-64735871D01*
X166541334Y-64735871D02*
X166398477Y-65021585D01*
X166398477Y-65021585D02*
X166112762Y-65307300D01*
X166112762Y-65307300D02*
X165684191Y-65450157D01*
X165684191Y-65450157D02*
X165398477Y-65450157D01*
X165398477Y-65450157D02*
X164969905Y-65307300D01*
X164969905Y-65307300D02*
X164827048Y-65164442D01*
X164827048Y-65164442D02*
X164827048Y-64164442D01*
X164827048Y-64164442D02*
X165398477Y-64164442D01*
X163541334Y-65450157D02*
X163541334Y-62450157D01*
X163541334Y-62450157D02*
X161827048Y-65450157D01*
X161827048Y-65450157D02*
X161827048Y-62450157D01*
X160398477Y-65450157D02*
X160398477Y-62450157D01*
X160398477Y-62450157D02*
X159684191Y-62450157D01*
X159684191Y-62450157D02*
X159255620Y-62593014D01*
X159255620Y-62593014D02*
X158969905Y-62878728D01*
X158969905Y-62878728D02*
X158827048Y-63164442D01*
X158827048Y-63164442D02*
X158684191Y-63735871D01*
X158684191Y-63735871D02*
X158684191Y-64164442D01*
X158684191Y-64164442D02*
X158827048Y-64735871D01*
X158827048Y-64735871D02*
X158969905Y-65021585D01*
X158969905Y-65021585D02*
X159255620Y-65307300D01*
X159255620Y-65307300D02*
X159684191Y-65450157D01*
X159684191Y-65450157D02*
X160398477Y-65450157D01*
X167827049Y-60624157D02*
X167827049Y-57624157D01*
X167827049Y-57624157D02*
X167112763Y-57624157D01*
X167112763Y-57624157D02*
X166684192Y-57767014D01*
X166684192Y-57767014D02*
X166398477Y-58052728D01*
X166398477Y-58052728D02*
X166255620Y-58338442D01*
X166255620Y-58338442D02*
X166112763Y-58909871D01*
X166112763Y-58909871D02*
X166112763Y-59338442D01*
X166112763Y-59338442D02*
X166255620Y-59909871D01*
X166255620Y-59909871D02*
X166398477Y-60195585D01*
X166398477Y-60195585D02*
X166684192Y-60481300D01*
X166684192Y-60481300D02*
X167112763Y-60624157D01*
X167112763Y-60624157D02*
X167827049Y-60624157D01*
X164969906Y-59767014D02*
X163541335Y-59767014D01*
X165255620Y-60624157D02*
X164255620Y-57624157D01*
X164255620Y-57624157D02*
X163255620Y-60624157D01*
X162684191Y-57624157D02*
X160969906Y-57624157D01*
X161827048Y-60624157D02*
X161827048Y-57624157D01*
X160112763Y-59767014D02*
X158684192Y-59767014D01*
X160398477Y-60624157D02*
X159398477Y-57624157D01*
X159398477Y-57624157D02*
X158398477Y-60624157D01*
X163541334Y-72562157D02*
X163541334Y-69562157D01*
X163541334Y-69562157D02*
X161827048Y-72562157D01*
X161827048Y-72562157D02*
X161827048Y-69562157D01*
X158684191Y-72276442D02*
X158827048Y-72419300D01*
X158827048Y-72419300D02*
X159255620Y-72562157D01*
X159255620Y-72562157D02*
X159541334Y-72562157D01*
X159541334Y-72562157D02*
X159969905Y-72419300D01*
X159969905Y-72419300D02*
X160255620Y-72133585D01*
X160255620Y-72133585D02*
X160398477Y-71847871D01*
X160398477Y-71847871D02*
X160541334Y-71276442D01*
X160541334Y-71276442D02*
X160541334Y-70847871D01*
X160541334Y-70847871D02*
X160398477Y-70276442D01*
X160398477Y-70276442D02*
X160255620Y-69990728D01*
X160255620Y-69990728D02*
X159969905Y-69705014D01*
X159969905Y-69705014D02*
X159541334Y-69562157D01*
X159541334Y-69562157D02*
X159255620Y-69562157D01*
X159255620Y-69562157D02*
X158827048Y-69705014D01*
X158827048Y-69705014D02*
X158684191Y-69847871D01*
X163684191Y-82722157D02*
X163684191Y-79722157D01*
X163684191Y-79722157D02*
X161969905Y-82722157D01*
X161969905Y-82722157D02*
X161969905Y-79722157D01*
X159969905Y-79722157D02*
X159398477Y-79722157D01*
X159398477Y-79722157D02*
X159112762Y-79865014D01*
X159112762Y-79865014D02*
X158827048Y-80150728D01*
X158827048Y-80150728D02*
X158684191Y-80722157D01*
X158684191Y-80722157D02*
X158684191Y-81722157D01*
X158684191Y-81722157D02*
X158827048Y-82293585D01*
X158827048Y-82293585D02*
X159112762Y-82579300D01*
X159112762Y-82579300D02*
X159398477Y-82722157D01*
X159398477Y-82722157D02*
X159969905Y-82722157D01*
X159969905Y-82722157D02*
X160255620Y-82579300D01*
X160255620Y-82579300D02*
X160541334Y-82293585D01*
X160541334Y-82293585D02*
X160684191Y-81722157D01*
X160684191Y-81722157D02*
X160684191Y-80722157D01*
X160684191Y-80722157D02*
X160541334Y-80150728D01*
X160541334Y-80150728D02*
X160255620Y-79865014D01*
X160255620Y-79865014D02*
X159969905Y-79722157D01*
X165255619Y-77356442D02*
X165398476Y-77499300D01*
X165398476Y-77499300D02*
X165827048Y-77642157D01*
X165827048Y-77642157D02*
X166112762Y-77642157D01*
X166112762Y-77642157D02*
X166541333Y-77499300D01*
X166541333Y-77499300D02*
X166827048Y-77213585D01*
X166827048Y-77213585D02*
X166969905Y-76927871D01*
X166969905Y-76927871D02*
X167112762Y-76356442D01*
X167112762Y-76356442D02*
X167112762Y-75927871D01*
X167112762Y-75927871D02*
X166969905Y-75356442D01*
X166969905Y-75356442D02*
X166827048Y-75070728D01*
X166827048Y-75070728D02*
X166541333Y-74785014D01*
X166541333Y-74785014D02*
X166112762Y-74642157D01*
X166112762Y-74642157D02*
X165827048Y-74642157D01*
X165827048Y-74642157D02*
X165398476Y-74785014D01*
X165398476Y-74785014D02*
X165255619Y-74927871D01*
X163398476Y-74642157D02*
X162827048Y-74642157D01*
X162827048Y-74642157D02*
X162541333Y-74785014D01*
X162541333Y-74785014D02*
X162255619Y-75070728D01*
X162255619Y-75070728D02*
X162112762Y-75642157D01*
X162112762Y-75642157D02*
X162112762Y-76642157D01*
X162112762Y-76642157D02*
X162255619Y-77213585D01*
X162255619Y-77213585D02*
X162541333Y-77499300D01*
X162541333Y-77499300D02*
X162827048Y-77642157D01*
X162827048Y-77642157D02*
X163398476Y-77642157D01*
X163398476Y-77642157D02*
X163684191Y-77499300D01*
X163684191Y-77499300D02*
X163969905Y-77213585D01*
X163969905Y-77213585D02*
X164112762Y-76642157D01*
X164112762Y-76642157D02*
X164112762Y-75642157D01*
X164112762Y-75642157D02*
X163969905Y-75070728D01*
X163969905Y-75070728D02*
X163684191Y-74785014D01*
X163684191Y-74785014D02*
X163398476Y-74642157D01*
X160827048Y-77642157D02*
X160827048Y-74642157D01*
X160827048Y-74642157D02*
X159827048Y-76785014D01*
X159827048Y-76785014D02*
X158827048Y-74642157D01*
X158827048Y-74642157D02*
X158827048Y-77642157D01*
D14*
X133431357Y-60510080D02*
X133478976Y-60557700D01*
X133478976Y-60557700D02*
X133621833Y-60605319D01*
X133621833Y-60605319D02*
X133717071Y-60605319D01*
X133717071Y-60605319D02*
X133859928Y-60557700D01*
X133859928Y-60557700D02*
X133955166Y-60462461D01*
X133955166Y-60462461D02*
X134002785Y-60367223D01*
X134002785Y-60367223D02*
X134050404Y-60176747D01*
X134050404Y-60176747D02*
X134050404Y-60033890D01*
X134050404Y-60033890D02*
X134002785Y-59843414D01*
X134002785Y-59843414D02*
X133955166Y-59748176D01*
X133955166Y-59748176D02*
X133859928Y-59652938D01*
X133859928Y-59652938D02*
X133717071Y-59605319D01*
X133717071Y-59605319D02*
X133621833Y-59605319D01*
X133621833Y-59605319D02*
X133478976Y-59652938D01*
X133478976Y-59652938D02*
X133431357Y-59700557D01*
X132478976Y-60605319D02*
X133050404Y-60605319D01*
X132764690Y-60605319D02*
X132764690Y-59605319D01*
X132764690Y-59605319D02*
X132859928Y-59748176D01*
X132859928Y-59748176D02*
X132955166Y-59843414D01*
X132955166Y-59843414D02*
X133050404Y-59891033D01*
X131574214Y-59605319D02*
X132050404Y-59605319D01*
X132050404Y-59605319D02*
X132098023Y-60081509D01*
X132098023Y-60081509D02*
X132050404Y-60033890D01*
X132050404Y-60033890D02*
X131955166Y-59986271D01*
X131955166Y-59986271D02*
X131717071Y-59986271D01*
X131717071Y-59986271D02*
X131621833Y-60033890D01*
X131621833Y-60033890D02*
X131574214Y-60081509D01*
X131574214Y-60081509D02*
X131526595Y-60176747D01*
X131526595Y-60176747D02*
X131526595Y-60414842D01*
X131526595Y-60414842D02*
X131574214Y-60510080D01*
X131574214Y-60510080D02*
X131621833Y-60557700D01*
X131621833Y-60557700D02*
X131717071Y-60605319D01*
X131717071Y-60605319D02*
X131955166Y-60605319D01*
X131955166Y-60605319D02*
X132050404Y-60557700D01*
X132050404Y-60557700D02*
X132098023Y-60510080D01*
X132339319Y-54349166D02*
X133053604Y-54349166D01*
X133053604Y-54349166D02*
X133196461Y-54301547D01*
X133196461Y-54301547D02*
X133291700Y-54206309D01*
X133291700Y-54206309D02*
X133339319Y-54063452D01*
X133339319Y-54063452D02*
X133339319Y-53968214D01*
X133339319Y-55349166D02*
X133339319Y-54777738D01*
X133339319Y-55063452D02*
X132339319Y-55063452D01*
X132339319Y-55063452D02*
X132482176Y-54968214D01*
X132482176Y-54968214D02*
X132577414Y-54872976D01*
X132577414Y-54872976D02*
X132625033Y-54777738D01*
X144727319Y-75859166D02*
X145441604Y-75859166D01*
X145441604Y-75859166D02*
X145584461Y-75811547D01*
X145584461Y-75811547D02*
X145679700Y-75716309D01*
X145679700Y-75716309D02*
X145727319Y-75573452D01*
X145727319Y-75573452D02*
X145727319Y-75478214D01*
X144727319Y-76811547D02*
X144727319Y-76335357D01*
X144727319Y-76335357D02*
X145203509Y-76287738D01*
X145203509Y-76287738D02*
X145155890Y-76335357D01*
X145155890Y-76335357D02*
X145108271Y-76430595D01*
X145108271Y-76430595D02*
X145108271Y-76668690D01*
X145108271Y-76668690D02*
X145155890Y-76763928D01*
X145155890Y-76763928D02*
X145203509Y-76811547D01*
X145203509Y-76811547D02*
X145298747Y-76859166D01*
X145298747Y-76859166D02*
X145536842Y-76859166D01*
X145536842Y-76859166D02*
X145632080Y-76811547D01*
X145632080Y-76811547D02*
X145679700Y-76763928D01*
X145679700Y-76763928D02*
X145727319Y-76668690D01*
X145727319Y-76668690D02*
X145727319Y-76430595D01*
X145727319Y-76430595D02*
X145679700Y-76335357D01*
X145679700Y-76335357D02*
X145632080Y-76287738D01*
X133379357Y-89212080D02*
X133426976Y-89259700D01*
X133426976Y-89259700D02*
X133569833Y-89307319D01*
X133569833Y-89307319D02*
X133665071Y-89307319D01*
X133665071Y-89307319D02*
X133807928Y-89259700D01*
X133807928Y-89259700D02*
X133903166Y-89164461D01*
X133903166Y-89164461D02*
X133950785Y-89069223D01*
X133950785Y-89069223D02*
X133998404Y-88878747D01*
X133998404Y-88878747D02*
X133998404Y-88735890D01*
X133998404Y-88735890D02*
X133950785Y-88545414D01*
X133950785Y-88545414D02*
X133903166Y-88450176D01*
X133903166Y-88450176D02*
X133807928Y-88354938D01*
X133807928Y-88354938D02*
X133665071Y-88307319D01*
X133665071Y-88307319D02*
X133569833Y-88307319D01*
X133569833Y-88307319D02*
X133426976Y-88354938D01*
X133426976Y-88354938D02*
X133379357Y-88402557D01*
X132426976Y-89307319D02*
X132998404Y-89307319D01*
X132712690Y-89307319D02*
X132712690Y-88307319D01*
X132712690Y-88307319D02*
X132807928Y-88450176D01*
X132807928Y-88450176D02*
X132903166Y-88545414D01*
X132903166Y-88545414D02*
X132998404Y-88593033D01*
X131569833Y-88307319D02*
X131760309Y-88307319D01*
X131760309Y-88307319D02*
X131855547Y-88354938D01*
X131855547Y-88354938D02*
X131903166Y-88402557D01*
X131903166Y-88402557D02*
X131998404Y-88545414D01*
X131998404Y-88545414D02*
X132046023Y-88735890D01*
X132046023Y-88735890D02*
X132046023Y-89116842D01*
X132046023Y-89116842D02*
X131998404Y-89212080D01*
X131998404Y-89212080D02*
X131950785Y-89259700D01*
X131950785Y-89259700D02*
X131855547Y-89307319D01*
X131855547Y-89307319D02*
X131665071Y-89307319D01*
X131665071Y-89307319D02*
X131569833Y-89259700D01*
X131569833Y-89259700D02*
X131522214Y-89212080D01*
X131522214Y-89212080D02*
X131474595Y-89116842D01*
X131474595Y-89116842D02*
X131474595Y-88878747D01*
X131474595Y-88878747D02*
X131522214Y-88783509D01*
X131522214Y-88783509D02*
X131569833Y-88735890D01*
X131569833Y-88735890D02*
X131665071Y-88688271D01*
X131665071Y-88688271D02*
X131855547Y-88688271D01*
X131855547Y-88688271D02*
X131950785Y-88735890D01*
X131950785Y-88735890D02*
X131998404Y-88783509D01*
X131998404Y-88783509D02*
X132046023Y-88878747D01*
X144727319Y-58714166D02*
X145441604Y-58714166D01*
X145441604Y-58714166D02*
X145584461Y-58666547D01*
X145584461Y-58666547D02*
X145679700Y-58571309D01*
X145679700Y-58571309D02*
X145727319Y-58428452D01*
X145727319Y-58428452D02*
X145727319Y-58333214D01*
X144727319Y-59095119D02*
X144727319Y-59714166D01*
X144727319Y-59714166D02*
X145108271Y-59380833D01*
X145108271Y-59380833D02*
X145108271Y-59523690D01*
X145108271Y-59523690D02*
X145155890Y-59618928D01*
X145155890Y-59618928D02*
X145203509Y-59666547D01*
X145203509Y-59666547D02*
X145298747Y-59714166D01*
X145298747Y-59714166D02*
X145536842Y-59714166D01*
X145536842Y-59714166D02*
X145632080Y-59666547D01*
X145632080Y-59666547D02*
X145679700Y-59618928D01*
X145679700Y-59618928D02*
X145727319Y-59523690D01*
X145727319Y-59523690D02*
X145727319Y-59237976D01*
X145727319Y-59237976D02*
X145679700Y-59142738D01*
X145679700Y-59142738D02*
X145632080Y-59095119D01*
X144652319Y-93004166D02*
X145366604Y-93004166D01*
X145366604Y-93004166D02*
X145509461Y-92956547D01*
X145509461Y-92956547D02*
X145604700Y-92861309D01*
X145604700Y-92861309D02*
X145652319Y-92718452D01*
X145652319Y-92718452D02*
X145652319Y-92623214D01*
X144985652Y-93908928D02*
X145652319Y-93908928D01*
X144604700Y-93670833D02*
X145318985Y-93432738D01*
X145318985Y-93432738D02*
X145318985Y-94051785D01*
X124041319Y-82327166D02*
X124755604Y-82327166D01*
X124755604Y-82327166D02*
X124898461Y-82279547D01*
X124898461Y-82279547D02*
X124993700Y-82184309D01*
X124993700Y-82184309D02*
X125041319Y-82041452D01*
X125041319Y-82041452D02*
X125041319Y-81946214D01*
X125041319Y-82803357D02*
X124041319Y-82803357D01*
X124041319Y-82803357D02*
X124041319Y-83184309D01*
X124041319Y-83184309D02*
X124088938Y-83279547D01*
X124088938Y-83279547D02*
X124136557Y-83327166D01*
X124136557Y-83327166D02*
X124231795Y-83374785D01*
X124231795Y-83374785D02*
X124374652Y-83374785D01*
X124374652Y-83374785D02*
X124469890Y-83327166D01*
X124469890Y-83327166D02*
X124517509Y-83279547D01*
X124517509Y-83279547D02*
X124565128Y-83184309D01*
X124565128Y-83184309D02*
X124565128Y-82803357D01*
X124374652Y-84231928D02*
X125041319Y-84231928D01*
X123993700Y-83993833D02*
X124707985Y-83755738D01*
X124707985Y-83755738D02*
X124707985Y-84374785D01*
X133474594Y-70885319D02*
X133474594Y-69885319D01*
X132903166Y-70885319D02*
X133331737Y-70313890D01*
X132903166Y-69885319D02*
X133474594Y-70456747D01*
X131950785Y-70885319D02*
X132522213Y-70885319D01*
X132236499Y-70885319D02*
X132236499Y-69885319D01*
X132236499Y-69885319D02*
X132331737Y-70028176D01*
X132331737Y-70028176D02*
X132426975Y-70123414D01*
X132426975Y-70123414D02*
X132522213Y-70171033D01*
X124063319Y-76709166D02*
X124777604Y-76709166D01*
X124777604Y-76709166D02*
X124920461Y-76661547D01*
X124920461Y-76661547D02*
X125015700Y-76566309D01*
X125015700Y-76566309D02*
X125063319Y-76423452D01*
X125063319Y-76423452D02*
X125063319Y-76328214D01*
X125063319Y-77185357D02*
X124063319Y-77185357D01*
X124063319Y-77185357D02*
X124063319Y-77566309D01*
X124063319Y-77566309D02*
X124110938Y-77661547D01*
X124110938Y-77661547D02*
X124158557Y-77709166D01*
X124158557Y-77709166D02*
X124253795Y-77756785D01*
X124253795Y-77756785D02*
X124396652Y-77756785D01*
X124396652Y-77756785D02*
X124491890Y-77709166D01*
X124491890Y-77709166D02*
X124539509Y-77661547D01*
X124539509Y-77661547D02*
X124587128Y-77566309D01*
X124587128Y-77566309D02*
X124587128Y-77185357D01*
X124063319Y-78661547D02*
X124063319Y-78185357D01*
X124063319Y-78185357D02*
X124539509Y-78137738D01*
X124539509Y-78137738D02*
X124491890Y-78185357D01*
X124491890Y-78185357D02*
X124444271Y-78280595D01*
X124444271Y-78280595D02*
X124444271Y-78518690D01*
X124444271Y-78518690D02*
X124491890Y-78613928D01*
X124491890Y-78613928D02*
X124539509Y-78661547D01*
X124539509Y-78661547D02*
X124634747Y-78709166D01*
X124634747Y-78709166D02*
X124872842Y-78709166D01*
X124872842Y-78709166D02*
X124968080Y-78661547D01*
X124968080Y-78661547D02*
X125015700Y-78613928D01*
X125015700Y-78613928D02*
X125063319Y-78518690D01*
X125063319Y-78518690D02*
X125063319Y-78280595D01*
X125063319Y-78280595D02*
X125015700Y-78185357D01*
X125015700Y-78185357D02*
X124968080Y-78137738D01*
D15*
%TO.C,C15*%
X128528500Y-61090500D02*
X135984063Y-61090500D01*
X128528500Y-63840500D02*
X128528500Y-61090500D01*
X128528500Y-66860500D02*
X128528500Y-69610500D01*
X128528500Y-69610500D02*
X135984063Y-69610500D01*
X135984063Y-61090500D02*
X137048500Y-62154937D01*
X135984063Y-69610500D02*
X137048500Y-68546063D01*
X137048500Y-63840500D02*
X137048500Y-62154937D01*
X137048500Y-66860500D02*
X137048500Y-68546063D01*
X137288500Y-62840500D02*
X138288500Y-62840500D01*
X137788500Y-63340500D02*
X137788500Y-62340500D01*
%TO.C,J1*%
X133674500Y-51322500D02*
X133674500Y-52572500D01*
X133774500Y-53082500D02*
X133774500Y-53382500D01*
X133774500Y-53382500D02*
X133974500Y-53382500D01*
X133874500Y-53082500D02*
X133874500Y-53382500D01*
X133974500Y-51622500D02*
X133974500Y-57742500D01*
X133974500Y-53082500D02*
X133774500Y-53082500D01*
X133974500Y-55182500D02*
X134584500Y-55182500D01*
X133974500Y-57742500D02*
X138694500Y-57742500D01*
X134584500Y-52232500D02*
X134584500Y-54182500D01*
X134584500Y-54182500D02*
X133974500Y-54182500D01*
X134584500Y-55182500D02*
X134584500Y-57132500D01*
X134584500Y-57132500D02*
X138084500Y-57132500D01*
X134924500Y-51322500D02*
X133674500Y-51322500D01*
X135284500Y-52232500D02*
X135284500Y-51622500D01*
X135284500Y-57132500D02*
X135284500Y-57742500D01*
X136584500Y-52232500D02*
X136584500Y-51622500D01*
X136584500Y-57132500D02*
X136584500Y-57742500D01*
X137584500Y-54582500D02*
X138084500Y-54582500D01*
X137584500Y-54682500D02*
X138084500Y-54682500D01*
X137584500Y-54782500D02*
X137584500Y-54582500D01*
X138084500Y-52232500D02*
X134584500Y-52232500D01*
X138084500Y-54782500D02*
X137584500Y-54782500D01*
X138084500Y-57132500D02*
X138084500Y-52232500D01*
X138694500Y-51622500D02*
X133974500Y-51622500D01*
X138694500Y-57742500D02*
X138694500Y-51622500D01*
%TO.C,J5*%
X146271500Y-83752500D02*
X146271500Y-68632500D01*
X149231500Y-83752500D02*
X149231500Y-68632500D01*
X150293500Y-77227500D02*
X150257500Y-77262500D01*
X150293500Y-82227500D02*
X150257500Y-82262500D01*
X150509500Y-77420500D02*
X150463500Y-77467500D01*
X150509500Y-82420500D02*
X150463500Y-82467500D01*
X152601500Y-74918500D02*
X152555500Y-74965500D01*
X152601500Y-79918500D02*
X152555500Y-79965500D01*
X152806500Y-75123500D02*
X152771500Y-75158500D01*
X152806500Y-80123500D02*
X152771500Y-80158500D01*
X154132500Y-83752500D02*
X154132500Y-68632500D01*
X155632500Y-83752500D02*
X155632500Y-68632500D01*
X156192500Y-68632500D02*
X146271500Y-68632500D01*
X156192500Y-83752500D02*
X146271500Y-83752500D01*
X156192500Y-83752500D02*
X156192500Y-68632500D01*
X156432500Y-68392500D02*
X155692500Y-68392500D01*
X156432500Y-68892500D02*
X156432500Y-68392500D01*
X149997500Y-71876500D02*
G75*
G02*
X149997073Y-70509458I1534993J684001D01*
G01*
X150848500Y-69657500D02*
G75*
G02*
X152215542Y-69657073I684001J-1534993D01*
G01*
X152216500Y-72727500D02*
G75*
G02*
X150849458Y-72727927I-684001J1535004D01*
G01*
X153067500Y-70508500D02*
G75*
G02*
X153212753Y-71221305I-1535001J-683999D01*
G01*
X153212500Y-71192500D02*
G75*
G02*
X153067256Y-71875818I-1680000J0D01*
G01*
X153212500Y-76192500D02*
G75*
G02*
X149852500Y-76192500I-1680000J0D01*
G01*
X149852500Y-76192500D02*
G75*
G02*
X153212500Y-76192500I1680000J0D01*
G01*
X153212500Y-81192500D02*
G75*
G02*
X149852500Y-81192500I-1680000J0D01*
G01*
X149852500Y-81192500D02*
G75*
G02*
X153212500Y-81192500I1680000J0D01*
G01*
D16*
%TO.C,G\u002A\u002A\u002A*%
G36*
X109625561Y-70243949D02*
G01*
X109594958Y-70274552D01*
X109564356Y-70243949D01*
X109594958Y-70213347D01*
X109625561Y-70243949D01*
G37*
G36*
X111094476Y-70121540D02*
G01*
X111063874Y-70152142D01*
X111033272Y-70121540D01*
X111063874Y-70090937D01*
X111094476Y-70121540D01*
G37*
G36*
X123580259Y-95276720D02*
G01*
X123549657Y-95307323D01*
X123519055Y-95276720D01*
X123549657Y-95246118D01*
X123580259Y-95276720D01*
G37*
G36*
X99955199Y-81352624D02*
G01*
X99955199Y-110975756D01*
X99587970Y-110975756D01*
X99220741Y-110975756D01*
X99220741Y-81352624D01*
X99220741Y-51729491D01*
X99587970Y-51729491D01*
X99955199Y-51729491D01*
X99955199Y-81352624D01*
G37*
G36*
X102587006Y-59777925D02*
G01*
X102587006Y-60420576D01*
X102372790Y-60420576D01*
X102158573Y-60420576D01*
X102158573Y-60022744D01*
X102158573Y-59624913D01*
X101424115Y-59624913D01*
X100689657Y-59624913D01*
X100689657Y-59380094D01*
X100689657Y-59135275D01*
X101638332Y-59135275D01*
X102587006Y-59135275D01*
X102587006Y-59777925D01*
G37*
G36*
X103303475Y-59125215D02*
G01*
X103438188Y-59265933D01*
X103482795Y-59355835D01*
X103490912Y-59460170D01*
X103423521Y-59587258D01*
X103413120Y-59602377D01*
X103265067Y-59722265D01*
X103090668Y-59740157D01*
X102928005Y-59651144D01*
X102847860Y-59513358D01*
X102848978Y-59331430D01*
X102949188Y-59170445D01*
X102965503Y-59156505D01*
X103134380Y-59086487D01*
X103303475Y-59125215D01*
G37*
G36*
X101118091Y-77221299D02*
G01*
X101118091Y-77802744D01*
X101454717Y-77802744D01*
X101791344Y-77802744D01*
X101791344Y-77313106D01*
X101791344Y-76823467D01*
X101974958Y-76823467D01*
X102158573Y-76823467D01*
X102158573Y-77313106D01*
X102158573Y-77802744D01*
X102464597Y-77802744D01*
X102770621Y-77802744D01*
X102770621Y-77251901D01*
X102770621Y-76701058D01*
X102984838Y-76701058D01*
X103199055Y-76701058D01*
X103199055Y-77496720D01*
X103199055Y-78292383D01*
X101944356Y-78292383D01*
X100689657Y-78292383D01*
X100689657Y-77466118D01*
X100689657Y-76639853D01*
X100903874Y-76639853D01*
X101118091Y-76639853D01*
X101118091Y-77221299D01*
G37*
G36*
X102540104Y-65437328D02*
G01*
X102578138Y-65551082D01*
X102587006Y-65765991D01*
X102573654Y-65958137D01*
X102479794Y-66243906D01*
X102290932Y-66464552D01*
X102248225Y-66505747D01*
X102267147Y-66534309D01*
X102391694Y-66541058D01*
X102395717Y-66541060D01*
X102524679Y-66552564D01*
X102577097Y-66611526D01*
X102587006Y-66755275D01*
X102587006Y-66969491D01*
X101638332Y-66969491D01*
X100689657Y-66969491D01*
X100689657Y-66724672D01*
X100689657Y-66479853D01*
X101234160Y-66479853D01*
X101778663Y-66479853D01*
X101972816Y-66258725D01*
X101973843Y-66257555D01*
X102096326Y-66097288D01*
X102147496Y-65951776D01*
X102149749Y-65757580D01*
X102145018Y-65665785D01*
X102152859Y-65534826D01*
X102201131Y-65469280D01*
X102308620Y-65430467D01*
X102455760Y-65404069D01*
X102540104Y-65437328D01*
G37*
G36*
X107111740Y-79858884D02*
G01*
X107113671Y-79861505D01*
X107132912Y-79945927D01*
X107152078Y-80115620D01*
X107167285Y-80337150D01*
X107169740Y-80536839D01*
X107118817Y-80887653D01*
X106982953Y-81182411D01*
X106750609Y-81451991D01*
X106563259Y-81628046D01*
X106824410Y-81658648D01*
X107085561Y-81689250D01*
X107104060Y-82010576D01*
X107122560Y-82331901D01*
X105650446Y-82331901D01*
X104178332Y-82331901D01*
X104178332Y-81964672D01*
X104178332Y-81597443D01*
X104997977Y-81597443D01*
X105817623Y-81597443D01*
X106121759Y-81323999D01*
X106259526Y-81187615D01*
X106457166Y-80900677D01*
X106540082Y-80596798D01*
X106513419Y-80262021D01*
X106494359Y-80167436D01*
X106485937Y-80029751D01*
X106525008Y-79974786D01*
X106681837Y-79927794D01*
X106881781Y-79879329D01*
X107037069Y-79853991D01*
X107111740Y-79858884D01*
G37*
G36*
X100955901Y-74409043D02*
G01*
X100976963Y-74414491D01*
X101068219Y-74454243D01*
X101096317Y-74531621D01*
X101079394Y-74687521D01*
X101064913Y-74788823D01*
X101062319Y-74904556D01*
X101094519Y-74988494D01*
X101176113Y-75045737D01*
X101321705Y-75081383D01*
X101545894Y-75100532D01*
X101863285Y-75108282D01*
X102288477Y-75109732D01*
X103382669Y-75109732D01*
X103382669Y-75660576D01*
X103382669Y-76211419D01*
X103168452Y-76211419D01*
X102954235Y-76211419D01*
X102954235Y-75905395D01*
X102954235Y-75599371D01*
X102075899Y-75599371D01*
X101671423Y-75594791D01*
X101337470Y-75577271D01*
X101092349Y-75543017D01*
X100918838Y-75488259D01*
X100799712Y-75409229D01*
X100717748Y-75302156D01*
X100673088Y-75167806D01*
X100649083Y-74961943D01*
X100651377Y-74740344D01*
X100679236Y-74548258D01*
X100731922Y-74430938D01*
X100814638Y-74399739D01*
X100955901Y-74409043D01*
G37*
G36*
X107082082Y-90459015D02*
G01*
X107144431Y-90541409D01*
X107170667Y-90708910D01*
X107176431Y-90980121D01*
X107167754Y-91210575D01*
X107109410Y-91501766D01*
X106979891Y-91755115D01*
X106760371Y-92017564D01*
X106540477Y-92247082D01*
X106828320Y-92247082D01*
X107116163Y-92247082D01*
X107116163Y-92583708D01*
X107116163Y-92920335D01*
X105647247Y-92920335D01*
X104178332Y-92920335D01*
X104178332Y-92553106D01*
X104178332Y-92185877D01*
X104946431Y-92185877D01*
X105303393Y-92181718D01*
X105586111Y-92163444D01*
X105796074Y-92123412D01*
X105958713Y-92053987D01*
X106099455Y-91947535D01*
X106243731Y-91796422D01*
X106341544Y-91671638D01*
X106502655Y-91341679D01*
X106545342Y-90991630D01*
X106467614Y-90631853D01*
X106468065Y-90606066D01*
X106554031Y-90543265D01*
X106757437Y-90481769D01*
X106786480Y-90475133D01*
X106967979Y-90443124D01*
X107082082Y-90459015D01*
G37*
G36*
X101923346Y-63167813D02*
G01*
X102225753Y-63298637D01*
X102436922Y-63510379D01*
X102554093Y-63799646D01*
X102574507Y-64163045D01*
X102540348Y-64380531D01*
X102412731Y-64667462D01*
X102199787Y-64868478D01*
X101906009Y-64979968D01*
X101703156Y-64990025D01*
X101535889Y-64998317D01*
X101435182Y-64988509D01*
X101137106Y-64913006D01*
X100914726Y-64762202D01*
X100741770Y-64520284D01*
X100649692Y-64273987D01*
X100636595Y-64010603D01*
X101062375Y-64010603D01*
X101085308Y-64220943D01*
X101218152Y-64394447D01*
X101281005Y-64437770D01*
X101488970Y-64514909D01*
X101703156Y-64517771D01*
X101902124Y-64459048D01*
X102064441Y-64351432D01*
X102168670Y-64207615D01*
X102193375Y-64040290D01*
X102117121Y-63862151D01*
X101977261Y-63735437D01*
X101796971Y-63648764D01*
X101660926Y-63630264D01*
X101436976Y-63654541D01*
X101240520Y-63731951D01*
X101117621Y-63848924D01*
X101062375Y-64010603D01*
X100636595Y-64010603D01*
X100634606Y-63970608D01*
X100716323Y-63687133D01*
X100881152Y-63442630D01*
X101115400Y-63256167D01*
X101405376Y-63146815D01*
X101737390Y-63133640D01*
X101923346Y-63167813D01*
G37*
G36*
X101255802Y-60912880D02*
G01*
X101429489Y-60915108D01*
X101835396Y-60936503D01*
X102137272Y-60982165D01*
X102347303Y-61054519D01*
X102477677Y-61155988D01*
X102558316Y-61328086D01*
X102586570Y-61571704D01*
X102555338Y-61830626D01*
X102465268Y-62057805D01*
X102429740Y-62116358D01*
X102377741Y-62214932D01*
X102389648Y-62251422D01*
X102465496Y-62256720D01*
X102519629Y-62263583D01*
X102573215Y-62323152D01*
X102587006Y-62470937D01*
X102587006Y-62685154D01*
X101638332Y-62685154D01*
X100689657Y-62685154D01*
X100689657Y-62440335D01*
X100689657Y-62195516D01*
X101325269Y-62195516D01*
X101427253Y-62195420D01*
X101680343Y-62192329D01*
X101844597Y-62180953D01*
X101945553Y-62156046D01*
X102008750Y-62112362D01*
X102059726Y-62044657D01*
X102124193Y-61901734D01*
X102158573Y-61710907D01*
X102145767Y-61594880D01*
X102080791Y-61519439D01*
X101929055Y-61464276D01*
X101907684Y-61458847D01*
X101719450Y-61429211D01*
X101465538Y-61408245D01*
X101194597Y-61400194D01*
X100689657Y-61399853D01*
X100689657Y-61155034D01*
X100689657Y-60910214D01*
X101255802Y-60912880D01*
G37*
G36*
X101110036Y-69962452D02*
G01*
X101125208Y-69973950D01*
X101208308Y-70051109D01*
X101215702Y-70129338D01*
X101155418Y-70261547D01*
X101069729Y-70522254D01*
X101080076Y-70767961D01*
X101178755Y-70970683D01*
X101354935Y-71108436D01*
X101597783Y-71159240D01*
X101821455Y-71121391D01*
X102025999Y-70995608D01*
X102154989Y-70805227D01*
X102192913Y-70574725D01*
X102124257Y-70328576D01*
X102105463Y-70291984D01*
X102055569Y-70172597D01*
X102071160Y-70098362D01*
X102157758Y-70018085D01*
X102209184Y-69977426D01*
X102315051Y-69918346D01*
X102392021Y-69951344D01*
X102482003Y-70085079D01*
X102496656Y-70111752D01*
X102571622Y-70358922D01*
X102587591Y-70657675D01*
X102546001Y-70959743D01*
X102448289Y-71216855D01*
X102306700Y-71402279D01*
X102060639Y-71576909D01*
X101774968Y-71665611D01*
X101475665Y-71669037D01*
X101188711Y-71587844D01*
X100940085Y-71422685D01*
X100755769Y-71174215D01*
X100691335Y-71007575D01*
X100640507Y-70709163D01*
X100653570Y-70408803D01*
X100727390Y-70143684D01*
X100858835Y-69950990D01*
X100922467Y-69900442D01*
X100999356Y-69892033D01*
X101110036Y-69962452D01*
G37*
G36*
X104294240Y-69086257D02*
G01*
X104415113Y-69164476D01*
X104605194Y-69294930D01*
X104845057Y-69464177D01*
X105115273Y-69658777D01*
X105262324Y-69765076D01*
X105512046Y-69942537D01*
X105717631Y-70084695D01*
X105860945Y-70179111D01*
X105923851Y-70213347D01*
X105926776Y-70212721D01*
X105996459Y-70164375D01*
X106134745Y-70050154D01*
X106323085Y-69885825D01*
X106542928Y-69687155D01*
X107116163Y-69160963D01*
X107116163Y-69590335D01*
X107116163Y-70019707D01*
X106458211Y-70636626D01*
X105800259Y-71253545D01*
X107100862Y-71253687D01*
X108401464Y-71253829D01*
X108401464Y-71621058D01*
X108401464Y-71988287D01*
X106289898Y-71988287D01*
X104178332Y-71988287D01*
X104178332Y-71621058D01*
X104178332Y-71253829D01*
X104563420Y-71253829D01*
X104608265Y-71253771D01*
X104807780Y-71246552D01*
X104942257Y-71212956D01*
X105060559Y-71132777D01*
X105211551Y-70985808D01*
X105474594Y-70717786D01*
X104826463Y-70272580D01*
X104178332Y-69827374D01*
X104178332Y-69432367D01*
X104179360Y-69317431D01*
X104190295Y-69150945D01*
X104217299Y-69075735D01*
X104265435Y-69070783D01*
X104294240Y-69086257D01*
G37*
G36*
X101110036Y-56497392D02*
G01*
X101125208Y-56508889D01*
X101208308Y-56586049D01*
X101215702Y-56664277D01*
X101155418Y-56796487D01*
X101077704Y-57008032D01*
X101073618Y-57271395D01*
X101180041Y-57500394D01*
X101318435Y-57625732D01*
X101537320Y-57705286D01*
X101766587Y-57690185D01*
X101973089Y-57584260D01*
X102123676Y-57391342D01*
X102163199Y-57305096D01*
X102210835Y-57154503D01*
X102196683Y-57024656D01*
X102120375Y-56856009D01*
X102109998Y-56835861D01*
X102056554Y-56711694D01*
X102070295Y-56635078D01*
X102157758Y-56553024D01*
X102209184Y-56512366D01*
X102315051Y-56453286D01*
X102392021Y-56486284D01*
X102482003Y-56620019D01*
X102496656Y-56646692D01*
X102571622Y-56893862D01*
X102587591Y-57192615D01*
X102546001Y-57494682D01*
X102448289Y-57751795D01*
X102307397Y-57937453D01*
X102061451Y-58114565D01*
X101776354Y-58205252D01*
X101477816Y-58210075D01*
X101191545Y-58129594D01*
X100943251Y-57964370D01*
X100758643Y-57714963D01*
X100726860Y-57644466D01*
X100656566Y-57429733D01*
X100628501Y-57245026D01*
X100638907Y-57090475D01*
X100690126Y-56840988D01*
X100771267Y-56621310D01*
X100867884Y-56477740D01*
X100918234Y-56438025D01*
X100997282Y-56427542D01*
X101110036Y-56497392D01*
G37*
G36*
X100919468Y-67637330D02*
G01*
X101009311Y-67667742D01*
X101059955Y-67721153D01*
X101074847Y-67828888D01*
X101066857Y-68024784D01*
X101064572Y-68067352D01*
X101069546Y-68260240D01*
X101118781Y-68385932D01*
X101231682Y-68458406D01*
X101427658Y-68491640D01*
X101726115Y-68499612D01*
X102158573Y-68499612D01*
X102158573Y-68101781D01*
X102158573Y-67703949D01*
X102372790Y-67703949D01*
X102587006Y-67703949D01*
X102587006Y-68101781D01*
X102587006Y-68499612D01*
X102862428Y-68499612D01*
X102981384Y-68500882D01*
X103090514Y-68519207D01*
X103131567Y-68579518D01*
X103137850Y-68706879D01*
X103136622Y-68777223D01*
X103113780Y-68874008D01*
X103035962Y-68922786D01*
X102869828Y-68954339D01*
X102781505Y-68968593D01*
X102655828Y-69007330D01*
X102595892Y-69084853D01*
X102563081Y-69236710D01*
X102559436Y-69259075D01*
X102523756Y-69404346D01*
X102461691Y-69466041D01*
X102341464Y-69478889D01*
X102302620Y-69478508D01*
X102205127Y-69460848D01*
X102165845Y-69391059D01*
X102158573Y-69234070D01*
X102158573Y-68989250D01*
X101615983Y-68989250D01*
X101513279Y-68988176D01*
X101187992Y-68961884D01*
X100955196Y-68893902D01*
X100794286Y-68775580D01*
X100684657Y-68598267D01*
X100672780Y-68558770D01*
X100654383Y-68398247D01*
X100650529Y-68183485D01*
X100659895Y-67958557D01*
X100681157Y-67767538D01*
X100712991Y-67654505D01*
X100779057Y-67623307D01*
X100919468Y-67637330D01*
G37*
G36*
X101929554Y-72137968D02*
G01*
X102212020Y-72244139D01*
X102430255Y-72410567D01*
X102487027Y-72500671D01*
X102553200Y-72717154D01*
X102581082Y-72976024D01*
X102567094Y-73230071D01*
X102507661Y-73432088D01*
X102405674Y-73602538D01*
X102227199Y-73786508D01*
X101996092Y-73890368D01*
X101852549Y-73909790D01*
X101681255Y-73932966D01*
X101384491Y-73925964D01*
X101109659Y-73850308D01*
X100904049Y-73691878D01*
X100748648Y-73440637D01*
X100658730Y-73172633D01*
X100640500Y-72832874D01*
X100726013Y-72458226D01*
X100791988Y-72279774D01*
X100850580Y-72193522D01*
X100923919Y-72193282D01*
X101037458Y-72263110D01*
X101072243Y-72288533D01*
X101129554Y-72354911D01*
X101133551Y-72449097D01*
X101090909Y-72615037D01*
X101051840Y-72816259D01*
X101079659Y-73103374D01*
X101215850Y-73341369D01*
X101275196Y-73402737D01*
X101363701Y-73463313D01*
X101424143Y-73441699D01*
X101461345Y-73327917D01*
X101480130Y-73111993D01*
X101481400Y-73031746D01*
X101852549Y-73031746D01*
X101852549Y-73472133D01*
X101990259Y-73381144D01*
X101998844Y-73375353D01*
X102152403Y-73207681D01*
X102207533Y-73002768D01*
X102154448Y-72795517D01*
X102061145Y-72676250D01*
X101957553Y-72611581D01*
X101956587Y-72611397D01*
X101902161Y-72616213D01*
X101870639Y-72672032D01*
X101856081Y-72802621D01*
X101852549Y-73031746D01*
X101481400Y-73031746D01*
X101485320Y-72783949D01*
X101485320Y-72110696D01*
X101701502Y-72110696D01*
X101929554Y-72137968D01*
G37*
G36*
X108401464Y-98006781D02*
G01*
X108401464Y-98380457D01*
X107669987Y-98358709D01*
X106938509Y-98336961D01*
X107026130Y-98470679D01*
X107074946Y-98554834D01*
X107176658Y-98873725D01*
X107183679Y-99220560D01*
X107098586Y-99560364D01*
X106923954Y-99858158D01*
X106871262Y-99918787D01*
X106584103Y-100155502D01*
X106230885Y-100304696D01*
X105795401Y-100373775D01*
X105635204Y-100372245D01*
X105406626Y-100370062D01*
X104988190Y-100287316D01*
X104639825Y-100124182D01*
X104373149Y-99886439D01*
X104199780Y-99579868D01*
X104197210Y-99572722D01*
X104126870Y-99248330D01*
X104159265Y-98930502D01*
X104163010Y-98921222D01*
X104754711Y-98921222D01*
X104784617Y-99164407D01*
X104914698Y-99374968D01*
X105136026Y-99534965D01*
X105439675Y-99626458D01*
X105635204Y-99642278D01*
X105957437Y-99602979D01*
X106224341Y-99487626D01*
X106422528Y-99310243D01*
X106538612Y-99084855D01*
X106559203Y-98825485D01*
X106470917Y-98546159D01*
X106376514Y-98363603D01*
X105697001Y-98380885D01*
X105552442Y-98384779D01*
X105299873Y-98394962D01*
X105133778Y-98411328D01*
X105029186Y-98439241D01*
X104961131Y-98484069D01*
X104904641Y-98551178D01*
X104833905Y-98663353D01*
X104754711Y-98921222D01*
X104163010Y-98921222D01*
X104297472Y-98587996D01*
X104477817Y-98245154D01*
X104328075Y-98245154D01*
X104269957Y-98242363D01*
X104208863Y-98211519D01*
X104183417Y-98120855D01*
X104178332Y-97939130D01*
X104178332Y-97633106D01*
X106289898Y-97633106D01*
X108401464Y-97633106D01*
X108401464Y-98006781D01*
G37*
G36*
X104957673Y-83449909D02*
G01*
X105182446Y-83674682D01*
X105055266Y-83814255D01*
X104920099Y-83994286D01*
X104803040Y-84293466D01*
X104802637Y-84600895D01*
X104920766Y-84901421D01*
X104932126Y-84919787D01*
X105136602Y-85171248D01*
X105392529Y-85341484D01*
X105719445Y-85439710D01*
X106136886Y-85475144D01*
X106277461Y-85473316D01*
X106690549Y-85413013D01*
X107025579Y-85274129D01*
X107274658Y-85062697D01*
X107429893Y-84784746D01*
X107483392Y-84446307D01*
X107479761Y-84329302D01*
X107436970Y-84112442D01*
X107331766Y-83925105D01*
X107180139Y-83719587D01*
X107408272Y-83517930D01*
X107489153Y-83448321D01*
X107610160Y-83352438D01*
X107673984Y-83313726D01*
X107735524Y-83359592D01*
X107828879Y-83484693D01*
X107933430Y-83656373D01*
X108029281Y-83841912D01*
X108096532Y-84008587D01*
X108117893Y-84094967D01*
X108145635Y-84349218D01*
X108140948Y-84633584D01*
X108129729Y-84737611D01*
X108014600Y-85167890D01*
X107800147Y-85536909D01*
X107495759Y-85837100D01*
X107110826Y-86060893D01*
X106654739Y-86200719D01*
X106136886Y-86249010D01*
X105846270Y-86234086D01*
X105362834Y-86134598D01*
X104942280Y-85948196D01*
X104596026Y-85682468D01*
X104335492Y-85345003D01*
X104172097Y-84943389D01*
X104158067Y-84876306D01*
X104139249Y-84601894D01*
X104158925Y-84288553D01*
X104211716Y-83989375D01*
X104292245Y-83757454D01*
X104309626Y-83725029D01*
X104436135Y-83532439D01*
X104572069Y-83375266D01*
X104732900Y-83225136D01*
X104957673Y-83449909D01*
G37*
G36*
X101411968Y-54227041D02*
G01*
X101535609Y-54288682D01*
X101635552Y-54414748D01*
X101726536Y-54623992D01*
X101823298Y-54935163D01*
X101872636Y-55099968D01*
X101936239Y-55265655D01*
X101997184Y-55348551D01*
X102068118Y-55371178D01*
X102100052Y-55365895D01*
X102177582Y-55283807D01*
X102211623Y-55126266D01*
X102198977Y-54924260D01*
X102136448Y-54708776D01*
X102133889Y-54702639D01*
X102082288Y-54558005D01*
X102087857Y-54472387D01*
X102153233Y-54396733D01*
X102196757Y-54360057D01*
X102313237Y-54307576D01*
X102407623Y-54361632D01*
X102499143Y-54529612D01*
X102506295Y-54547053D01*
X102568833Y-54814701D01*
X102574638Y-55169282D01*
X102574196Y-55177344D01*
X102527342Y-55502656D01*
X102425341Y-55724371D01*
X102261702Y-55851091D01*
X102029937Y-55891419D01*
X101980833Y-55889727D01*
X101807288Y-55843142D01*
X101669959Y-55721105D01*
X101556002Y-55507971D01*
X101452574Y-55188095D01*
X101416309Y-55060790D01*
X101334281Y-54834752D01*
X101256141Y-54721880D01*
X101175973Y-54716060D01*
X101087860Y-54811178D01*
X101070246Y-54841562D01*
X101021580Y-55054516D01*
X101053930Y-55321295D01*
X101164468Y-55612344D01*
X101218006Y-55734907D01*
X101207954Y-55817221D01*
X101118905Y-55903067D01*
X101012824Y-55978975D01*
X100936991Y-56013829D01*
X100890708Y-55964674D01*
X100818845Y-55833602D01*
X100739031Y-55654921D01*
X100668040Y-55462985D01*
X100647723Y-55368141D01*
X100634911Y-55141337D01*
X100649652Y-54886474D01*
X100690342Y-54661197D01*
X100694845Y-54645429D01*
X100813023Y-54400695D01*
X100997314Y-54257620D01*
X101254149Y-54211069D01*
X101411968Y-54227041D01*
G37*
G36*
X105754356Y-72784291D02*
G01*
X106027388Y-72800094D01*
X106433250Y-72898223D01*
X106755475Y-73083191D01*
X106990485Y-73351640D01*
X107134700Y-73700216D01*
X107184542Y-74125561D01*
X107183764Y-74195175D01*
X107123233Y-74634114D01*
X106965484Y-74999197D01*
X106709336Y-75292403D01*
X106353604Y-75515712D01*
X106222152Y-75570244D01*
X105953272Y-75630686D01*
X105813456Y-75662116D01*
X105409683Y-75647034D01*
X105030130Y-75532678D01*
X104694093Y-75326723D01*
X104420867Y-75036846D01*
X104229748Y-74670726D01*
X104187950Y-74540171D01*
X104138942Y-74261464D01*
X104141734Y-73936909D01*
X104158124Y-73794061D01*
X104206146Y-73553808D01*
X104273002Y-73315167D01*
X104348728Y-73107881D01*
X104423359Y-72961697D01*
X104486933Y-72906359D01*
X104501788Y-72907655D01*
X104613798Y-72950367D01*
X104749541Y-73031549D01*
X104864061Y-73121272D01*
X104912403Y-73189607D01*
X104911248Y-73203725D01*
X104880528Y-73318972D01*
X104820982Y-73478364D01*
X104790020Y-73564630D01*
X104736214Y-73873468D01*
X104748395Y-74194366D01*
X104826255Y-74469549D01*
X104856298Y-74527409D01*
X105047468Y-74750062D01*
X105325922Y-74890818D01*
X105463633Y-74934367D01*
X105463633Y-74185201D01*
X105953272Y-74185201D01*
X105953272Y-74926469D01*
X106147503Y-74847214D01*
X106161176Y-74841502D01*
X106401017Y-74679237D01*
X106546775Y-74439838D01*
X106595922Y-74127358D01*
X106594339Y-74071761D01*
X106527706Y-73798420D01*
X106367895Y-73599791D01*
X106121585Y-73484921D01*
X105953272Y-73443932D01*
X105953272Y-74185201D01*
X105463633Y-74185201D01*
X105463633Y-73859158D01*
X105463633Y-72783949D01*
X105754356Y-72784291D01*
G37*
G36*
X104712203Y-104435957D02*
G01*
X104823944Y-104499464D01*
X104965650Y-104607906D01*
X105171522Y-104783997D01*
X105006036Y-105000959D01*
X104923041Y-105127964D01*
X104813845Y-105438171D01*
X104813382Y-105756981D01*
X104919256Y-106058740D01*
X105129070Y-106317792D01*
X105161045Y-106344647D01*
X105449775Y-106511698D01*
X105792018Y-106607941D01*
X106160709Y-106635853D01*
X106528784Y-106597911D01*
X106869178Y-106496593D01*
X107154824Y-106334375D01*
X107358658Y-106113734D01*
X107425987Y-105974765D01*
X107485550Y-105670861D01*
X107454346Y-105357149D01*
X107333502Y-105079915D01*
X107183612Y-104859040D01*
X107409042Y-104673221D01*
X107483948Y-104615217D01*
X107616601Y-104531667D01*
X107696643Y-104507922D01*
X107738801Y-104543024D01*
X107831798Y-104659437D01*
X107942428Y-104825039D01*
X107988683Y-104901612D01*
X108062397Y-105047251D01*
X108103598Y-105192715D01*
X108121346Y-105378826D01*
X108124700Y-105646407D01*
X108121658Y-105838681D01*
X108102964Y-106078275D01*
X108061230Y-106260087D01*
X107989548Y-106423845D01*
X107868658Y-106609706D01*
X107608120Y-106888454D01*
X107295696Y-107124689D01*
X106973588Y-107282735D01*
X106806435Y-107328519D01*
X106433886Y-107380765D01*
X106024036Y-107390143D01*
X105627183Y-107356719D01*
X105293628Y-107280557D01*
X104999212Y-107143009D01*
X104672913Y-106898177D01*
X104408706Y-106595157D01*
X104236750Y-106262985D01*
X104171766Y-106039473D01*
X104123410Y-105610847D01*
X104185449Y-105193080D01*
X104189798Y-105178005D01*
X104264456Y-104989371D01*
X104371731Y-104789220D01*
X104491317Y-104608519D01*
X104602912Y-104478232D01*
X104686212Y-104429328D01*
X104712203Y-104435957D01*
G37*
G36*
X106196235Y-76366680D02*
G01*
X106550771Y-76491033D01*
X106854890Y-76715049D01*
X107026878Y-76937806D01*
X107156768Y-77267667D01*
X107199651Y-77639633D01*
X107153030Y-78027259D01*
X107014408Y-78404098D01*
X106914729Y-78576126D01*
X106667160Y-78858667D01*
X106351027Y-79049984D01*
X106090009Y-79122851D01*
X105949456Y-79162088D01*
X105802354Y-79180972D01*
X105376714Y-79165178D01*
X104987707Y-79048222D01*
X104652456Y-78839716D01*
X104388086Y-78549273D01*
X104211719Y-78186508D01*
X104160993Y-77966254D01*
X104138472Y-77565652D01*
X104185702Y-77152190D01*
X104299463Y-76777564D01*
X104363691Y-76641300D01*
X104441912Y-76507857D01*
X104494932Y-76456238D01*
X104503885Y-76456695D01*
X104612434Y-76490691D01*
X104748033Y-76559643D01*
X104863784Y-76636736D01*
X104912790Y-76695155D01*
X104911406Y-76707485D01*
X104880260Y-76812758D01*
X104820982Y-76967039D01*
X104736223Y-77265339D01*
X104728852Y-77606393D01*
X104811708Y-77920412D01*
X104977775Y-78182745D01*
X105220034Y-78368738D01*
X105433031Y-78475696D01*
X105444966Y-77710937D01*
X105953272Y-77710937D01*
X105953306Y-77753648D01*
X105958362Y-78075410D01*
X105977546Y-78285965D01*
X106018785Y-78395303D01*
X106090009Y-78413409D01*
X106199146Y-78350271D01*
X106354123Y-78215877D01*
X106389422Y-78181551D01*
X106559322Y-77931800D01*
X106619599Y-77654461D01*
X106564543Y-77372435D01*
X106558214Y-77358030D01*
X106428868Y-77187126D01*
X106241827Y-77058110D01*
X106048118Y-77007082D01*
X106010804Y-77019957D01*
X105981704Y-77077224D01*
X105964161Y-77198514D01*
X105955557Y-77403271D01*
X105953272Y-77710937D01*
X105444966Y-77710937D01*
X105449744Y-77404762D01*
X105466458Y-76333829D01*
X105834240Y-76333829D01*
X106196235Y-76366680D01*
G37*
G36*
X105784958Y-100999712D02*
G01*
X106209158Y-101038912D01*
X106566985Y-101163971D01*
X106849030Y-101379098D01*
X107063043Y-101688470D01*
X107091205Y-101751332D01*
X107163083Y-102033218D01*
X107187993Y-102363590D01*
X107164770Y-102691460D01*
X107092247Y-102965838D01*
X106976917Y-103186328D01*
X106727266Y-103482478D01*
X106419785Y-103695482D01*
X106073338Y-103825795D01*
X106063073Y-103827141D01*
X105706789Y-103873875D01*
X105339001Y-103840176D01*
X104988838Y-103725156D01*
X104675166Y-103529269D01*
X104416846Y-103252972D01*
X104232744Y-102896720D01*
X104187080Y-102752759D01*
X104138743Y-102474230D01*
X104141734Y-102152331D01*
X104156419Y-102019314D01*
X104204243Y-101774477D01*
X104272067Y-101532952D01*
X104349830Y-101324092D01*
X104427472Y-101177251D01*
X104494932Y-101121781D01*
X104503973Y-101122248D01*
X104612475Y-101156275D01*
X104748047Y-101225185D01*
X104863787Y-101302183D01*
X104912790Y-101360477D01*
X104909252Y-101384759D01*
X104876646Y-101504149D01*
X104820982Y-101672624D01*
X104804355Y-101721927D01*
X104729030Y-102098857D01*
X104749205Y-102441885D01*
X104859200Y-102734879D01*
X105053333Y-102961707D01*
X105325922Y-103106240D01*
X105463633Y-103149789D01*
X105463633Y-102369844D01*
X105953272Y-102369844D01*
X105953283Y-102409526D01*
X105956179Y-102721203D01*
X105969928Y-102926160D01*
X106002803Y-103038580D01*
X106063073Y-103072644D01*
X106159012Y-103042534D01*
X106298889Y-102962433D01*
X106368084Y-102913850D01*
X106530524Y-102717386D01*
X106606191Y-102480503D01*
X106599107Y-102231818D01*
X106513297Y-101999949D01*
X106352782Y-101813513D01*
X106121585Y-101701128D01*
X105953272Y-101659354D01*
X105953272Y-102369844D01*
X105463633Y-102369844D01*
X105463633Y-102074580D01*
X105463633Y-100999371D01*
X105784958Y-100999712D01*
G37*
G36*
X105295320Y-94032788D02*
G01*
X105383524Y-94034619D01*
X105802703Y-94046398D01*
X106122506Y-94064241D01*
X106362427Y-94092556D01*
X106541959Y-94135754D01*
X106680598Y-94198244D01*
X106797837Y-94284435D01*
X106913170Y-94398736D01*
X106979828Y-94477822D01*
X107101072Y-94697453D01*
X107167226Y-94974964D01*
X107186788Y-95339579D01*
X107169891Y-95601022D01*
X107100670Y-95966395D01*
X106989614Y-96301437D01*
X106849289Y-96560682D01*
X106820166Y-96598790D01*
X106764262Y-96639183D01*
X106685281Y-96619538D01*
X106543307Y-96536728D01*
X106379752Y-96412333D01*
X106323684Y-96299784D01*
X106376149Y-96191732D01*
X106441276Y-96076682D01*
X106507443Y-95880029D01*
X106561377Y-95649779D01*
X106592567Y-95431154D01*
X106590505Y-95269372D01*
X106541559Y-95128080D01*
X106391984Y-94928490D01*
X106191104Y-94801313D01*
X106150429Y-94795983D01*
X106108739Y-94837390D01*
X106079397Y-94956626D01*
X106054273Y-95175950D01*
X105994812Y-95602856D01*
X105873080Y-96048185D01*
X105700722Y-96388695D01*
X105479483Y-96622000D01*
X105211109Y-96745713D01*
X105016829Y-96752979D01*
X104897345Y-96757447D01*
X104641331Y-96690685D01*
X104406300Y-96528785D01*
X104235752Y-96266527D01*
X104210544Y-96206554D01*
X104145284Y-95998165D01*
X104118471Y-95821990D01*
X104124501Y-95714277D01*
X104155074Y-95562108D01*
X104729175Y-95562108D01*
X104729210Y-95569585D01*
X104770304Y-95798646D01*
X104873688Y-95956960D01*
X105016829Y-96032413D01*
X105177192Y-96012893D01*
X105332242Y-95886285D01*
X105419739Y-95727608D01*
X105503694Y-95480026D01*
X105563346Y-95200742D01*
X105586043Y-94937081D01*
X105584966Y-94878786D01*
X105562826Y-94795538D01*
X105485874Y-94762419D01*
X105320348Y-94756479D01*
X105178585Y-94761469D01*
X105074032Y-94795031D01*
X104991316Y-94884074D01*
X104891914Y-95055485D01*
X104834992Y-95173251D01*
X104758964Y-95388006D01*
X104729175Y-95562108D01*
X104155074Y-95562108D01*
X104182633Y-95424937D01*
X104286094Y-95129284D01*
X104414707Y-94890748D01*
X104543320Y-94710128D01*
X104360826Y-94673629D01*
X104277075Y-94653262D01*
X104210038Y-94607398D01*
X104183214Y-94509232D01*
X104178332Y-94323738D01*
X104178332Y-94010347D01*
X105295320Y-94032788D01*
G37*
G36*
X122564627Y-52015816D02*
G01*
X122573134Y-52041953D01*
X122608730Y-52190708D01*
X122634107Y-52384790D01*
X122650591Y-52643446D01*
X122659509Y-52985920D01*
X122662187Y-53431459D01*
X122662169Y-53482134D01*
X122659671Y-53900807D01*
X122651132Y-54230760D01*
X122633945Y-54502424D01*
X122605499Y-54746231D01*
X122563187Y-54992613D01*
X122504400Y-55272002D01*
X122414727Y-55656371D01*
X122298736Y-56120050D01*
X122163697Y-56635199D01*
X122014138Y-57186368D01*
X121854586Y-57758106D01*
X121689569Y-58334965D01*
X121523615Y-58901492D01*
X121361252Y-59442238D01*
X121207007Y-59941754D01*
X121065408Y-60384587D01*
X120940983Y-60755289D01*
X120838260Y-61038408D01*
X120761766Y-61218496D01*
X120723023Y-61298481D01*
X120690993Y-61396543D01*
X120694191Y-61498767D01*
X120735890Y-61641707D01*
X120819361Y-61861913D01*
X120858214Y-61956983D01*
X120984491Y-62235806D01*
X121138124Y-62546892D01*
X121294177Y-62838933D01*
X121396401Y-63026691D01*
X121592898Y-63420486D01*
X121766809Y-63811612D01*
X121910381Y-64179416D01*
X122015862Y-64503247D01*
X122075500Y-64762454D01*
X122081543Y-64936385D01*
X122071835Y-64970542D01*
X122012806Y-65120238D01*
X121908324Y-65357064D01*
X121765504Y-65665785D01*
X121591459Y-66031168D01*
X121393305Y-66437979D01*
X121178153Y-66870982D01*
X120985640Y-67252912D01*
X120769384Y-67674652D01*
X120571937Y-68047489D01*
X120382066Y-68389995D01*
X120188540Y-68720744D01*
X119980128Y-69058309D01*
X119745596Y-69421263D01*
X119473712Y-69828180D01*
X119153246Y-70297631D01*
X118772965Y-70848192D01*
X118439055Y-71330024D01*
X118439055Y-71844701D01*
X118438315Y-71928871D01*
X118403653Y-72360805D01*
X118312350Y-72735496D01*
X118230390Y-72995538D01*
X118068295Y-73647305D01*
X117963109Y-74296445D01*
X117923375Y-74895516D01*
X117922991Y-74961746D01*
X117926440Y-75225752D01*
X117944176Y-75438299D01*
X117983779Y-75640750D01*
X118052827Y-75874468D01*
X118158901Y-76180817D01*
X118196450Y-76287342D01*
X118299817Y-76606327D01*
X118365678Y-76873121D01*
X118403827Y-77134069D01*
X118424056Y-77435516D01*
X118425745Y-77476065D01*
X118431164Y-77700550D01*
X118424758Y-77897920D01*
X118402294Y-78097175D01*
X118359541Y-78327314D01*
X118292264Y-78617336D01*
X118196231Y-78996238D01*
X118117443Y-79301766D01*
X118018609Y-79691380D01*
X117946590Y-79993524D01*
X117899083Y-80227101D01*
X117873783Y-80411011D01*
X117868387Y-80564155D01*
X117880591Y-80705433D01*
X117908091Y-80853747D01*
X117948584Y-81027997D01*
X117952063Y-81042473D01*
X118027189Y-81326684D01*
X118112491Y-81609587D01*
X118190176Y-81831965D01*
X118253855Y-82021587D01*
X118328177Y-82305073D01*
X118382968Y-82582900D01*
X118386303Y-82604820D01*
X118411532Y-82833783D01*
X118414683Y-83062199D01*
X118392372Y-83309300D01*
X118341218Y-83594317D01*
X118257839Y-83936483D01*
X118138851Y-84355028D01*
X117980874Y-84869184D01*
X117910637Y-85092911D01*
X117789346Y-85484477D01*
X117701111Y-85786430D01*
X117643433Y-86017152D01*
X117613818Y-86195025D01*
X117609768Y-86338431D01*
X117628788Y-86465752D01*
X117668382Y-86595370D01*
X117726053Y-86745669D01*
X117796230Y-86929496D01*
X117855585Y-87111864D01*
X117895959Y-87289834D01*
X117918691Y-87484461D01*
X117925120Y-87716797D01*
X117916587Y-88007893D01*
X117894431Y-88378804D01*
X117859992Y-88850581D01*
X117854703Y-88920077D01*
X117817418Y-89388957D01*
X117783943Y-89757395D01*
X117751389Y-90044645D01*
X117716869Y-90269959D01*
X117677497Y-90452592D01*
X117630385Y-90611798D01*
X117572646Y-90766831D01*
X117551693Y-90822748D01*
X117535355Y-90899536D01*
X117542205Y-90987178D01*
X117578840Y-91105255D01*
X117651855Y-91273349D01*
X117767846Y-91511042D01*
X117933409Y-91837916D01*
X117986584Y-91942785D01*
X118156286Y-92288899D01*
X118280474Y-92569606D01*
X118371375Y-92817250D01*
X118441212Y-93064173D01*
X118502212Y-93342719D01*
X118540641Y-93526447D01*
X118606641Y-93808553D01*
X118670227Y-94045481D01*
X118721753Y-94199587D01*
X118748359Y-94266390D01*
X118821355Y-94466322D01*
X118910277Y-94724296D01*
X119001513Y-95001299D01*
X119150694Y-95433929D01*
X119336297Y-95874617D01*
X119540149Y-96244035D01*
X119778047Y-96570076D01*
X120065786Y-96880631D01*
X120150598Y-96964759D01*
X120332115Y-97157506D01*
X120470682Y-97337215D01*
X120571422Y-97523205D01*
X120639457Y-97734797D01*
X120679910Y-97991311D01*
X120697903Y-98312068D01*
X120698560Y-98716389D01*
X120687003Y-99223593D01*
X120679863Y-99514567D01*
X120676355Y-100013147D01*
X120690900Y-100433734D01*
X120728229Y-100805506D01*
X120793072Y-101157643D01*
X120890160Y-101519321D01*
X121024221Y-101919720D01*
X121199987Y-102388018D01*
X121281567Y-102600304D01*
X121471254Y-103106234D01*
X121645495Y-103587883D01*
X121799307Y-104030348D01*
X121927703Y-104418726D01*
X122025700Y-104738114D01*
X122088313Y-104973610D01*
X122110556Y-105110312D01*
X122110476Y-105115645D01*
X122079530Y-105254546D01*
X122003423Y-105455214D01*
X121897772Y-105676119D01*
X121744438Y-105976108D01*
X121558675Y-106361865D01*
X121365794Y-106781688D01*
X121174511Y-107215008D01*
X120993539Y-107641259D01*
X120831593Y-108039871D01*
X120697387Y-108390276D01*
X120599637Y-108671905D01*
X120547055Y-108864190D01*
X120545096Y-108874541D01*
X120510365Y-109109159D01*
X120476183Y-109423909D01*
X120446391Y-109778887D01*
X120424830Y-110134190D01*
X120385069Y-110975756D01*
X119964071Y-110975756D01*
X119890696Y-110976005D01*
X119721107Y-110973567D01*
X119609104Y-110950618D01*
X119540426Y-110886934D01*
X119500808Y-110762290D01*
X119475987Y-110556459D01*
X119451699Y-110249216D01*
X119448706Y-110209736D01*
X119441083Y-110054565D01*
X119444610Y-109905906D01*
X119463008Y-109743050D01*
X119500001Y-109545288D01*
X119559311Y-109291911D01*
X119644662Y-108962212D01*
X119759776Y-108535481D01*
X119763812Y-108520663D01*
X119920128Y-107967379D01*
X120064341Y-107506654D01*
X120207013Y-107111460D01*
X120358705Y-106754767D01*
X120529977Y-106409546D01*
X120731390Y-106048769D01*
X120764464Y-105989292D01*
X120903880Y-105678627D01*
X121021135Y-105326784D01*
X121101955Y-104982069D01*
X121132067Y-104692787D01*
X121121336Y-104635294D01*
X121063320Y-104468903D01*
X120963497Y-104231064D01*
X120831544Y-103944354D01*
X120677136Y-103631351D01*
X120636015Y-103549653D01*
X120444568Y-103147183D01*
X120250605Y-102708787D01*
X120074686Y-102282164D01*
X119937368Y-101915009D01*
X119825886Y-101587719D01*
X119747796Y-101338767D01*
X119700303Y-101147643D01*
X119677705Y-100985439D01*
X119674302Y-100823242D01*
X119684392Y-100632142D01*
X119713750Y-100364912D01*
X119771280Y-100021735D01*
X119841274Y-99714070D01*
X119920758Y-99346777D01*
X119963531Y-98868527D01*
X119935484Y-98425566D01*
X119838538Y-98040694D01*
X119674615Y-97736713D01*
X119641882Y-97696715D01*
X119494149Y-97539072D01*
X119296269Y-97348004D01*
X119081705Y-97156271D01*
X119011873Y-97094957D01*
X118800376Y-96891628D01*
X118618775Y-96692888D01*
X118500259Y-96534244D01*
X118456210Y-96461969D01*
X118339718Y-96280173D01*
X118245708Y-96145152D01*
X118144168Y-96011576D01*
X118082659Y-96164389D01*
X118048375Y-96258286D01*
X117982443Y-96452022D01*
X117898712Y-96706260D01*
X117807360Y-96990455D01*
X117788439Y-97047088D01*
X117668075Y-97407356D01*
X117471760Y-97917161D01*
X117283547Y-98311491D01*
X117104499Y-98588210D01*
X116935678Y-98745179D01*
X116894150Y-98771266D01*
X116773740Y-98869965D01*
X116725320Y-98949725D01*
X116753407Y-99057906D01*
X116834616Y-99257252D01*
X116960561Y-99530131D01*
X117122843Y-99860175D01*
X117313065Y-100231018D01*
X117522828Y-100626292D01*
X117743732Y-101029631D01*
X117967379Y-101424667D01*
X118185371Y-101795034D01*
X118229599Y-101868500D01*
X118481582Y-102293599D01*
X118670276Y-102639976D01*
X118796381Y-102929796D01*
X118860598Y-103185230D01*
X118863627Y-103428445D01*
X118806169Y-103681609D01*
X118688924Y-103966890D01*
X118512593Y-104306456D01*
X118277876Y-104722475D01*
X118255862Y-104760960D01*
X118093704Y-105041225D01*
X117944392Y-105294150D01*
X117823685Y-105493304D01*
X117747340Y-105612260D01*
X117744279Y-105616703D01*
X117667647Y-105744219D01*
X117553604Y-105952467D01*
X117417042Y-106213589D01*
X117272857Y-106499729D01*
X117264429Y-106516704D01*
X117086916Y-106852538D01*
X116866858Y-107238761D01*
X116631437Y-107628959D01*
X116407836Y-107976720D01*
X116337310Y-108081078D01*
X116113208Y-108404508D01*
X115868280Y-108748047D01*
X115613929Y-109096666D01*
X115361562Y-109435334D01*
X115122581Y-109749021D01*
X114908393Y-110022697D01*
X114730401Y-110241330D01*
X114600010Y-110389892D01*
X114528625Y-110453352D01*
X114468476Y-110466459D01*
X114329709Y-110452779D01*
X114289023Y-110432370D01*
X114225271Y-110314249D01*
X114233472Y-110114545D01*
X114310184Y-109843500D01*
X114451969Y-109511354D01*
X114655384Y-109128348D01*
X114916991Y-108704723D01*
X115238013Y-108214297D01*
X115714081Y-107479016D01*
X116156905Y-106785269D01*
X116562510Y-106139675D01*
X116926925Y-105548854D01*
X117246176Y-105019425D01*
X117516290Y-104558008D01*
X117733295Y-104171222D01*
X117893217Y-103865686D01*
X117992084Y-103648020D01*
X118025922Y-103524843D01*
X118007149Y-103416013D01*
X117933632Y-103283139D01*
X117899948Y-103261467D01*
X117851770Y-103268093D01*
X117782474Y-103317940D01*
X117681576Y-103421937D01*
X117538590Y-103591009D01*
X117343032Y-103836082D01*
X117084415Y-104168084D01*
X116755270Y-104591704D01*
X116280863Y-105197851D01*
X115811331Y-105792870D01*
X115353048Y-106368974D01*
X114912386Y-106918380D01*
X114495718Y-107433304D01*
X114109417Y-107905960D01*
X113759856Y-108328564D01*
X113453409Y-108693332D01*
X113196448Y-108992478D01*
X112995345Y-109218218D01*
X112856475Y-109362769D01*
X112786210Y-109418344D01*
X112733636Y-109430455D01*
X112517513Y-109443902D01*
X112385402Y-109373581D01*
X112330007Y-109216259D01*
X112329417Y-109209688D01*
X112333744Y-109111387D01*
X112370754Y-109000680D01*
X112451861Y-108857155D01*
X112588479Y-108660397D01*
X112792023Y-108389994D01*
X113194528Y-107867154D01*
X113706057Y-107209566D01*
X114161398Y-106632774D01*
X114555580Y-106143059D01*
X114883633Y-105746706D01*
X114944939Y-105673326D01*
X115143452Y-105428948D01*
X115377556Y-105133133D01*
X115637176Y-104799336D01*
X115912240Y-104441012D01*
X116192671Y-104071615D01*
X116468397Y-103704602D01*
X116729343Y-103353426D01*
X116965435Y-103031543D01*
X117166599Y-102752408D01*
X117322760Y-102529475D01*
X117423844Y-102376200D01*
X117459778Y-102306038D01*
X117438362Y-102239997D01*
X117365740Y-102085939D01*
X117253871Y-101873006D01*
X117115415Y-101626189D01*
X116748917Y-100975475D01*
X116370535Y-100261806D01*
X116052409Y-99611572D01*
X115802686Y-99040817D01*
X115714253Y-98828657D01*
X115592219Y-98553085D01*
X115481897Y-98321842D01*
X115399462Y-98169864D01*
X115332019Y-98049874D01*
X115262192Y-97841814D01*
X115282383Y-97691643D01*
X115392743Y-97611729D01*
X115399406Y-97610070D01*
X115519914Y-97609445D01*
X115662876Y-97669492D01*
X115847186Y-97801117D01*
X116091737Y-98015228D01*
X116214147Y-98117985D01*
X116350295Y-98206748D01*
X116433642Y-98229191D01*
X116445894Y-98219762D01*
X116509459Y-98121563D01*
X116603268Y-97936174D01*
X116718621Y-97684879D01*
X116846819Y-97388962D01*
X116979162Y-97069709D01*
X117106951Y-96748404D01*
X117221486Y-96446331D01*
X117314068Y-96184776D01*
X117375997Y-95985022D01*
X117398573Y-95868356D01*
X117398274Y-95847316D01*
X117376773Y-95625433D01*
X117328057Y-95337804D01*
X117261682Y-95029386D01*
X117187201Y-94745140D01*
X117114168Y-94530023D01*
X117084559Y-94461514D01*
X116999905Y-94272637D01*
X116881306Y-94012723D01*
X116740149Y-93706669D01*
X116587824Y-93379371D01*
X116466838Y-93120054D01*
X116137255Y-92407053D01*
X115877207Y-91834695D01*
X116802676Y-91834695D01*
X116838564Y-91953657D01*
X116920777Y-92155319D01*
X117052153Y-92448594D01*
X117235530Y-92842395D01*
X117418325Y-93224861D01*
X117587195Y-93561814D01*
X117710615Y-93786281D01*
X117788439Y-93898127D01*
X117820519Y-93897216D01*
X117806707Y-93783411D01*
X117746856Y-93556577D01*
X117640819Y-93216577D01*
X117493981Y-92817936D01*
X117309814Y-92421639D01*
X117115504Y-92095772D01*
X116924522Y-91865747D01*
X116858522Y-91809224D01*
X116810275Y-91789522D01*
X116803716Y-91828513D01*
X116802676Y-91834695D01*
X115877207Y-91834695D01*
X115854818Y-91785417D01*
X115620824Y-91258152D01*
X115436570Y-90828262D01*
X115303352Y-90498753D01*
X115222468Y-90272628D01*
X115195215Y-90152893D01*
X115195408Y-90142027D01*
X115226223Y-89967020D01*
X115293692Y-89780116D01*
X115333959Y-89690017D01*
X115354452Y-89599226D01*
X115337522Y-89498322D01*
X115276652Y-89354561D01*
X115165325Y-89135202D01*
X115001988Y-88763491D01*
X114889400Y-88301185D01*
X114840334Y-87905543D01*
X114308453Y-87402074D01*
X114186223Y-87285306D01*
X113989108Y-87086296D01*
X113836521Y-86907146D01*
X113704653Y-86715038D01*
X113569694Y-86477153D01*
X113407836Y-86160674D01*
X113407548Y-86160097D01*
X113243750Y-85844718D01*
X113070313Y-85531353D01*
X112907899Y-85256215D01*
X112777173Y-85055516D01*
X112722983Y-84987935D01*
X112582233Y-84829000D01*
X112447401Y-84682980D01*
X112378703Y-84608581D01*
X112125742Y-84340355D01*
X111836697Y-84038004D01*
X111524917Y-83715207D01*
X111203750Y-83385644D01*
X110886544Y-83062994D01*
X110586648Y-82760937D01*
X110317410Y-82493153D01*
X110092179Y-82273322D01*
X109924302Y-82115123D01*
X109827129Y-82032235D01*
X109796640Y-82004117D01*
X109700957Y-81898798D01*
X109577866Y-81751811D01*
X109495356Y-81643906D01*
X109421063Y-81506894D01*
X109388167Y-81349710D01*
X109387067Y-81315899D01*
X110237609Y-81315899D01*
X110237896Y-81318208D01*
X110287203Y-81388507D01*
X110410520Y-81525191D01*
X110592475Y-81713512D01*
X110817701Y-81938720D01*
X111070826Y-82186067D01*
X111336483Y-82440805D01*
X111599300Y-82688185D01*
X111843909Y-82913458D01*
X112054941Y-83101877D01*
X112217024Y-83238692D01*
X112314792Y-83309155D01*
X112346517Y-83325480D01*
X112447401Y-83353176D01*
X112509328Y-83302196D01*
X112529692Y-83258432D01*
X112535094Y-83145539D01*
X112532917Y-83139056D01*
X112510661Y-83006538D01*
X112491919Y-82780656D01*
X112477135Y-82488008D01*
X112470490Y-82275058D01*
X113309249Y-82275058D01*
X113316017Y-82609545D01*
X113366803Y-82997472D01*
X113396480Y-83121285D01*
X113470449Y-83351361D01*
X113573701Y-83633184D01*
X113694731Y-83938836D01*
X113822035Y-84240394D01*
X113944107Y-84509938D01*
X114049443Y-84719547D01*
X114126540Y-84841299D01*
X114149533Y-84872996D01*
X114230076Y-85007628D01*
X114339182Y-85207952D01*
X114460010Y-85443553D01*
X114503391Y-85527751D01*
X114679459Y-85837405D01*
X114885451Y-86165387D01*
X115085290Y-86453433D01*
X115095271Y-86466885D01*
X115339747Y-86814475D01*
X115511069Y-87107754D01*
X115622163Y-87377909D01*
X115685956Y-87656129D01*
X115715374Y-87973599D01*
X115724112Y-88124389D01*
X115755693Y-88381227D01*
X115818625Y-88579608D01*
X115929937Y-88763132D01*
X116106658Y-88975400D01*
X116185566Y-89067240D01*
X116366631Y-89294396D01*
X116528294Y-89515413D01*
X116622267Y-89639143D01*
X116731716Y-89750160D01*
X116803716Y-89783264D01*
X116810122Y-89779369D01*
X116853397Y-89692119D01*
X116905080Y-89511836D01*
X116960839Y-89262877D01*
X117016344Y-88969594D01*
X117067265Y-88656344D01*
X117109270Y-88347481D01*
X117138028Y-88067360D01*
X117149209Y-87840335D01*
X117149259Y-87828764D01*
X117147299Y-87682283D01*
X117136399Y-87549574D01*
X117110804Y-87409268D01*
X117064758Y-87240001D01*
X116992507Y-87020403D01*
X116888294Y-86729109D01*
X116746365Y-86344751D01*
X116739750Y-86326733D01*
X116699584Y-86191046D01*
X116688812Y-86058499D01*
X116708114Y-85888609D01*
X116758169Y-85640896D01*
X116758275Y-85640407D01*
X116826005Y-85369598D01*
X116906181Y-85104523D01*
X116981469Y-84902503D01*
X117069951Y-84680273D01*
X117173280Y-84378825D01*
X117276382Y-84043198D01*
X117370980Y-83703253D01*
X117448797Y-83388848D01*
X117501557Y-83129844D01*
X117520982Y-82956101D01*
X117504071Y-82764960D01*
X117453928Y-82477097D01*
X117377140Y-82127792D01*
X117280343Y-81744939D01*
X117170174Y-81356430D01*
X117053268Y-80990160D01*
X117027740Y-80912884D01*
X116947950Y-80588494D01*
X116936022Y-80296110D01*
X116994228Y-79992733D01*
X117124839Y-79635363D01*
X117129358Y-79624517D01*
X117248967Y-79265512D01*
X117356213Y-78804060D01*
X117447333Y-78259139D01*
X117518564Y-77649732D01*
X117531933Y-77500440D01*
X117547876Y-77230425D01*
X117541931Y-77013903D01*
X117511306Y-76804054D01*
X117453208Y-76554063D01*
X117447621Y-76532395D01*
X117366762Y-76256362D01*
X117273966Y-75990290D01*
X117188224Y-75789003D01*
X117145868Y-75699999D01*
X117057332Y-75482155D01*
X117001618Y-75300446D01*
X116991469Y-75258227D01*
X116926348Y-75051695D01*
X116842409Y-74841410D01*
X116753885Y-74543754D01*
X116738838Y-74166717D01*
X116817056Y-73796172D01*
X116838035Y-73735032D01*
X116877853Y-73598439D01*
X116884918Y-73535194D01*
X116882239Y-73533980D01*
X116817987Y-73563416D01*
X116704061Y-73644402D01*
X116654673Y-73685993D01*
X116582146Y-73779749D01*
X116549252Y-73910045D01*
X116541364Y-74119596D01*
X116529853Y-74389380D01*
X116466194Y-74710335D01*
X116333238Y-74985903D01*
X116115704Y-75256914D01*
X115965977Y-75427541D01*
X115816011Y-75621277D01*
X115718567Y-75773922D01*
X115676751Y-75892235D01*
X115619097Y-76111393D01*
X115552139Y-76405743D01*
X115481152Y-76752046D01*
X115411410Y-77127063D01*
X115411230Y-77128083D01*
X115343835Y-77496328D01*
X115278370Y-77829581D01*
X115219401Y-78106409D01*
X115171494Y-78305374D01*
X115139213Y-78405042D01*
X115096954Y-78474809D01*
X114991797Y-78634563D01*
X114847157Y-78846548D01*
X114681172Y-79083881D01*
X114374376Y-79546135D01*
X113886514Y-80440887D01*
X113512544Y-81369174D01*
X113444213Y-81582624D01*
X113350610Y-81948065D01*
X113309249Y-82275058D01*
X112470490Y-82275058D01*
X112466750Y-82155192D01*
X112461208Y-81808804D01*
X112460953Y-81475443D01*
X112466428Y-81181706D01*
X112478075Y-80954190D01*
X112496339Y-80819492D01*
X112540177Y-80689168D01*
X112681142Y-80382955D01*
X112895164Y-80000251D01*
X113176714Y-79550645D01*
X113520263Y-79043727D01*
X113533566Y-79024673D01*
X113785868Y-78644204D01*
X114026166Y-78248224D01*
X114244688Y-77855980D01*
X114431661Y-77486719D01*
X114577312Y-77159687D01*
X114671870Y-76894132D01*
X114705561Y-76709301D01*
X114704450Y-76657664D01*
X114686805Y-76507697D01*
X114654495Y-76431902D01*
X114621375Y-76434764D01*
X114509945Y-76515821D01*
X114329026Y-76693829D01*
X114077877Y-76969542D01*
X113755760Y-77343708D01*
X113678794Y-77433573D01*
X113475445Y-77665068D01*
X113225291Y-77944458D01*
X112952982Y-78244312D01*
X112683167Y-78537202D01*
X112452026Y-78787222D01*
X112127863Y-79140363D01*
X111775905Y-79525889D01*
X111425261Y-79911901D01*
X111105039Y-80266504D01*
X111020035Y-80361405D01*
X110770629Y-80644857D01*
X110555583Y-80896671D01*
X110386998Y-81102208D01*
X110276973Y-81246831D01*
X110237609Y-81315899D01*
X109387067Y-81315899D01*
X109380741Y-81121423D01*
X109384157Y-80970293D01*
X109407128Y-80779065D01*
X109462050Y-80600628D01*
X109560769Y-80408481D01*
X109715132Y-80176119D01*
X109936985Y-79877042D01*
X110057009Y-79720042D01*
X110530851Y-79118021D01*
X111003739Y-78548708D01*
X111499662Y-77984627D01*
X112042609Y-77398303D01*
X112656570Y-76762263D01*
X112925839Y-76484609D01*
X113284110Y-76105630D01*
X113621028Y-75738882D01*
X113920062Y-75402715D01*
X114164680Y-75115476D01*
X114338353Y-74895516D01*
X114509939Y-74667250D01*
X114722962Y-74394436D01*
X114919411Y-74153140D01*
X115072047Y-73977443D01*
X115209212Y-73824664D01*
X115404310Y-73595987D01*
X115564661Y-73395997D01*
X115599875Y-73350346D01*
X115729101Y-73186271D01*
X115914878Y-72953121D01*
X116142815Y-72668863D01*
X116398523Y-72351463D01*
X116667612Y-72018889D01*
X117066570Y-71524276D01*
X117597502Y-70855302D01*
X118056613Y-70261466D01*
X118450331Y-69733640D01*
X118785085Y-69262695D01*
X119067303Y-68839503D01*
X119303413Y-68454935D01*
X119499844Y-68099861D01*
X119663023Y-67765154D01*
X119785529Y-67502198D01*
X119956936Y-67145674D01*
X120154607Y-66742860D01*
X120362769Y-66325884D01*
X120565646Y-65926873D01*
X120775612Y-65516992D01*
X120942136Y-65177305D01*
X121056920Y-64906327D01*
X121121575Y-64683288D01*
X121137714Y-64487422D01*
X121106949Y-64297960D01*
X121030892Y-64094133D01*
X120911156Y-63855174D01*
X120749352Y-63560315D01*
X120599200Y-63283022D01*
X120391073Y-62885283D01*
X120187701Y-62484068D01*
X120017215Y-62134175D01*
X119861154Y-61821088D01*
X119616292Y-61404530D01*
X119377121Y-61093829D01*
X119211658Y-60909895D01*
X118954364Y-60615066D01*
X118700656Y-60315343D01*
X118470284Y-60034537D01*
X118283002Y-59796457D01*
X118158561Y-59624913D01*
X118127072Y-59572435D01*
X118032263Y-59380896D01*
X117924990Y-59129920D01*
X117822951Y-58859853D01*
X117595725Y-58285074D01*
X117298387Y-57689764D01*
X116934627Y-57101941D01*
X116490737Y-56499620D01*
X115953010Y-55860817D01*
X115706087Y-55577508D01*
X115307082Y-55095147D01*
X114916054Y-54587915D01*
X114511714Y-54027800D01*
X114072773Y-53386791D01*
X113936486Y-53182023D01*
X113787494Y-52948551D01*
X113690707Y-52775953D01*
X113635154Y-52640918D01*
X113609866Y-52520135D01*
X113603874Y-52390291D01*
X113608620Y-52253733D01*
X113639752Y-52115723D01*
X113707256Y-52053207D01*
X113710194Y-52052200D01*
X113811806Y-52081580D01*
X113974730Y-52208368D01*
X114194093Y-52427361D01*
X114465021Y-52733354D01*
X114782641Y-53121142D01*
X115142079Y-53585522D01*
X115194324Y-53654272D01*
X115433147Y-53961263D01*
X115677242Y-54265052D01*
X115900715Y-54533806D01*
X116077675Y-54735695D01*
X116389506Y-55077680D01*
X116689317Y-55414980D01*
X116924534Y-55692088D01*
X117106940Y-55923433D01*
X117248319Y-56123445D01*
X117360453Y-56306554D01*
X117470047Y-56493650D01*
X117644204Y-56775584D01*
X117810033Y-57029850D01*
X117958619Y-57258968D01*
X118250988Y-57794266D01*
X118499436Y-58390397D01*
X118573040Y-58570086D01*
X118716609Y-58865722D01*
X118865658Y-59124854D01*
X118902891Y-59178861D01*
X119045585Y-59356580D01*
X119231171Y-59561482D01*
X119439053Y-59773693D01*
X119648636Y-59973340D01*
X119839324Y-60140550D01*
X119990521Y-60255450D01*
X120081631Y-60298166D01*
X120093498Y-60297084D01*
X120139251Y-60270930D01*
X120191638Y-60200753D01*
X120255798Y-60074468D01*
X120336869Y-59879990D01*
X120439992Y-59605234D01*
X120570305Y-59238115D01*
X120732947Y-58766546D01*
X120850406Y-58417269D01*
X121219326Y-57221417D01*
X121506124Y-56114895D01*
X121711001Y-55096750D01*
X121834157Y-54166032D01*
X121875791Y-53321791D01*
X121875798Y-53287995D01*
X121867140Y-52833352D01*
X121839921Y-52481970D01*
X121791074Y-52216777D01*
X121717534Y-52020704D01*
X121616234Y-51876679D01*
X121477958Y-51729491D01*
X121972512Y-51729491D01*
X122467066Y-51729491D01*
X122564627Y-52015816D01*
G37*
D15*
%TO.C,C16*%
X128476500Y-89792500D02*
X135932063Y-89792500D01*
X128476500Y-92542500D02*
X128476500Y-89792500D01*
X128476500Y-95562500D02*
X128476500Y-98312500D01*
X128476500Y-98312500D02*
X135932063Y-98312500D01*
X135932063Y-89792500D02*
X136996500Y-90856937D01*
X135932063Y-98312500D02*
X136996500Y-97248063D01*
X136996500Y-92542500D02*
X136996500Y-90856937D01*
X136996500Y-95562500D02*
X136996500Y-97248063D01*
X137236500Y-91542500D02*
X138236500Y-91542500D01*
X137736500Y-92042500D02*
X137736500Y-91042500D01*
%TO.C,J3*%
X146271500Y-66607500D02*
X146271500Y-51487500D01*
X149231500Y-66607500D02*
X149231500Y-51487500D01*
X150293500Y-60082500D02*
X150257500Y-60117500D01*
X150293500Y-65082500D02*
X150257500Y-65117500D01*
X150509500Y-60275500D02*
X150463500Y-60322500D01*
X150509500Y-65275500D02*
X150463500Y-65322500D01*
X152601500Y-57773500D02*
X152555500Y-57820500D01*
X152601500Y-62773500D02*
X152555500Y-62820500D01*
X152806500Y-57978500D02*
X152771500Y-58013500D01*
X152806500Y-62978500D02*
X152771500Y-63013500D01*
X154132500Y-66607500D02*
X154132500Y-51487500D01*
X155632500Y-66607500D02*
X155632500Y-51487500D01*
X156192500Y-51487500D02*
X146271500Y-51487500D01*
X156192500Y-66607500D02*
X146271500Y-66607500D01*
X156192500Y-66607500D02*
X156192500Y-51487500D01*
X156432500Y-51247500D02*
X155692500Y-51247500D01*
X156432500Y-51747500D02*
X156432500Y-51247500D01*
X149997500Y-54731500D02*
G75*
G02*
X149997073Y-53364458I1534993J684001D01*
G01*
X150848500Y-52512500D02*
G75*
G02*
X152215542Y-52512073I684001J-1534993D01*
G01*
X152216500Y-55582500D02*
G75*
G02*
X150849458Y-55582927I-684001J1535004D01*
G01*
X153067500Y-53363500D02*
G75*
G02*
X153212753Y-54076305I-1535001J-683999D01*
G01*
X153212500Y-54047500D02*
G75*
G02*
X153067256Y-54730818I-1680000J0D01*
G01*
X153212500Y-59047500D02*
G75*
G02*
X149852500Y-59047500I-1680000J0D01*
G01*
X149852500Y-59047500D02*
G75*
G02*
X153212500Y-59047500I1680000J0D01*
G01*
X153212500Y-64047500D02*
G75*
G02*
X149852500Y-64047500I-1680000J0D01*
G01*
X149852500Y-64047500D02*
G75*
G02*
X153212500Y-64047500I1680000J0D01*
G01*
%TO.C,J4*%
X146196500Y-100897500D02*
X146196500Y-85777500D01*
X149156500Y-100897500D02*
X149156500Y-85777500D01*
X150218500Y-94372500D02*
X150182500Y-94407500D01*
X150218500Y-99372500D02*
X150182500Y-99407500D01*
X150434500Y-94565500D02*
X150388500Y-94612500D01*
X150434500Y-99565500D02*
X150388500Y-99612500D01*
X152526500Y-92063500D02*
X152480500Y-92110500D01*
X152526500Y-97063500D02*
X152480500Y-97110500D01*
X152731500Y-92268500D02*
X152696500Y-92303500D01*
X152731500Y-97268500D02*
X152696500Y-97303500D01*
X154057500Y-100897500D02*
X154057500Y-85777500D01*
X155557500Y-100897500D02*
X155557500Y-85777500D01*
X156117500Y-85777500D02*
X146196500Y-85777500D01*
X156117500Y-100897500D02*
X146196500Y-100897500D01*
X156117500Y-100897500D02*
X156117500Y-85777500D01*
X156357500Y-85537500D02*
X155617500Y-85537500D01*
X156357500Y-86037500D02*
X156357500Y-85537500D01*
X149922500Y-89021500D02*
G75*
G02*
X149922073Y-87654458I1534993J684001D01*
G01*
X150773500Y-86802500D02*
G75*
G02*
X152140542Y-86802073I684001J-1534993D01*
G01*
X152141500Y-89872500D02*
G75*
G02*
X150774458Y-89872927I-684001J1535004D01*
G01*
X152992500Y-87653500D02*
G75*
G02*
X153137753Y-88366305I-1535001J-683999D01*
G01*
X153137500Y-88337500D02*
G75*
G02*
X152992256Y-89020818I-1680000J0D01*
G01*
X153137500Y-93337500D02*
G75*
G02*
X149777500Y-93337500I-1680000J0D01*
G01*
X149777500Y-93337500D02*
G75*
G02*
X153137500Y-93337500I1680000J0D01*
G01*
X153137500Y-98337500D02*
G75*
G02*
X149777500Y-98337500I-1680000J0D01*
G01*
X149777500Y-98337500D02*
G75*
G02*
X153137500Y-98337500I1680000J0D01*
G01*
%TO.C,JP4*%
X125386500Y-84560500D02*
X125386500Y-81760500D01*
X126086500Y-81110500D02*
X126686500Y-81110500D01*
X126686500Y-85210500D02*
X126086500Y-85210500D01*
X127386500Y-81760500D02*
X127386500Y-84560500D01*
X127886500Y-81660500D02*
X127586500Y-81960500D01*
X127886500Y-82260500D02*
X127586500Y-81960500D01*
X127886500Y-82260500D02*
X127886500Y-81660500D01*
X125386500Y-81810500D02*
G75*
G02*
X126086500Y-81110500I699999J1D01*
G01*
X126086500Y-85210500D02*
G75*
G02*
X125386500Y-84510500I0J700000D01*
G01*
X126686500Y-81110500D02*
G75*
G02*
X127386500Y-81810500I1J-699999D01*
G01*
X127386500Y-84510500D02*
G75*
G02*
X126686500Y-85210500I-700000J0D01*
G01*
%TO.C,K1*%
X128846500Y-71520500D02*
X128846500Y-71060500D01*
X128846500Y-76600500D02*
X128846500Y-73180500D01*
X128846500Y-86340500D02*
X128846500Y-85880500D01*
X132446500Y-71750500D02*
X132446500Y-72950500D01*
X132446500Y-72150500D02*
X133146500Y-72550500D01*
X132446500Y-72950500D02*
X133146500Y-72950500D01*
X132446500Y-84450500D02*
X132446500Y-85650500D01*
X132446500Y-84850500D02*
X133146500Y-85250500D01*
X132446500Y-85650500D02*
X133146500Y-85650500D01*
X133146500Y-71750500D02*
X132446500Y-71750500D01*
X133146500Y-72950500D02*
X133146500Y-71750500D01*
X133146500Y-84450500D02*
X132446500Y-84450500D01*
X133146500Y-85650500D02*
X133146500Y-84450500D01*
X136626500Y-71060500D02*
X128846500Y-71060500D01*
X136626500Y-71520500D02*
X136626500Y-71060500D01*
X136626500Y-76600500D02*
X136626500Y-73180500D01*
X136626500Y-86340500D02*
X128846500Y-86340500D01*
X136626500Y-86340500D02*
X136626500Y-85880500D01*
X136816500Y-71520500D02*
X136626500Y-71520500D01*
X136816500Y-73180500D02*
X136626500Y-73180500D01*
%TO.C,JP5*%
X124886500Y-78980500D02*
X124886500Y-79580500D01*
X124886500Y-78980500D02*
X125186500Y-79280500D01*
X124886500Y-79580500D02*
X125186500Y-79280500D01*
X125386500Y-79480500D02*
X125386500Y-76680500D01*
X126086500Y-76030500D02*
X126686500Y-76030500D01*
X126686500Y-80130500D02*
X126086500Y-80130500D01*
X127386500Y-76680500D02*
X127386500Y-79480500D01*
X125386500Y-76730500D02*
G75*
G02*
X126086500Y-76030500I700000J0D01*
G01*
X126086500Y-80130500D02*
G75*
G02*
X125386500Y-79430500I-1J699999D01*
G01*
X126686500Y-76030500D02*
G75*
G02*
X127386500Y-76730500I0J-700000D01*
G01*
X127386500Y-79430500D02*
G75*
G02*
X126686500Y-80130500I-699999J-1D01*
G01*
%TD*%
%LPC*%
D17*
%TO.C,DISP1*%
X88762500Y-48832500D03*
X88762500Y-103712500D03*
X190762500Y-48832500D03*
X190762500Y-103712500D03*
D18*
X87762500Y-59762500D03*
D19*
X87762500Y-62302500D03*
X87762500Y-64842500D03*
X87762500Y-67382500D03*
X87762500Y-69922500D03*
X87762500Y-72462500D03*
X87762500Y-75002500D03*
X87762500Y-77542500D03*
X87762500Y-80082500D03*
X87762500Y-82622500D03*
X87762500Y-85162500D03*
X87762500Y-87742500D03*
X87762500Y-90242500D03*
X87762500Y-92782500D03*
%TD*%
D20*
%TO.C,J6*%
X195155500Y-83988500D03*
X195155500Y-78208500D03*
D21*
X194635500Y-85418500D03*
D22*
X198835500Y-85418500D03*
D21*
X194635500Y-76778500D03*
D22*
X198835500Y-76778500D03*
%TD*%
D23*
%TO.C,C15*%
X136038500Y-65350500D03*
X129538500Y-65350500D03*
%TD*%
D24*
%TO.C,J1*%
X135784500Y-53682500D03*
D25*
X135784500Y-55682500D03*
%TD*%
D26*
%TO.C,J5*%
X151532500Y-71192500D03*
D27*
X151532500Y-76192500D03*
X151532500Y-81192500D03*
%TD*%
D23*
%TO.C,C16*%
X135986500Y-94052500D03*
X129486500Y-94052500D03*
%TD*%
D26*
%TO.C,J3*%
X151532500Y-54047500D03*
D27*
X151532500Y-59047500D03*
X151532500Y-64047500D03*
%TD*%
D26*
%TO.C,J4*%
X151457500Y-88337500D03*
D27*
X151457500Y-93337500D03*
X151457500Y-98337500D03*
%TD*%
D28*
%TO.C,JP4*%
X126386500Y-81860500D03*
D29*
X126386500Y-83160500D03*
D30*
X126386500Y-84460500D03*
%TD*%
D31*
%TO.C,K1*%
X135881500Y-72350500D03*
X135881500Y-77430500D03*
X135881500Y-79970500D03*
X135881500Y-82510500D03*
X135881500Y-85050500D03*
X129591500Y-85050500D03*
X129591500Y-82510500D03*
X129591500Y-79970500D03*
X129591500Y-77430500D03*
X129591500Y-72350500D03*
%TD*%
D32*
%TO.C,JP5*%
X126386500Y-79380500D03*
D29*
X126386500Y-78080500D03*
D33*
X126386500Y-76780500D03*
%TD*%
%LPD*%
M02*
