M48
; DRILL file {KiCad 9.0.7} date 2026-02-15T14:56:54-0800
; FORMAT={-:-/ absolute / inch / decimal}
; #@! TF.CreationDate,2026-02-15T14:56:54-08:00
; #@! TF.GenerationSoftware,Kicad,Pcbnew,9.0.7
; #@! TF.FileFunction,Plated,1,2,PTH
FMAT,2
INCH
; #@! TA.AperFunction,Plated,PTH,ViaDrill
T1C0.0118
; #@! TA.AperFunction,Plated,PTH,ViaDrill
T2C0.0150
; #@! TA.AperFunction,Plated,PTH,ComponentDrill
T3C0.0236
; #@! TA.AperFunction,Plated,PTH,ViaDrill
T4C0.0295
; #@! TA.AperFunction,Plated,PTH,ComponentDrill
T5C0.0354
; #@! TA.AperFunction,Plated,PTH,ComponentDrill
T6C0.0433
; #@! TA.AperFunction,Plated,PTH,ComponentDrill
T7C0.0461
; #@! TA.AperFunction,Plated,PTH,ComponentDrill
T8C0.0472
; #@! TA.AperFunction,Plated,PTH,ComponentDrill
T9C0.0512
; #@! TA.AperFunction,Plated,PTH,ComponentDrill
T10C0.0520
; #@! TA.AperFunction,Plated,PTH,ComponentDrill
T11C0.0591
%
G90
G05
T1
X3.7173Y-5.2921
X3.9961Y-4.9311
X4.0453Y-4.9311
X4.0945Y-4.9311
X4.1496Y-4.9311
X4.1929Y-5.6988
X4.3406Y-4.9311
X4.3602Y-4.8917
X4.3701Y-4.8524
X4.3799Y-5.1013
X4.3799Y-5.1349
X4.3898Y-4.7736
X4.3898Y-4.813
X4.3898Y-5.5217
X4.3996Y-4.7343
X4.6457Y-3.878
X5.2854Y-5.6988
T2
X2.0472Y-4.5276
X2.0472Y-4.6063
X2.0472Y-4.685
X2.0866Y-2.874
X2.0866Y-2.9528
X2.0866Y-3.0315
X2.126Y-4.5276
X2.126Y-4.6063
X2.126Y-4.685
X2.126Y-4.7638
X2.126Y-4.8425
X2.126Y-5.0
X2.126Y-5.0787
X2.1654Y-2.9528
X2.1654Y-3.0315
X2.1654Y-3.1102
X2.1654Y-3.189
X2.1654Y-3.3071
X2.1654Y-3.3858
X2.1654Y-3.4646
X2.2047Y-4.6063
X2.2047Y-4.685
X2.2047Y-4.7638
X2.2047Y-4.8425
X2.2047Y-5.0
X2.2047Y-5.0787
X2.2244Y-5.4626
X2.2244Y-5.5217
X2.2441Y-3.0315
X2.2441Y-3.1102
X2.2441Y-3.189
X2.2441Y-3.3071
X2.2441Y-3.3858
X2.2441Y-3.4646
X2.2441Y-3.5433
X2.2539Y-5.7087
X2.2539Y-5.748
X2.2835Y-4.685
X2.2835Y-4.7638
X2.2835Y-4.8425
X2.2835Y-5.0
X2.2835Y-5.0787
X2.3228Y-3.1102
X2.3228Y-3.189
X2.3228Y-3.3071
X2.3228Y-3.3858
X2.3228Y-3.4646
X2.3228Y-3.5433
X2.3228Y-3.622
X2.3327Y-5.5709
X2.3425Y-5.6398
X2.3425Y-5.689
X2.3425Y-5.7382
X2.3524Y-5.374
X2.3622Y-2.874
X2.3622Y-4.5276
X2.3622Y-5.0787
X2.4016Y-3.4646
X2.4016Y-3.5433
X2.4016Y-3.622
X2.4016Y-3.7008
X2.4213Y-5.5807
X2.4409Y-2.9528
X2.4409Y-4.6063
X2.4409Y-5.0
X2.4409Y-5.0787
X2.4803Y-3.4646
X2.4803Y-3.5433
X2.4803Y-3.622
X2.4803Y-3.7008
X2.4803Y-5.6594
X2.5197Y-3.0315
X2.5197Y-4.685
X2.5197Y-5.0
X2.5197Y-5.0787
X2.5197Y-5.8465
X2.5492Y-5.9744
X2.5591Y-3.5433
X2.5591Y-3.622
X2.5591Y-3.7008
X2.5591Y-5.8071
X2.5591Y-5.8858
X2.5984Y-5.0787
X2.5984Y-5.1575
X2.5984Y-5.2362
X2.5984Y-5.315
X2.5984Y-5.3937
X2.6083Y-5.9744
X2.6378Y-3.622
X2.6378Y-3.7008
X2.6378Y-3.7795
X2.6378Y-3.8583
X2.6378Y-4.685
X2.6378Y-4.7638
X2.6673Y-5.9744
X2.6772Y-3.0315
X2.6772Y-3.1102
X2.6772Y-5.0787
X2.6772Y-5.1575
X2.6772Y-5.2362
X2.6772Y-5.315
X2.6772Y-5.3937
X2.6772Y-5.4724
X2.7067Y-5.7776
X2.7165Y-3.7008
X2.7165Y-4.685
X2.7165Y-4.7638
X2.7461Y-5.7776
X2.7559Y-5.1575
X2.7559Y-5.2362
X2.7559Y-5.315
X2.7559Y-5.3937
X2.7713Y-5.7214
X2.7996Y-5.7497
X3.0315Y-3.0217
X3.0315Y-3.3858
X3.0315Y-5.4528
X3.0315Y-5.5512
X3.0413Y-4.4291
X3.0413Y-4.4685
X3.0413Y-4.5079
X3.061Y-2.7067
X3.061Y-2.7461
X3.061Y-2.7854
X3.061Y-2.8248
X3.061Y-3.4154
X3.061Y-4.8819
X3.061Y-4.9213
X3.061Y-4.9606
X3.0709Y-2.5689
X3.0709Y-3.0217
X3.0807Y-4.4291
X3.0807Y-4.4685
X3.0807Y-4.5079
X3.1102Y-5.4724
X3.1398Y-4.6457
X3.1398Y-4.685
X3.1496Y-5.7579
X3.1594Y-5.374
X3.1693Y-5.0984
X3.1693Y-5.1575
X3.1791Y-4.6457
X3.1791Y-4.685
X3.2185Y-4.6457
X3.2185Y-4.685
X3.2185Y-5.4724
X3.2283Y-5.7579
X3.2382Y-5.0984
X3.2382Y-5.1575
X3.2677Y-5.374
X3.2776Y-2.5295
X3.2972Y-3.002
X3.2972Y-3.0512
X3.2972Y-3.1004
X3.3071Y-5.7579
X3.3366Y-2.7953
X3.3366Y-2.8346
X3.3366Y-2.874
X3.3465Y-2.5295
X3.3465Y-2.5689
X3.3465Y-2.6083
X3.3661Y-4.4094
X3.3661Y-4.4488
X3.3661Y-4.8524
X3.3661Y-4.9016
X3.3661Y-5.2362
X3.376Y-3.7205
X3.3957Y-5.7579
X3.4252Y-5.2362
X3.4843Y-5.2362
X3.4843Y-5.7579
X3.5433Y-5.2362
X3.6319Y-3.1004
X3.6909Y-3.7303
X3.7008Y-3.0709
X3.7008Y-4.1142
X3.7106Y-4.3406
X3.7205Y-2.9626
X3.7205Y-3.002
X3.7402Y-3.7303
X3.7402Y-4.1535
X3.7402Y-5.2165
X3.75Y-4.2717
X3.75Y-5.748
X3.7598Y-3.0512
X3.7795Y-3.5728
X3.7795Y-3.6811
X3.7795Y-3.7795
X3.7795Y-3.878
X3.7795Y-3.9764
X3.7795Y-4.065
X3.7795Y-5.1772
X3.7795Y-5.3937
X3.7894Y-4.3406
X3.7894Y-4.439
X3.8091Y-5.748
X3.8681Y-5.748
X3.878Y-3.622
X3.878Y-3.7303
X3.9173Y-3.3268
X3.9173Y-3.8287
X3.9272Y-5.748
X3.9764Y-3.5236
X3.9862Y-3.4252
X3.9862Y-5.748
X3.988Y-3.9272
X4.0453Y-5.748
X4.1634Y-4.0256
X4.1732Y-4.124
X4.1732Y-4.2224
X4.1732Y-4.3209
X4.1732Y-5.128
X4.1732Y-5.1772
X4.1732Y-5.2264
X4.2028Y-5.3839
X4.2323Y-5.128
X4.2323Y-5.1772
X4.2323Y-5.2264
X4.2421Y-5.2756
X4.3258Y-2.6821
X4.3701Y-4.4291
X4.3898Y-4.6161
X4.3898Y-4.6555
X4.4094Y-3.7303
X4.4094Y-3.878
X4.5177Y-4.1437
X4.5669Y-4.0157
X4.6161Y-3.9764
X4.6457Y-4.5079
X4.6457Y-4.5374
X4.6654Y-3.9173
X4.6654Y-4.1831
X4.6654Y-4.2323
X4.6654Y-4.2815
X4.6654Y-4.3307
X4.6654Y-4.3898
X4.6752Y-4.6457
X4.6752Y-4.685
X4.6752Y-5.5315
X4.685Y-5.6693
X4.7047Y-3.878
X4.7293Y-3.4695
X4.7343Y-5.4724
X4.7441Y-4.0256
X4.8031Y-5.4724
X4.9016Y-4.2717
X4.9114Y-4.8228
X4.9114Y-4.8622
X4.9114Y-5.6004
X4.9803Y-4.2224
X5.0591Y-4.7539
X5.0591Y-4.8031
X5.1476Y-4.6949
X5.2362Y-2.5295
X5.2756Y-3.9764
X5.3346Y-4.0157
X5.4134Y-4.2126
X5.4528Y-4.2618
X5.4921Y-4.2126
X5.5441Y-4.4726
X5.5807Y-4.4685
X5.6102Y-4.7343
X5.6594Y-3.7992
T4
X2.9331Y-5.6693
X2.9521Y-5.5808
X3.0512Y-3.7402
X3.061Y-3.9862
X3.061Y-4.0453
X3.061Y-4.1043
X3.061Y-4.1634
X3.1201Y-3.9862
X3.1201Y-4.0453
X3.1201Y-4.1043
X3.1201Y-4.1634
X3.1201Y-4.2224
X3.248Y-3.7402
X4.3307Y-2.8543
X4.3799Y-3.3268
X4.3799Y-3.4252
X4.5866Y-5.3937
X4.626Y-2.8543
X4.626Y-3.0512
X4.7638Y-4.0945
X4.8228Y-2.0669
X4.8228Y-2.4606
X4.8228Y-2.8543
X4.8228Y-3.0512
X4.8228Y-3.248
X4.9016Y-4.9606
X5.0197Y-2.0669
X5.0197Y-2.2638
X5.0197Y-2.4606
X5.0197Y-2.6575
X5.0197Y-3.0512
X5.0197Y-3.248
X5.0197Y-5.4134
X5.0197Y-5.6102
X5.0886Y-5.0
X5.2165Y-2.0669
X5.2165Y-2.6575
X5.2165Y-2.8543
X5.2165Y-3.248
X5.2165Y-5.0197
X5.2165Y-5.4134
X5.2165Y-5.6102
X5.4134Y-2.0669
X5.4134Y-2.2638
X5.4134Y-2.6575
X5.4134Y-2.8543
X5.4134Y-5.0197
X5.4134Y-5.2165
X5.4134Y-5.4134
X5.5118Y-3.248
X5.6102Y-2.2638
X5.6102Y-2.4606
X5.6102Y-2.6575
X5.6102Y-2.8543
X5.6102Y-3.5433
X5.6102Y-5.2165
X5.6102Y-5.4134
X5.6102Y-5.6102
X5.8071Y-4.0354
X5.8071Y-5.6102
T5
X4.1634Y-2.2047
X4.3209Y-2.2047
X4.4783Y-2.2047
T6
X2.0433Y-2.8248
X2.0433Y-4.4748
X2.3433Y-2.8248
X2.3433Y-4.4748
X2.6433Y-2.4248
X2.6433Y-2.8248
X2.6433Y-4.0748
X2.6433Y-4.4748
X2.7433Y-2.4248
X2.7433Y-2.8248
X2.7433Y-4.0748
X2.7433Y-4.4748
T7
X2.5689Y-3.0787
X2.5689Y-3.8189
X2.5689Y-4.7343
X2.5689Y-5.4744
X2.7657Y-3.0787
X2.7657Y-3.8189
X2.7657Y-4.7343
X2.7657Y-5.4744
T8
X4.0846Y-2.0374
X4.0846Y-2.2736
X4.5571Y-2.0374
X4.5571Y-2.2736
T9
X2.0591Y-3.1496
X2.0591Y-3.3465
X2.0591Y-4.8031
X2.0591Y-5.0
X2.3819Y-3.1496
X2.3819Y-3.3465
X2.3819Y-4.8031
X2.3819Y-5.0
T10
X2.948Y-4.4291
X2.9484Y-2.7362
X2.9484Y-3.5827
X2.9484Y-5.2756
X5.7913Y-4.4291
X5.7917Y-2.7362
X5.7917Y-3.5827
X5.7917Y-5.2756
T11
X5.2657Y-3.7894
T3
G00X2.0994Y-5.3024
M15
G01X2.0679Y-5.3024
M16
G05
G00X2.0994Y-5.6425
M15
G01X2.0679Y-5.6425
M16
G05
G00X2.2707Y-5.3024
M15
G01X2.2274Y-5.3024
M16
G05
G00X2.2707Y-5.6425
M15
G01X2.2274Y-5.6425
M16
G05
M30
