M48
; DRILL file {KiCad 9.0.7} date 2026-02-25T19:26:26-0800
; FORMAT={-:-/ absolute / inch / decimal}
; #@! TF.CreationDate,2026-02-25T19:26:26-08:00
; #@! TF.GenerationSoftware,Kicad,Pcbnew,9.0.7
; #@! TF.FileFunction,Plated,1,2,PTH
FMAT,2
INCH
; #@! TA.AperFunction,Plated,PTH,ViaDrill
T1C0.0118
; #@! TA.AperFunction,Plated,PTH,ViaDrill
T2C0.0150
; #@! TA.AperFunction,Plated,PTH,ViaDrill
T3C0.0295
; #@! TA.AperFunction,Plated,PTH,ComponentDrill
T4C0.0402
%
G90
G05
T1
X5.0551Y-3.8425
X5.0659Y-2.2638
X5.0984Y-3.5236
X5.1575Y-3.622
X5.1703Y-2.2638
X5.2598Y-3.6693
X5.2953Y-2.1949
X5.3071Y-3.626
X5.3298Y-3.6654
T2
X2.4606Y-2.3327
X2.5787Y-5.7677
X2.6969Y-3.8878
X2.7264Y-4.9902
X2.7559Y-3.6614
X2.815Y-3.8878
X2.8445Y-2.815
X2.8543Y-2.3327
X2.874Y-5.0039
X2.874Y-5.0433
X2.8839Y-3.622
X2.9173Y-5.0039
X2.9331Y-3.8878
X2.9921Y-3.5827
X2.9921Y-5.0886
X3.0315Y-5.0886
X3.0694Y-5.0886
X3.1102Y-3.5433
X3.1102Y-5.0889
X3.1496Y-5.0886
X3.189Y-5.0886
X3.2087Y-2.7756
X3.2283Y-5.0886
X3.3661Y-5.7677
X3.4154Y-3.3858
X3.4941Y-3.4744
X3.6122Y-3.376
X3.7303Y-3.4744
X3.7992Y-4.5276
X3.8386Y-5.6988
X3.878Y-3.3236
X3.878Y-3.4236
X3.878Y-3.5236
X3.878Y-3.6236
X3.878Y-3.7236
X3.878Y-3.8287
X3.9764Y-4.3209
X3.9764Y-4.4193
X4.1634Y-5.7677
X4.2717Y-2.9921
X4.2736Y-3.1811
X4.3799Y-3.7205
X4.3799Y-3.8189
X4.3799Y-3.9173
X4.3799Y-4.0157
X4.5571Y-3.5236
X4.5669Y-4.1732
X4.5866Y-3.622
X4.6161Y-3.5236
X4.6555Y-4.0354
X4.6555Y-4.2224
X4.6654Y-5.6299
X4.7933Y-5.748
X4.8228Y-2.752
X4.9508Y-2.7087
X4.9508Y-5.7677
X5.0886Y-2.7067
T3
X4.498Y-3.4252
X4.6457Y-3.4252
X4.6752Y-4.7736
X4.9508Y-3.4252
T4
X3.4213Y-2.1244
X3.4213Y-2.2244
X3.4213Y-2.3244
X4.4528Y-2.0744
X4.4528Y-2.1744
X4.4528Y-2.2744
X4.4528Y-2.3744
M30
