%TF.GenerationSoftware,KiCad,Pcbnew,9.0.7*%
%TF.CreationDate,2026-02-25T18:53:21-08:00*%
%TF.ProjectId,display_board,64697370-6c61-4795-9f62-6f6172642e6b,rev?*%
%TF.SameCoordinates,Original*%
%TF.FileFunction,Profile,NP*%
%FSLAX46Y46*%
G04 Gerber Fmt 4.6, Leading zero omitted, Abs format (unit mm)*
G04 Created by KiCad (PCBNEW 9.0.7) date 2026-02-25 18:53:21*
%MOMM*%
%LPD*%
G01*
G04 APERTURE LIST*
%TA.AperFunction,Profile*%
%ADD10C,0.050000*%
%TD*%
G04 APERTURE END LIST*
D10*
X147250000Y-153500000D02*
X52750000Y-153500000D01*
X111000000Y-51750000D02*
G75*
G02*
X112750000Y-50000000I1750000J0D01*
G01*
X50000000Y-52750000D02*
G75*
G02*
X52750000Y-50000000I2750000J0D01*
G01*
X147250000Y-50000000D02*
G75*
G02*
X150000000Y-52750006I0J-2750000D01*
G01*
X121500000Y-140750000D02*
X139000000Y-140750000D01*
X127750000Y-59500000D02*
G75*
G02*
X127250000Y-59000000I0J500000D01*
G01*
X129500000Y-54750000D02*
X129500000Y-53500000D01*
X150000000Y-150750000D02*
G75*
G02*
X147250000Y-153500000I-2750000J0D01*
G01*
X130500000Y-54750000D02*
X130500000Y-53500000D01*
X127250000Y-59000000D02*
X127250000Y-53500000D01*
X127250000Y-53500000D02*
G75*
G02*
X129500000Y-53500000I1125000J0D01*
G01*
X52750000Y-153500000D02*
G75*
G02*
X50000000Y-150750000I0J2750000D01*
G01*
X129500000Y-54750000D02*
G75*
G02*
X129000000Y-55250000I-500000J0D01*
G01*
X130500000Y-53500000D02*
G75*
G02*
X132750000Y-53500000I1125000J0D01*
G01*
X121500000Y-142750000D02*
G75*
G02*
X121500000Y-140750000I0J1000000D01*
G01*
X128750000Y-58250000D02*
X131250000Y-58250000D01*
X87250000Y-50000000D02*
G75*
G02*
X89000000Y-51750000I0J-1750000D01*
G01*
X111000000Y-61500000D02*
G75*
G02*
X110000000Y-62500000I-1000000J0D01*
G01*
X132750000Y-53500000D02*
X132750000Y-59000000D01*
X139000000Y-142750000D02*
X121500000Y-142750000D01*
X129000000Y-55250000D02*
X128750000Y-55250000D01*
X132750000Y-59000000D02*
G75*
G02*
X132250000Y-59500000I-500000J0D01*
G01*
X131250000Y-55250000D02*
X131000000Y-55250000D01*
X90000000Y-62500000D02*
G75*
G02*
X89000000Y-61500000I0J1000000D01*
G01*
X112750000Y-142750000D02*
X61500000Y-142750000D01*
X131750000Y-57750000D02*
G75*
G02*
X131250000Y-58250000I-500000J0D01*
G01*
X87250000Y-50000000D02*
X52750000Y-50000000D01*
X61500000Y-140750000D02*
X112750000Y-140750000D01*
X150000000Y-52750000D02*
X150000000Y-150750000D01*
X112750000Y-50000000D02*
X147250000Y-50000000D01*
X112750000Y-140750000D02*
G75*
G02*
X112750000Y-142750000I0J-1000000D01*
G01*
X128250000Y-55750000D02*
G75*
G02*
X128750000Y-55250000I500000J0D01*
G01*
X50000000Y-150750000D02*
X50000000Y-52750000D01*
X139000000Y-140750000D02*
G75*
G02*
X139000000Y-142750000I0J-1000000D01*
G01*
X128250000Y-57750000D02*
X128250000Y-55750000D01*
X132250000Y-59500000D02*
X127750000Y-59500000D01*
X128750000Y-58250000D02*
G75*
G02*
X128250000Y-57750000I0J500000D01*
G01*
X90000000Y-62500000D02*
X110000000Y-62500000D01*
X131000000Y-55250000D02*
G75*
G02*
X130500000Y-54750000I0J500000D01*
G01*
X61500000Y-142750000D02*
G75*
G02*
X61500000Y-140750000I0J1000000D01*
G01*
X111000000Y-61500000D02*
X111000000Y-51750000D01*
X131750000Y-57750000D02*
X131750000Y-55750000D01*
X131250000Y-55250000D02*
G75*
G02*
X131750000Y-55750000I0J-500000D01*
G01*
X89000000Y-51750000D02*
X89000000Y-61500000D01*
M02*
