%TF.GenerationSoftware,KiCad,Pcbnew,9.0.7*%
%TF.CreationDate,2026-02-15T14:39:34-08:00*%
%TF.ProjectId,display_board,64697370-6c61-4795-9f62-6f6172642e6b,rev?*%
%TF.SameCoordinates,Original*%
%TF.FileFunction,Soldermask,Bot*%
%TF.FilePolarity,Negative*%
%FSLAX46Y46*%
G04 Gerber Fmt 4.6, Leading zero omitted, Abs format (unit mm)*
G04 Created by KiCad (PCBNEW 9.0.7) date 2026-02-15 14:39:34*
%MOMM*%
%LPD*%
G01*
G04 APERTURE LIST*
G04 Aperture macros list*
%AMRoundRect*
0 Rectangle with rounded corners*
0 $1 Rounding radius*
0 $2 $3 $4 $5 $6 $7 $8 $9 X,Y pos of 4 corners*
0 Add a 4 corners polygon primitive as box body*
4,1,4,$2,$3,$4,$5,$6,$7,$8,$9,$2,$3,0*
0 Add four circle primitives for the rounded corners*
1,1,$1+$1,$2,$3*
1,1,$1+$1,$4,$5*
1,1,$1+$1,$6,$7*
1,1,$1+$1,$8,$9*
0 Add four rect primitives between the rounded corners*
20,1,$1+$1,$2,$3,$4,$5,0*
20,1,$1+$1,$4,$5,$6,$7,0*
20,1,$1+$1,$6,$7,$8,$9,0*
20,1,$1+$1,$8,$9,$2,$3,0*%
%AMFreePoly0*
4,1,23,0.550000,-0.750000,0.000000,-0.750000,0.000000,-0.745722,-0.065263,-0.745722,-0.191342,-0.711940,-0.304381,-0.646677,-0.396677,-0.554381,-0.461940,-0.441342,-0.495722,-0.315263,-0.495722,-0.250000,-0.500000,-0.250000,-0.500000,0.250000,-0.495722,0.250000,-0.495722,0.315263,-0.461940,0.441342,-0.396677,0.554381,-0.304381,0.646677,-0.191342,0.711940,-0.065263,0.745722,0.000000,0.745722,
0.000000,0.750000,0.550000,0.750000,0.550000,-0.750000,0.550000,-0.750000,$1*%
%AMFreePoly1*
4,1,23,0.000000,0.745722,0.065263,0.745722,0.191342,0.711940,0.304381,0.646677,0.396677,0.554381,0.461940,0.441342,0.495722,0.315263,0.495722,0.250000,0.500000,0.250000,0.500000,-0.250000,0.495722,-0.250000,0.495722,-0.315263,0.461940,-0.441342,0.396677,-0.554381,0.304381,-0.646677,0.191342,-0.711940,0.065263,-0.745722,0.000000,-0.745722,0.000000,-0.750000,-0.550000,-0.750000,
-0.550000,0.750000,0.000000,0.750000,0.000000,0.745722,0.000000,0.745722,$1*%
G04 Aperture macros list end*
%ADD10C,3.200000*%
%ADD11RoundRect,0.875000X-0.625000X-0.000010X0.625000X-0.000010X0.625000X0.000010X-0.625000X0.000010X0*%
%ADD12R,0.300000X1.300000*%
%ADD13R,1.800000X2.200000*%
%ADD14RoundRect,0.225000X-0.250000X0.225000X-0.250000X-0.225000X0.250000X-0.225000X0.250000X0.225000X0*%
%ADD15RoundRect,0.200000X-0.275000X0.200000X-0.275000X-0.200000X0.275000X-0.200000X0.275000X0.200000X0*%
%ADD16RoundRect,0.225000X-0.225000X-0.250000X0.225000X-0.250000X0.225000X0.250000X-0.225000X0.250000X0*%
%ADD17RoundRect,0.250000X-0.475000X0.250000X-0.475000X-0.250000X0.475000X-0.250000X0.475000X0.250000X0*%
%ADD18RoundRect,0.250000X0.250000X0.475000X-0.250000X0.475000X-0.250000X-0.475000X0.250000X-0.475000X0*%
%ADD19FreePoly0,270.000000*%
%ADD20R,1.500000X1.000000*%
%ADD21FreePoly1,270.000000*%
%ADD22RoundRect,0.250000X-1.600000X0.300000X-1.600000X-0.300000X1.600000X-0.300000X1.600000X0.300000X0*%
%ADD23RoundRect,0.225000X-0.225000X-0.375000X0.225000X-0.375000X0.225000X0.375000X-0.225000X0.375000X0*%
%ADD24RoundRect,0.225000X0.375000X-0.225000X0.375000X0.225000X-0.375000X0.225000X-0.375000X-0.225000X0*%
%ADD25RoundRect,0.150000X-0.150000X0.512500X-0.150000X-0.512500X0.150000X-0.512500X0.150000X0.512500X0*%
%ADD26RoundRect,0.200000X0.200000X0.275000X-0.200000X0.275000X-0.200000X-0.275000X0.200000X-0.275000X0*%
%ADD27R,3.150000X1.000000*%
%ADD28R,1.200000X3.700000*%
%ADD29RoundRect,0.150000X-0.825000X-0.150000X0.825000X-0.150000X0.825000X0.150000X-0.825000X0.150000X0*%
%ADD30R,2.000000X2.000000*%
%ADD31RoundRect,0.200000X0.275000X-0.200000X0.275000X0.200000X-0.275000X0.200000X-0.275000X-0.200000X0*%
%ADD32RoundRect,0.200000X-0.200000X-0.275000X0.200000X-0.275000X0.200000X0.275000X-0.200000X0.275000X0*%
%ADD33RoundRect,0.125000X-0.125000X0.487500X-0.125000X-0.487500X0.125000X-0.487500X0.125000X0.487500X0*%
%ADD34RoundRect,0.225000X0.225000X0.375000X-0.225000X0.375000X-0.225000X-0.375000X0.225000X-0.375000X0*%
%ADD35RoundRect,0.225000X0.250000X-0.225000X0.250000X0.225000X-0.250000X0.225000X-0.250000X-0.225000X0*%
%ADD36FreePoly0,90.000000*%
%ADD37FreePoly1,90.000000*%
G04 APERTURE END LIST*
%TO.C,JP2*%
G36*
X86000000Y-97500000D02*
G01*
X87500000Y-97500000D01*
X87500000Y-99000000D01*
X86000000Y-99000000D01*
X86000000Y-97500000D01*
G37*
%TO.C,JP1*%
G36*
X68650000Y-130650000D02*
G01*
X67150000Y-130650000D01*
X67150000Y-129150000D01*
X68650000Y-129150000D01*
X68650000Y-130650000D01*
G37*
%TD*%
D10*
%TO.C,H3*%
X54500000Y-149000000D03*
%TD*%
D11*
%TO.C,U6*%
X86900000Y-53960000D03*
X86900000Y-56500000D03*
X86900000Y-59040000D03*
X113100000Y-52690000D03*
X113100000Y-55230000D03*
X113100000Y-57770000D03*
X113100000Y-60310000D03*
%TD*%
D10*
%TO.C,H2*%
X145500000Y-54500000D03*
%TD*%
%TO.C,H1*%
X54500000Y-54500000D03*
%TD*%
%TO.C,H4*%
X145500000Y-149000000D03*
%TD*%
D12*
%TO.C,P1*%
X84600000Y-124850000D03*
X84100000Y-124850000D03*
X83600000Y-124850000D03*
X83100000Y-124850000D03*
X82600000Y-124850000D03*
X82100000Y-124850000D03*
X81600000Y-124850000D03*
X81100000Y-124850000D03*
X80600000Y-124850000D03*
X80100000Y-124850000D03*
X79600000Y-124850000D03*
X79100000Y-124850000D03*
X78600000Y-124850000D03*
X78100000Y-124850000D03*
X77600000Y-124850000D03*
X77100000Y-124850000D03*
X76600000Y-124850000D03*
X76100000Y-124850000D03*
X75600000Y-124850000D03*
X75100000Y-124850000D03*
X74600000Y-124850000D03*
X74100000Y-124850000D03*
X73600000Y-124850000D03*
X73100000Y-124850000D03*
D13*
X86500000Y-128100000D03*
X71200000Y-128100000D03*
%TD*%
D14*
%TO.C,C4*%
X78400000Y-119425000D03*
X78400000Y-120975000D03*
%TD*%
D15*
%TO.C,R10*%
X77500000Y-100350000D03*
X77500000Y-102000000D03*
%TD*%
D16*
%TO.C,C12*%
X90475000Y-108250000D03*
X92025000Y-108250000D03*
%TD*%
D15*
%TO.C,R9*%
X74500000Y-100425000D03*
X74500000Y-102075000D03*
%TD*%
D12*
%TO.C,TS1*%
X135250000Y-95350000D03*
X134750000Y-95350000D03*
X134250000Y-95350000D03*
X133750000Y-95350000D03*
X133250000Y-95350000D03*
X132750000Y-95350000D03*
D13*
X137150000Y-98600000D03*
X130850000Y-98600000D03*
%TD*%
D17*
%TO.C,C11*%
X86750000Y-101800000D03*
X86750000Y-103700000D03*
%TD*%
D15*
%TO.C,R7*%
X68500000Y-100350000D03*
X68500000Y-102000000D03*
%TD*%
D14*
%TO.C,C10*%
X76800000Y-119425000D03*
X76800000Y-120975000D03*
%TD*%
D18*
%TO.C,C13*%
X95450000Y-106000000D03*
X93550000Y-106000000D03*
%TD*%
D14*
%TO.C,C8*%
X83900000Y-119425000D03*
X83900000Y-120975000D03*
%TD*%
D19*
%TO.C,JP2*%
X86750000Y-96950000D03*
D20*
X86750000Y-98250000D03*
D21*
X86750000Y-99550000D03*
%TD*%
D22*
%TO.C,L1*%
X68800000Y-118800000D03*
X68800000Y-121800000D03*
%TD*%
D23*
%TO.C,D2*%
X67750000Y-112900000D03*
X71050000Y-112900000D03*
%TD*%
D24*
%TO.C,D4*%
X94500000Y-103900000D03*
X94500000Y-100600000D03*
%TD*%
D25*
%TO.C,U1*%
X89550000Y-104112500D03*
X90500000Y-104112500D03*
X91450000Y-104112500D03*
X91450000Y-106387500D03*
X90500000Y-106387500D03*
X89550000Y-106387500D03*
%TD*%
D26*
%TO.C,R1*%
X68825000Y-125100000D03*
X67175000Y-125100000D03*
%TD*%
D14*
%TO.C,C6*%
X81600000Y-119425000D03*
X81600000Y-120975000D03*
%TD*%
D16*
%TO.C,C3*%
X78425000Y-117100000D03*
X79975000Y-117100000D03*
%TD*%
D27*
%TO.C,J1*%
X108550000Y-84420000D03*
X103500000Y-84420000D03*
X108550000Y-86960000D03*
X103500000Y-86960000D03*
X108550000Y-89500000D03*
X103500000Y-89500000D03*
X108550000Y-92040000D03*
X103500000Y-92040000D03*
X108550000Y-94580000D03*
X103500000Y-94580000D03*
X108550000Y-97120000D03*
X103500000Y-97120000D03*
X108550000Y-99660000D03*
X103500000Y-99660000D03*
X108550000Y-102200000D03*
X103500000Y-102200000D03*
X108550000Y-104740000D03*
X103500000Y-104740000D03*
X108550000Y-107280000D03*
X103500000Y-107280000D03*
X108550000Y-109820000D03*
X103500000Y-109820000D03*
X108550000Y-112360000D03*
X103500000Y-112360000D03*
X108550000Y-114900000D03*
X103500000Y-114900000D03*
X108550000Y-117440000D03*
X103500000Y-117440000D03*
%TD*%
D28*
%TO.C,L2*%
X89100000Y-100500000D03*
X91900000Y-100500000D03*
%TD*%
D14*
%TO.C,C2*%
X71200000Y-115225000D03*
X71200000Y-116775000D03*
%TD*%
%TO.C,C7*%
X83900000Y-116125000D03*
X83900000Y-117675000D03*
%TD*%
D29*
%TO.C,U3*%
X74025000Y-78155000D03*
X74025000Y-76885000D03*
X74025000Y-75615000D03*
X74025000Y-74345000D03*
X78975000Y-74345000D03*
X78975000Y-75615000D03*
X78975000Y-76885000D03*
X78975000Y-78155000D03*
%TD*%
D30*
%TO.C,TP1*%
X80000000Y-54000000D03*
%TD*%
D26*
%TO.C,R3*%
X87825000Y-106500000D03*
X86175000Y-106500000D03*
%TD*%
D23*
%TO.C,D1*%
X73450000Y-114600000D03*
X76750000Y-114600000D03*
%TD*%
D14*
%TO.C,C9*%
X86400000Y-119425000D03*
X86400000Y-120975000D03*
%TD*%
D31*
%TO.C,R2*%
X75200000Y-121025000D03*
X75200000Y-119375000D03*
%TD*%
D32*
%TO.C,R4*%
X132450000Y-90700000D03*
X134100000Y-90700000D03*
%TD*%
D16*
%TO.C,C15*%
X75725000Y-72000000D03*
X77275000Y-72000000D03*
%TD*%
D33*
%TO.C,Q1*%
X71950000Y-119562500D03*
X73250000Y-119562500D03*
X72600000Y-121437500D03*
%TD*%
D14*
%TO.C,C5*%
X80000000Y-119425000D03*
X80000000Y-120975000D03*
%TD*%
D12*
%TO.C,FL1*%
X91750000Y-110350000D03*
X91250000Y-110350000D03*
X90750000Y-110350000D03*
X90250000Y-110350000D03*
X89750000Y-110350000D03*
X89250000Y-110350000D03*
D13*
X93650000Y-113600000D03*
X87350000Y-113600000D03*
%TD*%
D15*
%TO.C,R8*%
X71500000Y-100350000D03*
X71500000Y-102000000D03*
%TD*%
D34*
%TO.C,D3*%
X76750000Y-117100000D03*
X73450000Y-117100000D03*
%TD*%
D35*
%TO.C,C1*%
X68800000Y-116775000D03*
X68800000Y-115225000D03*
%TD*%
D36*
%TO.C,JP1*%
X67900000Y-131200000D03*
D20*
X67900000Y-129900000D03*
D37*
X67900000Y-128600000D03*
%TD*%
M02*
