%TF.GenerationSoftware,KiCad,Pcbnew,9.0.7*%
%TF.CreationDate,2026-02-25T19:26:26-08:00*%
%TF.ProjectId,display_board,64697370-6c61-4795-9f62-6f6172642e6b,rev?*%
%TF.SameCoordinates,Original*%
%TF.FileFunction,Legend,Top*%
%TF.FilePolarity,Positive*%
%FSLAX46Y46*%
G04 Gerber Fmt 4.6, Leading zero omitted, Abs format (unit mm)*
G04 Created by KiCad (PCBNEW 9.0.7) date 2026-02-25 19:26:26*
%MOMM*%
%LPD*%
G01*
G04 APERTURE LIST*
G04 Aperture macros list*
%AMRoundRect*
0 Rectangle with rounded corners*
0 $1 Rounding radius*
0 $2 $3 $4 $5 $6 $7 $8 $9 X,Y pos of 4 corners*
0 Add a 4 corners polygon primitive as box body*
4,1,4,$2,$3,$4,$5,$6,$7,$8,$9,$2,$3,0*
0 Add four circle primitives for the rounded corners*
1,1,$1+$1,$2,$3*
1,1,$1+$1,$4,$5*
1,1,$1+$1,$6,$7*
1,1,$1+$1,$8,$9*
0 Add four rect primitives between the rounded corners*
20,1,$1+$1,$2,$3,$4,$5,0*
20,1,$1+$1,$4,$5,$6,$7,0*
20,1,$1+$1,$6,$7,$8,$9,0*
20,1,$1+$1,$8,$9,$2,$3,0*%
G04 Aperture macros list end*
%ADD10C,0.100000*%
%ADD11C,0.187500*%
%ADD12C,0.500000*%
%ADD13C,0.150000*%
%ADD14C,0.120000*%
%ADD15RoundRect,0.200000X-0.275000X0.200000X-0.275000X-0.200000X0.275000X-0.200000X0.275000X0.200000X0*%
%ADD16RoundRect,0.112500X0.112500X-0.187500X0.112500X0.187500X-0.112500X0.187500X-0.112500X-0.187500X0*%
%ADD17C,3.200000*%
%ADD18RoundRect,0.875000X-0.625000X-0.000010X0.625000X-0.000010X0.625000X0.000010X-0.625000X0.000010X0*%
%ADD19R,1.000000X0.750000*%
%ADD20RoundRect,0.200000X0.275000X-0.200000X0.275000X0.200000X-0.275000X0.200000X-0.275000X-0.200000X0*%
%ADD21RoundRect,0.075000X-0.250000X-0.075000X0.250000X-0.075000X0.250000X0.075000X-0.250000X0.075000X0*%
%ADD22RoundRect,0.112500X-0.187500X-0.112500X0.187500X-0.112500X0.187500X0.112500X-0.187500X0.112500X0*%
%ADD23R,1.600000X0.850000*%
%ADD24R,0.500000X0.300000*%
%ADD25RoundRect,0.243750X-0.456250X0.243750X-0.456250X-0.243750X0.456250X-0.243750X0.456250X0.243750X0*%
%ADD26RoundRect,0.225000X-0.250000X0.225000X-0.250000X-0.225000X0.250000X-0.225000X0.250000X0.225000X0*%
%ADD27RoundRect,0.225000X-0.225000X-0.250000X0.225000X-0.250000X0.225000X0.250000X-0.225000X0.250000X0*%
%ADD28RoundRect,0.243750X-0.243750X-0.456250X0.243750X-0.456250X0.243750X0.456250X-0.243750X0.456250X0*%
%ADD29RoundRect,0.200000X-0.200000X-0.275000X0.200000X-0.275000X0.200000X0.275000X-0.200000X0.275000X0*%
G04 APERTURE END LIST*
D10*
X57600000Y-66350000D02*
X142400000Y-66350000D01*
X142400000Y-129950000D01*
X57600000Y-129950000D01*
X57600000Y-66350000D01*
X54500000Y-63250000D02*
X145500000Y-63250000D01*
X145500000Y-140250000D01*
X54500000Y-140250000D01*
X54500000Y-63250000D01*
D11*
X73928571Y-53913821D02*
X73857143Y-53985250D01*
X73857143Y-53985250D02*
X73642857Y-54056678D01*
X73642857Y-54056678D02*
X73500000Y-54056678D01*
X73500000Y-54056678D02*
X73285714Y-53985250D01*
X73285714Y-53985250D02*
X73142857Y-53842392D01*
X73142857Y-53842392D02*
X73071428Y-53699535D01*
X73071428Y-53699535D02*
X73000000Y-53413821D01*
X73000000Y-53413821D02*
X73000000Y-53199535D01*
X73000000Y-53199535D02*
X73071428Y-52913821D01*
X73071428Y-52913821D02*
X73142857Y-52770964D01*
X73142857Y-52770964D02*
X73285714Y-52628107D01*
X73285714Y-52628107D02*
X73500000Y-52556678D01*
X73500000Y-52556678D02*
X73642857Y-52556678D01*
X73642857Y-52556678D02*
X73857143Y-52628107D01*
X73857143Y-52628107D02*
X73928571Y-52699535D01*
X74571428Y-54056678D02*
X74571428Y-52556678D01*
X74571428Y-53270964D02*
X75428571Y-53270964D01*
X75428571Y-54056678D02*
X75428571Y-52556678D01*
X76928572Y-52628107D02*
X76785715Y-52556678D01*
X76785715Y-52556678D02*
X76571429Y-52556678D01*
X76571429Y-52556678D02*
X76357143Y-52628107D01*
X76357143Y-52628107D02*
X76214286Y-52770964D01*
X76214286Y-52770964D02*
X76142857Y-52913821D01*
X76142857Y-52913821D02*
X76071429Y-53199535D01*
X76071429Y-53199535D02*
X76071429Y-53413821D01*
X76071429Y-53413821D02*
X76142857Y-53699535D01*
X76142857Y-53699535D02*
X76214286Y-53842392D01*
X76214286Y-53842392D02*
X76357143Y-53985250D01*
X76357143Y-53985250D02*
X76571429Y-54056678D01*
X76571429Y-54056678D02*
X76714286Y-54056678D01*
X76714286Y-54056678D02*
X76928572Y-53985250D01*
X76928572Y-53985250D02*
X77000000Y-53913821D01*
X77000000Y-53913821D02*
X77000000Y-53413821D01*
X77000000Y-53413821D02*
X76714286Y-53413821D01*
D12*
X81428572Y-87354952D02*
X81047619Y-87164476D01*
X81047619Y-87164476D02*
X80476191Y-87164476D01*
X80476191Y-87164476D02*
X79904762Y-87354952D01*
X79904762Y-87354952D02*
X79523810Y-87735904D01*
X79523810Y-87735904D02*
X79333333Y-88116857D01*
X79333333Y-88116857D02*
X79142857Y-88878761D01*
X79142857Y-88878761D02*
X79142857Y-89450190D01*
X79142857Y-89450190D02*
X79333333Y-90212095D01*
X79333333Y-90212095D02*
X79523810Y-90593047D01*
X79523810Y-90593047D02*
X79904762Y-90974000D01*
X79904762Y-90974000D02*
X80476191Y-91164476D01*
X80476191Y-91164476D02*
X80857143Y-91164476D01*
X80857143Y-91164476D02*
X81428572Y-90974000D01*
X81428572Y-90974000D02*
X81619048Y-90783523D01*
X81619048Y-90783523D02*
X81619048Y-89450190D01*
X81619048Y-89450190D02*
X80857143Y-89450190D01*
X84095238Y-87164476D02*
X84857143Y-87164476D01*
X84857143Y-87164476D02*
X85238095Y-87354952D01*
X85238095Y-87354952D02*
X85619048Y-87735904D01*
X85619048Y-87735904D02*
X85809524Y-88497809D01*
X85809524Y-88497809D02*
X85809524Y-89831142D01*
X85809524Y-89831142D02*
X85619048Y-90593047D01*
X85619048Y-90593047D02*
X85238095Y-90974000D01*
X85238095Y-90974000D02*
X84857143Y-91164476D01*
X84857143Y-91164476D02*
X84095238Y-91164476D01*
X84095238Y-91164476D02*
X83714286Y-90974000D01*
X83714286Y-90974000D02*
X83333333Y-90593047D01*
X83333333Y-90593047D02*
X83142857Y-89831142D01*
X83142857Y-89831142D02*
X83142857Y-88497809D01*
X83142857Y-88497809D02*
X83333333Y-87735904D01*
X83333333Y-87735904D02*
X83714286Y-87354952D01*
X83714286Y-87354952D02*
X84095238Y-87164476D01*
X88285714Y-87164476D02*
X89047619Y-87164476D01*
X89047619Y-87164476D02*
X89428571Y-87354952D01*
X89428571Y-87354952D02*
X89809524Y-87735904D01*
X89809524Y-87735904D02*
X90000000Y-88497809D01*
X90000000Y-88497809D02*
X90000000Y-89831142D01*
X90000000Y-89831142D02*
X89809524Y-90593047D01*
X89809524Y-90593047D02*
X89428571Y-90974000D01*
X89428571Y-90974000D02*
X89047619Y-91164476D01*
X89047619Y-91164476D02*
X88285714Y-91164476D01*
X88285714Y-91164476D02*
X87904762Y-90974000D01*
X87904762Y-90974000D02*
X87523809Y-90593047D01*
X87523809Y-90593047D02*
X87333333Y-89831142D01*
X87333333Y-89831142D02*
X87333333Y-88497809D01*
X87333333Y-88497809D02*
X87523809Y-87735904D01*
X87523809Y-87735904D02*
X87904762Y-87354952D01*
X87904762Y-87354952D02*
X88285714Y-87164476D01*
X91714285Y-91164476D02*
X91714285Y-87164476D01*
X91714285Y-87164476D02*
X92666666Y-87164476D01*
X92666666Y-87164476D02*
X93238095Y-87354952D01*
X93238095Y-87354952D02*
X93619047Y-87735904D01*
X93619047Y-87735904D02*
X93809524Y-88116857D01*
X93809524Y-88116857D02*
X94000000Y-88878761D01*
X94000000Y-88878761D02*
X94000000Y-89450190D01*
X94000000Y-89450190D02*
X93809524Y-90212095D01*
X93809524Y-90212095D02*
X93619047Y-90593047D01*
X93619047Y-90593047D02*
X93238095Y-90974000D01*
X93238095Y-90974000D02*
X92666666Y-91164476D01*
X92666666Y-91164476D02*
X91714285Y-91164476D01*
X98761904Y-91164476D02*
X98761904Y-87164476D01*
X98761904Y-87164476D02*
X99714285Y-87164476D01*
X99714285Y-87164476D02*
X100285714Y-87354952D01*
X100285714Y-87354952D02*
X100666666Y-87735904D01*
X100666666Y-87735904D02*
X100857143Y-88116857D01*
X100857143Y-88116857D02*
X101047619Y-88878761D01*
X101047619Y-88878761D02*
X101047619Y-89450190D01*
X101047619Y-89450190D02*
X100857143Y-90212095D01*
X100857143Y-90212095D02*
X100666666Y-90593047D01*
X100666666Y-90593047D02*
X100285714Y-90974000D01*
X100285714Y-90974000D02*
X99714285Y-91164476D01*
X99714285Y-91164476D02*
X98761904Y-91164476D01*
X102761904Y-91164476D02*
X102761904Y-87164476D01*
X104476190Y-90974000D02*
X105047619Y-91164476D01*
X105047619Y-91164476D02*
X106000000Y-91164476D01*
X106000000Y-91164476D02*
X106380952Y-90974000D01*
X106380952Y-90974000D02*
X106571428Y-90783523D01*
X106571428Y-90783523D02*
X106761905Y-90402571D01*
X106761905Y-90402571D02*
X106761905Y-90021619D01*
X106761905Y-90021619D02*
X106571428Y-89640666D01*
X106571428Y-89640666D02*
X106380952Y-89450190D01*
X106380952Y-89450190D02*
X106000000Y-89259714D01*
X106000000Y-89259714D02*
X105238095Y-89069238D01*
X105238095Y-89069238D02*
X104857143Y-88878761D01*
X104857143Y-88878761D02*
X104666666Y-88688285D01*
X104666666Y-88688285D02*
X104476190Y-88307333D01*
X104476190Y-88307333D02*
X104476190Y-87926380D01*
X104476190Y-87926380D02*
X104666666Y-87545428D01*
X104666666Y-87545428D02*
X104857143Y-87354952D01*
X104857143Y-87354952D02*
X105238095Y-87164476D01*
X105238095Y-87164476D02*
X106190476Y-87164476D01*
X106190476Y-87164476D02*
X106761905Y-87354952D01*
X108476190Y-91164476D02*
X108476190Y-87164476D01*
X108476190Y-87164476D02*
X110000000Y-87164476D01*
X110000000Y-87164476D02*
X110380952Y-87354952D01*
X110380952Y-87354952D02*
X110571429Y-87545428D01*
X110571429Y-87545428D02*
X110761905Y-87926380D01*
X110761905Y-87926380D02*
X110761905Y-88497809D01*
X110761905Y-88497809D02*
X110571429Y-88878761D01*
X110571429Y-88878761D02*
X110380952Y-89069238D01*
X110380952Y-89069238D02*
X110000000Y-89259714D01*
X110000000Y-89259714D02*
X108476190Y-89259714D01*
X114380952Y-91164476D02*
X112476190Y-91164476D01*
X112476190Y-91164476D02*
X112476190Y-87164476D01*
X115523809Y-90021619D02*
X117428571Y-90021619D01*
X115142857Y-91164476D02*
X116476190Y-87164476D01*
X116476190Y-87164476D02*
X117809524Y-91164476D01*
X119904761Y-89259714D02*
X119904761Y-91164476D01*
X118571428Y-87164476D02*
X119904761Y-89259714D01*
X119904761Y-89259714D02*
X121238095Y-87164476D01*
X74952381Y-93794728D02*
X74571428Y-93604252D01*
X74571428Y-93604252D02*
X74000000Y-93604252D01*
X74000000Y-93604252D02*
X73428571Y-93794728D01*
X73428571Y-93794728D02*
X73047619Y-94175680D01*
X73047619Y-94175680D02*
X72857142Y-94556633D01*
X72857142Y-94556633D02*
X72666666Y-95318537D01*
X72666666Y-95318537D02*
X72666666Y-95889966D01*
X72666666Y-95889966D02*
X72857142Y-96651871D01*
X72857142Y-96651871D02*
X73047619Y-97032823D01*
X73047619Y-97032823D02*
X73428571Y-97413776D01*
X73428571Y-97413776D02*
X74000000Y-97604252D01*
X74000000Y-97604252D02*
X74380952Y-97604252D01*
X74380952Y-97604252D02*
X74952381Y-97413776D01*
X74952381Y-97413776D02*
X75142857Y-97223299D01*
X75142857Y-97223299D02*
X75142857Y-95889966D01*
X75142857Y-95889966D02*
X74380952Y-95889966D01*
X76857142Y-97604252D02*
X76857142Y-93604252D01*
X76857142Y-93604252D02*
X77809523Y-93604252D01*
X77809523Y-93604252D02*
X78380952Y-93794728D01*
X78380952Y-93794728D02*
X78761904Y-94175680D01*
X78761904Y-94175680D02*
X78952381Y-94556633D01*
X78952381Y-94556633D02*
X79142857Y-95318537D01*
X79142857Y-95318537D02*
X79142857Y-95889966D01*
X79142857Y-95889966D02*
X78952381Y-96651871D01*
X78952381Y-96651871D02*
X78761904Y-97032823D01*
X78761904Y-97032823D02*
X78380952Y-97413776D01*
X78380952Y-97413776D02*
X77809523Y-97604252D01*
X77809523Y-97604252D02*
X76857142Y-97604252D01*
X80857142Y-95509014D02*
X82190476Y-95509014D01*
X82761904Y-97604252D02*
X80857142Y-97604252D01*
X80857142Y-97604252D02*
X80857142Y-93604252D01*
X80857142Y-93604252D02*
X82761904Y-93604252D01*
X85238095Y-95699490D02*
X85238095Y-97604252D01*
X83904762Y-93604252D02*
X85238095Y-95699490D01*
X85238095Y-95699490D02*
X86571429Y-93604252D01*
X88666666Y-93604252D02*
X89047619Y-93604252D01*
X89047619Y-93604252D02*
X89428571Y-93794728D01*
X89428571Y-93794728D02*
X89619047Y-93985204D01*
X89619047Y-93985204D02*
X89809523Y-94366156D01*
X89809523Y-94366156D02*
X90000000Y-95128061D01*
X90000000Y-95128061D02*
X90000000Y-96080442D01*
X90000000Y-96080442D02*
X89809523Y-96842347D01*
X89809523Y-96842347D02*
X89619047Y-97223299D01*
X89619047Y-97223299D02*
X89428571Y-97413776D01*
X89428571Y-97413776D02*
X89047619Y-97604252D01*
X89047619Y-97604252D02*
X88666666Y-97604252D01*
X88666666Y-97604252D02*
X88285714Y-97413776D01*
X88285714Y-97413776D02*
X88095238Y-97223299D01*
X88095238Y-97223299D02*
X87904761Y-96842347D01*
X87904761Y-96842347D02*
X87714285Y-96080442D01*
X87714285Y-96080442D02*
X87714285Y-95128061D01*
X87714285Y-95128061D02*
X87904761Y-94366156D01*
X87904761Y-94366156D02*
X88095238Y-93985204D01*
X88095238Y-93985204D02*
X88285714Y-93794728D01*
X88285714Y-93794728D02*
X88666666Y-93604252D01*
X93428571Y-94937585D02*
X93428571Y-97604252D01*
X92476190Y-93413776D02*
X91523809Y-96270918D01*
X91523809Y-96270918D02*
X94000000Y-96270918D01*
X95333333Y-93985204D02*
X95523809Y-93794728D01*
X95523809Y-93794728D02*
X95904762Y-93604252D01*
X95904762Y-93604252D02*
X96857143Y-93604252D01*
X96857143Y-93604252D02*
X97238095Y-93794728D01*
X97238095Y-93794728D02*
X97428571Y-93985204D01*
X97428571Y-93985204D02*
X97619048Y-94366156D01*
X97619048Y-94366156D02*
X97619048Y-94747109D01*
X97619048Y-94747109D02*
X97428571Y-95318537D01*
X97428571Y-95318537D02*
X95142857Y-97604252D01*
X95142857Y-97604252D02*
X97619048Y-97604252D01*
X98761905Y-93604252D02*
X101047619Y-93604252D01*
X99904762Y-97604252D02*
X99904762Y-93604252D01*
X102952381Y-95318537D02*
X102571429Y-95128061D01*
X102571429Y-95128061D02*
X102380952Y-94937585D01*
X102380952Y-94937585D02*
X102190476Y-94556633D01*
X102190476Y-94556633D02*
X102190476Y-94366156D01*
X102190476Y-94366156D02*
X102380952Y-93985204D01*
X102380952Y-93985204D02*
X102571429Y-93794728D01*
X102571429Y-93794728D02*
X102952381Y-93604252D01*
X102952381Y-93604252D02*
X103714286Y-93604252D01*
X103714286Y-93604252D02*
X104095238Y-93794728D01*
X104095238Y-93794728D02*
X104285714Y-93985204D01*
X104285714Y-93985204D02*
X104476191Y-94366156D01*
X104476191Y-94366156D02*
X104476191Y-94556633D01*
X104476191Y-94556633D02*
X104285714Y-94937585D01*
X104285714Y-94937585D02*
X104095238Y-95128061D01*
X104095238Y-95128061D02*
X103714286Y-95318537D01*
X103714286Y-95318537D02*
X102952381Y-95318537D01*
X102952381Y-95318537D02*
X102571429Y-95509014D01*
X102571429Y-95509014D02*
X102380952Y-95699490D01*
X102380952Y-95699490D02*
X102190476Y-96080442D01*
X102190476Y-96080442D02*
X102190476Y-96842347D01*
X102190476Y-96842347D02*
X102380952Y-97223299D01*
X102380952Y-97223299D02*
X102571429Y-97413776D01*
X102571429Y-97413776D02*
X102952381Y-97604252D01*
X102952381Y-97604252D02*
X103714286Y-97604252D01*
X103714286Y-97604252D02*
X104095238Y-97413776D01*
X104095238Y-97413776D02*
X104285714Y-97223299D01*
X104285714Y-97223299D02*
X104476191Y-96842347D01*
X104476191Y-96842347D02*
X104476191Y-96080442D01*
X104476191Y-96080442D02*
X104285714Y-95699490D01*
X104285714Y-95699490D02*
X104095238Y-95509014D01*
X104095238Y-95509014D02*
X103714286Y-95318537D01*
X108285715Y-97604252D02*
X106000000Y-97604252D01*
X107142857Y-97604252D02*
X107142857Y-93604252D01*
X107142857Y-93604252D02*
X106761905Y-94175680D01*
X106761905Y-94175680D02*
X106380953Y-94556633D01*
X106380953Y-94556633D02*
X106000000Y-94747109D01*
X110000000Y-96080442D02*
X113047620Y-96080442D01*
X116285715Y-95509014D02*
X114952381Y-95509014D01*
X114952381Y-97604252D02*
X114952381Y-93604252D01*
X114952381Y-93604252D02*
X116857143Y-93604252D01*
X117809524Y-93604252D02*
X120095238Y-93604252D01*
X118952381Y-97604252D02*
X118952381Y-93604252D01*
X122190476Y-93604252D02*
X122571429Y-93604252D01*
X122571429Y-93604252D02*
X122952381Y-93794728D01*
X122952381Y-93794728D02*
X123142857Y-93985204D01*
X123142857Y-93985204D02*
X123333333Y-94366156D01*
X123333333Y-94366156D02*
X123523810Y-95128061D01*
X123523810Y-95128061D02*
X123523810Y-96080442D01*
X123523810Y-96080442D02*
X123333333Y-96842347D01*
X123333333Y-96842347D02*
X123142857Y-97223299D01*
X123142857Y-97223299D02*
X122952381Y-97413776D01*
X122952381Y-97413776D02*
X122571429Y-97604252D01*
X122571429Y-97604252D02*
X122190476Y-97604252D01*
X122190476Y-97604252D02*
X121809524Y-97413776D01*
X121809524Y-97413776D02*
X121619048Y-97223299D01*
X121619048Y-97223299D02*
X121428571Y-96842347D01*
X121428571Y-96842347D02*
X121238095Y-96080442D01*
X121238095Y-96080442D02*
X121238095Y-95128061D01*
X121238095Y-95128061D02*
X121428571Y-94366156D01*
X121428571Y-94366156D02*
X121619048Y-93985204D01*
X121619048Y-93985204D02*
X121809524Y-93794728D01*
X121809524Y-93794728D02*
X122190476Y-93604252D01*
X125047619Y-93985204D02*
X125238095Y-93794728D01*
X125238095Y-93794728D02*
X125619048Y-93604252D01*
X125619048Y-93604252D02*
X126571429Y-93604252D01*
X126571429Y-93604252D02*
X126952381Y-93794728D01*
X126952381Y-93794728D02*
X127142857Y-93985204D01*
X127142857Y-93985204D02*
X127333334Y-94366156D01*
X127333334Y-94366156D02*
X127333334Y-94747109D01*
X127333334Y-94747109D02*
X127142857Y-95318537D01*
X127142857Y-95318537D02*
X124857143Y-97604252D01*
X124857143Y-97604252D02*
X127333334Y-97604252D01*
D11*
X61535713Y-54056678D02*
X61535713Y-52556678D01*
X61535713Y-52556678D02*
X62107142Y-52556678D01*
X62107142Y-52556678D02*
X62249999Y-52628107D01*
X62249999Y-52628107D02*
X62321428Y-52699535D01*
X62321428Y-52699535D02*
X62392856Y-52842392D01*
X62392856Y-52842392D02*
X62392856Y-53056678D01*
X62392856Y-53056678D02*
X62321428Y-53199535D01*
X62321428Y-53199535D02*
X62249999Y-53270964D01*
X62249999Y-53270964D02*
X62107142Y-53342392D01*
X62107142Y-53342392D02*
X61535713Y-53342392D01*
X63821428Y-52628107D02*
X63678571Y-52556678D01*
X63678571Y-52556678D02*
X63464285Y-52556678D01*
X63464285Y-52556678D02*
X63249999Y-52628107D01*
X63249999Y-52628107D02*
X63107142Y-52770964D01*
X63107142Y-52770964D02*
X63035713Y-52913821D01*
X63035713Y-52913821D02*
X62964285Y-53199535D01*
X62964285Y-53199535D02*
X62964285Y-53413821D01*
X62964285Y-53413821D02*
X63035713Y-53699535D01*
X63035713Y-53699535D02*
X63107142Y-53842392D01*
X63107142Y-53842392D02*
X63249999Y-53985250D01*
X63249999Y-53985250D02*
X63464285Y-54056678D01*
X63464285Y-54056678D02*
X63607142Y-54056678D01*
X63607142Y-54056678D02*
X63821428Y-53985250D01*
X63821428Y-53985250D02*
X63892856Y-53913821D01*
X63892856Y-53913821D02*
X63892856Y-53413821D01*
X63892856Y-53413821D02*
X63607142Y-53413821D01*
X64821428Y-52556678D02*
X65107142Y-52556678D01*
X65107142Y-52556678D02*
X65249999Y-52628107D01*
X65249999Y-52628107D02*
X65392856Y-52770964D01*
X65392856Y-52770964D02*
X65464285Y-53056678D01*
X65464285Y-53056678D02*
X65464285Y-53556678D01*
X65464285Y-53556678D02*
X65392856Y-53842392D01*
X65392856Y-53842392D02*
X65249999Y-53985250D01*
X65249999Y-53985250D02*
X65107142Y-54056678D01*
X65107142Y-54056678D02*
X64821428Y-54056678D01*
X64821428Y-54056678D02*
X64678571Y-53985250D01*
X64678571Y-53985250D02*
X64535713Y-53842392D01*
X64535713Y-53842392D02*
X64464285Y-53556678D01*
X64464285Y-53556678D02*
X64464285Y-53056678D01*
X64464285Y-53056678D02*
X64535713Y-52770964D01*
X64535713Y-52770964D02*
X64678571Y-52628107D01*
X64678571Y-52628107D02*
X64821428Y-52556678D01*
X66392857Y-52556678D02*
X66678571Y-52556678D01*
X66678571Y-52556678D02*
X66821428Y-52628107D01*
X66821428Y-52628107D02*
X66964285Y-52770964D01*
X66964285Y-52770964D02*
X67035714Y-53056678D01*
X67035714Y-53056678D02*
X67035714Y-53556678D01*
X67035714Y-53556678D02*
X66964285Y-53842392D01*
X66964285Y-53842392D02*
X66821428Y-53985250D01*
X66821428Y-53985250D02*
X66678571Y-54056678D01*
X66678571Y-54056678D02*
X66392857Y-54056678D01*
X66392857Y-54056678D02*
X66250000Y-53985250D01*
X66250000Y-53985250D02*
X66107142Y-53842392D01*
X66107142Y-53842392D02*
X66035714Y-53556678D01*
X66035714Y-53556678D02*
X66035714Y-53056678D01*
X66035714Y-53056678D02*
X66107142Y-52770964D01*
X66107142Y-52770964D02*
X66250000Y-52628107D01*
X66250000Y-52628107D02*
X66392857Y-52556678D01*
X67678571Y-54056678D02*
X67678571Y-52556678D01*
X67678571Y-52556678D02*
X68035714Y-52556678D01*
X68035714Y-52556678D02*
X68250000Y-52628107D01*
X68250000Y-52628107D02*
X68392857Y-52770964D01*
X68392857Y-52770964D02*
X68464286Y-52913821D01*
X68464286Y-52913821D02*
X68535714Y-53199535D01*
X68535714Y-53199535D02*
X68535714Y-53413821D01*
X68535714Y-53413821D02*
X68464286Y-53699535D01*
X68464286Y-53699535D02*
X68392857Y-53842392D01*
X68392857Y-53842392D02*
X68250000Y-53985250D01*
X68250000Y-53985250D02*
X68035714Y-54056678D01*
X68035714Y-54056678D02*
X67678571Y-54056678D01*
D13*
X71454819Y-57142857D02*
X70978628Y-57476190D01*
X71454819Y-57714285D02*
X70454819Y-57714285D01*
X70454819Y-57714285D02*
X70454819Y-57333333D01*
X70454819Y-57333333D02*
X70502438Y-57238095D01*
X70502438Y-57238095D02*
X70550057Y-57190476D01*
X70550057Y-57190476D02*
X70645295Y-57142857D01*
X70645295Y-57142857D02*
X70788152Y-57142857D01*
X70788152Y-57142857D02*
X70883390Y-57190476D01*
X70883390Y-57190476D02*
X70931009Y-57238095D01*
X70931009Y-57238095D02*
X70978628Y-57333333D01*
X70978628Y-57333333D02*
X70978628Y-57714285D01*
X71454819Y-56190476D02*
X71454819Y-56761904D01*
X71454819Y-56476190D02*
X70454819Y-56476190D01*
X70454819Y-56476190D02*
X70597676Y-56571428D01*
X70597676Y-56571428D02*
X70692914Y-56666666D01*
X70692914Y-56666666D02*
X70740533Y-56761904D01*
X71454819Y-55238095D02*
X71454819Y-55809523D01*
X71454819Y-55523809D02*
X70454819Y-55523809D01*
X70454819Y-55523809D02*
X70597676Y-55619047D01*
X70597676Y-55619047D02*
X70692914Y-55714285D01*
X70692914Y-55714285D02*
X70740533Y-55809523D01*
X73985714Y-151354819D02*
X73985714Y-150354819D01*
X73985714Y-150354819D02*
X74223809Y-150354819D01*
X74223809Y-150354819D02*
X74366666Y-150402438D01*
X74366666Y-150402438D02*
X74461904Y-150497676D01*
X74461904Y-150497676D02*
X74509523Y-150592914D01*
X74509523Y-150592914D02*
X74557142Y-150783390D01*
X74557142Y-150783390D02*
X74557142Y-150926247D01*
X74557142Y-150926247D02*
X74509523Y-151116723D01*
X74509523Y-151116723D02*
X74461904Y-151211961D01*
X74461904Y-151211961D02*
X74366666Y-151307200D01*
X74366666Y-151307200D02*
X74223809Y-151354819D01*
X74223809Y-151354819D02*
X73985714Y-151354819D01*
X75509523Y-151354819D02*
X74938095Y-151354819D01*
X75223809Y-151354819D02*
X75223809Y-150354819D01*
X75223809Y-150354819D02*
X75128571Y-150497676D01*
X75128571Y-150497676D02*
X75033333Y-150592914D01*
X75033333Y-150592914D02*
X74938095Y-150640533D01*
X75890476Y-150450057D02*
X75938095Y-150402438D01*
X75938095Y-150402438D02*
X76033333Y-150354819D01*
X76033333Y-150354819D02*
X76271428Y-150354819D01*
X76271428Y-150354819D02*
X76366666Y-150402438D01*
X76366666Y-150402438D02*
X76414285Y-150450057D01*
X76414285Y-150450057D02*
X76461904Y-150545295D01*
X76461904Y-150545295D02*
X76461904Y-150640533D01*
X76461904Y-150640533D02*
X76414285Y-150783390D01*
X76414285Y-150783390D02*
X75842857Y-151354819D01*
X75842857Y-151354819D02*
X76461904Y-151354819D01*
X53738095Y-145654819D02*
X53738095Y-144654819D01*
X53738095Y-145131009D02*
X54309523Y-145131009D01*
X54309523Y-145654819D02*
X54309523Y-144654819D01*
X54690476Y-144654819D02*
X55309523Y-144654819D01*
X55309523Y-144654819D02*
X54976190Y-145035771D01*
X54976190Y-145035771D02*
X55119047Y-145035771D01*
X55119047Y-145035771D02*
X55214285Y-145083390D01*
X55214285Y-145083390D02*
X55261904Y-145131009D01*
X55261904Y-145131009D02*
X55309523Y-145226247D01*
X55309523Y-145226247D02*
X55309523Y-145464342D01*
X55309523Y-145464342D02*
X55261904Y-145559580D01*
X55261904Y-145559580D02*
X55214285Y-145607200D01*
X55214285Y-145607200D02*
X55119047Y-145654819D01*
X55119047Y-145654819D02*
X54833333Y-145654819D01*
X54833333Y-145654819D02*
X54738095Y-145607200D01*
X54738095Y-145607200D02*
X54690476Y-145559580D01*
D10*
X116238095Y-55957419D02*
X116238095Y-56766942D01*
X116238095Y-56766942D02*
X116285714Y-56862180D01*
X116285714Y-56862180D02*
X116333333Y-56909800D01*
X116333333Y-56909800D02*
X116428571Y-56957419D01*
X116428571Y-56957419D02*
X116619047Y-56957419D01*
X116619047Y-56957419D02*
X116714285Y-56909800D01*
X116714285Y-56909800D02*
X116761904Y-56862180D01*
X116761904Y-56862180D02*
X116809523Y-56766942D01*
X116809523Y-56766942D02*
X116809523Y-55957419D01*
X117714285Y-55957419D02*
X117523809Y-55957419D01*
X117523809Y-55957419D02*
X117428571Y-56005038D01*
X117428571Y-56005038D02*
X117380952Y-56052657D01*
X117380952Y-56052657D02*
X117285714Y-56195514D01*
X117285714Y-56195514D02*
X117238095Y-56385990D01*
X117238095Y-56385990D02*
X117238095Y-56766942D01*
X117238095Y-56766942D02*
X117285714Y-56862180D01*
X117285714Y-56862180D02*
X117333333Y-56909800D01*
X117333333Y-56909800D02*
X117428571Y-56957419D01*
X117428571Y-56957419D02*
X117619047Y-56957419D01*
X117619047Y-56957419D02*
X117714285Y-56909800D01*
X117714285Y-56909800D02*
X117761904Y-56862180D01*
X117761904Y-56862180D02*
X117809523Y-56766942D01*
X117809523Y-56766942D02*
X117809523Y-56528847D01*
X117809523Y-56528847D02*
X117761904Y-56433609D01*
X117761904Y-56433609D02*
X117714285Y-56385990D01*
X117714285Y-56385990D02*
X117619047Y-56338371D01*
X117619047Y-56338371D02*
X117428571Y-56338371D01*
X117428571Y-56338371D02*
X117333333Y-56385990D01*
X117333333Y-56385990D02*
X117285714Y-56433609D01*
X117285714Y-56433609D02*
X117238095Y-56528847D01*
D13*
X108666667Y-144907200D02*
X108809524Y-144954819D01*
X108809524Y-144954819D02*
X109047619Y-144954819D01*
X109047619Y-144954819D02*
X109142857Y-144907200D01*
X109142857Y-144907200D02*
X109190476Y-144859580D01*
X109190476Y-144859580D02*
X109238095Y-144764342D01*
X109238095Y-144764342D02*
X109238095Y-144669104D01*
X109238095Y-144669104D02*
X109190476Y-144573866D01*
X109190476Y-144573866D02*
X109142857Y-144526247D01*
X109142857Y-144526247D02*
X109047619Y-144478628D01*
X109047619Y-144478628D02*
X108857143Y-144431009D01*
X108857143Y-144431009D02*
X108761905Y-144383390D01*
X108761905Y-144383390D02*
X108714286Y-144335771D01*
X108714286Y-144335771D02*
X108666667Y-144240533D01*
X108666667Y-144240533D02*
X108666667Y-144145295D01*
X108666667Y-144145295D02*
X108714286Y-144050057D01*
X108714286Y-144050057D02*
X108761905Y-144002438D01*
X108761905Y-144002438D02*
X108857143Y-143954819D01*
X108857143Y-143954819D02*
X109095238Y-143954819D01*
X109095238Y-143954819D02*
X109238095Y-144002438D01*
X109571429Y-143954819D02*
X109809524Y-144954819D01*
X109809524Y-144954819D02*
X110000000Y-144240533D01*
X110000000Y-144240533D02*
X110190476Y-144954819D01*
X110190476Y-144954819D02*
X110428572Y-143954819D01*
X110714286Y-143954819D02*
X111333333Y-143954819D01*
X111333333Y-143954819D02*
X111000000Y-144335771D01*
X111000000Y-144335771D02*
X111142857Y-144335771D01*
X111142857Y-144335771D02*
X111238095Y-144383390D01*
X111238095Y-144383390D02*
X111285714Y-144431009D01*
X111285714Y-144431009D02*
X111333333Y-144526247D01*
X111333333Y-144526247D02*
X111333333Y-144764342D01*
X111333333Y-144764342D02*
X111285714Y-144859580D01*
X111285714Y-144859580D02*
X111238095Y-144907200D01*
X111238095Y-144907200D02*
X111142857Y-144954819D01*
X111142857Y-144954819D02*
X110857143Y-144954819D01*
X110857143Y-144954819D02*
X110761905Y-144907200D01*
X110761905Y-144907200D02*
X110714286Y-144859580D01*
X144738095Y-58754819D02*
X144738095Y-57754819D01*
X144738095Y-58231009D02*
X145309523Y-58231009D01*
X145309523Y-58754819D02*
X145309523Y-57754819D01*
X145738095Y-57850057D02*
X145785714Y-57802438D01*
X145785714Y-57802438D02*
X145880952Y-57754819D01*
X145880952Y-57754819D02*
X146119047Y-57754819D01*
X146119047Y-57754819D02*
X146214285Y-57802438D01*
X146214285Y-57802438D02*
X146261904Y-57850057D01*
X146261904Y-57850057D02*
X146309523Y-57945295D01*
X146309523Y-57945295D02*
X146309523Y-58040533D01*
X146309523Y-58040533D02*
X146261904Y-58183390D01*
X146261904Y-58183390D02*
X145690476Y-58754819D01*
X145690476Y-58754819D02*
X146309523Y-58754819D01*
X137254819Y-148938094D02*
X136254819Y-148938094D01*
X136254819Y-148938094D02*
X136254819Y-148699999D01*
X136254819Y-148699999D02*
X136302438Y-148557142D01*
X136302438Y-148557142D02*
X136397676Y-148461904D01*
X136397676Y-148461904D02*
X136492914Y-148414285D01*
X136492914Y-148414285D02*
X136683390Y-148366666D01*
X136683390Y-148366666D02*
X136826247Y-148366666D01*
X136826247Y-148366666D02*
X137016723Y-148414285D01*
X137016723Y-148414285D02*
X137111961Y-148461904D01*
X137111961Y-148461904D02*
X137207200Y-148557142D01*
X137207200Y-148557142D02*
X137254819Y-148699999D01*
X137254819Y-148699999D02*
X137254819Y-148938094D01*
X137254819Y-147890475D02*
X137254819Y-147699999D01*
X137254819Y-147699999D02*
X137207200Y-147604761D01*
X137207200Y-147604761D02*
X137159580Y-147557142D01*
X137159580Y-147557142D02*
X137016723Y-147461904D01*
X137016723Y-147461904D02*
X136826247Y-147414285D01*
X136826247Y-147414285D02*
X136445295Y-147414285D01*
X136445295Y-147414285D02*
X136350057Y-147461904D01*
X136350057Y-147461904D02*
X136302438Y-147509523D01*
X136302438Y-147509523D02*
X136254819Y-147604761D01*
X136254819Y-147604761D02*
X136254819Y-147795237D01*
X136254819Y-147795237D02*
X136302438Y-147890475D01*
X136302438Y-147890475D02*
X136350057Y-147938094D01*
X136350057Y-147938094D02*
X136445295Y-147985713D01*
X136445295Y-147985713D02*
X136683390Y-147985713D01*
X136683390Y-147985713D02*
X136778628Y-147938094D01*
X136778628Y-147938094D02*
X136826247Y-147890475D01*
X136826247Y-147890475D02*
X136873866Y-147795237D01*
X136873866Y-147795237D02*
X136873866Y-147604761D01*
X136873866Y-147604761D02*
X136826247Y-147509523D01*
X136826247Y-147509523D02*
X136778628Y-147461904D01*
X136778628Y-147461904D02*
X136683390Y-147414285D01*
X113885714Y-151054819D02*
X113885714Y-150054819D01*
X113885714Y-150054819D02*
X114123809Y-150054819D01*
X114123809Y-150054819D02*
X114266666Y-150102438D01*
X114266666Y-150102438D02*
X114361904Y-150197676D01*
X114361904Y-150197676D02*
X114409523Y-150292914D01*
X114409523Y-150292914D02*
X114457142Y-150483390D01*
X114457142Y-150483390D02*
X114457142Y-150626247D01*
X114457142Y-150626247D02*
X114409523Y-150816723D01*
X114409523Y-150816723D02*
X114361904Y-150911961D01*
X114361904Y-150911961D02*
X114266666Y-151007200D01*
X114266666Y-151007200D02*
X114123809Y-151054819D01*
X114123809Y-151054819D02*
X113885714Y-151054819D01*
X115409523Y-151054819D02*
X114838095Y-151054819D01*
X115123809Y-151054819D02*
X115123809Y-150054819D01*
X115123809Y-150054819D02*
X115028571Y-150197676D01*
X115028571Y-150197676D02*
X114933333Y-150292914D01*
X114933333Y-150292914D02*
X114838095Y-150340533D01*
X116028571Y-150054819D02*
X116123809Y-150054819D01*
X116123809Y-150054819D02*
X116219047Y-150102438D01*
X116219047Y-150102438D02*
X116266666Y-150150057D01*
X116266666Y-150150057D02*
X116314285Y-150245295D01*
X116314285Y-150245295D02*
X116361904Y-150435771D01*
X116361904Y-150435771D02*
X116361904Y-150673866D01*
X116361904Y-150673866D02*
X116314285Y-150864342D01*
X116314285Y-150864342D02*
X116266666Y-150959580D01*
X116266666Y-150959580D02*
X116219047Y-151007200D01*
X116219047Y-151007200D02*
X116123809Y-151054819D01*
X116123809Y-151054819D02*
X116028571Y-151054819D01*
X116028571Y-151054819D02*
X115933333Y-151007200D01*
X115933333Y-151007200D02*
X115885714Y-150959580D01*
X115885714Y-150959580D02*
X115838095Y-150864342D01*
X115838095Y-150864342D02*
X115790476Y-150673866D01*
X115790476Y-150673866D02*
X115790476Y-150435771D01*
X115790476Y-150435771D02*
X115838095Y-150245295D01*
X115838095Y-150245295D02*
X115885714Y-150150057D01*
X115885714Y-150150057D02*
X115933333Y-150102438D01*
X115933333Y-150102438D02*
X116028571Y-150054819D01*
X61524819Y-56666666D02*
X61048628Y-56999999D01*
X61524819Y-57238094D02*
X60524819Y-57238094D01*
X60524819Y-57238094D02*
X60524819Y-56857142D01*
X60524819Y-56857142D02*
X60572438Y-56761904D01*
X60572438Y-56761904D02*
X60620057Y-56714285D01*
X60620057Y-56714285D02*
X60715295Y-56666666D01*
X60715295Y-56666666D02*
X60858152Y-56666666D01*
X60858152Y-56666666D02*
X60953390Y-56714285D01*
X60953390Y-56714285D02*
X61001009Y-56761904D01*
X61001009Y-56761904D02*
X61048628Y-56857142D01*
X61048628Y-56857142D02*
X61048628Y-57238094D01*
X60524819Y-55809523D02*
X60524819Y-55999999D01*
X60524819Y-55999999D02*
X60572438Y-56095237D01*
X60572438Y-56095237D02*
X60620057Y-56142856D01*
X60620057Y-56142856D02*
X60762914Y-56238094D01*
X60762914Y-56238094D02*
X60953390Y-56285713D01*
X60953390Y-56285713D02*
X61334342Y-56285713D01*
X61334342Y-56285713D02*
X61429580Y-56238094D01*
X61429580Y-56238094D02*
X61477200Y-56190475D01*
X61477200Y-56190475D02*
X61524819Y-56095237D01*
X61524819Y-56095237D02*
X61524819Y-55904761D01*
X61524819Y-55904761D02*
X61477200Y-55809523D01*
X61477200Y-55809523D02*
X61429580Y-55761904D01*
X61429580Y-55761904D02*
X61334342Y-55714285D01*
X61334342Y-55714285D02*
X61096247Y-55714285D01*
X61096247Y-55714285D02*
X61001009Y-55761904D01*
X61001009Y-55761904D02*
X60953390Y-55809523D01*
X60953390Y-55809523D02*
X60905771Y-55904761D01*
X60905771Y-55904761D02*
X60905771Y-56095237D01*
X60905771Y-56095237D02*
X60953390Y-56190475D01*
X60953390Y-56190475D02*
X61001009Y-56238094D01*
X61001009Y-56238094D02*
X61096247Y-56285713D01*
X99238095Y-145679819D02*
X99238095Y-146489342D01*
X99238095Y-146489342D02*
X99285714Y-146584580D01*
X99285714Y-146584580D02*
X99333333Y-146632200D01*
X99333333Y-146632200D02*
X99428571Y-146679819D01*
X99428571Y-146679819D02*
X99619047Y-146679819D01*
X99619047Y-146679819D02*
X99714285Y-146632200D01*
X99714285Y-146632200D02*
X99761904Y-146584580D01*
X99761904Y-146584580D02*
X99809523Y-146489342D01*
X99809523Y-146489342D02*
X99809523Y-145679819D01*
X100238095Y-145775057D02*
X100285714Y-145727438D01*
X100285714Y-145727438D02*
X100380952Y-145679819D01*
X100380952Y-145679819D02*
X100619047Y-145679819D01*
X100619047Y-145679819D02*
X100714285Y-145727438D01*
X100714285Y-145727438D02*
X100761904Y-145775057D01*
X100761904Y-145775057D02*
X100809523Y-145870295D01*
X100809523Y-145870295D02*
X100809523Y-145965533D01*
X100809523Y-145965533D02*
X100761904Y-146108390D01*
X100761904Y-146108390D02*
X100190476Y-146679819D01*
X100190476Y-146679819D02*
X100809523Y-146679819D01*
X121885714Y-151954819D02*
X121885714Y-150954819D01*
X121885714Y-150954819D02*
X122123809Y-150954819D01*
X122123809Y-150954819D02*
X122266666Y-151002438D01*
X122266666Y-151002438D02*
X122361904Y-151097676D01*
X122361904Y-151097676D02*
X122409523Y-151192914D01*
X122409523Y-151192914D02*
X122457142Y-151383390D01*
X122457142Y-151383390D02*
X122457142Y-151526247D01*
X122457142Y-151526247D02*
X122409523Y-151716723D01*
X122409523Y-151716723D02*
X122361904Y-151811961D01*
X122361904Y-151811961D02*
X122266666Y-151907200D01*
X122266666Y-151907200D02*
X122123809Y-151954819D01*
X122123809Y-151954819D02*
X121885714Y-151954819D01*
X123409523Y-151954819D02*
X122838095Y-151954819D01*
X123123809Y-151954819D02*
X123123809Y-150954819D01*
X123123809Y-150954819D02*
X123028571Y-151097676D01*
X123028571Y-151097676D02*
X122933333Y-151192914D01*
X122933333Y-151192914D02*
X122838095Y-151240533D01*
X123742857Y-150954819D02*
X124361904Y-150954819D01*
X124361904Y-150954819D02*
X124028571Y-151335771D01*
X124028571Y-151335771D02*
X124171428Y-151335771D01*
X124171428Y-151335771D02*
X124266666Y-151383390D01*
X124266666Y-151383390D02*
X124314285Y-151431009D01*
X124314285Y-151431009D02*
X124361904Y-151526247D01*
X124361904Y-151526247D02*
X124361904Y-151764342D01*
X124361904Y-151764342D02*
X124314285Y-151859580D01*
X124314285Y-151859580D02*
X124266666Y-151907200D01*
X124266666Y-151907200D02*
X124171428Y-151954819D01*
X124171428Y-151954819D02*
X123885714Y-151954819D01*
X123885714Y-151954819D02*
X123790476Y-151907200D01*
X123790476Y-151907200D02*
X123742857Y-151859580D01*
X128666667Y-144907200D02*
X128809524Y-144954819D01*
X128809524Y-144954819D02*
X129047619Y-144954819D01*
X129047619Y-144954819D02*
X129142857Y-144907200D01*
X129142857Y-144907200D02*
X129190476Y-144859580D01*
X129190476Y-144859580D02*
X129238095Y-144764342D01*
X129238095Y-144764342D02*
X129238095Y-144669104D01*
X129238095Y-144669104D02*
X129190476Y-144573866D01*
X129190476Y-144573866D02*
X129142857Y-144526247D01*
X129142857Y-144526247D02*
X129047619Y-144478628D01*
X129047619Y-144478628D02*
X128857143Y-144431009D01*
X128857143Y-144431009D02*
X128761905Y-144383390D01*
X128761905Y-144383390D02*
X128714286Y-144335771D01*
X128714286Y-144335771D02*
X128666667Y-144240533D01*
X128666667Y-144240533D02*
X128666667Y-144145295D01*
X128666667Y-144145295D02*
X128714286Y-144050057D01*
X128714286Y-144050057D02*
X128761905Y-144002438D01*
X128761905Y-144002438D02*
X128857143Y-143954819D01*
X128857143Y-143954819D02*
X129095238Y-143954819D01*
X129095238Y-143954819D02*
X129238095Y-144002438D01*
X129571429Y-143954819D02*
X129809524Y-144954819D01*
X129809524Y-144954819D02*
X130000000Y-144240533D01*
X130000000Y-144240533D02*
X130190476Y-144954819D01*
X130190476Y-144954819D02*
X130428572Y-143954819D01*
X131238095Y-144288152D02*
X131238095Y-144954819D01*
X131000000Y-143907200D02*
X130761905Y-144621485D01*
X130761905Y-144621485D02*
X131380952Y-144621485D01*
X119261905Y-145954819D02*
X119261905Y-144954819D01*
X119261905Y-144954819D02*
X119500000Y-144954819D01*
X119500000Y-144954819D02*
X119642857Y-145002438D01*
X119642857Y-145002438D02*
X119738095Y-145097676D01*
X119738095Y-145097676D02*
X119785714Y-145192914D01*
X119785714Y-145192914D02*
X119833333Y-145383390D01*
X119833333Y-145383390D02*
X119833333Y-145526247D01*
X119833333Y-145526247D02*
X119785714Y-145716723D01*
X119785714Y-145716723D02*
X119738095Y-145811961D01*
X119738095Y-145811961D02*
X119642857Y-145907200D01*
X119642857Y-145907200D02*
X119500000Y-145954819D01*
X119500000Y-145954819D02*
X119261905Y-145954819D01*
X120690476Y-144954819D02*
X120500000Y-144954819D01*
X120500000Y-144954819D02*
X120404762Y-145002438D01*
X120404762Y-145002438D02*
X120357143Y-145050057D01*
X120357143Y-145050057D02*
X120261905Y-145192914D01*
X120261905Y-145192914D02*
X120214286Y-145383390D01*
X120214286Y-145383390D02*
X120214286Y-145764342D01*
X120214286Y-145764342D02*
X120261905Y-145859580D01*
X120261905Y-145859580D02*
X120309524Y-145907200D01*
X120309524Y-145907200D02*
X120404762Y-145954819D01*
X120404762Y-145954819D02*
X120595238Y-145954819D01*
X120595238Y-145954819D02*
X120690476Y-145907200D01*
X120690476Y-145907200D02*
X120738095Y-145859580D01*
X120738095Y-145859580D02*
X120785714Y-145764342D01*
X120785714Y-145764342D02*
X120785714Y-145526247D01*
X120785714Y-145526247D02*
X120738095Y-145431009D01*
X120738095Y-145431009D02*
X120690476Y-145383390D01*
X120690476Y-145383390D02*
X120595238Y-145335771D01*
X120595238Y-145335771D02*
X120404762Y-145335771D01*
X120404762Y-145335771D02*
X120309524Y-145383390D01*
X120309524Y-145383390D02*
X120261905Y-145431009D01*
X120261905Y-145431009D02*
X120214286Y-145526247D01*
X117028571Y-147737295D02*
X116571428Y-147737295D01*
X116800000Y-147737295D02*
X116800000Y-146937295D01*
X116800000Y-146937295D02*
X116723809Y-147051580D01*
X116723809Y-147051580D02*
X116647619Y-147127771D01*
X116647619Y-147127771D02*
X116571428Y-147165866D01*
X88666667Y-144907200D02*
X88809524Y-144954819D01*
X88809524Y-144954819D02*
X89047619Y-144954819D01*
X89047619Y-144954819D02*
X89142857Y-144907200D01*
X89142857Y-144907200D02*
X89190476Y-144859580D01*
X89190476Y-144859580D02*
X89238095Y-144764342D01*
X89238095Y-144764342D02*
X89238095Y-144669104D01*
X89238095Y-144669104D02*
X89190476Y-144573866D01*
X89190476Y-144573866D02*
X89142857Y-144526247D01*
X89142857Y-144526247D02*
X89047619Y-144478628D01*
X89047619Y-144478628D02*
X88857143Y-144431009D01*
X88857143Y-144431009D02*
X88761905Y-144383390D01*
X88761905Y-144383390D02*
X88714286Y-144335771D01*
X88714286Y-144335771D02*
X88666667Y-144240533D01*
X88666667Y-144240533D02*
X88666667Y-144145295D01*
X88666667Y-144145295D02*
X88714286Y-144050057D01*
X88714286Y-144050057D02*
X88761905Y-144002438D01*
X88761905Y-144002438D02*
X88857143Y-143954819D01*
X88857143Y-143954819D02*
X89095238Y-143954819D01*
X89095238Y-143954819D02*
X89238095Y-144002438D01*
X89571429Y-143954819D02*
X89809524Y-144954819D01*
X89809524Y-144954819D02*
X90000000Y-144240533D01*
X90000000Y-144240533D02*
X90190476Y-144954819D01*
X90190476Y-144954819D02*
X90428572Y-143954819D01*
X90761905Y-144050057D02*
X90809524Y-144002438D01*
X90809524Y-144002438D02*
X90904762Y-143954819D01*
X90904762Y-143954819D02*
X91142857Y-143954819D01*
X91142857Y-143954819D02*
X91238095Y-144002438D01*
X91238095Y-144002438D02*
X91285714Y-144050057D01*
X91285714Y-144050057D02*
X91333333Y-144145295D01*
X91333333Y-144145295D02*
X91333333Y-144240533D01*
X91333333Y-144240533D02*
X91285714Y-144383390D01*
X91285714Y-144383390D02*
X90714286Y-144954819D01*
X90714286Y-144954819D02*
X91333333Y-144954819D01*
X129238095Y-60154819D02*
X129238095Y-60964342D01*
X129238095Y-60964342D02*
X129285714Y-61059580D01*
X129285714Y-61059580D02*
X129333333Y-61107200D01*
X129333333Y-61107200D02*
X129428571Y-61154819D01*
X129428571Y-61154819D02*
X129619047Y-61154819D01*
X129619047Y-61154819D02*
X129714285Y-61107200D01*
X129714285Y-61107200D02*
X129761904Y-61059580D01*
X129761904Y-61059580D02*
X129809523Y-60964342D01*
X129809523Y-60964342D02*
X129809523Y-60154819D01*
X130714285Y-60488152D02*
X130714285Y-61154819D01*
X130476190Y-60107200D02*
X130238095Y-60821485D01*
X130238095Y-60821485D02*
X130857142Y-60821485D01*
X53738095Y-58754819D02*
X53738095Y-57754819D01*
X53738095Y-58231009D02*
X54309523Y-58231009D01*
X54309523Y-58754819D02*
X54309523Y-57754819D01*
X55309523Y-58754819D02*
X54738095Y-58754819D01*
X55023809Y-58754819D02*
X55023809Y-57754819D01*
X55023809Y-57754819D02*
X54928571Y-57897676D01*
X54928571Y-57897676D02*
X54833333Y-57992914D01*
X54833333Y-57992914D02*
X54738095Y-58040533D01*
X78785714Y-152954819D02*
X78785714Y-151954819D01*
X78785714Y-151954819D02*
X79023809Y-151954819D01*
X79023809Y-151954819D02*
X79166666Y-152002438D01*
X79166666Y-152002438D02*
X79261904Y-152097676D01*
X79261904Y-152097676D02*
X79309523Y-152192914D01*
X79309523Y-152192914D02*
X79357142Y-152383390D01*
X79357142Y-152383390D02*
X79357142Y-152526247D01*
X79357142Y-152526247D02*
X79309523Y-152716723D01*
X79309523Y-152716723D02*
X79261904Y-152811961D01*
X79261904Y-152811961D02*
X79166666Y-152907200D01*
X79166666Y-152907200D02*
X79023809Y-152954819D01*
X79023809Y-152954819D02*
X78785714Y-152954819D01*
X80309523Y-152954819D02*
X79738095Y-152954819D01*
X80023809Y-152954819D02*
X80023809Y-151954819D01*
X80023809Y-151954819D02*
X79928571Y-152097676D01*
X79928571Y-152097676D02*
X79833333Y-152192914D01*
X79833333Y-152192914D02*
X79738095Y-152240533D01*
X81166666Y-152288152D02*
X81166666Y-152954819D01*
X80928571Y-151907200D02*
X80690476Y-152621485D01*
X80690476Y-152621485D02*
X81309523Y-152621485D01*
X67104819Y-57238094D02*
X66104819Y-57238094D01*
X66104819Y-57238094D02*
X66104819Y-56999999D01*
X66104819Y-56999999D02*
X66152438Y-56857142D01*
X66152438Y-56857142D02*
X66247676Y-56761904D01*
X66247676Y-56761904D02*
X66342914Y-56714285D01*
X66342914Y-56714285D02*
X66533390Y-56666666D01*
X66533390Y-56666666D02*
X66676247Y-56666666D01*
X66676247Y-56666666D02*
X66866723Y-56714285D01*
X66866723Y-56714285D02*
X66961961Y-56761904D01*
X66961961Y-56761904D02*
X67057200Y-56857142D01*
X67057200Y-56857142D02*
X67104819Y-56999999D01*
X67104819Y-56999999D02*
X67104819Y-57238094D01*
X66104819Y-56333332D02*
X66104819Y-55666666D01*
X66104819Y-55666666D02*
X67104819Y-56095237D01*
X136289580Y-58092857D02*
X136337200Y-58140476D01*
X136337200Y-58140476D02*
X136384819Y-58283333D01*
X136384819Y-58283333D02*
X136384819Y-58378571D01*
X136384819Y-58378571D02*
X136337200Y-58521428D01*
X136337200Y-58521428D02*
X136241961Y-58616666D01*
X136241961Y-58616666D02*
X136146723Y-58664285D01*
X136146723Y-58664285D02*
X135956247Y-58711904D01*
X135956247Y-58711904D02*
X135813390Y-58711904D01*
X135813390Y-58711904D02*
X135622914Y-58664285D01*
X135622914Y-58664285D02*
X135527676Y-58616666D01*
X135527676Y-58616666D02*
X135432438Y-58521428D01*
X135432438Y-58521428D02*
X135384819Y-58378571D01*
X135384819Y-58378571D02*
X135384819Y-58283333D01*
X135384819Y-58283333D02*
X135432438Y-58140476D01*
X135432438Y-58140476D02*
X135480057Y-58092857D01*
X136384819Y-57140476D02*
X136384819Y-57711904D01*
X136384819Y-57426190D02*
X135384819Y-57426190D01*
X135384819Y-57426190D02*
X135527676Y-57521428D01*
X135527676Y-57521428D02*
X135622914Y-57616666D01*
X135622914Y-57616666D02*
X135670533Y-57711904D01*
X135384819Y-56283333D02*
X135384819Y-56473809D01*
X135384819Y-56473809D02*
X135432438Y-56569047D01*
X135432438Y-56569047D02*
X135480057Y-56616666D01*
X135480057Y-56616666D02*
X135622914Y-56711904D01*
X135622914Y-56711904D02*
X135813390Y-56759523D01*
X135813390Y-56759523D02*
X136194342Y-56759523D01*
X136194342Y-56759523D02*
X136289580Y-56711904D01*
X136289580Y-56711904D02*
X136337200Y-56664285D01*
X136337200Y-56664285D02*
X136384819Y-56569047D01*
X136384819Y-56569047D02*
X136384819Y-56378571D01*
X136384819Y-56378571D02*
X136337200Y-56283333D01*
X136337200Y-56283333D02*
X136289580Y-56235714D01*
X136289580Y-56235714D02*
X136194342Y-56188095D01*
X136194342Y-56188095D02*
X135956247Y-56188095D01*
X135956247Y-56188095D02*
X135861009Y-56235714D01*
X135861009Y-56235714D02*
X135813390Y-56283333D01*
X135813390Y-56283333D02*
X135765771Y-56378571D01*
X135765771Y-56378571D02*
X135765771Y-56569047D01*
X135765771Y-56569047D02*
X135813390Y-56664285D01*
X135813390Y-56664285D02*
X135861009Y-56711904D01*
X135861009Y-56711904D02*
X135956247Y-56759523D01*
X102357142Y-145109580D02*
X102309523Y-145157200D01*
X102309523Y-145157200D02*
X102166666Y-145204819D01*
X102166666Y-145204819D02*
X102071428Y-145204819D01*
X102071428Y-145204819D02*
X101928571Y-145157200D01*
X101928571Y-145157200D02*
X101833333Y-145061961D01*
X101833333Y-145061961D02*
X101785714Y-144966723D01*
X101785714Y-144966723D02*
X101738095Y-144776247D01*
X101738095Y-144776247D02*
X101738095Y-144633390D01*
X101738095Y-144633390D02*
X101785714Y-144442914D01*
X101785714Y-144442914D02*
X101833333Y-144347676D01*
X101833333Y-144347676D02*
X101928571Y-144252438D01*
X101928571Y-144252438D02*
X102071428Y-144204819D01*
X102071428Y-144204819D02*
X102166666Y-144204819D01*
X102166666Y-144204819D02*
X102309523Y-144252438D01*
X102309523Y-144252438D02*
X102357142Y-144300057D01*
X103309523Y-145204819D02*
X102738095Y-145204819D01*
X103023809Y-145204819D02*
X103023809Y-144204819D01*
X103023809Y-144204819D02*
X102928571Y-144347676D01*
X102928571Y-144347676D02*
X102833333Y-144442914D01*
X102833333Y-144442914D02*
X102738095Y-144490533D01*
X104166666Y-144538152D02*
X104166666Y-145204819D01*
X103928571Y-144157200D02*
X103690476Y-144871485D01*
X103690476Y-144871485D02*
X104309523Y-144871485D01*
X79261905Y-147054819D02*
X79261905Y-146054819D01*
X79261905Y-146054819D02*
X79500000Y-146054819D01*
X79500000Y-146054819D02*
X79642857Y-146102438D01*
X79642857Y-146102438D02*
X79738095Y-146197676D01*
X79738095Y-146197676D02*
X79785714Y-146292914D01*
X79785714Y-146292914D02*
X79833333Y-146483390D01*
X79833333Y-146483390D02*
X79833333Y-146626247D01*
X79833333Y-146626247D02*
X79785714Y-146816723D01*
X79785714Y-146816723D02*
X79738095Y-146911961D01*
X79738095Y-146911961D02*
X79642857Y-147007200D01*
X79642857Y-147007200D02*
X79500000Y-147054819D01*
X79500000Y-147054819D02*
X79261905Y-147054819D01*
X80738095Y-146054819D02*
X80261905Y-146054819D01*
X80261905Y-146054819D02*
X80214286Y-146531009D01*
X80214286Y-146531009D02*
X80261905Y-146483390D01*
X80261905Y-146483390D02*
X80357143Y-146435771D01*
X80357143Y-146435771D02*
X80595238Y-146435771D01*
X80595238Y-146435771D02*
X80690476Y-146483390D01*
X80690476Y-146483390D02*
X80738095Y-146531009D01*
X80738095Y-146531009D02*
X80785714Y-146626247D01*
X80785714Y-146626247D02*
X80785714Y-146864342D01*
X80785714Y-146864342D02*
X80738095Y-146959580D01*
X80738095Y-146959580D02*
X80690476Y-147007200D01*
X80690476Y-147007200D02*
X80595238Y-147054819D01*
X80595238Y-147054819D02*
X80357143Y-147054819D01*
X80357143Y-147054819D02*
X80261905Y-147007200D01*
X80261905Y-147007200D02*
X80214286Y-146959580D01*
X144738095Y-145654819D02*
X144738095Y-144654819D01*
X144738095Y-145131009D02*
X145309523Y-145131009D01*
X145309523Y-145654819D02*
X145309523Y-144654819D01*
X146214285Y-144988152D02*
X146214285Y-145654819D01*
X145976190Y-144607200D02*
X145738095Y-145321485D01*
X145738095Y-145321485D02*
X146357142Y-145321485D01*
X79833333Y-144274819D02*
X79500000Y-143798628D01*
X79261905Y-144274819D02*
X79261905Y-143274819D01*
X79261905Y-143274819D02*
X79642857Y-143274819D01*
X79642857Y-143274819D02*
X79738095Y-143322438D01*
X79738095Y-143322438D02*
X79785714Y-143370057D01*
X79785714Y-143370057D02*
X79833333Y-143465295D01*
X79833333Y-143465295D02*
X79833333Y-143608152D01*
X79833333Y-143608152D02*
X79785714Y-143703390D01*
X79785714Y-143703390D02*
X79738095Y-143751009D01*
X79738095Y-143751009D02*
X79642857Y-143798628D01*
X79642857Y-143798628D02*
X79261905Y-143798628D01*
X80738095Y-143274819D02*
X80261905Y-143274819D01*
X80261905Y-143274819D02*
X80214286Y-143751009D01*
X80214286Y-143751009D02*
X80261905Y-143703390D01*
X80261905Y-143703390D02*
X80357143Y-143655771D01*
X80357143Y-143655771D02*
X80595238Y-143655771D01*
X80595238Y-143655771D02*
X80690476Y-143703390D01*
X80690476Y-143703390D02*
X80738095Y-143751009D01*
X80738095Y-143751009D02*
X80785714Y-143846247D01*
X80785714Y-143846247D02*
X80785714Y-144084342D01*
X80785714Y-144084342D02*
X80738095Y-144179580D01*
X80738095Y-144179580D02*
X80690476Y-144227200D01*
X80690476Y-144227200D02*
X80595238Y-144274819D01*
X80595238Y-144274819D02*
X80357143Y-144274819D01*
X80357143Y-144274819D02*
X80261905Y-144227200D01*
X80261905Y-144227200D02*
X80214286Y-144179580D01*
X97254819Y-149514285D02*
X96254819Y-149514285D01*
X96254819Y-149514285D02*
X96254819Y-149276190D01*
X96254819Y-149276190D02*
X96302438Y-149133333D01*
X96302438Y-149133333D02*
X96397676Y-149038095D01*
X96397676Y-149038095D02*
X96492914Y-148990476D01*
X96492914Y-148990476D02*
X96683390Y-148942857D01*
X96683390Y-148942857D02*
X96826247Y-148942857D01*
X96826247Y-148942857D02*
X97016723Y-148990476D01*
X97016723Y-148990476D02*
X97111961Y-149038095D01*
X97111961Y-149038095D02*
X97207200Y-149133333D01*
X97207200Y-149133333D02*
X97254819Y-149276190D01*
X97254819Y-149276190D02*
X97254819Y-149514285D01*
X97254819Y-147990476D02*
X97254819Y-148561904D01*
X97254819Y-148276190D02*
X96254819Y-148276190D01*
X96254819Y-148276190D02*
X96397676Y-148371428D01*
X96397676Y-148371428D02*
X96492914Y-148466666D01*
X96492914Y-148466666D02*
X96540533Y-148561904D01*
X97254819Y-147038095D02*
X97254819Y-147609523D01*
X97254819Y-147323809D02*
X96254819Y-147323809D01*
X96254819Y-147323809D02*
X96397676Y-147419047D01*
X96397676Y-147419047D02*
X96492914Y-147514285D01*
X96492914Y-147514285D02*
X96540533Y-147609523D01*
X68666667Y-144907200D02*
X68809524Y-144954819D01*
X68809524Y-144954819D02*
X69047619Y-144954819D01*
X69047619Y-144954819D02*
X69142857Y-144907200D01*
X69142857Y-144907200D02*
X69190476Y-144859580D01*
X69190476Y-144859580D02*
X69238095Y-144764342D01*
X69238095Y-144764342D02*
X69238095Y-144669104D01*
X69238095Y-144669104D02*
X69190476Y-144573866D01*
X69190476Y-144573866D02*
X69142857Y-144526247D01*
X69142857Y-144526247D02*
X69047619Y-144478628D01*
X69047619Y-144478628D02*
X68857143Y-144431009D01*
X68857143Y-144431009D02*
X68761905Y-144383390D01*
X68761905Y-144383390D02*
X68714286Y-144335771D01*
X68714286Y-144335771D02*
X68666667Y-144240533D01*
X68666667Y-144240533D02*
X68666667Y-144145295D01*
X68666667Y-144145295D02*
X68714286Y-144050057D01*
X68714286Y-144050057D02*
X68761905Y-144002438D01*
X68761905Y-144002438D02*
X68857143Y-143954819D01*
X68857143Y-143954819D02*
X69095238Y-143954819D01*
X69095238Y-143954819D02*
X69238095Y-144002438D01*
X69571429Y-143954819D02*
X69809524Y-144954819D01*
X69809524Y-144954819D02*
X70000000Y-144240533D01*
X70000000Y-144240533D02*
X70190476Y-144954819D01*
X70190476Y-144954819D02*
X70428572Y-143954819D01*
X71333333Y-144954819D02*
X70761905Y-144954819D01*
X71047619Y-144954819D02*
X71047619Y-143954819D01*
X71047619Y-143954819D02*
X70952381Y-144097676D01*
X70952381Y-144097676D02*
X70857143Y-144192914D01*
X70857143Y-144192914D02*
X70761905Y-144240533D01*
X77104819Y-57238094D02*
X76104819Y-57238094D01*
X76104819Y-57238094D02*
X76104819Y-56999999D01*
X76104819Y-56999999D02*
X76152438Y-56857142D01*
X76152438Y-56857142D02*
X76247676Y-56761904D01*
X76247676Y-56761904D02*
X76342914Y-56714285D01*
X76342914Y-56714285D02*
X76533390Y-56666666D01*
X76533390Y-56666666D02*
X76676247Y-56666666D01*
X76676247Y-56666666D02*
X76866723Y-56714285D01*
X76866723Y-56714285D02*
X76961961Y-56761904D01*
X76961961Y-56761904D02*
X77057200Y-56857142D01*
X77057200Y-56857142D02*
X77104819Y-56999999D01*
X77104819Y-56999999D02*
X77104819Y-57238094D01*
X76533390Y-56095237D02*
X76485771Y-56190475D01*
X76485771Y-56190475D02*
X76438152Y-56238094D01*
X76438152Y-56238094D02*
X76342914Y-56285713D01*
X76342914Y-56285713D02*
X76295295Y-56285713D01*
X76295295Y-56285713D02*
X76200057Y-56238094D01*
X76200057Y-56238094D02*
X76152438Y-56190475D01*
X76152438Y-56190475D02*
X76104819Y-56095237D01*
X76104819Y-56095237D02*
X76104819Y-55904761D01*
X76104819Y-55904761D02*
X76152438Y-55809523D01*
X76152438Y-55809523D02*
X76200057Y-55761904D01*
X76200057Y-55761904D02*
X76295295Y-55714285D01*
X76295295Y-55714285D02*
X76342914Y-55714285D01*
X76342914Y-55714285D02*
X76438152Y-55761904D01*
X76438152Y-55761904D02*
X76485771Y-55809523D01*
X76485771Y-55809523D02*
X76533390Y-55904761D01*
X76533390Y-55904761D02*
X76533390Y-56095237D01*
X76533390Y-56095237D02*
X76581009Y-56190475D01*
X76581009Y-56190475D02*
X76628628Y-56238094D01*
X76628628Y-56238094D02*
X76723866Y-56285713D01*
X76723866Y-56285713D02*
X76914342Y-56285713D01*
X76914342Y-56285713D02*
X77009580Y-56238094D01*
X77009580Y-56238094D02*
X77057200Y-56190475D01*
X77057200Y-56190475D02*
X77104819Y-56095237D01*
X77104819Y-56095237D02*
X77104819Y-55904761D01*
X77104819Y-55904761D02*
X77057200Y-55809523D01*
X77057200Y-55809523D02*
X77009580Y-55761904D01*
X77009580Y-55761904D02*
X76914342Y-55714285D01*
X76914342Y-55714285D02*
X76723866Y-55714285D01*
X76723866Y-55714285D02*
X76628628Y-55761904D01*
X76628628Y-55761904D02*
X76581009Y-55809523D01*
X76581009Y-55809523D02*
X76533390Y-55904761D01*
D14*
%TO.C,R11*%
X71977500Y-56262742D02*
X71977500Y-56737258D01*
X73022500Y-56262742D02*
X73022500Y-56737258D01*
%TO.C,D12*%
X74350000Y-150010000D02*
X74350000Y-147350000D01*
X74350000Y-150010000D02*
X76050000Y-150010000D01*
X76050000Y-150010000D02*
X76050000Y-147350000D01*
D10*
%TO.C,U6*%
X86000000Y-51000000D02*
X114000000Y-51000000D01*
X114000000Y-62000000D02*
X86000000Y-62000000D01*
D14*
%TO.C,SW3*%
X107250000Y-147250000D02*
X107250000Y-149250000D01*
X108250000Y-145950000D02*
X108700000Y-145500000D01*
X108250000Y-150550000D02*
X108700000Y-151000000D01*
X108700000Y-145500000D02*
X111300000Y-145500000D01*
X108700000Y-151000000D02*
X111300000Y-151000000D01*
X111750000Y-145950000D02*
X111300000Y-145500000D01*
X111750000Y-150550000D02*
X111300000Y-151000000D01*
X112750000Y-147250000D02*
X112750000Y-149250000D01*
%TO.C,D9*%
X134150000Y-149810000D02*
X134150000Y-147150000D01*
X134150000Y-149810000D02*
X135850000Y-149810000D01*
X135850000Y-149810000D02*
X135850000Y-147150000D01*
%TO.C,D10*%
X114250000Y-149610000D02*
X114250000Y-146950000D01*
X114250000Y-149610000D02*
X115950000Y-149610000D01*
X115950000Y-149610000D02*
X115950000Y-146950000D01*
%TO.C,R6*%
X61977500Y-56737258D02*
X61977500Y-56262742D01*
X63022500Y-56737258D02*
X63022500Y-56262742D01*
%TO.C,U2*%
X99020000Y-149350000D02*
X100990000Y-149350000D01*
X99300000Y-147150000D02*
X101000000Y-147150000D01*
X98900000Y-147190000D02*
X98620000Y-147190000D01*
X98900000Y-146910000D01*
X98900000Y-147190000D01*
G36*
X98900000Y-147190000D02*
G01*
X98620000Y-147190000D01*
X98900000Y-146910000D01*
X98900000Y-147190000D01*
G37*
%TO.C,D13*%
X118290000Y-150650000D02*
X118290000Y-152350000D01*
X118290000Y-150650000D02*
X120950000Y-150650000D01*
X118290000Y-152350000D02*
X120950000Y-152350000D01*
%TO.C,SW4*%
X127250000Y-147250000D02*
X127250000Y-149250000D01*
X128250000Y-145950000D02*
X128700000Y-145500000D01*
X128250000Y-150550000D02*
X128700000Y-151000000D01*
X128700000Y-145500000D02*
X131300000Y-145500000D01*
X128700000Y-151000000D02*
X131300000Y-151000000D01*
X131750000Y-145950000D02*
X131300000Y-145500000D01*
X131750000Y-150550000D02*
X131300000Y-151000000D01*
X132750000Y-147250000D02*
X132750000Y-149250000D01*
%TO.C,D6*%
X117200000Y-146250000D02*
X117200000Y-150250000D01*
X117200000Y-146250000D02*
X122800000Y-146250000D01*
X117200000Y-150250000D02*
X122200000Y-150250000D01*
X122800000Y-149650000D02*
X122200000Y-150250000D01*
X122800000Y-149650000D02*
X122800000Y-146250000D01*
%TO.C,SW2*%
X87250000Y-147250000D02*
X87250000Y-149250000D01*
X88250000Y-145950000D02*
X88700000Y-145500000D01*
X88250000Y-150550000D02*
X88700000Y-151000000D01*
X88700000Y-145500000D02*
X91300000Y-145500000D01*
X88700000Y-151000000D02*
X91300000Y-151000000D01*
X91750000Y-145950000D02*
X91300000Y-145500000D01*
X91750000Y-150550000D02*
X91300000Y-151000000D01*
X92750000Y-147250000D02*
X92750000Y-149250000D01*
%TO.C,U4*%
X129250000Y-56240000D02*
X130750000Y-56240000D01*
X129250000Y-57960000D02*
X130750000Y-57960000D01*
X128800000Y-56500000D02*
X128520000Y-56500000D01*
X128800000Y-56220000D01*
X128800000Y-56500000D01*
G36*
X128800000Y-56500000D02*
G01*
X128520000Y-56500000D01*
X128800000Y-56220000D01*
X128800000Y-56500000D01*
G37*
%TO.C,D14*%
X78390000Y-149750000D02*
X78390000Y-151450000D01*
X78390000Y-149750000D02*
X81050000Y-149750000D01*
X78390000Y-151450000D02*
X81050000Y-151450000D01*
%TO.C,D7*%
X64040000Y-54815000D02*
X64040000Y-57500000D01*
X65960000Y-54815000D02*
X64040000Y-54815000D01*
X65960000Y-57500000D02*
X65960000Y-54815000D01*
%TO.C,C16*%
X133990000Y-57309420D02*
X133990000Y-57590580D01*
X135010000Y-57309420D02*
X135010000Y-57590580D01*
%TO.C,C14*%
X99859420Y-144240000D02*
X100140580Y-144240000D01*
X99859420Y-145260000D02*
X100140580Y-145260000D01*
%TO.C,D5*%
X78315000Y-147290000D02*
X78315000Y-149210000D01*
X78315000Y-149210000D02*
X81000000Y-149210000D01*
X81000000Y-147290000D02*
X78315000Y-147290000D01*
%TO.C,R5*%
X79762742Y-144727500D02*
X80237258Y-144727500D01*
X79762742Y-145772500D02*
X80237258Y-145772500D01*
%TO.C,D11*%
X94150000Y-149910000D02*
X94150000Y-147250000D01*
X94150000Y-149910000D02*
X95850000Y-149910000D01*
X95850000Y-149910000D02*
X95850000Y-147250000D01*
%TO.C,SW1*%
X67250000Y-147250000D02*
X67250000Y-149250000D01*
X68250000Y-145950000D02*
X68700000Y-145500000D01*
X68250000Y-150550000D02*
X68700000Y-151000000D01*
X68700000Y-145500000D02*
X71300000Y-145500000D01*
X68700000Y-151000000D02*
X71300000Y-151000000D01*
X71750000Y-145950000D02*
X71300000Y-145500000D01*
X71750000Y-150550000D02*
X71300000Y-151000000D01*
X72750000Y-147250000D02*
X72750000Y-149250000D01*
%TO.C,D8*%
X74040000Y-54815000D02*
X74040000Y-57500000D01*
X75960000Y-54815000D02*
X74040000Y-54815000D01*
X75960000Y-57500000D02*
X75960000Y-54815000D01*
%TD*%
%LPC*%
D15*
%TO.C,R11*%
X72500000Y-55675000D03*
X72500000Y-57325000D03*
%TD*%
D16*
%TO.C,D12*%
X75200000Y-149450000D03*
X75200000Y-147350000D03*
%TD*%
D17*
%TO.C,H3*%
X54500000Y-149000000D03*
%TD*%
D18*
%TO.C,U6*%
X86900000Y-53960000D03*
X86900000Y-56500000D03*
X86900000Y-59040000D03*
X113100000Y-52690000D03*
X113100000Y-55230000D03*
X113100000Y-57770000D03*
X113100000Y-60310000D03*
%TD*%
D19*
%TO.C,SW3*%
X107000000Y-146375000D03*
X113000000Y-146375000D03*
X107000000Y-150125000D03*
X113000000Y-150125000D03*
%TD*%
D17*
%TO.C,H2*%
X145500000Y-54500000D03*
%TD*%
D16*
%TO.C,D9*%
X135000000Y-149250000D03*
X135000000Y-147150000D03*
%TD*%
%TO.C,D10*%
X115100000Y-149050000D03*
X115100000Y-146950000D03*
%TD*%
D20*
%TO.C,R6*%
X62500000Y-57325000D03*
X62500000Y-55675000D03*
%TD*%
D21*
%TO.C,U2*%
X99100000Y-147600000D03*
X99100000Y-148250000D03*
X99100000Y-148900000D03*
X100900000Y-148900000D03*
X100900000Y-148250000D03*
X100900000Y-147600000D03*
%TD*%
D22*
%TO.C,D13*%
X118850000Y-151500000D03*
X120950000Y-151500000D03*
%TD*%
D19*
%TO.C,SW4*%
X127000000Y-146375000D03*
X133000000Y-146375000D03*
X127000000Y-150125000D03*
X133000000Y-150125000D03*
%TD*%
D23*
%TO.C,D6*%
X118250000Y-147375000D03*
X118250000Y-149125000D03*
X121750000Y-149125000D03*
X121750000Y-147375000D03*
%TD*%
D19*
%TO.C,SW2*%
X87000000Y-146375000D03*
X93000000Y-146375000D03*
X87000000Y-150125000D03*
X93000000Y-150125000D03*
%TD*%
D24*
%TO.C,U4*%
X129300000Y-56700000D03*
X129300000Y-57500000D03*
X130700000Y-57500000D03*
X130700000Y-56700000D03*
%TD*%
D17*
%TO.C,H1*%
X54500000Y-54500000D03*
%TD*%
D22*
%TO.C,D14*%
X78950000Y-150600000D03*
X81050000Y-150600000D03*
%TD*%
D25*
%TO.C,D7*%
X65000000Y-55562500D03*
X65000000Y-57437500D03*
%TD*%
D26*
%TO.C,C16*%
X134500000Y-56675000D03*
X134500000Y-58225000D03*
%TD*%
D27*
%TO.C,C14*%
X99225000Y-144750000D03*
X100775000Y-144750000D03*
%TD*%
D28*
%TO.C,D5*%
X79062500Y-148250000D03*
X80937500Y-148250000D03*
%TD*%
D17*
%TO.C,H4*%
X145500000Y-149000000D03*
%TD*%
D29*
%TO.C,R5*%
X79175000Y-145250000D03*
X80825000Y-145250000D03*
%TD*%
D16*
%TO.C,D11*%
X95000000Y-149350000D03*
X95000000Y-147250000D03*
%TD*%
D19*
%TO.C,SW1*%
X67000000Y-146375000D03*
X73000000Y-146375000D03*
X67000000Y-150125000D03*
X73000000Y-150125000D03*
%TD*%
D25*
%TO.C,D8*%
X75000000Y-55562500D03*
X75000000Y-57437500D03*
%TD*%
%LPD*%
M02*
