%TF.GenerationSoftware,KiCad,Pcbnew,8.0.7*%
%TF.CreationDate,2025-02-02T10:29:54-08:00*%
%TF.ProjectId,hstat,68737461-742e-46b6-9963-61645f706362,rev?*%
%TF.SameCoordinates,Original*%
%TF.FileFunction,Copper,L2,Bot*%
%TF.FilePolarity,Positive*%
%FSLAX46Y46*%
G04 Gerber Fmt 4.6, Leading zero omitted, Abs format (unit mm)*
G04 Created by KiCad (PCBNEW 8.0.7) date 2025-02-02 10:29:54*
%MOMM*%
%LPD*%
G01*
G04 APERTURE LIST*
G04 Aperture macros list*
%AMRoundRect*
0 Rectangle with rounded corners*
0 $1 Rounding radius*
0 $2 $3 $4 $5 $6 $7 $8 $9 X,Y pos of 4 corners*
0 Add a 4 corners polygon primitive as box body*
4,1,4,$2,$3,$4,$5,$6,$7,$8,$9,$2,$3,0*
0 Add four circle primitives for the rounded corners*
1,1,$1+$1,$2,$3*
1,1,$1+$1,$4,$5*
1,1,$1+$1,$6,$7*
1,1,$1+$1,$8,$9*
0 Add four rect primitives between the rounded corners*
20,1,$1+$1,$2,$3,$4,$5,0*
20,1,$1+$1,$4,$5,$6,$7,0*
20,1,$1+$1,$6,$7,$8,$9,0*
20,1,$1+$1,$8,$9,$2,$3,0*%
%AMFreePoly0*
4,1,19,0.550000,-0.750000,0.000000,-0.750000,0.000000,-0.744911,-0.071157,-0.744911,-0.207708,-0.704816,-0.327430,-0.627875,-0.420627,-0.520320,-0.479746,-0.390866,-0.500000,-0.250000,-0.500000,0.250000,-0.479746,0.390866,-0.420627,0.520320,-0.327430,0.627875,-0.207708,0.704816,-0.071157,0.744911,0.000000,0.744911,0.000000,0.750000,0.550000,0.750000,0.550000,-0.750000,0.550000,-0.750000,
$1*%
%AMFreePoly1*
4,1,19,0.000000,0.744911,0.071157,0.744911,0.207708,0.704816,0.327430,0.627875,0.420627,0.520320,0.479746,0.390866,0.500000,0.250000,0.500000,-0.250000,0.479746,-0.390866,0.420627,-0.520320,0.327430,-0.627875,0.207708,-0.704816,0.071157,-0.744911,0.000000,-0.744911,0.000000,-0.750000,-0.550000,-0.750000,-0.550000,0.750000,0.000000,0.750000,0.000000,0.744911,0.000000,0.744911,
$1*%
G04 Aperture macros list end*
%TA.AperFunction,EtchedComponent*%
%ADD10C,0.000000*%
%TD*%
%TA.AperFunction,WasherPad*%
%ADD11C,5.500000*%
%TD*%
%TA.AperFunction,ComponentPad*%
%ADD12RoundRect,0.250000X-1.000000X-0.600000X1.000000X-0.600000X1.000000X0.600000X-1.000000X0.600000X0*%
%TD*%
%TA.AperFunction,ComponentPad*%
%ADD13O,2.500000X1.700000*%
%TD*%
%TA.AperFunction,ComponentPad*%
%ADD14O,2.100000X1.000000*%
%TD*%
%TA.AperFunction,ComponentPad*%
%ADD15O,1.800000X1.000000*%
%TD*%
%TA.AperFunction,SMDPad,CuDef*%
%ADD16RoundRect,0.250000X1.500000X1.000000X-1.500000X1.000000X-1.500000X-1.000000X1.500000X-1.000000X0*%
%TD*%
%TA.AperFunction,ComponentPad*%
%ADD17RoundRect,0.250000X-0.625000X0.350000X-0.625000X-0.350000X0.625000X-0.350000X0.625000X0.350000X0*%
%TD*%
%TA.AperFunction,ComponentPad*%
%ADD18O,1.750000X1.200000*%
%TD*%
%TA.AperFunction,ComponentPad*%
%ADD19R,2.600000X2.600000*%
%TD*%
%TA.AperFunction,ComponentPad*%
%ADD20C,2.600000*%
%TD*%
%TA.AperFunction,SMDPad,CuDef*%
%ADD21FreePoly0,270.000000*%
%TD*%
%TA.AperFunction,SMDPad,CuDef*%
%ADD22R,1.500000X1.000000*%
%TD*%
%TA.AperFunction,SMDPad,CuDef*%
%ADD23FreePoly1,270.000000*%
%TD*%
%TA.AperFunction,SMDPad,CuDef*%
%ADD24RoundRect,0.249750X-0.750250X0.305250X-0.750250X-0.305250X0.750250X-0.305250X0.750250X0.305250X0*%
%TD*%
%TA.AperFunction,SMDPad,CuDef*%
%ADD25FreePoly0,90.000000*%
%TD*%
%TA.AperFunction,SMDPad,CuDef*%
%ADD26FreePoly1,90.000000*%
%TD*%
%TA.AperFunction,ViaPad*%
%ADD27C,0.711200*%
%TD*%
%TA.AperFunction,Conductor*%
%ADD28C,0.889000*%
%TD*%
%TA.AperFunction,Conductor*%
%ADD29C,0.381000*%
%TD*%
%TA.AperFunction,Conductor*%
%ADD30C,0.635000*%
%TD*%
%TA.AperFunction,Conductor*%
%ADD31C,0.508000*%
%TD*%
%TA.AperFunction,Conductor*%
%ADD32C,1.016000*%
%TD*%
%TA.AperFunction,Conductor*%
%ADD33C,0.254000*%
%TD*%
G04 APERTURE END LIST*
D10*
%TA.AperFunction,EtchedComponent*%
%TO.C,JP4*%
G36*
X126686500Y-82760500D02*
G01*
X126086500Y-82760500D01*
X126086500Y-82260500D01*
X126686500Y-82260500D01*
X126686500Y-82760500D01*
G37*
%TD.AperFunction*%
%TA.AperFunction,EtchedComponent*%
%TO.C,JP5*%
G36*
X126686500Y-78980500D02*
G01*
X126086500Y-78980500D01*
X126086500Y-78480500D01*
X126686500Y-78480500D01*
X126686500Y-78980500D01*
G37*
%TD.AperFunction*%
%TD*%
D11*
%TO.P,DISP1,*%
%TO.N,*%
X88762500Y-48832500D03*
X88762500Y-103712500D03*
X190762500Y-48832500D03*
X190762500Y-103712500D03*
D12*
%TO.P,DISP1,1,VCC*%
%TO.N,Net-(DISP1-VCC)*%
X87762500Y-59762500D03*
D13*
%TO.P,DISP1,2,GND*%
%TO.N,GND*%
X87762500Y-62302500D03*
%TO.P,DISP1,3,LCD_CS*%
%TO.N,/LCD-CS*%
X87762500Y-64842500D03*
%TO.P,DISP1,4,LCD_RST*%
%TO.N,/LCD-RST*%
X87762500Y-67382500D03*
%TO.P,DISP1,5,LCD_RS*%
%TO.N,/LCD-DC{slash}RS*%
X87762500Y-69922500D03*
%TO.P,DISP1,6,MOSI*%
%TO.N,/SPI-MOSI*%
X87762500Y-72462500D03*
%TO.P,DISP1,7,SCK*%
%TO.N,/SPI-SCK*%
X87762500Y-75002500D03*
%TO.P,DISP1,8,LED*%
%TO.N,Net-(DISP1-LED)*%
X87762500Y-77542500D03*
%TO.P,DISP1,9,MISO*%
%TO.N,/SPI-MISO*%
X87762500Y-80082500D03*
%TO.P,DISP1,10,TS_SCL*%
%TO.N,/I2C-SCL*%
X87762500Y-82622500D03*
%TO.P,DISP1,11,TS_RST*%
%TO.N,/TS-RST*%
X87762500Y-85162500D03*
%TO.P,DISP1,12,TS_SDA*%
%TO.N,/I2C-SDA*%
X87762500Y-87742500D03*
%TO.P,DISP1,13,TS_INT*%
%TO.N,/TS-INT*%
X87762500Y-90242500D03*
%TO.P,DISP1,14,SD_CS*%
%TO.N,unconnected-(DISP1-SD_CS-Pad14)*%
X87762500Y-92782500D03*
%TD*%
D14*
%TO.P,J6,S1,SHIELD*%
%TO.N,GND*%
X194635500Y-85418500D03*
D15*
X198835500Y-85418500D03*
D14*
X194635500Y-76778500D03*
D15*
X198835500Y-76778500D03*
%TD*%
D16*
%TO.P,C15,1*%
%TO.N,Net-(D6-K)*%
X136038500Y-65350500D03*
%TO.P,C15,2*%
%TO.N,Net-(D6-A)*%
X129538500Y-65350500D03*
%TD*%
D17*
%TO.P,J1,1,Pin_1*%
%TO.N,+BATT*%
X135784500Y-53682500D03*
D18*
%TO.P,J1,2,Pin_2*%
%TO.N,GND*%
X135784500Y-55682500D03*
%TD*%
D19*
%TO.P,J5,1,Pin_1*%
%TO.N,Net-(J5-Pin_1)*%
X151532500Y-71192500D03*
D20*
%TO.P,J5,2,Pin_2*%
%TO.N,Net-(J5-Pin_2)*%
X151532500Y-76192500D03*
%TO.P,J5,3,Pin_3*%
%TO.N,Net-(J5-Pin_3)*%
X151532500Y-81192500D03*
%TD*%
D16*
%TO.P,C16,1*%
%TO.N,Net-(D6-K)*%
X135986500Y-94052500D03*
%TO.P,C16,2*%
%TO.N,Net-(D7-A)*%
X129486500Y-94052500D03*
%TD*%
D19*
%TO.P,J3,1,Pin_1*%
%TO.N,+3V3*%
X151532500Y-54047500D03*
D20*
%TO.P,J3,2,Pin_2*%
%TO.N,/TEMP2-DATA*%
X151532500Y-59047500D03*
%TO.P,J3,3,Pin_3*%
%TO.N,GND*%
X151532500Y-64047500D03*
%TD*%
D19*
%TO.P,J4,1,Pin_1*%
%TO.N,Net-(J4-Pin_1)*%
X151457500Y-88337500D03*
D20*
%TO.P,J4,2,Pin_2*%
%TO.N,Net-(J4-Pin_2)*%
X151457500Y-93337500D03*
%TO.P,J4,3,Pin_3*%
%TO.N,Net-(J4-Pin_3)*%
X151457500Y-98337500D03*
%TD*%
D21*
%TO.P,JP4,1,A*%
%TO.N,Net-(JP4-A)*%
X126386500Y-81860500D03*
D22*
%TO.P,JP4,2,C*%
%TO.N,Net-(D6-K)*%
X126386500Y-83160500D03*
D23*
%TO.P,JP4,3,B*%
%TO.N,VBUS*%
X126386500Y-84460500D03*
%TD*%
D24*
%TO.P,K1,1*%
%TO.N,Net-(D6-K)*%
X135881500Y-72350500D03*
%TO.P,K1,3*%
%TO.N,Net-(J4-Pin_1)*%
X135881500Y-77430500D03*
%TO.P,K1,4*%
%TO.N,Net-(J4-Pin_2)*%
X135881500Y-79970500D03*
%TO.P,K1,5*%
%TO.N,Net-(J4-Pin_3)*%
X135881500Y-82510500D03*
%TO.P,K1,6*%
%TO.N,Net-(D6-K)*%
X135881500Y-85050500D03*
%TO.P,K1,7*%
%TO.N,Net-(D7-A)*%
X129591500Y-85050500D03*
%TO.P,K1,8*%
%TO.N,Net-(J5-Pin_3)*%
X129591500Y-82510500D03*
%TO.P,K1,9*%
%TO.N,Net-(J5-Pin_2)*%
X129591500Y-79970500D03*
%TO.P,K1,10*%
%TO.N,Net-(J5-Pin_1)*%
X129591500Y-77430500D03*
%TO.P,K1,12*%
%TO.N,Net-(D6-A)*%
X129591500Y-72350500D03*
%TD*%
D25*
%TO.P,JP5,1,A*%
%TO.N,+3V3*%
X126386500Y-79380500D03*
D22*
%TO.P,JP5,2,C*%
%TO.N,Net-(JP4-A)*%
X126386500Y-78080500D03*
D26*
%TO.P,JP5,3,B*%
%TO.N,+BATT*%
X126386500Y-76780500D03*
%TD*%
D27*
%TO.N,VBUS*%
X118004500Y-48586500D03*
X158898500Y-57476500D03*
X189124500Y-55190500D03*
X192300000Y-83004000D03*
X192680500Y-79320500D03*
X158898500Y-49094500D03*
X118258500Y-83638500D03*
X159660500Y-57476500D03*
X160418503Y-57476500D03*
X157628500Y-48586500D03*
X181250500Y-58474500D03*
X117750500Y-51634500D03*
X158390500Y-48586500D03*
%TO.N,GND*%
X136800500Y-51888500D03*
X105558500Y-61032500D03*
X174392500Y-59460900D03*
X90064500Y-61540500D03*
X99462500Y-52396500D03*
X112416500Y-86940500D03*
X136038500Y-51888500D03*
X172360500Y-62302500D03*
X90064500Y-62302500D03*
X120036500Y-51888500D03*
X90826500Y-63064500D03*
X180234500Y-56968500D03*
X180996500Y-73732500D03*
X135276500Y-51888500D03*
X90826500Y-61540500D03*
X178710500Y-56968500D03*
X104542500Y-52396500D03*
X177186500Y-69160500D03*
X103780500Y-52396500D03*
X98700500Y-52396500D03*
X177186500Y-68398500D03*
X171598500Y-61540500D03*
X90826500Y-62302500D03*
X100224500Y-52396500D03*
X109876500Y-71954500D03*
X171598500Y-62302500D03*
X113178500Y-86940500D03*
X179472500Y-56968500D03*
X121560500Y-51888500D03*
X90064500Y-63064500D03*
X173630500Y-59460900D03*
X113940500Y-86940500D03*
X177186500Y-67636500D03*
X120798500Y-51888500D03*
X179726500Y-78050500D03*
X104034500Y-62048500D03*
X103018500Y-52396500D03*
X179726500Y-77288500D03*
X109876500Y-72716500D03*
X180996500Y-74494500D03*
X180996500Y-72970500D03*
X104796500Y-61540500D03*
X109876500Y-73478500D03*
%TO.N,+BATT*%
X166010500Y-59508500D03*
X128418500Y-69668500D03*
X167534500Y-55190500D03*
X113178500Y-49856500D03*
%TO.N,+3V3*%
X160676500Y-108022500D03*
X145436500Y-108022500D03*
X184359500Y-72269500D03*
X183770927Y-79554927D03*
X102256500Y-108022500D03*
X177948500Y-108022500D03*
X120036500Y-108022500D03*
X127275500Y-62683500D03*
X140610500Y-108022500D03*
%TO.N,Net-(C6-Pad1)*%
X104288500Y-63826500D03*
X192680500Y-63318500D03*
%TO.N,/ESP_EN*%
X161692500Y-69922500D03*
X111654500Y-61540500D03*
%TO.N,Net-(D6-K)*%
X122830500Y-80590500D03*
X136800500Y-87194500D03*
X134006500Y-72462500D03*
X136546500Y-74240500D03*
X133498500Y-85924500D03*
%TO.N,Net-(D6-A)*%
X131466500Y-72462500D03*
X128418500Y-74240500D03*
X132801506Y-75829506D03*
%TO.N,/GPIO1{slash}U0TXD*%
X169820500Y-81352500D03*
X124354500Y-57984500D03*
%TO.N,/GPIO3{slash}U0RXD*%
X162835500Y-69541500D03*
X124354500Y-59254500D03*
%TO.N,/GPIO2*%
X107336500Y-101418500D03*
X113432500Y-72462500D03*
X123846500Y-72208500D03*
X146960500Y-102180500D03*
%TO.N,/GPIO0*%
X123846500Y-70938500D03*
X103780500Y-74748500D03*
X103526500Y-99894500D03*
X145944500Y-101164500D03*
%TO.N,Net-(D7-A)*%
X131720500Y-94560500D03*
X128418500Y-86940500D03*
X131720500Y-85670500D03*
%TO.N,/SPI-SCK*%
X100097500Y-101672500D03*
X100321671Y-73321671D03*
X143249041Y-104875959D03*
%TO.N,/TS-INT*%
X120302123Y-79332123D03*
%TO.N,/TS-RST*%
X120274600Y-78304500D03*
%TO.N,/SPI-MOSI*%
X101837328Y-104377672D03*
X103907500Y-73478500D03*
X142599381Y-105525619D03*
%TO.N,/I2C-SCL*%
X118258500Y-76526500D03*
%TO.N,/LCD-RST*%
X117750500Y-66112500D03*
%TO.N,/LCD-CS*%
X117877500Y-72462500D03*
X123846500Y-73478500D03*
X116607500Y-66112500D03*
%TO.N,/I2C-SDA*%
X119020500Y-79558600D03*
%TO.N,/LCD-DC{slash}RS*%
X100097500Y-68652500D03*
%TO.N,/SPI-MISO*%
X101954900Y-78812500D03*
X143912500Y-104212500D03*
X101367500Y-101672500D03*
%TO.N,/TEMP2-DATA*%
X131974500Y-57984500D03*
%TO.N,/LED-PWM*%
X99414900Y-78812500D03*
X110892500Y-75637500D03*
%TO.N,Net-(LED1-K)*%
X183028500Y-54428500D03*
X187854500Y-54428500D03*
%TO.N,Net-(LED2-K)*%
X191410500Y-53412500D03*
X183028500Y-53158500D03*
%TO.N,/BTN4*%
X140864500Y-59508500D03*
X109876500Y-62048500D03*
%TO.N,/BTN3*%
X110130500Y-60778500D03*
X138832500Y-58746500D03*
%TO.N,/TEMP1-CS*%
X141955064Y-106169936D03*
X99186297Y-101672500D03*
%TD*%
D28*
%TO.N,VBUS*%
X158390500Y-48586500D02*
X157628500Y-48586500D01*
D29*
X184570500Y-58474500D02*
X187854500Y-55190500D01*
D28*
X158898500Y-49094500D02*
X158390500Y-48586500D01*
D29*
X187854500Y-55190500D02*
X189124500Y-55190500D01*
D28*
X117750500Y-51634500D02*
X117750500Y-48840500D01*
X158898500Y-57476500D02*
X159660500Y-57476500D01*
X117750500Y-48840500D02*
X118004500Y-48586500D01*
D29*
X181250500Y-58474500D02*
X184570500Y-58474500D01*
D28*
X158898500Y-49094500D02*
X158898500Y-57476500D01*
X119080500Y-84460500D02*
X118258500Y-83638500D01*
X126386500Y-84460500D02*
X119080500Y-84460500D01*
D29*
X192680500Y-82623500D02*
X192300000Y-83004000D01*
X192680500Y-79320500D02*
X192680500Y-82623500D01*
D28*
%TO.N,+BATT*%
X166010500Y-59508500D02*
X166010500Y-56714500D01*
X166010500Y-56714500D02*
X167534500Y-55190500D01*
X151786500Y-56460500D02*
X155088500Y-56460500D01*
X157882500Y-59254500D02*
X158136500Y-59508500D01*
X155088500Y-56460500D02*
X157882500Y-59254500D01*
X135784500Y-53682500D02*
X117766500Y-53682500D01*
X128418500Y-69668500D02*
X126386500Y-71700500D01*
X113940500Y-49856500D02*
X113178500Y-49856500D01*
X117766500Y-53682500D02*
X115972500Y-51888500D01*
X158136500Y-59508500D02*
X166010500Y-59508500D01*
X146960500Y-56206500D02*
X147214500Y-56460500D01*
X147214500Y-56460500D02*
X151786500Y-56460500D01*
X115972500Y-51888500D02*
X113940500Y-49856500D01*
X135784500Y-53682500D02*
X144436500Y-53682500D01*
X126386500Y-71700500D02*
X126386500Y-76780500D01*
X144436500Y-53682500D02*
X146960500Y-56206500D01*
D30*
%TO.N,+3V3*%
X102256500Y-108022500D02*
X120036500Y-108022500D01*
D28*
X127275500Y-62683500D02*
X124862500Y-65096500D01*
D29*
X183770927Y-72858073D02*
X184359500Y-72269500D01*
D28*
X124862500Y-65096500D02*
X124862500Y-79095500D01*
D30*
X145436500Y-108022500D02*
X160676500Y-108022500D01*
X183790500Y-102688500D02*
X183790500Y-79574500D01*
X178456500Y-108022500D02*
X183790500Y-102688500D01*
D29*
X183770927Y-79554927D02*
X183770927Y-72858073D01*
D30*
X120036500Y-108022500D02*
X140610500Y-108022500D01*
D28*
X124862500Y-79095500D02*
X125147500Y-79380500D01*
X125147500Y-79380500D02*
X126386500Y-79380500D01*
D30*
X140610500Y-108022500D02*
X145436500Y-108022500D01*
X177948500Y-108022500D02*
X178456500Y-108022500D01*
X160676500Y-108022500D02*
X177948500Y-108022500D01*
X183790500Y-79574500D02*
X183770927Y-79554927D01*
D29*
%TO.N,Net-(C6-Pad1)*%
X137269355Y-59254500D02*
X131720500Y-59254500D01*
X112670500Y-55444500D02*
X104288500Y-63826500D01*
X140880400Y-58000400D02*
X138523455Y-58000400D01*
X131720500Y-59254500D02*
X127910500Y-55444500D01*
X149246500Y-66366500D02*
X140880400Y-58000400D01*
X188870500Y-66366500D02*
X149246500Y-66366500D01*
X138523455Y-58000400D02*
X137269355Y-59254500D01*
X127910500Y-55444500D02*
X112670500Y-55444500D01*
X192680500Y-63318500D02*
X191918500Y-63318500D01*
X191918500Y-63318500D02*
X188870500Y-66366500D01*
D31*
%TO.N,/ESP_EN*%
X133244500Y-63264500D02*
X129634500Y-63264500D01*
X147468500Y-68906500D02*
X146198500Y-67636500D01*
X123338500Y-60270500D02*
X112924500Y-60270500D01*
X126640500Y-60270500D02*
X123338500Y-60270500D01*
X160676500Y-68906500D02*
X159660500Y-68906500D01*
X141826500Y-63264500D02*
X133244500Y-63264500D01*
X112924500Y-60270500D02*
X111654500Y-61540500D01*
X129634500Y-63264500D02*
X127910500Y-61540500D01*
X159660500Y-68906500D02*
X147468500Y-68906500D01*
X161692500Y-69922500D02*
X160676500Y-68906500D01*
X127910500Y-61540500D02*
X126640500Y-60270500D01*
X146198500Y-67636500D02*
X141826500Y-63264500D01*
D28*
%TO.N,Net-(D6-K)*%
X124608500Y-82301032D02*
X124608500Y-81352500D01*
D32*
X134118500Y-72350500D02*
X134006500Y-72462500D01*
X136800500Y-85969500D02*
X135881500Y-85050500D01*
D28*
X133498500Y-85162500D02*
X133498500Y-85924500D01*
X126386500Y-83160500D02*
X127914420Y-83160500D01*
D32*
X135881500Y-72350500D02*
X134118500Y-72350500D01*
X135881500Y-85050500D02*
X134372500Y-85050500D01*
X136546500Y-73015500D02*
X135881500Y-72350500D01*
D30*
X136038500Y-65350500D02*
X136038500Y-72193500D01*
D32*
X136800500Y-87194500D02*
X136800500Y-92984500D01*
D28*
X124608500Y-81352500D02*
X123846500Y-80590500D01*
D32*
X136800500Y-92984500D02*
X135986500Y-93798500D01*
X136546500Y-74240500D02*
X136546500Y-73015500D01*
X134372500Y-85050500D02*
X133498500Y-85924500D01*
D28*
X128604920Y-83851000D02*
X132187000Y-83851000D01*
X126386500Y-83160500D02*
X125467968Y-83160500D01*
X132187000Y-83851000D02*
X133498500Y-85162500D01*
X125467968Y-83160500D02*
X124608500Y-82301032D01*
X123846500Y-80590500D02*
X122830500Y-80590500D01*
X127914420Y-83160500D02*
X128604920Y-83851000D01*
D30*
X136038500Y-72193500D02*
X135881500Y-72350500D01*
D32*
X136800500Y-87194500D02*
X136800500Y-85969500D01*
D30*
%TO.N,Net-(D6-A)*%
X129538500Y-72297500D02*
X129591500Y-72350500D01*
D32*
X129591500Y-72350500D02*
X131354500Y-72350500D01*
X128418500Y-74240500D02*
X128418500Y-73523500D01*
D29*
X128926500Y-74240500D02*
X128418500Y-74240500D01*
D32*
X128418500Y-73523500D02*
X129591500Y-72350500D01*
X131354500Y-72350500D02*
X131466500Y-72462500D01*
D29*
X132801506Y-75829506D02*
X130515506Y-75829506D01*
X130515506Y-75829506D02*
X128926500Y-74240500D01*
D30*
X129538500Y-65350500D02*
X129538500Y-72297500D01*
D31*
%TO.N,/GPIO1{slash}U0TXD*%
X161946500Y-67128500D02*
X166264500Y-71446500D01*
X148230500Y-67128500D02*
X150262500Y-67128500D01*
X132482500Y-61540500D02*
X142642500Y-61540500D01*
X169820500Y-75002500D02*
X169820500Y-81352500D01*
X130704500Y-61540500D02*
X132482500Y-61540500D01*
X142642500Y-61540500D02*
X147976500Y-66874500D01*
X166264500Y-71446500D02*
X169820500Y-75002500D01*
X124354500Y-57984500D02*
X127148500Y-57984500D01*
X127148500Y-57984500D02*
X127910500Y-58746500D01*
X150262500Y-67128500D02*
X161946500Y-67128500D01*
X127910500Y-58746500D02*
X130704500Y-61540500D01*
X147976500Y-66874500D02*
X148230500Y-67128500D01*
%TO.N,/GPIO3{slash}U0RXD*%
X147976500Y-68144500D02*
X142388500Y-62556500D01*
X130196500Y-62556500D02*
X126894500Y-59254500D01*
X161438500Y-68144500D02*
X147976500Y-68144500D01*
X126894500Y-59254500D02*
X124354500Y-59254500D01*
X142388500Y-62556500D02*
X130196500Y-62556500D01*
X162835500Y-69541500D02*
X161438500Y-68144500D01*
%TO.N,/GPIO2*%
X118768448Y-72208500D02*
X118212848Y-71652900D01*
X123846500Y-72208500D02*
X118768448Y-72208500D01*
X118212848Y-71652900D02*
X114242100Y-71652900D01*
X114242100Y-71652900D02*
X113432500Y-72462500D01*
X146960500Y-102180500D02*
X108098500Y-102180500D01*
X108098500Y-102180500D02*
X107336500Y-101418500D01*
D29*
%TO.N,/GPIO0*%
X104542500Y-74748500D02*
X103780500Y-74748500D01*
D31*
X108860500Y-101164500D02*
X107590500Y-99894500D01*
D29*
X123846500Y-70938500D02*
X108352500Y-70938500D01*
D31*
X145944500Y-101164500D02*
X108860500Y-101164500D01*
D29*
X108352500Y-70938500D02*
X104542500Y-74748500D01*
D31*
X107590500Y-99894500D02*
X103526500Y-99894500D01*
D32*
%TO.N,Net-(D7-A)*%
X128418500Y-86940500D02*
X128418500Y-86223500D01*
D29*
X129486500Y-94052500D02*
X129486500Y-88008500D01*
X131720500Y-94560500D02*
X129994500Y-94560500D01*
D32*
X128418500Y-86223500D02*
X129591500Y-85050500D01*
X131100500Y-85050500D02*
X131720500Y-85670500D01*
X129591500Y-85050500D02*
X131100500Y-85050500D01*
D29*
X129994500Y-94560500D02*
X129486500Y-94052500D01*
X129486500Y-88008500D02*
X128418500Y-86940500D01*
D33*
%TO.N,/SPI-SCK*%
X102637500Y-104212500D02*
X100097500Y-101672500D01*
D29*
X100321671Y-73321671D02*
X98640842Y-75002500D01*
D33*
X142585582Y-104212500D02*
X102637500Y-104212500D01*
X143249041Y-104875959D02*
X142585582Y-104212500D01*
D29*
X98640842Y-75002500D02*
X87762500Y-75002500D01*
%TO.N,/TS-INT*%
X118281746Y-81352500D02*
X115337500Y-81352500D01*
X120302123Y-79332123D02*
X118281746Y-81352500D01*
X115337500Y-81352500D02*
X106447500Y-90242500D01*
X106447500Y-90242500D02*
X87762500Y-90242500D01*
%TO.N,/TS-RST*%
X106447500Y-85162500D02*
X87762500Y-85162500D01*
X119766600Y-78812500D02*
X112797500Y-78812500D01*
X120274600Y-78304500D02*
X119766600Y-78812500D01*
X112797500Y-78812500D02*
X106447500Y-85162500D01*
%TO.N,/SPI-MOSI*%
X102891500Y-72462500D02*
X87762500Y-72462500D01*
D33*
X141921262Y-104847500D02*
X142599381Y-105525619D01*
D29*
X103907500Y-73478500D02*
X102891500Y-72462500D01*
D33*
X102307156Y-104847500D02*
X141921262Y-104847500D01*
X101837328Y-104377672D02*
X102307156Y-104847500D01*
D29*
%TO.N,/I2C-SCL*%
X111527500Y-77542500D02*
X106447500Y-82622500D01*
X118258500Y-76526500D02*
X117242500Y-77542500D01*
X117242500Y-77542500D02*
X111527500Y-77542500D01*
X106447500Y-82622500D02*
X87762500Y-82622500D01*
%TO.N,/LCD-RST*%
X116480500Y-67382500D02*
X87762500Y-67382500D01*
X117750500Y-66112500D02*
X116480500Y-67382500D01*
%TO.N,/LCD-CS*%
X116607500Y-66112500D02*
X115337500Y-64842500D01*
X119147500Y-73732500D02*
X117877500Y-72462500D01*
X123592500Y-73732500D02*
X119147500Y-73732500D01*
X115337500Y-64842500D02*
X87762500Y-64842500D01*
X123846500Y-73478500D02*
X123592500Y-73732500D01*
%TO.N,/I2C-SDA*%
X119020500Y-79558600D02*
X118496600Y-80082500D01*
X106407500Y-87742500D02*
X87762500Y-87742500D01*
X118496600Y-80082500D02*
X114067500Y-80082500D01*
X114067500Y-80082500D02*
X106407500Y-87742500D01*
%TO.N,/LCD-DC{slash}RS*%
X98827500Y-69922500D02*
X87762500Y-69922500D01*
X100097500Y-68652500D02*
X98827500Y-69922500D01*
D33*
%TO.N,/SPI-MISO*%
X143277500Y-103577500D02*
X103272500Y-103577500D01*
D29*
X101954900Y-78812500D02*
X100684900Y-80082500D01*
D33*
X103272500Y-103577500D02*
X101367500Y-101672500D01*
X143912500Y-104212500D02*
X143277500Y-103577500D01*
D29*
X100684900Y-80082500D02*
X87762500Y-80082500D01*
D31*
%TO.N,/TEMP2-DATA*%
X131974500Y-57984500D02*
X137308500Y-57984500D01*
X143451500Y-59047500D02*
X151532500Y-59047500D01*
X141626500Y-57222500D02*
X143451500Y-59047500D01*
X137308500Y-57984500D02*
X138070500Y-57222500D01*
X138070500Y-57222500D02*
X141626500Y-57222500D01*
D28*
%TO.N,Net-(J4-Pin_1)*%
X155850500Y-76526500D02*
X155850500Y-86432500D01*
X135881500Y-77430500D02*
X146564500Y-77430500D01*
X146564500Y-77430500D02*
X150008500Y-73986500D01*
X155850500Y-86432500D02*
X153945500Y-88337500D01*
X153310500Y-73986500D02*
X155850500Y-76526500D01*
X153945500Y-88337500D02*
X151457500Y-88337500D01*
X150008500Y-73986500D02*
X153310500Y-73986500D01*
%TO.N,Net-(J4-Pin_3)*%
X144707500Y-98337500D02*
X151457500Y-98337500D01*
X141626500Y-95322500D02*
X144674500Y-98370500D01*
X137196500Y-82510500D02*
X141626500Y-86940500D01*
X135881500Y-82510500D02*
X137196500Y-82510500D01*
X144674500Y-98370500D02*
X144707500Y-98337500D01*
X141626500Y-86940500D02*
X141626500Y-95322500D01*
%TO.N,Net-(J4-Pin_2)*%
X148738500Y-78812500D02*
X153056500Y-78812500D01*
X153056500Y-78812500D02*
X154580500Y-80336500D01*
X152294500Y-85162500D02*
X150008500Y-85162500D01*
X135881500Y-79970500D02*
X147580500Y-79970500D01*
X154580500Y-80336500D02*
X154580500Y-82876500D01*
X154580500Y-82876500D02*
X152294500Y-85162500D01*
X149547500Y-93337500D02*
X151457500Y-93337500D01*
X148230500Y-86940500D02*
X148230500Y-92020500D01*
X150008500Y-85162500D02*
X148230500Y-86940500D01*
X147580500Y-79970500D02*
X148738500Y-78812500D01*
X148230500Y-92020500D02*
X149547500Y-93337500D01*
%TO.N,Net-(J5-Pin_3)*%
X130909500Y-81192500D02*
X151532500Y-81192500D01*
X129591500Y-82510500D02*
X130909500Y-81192500D01*
%TO.N,Net-(J5-Pin_2)*%
X149580500Y-76192500D02*
X151532500Y-76192500D01*
X147002000Y-78771000D02*
X149580500Y-76192500D01*
X130791000Y-78771000D02*
X147002000Y-78771000D01*
X129591500Y-79970500D02*
X130791000Y-78771000D01*
%TO.N,Net-(J5-Pin_1)*%
X129591500Y-77430500D02*
X133102500Y-77430500D01*
X134514500Y-76018500D02*
X145944500Y-76018500D01*
X145944500Y-76018500D02*
X150770500Y-71192500D01*
X150770500Y-71192500D02*
X151532500Y-71192500D01*
X133102500Y-77430500D02*
X134514500Y-76018500D01*
D33*
%TO.N,/LED-PWM*%
X102002500Y-75637500D02*
X100732500Y-76907500D01*
X99414900Y-78225100D02*
X99414900Y-78812500D01*
X100732500Y-76907500D02*
X99414900Y-78225100D01*
X110892500Y-75637500D02*
X102002500Y-75637500D01*
D28*
%TO.N,Net-(JP4-A)*%
X127247000Y-81860500D02*
X126386500Y-81860500D01*
X127910500Y-78685968D02*
X127910500Y-81197000D01*
X126386500Y-78080500D02*
X127305032Y-78080500D01*
X127305032Y-78080500D02*
X127910500Y-78685968D01*
X127910500Y-81197000D02*
X127247000Y-81860500D01*
D29*
%TO.N,Net-(LED1-K)*%
X183028500Y-54428500D02*
X187854500Y-54428500D01*
%TO.N,Net-(LED2-K)*%
X183028500Y-53158500D02*
X183282500Y-53412500D01*
X183282500Y-53412500D02*
X191410500Y-53412500D01*
%TO.N,/BTN4*%
X139594500Y-60778500D02*
X131212500Y-60778500D01*
X131212500Y-60778500D02*
X127402500Y-56968500D01*
X109915645Y-62048500D02*
X109876500Y-62048500D01*
X114995645Y-56968500D02*
X109915645Y-62048500D01*
X140864500Y-59508500D02*
X139594500Y-60778500D01*
X127402500Y-56968500D02*
X114995645Y-56968500D01*
%TO.N,/BTN3*%
X114702500Y-56206500D02*
X110130500Y-60778500D01*
X138832500Y-58746500D02*
X137562500Y-60016500D01*
X131466500Y-60016500D02*
X127656500Y-56206500D01*
X127656500Y-56206500D02*
X114702500Y-56206500D01*
X137562500Y-60016500D02*
X131466500Y-60016500D01*
D33*
%TO.N,/TEMP1-CS*%
X99186297Y-101672500D02*
X99186297Y-102691984D01*
X101976813Y-105482500D02*
X141267628Y-105482500D01*
X141267628Y-105482500D02*
X141955064Y-106169936D01*
X99186297Y-102691984D02*
X101976813Y-105482500D01*
%TD*%
%TA.AperFunction,Conductor*%
%TO.N,GND*%
G36*
X134724968Y-54646260D02*
G01*
X134753328Y-54663753D01*
X134800806Y-54716539D01*
X134812208Y-54786614D01*
X134783915Y-54851729D01*
X134776276Y-54860088D01*
X134670465Y-54965899D01*
X134568697Y-55105972D01*
X134490091Y-55260245D01*
X134490088Y-55260251D01*
X134436587Y-55424912D01*
X134436583Y-55424925D01*
X134435384Y-55432499D01*
X134435386Y-55432500D01*
X135504170Y-55432500D01*
X135484425Y-55452245D01*
X135435056Y-55537755D01*
X135409500Y-55633130D01*
X135409500Y-55731870D01*
X135435056Y-55827245D01*
X135484425Y-55912755D01*
X135504170Y-55932500D01*
X134435384Y-55932500D01*
X134436583Y-55940074D01*
X134436587Y-55940087D01*
X134490088Y-56104748D01*
X134490091Y-56104754D01*
X134568697Y-56259027D01*
X134670467Y-56399103D01*
X134792896Y-56521532D01*
X134932972Y-56623302D01*
X135087245Y-56701908D01*
X135087251Y-56701911D01*
X135251911Y-56755412D01*
X135422931Y-56782500D01*
X135534500Y-56782500D01*
X135534500Y-55962830D01*
X135554245Y-55982575D01*
X135639755Y-56031944D01*
X135735130Y-56057500D01*
X135833870Y-56057500D01*
X135929245Y-56031944D01*
X136014755Y-55982575D01*
X136034500Y-55962830D01*
X136034500Y-56782500D01*
X136146069Y-56782500D01*
X136317088Y-56755412D01*
X136481748Y-56701911D01*
X136481754Y-56701908D01*
X136636027Y-56623302D01*
X136776103Y-56521532D01*
X136898532Y-56399103D01*
X137000302Y-56259027D01*
X137078908Y-56104754D01*
X137078911Y-56104748D01*
X137132412Y-55940087D01*
X137132416Y-55940074D01*
X137133615Y-55932500D01*
X136064830Y-55932500D01*
X136084575Y-55912755D01*
X136133944Y-55827245D01*
X136159500Y-55731870D01*
X136159500Y-55633130D01*
X136133944Y-55537755D01*
X136084575Y-55452245D01*
X136064830Y-55432500D01*
X137133614Y-55432500D01*
X137133615Y-55432499D01*
X137132416Y-55424925D01*
X137132412Y-55424912D01*
X137078911Y-55260251D01*
X137078908Y-55260245D01*
X137000302Y-55105972D01*
X136898532Y-54965896D01*
X136792723Y-54860087D01*
X136758697Y-54797775D01*
X136763762Y-54726960D01*
X136806309Y-54670124D01*
X136815646Y-54663768D01*
X136844038Y-54646255D01*
X136910180Y-54627500D01*
X143992878Y-54627500D01*
X144060999Y-54647502D01*
X144081973Y-54664405D01*
X146226471Y-56808903D01*
X146612097Y-57194529D01*
X146766874Y-57297948D01*
X146938853Y-57369184D01*
X146975165Y-57376406D01*
X146975167Y-57376407D01*
X146975168Y-57376407D01*
X147004261Y-57382193D01*
X147121426Y-57405500D01*
X150336161Y-57405500D01*
X150404282Y-57425502D01*
X150450775Y-57479158D01*
X150460879Y-57549432D01*
X150431385Y-57614012D01*
X150410321Y-57632771D01*
X150410445Y-57632926D01*
X150407601Y-57635193D01*
X150407137Y-57635607D01*
X150406759Y-57635865D01*
X150208939Y-57819414D01*
X150040685Y-58030398D01*
X149925445Y-58230000D01*
X149874064Y-58278993D01*
X149816327Y-58293000D01*
X143816214Y-58293000D01*
X143748093Y-58272998D01*
X143727119Y-58256095D01*
X142917457Y-57446433D01*
X142107466Y-56636441D01*
X141983889Y-56553870D01*
X141903455Y-56520553D01*
X141846583Y-56496996D01*
X141846582Y-56496995D01*
X141830456Y-56493787D01*
X141822394Y-56492184D01*
X141822393Y-56492183D01*
X141741155Y-56476023D01*
X141700812Y-56467999D01*
X141552188Y-56467999D01*
X141545975Y-56467999D01*
X141545955Y-56468000D01*
X138151045Y-56468000D01*
X138151025Y-56467999D01*
X138144812Y-56467999D01*
X137996188Y-56467999D01*
X137996187Y-56467999D01*
X137874604Y-56492184D01*
X137874603Y-56492183D01*
X137850426Y-56496993D01*
X137850416Y-56496996D01*
X137793545Y-56520553D01*
X137713111Y-56553870D01*
X137672105Y-56581269D01*
X137613541Y-56620400D01*
X137589535Y-56636440D01*
X137589531Y-56636443D01*
X137032880Y-57193095D01*
X136970568Y-57227121D01*
X136943785Y-57230000D01*
X132411452Y-57230000D01*
X132360203Y-57219107D01*
X132240506Y-57165814D01*
X132064481Y-57128400D01*
X132064480Y-57128400D01*
X131884520Y-57128400D01*
X131884519Y-57128400D01*
X131708493Y-57165814D01*
X131544091Y-57239011D01*
X131398499Y-57344790D01*
X131278090Y-57478517D01*
X131278083Y-57478527D01*
X131229759Y-57562228D01*
X131178376Y-57611221D01*
X131108663Y-57624657D01*
X131042752Y-57598271D01*
X131031545Y-57588323D01*
X128350994Y-54907771D01*
X128350988Y-54907766D01*
X128279632Y-54860088D01*
X128276903Y-54858264D01*
X128231376Y-54803788D01*
X128222528Y-54733345D01*
X128253169Y-54669301D01*
X128313571Y-54631990D01*
X128346906Y-54627500D01*
X134658820Y-54627500D01*
X134724968Y-54646260D01*
G37*
%TD.AperFunction*%
%TA.AperFunction,Conductor*%
G36*
X189124459Y-45812502D02*
G01*
X189170952Y-45866158D01*
X189181056Y-45936432D01*
X189151562Y-46001012D01*
X189121298Y-46026464D01*
X188935684Y-46138144D01*
X188655080Y-46351453D01*
X188655065Y-46351466D01*
X188399185Y-46593849D01*
X188170998Y-46862493D01*
X187973194Y-47154231D01*
X187973192Y-47154235D01*
X187808092Y-47465648D01*
X187808088Y-47465657D01*
X187677629Y-47793085D01*
X187583330Y-48132716D01*
X187526309Y-48480542D01*
X187507226Y-48832497D01*
X187507226Y-48832502D01*
X187526309Y-49184457D01*
X187583330Y-49532283D01*
X187647507Y-49763426D01*
X187677629Y-49871914D01*
X187808093Y-50199354D01*
X187863639Y-50304124D01*
X187973192Y-50510764D01*
X187973194Y-50510768D01*
X188067129Y-50649311D01*
X188145691Y-50765182D01*
X188170998Y-50802506D01*
X188170997Y-50802506D01*
X188399185Y-51071150D01*
X188655065Y-51313533D01*
X188655080Y-51313546D01*
X188935682Y-51526854D01*
X189237702Y-51708574D01*
X189394041Y-51780904D01*
X189557581Y-51856566D01*
X189557588Y-51856569D01*
X189557599Y-51856574D01*
X189891622Y-51969119D01*
X190235855Y-52044891D01*
X190586263Y-52083000D01*
X190586271Y-52083000D01*
X190938729Y-52083000D01*
X190938737Y-52083000D01*
X191289145Y-52044891D01*
X191633378Y-51969119D01*
X191967401Y-51856574D01*
X192287298Y-51708574D01*
X192589318Y-51526854D01*
X192869920Y-51313546D01*
X193125814Y-51071150D01*
X193354001Y-50802508D01*
X193551805Y-50510769D01*
X193716907Y-50199354D01*
X193847371Y-49871914D01*
X193941668Y-49532288D01*
X193941798Y-49531499D01*
X193961900Y-49408875D01*
X193998691Y-49184457D01*
X194017774Y-48832500D01*
X193998691Y-48480543D01*
X193958299Y-48234161D01*
X193941669Y-48132716D01*
X193900405Y-47984098D01*
X193847371Y-47793086D01*
X193716907Y-47465646D01*
X193551805Y-47154231D01*
X193354001Y-46862492D01*
X193125814Y-46593849D01*
X192869934Y-46351466D01*
X192869919Y-46351453D01*
X192589315Y-46138144D01*
X192403702Y-46026464D01*
X192355644Y-45974205D01*
X192343469Y-45904260D01*
X192371042Y-45838836D01*
X192429608Y-45798705D01*
X192468662Y-45792500D01*
X199412500Y-45792500D01*
X199480621Y-45812502D01*
X199527114Y-45866158D01*
X199538500Y-45918500D01*
X199538500Y-75665647D01*
X199518498Y-75733768D01*
X199464842Y-75780261D01*
X199394568Y-75790365D01*
X199387920Y-75789226D01*
X199333998Y-75778500D01*
X199085500Y-75778500D01*
X199085500Y-76478500D01*
X198585500Y-76478500D01*
X198585500Y-75778500D01*
X198337006Y-75778500D01*
X198143810Y-75816929D01*
X198143805Y-75816931D01*
X197961822Y-75892311D01*
X197798037Y-76001748D01*
X197798031Y-76001753D01*
X197658753Y-76141031D01*
X197658748Y-76141037D01*
X197549311Y-76304822D01*
X197473929Y-76486809D01*
X197473927Y-76486816D01*
X197465636Y-76528499D01*
X197465637Y-76528500D01*
X198268512Y-76528500D01*
X198251295Y-76538440D01*
X198195440Y-76594295D01*
X198155944Y-76662704D01*
X198135500Y-76739004D01*
X198135500Y-76817996D01*
X198155944Y-76894296D01*
X198195440Y-76962705D01*
X198251295Y-77018560D01*
X198268512Y-77028500D01*
X197465636Y-77028500D01*
X197473927Y-77070183D01*
X197473929Y-77070190D01*
X197549311Y-77252177D01*
X197658748Y-77415962D01*
X197658753Y-77415968D01*
X197798031Y-77555246D01*
X197798037Y-77555251D01*
X197961822Y-77664688D01*
X198143805Y-77740068D01*
X198143810Y-77740070D01*
X198337006Y-77778499D01*
X198337010Y-77778500D01*
X198585500Y-77778500D01*
X198585500Y-77078500D01*
X199085500Y-77078500D01*
X199085500Y-77778500D01*
X199333990Y-77778500D01*
X199333993Y-77778499D01*
X199387918Y-77767773D01*
X199458632Y-77774101D01*
X199514699Y-77817655D01*
X199538319Y-77884607D01*
X199538500Y-77891352D01*
X199538500Y-84305647D01*
X199518498Y-84373768D01*
X199464842Y-84420261D01*
X199394568Y-84430365D01*
X199387920Y-84429226D01*
X199333998Y-84418500D01*
X199085500Y-84418500D01*
X199085500Y-85118500D01*
X198585500Y-85118500D01*
X198585500Y-84418500D01*
X198337006Y-84418500D01*
X198143810Y-84456929D01*
X198143805Y-84456931D01*
X197961822Y-84532311D01*
X197798037Y-84641748D01*
X197798031Y-84641753D01*
X197658753Y-84781031D01*
X197658748Y-84781037D01*
X197549311Y-84944822D01*
X197473929Y-85126809D01*
X197473927Y-85126816D01*
X197465636Y-85168499D01*
X197465637Y-85168500D01*
X198268512Y-85168500D01*
X198251295Y-85178440D01*
X198195440Y-85234295D01*
X198155944Y-85302704D01*
X198135500Y-85379004D01*
X198135500Y-85457996D01*
X198155944Y-85534296D01*
X198195440Y-85602705D01*
X198251295Y-85658560D01*
X198268512Y-85668500D01*
X197465636Y-85668500D01*
X197473927Y-85710183D01*
X197473929Y-85710190D01*
X197549311Y-85892177D01*
X197658748Y-86055962D01*
X197658753Y-86055968D01*
X197798031Y-86195246D01*
X197798037Y-86195251D01*
X197961822Y-86304688D01*
X198143805Y-86380068D01*
X198143810Y-86380070D01*
X198337006Y-86418499D01*
X198337010Y-86418500D01*
X198585500Y-86418500D01*
X198585500Y-85718500D01*
X199085500Y-85718500D01*
X199085500Y-86418500D01*
X199333990Y-86418500D01*
X199333993Y-86418499D01*
X199387918Y-86407773D01*
X199458632Y-86414101D01*
X199514699Y-86457655D01*
X199538319Y-86524607D01*
X199538500Y-86531352D01*
X199538500Y-116024500D01*
X199518498Y-116092621D01*
X199464842Y-116139114D01*
X199412500Y-116150500D01*
X85872500Y-116150500D01*
X85804379Y-116130498D01*
X85757886Y-116076842D01*
X85746500Y-116024500D01*
X85746500Y-105466778D01*
X85766502Y-105398657D01*
X85820158Y-105352164D01*
X85890432Y-105342060D01*
X85955012Y-105371554D01*
X85976786Y-105396066D01*
X86170998Y-105682506D01*
X86170997Y-105682506D01*
X86399185Y-105951150D01*
X86655065Y-106193533D01*
X86655080Y-106193546D01*
X86935682Y-106406854D01*
X87237702Y-106588574D01*
X87394041Y-106660904D01*
X87557581Y-106736566D01*
X87557588Y-106736569D01*
X87557599Y-106736574D01*
X87891622Y-106849119D01*
X88235855Y-106924891D01*
X88586263Y-106963000D01*
X88586271Y-106963000D01*
X88938729Y-106963000D01*
X88938737Y-106963000D01*
X89289145Y-106924891D01*
X89633378Y-106849119D01*
X89967401Y-106736574D01*
X90287298Y-106588574D01*
X90589318Y-106406854D01*
X90869920Y-106193546D01*
X90896771Y-106168112D01*
X91125814Y-105951150D01*
X91184119Y-105882508D01*
X91354001Y-105682508D01*
X91551805Y-105390769D01*
X91716907Y-105079354D01*
X91847371Y-104751914D01*
X91941668Y-104412288D01*
X91998691Y-104064457D01*
X92017774Y-103712500D01*
X91998691Y-103360543D01*
X91941668Y-103012712D01*
X91847371Y-102673086D01*
X91716907Y-102345646D01*
X91551805Y-102034231D01*
X91354001Y-101742492D01*
X91294549Y-101672500D01*
X98325481Y-101672500D01*
X98344291Y-101851474D01*
X98399899Y-102022620D01*
X98399902Y-102022626D01*
X98489881Y-102178473D01*
X98489882Y-102178475D01*
X98526433Y-102219068D01*
X98557150Y-102283075D01*
X98558797Y-102303379D01*
X98558797Y-102753789D01*
X98570854Y-102814403D01*
X98581521Y-102868032D01*
X98582911Y-102875017D01*
X98582913Y-102875025D01*
X98607756Y-102934999D01*
X98607756Y-102935001D01*
X98607757Y-102935001D01*
X98630214Y-102989217D01*
X98688179Y-103075968D01*
X98698885Y-103091991D01*
X98698890Y-103091997D01*
X100169514Y-104562620D01*
X101489402Y-105882508D01*
X101576805Y-105969911D01*
X101679580Y-106038583D01*
X101726883Y-106058176D01*
X101793779Y-106085886D01*
X101915010Y-106110000D01*
X102038617Y-106110000D01*
X140955519Y-106110000D01*
X141023640Y-106130002D01*
X141044614Y-106146905D01*
X141065821Y-106168112D01*
X141099847Y-106230424D01*
X141102035Y-106244032D01*
X141112789Y-106346343D01*
X141113060Y-106348916D01*
X141168666Y-106520056D01*
X141168669Y-106520062D01*
X141258647Y-106675908D01*
X141258654Y-106675918D01*
X141379063Y-106809645D01*
X141379066Y-106809647D01*
X141524656Y-106915425D01*
X141631509Y-106962999D01*
X141632394Y-106963393D01*
X141686490Y-107009374D01*
X141707139Y-107077301D01*
X141687786Y-107145609D01*
X141634576Y-107192610D01*
X141581145Y-107204500D01*
X140892975Y-107204500D01*
X140866779Y-107201747D01*
X140700481Y-107166400D01*
X140700480Y-107166400D01*
X140520520Y-107166400D01*
X140520519Y-107166400D01*
X140354221Y-107201747D01*
X140328025Y-107204500D01*
X120318975Y-107204500D01*
X120292779Y-107201747D01*
X120126481Y-107166400D01*
X120126480Y-107166400D01*
X119946520Y-107166400D01*
X119946519Y-107166400D01*
X119780221Y-107201747D01*
X119754025Y-107204500D01*
X102538975Y-107204500D01*
X102512779Y-107201747D01*
X102346481Y-107166400D01*
X102346480Y-107166400D01*
X102166520Y-107166400D01*
X102166519Y-107166400D01*
X101990493Y-107203814D01*
X101826091Y-107277011D01*
X101680499Y-107382790D01*
X101560090Y-107516517D01*
X101560083Y-107516527D01*
X101470105Y-107672373D01*
X101470102Y-107672379D01*
X101414494Y-107843525D01*
X101395684Y-108022500D01*
X101414494Y-108201474D01*
X101470102Y-108372620D01*
X101470105Y-108372626D01*
X101560083Y-108528472D01*
X101560090Y-108528482D01*
X101680499Y-108662209D01*
X101680502Y-108662211D01*
X101826092Y-108767989D01*
X101988952Y-108840499D01*
X101990493Y-108841185D01*
X102166519Y-108878600D01*
X102166520Y-108878600D01*
X102346481Y-108878600D01*
X102512779Y-108843253D01*
X102538975Y-108840500D01*
X119754025Y-108840500D01*
X119780221Y-108843253D01*
X119946519Y-108878600D01*
X119946520Y-108878600D01*
X120126481Y-108878600D01*
X120292779Y-108843253D01*
X120318975Y-108840500D01*
X140328025Y-108840500D01*
X140354221Y-108843253D01*
X140520519Y-108878600D01*
X140520520Y-108878600D01*
X140700481Y-108878600D01*
X140866779Y-108843253D01*
X140892975Y-108840500D01*
X145154025Y-108840500D01*
X145180221Y-108843253D01*
X145346519Y-108878600D01*
X145346520Y-108878600D01*
X145526481Y-108878600D01*
X145692779Y-108843253D01*
X145718975Y-108840500D01*
X160394025Y-108840500D01*
X160420221Y-108843253D01*
X160586519Y-108878600D01*
X160586520Y-108878600D01*
X160766481Y-108878600D01*
X160932779Y-108843253D01*
X160958975Y-108840500D01*
X177666025Y-108840500D01*
X177692221Y-108843253D01*
X177858519Y-108878600D01*
X177858520Y-108878600D01*
X178038481Y-108878600D01*
X178204779Y-108843253D01*
X178230975Y-108840500D01*
X178537065Y-108840500D01*
X178537066Y-108840500D01*
X178695102Y-108809065D01*
X178769535Y-108778233D01*
X178843968Y-108747403D01*
X178977945Y-108657882D01*
X183923330Y-103712497D01*
X187507226Y-103712497D01*
X187507226Y-103712502D01*
X187526309Y-104064457D01*
X187583330Y-104412283D01*
X187677629Y-104751914D01*
X187796260Y-105049657D01*
X187808093Y-105079354D01*
X187885885Y-105226085D01*
X187973192Y-105390764D01*
X187973194Y-105390768D01*
X188170998Y-105682506D01*
X188170997Y-105682506D01*
X188399185Y-105951150D01*
X188655065Y-106193533D01*
X188655080Y-106193546D01*
X188935682Y-106406854D01*
X189237702Y-106588574D01*
X189394041Y-106660904D01*
X189557581Y-106736566D01*
X189557588Y-106736569D01*
X189557599Y-106736574D01*
X189891622Y-106849119D01*
X190235855Y-106924891D01*
X190586263Y-106963000D01*
X190586271Y-106963000D01*
X190938729Y-106963000D01*
X190938737Y-106963000D01*
X191289145Y-106924891D01*
X191633378Y-106849119D01*
X191967401Y-106736574D01*
X192287298Y-106588574D01*
X192589318Y-106406854D01*
X192869920Y-106193546D01*
X192896771Y-106168112D01*
X193125814Y-105951150D01*
X193184119Y-105882508D01*
X193354001Y-105682508D01*
X193551805Y-105390769D01*
X193716907Y-105079354D01*
X193847371Y-104751914D01*
X193941668Y-104412288D01*
X193998691Y-104064457D01*
X194017774Y-103712500D01*
X193998691Y-103360543D01*
X193941668Y-103012712D01*
X193847371Y-102673086D01*
X193716907Y-102345646D01*
X193551805Y-102034231D01*
X193354001Y-101742492D01*
X193125814Y-101473849D01*
X192869934Y-101231466D01*
X192869919Y-101231453D01*
X192655393Y-101068375D01*
X192589318Y-101018146D01*
X192287298Y-100836426D01*
X192287292Y-100836423D01*
X191967418Y-100688433D01*
X191967399Y-100688425D01*
X191633387Y-100575884D01*
X191633386Y-100575883D01*
X191633378Y-100575881D01*
X191586708Y-100565608D01*
X191289157Y-100500111D01*
X191289133Y-100500107D01*
X190938744Y-100462000D01*
X190938737Y-100462000D01*
X190586263Y-100462000D01*
X190586255Y-100462000D01*
X190235866Y-100500107D01*
X190235842Y-100500111D01*
X189891626Y-100575880D01*
X189891612Y-100575884D01*
X189557600Y-100688425D01*
X189557581Y-100688433D01*
X189237707Y-100836423D01*
X189237700Y-100836427D01*
X188935684Y-101018144D01*
X188655080Y-101231453D01*
X188655065Y-101231466D01*
X188399185Y-101473849D01*
X188170998Y-101742493D01*
X187973194Y-102034231D01*
X187973192Y-102034235D01*
X187808092Y-102345648D01*
X187808088Y-102345657D01*
X187677629Y-102673085D01*
X187583330Y-103012716D01*
X187526309Y-103360542D01*
X187507226Y-103712497D01*
X183923330Y-103712497D01*
X184425882Y-103209945D01*
X184515402Y-103075968D01*
X184537998Y-103021417D01*
X184577065Y-102927102D01*
X184608500Y-102769066D01*
X184608500Y-85168499D01*
X193115636Y-85168499D01*
X193115637Y-85168500D01*
X193918512Y-85168500D01*
X193901295Y-85178440D01*
X193845440Y-85234295D01*
X193805944Y-85302704D01*
X193785500Y-85379004D01*
X193785500Y-85457996D01*
X193805944Y-85534296D01*
X193845440Y-85602705D01*
X193901295Y-85658560D01*
X193918512Y-85668500D01*
X193115636Y-85668500D01*
X193123927Y-85710183D01*
X193123929Y-85710190D01*
X193199311Y-85892177D01*
X193308748Y-86055962D01*
X193308753Y-86055968D01*
X193448031Y-86195246D01*
X193448037Y-86195251D01*
X193611822Y-86304688D01*
X193793805Y-86380068D01*
X193793810Y-86380070D01*
X193987006Y-86418499D01*
X193987010Y-86418500D01*
X194385500Y-86418500D01*
X194385500Y-85718500D01*
X194885500Y-85718500D01*
X194885500Y-86418500D01*
X195283990Y-86418500D01*
X195283993Y-86418499D01*
X195477189Y-86380070D01*
X195477194Y-86380068D01*
X195659177Y-86304688D01*
X195822962Y-86195251D01*
X195822968Y-86195246D01*
X195962246Y-86055968D01*
X195962251Y-86055962D01*
X196071688Y-85892177D01*
X196147070Y-85710190D01*
X196147072Y-85710183D01*
X196155363Y-85668500D01*
X195352488Y-85668500D01*
X195369705Y-85658560D01*
X195425560Y-85602705D01*
X195465056Y-85534296D01*
X195485500Y-85457996D01*
X195485500Y-85379004D01*
X195465056Y-85302704D01*
X195425560Y-85234295D01*
X195369705Y-85178440D01*
X195352488Y-85168500D01*
X196155363Y-85168500D01*
X196155363Y-85168499D01*
X196147072Y-85126816D01*
X196147070Y-85126809D01*
X196071688Y-84944822D01*
X195962251Y-84781037D01*
X195962246Y-84781031D01*
X195822968Y-84641753D01*
X195822962Y-84641748D01*
X195659175Y-84532309D01*
X195655903Y-84530560D01*
X195654511Y-84529193D01*
X195654031Y-84528872D01*
X195654091Y-84528780D01*
X195605258Y-84480804D01*
X195589553Y-84411566D01*
X195612191Y-84349193D01*
X195611886Y-84349017D01*
X195612879Y-84347296D01*
X195613775Y-84344829D01*
X195615348Y-84342733D01*
X195616008Y-84341871D01*
X195616015Y-84341865D01*
X195691781Y-84210635D01*
X195731000Y-84064266D01*
X195731000Y-83912734D01*
X195691781Y-83766365D01*
X195626098Y-83652599D01*
X195616017Y-83635138D01*
X195616009Y-83635128D01*
X195508871Y-83527990D01*
X195508861Y-83527982D01*
X195377639Y-83452221D01*
X195377636Y-83452220D01*
X195377635Y-83452219D01*
X195377633Y-83452218D01*
X195377632Y-83452218D01*
X195307893Y-83433532D01*
X195231266Y-83413000D01*
X195079734Y-83413000D01*
X195003107Y-83433532D01*
X194933367Y-83452218D01*
X194933360Y-83452221D01*
X194802138Y-83527982D01*
X194802128Y-83527990D01*
X194694990Y-83635128D01*
X194694982Y-83635138D01*
X194619221Y-83766360D01*
X194619218Y-83766367D01*
X194604873Y-83819904D01*
X194580000Y-83912734D01*
X194580000Y-84064266D01*
X194593984Y-84116456D01*
X194619218Y-84210632D01*
X194619221Y-84210639D01*
X194694982Y-84341861D01*
X194694990Y-84341871D01*
X194802128Y-84449009D01*
X194802132Y-84449012D01*
X194802135Y-84449015D01*
X194822499Y-84460772D01*
X194871492Y-84512152D01*
X194885500Y-84569891D01*
X194885500Y-85118500D01*
X194385500Y-85118500D01*
X194385500Y-84418500D01*
X193987006Y-84418500D01*
X193793810Y-84456929D01*
X193793805Y-84456931D01*
X193611822Y-84532311D01*
X193448037Y-84641748D01*
X193448031Y-84641753D01*
X193308753Y-84781031D01*
X193308748Y-84781037D01*
X193199311Y-84944822D01*
X193123929Y-85126809D01*
X193123927Y-85126816D01*
X193115636Y-85168499D01*
X184608500Y-85168499D01*
X184608500Y-83004000D01*
X191439184Y-83004000D01*
X191457994Y-83182974D01*
X191513602Y-83354120D01*
X191513605Y-83354126D01*
X191603583Y-83509972D01*
X191603590Y-83509982D01*
X191723999Y-83643709D01*
X191724002Y-83643711D01*
X191869592Y-83749489D01*
X191938649Y-83780235D01*
X192033993Y-83822685D01*
X192210019Y-83860100D01*
X192210020Y-83860100D01*
X192389981Y-83860100D01*
X192477993Y-83841392D01*
X192566007Y-83822685D01*
X192730408Y-83749489D01*
X192875998Y-83643711D01*
X192883726Y-83635128D01*
X192996409Y-83509982D01*
X192996410Y-83509980D01*
X192996415Y-83509975D01*
X193086395Y-83354125D01*
X193096806Y-83322085D01*
X193114200Y-83268549D01*
X193142005Y-83182974D01*
X193142480Y-83178457D01*
X193169490Y-83112799D01*
X193178696Y-83102526D01*
X193217229Y-83063993D01*
X193217229Y-83063992D01*
X193217235Y-83063987D01*
X193292856Y-82950811D01*
X193344945Y-82825057D01*
X193353430Y-82782400D01*
X193371500Y-82691558D01*
X193371500Y-79869615D01*
X193388381Y-79806615D01*
X193388487Y-79806432D01*
X193466895Y-79670625D01*
X193476331Y-79641586D01*
X193522505Y-79499474D01*
X193525468Y-79471281D01*
X193541316Y-79320500D01*
X193522505Y-79141526D01*
X193522505Y-79141525D01*
X193466897Y-78970379D01*
X193466894Y-78970373D01*
X193386394Y-78830943D01*
X193376915Y-78814525D01*
X193376913Y-78814523D01*
X193376909Y-78814517D01*
X193256500Y-78680790D01*
X193110908Y-78575011D01*
X192946506Y-78501814D01*
X192770481Y-78464400D01*
X192770480Y-78464400D01*
X192590520Y-78464400D01*
X192590519Y-78464400D01*
X192414493Y-78501814D01*
X192250091Y-78575011D01*
X192104499Y-78680790D01*
X191984090Y-78814517D01*
X191984083Y-78814527D01*
X191894105Y-78970373D01*
X191894102Y-78970379D01*
X191838494Y-79141525D01*
X191819684Y-79320500D01*
X191838494Y-79499474D01*
X191894102Y-79670620D01*
X191894105Y-79670626D01*
X191972619Y-79806615D01*
X191989500Y-79869615D01*
X191989500Y-82123298D01*
X191969498Y-82191419D01*
X191915842Y-82237912D01*
X191914750Y-82238404D01*
X191869598Y-82258507D01*
X191869592Y-82258511D01*
X191723999Y-82364290D01*
X191603590Y-82498017D01*
X191603583Y-82498027D01*
X191513605Y-82653873D01*
X191513602Y-82653879D01*
X191457994Y-82825025D01*
X191439184Y-83004000D01*
X184608500Y-83004000D01*
X184608500Y-79767499D01*
X184612759Y-79740625D01*
X184611557Y-79740370D01*
X184612927Y-79733914D01*
X184612932Y-79733901D01*
X184631743Y-79554927D01*
X184614263Y-79388620D01*
X184612932Y-79375952D01*
X184557324Y-79204806D01*
X184557318Y-79204795D01*
X184478808Y-79068809D01*
X184461927Y-79005810D01*
X184461927Y-76528499D01*
X193115636Y-76528499D01*
X193115637Y-76528500D01*
X193918512Y-76528500D01*
X193901295Y-76538440D01*
X193845440Y-76594295D01*
X193805944Y-76662704D01*
X193785500Y-76739004D01*
X193785500Y-76817996D01*
X193805944Y-76894296D01*
X193845440Y-76962705D01*
X193901295Y-77018560D01*
X193918512Y-77028500D01*
X193115636Y-77028500D01*
X193123927Y-77070183D01*
X193123929Y-77070190D01*
X193199311Y-77252177D01*
X193308748Y-77415962D01*
X193308753Y-77415968D01*
X193448031Y-77555246D01*
X193448037Y-77555251D01*
X193611822Y-77664688D01*
X193793805Y-77740068D01*
X193793810Y-77740070D01*
X193987006Y-77778499D01*
X193987010Y-77778500D01*
X194385500Y-77778500D01*
X194385500Y-77078500D01*
X194885500Y-77078500D01*
X194885500Y-77627107D01*
X194865498Y-77695228D01*
X194822504Y-77736224D01*
X194802138Y-77747982D01*
X194802127Y-77747991D01*
X194694990Y-77855128D01*
X194694982Y-77855138D01*
X194619221Y-77986360D01*
X194619218Y-77986367D01*
X194604295Y-78042062D01*
X194580000Y-78132734D01*
X194580000Y-78284266D01*
X194608527Y-78390730D01*
X194619218Y-78430632D01*
X194619221Y-78430639D01*
X194694982Y-78561861D01*
X194694990Y-78561871D01*
X194802128Y-78669009D01*
X194802133Y-78669013D01*
X194802135Y-78669015D01*
X194802136Y-78669016D01*
X194802138Y-78669017D01*
X194856204Y-78700232D01*
X194933365Y-78744781D01*
X195079734Y-78784000D01*
X195079736Y-78784000D01*
X195231264Y-78784000D01*
X195231266Y-78784000D01*
X195377635Y-78744781D01*
X195508865Y-78669015D01*
X195616015Y-78561865D01*
X195691781Y-78430635D01*
X195731000Y-78284266D01*
X195731000Y-78132734D01*
X195691781Y-77986365D01*
X195616015Y-77855135D01*
X195615343Y-77854259D01*
X195615005Y-77853386D01*
X195611886Y-77847983D01*
X195612728Y-77847496D01*
X195589744Y-77788039D01*
X195604010Y-77718490D01*
X195653612Y-77667695D01*
X195655912Y-77666434D01*
X195659182Y-77664686D01*
X195822962Y-77555251D01*
X195822968Y-77555246D01*
X195962246Y-77415968D01*
X195962251Y-77415962D01*
X196071688Y-77252177D01*
X196147070Y-77070190D01*
X196147072Y-77070183D01*
X196155363Y-77028500D01*
X195352488Y-77028500D01*
X195369705Y-77018560D01*
X195425560Y-76962705D01*
X195465056Y-76894296D01*
X195485500Y-76817996D01*
X195485500Y-76739004D01*
X195465056Y-76662704D01*
X195425560Y-76594295D01*
X195369705Y-76538440D01*
X195352488Y-76528500D01*
X196155363Y-76528500D01*
X196155363Y-76528499D01*
X196147072Y-76486816D01*
X196147070Y-76486809D01*
X196071688Y-76304822D01*
X195962251Y-76141037D01*
X195962246Y-76141031D01*
X195822968Y-76001753D01*
X195822962Y-76001748D01*
X195659177Y-75892311D01*
X195477194Y-75816931D01*
X195477189Y-75816929D01*
X195283993Y-75778500D01*
X194885500Y-75778500D01*
X194885500Y-76478500D01*
X194385500Y-76478500D01*
X194385500Y-75778500D01*
X193987006Y-75778500D01*
X193793810Y-75816929D01*
X193793805Y-75816931D01*
X193611822Y-75892311D01*
X193448037Y-76001748D01*
X193448031Y-76001753D01*
X193308753Y-76141031D01*
X193308748Y-76141037D01*
X193199311Y-76304822D01*
X193123929Y-76486809D01*
X193123927Y-76486816D01*
X193115636Y-76528499D01*
X184461927Y-76528499D01*
X184461927Y-73224987D01*
X184481929Y-73156866D01*
X184535585Y-73110373D01*
X184561728Y-73101741D01*
X184625507Y-73088185D01*
X184789908Y-73014989D01*
X184935498Y-72909211D01*
X184935500Y-72909209D01*
X185055909Y-72775482D01*
X185055910Y-72775480D01*
X185055915Y-72775475D01*
X185145895Y-72619625D01*
X185162415Y-72568783D01*
X185201505Y-72448474D01*
X185204751Y-72417586D01*
X185220316Y-72269500D01*
X185201505Y-72090526D01*
X185189971Y-72055027D01*
X185145897Y-71919379D01*
X185145894Y-71919373D01*
X185055916Y-71763527D01*
X185055909Y-71763517D01*
X184935500Y-71629790D01*
X184789908Y-71524011D01*
X184625506Y-71450814D01*
X184449481Y-71413400D01*
X184449480Y-71413400D01*
X184269520Y-71413400D01*
X184269519Y-71413400D01*
X184093493Y-71450814D01*
X183929091Y-71524011D01*
X183783499Y-71629790D01*
X183663090Y-71763517D01*
X183663083Y-71763527D01*
X183573105Y-71919373D01*
X183573102Y-71919379D01*
X183517496Y-72090520D01*
X183517494Y-72090527D01*
X183517019Y-72095052D01*
X183490002Y-72160708D01*
X183480806Y-72170970D01*
X183234194Y-72417583D01*
X183234193Y-72417585D01*
X183177129Y-72502985D01*
X183177130Y-72502986D01*
X183158571Y-72530761D01*
X183106483Y-72656512D01*
X183106482Y-72656515D01*
X183079927Y-72790011D01*
X183079927Y-79005810D01*
X183063046Y-79068809D01*
X182984535Y-79204795D01*
X182984529Y-79204806D01*
X182928921Y-79375952D01*
X182910111Y-79554927D01*
X182928921Y-79733901D01*
X182966333Y-79849041D01*
X182972500Y-79887977D01*
X182972500Y-102297482D01*
X182952498Y-102365603D01*
X182935595Y-102386577D01*
X178183586Y-107138585D01*
X178121274Y-107172611D01*
X178068295Y-107172737D01*
X178038481Y-107166400D01*
X178038480Y-107166400D01*
X177858520Y-107166400D01*
X177858519Y-107166400D01*
X177692221Y-107201747D01*
X177666025Y-107204500D01*
X160958975Y-107204500D01*
X160932779Y-107201747D01*
X160766481Y-107166400D01*
X160766480Y-107166400D01*
X160586520Y-107166400D01*
X160586519Y-107166400D01*
X160420221Y-107201747D01*
X160394025Y-107204500D01*
X145718975Y-107204500D01*
X145692779Y-107201747D01*
X145526481Y-107166400D01*
X145526480Y-107166400D01*
X145346520Y-107166400D01*
X145346519Y-107166400D01*
X145180221Y-107201747D01*
X145154025Y-107204500D01*
X142328983Y-107204500D01*
X142260862Y-107184498D01*
X142214369Y-107130842D01*
X142204265Y-107060568D01*
X142233759Y-106995988D01*
X142277734Y-106963393D01*
X142278619Y-106962999D01*
X142385472Y-106915425D01*
X142531062Y-106809647D01*
X142651479Y-106675911D01*
X142741459Y-106520061D01*
X142771128Y-106428745D01*
X142811200Y-106370141D01*
X142859338Y-106347043D01*
X142859111Y-106346343D01*
X142864335Y-106344645D01*
X142864777Y-106344433D01*
X142865388Y-106344304D01*
X143029789Y-106271108D01*
X143175379Y-106165330D01*
X143225199Y-106110000D01*
X143295790Y-106031601D01*
X143295791Y-106031599D01*
X143295796Y-106031594D01*
X143385776Y-105875744D01*
X143416913Y-105779909D01*
X143456985Y-105721305D01*
X143510556Y-105695598D01*
X143515048Y-105694644D01*
X143679449Y-105621448D01*
X143825039Y-105515670D01*
X143869062Y-105466778D01*
X143945450Y-105381941D01*
X143945451Y-105381939D01*
X143945456Y-105381934D01*
X144035436Y-105226084D01*
X144070367Y-105118575D01*
X144110438Y-105059973D01*
X144164003Y-105034267D01*
X144178507Y-105031185D01*
X144342908Y-104957989D01*
X144488498Y-104852211D01*
X144488500Y-104852209D01*
X144608909Y-104718482D01*
X144608910Y-104718480D01*
X144608915Y-104718475D01*
X144698895Y-104562625D01*
X144754505Y-104391474D01*
X144773316Y-104212500D01*
X144754505Y-104033526D01*
X144754505Y-104033525D01*
X144698897Y-103862379D01*
X144698894Y-103862373D01*
X144653905Y-103784450D01*
X144608915Y-103706525D01*
X144608913Y-103706523D01*
X144608909Y-103706517D01*
X144488500Y-103572790D01*
X144342908Y-103467011D01*
X144178506Y-103393814D01*
X144002481Y-103356400D01*
X144002480Y-103356400D01*
X143996009Y-103356400D01*
X143927888Y-103336398D01*
X143906918Y-103319499D01*
X143737514Y-103150095D01*
X143703489Y-103087783D01*
X143708554Y-103016967D01*
X143751101Y-102960132D01*
X143817622Y-102935321D01*
X143826610Y-102935000D01*
X146523548Y-102935000D01*
X146574797Y-102945893D01*
X146694493Y-102999185D01*
X146870519Y-103036600D01*
X146870520Y-103036600D01*
X147050481Y-103036600D01*
X147162866Y-103012712D01*
X147226507Y-102999185D01*
X147390908Y-102925989D01*
X147536498Y-102820211D01*
X147582548Y-102769068D01*
X147656909Y-102686482D01*
X147656910Y-102686480D01*
X147656915Y-102686475D01*
X147746895Y-102530625D01*
X147802505Y-102359474D01*
X147821316Y-102180500D01*
X147802505Y-102001526D01*
X147798998Y-101990732D01*
X147746897Y-101830379D01*
X147746894Y-101830373D01*
X147656916Y-101674527D01*
X147656909Y-101674517D01*
X147536500Y-101540790D01*
X147390908Y-101435011D01*
X147226506Y-101361814D01*
X147050481Y-101324400D01*
X147050480Y-101324400D01*
X146928447Y-101324400D01*
X146860326Y-101304398D01*
X146813833Y-101250742D01*
X146803137Y-101185229D01*
X146805316Y-101164500D01*
X146786505Y-100985526D01*
X146773440Y-100945315D01*
X146730897Y-100814379D01*
X146730894Y-100814373D01*
X146640916Y-100658527D01*
X146640909Y-100658517D01*
X146520500Y-100524790D01*
X146374908Y-100419011D01*
X146210506Y-100345814D01*
X146034481Y-100308400D01*
X146034480Y-100308400D01*
X145854520Y-100308400D01*
X145854519Y-100308400D01*
X145678493Y-100345814D01*
X145558797Y-100399107D01*
X145507548Y-100410000D01*
X109225214Y-100410000D01*
X109157093Y-100389998D01*
X109136119Y-100373095D01*
X108071470Y-99308445D01*
X108071469Y-99308444D01*
X108071466Y-99308441D01*
X107947889Y-99225870D01*
X107867455Y-99192553D01*
X107810583Y-99168996D01*
X107810582Y-99168995D01*
X107794456Y-99165787D01*
X107786394Y-99164184D01*
X107786393Y-99164183D01*
X107705155Y-99148023D01*
X107664812Y-99139999D01*
X107516188Y-99139999D01*
X107509975Y-99139999D01*
X107509955Y-99140000D01*
X103963452Y-99140000D01*
X103912203Y-99129107D01*
X103792506Y-99075814D01*
X103616481Y-99038400D01*
X103616480Y-99038400D01*
X103436520Y-99038400D01*
X103436519Y-99038400D01*
X103260493Y-99075814D01*
X103096091Y-99149011D01*
X102950499Y-99254790D01*
X102830090Y-99388517D01*
X102830083Y-99388527D01*
X102740105Y-99544373D01*
X102740102Y-99544379D01*
X102684494Y-99715525D01*
X102665684Y-99894500D01*
X102684494Y-100073474D01*
X102740102Y-100244620D01*
X102740105Y-100244626D01*
X102830083Y-100400472D01*
X102830090Y-100400482D01*
X102950499Y-100534209D01*
X102950502Y-100534211D01*
X103096092Y-100639989D01*
X103204899Y-100688433D01*
X103260493Y-100713185D01*
X103436519Y-100750600D01*
X103436520Y-100750600D01*
X103616481Y-100750600D01*
X103747939Y-100722658D01*
X103792507Y-100713185D01*
X103912203Y-100659893D01*
X103963452Y-100649000D01*
X106594363Y-100649000D01*
X106662484Y-100669002D01*
X106708977Y-100722658D01*
X106719081Y-100792932D01*
X106689587Y-100857512D01*
X106687999Y-100859310D01*
X106640090Y-100912517D01*
X106640083Y-100912527D01*
X106550105Y-101068373D01*
X106550102Y-101068379D01*
X106494494Y-101239525D01*
X106475684Y-101418500D01*
X106494494Y-101597474D01*
X106550102Y-101768620D01*
X106550105Y-101768626D01*
X106640083Y-101924472D01*
X106640090Y-101924482D01*
X106760499Y-102058209D01*
X106760502Y-102058211D01*
X106906092Y-102163989D01*
X107070493Y-102237185D01*
X107070495Y-102237185D01*
X107076527Y-102239871D01*
X107075911Y-102241254D01*
X107118055Y-102267079D01*
X107508030Y-102657054D01*
X107508051Y-102657077D01*
X107585879Y-102734905D01*
X107619905Y-102797217D01*
X107614840Y-102868032D01*
X107572293Y-102924868D01*
X107505773Y-102949679D01*
X107496784Y-102950000D01*
X103584609Y-102950000D01*
X103516488Y-102929998D01*
X103495514Y-102913095D01*
X102256742Y-101674323D01*
X102222716Y-101612011D01*
X102220527Y-101598398D01*
X102214472Y-101540790D01*
X102209505Y-101493526D01*
X102203112Y-101473849D01*
X102153897Y-101322379D01*
X102153894Y-101322373D01*
X102063916Y-101166527D01*
X102063909Y-101166517D01*
X101943500Y-101032790D01*
X101797908Y-100927011D01*
X101633506Y-100853814D01*
X101457481Y-100816400D01*
X101457480Y-100816400D01*
X101277520Y-100816400D01*
X101277519Y-100816400D01*
X101101493Y-100853814D01*
X100937091Y-100927011D01*
X100806561Y-101021847D01*
X100739693Y-101045706D01*
X100670541Y-101029625D01*
X100658439Y-101021847D01*
X100527908Y-100927011D01*
X100363506Y-100853814D01*
X100187481Y-100816400D01*
X100187480Y-100816400D01*
X100007520Y-100816400D01*
X100007519Y-100816400D01*
X99831491Y-100853815D01*
X99693146Y-100915410D01*
X99622779Y-100924844D01*
X99590649Y-100915410D01*
X99452303Y-100853814D01*
X99276278Y-100816400D01*
X99276277Y-100816400D01*
X99096317Y-100816400D01*
X99096316Y-100816400D01*
X98920290Y-100853814D01*
X98755888Y-100927011D01*
X98610296Y-101032790D01*
X98489887Y-101166517D01*
X98489880Y-101166527D01*
X98399902Y-101322373D01*
X98399899Y-101322379D01*
X98344291Y-101493525D01*
X98325481Y-101672500D01*
X91294549Y-101672500D01*
X91125814Y-101473849D01*
X90869934Y-101231466D01*
X90869919Y-101231453D01*
X90655393Y-101068375D01*
X90589318Y-101018146D01*
X90287298Y-100836426D01*
X90287292Y-100836423D01*
X89967418Y-100688433D01*
X89967399Y-100688425D01*
X89633387Y-100575884D01*
X89633386Y-100575883D01*
X89633378Y-100575881D01*
X89586708Y-100565608D01*
X89289157Y-100500111D01*
X89289133Y-100500107D01*
X88938744Y-100462000D01*
X88938737Y-100462000D01*
X88586263Y-100462000D01*
X88586255Y-100462000D01*
X88235866Y-100500107D01*
X88235842Y-100500111D01*
X87891626Y-100575880D01*
X87891612Y-100575884D01*
X87557600Y-100688425D01*
X87557581Y-100688433D01*
X87237707Y-100836423D01*
X87237700Y-100836427D01*
X86935684Y-101018144D01*
X86655080Y-101231453D01*
X86655065Y-101231466D01*
X86399185Y-101473849D01*
X86171001Y-101742489D01*
X86170999Y-101742492D01*
X85976787Y-102028931D01*
X85922005Y-102074088D01*
X85851503Y-102082459D01*
X85787668Y-102051385D01*
X85750767Y-101990732D01*
X85746500Y-101958221D01*
X85746500Y-59112482D01*
X86012000Y-59112482D01*
X86012000Y-60412509D01*
X86022500Y-60515297D01*
X86077685Y-60681834D01*
X86169788Y-60831156D01*
X86169793Y-60831162D01*
X86293837Y-60955206D01*
X86293843Y-60955211D01*
X86293844Y-60955212D01*
X86340226Y-60983821D01*
X86443163Y-61047313D01*
X86443165Y-61047313D01*
X86443166Y-61047314D01*
X86450610Y-61049780D01*
X86508981Y-61090193D01*
X86536238Y-61155748D01*
X86523726Y-61225634D01*
X86486661Y-61269407D01*
X86486796Y-61269565D01*
X86485826Y-61270393D01*
X86485044Y-61271317D01*
X86483036Y-61272775D01*
X86483028Y-61272782D01*
X86332782Y-61423028D01*
X86332780Y-61423031D01*
X86207879Y-61594942D01*
X86111407Y-61784278D01*
X86111404Y-61784284D01*
X86045743Y-61986369D01*
X86035269Y-62052500D01*
X87329488Y-62052500D01*
X87296575Y-62109507D01*
X87262500Y-62236674D01*
X87262500Y-62368326D01*
X87296575Y-62495493D01*
X87329488Y-62552500D01*
X86035269Y-62552500D01*
X86045743Y-62618630D01*
X86111404Y-62820715D01*
X86111407Y-62820721D01*
X86207879Y-63010057D01*
X86332780Y-63181968D01*
X86332782Y-63181971D01*
X86483028Y-63332217D01*
X86483031Y-63332219D01*
X86654945Y-63457122D01*
X86660500Y-63459953D01*
X86712115Y-63508701D01*
X86729180Y-63577616D01*
X86706279Y-63644818D01*
X86660504Y-63684483D01*
X86654684Y-63687448D01*
X86482705Y-63812398D01*
X86482702Y-63812400D01*
X86332400Y-63962702D01*
X86332398Y-63962705D01*
X86207451Y-64134680D01*
X86120278Y-64305767D01*
X86110943Y-64324088D01*
X86045254Y-64526257D01*
X86012000Y-64736213D01*
X86012000Y-64948787D01*
X86045254Y-65158743D01*
X86110943Y-65360912D01*
X86207449Y-65550316D01*
X86332396Y-65722292D01*
X86332398Y-65722294D01*
X86332400Y-65722297D01*
X86482702Y-65872599D01*
X86482705Y-65872601D01*
X86482708Y-65872604D01*
X86654684Y-65997551D01*
X86657817Y-65999147D01*
X86659951Y-66000235D01*
X86711565Y-66048984D01*
X86728629Y-66117900D01*
X86705726Y-66185101D01*
X86659951Y-66224765D01*
X86654683Y-66227449D01*
X86482705Y-66352398D01*
X86482702Y-66352400D01*
X86332400Y-66502702D01*
X86332398Y-66502705D01*
X86207451Y-66674680D01*
X86110944Y-66864086D01*
X86110943Y-66864088D01*
X86048100Y-67057499D01*
X86045254Y-67066257D01*
X86012000Y-67276213D01*
X86012000Y-67488787D01*
X86045254Y-67698743D01*
X86110943Y-67900912D01*
X86207449Y-68090316D01*
X86332396Y-68262292D01*
X86332398Y-68262294D01*
X86332400Y-68262297D01*
X86482702Y-68412599D01*
X86482705Y-68412601D01*
X86482708Y-68412604D01*
X86654684Y-68537551D01*
X86657817Y-68539147D01*
X86659951Y-68540235D01*
X86711565Y-68588984D01*
X86728629Y-68657900D01*
X86705726Y-68725101D01*
X86659951Y-68764765D01*
X86654683Y-68767449D01*
X86482705Y-68892398D01*
X86482702Y-68892400D01*
X86332400Y-69042702D01*
X86332398Y-69042705D01*
X86207451Y-69214680D01*
X86110944Y-69404086D01*
X86110943Y-69404088D01*
X86082197Y-69492560D01*
X86045254Y-69606257D01*
X86012000Y-69816213D01*
X86012000Y-70028787D01*
X86045254Y-70238743D01*
X86110943Y-70440912D01*
X86207449Y-70630316D01*
X86207451Y-70630319D01*
X86220200Y-70647867D01*
X86332396Y-70802292D01*
X86332398Y-70802294D01*
X86332400Y-70802297D01*
X86482702Y-70952599D01*
X86482705Y-70952601D01*
X86482708Y-70952604D01*
X86654684Y-71077551D01*
X86657817Y-71079147D01*
X86659951Y-71080235D01*
X86711565Y-71128984D01*
X86728629Y-71197900D01*
X86705726Y-71265101D01*
X86659951Y-71304765D01*
X86654683Y-71307449D01*
X86482705Y-71432398D01*
X86482702Y-71432400D01*
X86332400Y-71582702D01*
X86332398Y-71582705D01*
X86207451Y-71754680D01*
X86110944Y-71944086D01*
X86110943Y-71944088D01*
X86045948Y-72144122D01*
X86045254Y-72146257D01*
X86012000Y-72356213D01*
X86012000Y-72568787D01*
X86045254Y-72778743D01*
X86110943Y-72980912D01*
X86207449Y-73170316D01*
X86207451Y-73170319D01*
X86232968Y-73205440D01*
X86332396Y-73342292D01*
X86332398Y-73342294D01*
X86332400Y-73342297D01*
X86482702Y-73492599D01*
X86482705Y-73492601D01*
X86482708Y-73492604D01*
X86654684Y-73617551D01*
X86657817Y-73619147D01*
X86659951Y-73620235D01*
X86711565Y-73668984D01*
X86728629Y-73737900D01*
X86705726Y-73805101D01*
X86659951Y-73844765D01*
X86654683Y-73847449D01*
X86482705Y-73972398D01*
X86482702Y-73972400D01*
X86332400Y-74122702D01*
X86332398Y-74122705D01*
X86207451Y-74294680D01*
X86110944Y-74484086D01*
X86110943Y-74484088D01*
X86058624Y-74645110D01*
X86045254Y-74686257D01*
X86012000Y-74896213D01*
X86012000Y-75108787D01*
X86045254Y-75318743D01*
X86110943Y-75520912D01*
X86207449Y-75710316D01*
X86332396Y-75882292D01*
X86332398Y-75882294D01*
X86332400Y-75882297D01*
X86482702Y-76032599D01*
X86482705Y-76032601D01*
X86482708Y-76032604D01*
X86654684Y-76157551D01*
X86657817Y-76159147D01*
X86659951Y-76160235D01*
X86711565Y-76208984D01*
X86728629Y-76277900D01*
X86705726Y-76345101D01*
X86659951Y-76384765D01*
X86654683Y-76387449D01*
X86482705Y-76512398D01*
X86482702Y-76512400D01*
X86332400Y-76662702D01*
X86332398Y-76662705D01*
X86207451Y-76834680D01*
X86110944Y-77024086D01*
X86110943Y-77024088D01*
X86050666Y-77209602D01*
X86045254Y-77226257D01*
X86012000Y-77436213D01*
X86012000Y-77648787D01*
X86045254Y-77858743D01*
X86110943Y-78060912D01*
X86207449Y-78250316D01*
X86332396Y-78422292D01*
X86332398Y-78422294D01*
X86332400Y-78422297D01*
X86482702Y-78572599D01*
X86482705Y-78572601D01*
X86482708Y-78572604D01*
X86654684Y-78697551D01*
X86657817Y-78699147D01*
X86659951Y-78700235D01*
X86711565Y-78748984D01*
X86728629Y-78817900D01*
X86705726Y-78885101D01*
X86659951Y-78924765D01*
X86654683Y-78927449D01*
X86482705Y-79052398D01*
X86482702Y-79052400D01*
X86332400Y-79202702D01*
X86332398Y-79202705D01*
X86207451Y-79374680D01*
X86110944Y-79564086D01*
X86110943Y-79564088D01*
X86049545Y-79753052D01*
X86045254Y-79766257D01*
X86012000Y-79976213D01*
X86012000Y-80188787D01*
X86045254Y-80398743D01*
X86110943Y-80600912D01*
X86207449Y-80790316D01*
X86332396Y-80962292D01*
X86332398Y-80962294D01*
X86332400Y-80962297D01*
X86482702Y-81112599D01*
X86482705Y-81112601D01*
X86482708Y-81112604D01*
X86654684Y-81237551D01*
X86657817Y-81239147D01*
X86659951Y-81240235D01*
X86711565Y-81288984D01*
X86728629Y-81357900D01*
X86705726Y-81425101D01*
X86659951Y-81464765D01*
X86654683Y-81467449D01*
X86482705Y-81592398D01*
X86482702Y-81592400D01*
X86332400Y-81742702D01*
X86332398Y-81742705D01*
X86207451Y-81914680D01*
X86110944Y-82104086D01*
X86110943Y-82104088D01*
X86059147Y-82263500D01*
X86045254Y-82306257D01*
X86012000Y-82516213D01*
X86012000Y-82728787D01*
X86045254Y-82938743D01*
X86110943Y-83140912D01*
X86207449Y-83330316D01*
X86207451Y-83330319D01*
X86231085Y-83362848D01*
X86332396Y-83502292D01*
X86332398Y-83502294D01*
X86332400Y-83502297D01*
X86482702Y-83652599D01*
X86482705Y-83652601D01*
X86482708Y-83652604D01*
X86654684Y-83777551D01*
X86657817Y-83779147D01*
X86659951Y-83780235D01*
X86711565Y-83828984D01*
X86728629Y-83897900D01*
X86705726Y-83965101D01*
X86659951Y-84004765D01*
X86654683Y-84007449D01*
X86482705Y-84132398D01*
X86482702Y-84132400D01*
X86332400Y-84282702D01*
X86332398Y-84282705D01*
X86207451Y-84454680D01*
X86110944Y-84644086D01*
X86110943Y-84644088D01*
X86056139Y-84812758D01*
X86045254Y-84846257D01*
X86012000Y-85056213D01*
X86012000Y-85268787D01*
X86045254Y-85478743D01*
X86110943Y-85680912D01*
X86207449Y-85870316D01*
X86332396Y-86042292D01*
X86332398Y-86042294D01*
X86332400Y-86042297D01*
X86482702Y-86192599D01*
X86482705Y-86192601D01*
X86482708Y-86192604D01*
X86654684Y-86317551D01*
X86676149Y-86328488D01*
X86699201Y-86340234D01*
X86750816Y-86388982D01*
X86767881Y-86457897D01*
X86744980Y-86525099D01*
X86699201Y-86564766D01*
X86654683Y-86587449D01*
X86482705Y-86712398D01*
X86482702Y-86712400D01*
X86332400Y-86862702D01*
X86332398Y-86862705D01*
X86207451Y-87034680D01*
X86110944Y-87224086D01*
X86110943Y-87224088D01*
X86047871Y-87418204D01*
X86045254Y-87426257D01*
X86012000Y-87636213D01*
X86012000Y-87848787D01*
X86045254Y-88058743D01*
X86110943Y-88260912D01*
X86207449Y-88450316D01*
X86332396Y-88622292D01*
X86332398Y-88622294D01*
X86332400Y-88622297D01*
X86482702Y-88772599D01*
X86482705Y-88772601D01*
X86482708Y-88772604D01*
X86563074Y-88830993D01*
X86645066Y-88890564D01*
X86688420Y-88946786D01*
X86694495Y-89017522D01*
X86661364Y-89080314D01*
X86645066Y-89094436D01*
X86482705Y-89212398D01*
X86482702Y-89212400D01*
X86332400Y-89362702D01*
X86332398Y-89362705D01*
X86207451Y-89534680D01*
X86207449Y-89534684D01*
X86110943Y-89724088D01*
X86045254Y-89926257D01*
X86012000Y-90136213D01*
X86012000Y-90348787D01*
X86045254Y-90558743D01*
X86110943Y-90760912D01*
X86207449Y-90950316D01*
X86332396Y-91122292D01*
X86332398Y-91122294D01*
X86332400Y-91122297D01*
X86482702Y-91272599D01*
X86482705Y-91272601D01*
X86482708Y-91272604D01*
X86654684Y-91397551D01*
X86657817Y-91399147D01*
X86659951Y-91400235D01*
X86711565Y-91448984D01*
X86728629Y-91517900D01*
X86705726Y-91585101D01*
X86659951Y-91624765D01*
X86654683Y-91627449D01*
X86482705Y-91752398D01*
X86482702Y-91752400D01*
X86332400Y-91902702D01*
X86332398Y-91902705D01*
X86207451Y-92074680D01*
X86207449Y-92074684D01*
X86110943Y-92264088D01*
X86092647Y-92320398D01*
X86047357Y-92459786D01*
X86045254Y-92466257D01*
X86012000Y-92676213D01*
X86012000Y-92888787D01*
X86045254Y-93098743D01*
X86110943Y-93300912D01*
X86207449Y-93490316D01*
X86332396Y-93662292D01*
X86332398Y-93662294D01*
X86332400Y-93662297D01*
X86482702Y-93812599D01*
X86482705Y-93812601D01*
X86482708Y-93812604D01*
X86654684Y-93937551D01*
X86844088Y-94034057D01*
X87046257Y-94099746D01*
X87256213Y-94133000D01*
X87256216Y-94133000D01*
X88268784Y-94133000D01*
X88268787Y-94133000D01*
X88478743Y-94099746D01*
X88680912Y-94034057D01*
X88870316Y-93937551D01*
X89042292Y-93812604D01*
X89192604Y-93662292D01*
X89317551Y-93490316D01*
X89414057Y-93300912D01*
X89479746Y-93098743D01*
X89513000Y-92888787D01*
X89513000Y-92676213D01*
X89479746Y-92466257D01*
X89414057Y-92264088D01*
X89317551Y-92074684D01*
X89192604Y-91902708D01*
X89192601Y-91902705D01*
X89192599Y-91902702D01*
X89042297Y-91752400D01*
X89042294Y-91752398D01*
X89042292Y-91752396D01*
X88910657Y-91656758D01*
X88870319Y-91627451D01*
X88870318Y-91627450D01*
X88870316Y-91627449D01*
X88865051Y-91624766D01*
X88813437Y-91576020D01*
X88796370Y-91507106D01*
X88819270Y-91439904D01*
X88865051Y-91400233D01*
X88870316Y-91397551D01*
X89042292Y-91272604D01*
X89192604Y-91122292D01*
X89292033Y-90985438D01*
X89348254Y-90942085D01*
X89393968Y-90933500D01*
X106515558Y-90933500D01*
X106649057Y-90906945D01*
X106774811Y-90854856D01*
X106887987Y-90779235D01*
X115586816Y-82080404D01*
X115649128Y-82046379D01*
X115675911Y-82043500D01*
X118349804Y-82043500D01*
X118483303Y-82016945D01*
X118609057Y-81964856D01*
X118617739Y-81959055D01*
X118722233Y-81889235D01*
X120405260Y-80206206D01*
X120467569Y-80172184D01*
X120467997Y-80172091D01*
X120568130Y-80150808D01*
X120732531Y-80077612D01*
X120878121Y-79971834D01*
X120998538Y-79838098D01*
X121088518Y-79682248D01*
X121088659Y-79681816D01*
X121144128Y-79511097D01*
X121156698Y-79391500D01*
X121162939Y-79332123D01*
X121144128Y-79153149D01*
X121141674Y-79145596D01*
X121088520Y-78982002D01*
X121088517Y-78981996D01*
X121016625Y-78857475D01*
X120999887Y-78788479D01*
X121016626Y-78731474D01*
X121060993Y-78654629D01*
X121060995Y-78654624D01*
X121067851Y-78633525D01*
X121116605Y-78483474D01*
X121135416Y-78304500D01*
X121116605Y-78125526D01*
X121107814Y-78098469D01*
X121060997Y-77954379D01*
X121060994Y-77954373D01*
X121005782Y-77858743D01*
X120971015Y-77798525D01*
X120971013Y-77798523D01*
X120971009Y-77798517D01*
X120850600Y-77664790D01*
X120705008Y-77559011D01*
X120540606Y-77485814D01*
X120364581Y-77448400D01*
X120364580Y-77448400D01*
X120184620Y-77448400D01*
X120184619Y-77448400D01*
X120008593Y-77485814D01*
X119844191Y-77559011D01*
X119698599Y-77664790D01*
X119578190Y-77798517D01*
X119578183Y-77798527D01*
X119488205Y-77954373D01*
X119488202Y-77954380D01*
X119462191Y-78034436D01*
X119422117Y-78093042D01*
X119356721Y-78120679D01*
X119342358Y-78121500D01*
X117944913Y-78121500D01*
X117876792Y-78101498D01*
X117830299Y-78047842D01*
X117820195Y-77977568D01*
X117849689Y-77912988D01*
X117855817Y-77906405D01*
X117976484Y-77785738D01*
X118361636Y-77400584D01*
X118423947Y-77366561D01*
X118424431Y-77366456D01*
X118524507Y-77345185D01*
X118688908Y-77271989D01*
X118834498Y-77166211D01*
X118916390Y-77075261D01*
X118954909Y-77032482D01*
X118954910Y-77032480D01*
X118954915Y-77032475D01*
X119044895Y-76876625D01*
X119045887Y-76873574D01*
X119100505Y-76705474D01*
X119105000Y-76662704D01*
X119119316Y-76526500D01*
X119100505Y-76347526D01*
X119099717Y-76345101D01*
X119044897Y-76176379D01*
X119044894Y-76176373D01*
X118982133Y-76067668D01*
X118954915Y-76020525D01*
X118954913Y-76020523D01*
X118954909Y-76020517D01*
X118834500Y-75886790D01*
X118688908Y-75781011D01*
X118524506Y-75707814D01*
X118348481Y-75670400D01*
X118348480Y-75670400D01*
X118168520Y-75670400D01*
X118168519Y-75670400D01*
X117992493Y-75707814D01*
X117828091Y-75781011D01*
X117682499Y-75886790D01*
X117562090Y-76020517D01*
X117562083Y-76020527D01*
X117472105Y-76176373D01*
X117472102Y-76176379D01*
X117416496Y-76347520D01*
X117416494Y-76347527D01*
X117416019Y-76352052D01*
X117389002Y-76417708D01*
X117379806Y-76427970D01*
X116993183Y-76814595D01*
X116930871Y-76848620D01*
X116904087Y-76851500D01*
X111459438Y-76851500D01*
X111348470Y-76873573D01*
X111348470Y-76873574D01*
X111340961Y-76875067D01*
X111325941Y-76878055D01*
X111325939Y-76878056D01*
X111200188Y-76930144D01*
X111087018Y-77005762D01*
X111087011Y-77005767D01*
X106198183Y-81894595D01*
X106135871Y-81928621D01*
X106109088Y-81931500D01*
X89393968Y-81931500D01*
X89325847Y-81911498D01*
X89292034Y-81879563D01*
X89192604Y-81742708D01*
X89192601Y-81742705D01*
X89192599Y-81742702D01*
X89042297Y-81592400D01*
X89042294Y-81592398D01*
X89042292Y-81592396D01*
X88870316Y-81467449D01*
X88865051Y-81464766D01*
X88813437Y-81416020D01*
X88796370Y-81347106D01*
X88819270Y-81279904D01*
X88865051Y-81240233D01*
X88870316Y-81237551D01*
X89042292Y-81112604D01*
X89192604Y-80962292D01*
X89292033Y-80825438D01*
X89348254Y-80782085D01*
X89393968Y-80773500D01*
X100752958Y-80773500D01*
X100886457Y-80746945D01*
X101012211Y-80694856D01*
X101125387Y-80619235D01*
X102058037Y-79686583D01*
X102120348Y-79652560D01*
X102120823Y-79652457D01*
X102220907Y-79631185D01*
X102385308Y-79557989D01*
X102530898Y-79452211D01*
X102593689Y-79382475D01*
X102651309Y-79318482D01*
X102651310Y-79318480D01*
X102651315Y-79318475D01*
X102741295Y-79162625D01*
X102744375Y-79153148D01*
X102796905Y-78991474D01*
X102815716Y-78812500D01*
X102796905Y-78633526D01*
X102795737Y-78629931D01*
X102741297Y-78462379D01*
X102741294Y-78462373D01*
X102692253Y-78377432D01*
X102651315Y-78306525D01*
X102651313Y-78306523D01*
X102651309Y-78306517D01*
X102530900Y-78172790D01*
X102385308Y-78067011D01*
X102220906Y-77993814D01*
X102044881Y-77956400D01*
X102044880Y-77956400D01*
X101864920Y-77956400D01*
X101864919Y-77956400D01*
X101688893Y-77993814D01*
X101524491Y-78067011D01*
X101378899Y-78172790D01*
X101258490Y-78306517D01*
X101258483Y-78306527D01*
X101168505Y-78462373D01*
X101168502Y-78462379D01*
X101112896Y-78633520D01*
X101112894Y-78633527D01*
X101112419Y-78638052D01*
X101085402Y-78703708D01*
X101076206Y-78713970D01*
X100435583Y-79354595D01*
X100373270Y-79388620D01*
X100346487Y-79391500D01*
X100287393Y-79391500D01*
X100219272Y-79371498D01*
X100172779Y-79317842D01*
X100162675Y-79247568D01*
X100178273Y-79202501D01*
X100201294Y-79162626D01*
X100201295Y-79162625D01*
X100204375Y-79153148D01*
X100256905Y-78991474D01*
X100275716Y-78812500D01*
X100256905Y-78633526D01*
X100249910Y-78611999D01*
X100201295Y-78462375D01*
X100201295Y-78462374D01*
X100199766Y-78459726D01*
X100199346Y-78457998D01*
X100198609Y-78456341D01*
X100198912Y-78456206D01*
X100183027Y-78390730D01*
X100206246Y-78323638D01*
X100219789Y-78307629D01*
X100700848Y-77826571D01*
X101219911Y-77307508D01*
X102225514Y-76301905D01*
X102287826Y-76267879D01*
X102314609Y-76265000D01*
X110258755Y-76265000D01*
X110326876Y-76285002D01*
X110332816Y-76289064D01*
X110344236Y-76297361D01*
X110462092Y-76382989D01*
X110626493Y-76456185D01*
X110802519Y-76493600D01*
X110802520Y-76493600D01*
X110982481Y-76493600D01*
X111070493Y-76474892D01*
X111158507Y-76456185D01*
X111322908Y-76382989D01*
X111468498Y-76277211D01*
X111538106Y-76199904D01*
X111588909Y-76143482D01*
X111588910Y-76143480D01*
X111588915Y-76143475D01*
X111678895Y-75987625D01*
X111699537Y-75924097D01*
X111734505Y-75816474D01*
X111741971Y-75745440D01*
X111753316Y-75637500D01*
X111734505Y-75458526D01*
X111734505Y-75458525D01*
X111678897Y-75287379D01*
X111678894Y-75287373D01*
X111592945Y-75138506D01*
X111588915Y-75131525D01*
X111588913Y-75131523D01*
X111588909Y-75131517D01*
X111468500Y-74997790D01*
X111322908Y-74892011D01*
X111158506Y-74818814D01*
X110982481Y-74781400D01*
X110982480Y-74781400D01*
X110802520Y-74781400D01*
X110802519Y-74781400D01*
X110626493Y-74818814D01*
X110462091Y-74892011D01*
X110332816Y-74985936D01*
X110265948Y-75009794D01*
X110258755Y-75010000D01*
X105562412Y-75010000D01*
X105494291Y-74989998D01*
X105447798Y-74936342D01*
X105437694Y-74866068D01*
X105467188Y-74801488D01*
X105473317Y-74794905D01*
X108601816Y-71666405D01*
X108664128Y-71632379D01*
X108690911Y-71629500D01*
X112747539Y-71629500D01*
X112815660Y-71649502D01*
X112862153Y-71703158D01*
X112872257Y-71773432D01*
X112842763Y-71838012D01*
X112841175Y-71839810D01*
X112736090Y-71956517D01*
X112736083Y-71956527D01*
X112646105Y-72112373D01*
X112646102Y-72112379D01*
X112590494Y-72283525D01*
X112571684Y-72462500D01*
X112590494Y-72641474D01*
X112646102Y-72812620D01*
X112646105Y-72812626D01*
X112736083Y-72968472D01*
X112736090Y-72968482D01*
X112856499Y-73102209D01*
X112860865Y-73105381D01*
X113002092Y-73207989D01*
X113102005Y-73252473D01*
X113166493Y-73281185D01*
X113342519Y-73318600D01*
X113342520Y-73318600D01*
X113522481Y-73318600D01*
X113644473Y-73292670D01*
X113698507Y-73281185D01*
X113862908Y-73207989D01*
X114008498Y-73102211D01*
X114030463Y-73077817D01*
X114128909Y-72968482D01*
X114128910Y-72968480D01*
X114128915Y-72968475D01*
X114218895Y-72812625D01*
X114242996Y-72738446D01*
X114273729Y-72688294D01*
X114517721Y-72444302D01*
X114580031Y-72410279D01*
X114606814Y-72407400D01*
X116897442Y-72407400D01*
X116965563Y-72427402D01*
X117012056Y-72481058D01*
X117022752Y-72520230D01*
X117035494Y-72641475D01*
X117091102Y-72812620D01*
X117091105Y-72812626D01*
X117181083Y-72968472D01*
X117181090Y-72968482D01*
X117301499Y-73102209D01*
X117305865Y-73105381D01*
X117447092Y-73207989D01*
X117611493Y-73281185D01*
X117711464Y-73302433D01*
X117773937Y-73336160D01*
X117774150Y-73336372D01*
X118707013Y-74269235D01*
X118820189Y-74344856D01*
X118945943Y-74396945D01*
X119079442Y-74423500D01*
X123660558Y-74423500D01*
X123766918Y-74402343D01*
X123837632Y-74408671D01*
X123893699Y-74452224D01*
X123917319Y-74519177D01*
X123917500Y-74525922D01*
X123917500Y-79188577D01*
X123949456Y-79349229D01*
X123949458Y-79349235D01*
X123953816Y-79371146D01*
X123995294Y-79471283D01*
X124002883Y-79541871D01*
X123971104Y-79605358D01*
X123910046Y-79641586D01*
X123878885Y-79645500D01*
X122737423Y-79645500D01*
X122554853Y-79681816D01*
X122554850Y-79681817D01*
X122382875Y-79753052D01*
X122228098Y-79856470D01*
X122228092Y-79856475D01*
X122096475Y-79988092D01*
X122096470Y-79988098D01*
X121993052Y-80142875D01*
X121921817Y-80314850D01*
X121921816Y-80314853D01*
X121885500Y-80497423D01*
X121885500Y-80683576D01*
X121921816Y-80866146D01*
X121921817Y-80866149D01*
X121925145Y-80874183D01*
X121993052Y-81038125D01*
X122062153Y-81141543D01*
X122096470Y-81192901D01*
X122096475Y-81192907D01*
X122228092Y-81324524D01*
X122228098Y-81324529D01*
X122382875Y-81427948D01*
X122554854Y-81499184D01*
X122737426Y-81535500D01*
X123402877Y-81535500D01*
X123470998Y-81555502D01*
X123491972Y-81572404D01*
X123626595Y-81707026D01*
X123660620Y-81769338D01*
X123663500Y-81796122D01*
X123663500Y-82394109D01*
X123695108Y-82553011D01*
X123695111Y-82553020D01*
X123699816Y-82576679D01*
X123747399Y-82691553D01*
X123771052Y-82748657D01*
X123874471Y-82903435D01*
X123874473Y-82903437D01*
X124271441Y-83300405D01*
X124305467Y-83362717D01*
X124300402Y-83433532D01*
X124257855Y-83490368D01*
X124191335Y-83515179D01*
X124182346Y-83515500D01*
X119524122Y-83515500D01*
X119456001Y-83495498D01*
X119435027Y-83478595D01*
X118860905Y-82904473D01*
X118860904Y-82904472D01*
X118860903Y-82904471D01*
X118706125Y-82801052D01*
X118534146Y-82729816D01*
X118481982Y-82719440D01*
X118351579Y-82693501D01*
X118351574Y-82693501D01*
X118165426Y-82693501D01*
X118165420Y-82693501D01*
X118008935Y-82724628D01*
X117982854Y-82729816D01*
X117982851Y-82729816D01*
X117982848Y-82729818D01*
X117810874Y-82801052D01*
X117656101Y-82904468D01*
X117656094Y-82904473D01*
X117524473Y-83036094D01*
X117524468Y-83036101D01*
X117421052Y-83190874D01*
X117349818Y-83362848D01*
X117349816Y-83362855D01*
X117313501Y-83545420D01*
X117313501Y-83731579D01*
X117339066Y-83860100D01*
X117349816Y-83914146D01*
X117421052Y-84086125D01*
X117524471Y-84240903D01*
X117524472Y-84240904D01*
X117524473Y-84240905D01*
X118346443Y-85062875D01*
X118346457Y-85062888D01*
X118346471Y-85062902D01*
X118478098Y-85194529D01*
X118632875Y-85297948D01*
X118804854Y-85369184D01*
X118987426Y-85405500D01*
X125767782Y-85405500D01*
X125803280Y-85410603D01*
X125922244Y-85445535D01*
X126064559Y-85465997D01*
X126120070Y-85465997D01*
X126120080Y-85466000D01*
X126172264Y-85466000D01*
X126652902Y-85466000D01*
X126652930Y-85465997D01*
X126708441Y-85465997D01*
X126850756Y-85445535D01*
X126850757Y-85445535D01*
X126988809Y-85404998D01*
X127119594Y-85345270D01*
X127119597Y-85345267D01*
X127119601Y-85345266D01*
X127161899Y-85318082D01*
X127240630Y-85267486D01*
X127349291Y-85173332D01*
X127349294Y-85173329D01*
X127443515Y-85064591D01*
X127521247Y-84943637D01*
X127581017Y-84812759D01*
X127621524Y-84674804D01*
X127642000Y-84532389D01*
X127642000Y-84528702D01*
X127662002Y-84460581D01*
X127715658Y-84414088D01*
X127785932Y-84403984D01*
X127850512Y-84433478D01*
X127857081Y-84439593D01*
X128002517Y-84585029D01*
X128034999Y-84606733D01*
X128080528Y-84661208D01*
X128091000Y-84711499D01*
X128091000Y-85072574D01*
X128070998Y-85140695D01*
X128054096Y-85161669D01*
X127775619Y-85440147D01*
X127635145Y-85580621D01*
X127635144Y-85580623D01*
X127524779Y-85745796D01*
X127448758Y-85929325D01*
X127448756Y-85929330D01*
X127410000Y-86124168D01*
X127410000Y-87039831D01*
X127421008Y-87095171D01*
X127448756Y-87234669D01*
X127524779Y-87418204D01*
X127635147Y-87583381D01*
X127775619Y-87723853D01*
X127940796Y-87834221D01*
X128124331Y-87910244D01*
X128319171Y-87949000D01*
X128397588Y-87949000D01*
X128465709Y-87969002D01*
X128486683Y-87985905D01*
X128758595Y-88257817D01*
X128792621Y-88320129D01*
X128795500Y-88346912D01*
X128795500Y-92176000D01*
X128775498Y-92244121D01*
X128721842Y-92290614D01*
X128669500Y-92302000D01*
X127936490Y-92302000D01*
X127833702Y-92312500D01*
X127667165Y-92367685D01*
X127517843Y-92459788D01*
X127517837Y-92459793D01*
X127393793Y-92583837D01*
X127393788Y-92583843D01*
X127301685Y-92733165D01*
X127246502Y-92899696D01*
X127246500Y-92899708D01*
X127236000Y-93002482D01*
X127236000Y-95102509D01*
X127246500Y-95205297D01*
X127301685Y-95371834D01*
X127393788Y-95521156D01*
X127393793Y-95521162D01*
X127517837Y-95645206D01*
X127517843Y-95645211D01*
X127517844Y-95645212D01*
X127575063Y-95680504D01*
X127667165Y-95737314D01*
X127833696Y-95792497D01*
X127833697Y-95792497D01*
X127833703Y-95792499D01*
X127936491Y-95803000D01*
X131036508Y-95802999D01*
X131036509Y-95802999D01*
X131139297Y-95792499D01*
X131305834Y-95737314D01*
X131455156Y-95645212D01*
X131579212Y-95521156D01*
X131606784Y-95476453D01*
X131659569Y-95428975D01*
X131714025Y-95416600D01*
X131810481Y-95416600D01*
X131898493Y-95397892D01*
X131986507Y-95379185D01*
X132150908Y-95305989D01*
X132296498Y-95200211D01*
X132296500Y-95200209D01*
X132416909Y-95066482D01*
X132416910Y-95066480D01*
X132416915Y-95066475D01*
X132506895Y-94910625D01*
X132509973Y-94901154D01*
X132562505Y-94739474D01*
X132581316Y-94560500D01*
X132562505Y-94381526D01*
X132553756Y-94354598D01*
X132506897Y-94210379D01*
X132506894Y-94210373D01*
X132416916Y-94054527D01*
X132416909Y-94054517D01*
X132296500Y-93920790D01*
X132150908Y-93815011D01*
X131986507Y-93741815D01*
X131836802Y-93709994D01*
X131774328Y-93676265D01*
X131740007Y-93614116D01*
X131736999Y-93586747D01*
X131736999Y-93002490D01*
X131726499Y-92899702D01*
X131671314Y-92733165D01*
X131603304Y-92622903D01*
X131579212Y-92583844D01*
X131579211Y-92583843D01*
X131579206Y-92583837D01*
X131455162Y-92459793D01*
X131455156Y-92459788D01*
X131305834Y-92367685D01*
X131139303Y-92312502D01*
X131139291Y-92312500D01*
X131036517Y-92302000D01*
X131036509Y-92302000D01*
X130303500Y-92302000D01*
X130235379Y-92281998D01*
X130188886Y-92228342D01*
X130177500Y-92176000D01*
X130177500Y-87940441D01*
X130177499Y-87940438D01*
X130171493Y-87910243D01*
X130150945Y-87806943D01*
X130098856Y-87681189D01*
X130094406Y-87674529D01*
X130094402Y-87674523D01*
X130094402Y-87674522D01*
X130068804Y-87636213D01*
X130023235Y-87568013D01*
X130023230Y-87568008D01*
X130023228Y-87568005D01*
X129463905Y-87008682D01*
X129429879Y-86946370D01*
X129427000Y-86919587D01*
X129427000Y-86693424D01*
X129447002Y-86625303D01*
X129463905Y-86604329D01*
X129925330Y-86142904D01*
X129987642Y-86108878D01*
X130014425Y-86105999D01*
X130391738Y-86105999D01*
X130494496Y-86095502D01*
X130585354Y-86065395D01*
X130624986Y-86059000D01*
X130630576Y-86059000D01*
X130698697Y-86079002D01*
X130719670Y-86095904D01*
X131077619Y-86453853D01*
X131242796Y-86564221D01*
X131426331Y-86640244D01*
X131594096Y-86673613D01*
X131621165Y-86678998D01*
X131621168Y-86678998D01*
X131621171Y-86678999D01*
X131621172Y-86678999D01*
X131819827Y-86678999D01*
X131819828Y-86678999D01*
X132014668Y-86640244D01*
X132198203Y-86564221D01*
X132363381Y-86453853D01*
X132420216Y-86397017D01*
X132482524Y-86362995D01*
X132553340Y-86368059D01*
X132610176Y-86410605D01*
X132614067Y-86416105D01*
X132715147Y-86567381D01*
X132855619Y-86707853D01*
X133020796Y-86818221D01*
X133204332Y-86894244D01*
X133399171Y-86933000D01*
X133399172Y-86933000D01*
X133597828Y-86933000D01*
X133597829Y-86933000D01*
X133792668Y-86894244D01*
X133976204Y-86818221D01*
X134141381Y-86707853D01*
X134753331Y-86095904D01*
X134815643Y-86061879D01*
X134842426Y-86059000D01*
X134848013Y-86059000D01*
X134887645Y-86065395D01*
X134905110Y-86071182D01*
X134978504Y-86095502D01*
X135081261Y-86106000D01*
X135458575Y-86105999D01*
X135526695Y-86126001D01*
X135547670Y-86142904D01*
X135755095Y-86350329D01*
X135789121Y-86412641D01*
X135792000Y-86439424D01*
X135792000Y-92176000D01*
X135771998Y-92244121D01*
X135718342Y-92290614D01*
X135666000Y-92302000D01*
X134436490Y-92302000D01*
X134333702Y-92312500D01*
X134167165Y-92367685D01*
X134017843Y-92459788D01*
X134017837Y-92459793D01*
X133893793Y-92583837D01*
X133893788Y-92583843D01*
X133801685Y-92733165D01*
X133746502Y-92899696D01*
X133746500Y-92899708D01*
X133736000Y-93002482D01*
X133736000Y-95102509D01*
X133746500Y-95205297D01*
X133801685Y-95371834D01*
X133893788Y-95521156D01*
X133893793Y-95521162D01*
X134017837Y-95645206D01*
X134017843Y-95645211D01*
X134017844Y-95645212D01*
X134075063Y-95680504D01*
X134167165Y-95737314D01*
X134333696Y-95792497D01*
X134333697Y-95792497D01*
X134333703Y-95792499D01*
X134436491Y-95803000D01*
X137536508Y-95802999D01*
X137536509Y-95802999D01*
X137639297Y-95792499D01*
X137805834Y-95737314D01*
X137955156Y-95645212D01*
X138079212Y-95521156D01*
X138171314Y-95371834D01*
X138226499Y-95205297D01*
X138237000Y-95102509D01*
X138236999Y-93002492D01*
X138226499Y-92899703D01*
X138222881Y-92888783D01*
X138171314Y-92733165D01*
X138103304Y-92622903D01*
X138079212Y-92583844D01*
X138079211Y-92583843D01*
X138079206Y-92583837D01*
X137955162Y-92459793D01*
X137955153Y-92459786D01*
X137868852Y-92406554D01*
X137821374Y-92353768D01*
X137809000Y-92299314D01*
X137809000Y-85870172D01*
X137808999Y-85870168D01*
X137770244Y-85675331D01*
X137694221Y-85491796D01*
X137583853Y-85326619D01*
X137443381Y-85186147D01*
X137418903Y-85161669D01*
X137384878Y-85099358D01*
X137381999Y-85072575D01*
X137381999Y-84695261D01*
X137371502Y-84592507D01*
X137371502Y-84592504D01*
X137316336Y-84426022D01*
X137224264Y-84276751D01*
X137224263Y-84276750D01*
X137224258Y-84276744D01*
X137100255Y-84152741D01*
X137100249Y-84152736D01*
X136950978Y-84060664D01*
X136784496Y-84005498D01*
X136784492Y-84005497D01*
X136784490Y-84005497D01*
X136681747Y-83995000D01*
X135081261Y-83995000D01*
X134978507Y-84005497D01*
X134887646Y-84035605D01*
X134848014Y-84042000D01*
X134273168Y-84042000D01*
X134078330Y-84080756D01*
X134078325Y-84080758D01*
X134018594Y-84105500D01*
X133926201Y-84143770D01*
X133855611Y-84151359D01*
X133792124Y-84119579D01*
X133788888Y-84116456D01*
X132789405Y-83116973D01*
X132789403Y-83116971D01*
X132634625Y-83013552D01*
X132525850Y-82968496D01*
X132462651Y-82942318D01*
X132462650Y-82942317D01*
X132462646Y-82942316D01*
X132444683Y-82938743D01*
X132444679Y-82938742D01*
X132280076Y-82906000D01*
X132280074Y-82906000D01*
X131218000Y-82906000D01*
X131149879Y-82885998D01*
X131103386Y-82832342D01*
X131092000Y-82780000D01*
X131091999Y-82398623D01*
X131112001Y-82330503D01*
X131128904Y-82309527D01*
X131264028Y-82174404D01*
X131326340Y-82140379D01*
X131353123Y-82137500D01*
X134255000Y-82137500D01*
X134323121Y-82157502D01*
X134369614Y-82211158D01*
X134381000Y-82263500D01*
X134381000Y-82865738D01*
X134391497Y-82968492D01*
X134391497Y-82968494D01*
X134391498Y-82968496D01*
X134446664Y-83134978D01*
X134492764Y-83209717D01*
X134538736Y-83284249D01*
X134538741Y-83284255D01*
X134662744Y-83408258D01*
X134662750Y-83408263D01*
X134662751Y-83408264D01*
X134812022Y-83500336D01*
X134978504Y-83555502D01*
X135081261Y-83566000D01*
X136681738Y-83565999D01*
X136681739Y-83565999D01*
X136707427Y-83563374D01*
X136784496Y-83555502D01*
X136801287Y-83549937D01*
X136872241Y-83547497D01*
X136930015Y-83580447D01*
X140644595Y-87295027D01*
X140678621Y-87357339D01*
X140681500Y-87384122D01*
X140681500Y-95415577D01*
X140693610Y-95476454D01*
X140702502Y-95521156D01*
X140717816Y-95598146D01*
X140789052Y-95770125D01*
X140892471Y-95924903D01*
X143940471Y-98972903D01*
X144072097Y-99104529D01*
X144226875Y-99207948D01*
X144398854Y-99279184D01*
X144556055Y-99310452D01*
X144581420Y-99315498D01*
X144581423Y-99315498D01*
X144581426Y-99315499D01*
X144581427Y-99315499D01*
X144767573Y-99315499D01*
X144767574Y-99315499D01*
X144832916Y-99302502D01*
X144921305Y-99284921D01*
X144945886Y-99282500D01*
X149851311Y-99282500D01*
X149919432Y-99302502D01*
X149960429Y-99345499D01*
X149965685Y-99354602D01*
X150133939Y-99565585D01*
X150331759Y-99749135D01*
X150331765Y-99749139D01*
X150554716Y-99901145D01*
X150554723Y-99901149D01*
X150554726Y-99901151D01*
X150797859Y-100018238D01*
X150797862Y-100018238D01*
X150797867Y-100018241D01*
X151055717Y-100097777D01*
X151055719Y-100097777D01*
X151055728Y-100097780D01*
X151322571Y-100138000D01*
X151322575Y-100138000D01*
X151592425Y-100138000D01*
X151592429Y-100138000D01*
X151859272Y-100097780D01*
X151859282Y-100097777D01*
X152117132Y-100018241D01*
X152117134Y-100018239D01*
X152117141Y-100018238D01*
X152117146Y-100018235D01*
X152117150Y-100018234D01*
X152360269Y-99901154D01*
X152360269Y-99901153D01*
X152360275Y-99901151D01*
X152583241Y-99749135D01*
X152781061Y-99565585D01*
X152949315Y-99354602D01*
X153056474Y-99168996D01*
X153084241Y-99120902D01*
X153084243Y-99120898D01*
X153182834Y-98869695D01*
X153242883Y-98606603D01*
X153263049Y-98337500D01*
X153242883Y-98068397D01*
X153182834Y-97805305D01*
X153084243Y-97554102D01*
X153084242Y-97554101D01*
X153084241Y-97554097D01*
X152949317Y-97320401D01*
X152781060Y-97109414D01*
X152765680Y-97095144D01*
X152583241Y-96925865D01*
X152583234Y-96925860D01*
X152360277Y-96773850D01*
X152360269Y-96773845D01*
X152117150Y-96656765D01*
X152117132Y-96656758D01*
X151859282Y-96577222D01*
X151859274Y-96577220D01*
X151859272Y-96577220D01*
X151592429Y-96537000D01*
X151322571Y-96537000D01*
X151055728Y-96577220D01*
X151055726Y-96577220D01*
X151055717Y-96577222D01*
X150797867Y-96656758D01*
X150797855Y-96656763D01*
X150554723Y-96773850D01*
X150554716Y-96773854D01*
X150331765Y-96925860D01*
X150331760Y-96925864D01*
X150133939Y-97109414D01*
X149965685Y-97320397D01*
X149965683Y-97320401D01*
X149960430Y-97329499D01*
X149909050Y-97378492D01*
X149851311Y-97392500D01*
X145085122Y-97392500D01*
X145017001Y-97372498D01*
X144996027Y-97355595D01*
X142608405Y-94967973D01*
X142574379Y-94905661D01*
X142571500Y-94878878D01*
X142571500Y-86847427D01*
X142571499Y-86847423D01*
X142565690Y-86818221D01*
X142541209Y-86695143D01*
X142535184Y-86664853D01*
X142463948Y-86492874D01*
X142360529Y-86338097D01*
X142360524Y-86338091D01*
X138375027Y-82352595D01*
X138341001Y-82290283D01*
X138346066Y-82219468D01*
X138388613Y-82162632D01*
X138455133Y-82137821D01*
X138464122Y-82137500D01*
X149926311Y-82137500D01*
X149994432Y-82157502D01*
X150035429Y-82200499D01*
X150040685Y-82209602D01*
X150208939Y-82420585D01*
X150406759Y-82604135D01*
X150406765Y-82604139D01*
X150629716Y-82756145D01*
X150629723Y-82756149D01*
X150629726Y-82756151D01*
X150872859Y-82873238D01*
X150872862Y-82873238D01*
X150872867Y-82873241D01*
X151130717Y-82952777D01*
X151130719Y-82952777D01*
X151130728Y-82952780D01*
X151397571Y-82993000D01*
X151397575Y-82993000D01*
X151667425Y-82993000D01*
X151667429Y-82993000D01*
X151934272Y-82952780D01*
X151934282Y-82952777D01*
X152192132Y-82873241D01*
X152192134Y-82873239D01*
X152192141Y-82873238D01*
X152192146Y-82873235D01*
X152192150Y-82873234D01*
X152435269Y-82756154D01*
X152435269Y-82756153D01*
X152435275Y-82756151D01*
X152658241Y-82604135D01*
X152856061Y-82420585D01*
X153024315Y-82209602D01*
X153159243Y-81975898D01*
X153257834Y-81724695D01*
X153317883Y-81461603D01*
X153338049Y-81192500D01*
X153317883Y-80923397D01*
X153263462Y-80684962D01*
X153267804Y-80614099D01*
X153309769Y-80556832D01*
X153376033Y-80531344D01*
X153445557Y-80545727D01*
X153475398Y-80567830D01*
X153598595Y-80691027D01*
X153632621Y-80753339D01*
X153635500Y-80780122D01*
X153635500Y-82432878D01*
X153615498Y-82500999D01*
X153598595Y-82521973D01*
X151939973Y-84180595D01*
X151877661Y-84214621D01*
X151850878Y-84217500D01*
X149915423Y-84217500D01*
X149732853Y-84253816D01*
X149732850Y-84253817D01*
X149560875Y-84325052D01*
X149406102Y-84428468D01*
X149406095Y-84428473D01*
X147496475Y-86338092D01*
X147496470Y-86338098D01*
X147395523Y-86489177D01*
X147395520Y-86489182D01*
X147393052Y-86492874D01*
X147321817Y-86664850D01*
X147321816Y-86664853D01*
X147285500Y-86847423D01*
X147285500Y-92113579D01*
X147297917Y-92176000D01*
X147315439Y-92264088D01*
X147321816Y-92296146D01*
X147321817Y-92296148D01*
X147321818Y-92296152D01*
X147345684Y-92353768D01*
X147393052Y-92468125D01*
X147496471Y-92622903D01*
X147496473Y-92622905D01*
X148945091Y-94071524D01*
X148945097Y-94071529D01*
X149099874Y-94174948D01*
X149271853Y-94246184D01*
X149308165Y-94253406D01*
X149308167Y-94253407D01*
X149308168Y-94253407D01*
X149337261Y-94259193D01*
X149454426Y-94282500D01*
X149851311Y-94282500D01*
X149919432Y-94302502D01*
X149960429Y-94345499D01*
X149965685Y-94354602D01*
X150133939Y-94565585D01*
X150331759Y-94749135D01*
X150331765Y-94749139D01*
X150554716Y-94901145D01*
X150554723Y-94901149D01*
X150554726Y-94901151D01*
X150797859Y-95018238D01*
X150797862Y-95018238D01*
X150797867Y-95018241D01*
X151055717Y-95097777D01*
X151055719Y-95097777D01*
X151055728Y-95097780D01*
X151322571Y-95138000D01*
X151322575Y-95138000D01*
X151592425Y-95138000D01*
X151592429Y-95138000D01*
X151859272Y-95097780D01*
X151960738Y-95066482D01*
X152117132Y-95018241D01*
X152117134Y-95018239D01*
X152117141Y-95018238D01*
X152117146Y-95018235D01*
X152117150Y-95018234D01*
X152360269Y-94901154D01*
X152360269Y-94901153D01*
X152360275Y-94901151D01*
X152583241Y-94749135D01*
X152781061Y-94565585D01*
X152949315Y-94354602D01*
X153032585Y-94210373D01*
X153084241Y-94120902D01*
X153084243Y-94120898D01*
X153182834Y-93869695D01*
X153242883Y-93606603D01*
X153263049Y-93337500D01*
X153242883Y-93068397D01*
X153182834Y-92805305D01*
X153084243Y-92554102D01*
X153084242Y-92554101D01*
X153084241Y-92554097D01*
X152949317Y-92320401D01*
X152943016Y-92312500D01*
X152781061Y-92109415D01*
X152583241Y-91925865D01*
X152549272Y-91902705D01*
X152360277Y-91773850D01*
X152360269Y-91773845D01*
X152117150Y-91656765D01*
X152117132Y-91656758D01*
X151859282Y-91577222D01*
X151859274Y-91577220D01*
X151859272Y-91577220D01*
X151592429Y-91537000D01*
X151322571Y-91537000D01*
X151055728Y-91577220D01*
X151055726Y-91577220D01*
X151055717Y-91577222D01*
X150797867Y-91656758D01*
X150797855Y-91656763D01*
X150554723Y-91773850D01*
X150554716Y-91773854D01*
X150331765Y-91925860D01*
X150331760Y-91925864D01*
X150133939Y-92109415D01*
X150009733Y-92265162D01*
X149951622Y-92305949D01*
X149880684Y-92308844D01*
X149822128Y-92275696D01*
X149212405Y-91665973D01*
X149178379Y-91603661D01*
X149175500Y-91576878D01*
X149175500Y-87384121D01*
X149195502Y-87316000D01*
X149212399Y-87295031D01*
X149441908Y-87065522D01*
X149504217Y-87031500D01*
X149575032Y-87036564D01*
X149631868Y-87079111D01*
X149656679Y-87145631D01*
X149657000Y-87154620D01*
X149657000Y-89685364D01*
X149657002Y-89685385D01*
X149663408Y-89744980D01*
X149663408Y-89744981D01*
X149713701Y-89879826D01*
X149713703Y-89879829D01*
X149799953Y-89995046D01*
X149857561Y-90038171D01*
X149915169Y-90081296D01*
X149915171Y-90081296D01*
X149915173Y-90081298D01*
X149975530Y-90103809D01*
X150050014Y-90131590D01*
X150050017Y-90131591D01*
X150109627Y-90138000D01*
X152805372Y-90137999D01*
X152864983Y-90131591D01*
X152999831Y-90081296D01*
X153115046Y-89995046D01*
X153201296Y-89879831D01*
X153251591Y-89744983D01*
X153258000Y-89685373D01*
X153258000Y-89408500D01*
X153278002Y-89340379D01*
X153331658Y-89293886D01*
X153384000Y-89282500D01*
X154038573Y-89282500D01*
X154038574Y-89282500D01*
X154221146Y-89246184D01*
X154393125Y-89174948D01*
X154547903Y-89071529D01*
X156584529Y-87034903D01*
X156687948Y-86880125D01*
X156759184Y-86708146D01*
X156795500Y-86525574D01*
X156795500Y-86339426D01*
X156795500Y-76433426D01*
X156759184Y-76250854D01*
X156687948Y-76078875D01*
X156680460Y-76067668D01*
X156648960Y-76020524D01*
X156648960Y-76020525D01*
X156584529Y-75924097D01*
X153912903Y-73252471D01*
X153758125Y-73149052D01*
X153708206Y-73128375D01*
X153586151Y-73077818D01*
X153586149Y-73077817D01*
X153586147Y-73077816D01*
X153586146Y-73077816D01*
X153571265Y-73074856D01*
X153571260Y-73074855D01*
X153403576Y-73041500D01*
X153403574Y-73041500D01*
X153298441Y-73041500D01*
X153230320Y-73021498D01*
X153183827Y-72967842D01*
X153173723Y-72897568D01*
X153197573Y-72839991D01*
X153198473Y-72838789D01*
X153276296Y-72734831D01*
X153326591Y-72599983D01*
X153333000Y-72540373D01*
X153332999Y-69844628D01*
X153328252Y-69800467D01*
X153340858Y-69730599D01*
X153389237Y-69678638D01*
X153453530Y-69661000D01*
X159586188Y-69661000D01*
X160311785Y-69661000D01*
X160379906Y-69681002D01*
X160400880Y-69697905D01*
X160851265Y-70148290D01*
X160882003Y-70198448D01*
X160904278Y-70267004D01*
X160906105Y-70272625D01*
X160914398Y-70286989D01*
X160996083Y-70428472D01*
X160996090Y-70428482D01*
X161116499Y-70562209D01*
X161116502Y-70562211D01*
X161262092Y-70667989D01*
X161426493Y-70741185D01*
X161602519Y-70778600D01*
X161602520Y-70778600D01*
X161782481Y-70778600D01*
X161884412Y-70756934D01*
X161958507Y-70741185D01*
X162122908Y-70667989D01*
X162268498Y-70562211D01*
X162293131Y-70534854D01*
X162361218Y-70459235D01*
X162388915Y-70428475D01*
X162400480Y-70408442D01*
X162451860Y-70359451D01*
X162521573Y-70346013D01*
X162560847Y-70356336D01*
X162567827Y-70359443D01*
X162569493Y-70360185D01*
X162698004Y-70387500D01*
X162745519Y-70397600D01*
X162745520Y-70397600D01*
X162925481Y-70397600D01*
X163013493Y-70378892D01*
X163101507Y-70360185D01*
X163265908Y-70286989D01*
X163411498Y-70181211D01*
X163421880Y-70169681D01*
X163531909Y-70047482D01*
X163531910Y-70047480D01*
X163531915Y-70047475D01*
X163547371Y-70020703D01*
X163598750Y-69971712D01*
X163668463Y-69958274D01*
X163734374Y-69984659D01*
X163745584Y-69994609D01*
X165674030Y-71923054D01*
X165674051Y-71923077D01*
X169029095Y-75278119D01*
X169063120Y-75340431D01*
X169066000Y-75367214D01*
X169066000Y-80913369D01*
X169049120Y-80976368D01*
X169034104Y-81002375D01*
X169034102Y-81002379D01*
X168978494Y-81173525D01*
X168959684Y-81352500D01*
X168978494Y-81531474D01*
X169034102Y-81702620D01*
X169034105Y-81702626D01*
X169124083Y-81858472D01*
X169124090Y-81858482D01*
X169244499Y-81992209D01*
X169244502Y-81992211D01*
X169390092Y-82097989D01*
X169535283Y-82162632D01*
X169554493Y-82171185D01*
X169730519Y-82208600D01*
X169730520Y-82208600D01*
X169910481Y-82208600D01*
X169998493Y-82189892D01*
X170086507Y-82171185D01*
X170250908Y-82097989D01*
X170396498Y-81992211D01*
X170411183Y-81975902D01*
X170516909Y-81858482D01*
X170516910Y-81858480D01*
X170516915Y-81858475D01*
X170606895Y-81702625D01*
X170662505Y-81531474D01*
X170681316Y-81352500D01*
X170662505Y-81173526D01*
X170661337Y-81169931D01*
X170606897Y-81002379D01*
X170606895Y-81002375D01*
X170591880Y-80976368D01*
X170575000Y-80913369D01*
X170575000Y-74928189D01*
X170574999Y-74928185D01*
X170568640Y-74896216D01*
X170546005Y-74782420D01*
X170489129Y-74645110D01*
X170406559Y-74521534D01*
X170406557Y-74521532D01*
X170406552Y-74521526D01*
X170297077Y-74412051D01*
X170297054Y-74412030D01*
X166741077Y-70856051D01*
X166741054Y-70856030D01*
X163157620Y-67272595D01*
X163123594Y-67210283D01*
X163128659Y-67139467D01*
X163171206Y-67082632D01*
X163237726Y-67057821D01*
X163246715Y-67057500D01*
X188938558Y-67057500D01*
X189072057Y-67030945D01*
X189197811Y-66978856D01*
X189242775Y-66948812D01*
X189310987Y-66903235D01*
X192119764Y-64094456D01*
X192182073Y-64060434D01*
X192252888Y-64065498D01*
X192260103Y-64068446D01*
X192314484Y-64092658D01*
X192414493Y-64137185D01*
X192590519Y-64174600D01*
X192590520Y-64174600D01*
X192770481Y-64174600D01*
X192880448Y-64151226D01*
X192946507Y-64137185D01*
X193110908Y-64063989D01*
X193256498Y-63958211D01*
X193286379Y-63925025D01*
X193376909Y-63824482D01*
X193376910Y-63824480D01*
X193376915Y-63824475D01*
X193466895Y-63668625D01*
X193473751Y-63647526D01*
X193522505Y-63497474D01*
X193524722Y-63476379D01*
X193541316Y-63318500D01*
X193522505Y-63139526D01*
X193519776Y-63131126D01*
X193466897Y-62968379D01*
X193466894Y-62968373D01*
X193376916Y-62812527D01*
X193376909Y-62812517D01*
X193256500Y-62678790D01*
X193110908Y-62573011D01*
X192946506Y-62499814D01*
X192770481Y-62462400D01*
X192770480Y-62462400D01*
X192590520Y-62462400D01*
X192590519Y-62462400D01*
X192414493Y-62499814D01*
X192250091Y-62573011D01*
X192208216Y-62603436D01*
X192141348Y-62627294D01*
X192134155Y-62627500D01*
X191850438Y-62627500D01*
X191716942Y-62654055D01*
X191716939Y-62654056D01*
X191591188Y-62706144D01*
X191478018Y-62781762D01*
X191478011Y-62781767D01*
X188621183Y-65638595D01*
X188558871Y-65672621D01*
X188532088Y-65675500D01*
X152738268Y-65675500D01*
X152670147Y-65655498D01*
X152623654Y-65601842D01*
X152612818Y-65537737D01*
X152617650Y-65486202D01*
X151779989Y-64648541D01*
X151840390Y-64623522D01*
X151946851Y-64552388D01*
X152037388Y-64461851D01*
X152108522Y-64355390D01*
X152133541Y-64294989D01*
X152970203Y-65131651D01*
X153023902Y-65064315D01*
X153158792Y-64830678D01*
X153158794Y-64830674D01*
X153257352Y-64579550D01*
X153257354Y-64579545D01*
X153317384Y-64316532D01*
X153337546Y-64047500D01*
X153317384Y-63778467D01*
X153257354Y-63515454D01*
X153257352Y-63515449D01*
X153158794Y-63264325D01*
X153158792Y-63264321D01*
X153023902Y-63030684D01*
X152970203Y-62963348D01*
X152970202Y-62963348D01*
X152133540Y-63800009D01*
X152108522Y-63739610D01*
X152037388Y-63633149D01*
X151946851Y-63542612D01*
X151840390Y-63471478D01*
X151779988Y-63446458D01*
X152617649Y-62608797D01*
X152617649Y-62608796D01*
X152435019Y-62484280D01*
X152435018Y-62484279D01*
X152191967Y-62367232D01*
X152191949Y-62367225D01*
X151934171Y-62287711D01*
X151934159Y-62287709D01*
X151667387Y-62247500D01*
X151397613Y-62247500D01*
X151130840Y-62287709D01*
X151130828Y-62287711D01*
X150873050Y-62367225D01*
X150873032Y-62367232D01*
X150629982Y-62484279D01*
X150629974Y-62484284D01*
X150447349Y-62608795D01*
X150447349Y-62608797D01*
X151285011Y-63446458D01*
X151224610Y-63471478D01*
X151118149Y-63542612D01*
X151027612Y-63633149D01*
X150956478Y-63739610D01*
X150931458Y-63800010D01*
X150094796Y-62963348D01*
X150094795Y-62963348D01*
X150041097Y-63030684D01*
X149906207Y-63264321D01*
X149906205Y-63264325D01*
X149807647Y-63515449D01*
X149807645Y-63515454D01*
X149747615Y-63778467D01*
X149727453Y-64047500D01*
X149747615Y-64316532D01*
X149807645Y-64579545D01*
X149807647Y-64579550D01*
X149906205Y-64830674D01*
X149906207Y-64830678D01*
X150041098Y-65064316D01*
X150094795Y-65131650D01*
X150094796Y-65131650D01*
X150931458Y-64294988D01*
X150956478Y-64355390D01*
X151027612Y-64461851D01*
X151118149Y-64552388D01*
X151224610Y-64623522D01*
X151285010Y-64648541D01*
X150447349Y-65486201D01*
X150452182Y-65537736D01*
X150438627Y-65607427D01*
X150389547Y-65658726D01*
X150326732Y-65675500D01*
X149584912Y-65675500D01*
X149516791Y-65655498D01*
X149495817Y-65638595D01*
X143874317Y-60017095D01*
X143840291Y-59954783D01*
X143845356Y-59883968D01*
X143887903Y-59827132D01*
X143954423Y-59802321D01*
X143963412Y-59802000D01*
X149816327Y-59802000D01*
X149884448Y-59822002D01*
X149925445Y-59864998D01*
X150040685Y-60064602D01*
X150208939Y-60275585D01*
X150406759Y-60459135D01*
X150406765Y-60459139D01*
X150629716Y-60611145D01*
X150629723Y-60611149D01*
X150629726Y-60611151D01*
X150872859Y-60728238D01*
X150872862Y-60728238D01*
X150872867Y-60728241D01*
X151130717Y-60807777D01*
X151130719Y-60807777D01*
X151130728Y-60807780D01*
X151397571Y-60848000D01*
X151397575Y-60848000D01*
X151667425Y-60848000D01*
X151667429Y-60848000D01*
X151934272Y-60807780D01*
X152004881Y-60786000D01*
X152192132Y-60728241D01*
X152192134Y-60728239D01*
X152192141Y-60728238D01*
X152192146Y-60728235D01*
X152192150Y-60728234D01*
X152435269Y-60611154D01*
X152435269Y-60611153D01*
X152435275Y-60611151D01*
X152658241Y-60459135D01*
X152856061Y-60275585D01*
X153024315Y-60064602D01*
X153116648Y-59904676D01*
X153159241Y-59830902D01*
X153159243Y-59830898D01*
X153257834Y-59579695D01*
X153317883Y-59316603D01*
X153338049Y-59047500D01*
X153317883Y-58778397D01*
X153257834Y-58515305D01*
X153159243Y-58264102D01*
X153159242Y-58264101D01*
X153159241Y-58264097D01*
X153024317Y-58030401D01*
X153024316Y-58030399D01*
X153024315Y-58030398D01*
X152856061Y-57819415D01*
X152658241Y-57635865D01*
X152657864Y-57635608D01*
X152657762Y-57635484D01*
X152654555Y-57632926D01*
X152655102Y-57632239D01*
X152612847Y-57580712D01*
X152604654Y-57510190D01*
X152635889Y-57446433D01*
X152696635Y-57409685D01*
X152728839Y-57405500D01*
X154644878Y-57405500D01*
X154712999Y-57425502D01*
X154733973Y-57442405D01*
X157144060Y-59852491D01*
X157144081Y-59852514D01*
X157534091Y-60242524D01*
X157534097Y-60242529D01*
X157688874Y-60345948D01*
X157860853Y-60417184D01*
X157897165Y-60424406D01*
X157897167Y-60424407D01*
X157897168Y-60424407D01*
X157917107Y-60428373D01*
X158043426Y-60453500D01*
X158043431Y-60453500D01*
X166103573Y-60453500D01*
X166103574Y-60453500D01*
X166286146Y-60417184D01*
X166458125Y-60345948D01*
X166612902Y-60242529D01*
X166744529Y-60110902D01*
X166847948Y-59956125D01*
X166919184Y-59784146D01*
X166955500Y-59601574D01*
X166955500Y-58474500D01*
X180389684Y-58474500D01*
X180408494Y-58653474D01*
X180464102Y-58824620D01*
X180464105Y-58824626D01*
X180554083Y-58980472D01*
X180554090Y-58980482D01*
X180674499Y-59114209D01*
X180674502Y-59114211D01*
X180820092Y-59219989D01*
X180984493Y-59293185D01*
X181160519Y-59330600D01*
X181160520Y-59330600D01*
X181340481Y-59330600D01*
X181449215Y-59307488D01*
X181516507Y-59293185D01*
X181680908Y-59219989D01*
X181722784Y-59189563D01*
X181789652Y-59165706D01*
X181796845Y-59165500D01*
X184638558Y-59165500D01*
X184772057Y-59138945D01*
X184897811Y-59086856D01*
X185010987Y-59011235D01*
X188103817Y-55918405D01*
X188166129Y-55884379D01*
X188192912Y-55881500D01*
X188578155Y-55881500D01*
X188646276Y-55901502D01*
X188652215Y-55905563D01*
X188694092Y-55935989D01*
X188798726Y-55982575D01*
X188858493Y-56009185D01*
X189034519Y-56046600D01*
X189034520Y-56046600D01*
X189214481Y-56046600D01*
X189302493Y-56027892D01*
X189390507Y-56009185D01*
X189554908Y-55935989D01*
X189700498Y-55830211D01*
X189734090Y-55792904D01*
X189820909Y-55696482D01*
X189820910Y-55696480D01*
X189820915Y-55696475D01*
X189910895Y-55540625D01*
X189933040Y-55472471D01*
X189966505Y-55369474D01*
X189970171Y-55334595D01*
X189985316Y-55190500D01*
X189966505Y-55011526D01*
X189951679Y-54965896D01*
X189910897Y-54840379D01*
X189910894Y-54840373D01*
X189820916Y-54684527D01*
X189820909Y-54684517D01*
X189700500Y-54550790D01*
X189554908Y-54445011D01*
X189390506Y-54371814D01*
X189300798Y-54352747D01*
X189238324Y-54319019D01*
X189204002Y-54256869D01*
X189208730Y-54186030D01*
X189251005Y-54128993D01*
X189317407Y-54103865D01*
X189326994Y-54103500D01*
X190864155Y-54103500D01*
X190932276Y-54123502D01*
X190938215Y-54127563D01*
X190980092Y-54157989D01*
X191144493Y-54231185D01*
X191320519Y-54268600D01*
X191320520Y-54268600D01*
X191500481Y-54268600D01*
X191609154Y-54245501D01*
X191676507Y-54231185D01*
X191840908Y-54157989D01*
X191986498Y-54052211D01*
X192103267Y-53922527D01*
X192106909Y-53918482D01*
X192106910Y-53918480D01*
X192106915Y-53918475D01*
X192196895Y-53762625D01*
X192252505Y-53591474D01*
X192271316Y-53412500D01*
X192252505Y-53233526D01*
X192228128Y-53158500D01*
X192196897Y-53062379D01*
X192196894Y-53062373D01*
X192131134Y-52948473D01*
X192106915Y-52906525D01*
X192106913Y-52906523D01*
X192106909Y-52906517D01*
X191986500Y-52772790D01*
X191840908Y-52667011D01*
X191676506Y-52593814D01*
X191500481Y-52556400D01*
X191500480Y-52556400D01*
X191320520Y-52556400D01*
X191320519Y-52556400D01*
X191144493Y-52593814D01*
X190980091Y-52667011D01*
X190938216Y-52697436D01*
X190871348Y-52721294D01*
X190864155Y-52721500D01*
X183837484Y-52721500D01*
X183769363Y-52701498D01*
X183728367Y-52658503D01*
X183724918Y-52652531D01*
X183724915Y-52652525D01*
X183724912Y-52652521D01*
X183724909Y-52652517D01*
X183604500Y-52518790D01*
X183458908Y-52413011D01*
X183294506Y-52339814D01*
X183118481Y-52302400D01*
X183118480Y-52302400D01*
X182938520Y-52302400D01*
X182938519Y-52302400D01*
X182762493Y-52339814D01*
X182598091Y-52413011D01*
X182452499Y-52518790D01*
X182332090Y-52652517D01*
X182332083Y-52652527D01*
X182242105Y-52808373D01*
X182242102Y-52808379D01*
X182186494Y-52979525D01*
X182167684Y-53158500D01*
X182186494Y-53337474D01*
X182242102Y-53508620D01*
X182242105Y-53508626D01*
X182332083Y-53664472D01*
X182332087Y-53664477D01*
X182372346Y-53709190D01*
X182403063Y-53773198D01*
X182394298Y-53843652D01*
X182372346Y-53877810D01*
X182332087Y-53922522D01*
X182332083Y-53922527D01*
X182242105Y-54078373D01*
X182242102Y-54078379D01*
X182186494Y-54249525D01*
X182167684Y-54428500D01*
X182186494Y-54607474D01*
X182242102Y-54778620D01*
X182242105Y-54778626D01*
X182332083Y-54934472D01*
X182332090Y-54934482D01*
X182452499Y-55068209D01*
X182452502Y-55068211D01*
X182598092Y-55173989D01*
X182762493Y-55247185D01*
X182938519Y-55284600D01*
X182938520Y-55284600D01*
X183118481Y-55284600D01*
X183233063Y-55260245D01*
X183294507Y-55247185D01*
X183458908Y-55173989D01*
X183500784Y-55143563D01*
X183567652Y-55119706D01*
X183574845Y-55119500D01*
X186644088Y-55119500D01*
X186712209Y-55139502D01*
X186758702Y-55193158D01*
X186768806Y-55263432D01*
X186739312Y-55328012D01*
X186733183Y-55334595D01*
X184321183Y-57746595D01*
X184258871Y-57780621D01*
X184232088Y-57783500D01*
X181796845Y-57783500D01*
X181728724Y-57763498D01*
X181722784Y-57759436D01*
X181680908Y-57729011D01*
X181516506Y-57655814D01*
X181340481Y-57618400D01*
X181340480Y-57618400D01*
X181160520Y-57618400D01*
X181160519Y-57618400D01*
X180984493Y-57655814D01*
X180820091Y-57729011D01*
X180674499Y-57834790D01*
X180554090Y-57968517D01*
X180554083Y-57968527D01*
X180464105Y-58124373D01*
X180464102Y-58124379D01*
X180408494Y-58295525D01*
X180389684Y-58474500D01*
X166955500Y-58474500D01*
X166955500Y-57158122D01*
X166975502Y-57090001D01*
X166992405Y-57069027D01*
X168268522Y-55792910D01*
X168268529Y-55792903D01*
X168371947Y-55638126D01*
X168407698Y-55551816D01*
X168443182Y-55466153D01*
X168443182Y-55466150D01*
X168443184Y-55466147D01*
X168479499Y-55283575D01*
X168479499Y-55097426D01*
X168443184Y-54914854D01*
X168443182Y-54914851D01*
X168443182Y-54914847D01*
X168371949Y-54742879D01*
X168371947Y-54742875D01*
X168332959Y-54684525D01*
X168268529Y-54588098D01*
X168268527Y-54588096D01*
X168268522Y-54588090D01*
X168136909Y-54456477D01*
X168136903Y-54456472D01*
X168119750Y-54445011D01*
X167982125Y-54353053D01*
X167982126Y-54353053D01*
X167982124Y-54353052D01*
X167982120Y-54353050D01*
X167810152Y-54281817D01*
X167627579Y-54245501D01*
X167627574Y-54245501D01*
X167441425Y-54245501D01*
X167441419Y-54245501D01*
X167258846Y-54281817D01*
X167086878Y-54353050D01*
X167086874Y-54353052D01*
X166932095Y-54456472D01*
X166932089Y-54456477D01*
X165276473Y-56112094D01*
X165276468Y-56112101D01*
X165173052Y-56266874D01*
X165101817Y-56438850D01*
X165101816Y-56438853D01*
X165065500Y-56621423D01*
X165065500Y-58437500D01*
X165045498Y-58505621D01*
X164991842Y-58552114D01*
X164939500Y-58563500D01*
X160620997Y-58563500D01*
X160552876Y-58543498D01*
X160506383Y-58489842D01*
X160496279Y-58419568D01*
X160525773Y-58354988D01*
X160585499Y-58316604D01*
X160594801Y-58314253D01*
X160626655Y-58307482D01*
X160684510Y-58295185D01*
X160848911Y-58221989D01*
X160994501Y-58116211D01*
X160994503Y-58116209D01*
X161114912Y-57982482D01*
X161114913Y-57982480D01*
X161114918Y-57982475D01*
X161204898Y-57826625D01*
X161209447Y-57812627D01*
X161260508Y-57655474D01*
X161262640Y-57635193D01*
X161279319Y-57476500D01*
X161260508Y-57297526D01*
X161260508Y-57297525D01*
X161204900Y-57126379D01*
X161204897Y-57126373D01*
X161114919Y-56970527D01*
X161114912Y-56970517D01*
X160994503Y-56836790D01*
X160848911Y-56731011D01*
X160684509Y-56657814D01*
X160508484Y-56620400D01*
X160508483Y-56620400D01*
X160328523Y-56620400D01*
X160328522Y-56620400D01*
X160190874Y-56649657D01*
X160120083Y-56644254D01*
X160113844Y-56641421D01*
X159936147Y-56567816D01*
X159932925Y-56566839D01*
X159931443Y-56565867D01*
X159930427Y-56565447D01*
X159930506Y-56565254D01*
X159873544Y-56527924D01*
X159844628Y-56463083D01*
X159843500Y-56446264D01*
X159843500Y-49001427D01*
X159843499Y-49001423D01*
X159832836Y-48947816D01*
X159807184Y-48818854D01*
X159735948Y-48646875D01*
X159673375Y-48553228D01*
X159632529Y-48492097D01*
X158992903Y-47852471D01*
X158838125Y-47749052D01*
X158666151Y-47677818D01*
X158666149Y-47677817D01*
X158666146Y-47677816D01*
X158483576Y-47641500D01*
X158483574Y-47641500D01*
X157535426Y-47641500D01*
X157535423Y-47641500D01*
X157352853Y-47677816D01*
X157352850Y-47677817D01*
X157180875Y-47749052D01*
X157026098Y-47852470D01*
X157026092Y-47852475D01*
X156894475Y-47984092D01*
X156894470Y-47984098D01*
X156791052Y-48138875D01*
X156719817Y-48310850D01*
X156719816Y-48310853D01*
X156683500Y-48493423D01*
X156683500Y-48679576D01*
X156711204Y-48818850D01*
X156719816Y-48862146D01*
X156791052Y-49034125D01*
X156850086Y-49122475D01*
X156894470Y-49188901D01*
X156894475Y-49188907D01*
X157026092Y-49320524D01*
X157026098Y-49320529D01*
X157180875Y-49423948D01*
X157352854Y-49495184D01*
X157535426Y-49531500D01*
X157827500Y-49531500D01*
X157895621Y-49551502D01*
X157942114Y-49605158D01*
X157953500Y-49657500D01*
X157953500Y-57569576D01*
X157966390Y-57634375D01*
X157971387Y-57659500D01*
X157976628Y-57685845D01*
X157970300Y-57756559D01*
X157926746Y-57812627D01*
X157859794Y-57836246D01*
X157790700Y-57819919D01*
X157763954Y-57799522D01*
X155690905Y-55726473D01*
X155690904Y-55726472D01*
X155690903Y-55726471D01*
X155536125Y-55623052D01*
X155364149Y-55551817D01*
X155364146Y-55551816D01*
X155181576Y-55515500D01*
X155181574Y-55515500D01*
X153459000Y-55515500D01*
X153390879Y-55495498D01*
X153344386Y-55441842D01*
X153333000Y-55389500D01*
X153332999Y-52699635D01*
X153332999Y-52699631D01*
X153332999Y-52699628D01*
X153326591Y-52640017D01*
X153290475Y-52543184D01*
X153276298Y-52505173D01*
X153276296Y-52505170D01*
X153276296Y-52505169D01*
X153233171Y-52447561D01*
X153190046Y-52389953D01*
X153113091Y-52332345D01*
X153074831Y-52303704D01*
X153074829Y-52303703D01*
X153074826Y-52303701D01*
X152939983Y-52253409D01*
X152939986Y-52253409D01*
X152880373Y-52247000D01*
X150184635Y-52247000D01*
X150184614Y-52247002D01*
X150125019Y-52253408D01*
X150125018Y-52253408D01*
X149990173Y-52303701D01*
X149990170Y-52303703D01*
X149874953Y-52389953D01*
X149788703Y-52505170D01*
X149788701Y-52505173D01*
X149738409Y-52640015D01*
X149732000Y-52699621D01*
X149732000Y-52699631D01*
X149732001Y-55389500D01*
X149711999Y-55457621D01*
X149658343Y-55504114D01*
X149606001Y-55515500D01*
X147658122Y-55515500D01*
X147590001Y-55495498D01*
X147569027Y-55478595D01*
X145038905Y-52948473D01*
X145038903Y-52948471D01*
X144884125Y-52845052D01*
X144795574Y-52808373D01*
X144712149Y-52773817D01*
X144712147Y-52773816D01*
X144712146Y-52773816D01*
X144712144Y-52773815D01*
X144712142Y-52773815D01*
X144706983Y-52772788D01*
X144706983Y-52772789D01*
X144529576Y-52737500D01*
X144529574Y-52737500D01*
X136910180Y-52737500D01*
X136844034Y-52718741D01*
X136728835Y-52647686D01*
X136728832Y-52647685D01*
X136562303Y-52592502D01*
X136562291Y-52592500D01*
X136459517Y-52582000D01*
X135109490Y-52582000D01*
X135006702Y-52592500D01*
X134840167Y-52647685D01*
X134840164Y-52647686D01*
X134724966Y-52718741D01*
X134658820Y-52737500D01*
X118210122Y-52737500D01*
X118142001Y-52717498D01*
X118121027Y-52700595D01*
X118115271Y-52694839D01*
X118081245Y-52632527D01*
X118086310Y-52561712D01*
X118128857Y-52504876D01*
X118156149Y-52489335D01*
X118198125Y-52471948D01*
X118352902Y-52368529D01*
X118484529Y-52236902D01*
X118587948Y-52082125D01*
X118659184Y-51910146D01*
X118695500Y-51727574D01*
X118695500Y-49284122D01*
X118715502Y-49216001D01*
X118732404Y-49195027D01*
X118738529Y-49188903D01*
X118841948Y-49034126D01*
X118913184Y-48862147D01*
X118949499Y-48679575D01*
X118949499Y-48493426D01*
X118949234Y-48492096D01*
X118944452Y-48468055D01*
X118913184Y-48310854D01*
X118841948Y-48138875D01*
X118738529Y-47984098D01*
X118738524Y-47984092D01*
X118606907Y-47852475D01*
X118606901Y-47852470D01*
X118518026Y-47793086D01*
X118452125Y-47749052D01*
X118280146Y-47677816D01*
X118227982Y-47667440D01*
X118097579Y-47641501D01*
X118097574Y-47641501D01*
X117911425Y-47641501D01*
X117911419Y-47641501D01*
X117754934Y-47672628D01*
X117728853Y-47677816D01*
X117728850Y-47677816D01*
X117728847Y-47677818D01*
X117556874Y-47749052D01*
X117402097Y-47852470D01*
X117016471Y-48238097D01*
X117016470Y-48238098D01*
X116942361Y-48349011D01*
X116913052Y-48392874D01*
X116841817Y-48564850D01*
X116841816Y-48564853D01*
X116805500Y-48747423D01*
X116805500Y-51080878D01*
X116785498Y-51148999D01*
X116731842Y-51195492D01*
X116661568Y-51205596D01*
X116596988Y-51176102D01*
X116590405Y-51169973D01*
X114542905Y-49122473D01*
X114542903Y-49122471D01*
X114388125Y-49019052D01*
X114216149Y-48947817D01*
X114216146Y-48947816D01*
X114033576Y-48911500D01*
X114033574Y-48911500D01*
X113085426Y-48911500D01*
X113085423Y-48911500D01*
X112902853Y-48947816D01*
X112902850Y-48947817D01*
X112730875Y-49019052D01*
X112576098Y-49122470D01*
X112576092Y-49122475D01*
X112444475Y-49254092D01*
X112444470Y-49254098D01*
X112341052Y-49408875D01*
X112269817Y-49580850D01*
X112269816Y-49580853D01*
X112233500Y-49763423D01*
X112233500Y-49763426D01*
X112233500Y-49949574D01*
X112269816Y-50132146D01*
X112341052Y-50304125D01*
X112410153Y-50407543D01*
X112444470Y-50458901D01*
X112444475Y-50458907D01*
X112576092Y-50590524D01*
X112576098Y-50590529D01*
X112730875Y-50693948D01*
X112902854Y-50765184D01*
X113085426Y-50801500D01*
X113496878Y-50801500D01*
X113564999Y-50821502D01*
X113585973Y-50838405D01*
X115238471Y-52490903D01*
X117164091Y-54416524D01*
X117164097Y-54416529D01*
X117323045Y-54522735D01*
X117368573Y-54577212D01*
X117377421Y-54647655D01*
X117346779Y-54711699D01*
X117286378Y-54749010D01*
X117253043Y-54753500D01*
X112602438Y-54753500D01*
X112506929Y-54772498D01*
X112506929Y-54772499D01*
X112497432Y-54774388D01*
X112468940Y-54780055D01*
X112468939Y-54780056D01*
X112343188Y-54832144D01*
X112230011Y-54907766D01*
X112230005Y-54907771D01*
X104185363Y-62952413D01*
X104123051Y-62986439D01*
X104122465Y-62986565D01*
X104022493Y-63007815D01*
X103858091Y-63081011D01*
X103712499Y-63186790D01*
X103592090Y-63320517D01*
X103592083Y-63320527D01*
X103502105Y-63476373D01*
X103502102Y-63476379D01*
X103446494Y-63647525D01*
X103427684Y-63826500D01*
X103447185Y-64012042D01*
X103444202Y-64012355D01*
X103439749Y-64070179D01*
X103396891Y-64126780D01*
X103330236Y-64151226D01*
X103321936Y-64151500D01*
X89393968Y-64151500D01*
X89325847Y-64131498D01*
X89292034Y-64099563D01*
X89192604Y-63962708D01*
X89192601Y-63962705D01*
X89192599Y-63962702D01*
X89042297Y-63812400D01*
X89042294Y-63812398D01*
X89042292Y-63812396D01*
X88870316Y-63687449D01*
X88864499Y-63684485D01*
X88812885Y-63635737D01*
X88795819Y-63566822D01*
X88818720Y-63499621D01*
X88864504Y-63459950D01*
X88870057Y-63457120D01*
X89041968Y-63332219D01*
X89041971Y-63332217D01*
X89192217Y-63181971D01*
X89192219Y-63181968D01*
X89317120Y-63010057D01*
X89413592Y-62820721D01*
X89413595Y-62820715D01*
X89479256Y-62618630D01*
X89489731Y-62552500D01*
X88195512Y-62552500D01*
X88228425Y-62495493D01*
X88262500Y-62368326D01*
X88262500Y-62236674D01*
X88228425Y-62109507D01*
X88195512Y-62052500D01*
X89489730Y-62052500D01*
X89479256Y-61986369D01*
X89413595Y-61784284D01*
X89413592Y-61784278D01*
X89317120Y-61594942D01*
X89192219Y-61423031D01*
X89192217Y-61423028D01*
X89041968Y-61272779D01*
X89039963Y-61271323D01*
X89039385Y-61270573D01*
X89038204Y-61269565D01*
X89038415Y-61269316D01*
X88996607Y-61215102D01*
X88990530Y-61144366D01*
X89023660Y-61081573D01*
X89074390Y-61049780D01*
X89081834Y-61047314D01*
X89231156Y-60955212D01*
X89355212Y-60831156D01*
X89447314Y-60681834D01*
X89502499Y-60515297D01*
X89513000Y-60412509D01*
X89512999Y-59112492D01*
X89502655Y-59011235D01*
X89502499Y-59009702D01*
X89447314Y-58843165D01*
X89355211Y-58693843D01*
X89355206Y-58693837D01*
X89231162Y-58569793D01*
X89231156Y-58569788D01*
X89081834Y-58477685D01*
X88915303Y-58422502D01*
X88915291Y-58422500D01*
X88812517Y-58412000D01*
X86712490Y-58412000D01*
X86609702Y-58422500D01*
X86443165Y-58477685D01*
X86293843Y-58569788D01*
X86293837Y-58569793D01*
X86169793Y-58693837D01*
X86169788Y-58693843D01*
X86077685Y-58843165D01*
X86022502Y-59009696D01*
X86022500Y-59009708D01*
X86012000Y-59112482D01*
X85746500Y-59112482D01*
X85746500Y-50586778D01*
X85766502Y-50518657D01*
X85820158Y-50472164D01*
X85890432Y-50462060D01*
X85955012Y-50491554D01*
X85976786Y-50516066D01*
X86170998Y-50802506D01*
X86170997Y-50802506D01*
X86399185Y-51071150D01*
X86655065Y-51313533D01*
X86655080Y-51313546D01*
X86935682Y-51526854D01*
X87237702Y-51708574D01*
X87394041Y-51780904D01*
X87557581Y-51856566D01*
X87557588Y-51856569D01*
X87557599Y-51856574D01*
X87891622Y-51969119D01*
X88235855Y-52044891D01*
X88586263Y-52083000D01*
X88586271Y-52083000D01*
X88938729Y-52083000D01*
X88938737Y-52083000D01*
X89289145Y-52044891D01*
X89633378Y-51969119D01*
X89967401Y-51856574D01*
X90287298Y-51708574D01*
X90589318Y-51526854D01*
X90869920Y-51313546D01*
X91125814Y-51071150D01*
X91354001Y-50802508D01*
X91551805Y-50510769D01*
X91716907Y-50199354D01*
X91847371Y-49871914D01*
X91941668Y-49532288D01*
X91941798Y-49531499D01*
X91961900Y-49408875D01*
X91998691Y-49184457D01*
X92017774Y-48832500D01*
X91998691Y-48480543D01*
X91958299Y-48234161D01*
X91941669Y-48132716D01*
X91900405Y-47984098D01*
X91847371Y-47793086D01*
X91716907Y-47465646D01*
X91551805Y-47154231D01*
X91354001Y-46862492D01*
X91125814Y-46593849D01*
X90869934Y-46351466D01*
X90869919Y-46351453D01*
X90589315Y-46138144D01*
X90403702Y-46026464D01*
X90355644Y-45974205D01*
X90343469Y-45904260D01*
X90371042Y-45838836D01*
X90429608Y-45798705D01*
X90468662Y-45792500D01*
X189056338Y-45792500D01*
X189124459Y-45812502D01*
G37*
%TD.AperFunction*%
%TD*%
M02*
