%TF.GenerationSoftware,KiCad,Pcbnew,8.0.7*%
%TF.CreationDate,2025-02-02T13:09:14-08:00*%
%TF.ProjectId,hstat,68737461-742e-46b6-9963-61645f706362,rev?*%
%TF.SameCoordinates,Original*%
%TF.FileFunction,Soldermask,Top*%
%TF.FilePolarity,Negative*%
%FSLAX46Y46*%
G04 Gerber Fmt 4.6, Leading zero omitted, Abs format (unit mm)*
G04 Created by KiCad (PCBNEW 8.0.7) date 2025-02-02 13:09:14*
%MOMM*%
%LPD*%
G01*
G04 APERTURE LIST*
G04 Aperture macros list*
%AMRoundRect*
0 Rectangle with rounded corners*
0 $1 Rounding radius*
0 $2 $3 $4 $5 $6 $7 $8 $9 X,Y pos of 4 corners*
0 Add a 4 corners polygon primitive as box body*
4,1,4,$2,$3,$4,$5,$6,$7,$8,$9,$2,$3,0*
0 Add four circle primitives for the rounded corners*
1,1,$1+$1,$2,$3*
1,1,$1+$1,$4,$5*
1,1,$1+$1,$6,$7*
1,1,$1+$1,$8,$9*
0 Add four rect primitives between the rounded corners*
20,1,$1+$1,$2,$3,$4,$5,0*
20,1,$1+$1,$4,$5,$6,$7,0*
20,1,$1+$1,$6,$7,$8,$9,0*
20,1,$1+$1,$8,$9,$2,$3,0*%
%AMFreePoly0*
4,1,19,0.550000,-0.750000,0.000000,-0.750000,0.000000,-0.744911,-0.071157,-0.744911,-0.207708,-0.704816,-0.327430,-0.627875,-0.420627,-0.520320,-0.479746,-0.390866,-0.500000,-0.250000,-0.500000,0.250000,-0.479746,0.390866,-0.420627,0.520320,-0.327430,0.627875,-0.207708,0.704816,-0.071157,0.744911,0.000000,0.744911,0.000000,0.750000,0.550000,0.750000,0.550000,-0.750000,0.550000,-0.750000,
$1*%
%AMFreePoly1*
4,1,19,0.000000,0.744911,0.071157,0.744911,0.207708,0.704816,0.327430,0.627875,0.420627,0.520320,0.479746,0.390866,0.500000,0.250000,0.500000,-0.250000,0.479746,-0.390866,0.420627,-0.520320,0.327430,-0.627875,0.207708,-0.704816,0.071157,-0.744911,0.000000,-0.744911,0.000000,-0.750000,-0.550000,-0.750000,-0.550000,0.750000,0.000000,0.750000,0.000000,0.744911,0.000000,0.744911,
$1*%
G04 Aperture macros list end*
%ADD10RoundRect,0.100000X0.100000X-0.200000X0.100000X0.200000X-0.100000X0.200000X-0.100000X-0.200000X0*%
%ADD11R,2.400000X1.500000*%
%ADD12RoundRect,0.250000X-0.450000X0.262500X-0.450000X-0.262500X0.450000X-0.262500X0.450000X0.262500X0*%
%ADD13RoundRect,0.150000X-0.512500X-0.150000X0.512500X-0.150000X0.512500X0.150000X-0.512500X0.150000X0*%
%ADD14RoundRect,0.243750X0.243750X0.456250X-0.243750X0.456250X-0.243750X-0.456250X0.243750X-0.456250X0*%
%ADD15RoundRect,0.250000X0.250000X0.475000X-0.250000X0.475000X-0.250000X-0.475000X0.250000X-0.475000X0*%
%ADD16FreePoly0,90.000000*%
%ADD17R,1.500000X1.000000*%
%ADD18FreePoly1,90.000000*%
%ADD19RoundRect,0.150000X0.150000X-0.587500X0.150000X0.587500X-0.150000X0.587500X-0.150000X-0.587500X0*%
%ADD20R,0.508000X1.003300*%
%ADD21C,5.500000*%
%ADD22RoundRect,0.250000X-1.000000X-0.600000X1.000000X-0.600000X1.000000X0.600000X-1.000000X0.600000X0*%
%ADD23O,2.500000X1.700000*%
%ADD24RoundRect,0.225000X-0.225000X-0.250000X0.225000X-0.250000X0.225000X0.250000X-0.225000X0.250000X0*%
%ADD25RoundRect,0.250000X0.450000X-0.262500X0.450000X0.262500X-0.450000X0.262500X-0.450000X-0.262500X0*%
%ADD26RoundRect,0.250000X-0.262500X-0.450000X0.262500X-0.450000X0.262500X0.450000X-0.262500X0.450000X0*%
%ADD27RoundRect,0.250000X1.000000X0.650000X-1.000000X0.650000X-1.000000X-0.650000X1.000000X-0.650000X0*%
%ADD28RoundRect,0.250000X-0.250000X-0.475000X0.250000X-0.475000X0.250000X0.475000X-0.250000X0.475000X0*%
%ADD29RoundRect,0.150000X-0.587500X-0.150000X0.587500X-0.150000X0.587500X0.150000X-0.587500X0.150000X0*%
%ADD30RoundRect,0.225000X-0.250000X0.225000X-0.250000X-0.225000X0.250000X-0.225000X0.250000X0.225000X0*%
%ADD31R,1.400000X1.200000*%
%ADD32RoundRect,0.225000X0.225000X0.375000X-0.225000X0.375000X-0.225000X-0.375000X0.225000X-0.375000X0*%
%ADD33R,1.000000X0.750000*%
%ADD34R,2.000000X1.780000*%
%ADD35RoundRect,0.225000X-0.225000X-0.375000X0.225000X-0.375000X0.225000X0.375000X-0.225000X0.375000X0*%
%ADD36RoundRect,0.250000X-0.375000X-0.850000X0.375000X-0.850000X0.375000X0.850000X-0.375000X0.850000X0*%
%ADD37R,0.750000X1.000000*%
%ADD38RoundRect,0.250000X0.475000X-0.250000X0.475000X0.250000X-0.475000X0.250000X-0.475000X-0.250000X0*%
%ADD39RoundRect,0.250000X0.262500X0.450000X-0.262500X0.450000X-0.262500X-0.450000X0.262500X-0.450000X0*%
%ADD40RoundRect,0.225000X0.225000X0.250000X-0.225000X0.250000X-0.225000X-0.250000X0.225000X-0.250000X0*%
%ADD41RoundRect,0.112500X0.112500X-0.187500X0.112500X0.187500X-0.112500X0.187500X-0.112500X-0.187500X0*%
%ADD42RoundRect,0.150000X0.587500X0.150000X-0.587500X0.150000X-0.587500X-0.150000X0.587500X-0.150000X0*%
%ADD43RoundRect,0.250000X-0.450000X0.350000X-0.450000X-0.350000X0.450000X-0.350000X0.450000X0.350000X0*%
%ADD44R,1.500000X0.900000*%
%ADD45R,0.900000X0.900000*%
%ADD46C,0.650000*%
%ADD47R,1.240000X0.600000*%
%ADD48R,1.240000X0.300000*%
%ADD49O,2.100000X1.000000*%
%ADD50O,1.800000X1.000000*%
%ADD51RoundRect,0.125000X-0.125000X0.825000X-0.125000X-0.825000X0.125000X-0.825000X0.125000X0.825000X0*%
%ADD52RoundRect,0.250000X-0.625000X0.350000X-0.625000X-0.350000X0.625000X-0.350000X0.625000X0.350000X0*%
%ADD53O,1.750000X1.200000*%
%ADD54R,2.600000X2.600000*%
%ADD55C,2.600000*%
G04 APERTURE END LIST*
D10*
%TO.C,U8*%
X141626500Y-115394500D03*
X142576500Y-115394500D03*
X143526500Y-115394500D03*
X143526500Y-112594500D03*
X142576500Y-112594500D03*
X141626500Y-112594500D03*
D11*
X142576500Y-113994500D03*
%TD*%
D12*
%TO.C,R23*%
X129180500Y-58088000D03*
X129180500Y-59913000D03*
%TD*%
%TO.C,R22*%
X129180500Y-54278000D03*
X129180500Y-56103000D03*
%TD*%
D13*
%TO.C,U1*%
X173255000Y-53409500D03*
X173255000Y-54359500D03*
X173255000Y-55309500D03*
X175530000Y-55309500D03*
X175530000Y-54359500D03*
X175530000Y-53409500D03*
%TD*%
D14*
%TO.C,LED2*%
X197857500Y-53158500D03*
X195982500Y-53158500D03*
%TD*%
D15*
%TO.C,C11*%
X187534500Y-87702500D03*
X185634500Y-87702500D03*
%TD*%
D16*
%TO.C,JP1*%
X89302500Y-57252500D03*
D17*
X89302500Y-55952500D03*
D18*
X89302500Y-54652500D03*
%TD*%
D15*
%TO.C,C1*%
X175342500Y-58254500D03*
X173442500Y-58254500D03*
%TD*%
D19*
%TO.C,Q1*%
X163917500Y-61399500D03*
X165817500Y-61399500D03*
X164867500Y-59524500D03*
%TD*%
D20*
%TO.C,U2*%
X173757500Y-65404600D03*
X174707501Y-65404600D03*
X175657502Y-65404600D03*
X175657502Y-62699500D03*
X173757500Y-62699500D03*
%TD*%
D21*
%TO.C,DISP1*%
X88762500Y-48832500D03*
X88762500Y-103712500D03*
X190762500Y-48832500D03*
X190762500Y-103712500D03*
D22*
X87762500Y-59762500D03*
D23*
X87762500Y-62302500D03*
X87762500Y-64842500D03*
X87762500Y-67382500D03*
X87762500Y-69922500D03*
X87762500Y-72462500D03*
X87762500Y-75002500D03*
X87762500Y-77542500D03*
X87762500Y-80082500D03*
X87762500Y-82622500D03*
X87762500Y-85162500D03*
X87762500Y-87742500D03*
X87762500Y-90242500D03*
X87762500Y-92782500D03*
%TD*%
D24*
%TO.C,C10*%
X176355500Y-80883500D03*
X177905500Y-80883500D03*
%TD*%
D25*
%TO.C,R19*%
X126894500Y-94203000D03*
X126894500Y-92378000D03*
%TD*%
D26*
%TO.C,R1*%
X190498000Y-55190500D03*
X192323000Y-55190500D03*
%TD*%
%TO.C,R15*%
X162050000Y-108022500D03*
X163875000Y-108022500D03*
%TD*%
D27*
%TO.C,D6*%
X134482500Y-74367500D03*
X130482500Y-74367500D03*
%TD*%
D28*
%TO.C,C6*%
X196302500Y-71827500D03*
X198202500Y-71827500D03*
%TD*%
D29*
%TO.C,Q4*%
X129259000Y-92340500D03*
X129259000Y-94240500D03*
X131134000Y-93290500D03*
%TD*%
%TO.C,Q5*%
X129320000Y-82688500D03*
X129320000Y-84588500D03*
X131195000Y-83638500D03*
%TD*%
D30*
%TO.C,C8*%
X103907500Y-59000500D03*
X103907500Y-60550500D03*
%TD*%
D15*
%TO.C,C12*%
X184359500Y-73986500D03*
X182459500Y-73986500D03*
%TD*%
D31*
%TO.C,Y1*%
X178159500Y-76438500D03*
X175959500Y-76438500D03*
X175959500Y-78138500D03*
X178159500Y-78138500D03*
%TD*%
D32*
%TO.C,D3*%
X167914500Y-81733500D03*
X164614500Y-81733500D03*
%TD*%
D16*
%TO.C,JP3*%
X94382500Y-57252500D03*
D17*
X94382500Y-55952500D03*
D18*
X94382500Y-54652500D03*
%TD*%
D14*
%TO.C,LED3*%
X93390000Y-113102500D03*
X91515000Y-113102500D03*
%TD*%
D25*
%TO.C,R9*%
X171344500Y-78201000D03*
X171344500Y-76376000D03*
%TD*%
D33*
%TO.C,SW4*%
X159962500Y-111832500D03*
X165962500Y-111832500D03*
X159962500Y-115582500D03*
X165962500Y-115582500D03*
%TD*%
D15*
%TO.C,C4*%
X181057500Y-67144500D03*
X179157500Y-67144500D03*
%TD*%
D25*
%TO.C,R5*%
X102002500Y-63850000D03*
X102002500Y-62025000D03*
%TD*%
D34*
%TO.C,U6*%
X113493500Y-92020500D03*
X113493500Y-94560500D03*
X123023500Y-94560500D03*
X123023500Y-92020500D03*
%TD*%
D35*
%TO.C,D2*%
X170964500Y-81733500D03*
X174264500Y-81733500D03*
%TD*%
D34*
%TO.C,U7*%
X113300500Y-82368500D03*
X113300500Y-84908500D03*
X122830500Y-84908500D03*
X122830500Y-82368500D03*
%TD*%
D28*
%TO.C,C3*%
X173442500Y-68414500D03*
X175342500Y-68414500D03*
%TD*%
D36*
%TO.C,L1*%
X179032500Y-63969500D03*
X181182500Y-63969500D03*
%TD*%
D27*
%TO.C,D7*%
X134482500Y-87702500D03*
X130482500Y-87702500D03*
%TD*%
D37*
%TO.C,SW1*%
X199127500Y-63287500D03*
X199127500Y-69287500D03*
X195377500Y-63287500D03*
X195377500Y-69287500D03*
%TD*%
D38*
%TO.C,C7*%
X99462500Y-55825500D03*
X99462500Y-53925500D03*
%TD*%
D25*
%TO.C,R21*%
X126701500Y-84551000D03*
X126701500Y-82726000D03*
%TD*%
D38*
%TO.C,C5*%
X103907500Y-55825500D03*
X103907500Y-53925500D03*
%TD*%
%TO.C,C2*%
X169947500Y-55124500D03*
X169947500Y-53224500D03*
%TD*%
D39*
%TO.C,R20*%
X109810500Y-82368500D03*
X107985500Y-82368500D03*
%TD*%
D16*
%TO.C,JP2*%
X98222500Y-78842500D03*
D17*
X98222500Y-77542500D03*
D18*
X98222500Y-76242500D03*
%TD*%
D14*
%TO.C,LED1*%
X197857500Y-56714500D03*
X195982500Y-56714500D03*
%TD*%
D40*
%TO.C,C9*%
X177905500Y-73898500D03*
X176355500Y-73898500D03*
%TD*%
D41*
%TO.C,D1*%
X179472500Y-60574500D03*
X179472500Y-58474500D03*
%TD*%
D33*
%TO.C,SW2*%
X101542500Y-111832500D03*
X107542500Y-111832500D03*
X101542500Y-115582500D03*
X107542500Y-115582500D03*
%TD*%
D42*
%TO.C,Q2*%
X176394500Y-91573500D03*
X176394500Y-89673500D03*
X174519500Y-90623500D03*
%TD*%
D32*
%TO.C,D4*%
X171089500Y-90623500D03*
X167789500Y-90623500D03*
%TD*%
D33*
%TO.C,SW3*%
X119322500Y-111832500D03*
X125322500Y-111832500D03*
X119322500Y-115582500D03*
X125322500Y-115582500D03*
%TD*%
%TO.C,SW5*%
X177282500Y-111832500D03*
X183282500Y-111832500D03*
X177282500Y-115582500D03*
X183282500Y-115582500D03*
%TD*%
D43*
%TO.C,R2*%
X179472500Y-53444500D03*
X179472500Y-55444500D03*
%TD*%
D25*
%TO.C,R3*%
X169947500Y-64882000D03*
X169947500Y-63057000D03*
%TD*%
%TO.C,R6*%
X99462500Y-60675000D03*
X99462500Y-58850000D03*
%TD*%
%TO.C,R10*%
X180234500Y-97251000D03*
X180234500Y-95426000D03*
%TD*%
D26*
%TO.C,R14*%
X179195000Y-108022500D03*
X181020000Y-108022500D03*
%TD*%
D12*
%TO.C,R4*%
X169947500Y-58889500D03*
X169947500Y-60714500D03*
%TD*%
D44*
%TO.C,U3*%
X108378500Y-54428500D03*
X108378500Y-55698500D03*
X108378500Y-56968500D03*
X108378500Y-58238500D03*
X108378500Y-59508500D03*
X108378500Y-60778500D03*
X108378500Y-62048500D03*
X108378500Y-63318500D03*
X108378500Y-64588500D03*
X108378500Y-65858500D03*
X108378500Y-67128500D03*
X108378500Y-68398500D03*
X108378500Y-69668500D03*
X108378500Y-70938500D03*
X108378500Y-72208500D03*
X108378500Y-73478500D03*
X108378500Y-74748500D03*
X108378500Y-76018500D03*
X108378500Y-77288500D03*
X125878500Y-77288500D03*
X125878500Y-76018500D03*
X125878500Y-74748500D03*
X125878500Y-73478500D03*
X125878500Y-72208500D03*
X125878500Y-70938500D03*
X125878500Y-69668500D03*
X125878500Y-68398500D03*
X125878500Y-67128500D03*
X125878500Y-65858500D03*
X125878500Y-64588500D03*
X125878500Y-63318500D03*
X125878500Y-62048500D03*
X125878500Y-60778500D03*
X125878500Y-59508500D03*
X125878500Y-58238500D03*
X125878500Y-56968500D03*
X125878500Y-55698500D03*
X125878500Y-54428500D03*
D45*
X114228500Y-61438500D03*
X114228500Y-62838500D03*
X114228500Y-64238500D03*
X115628500Y-61438500D03*
X115628500Y-62838500D03*
X115628500Y-64238500D03*
X117028500Y-61438500D03*
X117028500Y-62838500D03*
X117028500Y-64238500D03*
%TD*%
D25*
%TO.C,R12*%
X167534500Y-78201000D03*
X167534500Y-76376000D03*
%TD*%
D39*
%TO.C,R18*%
X109923500Y-92020500D03*
X108098500Y-92020500D03*
%TD*%
D29*
%TO.C,D5*%
X164389500Y-95388500D03*
X164389500Y-97288500D03*
X166264500Y-96338500D03*
%TD*%
D46*
%TO.C,J6*%
X195155500Y-83988500D03*
X195155500Y-78208500D03*
D47*
X194035500Y-84298500D03*
X194035500Y-83498500D03*
D48*
X194035500Y-82348500D03*
X194035500Y-81348500D03*
X194035500Y-80848500D03*
X194035500Y-79848500D03*
D47*
X194035500Y-78698500D03*
X194035500Y-77898500D03*
X194035500Y-77898500D03*
X194035500Y-78698500D03*
D48*
X194035500Y-79348500D03*
X194035500Y-80348500D03*
X194035500Y-81848500D03*
X194035500Y-82848500D03*
D47*
X194035500Y-83498500D03*
X194035500Y-84298500D03*
D49*
X194635500Y-85418500D03*
D50*
X198835500Y-85418500D03*
D49*
X194635500Y-76778500D03*
D50*
X198835500Y-76778500D03*
%TD*%
D42*
%TO.C,Q3*%
X176394500Y-97288500D03*
X176394500Y-95388500D03*
X174519500Y-96338500D03*
%TD*%
D38*
%TO.C,C13*%
X146198500Y-112914500D03*
X146198500Y-114814500D03*
%TD*%
D51*
%TO.C,U4*%
X186969500Y-77598500D03*
X186319500Y-77598500D03*
X185669500Y-77598500D03*
X185019500Y-77598500D03*
X184369500Y-77598500D03*
X183719500Y-77598500D03*
X183069500Y-77598500D03*
X182419500Y-77598500D03*
X181769500Y-77598500D03*
X181119500Y-77598500D03*
X181119500Y-84598500D03*
X181769500Y-84598500D03*
X182419500Y-84598500D03*
X183069500Y-84598500D03*
X183719500Y-84598500D03*
X184369500Y-84598500D03*
X185019500Y-84598500D03*
X185669500Y-84598500D03*
X186319500Y-84598500D03*
X186969500Y-84598500D03*
%TD*%
D26*
%TO.C,R16*%
X121410000Y-108022500D03*
X123235000Y-108022500D03*
%TD*%
D39*
%TO.C,R13*%
X170836500Y-96338500D03*
X169011500Y-96338500D03*
%TD*%
D12*
%TO.C,R11*%
X180234500Y-89711000D03*
X180234500Y-91536000D03*
%TD*%
D26*
%TO.C,R17*%
X103630000Y-108022500D03*
X105455000Y-108022500D03*
%TD*%
%TO.C,R7*%
X91565000Y-110562500D03*
X93390000Y-110562500D03*
%TD*%
D39*
%TO.C,R8*%
X131871000Y-70938500D03*
X130046000Y-70938500D03*
%TD*%
D52*
%TO.C,J1*%
X135784500Y-53682500D03*
D53*
X135784500Y-55682500D03*
%TD*%
D54*
%TO.C,J5*%
X151532500Y-71192500D03*
D55*
X151532500Y-76192500D03*
X151532500Y-81192500D03*
%TD*%
D54*
%TO.C,J3*%
X151532500Y-54047500D03*
D55*
X151532500Y-59047500D03*
X151532500Y-64047500D03*
%TD*%
D54*
%TO.C,J4*%
X151457500Y-88337500D03*
D55*
X151457500Y-93337500D03*
X151457500Y-98337500D03*
%TD*%
M02*
