M48
; DRILL file {KiCad 8.0.7} date 2025-02-02T13:09:14-0800
; FORMAT={-:-/ absolute / inch / decimal}
; #@! TF.CreationDate,2025-02-02T13:09:14-08:00
; #@! TF.GenerationSoftware,Kicad,Pcbnew,8.0.7
; #@! TF.FileFunction,Plated,1,2,PTH
FMAT,2
INCH
; #@! TA.AperFunction,Plated,PTH,ViaDrill
T1C0.0118
; #@! TA.AperFunction,Plated,PTH,ViaDrill
T2C0.0120
; #@! TA.AperFunction,Plated,PTH,ComponentDrill
T3C0.0236
; #@! TA.AperFunction,Plated,PTH,ComponentDrill
T4C0.0295
; #@! TA.AperFunction,Plated,PTH,ComponentDrill
T5C0.0394
; #@! TA.AperFunction,Plated,PTH,ComponentDrill
T6C0.0512
%
G90
G05
T1
X3.9158Y-2.8529
X3.9658Y-2.8529
X4.0358Y-2.8529
X4.1758Y-3.4529
X4.2758Y-3.3129
X5.6558Y-4.2529
T2
X3.5458Y-2.4229
X3.5458Y-2.4529
X3.5458Y-2.4829
X3.5758Y-2.4229
X3.5758Y-2.4529
X3.5758Y-2.4829
X3.8858Y-2.0629
X3.914Y-3.1029
X3.9158Y-2.0629
X3.9408Y-2.7029
X3.9458Y-2.0629
X4.0258Y-4.2529
X4.0558Y-2.0629
X4.0758Y-3.9329
X4.0858Y-2.0629
X4.0858Y-2.9429
X4.0958Y-2.4429
X4.1058Y-2.5129
X4.1158Y-2.0629
X4.1258Y-2.4229
X4.1558Y-2.4029
X4.2258Y-3.9929
X4.3258Y-2.4429
X4.3258Y-2.8329
X4.3258Y-2.8629
X4.3258Y-2.8929
X4.3358Y-2.3929
X4.3658Y-2.9779
X4.3958Y-2.4229
X4.4258Y-3.4229
X4.4558Y-1.9629
X4.4558Y-3.4229
X4.4658Y-2.8529
X4.4758Y-3.3329
X4.5908Y-2.6029
X4.6358Y-2.0329
X4.6358Y-2.6029
X4.6408Y-2.8529
X4.6458Y-1.9129
X4.6558Y-3.0129
X4.6558Y-3.2929
X4.6858Y-3.1322
X4.7258Y-2.0429
X4.7258Y-4.2529
X4.7352Y-3.0829
X4.7363Y-3.1233
X4.7558Y-2.0429
X4.7858Y-2.0429
X4.8358Y-3.1729
X4.8758Y-2.7929
X4.8758Y-2.8429
X4.8758Y-2.8929
X4.8958Y-2.2829
X4.8958Y-2.3329
X5.0558Y-2.4929
X5.0558Y-2.7429
X5.0558Y-2.9229
X5.0558Y-3.4229
X5.1758Y-2.8529
X5.1858Y-3.3729
X5.1858Y-3.7229
X5.1958Y-2.2829
X5.2284Y-2.9854
X5.2558Y-3.3829
X5.2758Y-2.8529
X5.3258Y-2.0429
X5.3558Y-2.0429
X5.3758Y-2.9229
X5.3858Y-2.0429
X5.3858Y-3.4329
X5.4658Y-2.3129
X5.5458Y-2.3429
X5.7458Y-3.9829
X5.7858Y-4.0229
X6.2058Y-1.9129
X6.2358Y-1.9129
X6.2558Y-1.9329
X6.2558Y-2.2629
X6.2858Y-2.2629
X6.3157Y-2.2629
X6.3258Y-4.2529
X6.3658Y-2.7529
X6.4108Y-2.7379
X6.5358Y-2.3429
X6.5958Y-2.1729
X6.6858Y-3.2029
X6.7558Y-2.4229
X6.7558Y-2.4529
X6.7858Y-2.4529
X6.8358Y-2.341
X6.8658Y-2.341
X6.9758Y-2.6629
X6.9758Y-2.6929
X6.9758Y-2.7229
X7.0058Y-4.2529
X7.0358Y-2.2429
X7.0658Y-2.2429
X7.0758Y-3.0429
X7.0758Y-3.0729
X7.0958Y-2.2429
X7.1258Y-2.8729
X7.1258Y-2.9029
X7.1258Y-2.9329
X7.1358Y-2.3021
X7.2058Y-2.0929
X7.2058Y-2.1429
X7.2351Y-3.1321
X7.2582Y-2.8453
X7.3958Y-2.1429
X7.4458Y-2.1729
X7.5358Y-2.1029
X7.5709Y-3.2679
X7.5858Y-2.4929
X7.5858Y-3.1229
T4
X5.3458Y-2.1135
X5.3458Y-2.1922
T5
X3.4552Y-2.3529
X3.4552Y-2.4529
X3.4552Y-2.5529
X3.4552Y-2.6529
X3.4552Y-2.7529
X3.4552Y-2.8529
X3.4552Y-2.9529
X3.4552Y-3.0529
X3.4552Y-3.1529
X3.4552Y-3.2529
X3.4552Y-3.3529
X3.4552Y-3.4544
X3.4552Y-3.5529
X3.4552Y-3.6529
T6
X5.9629Y-3.4779
X5.9629Y-3.6747
X5.9629Y-3.8716
X5.9658Y-2.1279
X5.9658Y-2.3247
X5.9658Y-2.5216
X5.9658Y-2.8029
X5.9658Y-2.9997
X5.9658Y-3.1966
T3
G00X7.6412Y-3.0228
M15
G01X7.6845Y-3.0228
M16
G05
G00X7.6412Y-3.3629
M15
G01X7.6845Y-3.3629
M16
G05
G00X7.8124Y-3.0228
M15
G01X7.8439Y-3.0228
M16
G05
G00X7.8124Y-3.3629
M15
G01X7.8439Y-3.3629
M16
G05
M30
