%TF.GenerationSoftware,KiCad,Pcbnew,8.0.7*%
%TF.CreationDate,2025-02-02T11:33:50-08:00*%
%TF.ProjectId,hstat,68737461-742e-46b6-9963-61645f706362,rev?*%
%TF.SameCoordinates,Original*%
%TF.FileFunction,Legend,Top*%
%TF.FilePolarity,Positive*%
%FSLAX46Y46*%
G04 Gerber Fmt 4.6, Leading zero omitted, Abs format (unit mm)*
G04 Created by KiCad (PCBNEW 8.0.7) date 2025-02-02 11:33:50*
%MOMM*%
%LPD*%
G01*
G04 APERTURE LIST*
G04 Aperture macros list*
%AMRoundRect*
0 Rectangle with rounded corners*
0 $1 Rounding radius*
0 $2 $3 $4 $5 $6 $7 $8 $9 X,Y pos of 4 corners*
0 Add a 4 corners polygon primitive as box body*
4,1,4,$2,$3,$4,$5,$6,$7,$8,$9,$2,$3,0*
0 Add four circle primitives for the rounded corners*
1,1,$1+$1,$2,$3*
1,1,$1+$1,$4,$5*
1,1,$1+$1,$6,$7*
1,1,$1+$1,$8,$9*
0 Add four rect primitives between the rounded corners*
20,1,$1+$1,$2,$3,$4,$5,0*
20,1,$1+$1,$4,$5,$6,$7,0*
20,1,$1+$1,$6,$7,$8,$9,0*
20,1,$1+$1,$8,$9,$2,$3,0*%
%AMFreePoly0*
4,1,19,0.550000,-0.750000,0.000000,-0.750000,0.000000,-0.744911,-0.071157,-0.744911,-0.207708,-0.704816,-0.327430,-0.627875,-0.420627,-0.520320,-0.479746,-0.390866,-0.500000,-0.250000,-0.500000,0.250000,-0.479746,0.390866,-0.420627,0.520320,-0.327430,0.627875,-0.207708,0.704816,-0.071157,0.744911,0.000000,0.744911,0.000000,0.750000,0.550000,0.750000,0.550000,-0.750000,0.550000,-0.750000,
$1*%
%AMFreePoly1*
4,1,19,0.000000,0.744911,0.071157,0.744911,0.207708,0.704816,0.327430,0.627875,0.420627,0.520320,0.479746,0.390866,0.500000,0.250000,0.500000,-0.250000,0.479746,-0.390866,0.420627,-0.520320,0.327430,-0.627875,0.207708,-0.704816,0.071157,-0.744911,0.000000,-0.744911,0.000000,-0.750000,-0.550000,-0.750000,-0.550000,0.750000,0.000000,0.750000,0.000000,0.744911,0.000000,0.744911,
$1*%
G04 Aperture macros list end*
%ADD10C,0.250000*%
%ADD11C,0.150000*%
%ADD12C,0.200000*%
%ADD13C,0.120000*%
%ADD14C,0.152400*%
%ADD15RoundRect,0.100000X0.100000X-0.200000X0.100000X0.200000X-0.100000X0.200000X-0.100000X-0.200000X0*%
%ADD16R,2.400000X1.500000*%
%ADD17RoundRect,0.250000X-0.450000X0.262500X-0.450000X-0.262500X0.450000X-0.262500X0.450000X0.262500X0*%
%ADD18RoundRect,0.150000X-0.512500X-0.150000X0.512500X-0.150000X0.512500X0.150000X-0.512500X0.150000X0*%
%ADD19RoundRect,0.243750X0.243750X0.456250X-0.243750X0.456250X-0.243750X-0.456250X0.243750X-0.456250X0*%
%ADD20RoundRect,0.250000X0.250000X0.475000X-0.250000X0.475000X-0.250000X-0.475000X0.250000X-0.475000X0*%
%ADD21FreePoly0,90.000000*%
%ADD22R,1.500000X1.000000*%
%ADD23FreePoly1,90.000000*%
%ADD24RoundRect,0.150000X0.150000X-0.587500X0.150000X0.587500X-0.150000X0.587500X-0.150000X-0.587500X0*%
%ADD25R,0.508000X1.003300*%
%ADD26C,5.500000*%
%ADD27RoundRect,0.250000X-1.000000X-0.600000X1.000000X-0.600000X1.000000X0.600000X-1.000000X0.600000X0*%
%ADD28O,2.500000X1.700000*%
%ADD29RoundRect,0.225000X-0.225000X-0.250000X0.225000X-0.250000X0.225000X0.250000X-0.225000X0.250000X0*%
%ADD30RoundRect,0.250000X0.450000X-0.262500X0.450000X0.262500X-0.450000X0.262500X-0.450000X-0.262500X0*%
%ADD31RoundRect,0.250000X-0.262500X-0.450000X0.262500X-0.450000X0.262500X0.450000X-0.262500X0.450000X0*%
%ADD32RoundRect,0.250000X1.000000X0.650000X-1.000000X0.650000X-1.000000X-0.650000X1.000000X-0.650000X0*%
%ADD33RoundRect,0.250000X-0.250000X-0.475000X0.250000X-0.475000X0.250000X0.475000X-0.250000X0.475000X0*%
%ADD34RoundRect,0.150000X-0.587500X-0.150000X0.587500X-0.150000X0.587500X0.150000X-0.587500X0.150000X0*%
%ADD35RoundRect,0.225000X-0.250000X0.225000X-0.250000X-0.225000X0.250000X-0.225000X0.250000X0.225000X0*%
%ADD36R,1.400000X1.200000*%
%ADD37RoundRect,0.225000X0.225000X0.375000X-0.225000X0.375000X-0.225000X-0.375000X0.225000X-0.375000X0*%
%ADD38R,1.000000X0.750000*%
%ADD39R,2.000000X1.780000*%
%ADD40RoundRect,0.225000X-0.225000X-0.375000X0.225000X-0.375000X0.225000X0.375000X-0.225000X0.375000X0*%
%ADD41RoundRect,0.250000X-0.375000X-0.850000X0.375000X-0.850000X0.375000X0.850000X-0.375000X0.850000X0*%
%ADD42R,0.750000X1.000000*%
%ADD43RoundRect,0.250000X0.475000X-0.250000X0.475000X0.250000X-0.475000X0.250000X-0.475000X-0.250000X0*%
%ADD44RoundRect,0.250000X0.262500X0.450000X-0.262500X0.450000X-0.262500X-0.450000X0.262500X-0.450000X0*%
%ADD45RoundRect,0.225000X0.225000X0.250000X-0.225000X0.250000X-0.225000X-0.250000X0.225000X-0.250000X0*%
%ADD46RoundRect,0.112500X0.112500X-0.187500X0.112500X0.187500X-0.112500X0.187500X-0.112500X-0.187500X0*%
%ADD47RoundRect,0.150000X0.587500X0.150000X-0.587500X0.150000X-0.587500X-0.150000X0.587500X-0.150000X0*%
%ADD48RoundRect,0.250000X-0.450000X0.350000X-0.450000X-0.350000X0.450000X-0.350000X0.450000X0.350000X0*%
%ADD49R,1.500000X0.900000*%
%ADD50R,0.900000X0.900000*%
%ADD51C,0.650000*%
%ADD52R,1.240000X0.600000*%
%ADD53R,1.240000X0.300000*%
%ADD54O,2.100000X1.000000*%
%ADD55O,1.800000X1.000000*%
%ADD56RoundRect,0.125000X-0.125000X0.825000X-0.125000X-0.825000X0.125000X-0.825000X0.125000X0.825000X0*%
%ADD57RoundRect,0.250000X-0.625000X0.350000X-0.625000X-0.350000X0.625000X-0.350000X0.625000X0.350000X0*%
%ADD58O,1.750000X1.200000*%
%ADD59R,2.600000X2.600000*%
%ADD60C,2.600000*%
G04 APERTURE END LIST*
D10*
X100384973Y-75319084D02*
X101468306Y-75319084D01*
X101468306Y-75319084D02*
X100884973Y-75985751D01*
X100884973Y-75985751D02*
X101134973Y-75985751D01*
X101134973Y-75985751D02*
X101301639Y-76069084D01*
X101301639Y-76069084D02*
X101384973Y-76152417D01*
X101384973Y-76152417D02*
X101468306Y-76319084D01*
X101468306Y-76319084D02*
X101468306Y-76735751D01*
X101468306Y-76735751D02*
X101384973Y-76902417D01*
X101384973Y-76902417D02*
X101301639Y-76985751D01*
X101301639Y-76985751D02*
X101134973Y-77069084D01*
X101134973Y-77069084D02*
X100634973Y-77069084D01*
X100634973Y-77069084D02*
X100468306Y-76985751D01*
X100468306Y-76985751D02*
X100384973Y-76902417D01*
X101968306Y-75319084D02*
X102551640Y-77069084D01*
X102551640Y-77069084D02*
X103134973Y-75319084D01*
X103551640Y-75319084D02*
X104634973Y-75319084D01*
X104634973Y-75319084D02*
X104051640Y-75985751D01*
X104051640Y-75985751D02*
X104301640Y-75985751D01*
X104301640Y-75985751D02*
X104468306Y-76069084D01*
X104468306Y-76069084D02*
X104551640Y-76152417D01*
X104551640Y-76152417D02*
X104634973Y-76319084D01*
X104634973Y-76319084D02*
X104634973Y-76735751D01*
X104634973Y-76735751D02*
X104551640Y-76902417D01*
X104551640Y-76902417D02*
X104468306Y-76985751D01*
X104468306Y-76985751D02*
X104301640Y-77069084D01*
X104301640Y-77069084D02*
X103801640Y-77069084D01*
X103801640Y-77069084D02*
X103634973Y-76985751D01*
X103634973Y-76985751D02*
X103551640Y-76902417D01*
X100551639Y-79609084D02*
X100551639Y-77859084D01*
X100551639Y-77859084D02*
X101218306Y-77859084D01*
X101218306Y-77859084D02*
X101384973Y-77942417D01*
X101384973Y-77942417D02*
X101468306Y-78025751D01*
X101468306Y-78025751D02*
X101551639Y-78192417D01*
X101551639Y-78192417D02*
X101551639Y-78442417D01*
X101551639Y-78442417D02*
X101468306Y-78609084D01*
X101468306Y-78609084D02*
X101384973Y-78692417D01*
X101384973Y-78692417D02*
X101218306Y-78775751D01*
X101218306Y-78775751D02*
X100551639Y-78775751D01*
X102134973Y-77859084D02*
X102551639Y-79609084D01*
X102551639Y-79609084D02*
X102884973Y-78359084D01*
X102884973Y-78359084D02*
X103218306Y-79609084D01*
X103218306Y-79609084D02*
X103634973Y-77859084D01*
X104301639Y-79609084D02*
X104301639Y-77859084D01*
X104301639Y-77859084D02*
X104884973Y-79109084D01*
X104884973Y-79109084D02*
X105468306Y-77859084D01*
X105468306Y-77859084D02*
X105468306Y-79609084D01*
D11*
X112680231Y-46918795D02*
X112680231Y-47490223D01*
X112680231Y-47490223D02*
X112642136Y-47604509D01*
X112642136Y-47604509D02*
X112565945Y-47680700D01*
X112565945Y-47680700D02*
X112451660Y-47718795D01*
X112451660Y-47718795D02*
X112375469Y-47718795D01*
X113442136Y-47718795D02*
X113061184Y-47718795D01*
X113061184Y-47718795D02*
X113061184Y-46918795D01*
X114165946Y-47642604D02*
X114127850Y-47680700D01*
X114127850Y-47680700D02*
X114013565Y-47718795D01*
X114013565Y-47718795D02*
X113937374Y-47718795D01*
X113937374Y-47718795D02*
X113823088Y-47680700D01*
X113823088Y-47680700D02*
X113746898Y-47604509D01*
X113746898Y-47604509D02*
X113708803Y-47528319D01*
X113708803Y-47528319D02*
X113670707Y-47375938D01*
X113670707Y-47375938D02*
X113670707Y-47261652D01*
X113670707Y-47261652D02*
X113708803Y-47109271D01*
X113708803Y-47109271D02*
X113746898Y-47033080D01*
X113746898Y-47033080D02*
X113823088Y-46956890D01*
X113823088Y-46956890D02*
X113937374Y-46918795D01*
X113937374Y-46918795D02*
X114013565Y-46918795D01*
X114013565Y-46918795D02*
X114127850Y-46956890D01*
X114127850Y-46956890D02*
X114165946Y-46994985D01*
X114737374Y-46918795D02*
X114737374Y-47490223D01*
X114737374Y-47490223D02*
X114699279Y-47604509D01*
X114699279Y-47604509D02*
X114623088Y-47680700D01*
X114623088Y-47680700D02*
X114508803Y-47718795D01*
X114508803Y-47718795D02*
X114432612Y-47718795D01*
X115499279Y-47718795D02*
X115118327Y-47718795D01*
X115118327Y-47718795D02*
X115118327Y-46918795D01*
X116223089Y-47642604D02*
X116184993Y-47680700D01*
X116184993Y-47680700D02*
X116070708Y-47718795D01*
X116070708Y-47718795D02*
X115994517Y-47718795D01*
X115994517Y-47718795D02*
X115880231Y-47680700D01*
X115880231Y-47680700D02*
X115804041Y-47604509D01*
X115804041Y-47604509D02*
X115765946Y-47528319D01*
X115765946Y-47528319D02*
X115727850Y-47375938D01*
X115727850Y-47375938D02*
X115727850Y-47261652D01*
X115727850Y-47261652D02*
X115765946Y-47109271D01*
X115765946Y-47109271D02*
X115804041Y-47033080D01*
X115804041Y-47033080D02*
X115880231Y-46956890D01*
X115880231Y-46956890D02*
X115994517Y-46918795D01*
X115994517Y-46918795D02*
X116070708Y-46918795D01*
X116070708Y-46918795D02*
X116184993Y-46956890D01*
X116184993Y-46956890D02*
X116223089Y-46994985D01*
X116794517Y-46918795D02*
X116794517Y-47490223D01*
X116794517Y-47490223D02*
X116756422Y-47604509D01*
X116756422Y-47604509D02*
X116680231Y-47680700D01*
X116680231Y-47680700D02*
X116565946Y-47718795D01*
X116565946Y-47718795D02*
X116489755Y-47718795D01*
X117556422Y-47718795D02*
X117175470Y-47718795D01*
X117175470Y-47718795D02*
X117175470Y-46918795D01*
X118280232Y-47642604D02*
X118242136Y-47680700D01*
X118242136Y-47680700D02*
X118127851Y-47718795D01*
X118127851Y-47718795D02*
X118051660Y-47718795D01*
X118051660Y-47718795D02*
X117937374Y-47680700D01*
X117937374Y-47680700D02*
X117861184Y-47604509D01*
X117861184Y-47604509D02*
X117823089Y-47528319D01*
X117823089Y-47528319D02*
X117784993Y-47375938D01*
X117784993Y-47375938D02*
X117784993Y-47261652D01*
X117784993Y-47261652D02*
X117823089Y-47109271D01*
X117823089Y-47109271D02*
X117861184Y-47033080D01*
X117861184Y-47033080D02*
X117937374Y-46956890D01*
X117937374Y-46956890D02*
X118051660Y-46918795D01*
X118051660Y-46918795D02*
X118127851Y-46918795D01*
X118127851Y-46918795D02*
X118242136Y-46956890D01*
X118242136Y-46956890D02*
X118280232Y-46994985D01*
X118851660Y-46918795D02*
X118851660Y-47490223D01*
X118851660Y-47490223D02*
X118813565Y-47604509D01*
X118813565Y-47604509D02*
X118737374Y-47680700D01*
X118737374Y-47680700D02*
X118623089Y-47718795D01*
X118623089Y-47718795D02*
X118546898Y-47718795D01*
X119613565Y-47718795D02*
X119232613Y-47718795D01*
X119232613Y-47718795D02*
X119232613Y-46918795D01*
X120337375Y-47642604D02*
X120299279Y-47680700D01*
X120299279Y-47680700D02*
X120184994Y-47718795D01*
X120184994Y-47718795D02*
X120108803Y-47718795D01*
X120108803Y-47718795D02*
X119994517Y-47680700D01*
X119994517Y-47680700D02*
X119918327Y-47604509D01*
X119918327Y-47604509D02*
X119880232Y-47528319D01*
X119880232Y-47528319D02*
X119842136Y-47375938D01*
X119842136Y-47375938D02*
X119842136Y-47261652D01*
X119842136Y-47261652D02*
X119880232Y-47109271D01*
X119880232Y-47109271D02*
X119918327Y-47033080D01*
X119918327Y-47033080D02*
X119994517Y-46956890D01*
X119994517Y-46956890D02*
X120108803Y-46918795D01*
X120108803Y-46918795D02*
X120184994Y-46918795D01*
X120184994Y-46918795D02*
X120299279Y-46956890D01*
X120299279Y-46956890D02*
X120337375Y-46994985D01*
X139361319Y-114756404D02*
X140170842Y-114756404D01*
X140170842Y-114756404D02*
X140266080Y-114708785D01*
X140266080Y-114708785D02*
X140313700Y-114661166D01*
X140313700Y-114661166D02*
X140361319Y-114565928D01*
X140361319Y-114565928D02*
X140361319Y-114375452D01*
X140361319Y-114375452D02*
X140313700Y-114280214D01*
X140313700Y-114280214D02*
X140266080Y-114232595D01*
X140266080Y-114232595D02*
X140170842Y-114184976D01*
X140170842Y-114184976D02*
X139361319Y-114184976D01*
X139789890Y-113565928D02*
X139742271Y-113661166D01*
X139742271Y-113661166D02*
X139694652Y-113708785D01*
X139694652Y-113708785D02*
X139599414Y-113756404D01*
X139599414Y-113756404D02*
X139551795Y-113756404D01*
X139551795Y-113756404D02*
X139456557Y-113708785D01*
X139456557Y-113708785D02*
X139408938Y-113661166D01*
X139408938Y-113661166D02*
X139361319Y-113565928D01*
X139361319Y-113565928D02*
X139361319Y-113375452D01*
X139361319Y-113375452D02*
X139408938Y-113280214D01*
X139408938Y-113280214D02*
X139456557Y-113232595D01*
X139456557Y-113232595D02*
X139551795Y-113184976D01*
X139551795Y-113184976D02*
X139599414Y-113184976D01*
X139599414Y-113184976D02*
X139694652Y-113232595D01*
X139694652Y-113232595D02*
X139742271Y-113280214D01*
X139742271Y-113280214D02*
X139789890Y-113375452D01*
X139789890Y-113375452D02*
X139789890Y-113565928D01*
X139789890Y-113565928D02*
X139837509Y-113661166D01*
X139837509Y-113661166D02*
X139885128Y-113708785D01*
X139885128Y-113708785D02*
X139980366Y-113756404D01*
X139980366Y-113756404D02*
X140170842Y-113756404D01*
X140170842Y-113756404D02*
X140266080Y-113708785D01*
X140266080Y-113708785D02*
X140313700Y-113661166D01*
X140313700Y-113661166D02*
X140361319Y-113565928D01*
X140361319Y-113565928D02*
X140361319Y-113375452D01*
X140361319Y-113375452D02*
X140313700Y-113280214D01*
X140313700Y-113280214D02*
X140266080Y-113232595D01*
X140266080Y-113232595D02*
X140170842Y-113184976D01*
X140170842Y-113184976D02*
X139980366Y-113184976D01*
X139980366Y-113184976D02*
X139885128Y-113232595D01*
X139885128Y-113232595D02*
X139837509Y-113280214D01*
X139837509Y-113280214D02*
X139789890Y-113375452D01*
X131285319Y-59643357D02*
X130809128Y-59976690D01*
X131285319Y-60214785D02*
X130285319Y-60214785D01*
X130285319Y-60214785D02*
X130285319Y-59833833D01*
X130285319Y-59833833D02*
X130332938Y-59738595D01*
X130332938Y-59738595D02*
X130380557Y-59690976D01*
X130380557Y-59690976D02*
X130475795Y-59643357D01*
X130475795Y-59643357D02*
X130618652Y-59643357D01*
X130618652Y-59643357D02*
X130713890Y-59690976D01*
X130713890Y-59690976D02*
X130761509Y-59738595D01*
X130761509Y-59738595D02*
X130809128Y-59833833D01*
X130809128Y-59833833D02*
X130809128Y-60214785D01*
X130380557Y-59262404D02*
X130332938Y-59214785D01*
X130332938Y-59214785D02*
X130285319Y-59119547D01*
X130285319Y-59119547D02*
X130285319Y-58881452D01*
X130285319Y-58881452D02*
X130332938Y-58786214D01*
X130332938Y-58786214D02*
X130380557Y-58738595D01*
X130380557Y-58738595D02*
X130475795Y-58690976D01*
X130475795Y-58690976D02*
X130571033Y-58690976D01*
X130571033Y-58690976D02*
X130713890Y-58738595D01*
X130713890Y-58738595D02*
X131285319Y-59310023D01*
X131285319Y-59310023D02*
X131285319Y-58690976D01*
X130285319Y-58357642D02*
X130285319Y-57738595D01*
X130285319Y-57738595D02*
X130666271Y-58071928D01*
X130666271Y-58071928D02*
X130666271Y-57929071D01*
X130666271Y-57929071D02*
X130713890Y-57833833D01*
X130713890Y-57833833D02*
X130761509Y-57786214D01*
X130761509Y-57786214D02*
X130856747Y-57738595D01*
X130856747Y-57738595D02*
X131094842Y-57738595D01*
X131094842Y-57738595D02*
X131190080Y-57786214D01*
X131190080Y-57786214D02*
X131237700Y-57833833D01*
X131237700Y-57833833D02*
X131285319Y-57929071D01*
X131285319Y-57929071D02*
X131285319Y-58214785D01*
X131285319Y-58214785D02*
X131237700Y-58310023D01*
X131237700Y-58310023D02*
X131190080Y-58357642D01*
X131285319Y-55833357D02*
X130809128Y-56166690D01*
X131285319Y-56404785D02*
X130285319Y-56404785D01*
X130285319Y-56404785D02*
X130285319Y-56023833D01*
X130285319Y-56023833D02*
X130332938Y-55928595D01*
X130332938Y-55928595D02*
X130380557Y-55880976D01*
X130380557Y-55880976D02*
X130475795Y-55833357D01*
X130475795Y-55833357D02*
X130618652Y-55833357D01*
X130618652Y-55833357D02*
X130713890Y-55880976D01*
X130713890Y-55880976D02*
X130761509Y-55928595D01*
X130761509Y-55928595D02*
X130809128Y-56023833D01*
X130809128Y-56023833D02*
X130809128Y-56404785D01*
X130380557Y-55452404D02*
X130332938Y-55404785D01*
X130332938Y-55404785D02*
X130285319Y-55309547D01*
X130285319Y-55309547D02*
X130285319Y-55071452D01*
X130285319Y-55071452D02*
X130332938Y-54976214D01*
X130332938Y-54976214D02*
X130380557Y-54928595D01*
X130380557Y-54928595D02*
X130475795Y-54880976D01*
X130475795Y-54880976D02*
X130571033Y-54880976D01*
X130571033Y-54880976D02*
X130713890Y-54928595D01*
X130713890Y-54928595D02*
X131285319Y-55500023D01*
X131285319Y-55500023D02*
X131285319Y-54880976D01*
X130380557Y-54500023D02*
X130332938Y-54452404D01*
X130332938Y-54452404D02*
X130285319Y-54357166D01*
X130285319Y-54357166D02*
X130285319Y-54119071D01*
X130285319Y-54119071D02*
X130332938Y-54023833D01*
X130332938Y-54023833D02*
X130380557Y-53976214D01*
X130380557Y-53976214D02*
X130475795Y-53928595D01*
X130475795Y-53928595D02*
X130571033Y-53928595D01*
X130571033Y-53928595D02*
X130713890Y-53976214D01*
X130713890Y-53976214D02*
X131285319Y-54547642D01*
X131285319Y-54547642D02*
X131285319Y-53928595D01*
X173630595Y-51414319D02*
X173630595Y-52223842D01*
X173630595Y-52223842D02*
X173678214Y-52319080D01*
X173678214Y-52319080D02*
X173725833Y-52366700D01*
X173725833Y-52366700D02*
X173821071Y-52414319D01*
X173821071Y-52414319D02*
X174011547Y-52414319D01*
X174011547Y-52414319D02*
X174106785Y-52366700D01*
X174106785Y-52366700D02*
X174154404Y-52319080D01*
X174154404Y-52319080D02*
X174202023Y-52223842D01*
X174202023Y-52223842D02*
X174202023Y-51414319D01*
X175202023Y-52414319D02*
X174630595Y-52414319D01*
X174916309Y-52414319D02*
X174916309Y-51414319D01*
X174916309Y-51414319D02*
X174821071Y-51557176D01*
X174821071Y-51557176D02*
X174725833Y-51652414D01*
X174725833Y-51652414D02*
X174630595Y-51700033D01*
X195800952Y-55263319D02*
X195324762Y-55263319D01*
X195324762Y-55263319D02*
X195324762Y-54263319D01*
X196134286Y-54739509D02*
X196467619Y-54739509D01*
X196610476Y-55263319D02*
X196134286Y-55263319D01*
X196134286Y-55263319D02*
X196134286Y-54263319D01*
X196134286Y-54263319D02*
X196610476Y-54263319D01*
X197039048Y-55263319D02*
X197039048Y-54263319D01*
X197039048Y-54263319D02*
X197277143Y-54263319D01*
X197277143Y-54263319D02*
X197420000Y-54310938D01*
X197420000Y-54310938D02*
X197515238Y-54406176D01*
X197515238Y-54406176D02*
X197562857Y-54501414D01*
X197562857Y-54501414D02*
X197610476Y-54691890D01*
X197610476Y-54691890D02*
X197610476Y-54834747D01*
X197610476Y-54834747D02*
X197562857Y-55025223D01*
X197562857Y-55025223D02*
X197515238Y-55120461D01*
X197515238Y-55120461D02*
X197420000Y-55215700D01*
X197420000Y-55215700D02*
X197277143Y-55263319D01*
X197277143Y-55263319D02*
X197039048Y-55263319D01*
X197991429Y-54358557D02*
X198039048Y-54310938D01*
X198039048Y-54310938D02*
X198134286Y-54263319D01*
X198134286Y-54263319D02*
X198372381Y-54263319D01*
X198372381Y-54263319D02*
X198467619Y-54310938D01*
X198467619Y-54310938D02*
X198515238Y-54358557D01*
X198515238Y-54358557D02*
X198562857Y-54453795D01*
X198562857Y-54453795D02*
X198562857Y-54549033D01*
X198562857Y-54549033D02*
X198515238Y-54691890D01*
X198515238Y-54691890D02*
X197943810Y-55263319D01*
X197943810Y-55263319D02*
X198562857Y-55263319D01*
X185941642Y-89742080D02*
X185894023Y-89789700D01*
X185894023Y-89789700D02*
X185751166Y-89837319D01*
X185751166Y-89837319D02*
X185655928Y-89837319D01*
X185655928Y-89837319D02*
X185513071Y-89789700D01*
X185513071Y-89789700D02*
X185417833Y-89694461D01*
X185417833Y-89694461D02*
X185370214Y-89599223D01*
X185370214Y-89599223D02*
X185322595Y-89408747D01*
X185322595Y-89408747D02*
X185322595Y-89265890D01*
X185322595Y-89265890D02*
X185370214Y-89075414D01*
X185370214Y-89075414D02*
X185417833Y-88980176D01*
X185417833Y-88980176D02*
X185513071Y-88884938D01*
X185513071Y-88884938D02*
X185655928Y-88837319D01*
X185655928Y-88837319D02*
X185751166Y-88837319D01*
X185751166Y-88837319D02*
X185894023Y-88884938D01*
X185894023Y-88884938D02*
X185941642Y-88932557D01*
X186894023Y-89837319D02*
X186322595Y-89837319D01*
X186608309Y-89837319D02*
X186608309Y-88837319D01*
X186608309Y-88837319D02*
X186513071Y-88980176D01*
X186513071Y-88980176D02*
X186417833Y-89075414D01*
X186417833Y-89075414D02*
X186322595Y-89123033D01*
X187846404Y-89837319D02*
X187274976Y-89837319D01*
X187560690Y-89837319D02*
X187560690Y-88837319D01*
X187560690Y-88837319D02*
X187465452Y-88980176D01*
X187465452Y-88980176D02*
X187370214Y-89075414D01*
X187370214Y-89075414D02*
X187274976Y-89123033D01*
X86957319Y-56785833D02*
X87671604Y-56785833D01*
X87671604Y-56785833D02*
X87814461Y-56833452D01*
X87814461Y-56833452D02*
X87909700Y-56928690D01*
X87909700Y-56928690D02*
X87957319Y-57071547D01*
X87957319Y-57071547D02*
X87957319Y-57166785D01*
X87957319Y-56309642D02*
X86957319Y-56309642D01*
X86957319Y-56309642D02*
X86957319Y-55928690D01*
X86957319Y-55928690D02*
X87004938Y-55833452D01*
X87004938Y-55833452D02*
X87052557Y-55785833D01*
X87052557Y-55785833D02*
X87147795Y-55738214D01*
X87147795Y-55738214D02*
X87290652Y-55738214D01*
X87290652Y-55738214D02*
X87385890Y-55785833D01*
X87385890Y-55785833D02*
X87433509Y-55833452D01*
X87433509Y-55833452D02*
X87481128Y-55928690D01*
X87481128Y-55928690D02*
X87481128Y-56309642D01*
X87957319Y-54785833D02*
X87957319Y-55357261D01*
X87957319Y-55071547D02*
X86957319Y-55071547D01*
X86957319Y-55071547D02*
X87100176Y-55166785D01*
X87100176Y-55166785D02*
X87195414Y-55262023D01*
X87195414Y-55262023D02*
X87243033Y-55357261D01*
X174225833Y-60294080D02*
X174178214Y-60341700D01*
X174178214Y-60341700D02*
X174035357Y-60389319D01*
X174035357Y-60389319D02*
X173940119Y-60389319D01*
X173940119Y-60389319D02*
X173797262Y-60341700D01*
X173797262Y-60341700D02*
X173702024Y-60246461D01*
X173702024Y-60246461D02*
X173654405Y-60151223D01*
X173654405Y-60151223D02*
X173606786Y-59960747D01*
X173606786Y-59960747D02*
X173606786Y-59817890D01*
X173606786Y-59817890D02*
X173654405Y-59627414D01*
X173654405Y-59627414D02*
X173702024Y-59532176D01*
X173702024Y-59532176D02*
X173797262Y-59436938D01*
X173797262Y-59436938D02*
X173940119Y-59389319D01*
X173940119Y-59389319D02*
X174035357Y-59389319D01*
X174035357Y-59389319D02*
X174178214Y-59436938D01*
X174178214Y-59436938D02*
X174225833Y-59484557D01*
X175178214Y-60389319D02*
X174606786Y-60389319D01*
X174892500Y-60389319D02*
X174892500Y-59389319D01*
X174892500Y-59389319D02*
X174797262Y-59532176D01*
X174797262Y-59532176D02*
X174702024Y-59627414D01*
X174702024Y-59627414D02*
X174606786Y-59675033D01*
X163017557Y-60557238D02*
X162969938Y-60652476D01*
X162969938Y-60652476D02*
X162874700Y-60747714D01*
X162874700Y-60747714D02*
X162731842Y-60890571D01*
X162731842Y-60890571D02*
X162684223Y-60985809D01*
X162684223Y-60985809D02*
X162684223Y-61081047D01*
X162922319Y-61033428D02*
X162874700Y-61128666D01*
X162874700Y-61128666D02*
X162779461Y-61223904D01*
X162779461Y-61223904D02*
X162588985Y-61271523D01*
X162588985Y-61271523D02*
X162255652Y-61271523D01*
X162255652Y-61271523D02*
X162065176Y-61223904D01*
X162065176Y-61223904D02*
X161969938Y-61128666D01*
X161969938Y-61128666D02*
X161922319Y-61033428D01*
X161922319Y-61033428D02*
X161922319Y-60842952D01*
X161922319Y-60842952D02*
X161969938Y-60747714D01*
X161969938Y-60747714D02*
X162065176Y-60652476D01*
X162065176Y-60652476D02*
X162255652Y-60604857D01*
X162255652Y-60604857D02*
X162588985Y-60604857D01*
X162588985Y-60604857D02*
X162779461Y-60652476D01*
X162779461Y-60652476D02*
X162874700Y-60747714D01*
X162874700Y-60747714D02*
X162922319Y-60842952D01*
X162922319Y-60842952D02*
X162922319Y-61033428D01*
X162922319Y-59652476D02*
X162922319Y-60223904D01*
X162922319Y-59938190D02*
X161922319Y-59938190D01*
X161922319Y-59938190D02*
X162065176Y-60033428D01*
X162065176Y-60033428D02*
X162160414Y-60128666D01*
X162160414Y-60128666D02*
X162208033Y-60223904D01*
X174162320Y-64813954D02*
X174971843Y-64813954D01*
X174971843Y-64813954D02*
X175067081Y-64766335D01*
X175067081Y-64766335D02*
X175114701Y-64718716D01*
X175114701Y-64718716D02*
X175162320Y-64623478D01*
X175162320Y-64623478D02*
X175162320Y-64433002D01*
X175162320Y-64433002D02*
X175114701Y-64337764D01*
X175114701Y-64337764D02*
X175067081Y-64290145D01*
X175067081Y-64290145D02*
X174971843Y-64242526D01*
X174971843Y-64242526D02*
X174162320Y-64242526D01*
X174257558Y-63813954D02*
X174209939Y-63766335D01*
X174209939Y-63766335D02*
X174162320Y-63671097D01*
X174162320Y-63671097D02*
X174162320Y-63433002D01*
X174162320Y-63433002D02*
X174209939Y-63337764D01*
X174209939Y-63337764D02*
X174257558Y-63290145D01*
X174257558Y-63290145D02*
X174352796Y-63242526D01*
X174352796Y-63242526D02*
X174448034Y-63242526D01*
X174448034Y-63242526D02*
X174590891Y-63290145D01*
X174590891Y-63290145D02*
X175162320Y-63861573D01*
X175162320Y-63861573D02*
X175162320Y-63242526D01*
X171561320Y-65658599D02*
X171799415Y-65658599D01*
X171704177Y-65896694D02*
X171799415Y-65658599D01*
X171799415Y-65658599D02*
X171704177Y-65420504D01*
X171989891Y-65801456D02*
X171799415Y-65658599D01*
X171799415Y-65658599D02*
X171989891Y-65515742D01*
D12*
X93231928Y-48508028D02*
X93231928Y-47008028D01*
X93231928Y-47008028D02*
X93589071Y-47008028D01*
X93589071Y-47008028D02*
X93803357Y-47079457D01*
X93803357Y-47079457D02*
X93946214Y-47222314D01*
X93946214Y-47222314D02*
X94017643Y-47365171D01*
X94017643Y-47365171D02*
X94089071Y-47650885D01*
X94089071Y-47650885D02*
X94089071Y-47865171D01*
X94089071Y-47865171D02*
X94017643Y-48150885D01*
X94017643Y-48150885D02*
X93946214Y-48293742D01*
X93946214Y-48293742D02*
X93803357Y-48436600D01*
X93803357Y-48436600D02*
X93589071Y-48508028D01*
X93589071Y-48508028D02*
X93231928Y-48508028D01*
X94731928Y-48508028D02*
X94731928Y-47008028D01*
X95374786Y-48436600D02*
X95589072Y-48508028D01*
X95589072Y-48508028D02*
X95946214Y-48508028D01*
X95946214Y-48508028D02*
X96089072Y-48436600D01*
X96089072Y-48436600D02*
X96160500Y-48365171D01*
X96160500Y-48365171D02*
X96231929Y-48222314D01*
X96231929Y-48222314D02*
X96231929Y-48079457D01*
X96231929Y-48079457D02*
X96160500Y-47936600D01*
X96160500Y-47936600D02*
X96089072Y-47865171D01*
X96089072Y-47865171D02*
X95946214Y-47793742D01*
X95946214Y-47793742D02*
X95660500Y-47722314D01*
X95660500Y-47722314D02*
X95517643Y-47650885D01*
X95517643Y-47650885D02*
X95446214Y-47579457D01*
X95446214Y-47579457D02*
X95374786Y-47436600D01*
X95374786Y-47436600D02*
X95374786Y-47293742D01*
X95374786Y-47293742D02*
X95446214Y-47150885D01*
X95446214Y-47150885D02*
X95517643Y-47079457D01*
X95517643Y-47079457D02*
X95660500Y-47008028D01*
X95660500Y-47008028D02*
X96017643Y-47008028D01*
X96017643Y-47008028D02*
X96231929Y-47079457D01*
X96874785Y-48508028D02*
X96874785Y-47008028D01*
X96874785Y-47008028D02*
X97446214Y-47008028D01*
X97446214Y-47008028D02*
X97589071Y-47079457D01*
X97589071Y-47079457D02*
X97660500Y-47150885D01*
X97660500Y-47150885D02*
X97731928Y-47293742D01*
X97731928Y-47293742D02*
X97731928Y-47508028D01*
X97731928Y-47508028D02*
X97660500Y-47650885D01*
X97660500Y-47650885D02*
X97589071Y-47722314D01*
X97589071Y-47722314D02*
X97446214Y-47793742D01*
X97446214Y-47793742D02*
X96874785Y-47793742D01*
X99160500Y-48508028D02*
X98303357Y-48508028D01*
X98731928Y-48508028D02*
X98731928Y-47008028D01*
X98731928Y-47008028D02*
X98589071Y-47222314D01*
X98589071Y-47222314D02*
X98446214Y-47365171D01*
X98446214Y-47365171D02*
X98303357Y-47436600D01*
D10*
X90070306Y-93535751D02*
X90320306Y-93619084D01*
X90320306Y-93619084D02*
X90736973Y-93619084D01*
X90736973Y-93619084D02*
X90903639Y-93535751D01*
X90903639Y-93535751D02*
X90986973Y-93452417D01*
X90986973Y-93452417D02*
X91070306Y-93285751D01*
X91070306Y-93285751D02*
X91070306Y-93119084D01*
X91070306Y-93119084D02*
X90986973Y-92952417D01*
X90986973Y-92952417D02*
X90903639Y-92869084D01*
X90903639Y-92869084D02*
X90736973Y-92785751D01*
X90736973Y-92785751D02*
X90403639Y-92702417D01*
X90403639Y-92702417D02*
X90236973Y-92619084D01*
X90236973Y-92619084D02*
X90153639Y-92535751D01*
X90153639Y-92535751D02*
X90070306Y-92369084D01*
X90070306Y-92369084D02*
X90070306Y-92202417D01*
X90070306Y-92202417D02*
X90153639Y-92035751D01*
X90153639Y-92035751D02*
X90236973Y-91952417D01*
X90236973Y-91952417D02*
X90403639Y-91869084D01*
X90403639Y-91869084D02*
X90820306Y-91869084D01*
X90820306Y-91869084D02*
X91070306Y-91952417D01*
X91820306Y-93619084D02*
X91820306Y-91869084D01*
X91820306Y-91869084D02*
X92236973Y-91869084D01*
X92236973Y-91869084D02*
X92486973Y-91952417D01*
X92486973Y-91952417D02*
X92653640Y-92119084D01*
X92653640Y-92119084D02*
X92736973Y-92285751D01*
X92736973Y-92285751D02*
X92820306Y-92619084D01*
X92820306Y-92619084D02*
X92820306Y-92869084D01*
X92820306Y-92869084D02*
X92736973Y-93202417D01*
X92736973Y-93202417D02*
X92653640Y-93369084D01*
X92653640Y-93369084D02*
X92486973Y-93535751D01*
X92486973Y-93535751D02*
X92236973Y-93619084D01*
X92236973Y-93619084D02*
X91820306Y-93619084D01*
X93153640Y-93785751D02*
X94486973Y-93785751D01*
X95903639Y-93452417D02*
X95820306Y-93535751D01*
X95820306Y-93535751D02*
X95570306Y-93619084D01*
X95570306Y-93619084D02*
X95403639Y-93619084D01*
X95403639Y-93619084D02*
X95153639Y-93535751D01*
X95153639Y-93535751D02*
X94986973Y-93369084D01*
X94986973Y-93369084D02*
X94903639Y-93202417D01*
X94903639Y-93202417D02*
X94820306Y-92869084D01*
X94820306Y-92869084D02*
X94820306Y-92619084D01*
X94820306Y-92619084D02*
X94903639Y-92285751D01*
X94903639Y-92285751D02*
X94986973Y-92119084D01*
X94986973Y-92119084D02*
X95153639Y-91952417D01*
X95153639Y-91952417D02*
X95403639Y-91869084D01*
X95403639Y-91869084D02*
X95570306Y-91869084D01*
X95570306Y-91869084D02*
X95820306Y-91952417D01*
X95820306Y-91952417D02*
X95903639Y-92035751D01*
X96570306Y-93535751D02*
X96820306Y-93619084D01*
X96820306Y-93619084D02*
X97236973Y-93619084D01*
X97236973Y-93619084D02*
X97403639Y-93535751D01*
X97403639Y-93535751D02*
X97486973Y-93452417D01*
X97486973Y-93452417D02*
X97570306Y-93285751D01*
X97570306Y-93285751D02*
X97570306Y-93119084D01*
X97570306Y-93119084D02*
X97486973Y-92952417D01*
X97486973Y-92952417D02*
X97403639Y-92869084D01*
X97403639Y-92869084D02*
X97236973Y-92785751D01*
X97236973Y-92785751D02*
X96903639Y-92702417D01*
X96903639Y-92702417D02*
X96736973Y-92619084D01*
X96736973Y-92619084D02*
X96653639Y-92535751D01*
X96653639Y-92535751D02*
X96570306Y-92369084D01*
X96570306Y-92369084D02*
X96570306Y-92202417D01*
X96570306Y-92202417D02*
X96653639Y-92035751D01*
X96653639Y-92035751D02*
X96736973Y-91952417D01*
X96736973Y-91952417D02*
X96903639Y-91869084D01*
X96903639Y-91869084D02*
X97320306Y-91869084D01*
X97320306Y-91869084D02*
X97570306Y-91952417D01*
X89903639Y-86789084D02*
X90903639Y-86789084D01*
X90403639Y-88539084D02*
X90403639Y-86789084D01*
X91403639Y-88455751D02*
X91653639Y-88539084D01*
X91653639Y-88539084D02*
X92070306Y-88539084D01*
X92070306Y-88539084D02*
X92236972Y-88455751D01*
X92236972Y-88455751D02*
X92320306Y-88372417D01*
X92320306Y-88372417D02*
X92403639Y-88205751D01*
X92403639Y-88205751D02*
X92403639Y-88039084D01*
X92403639Y-88039084D02*
X92320306Y-87872417D01*
X92320306Y-87872417D02*
X92236972Y-87789084D01*
X92236972Y-87789084D02*
X92070306Y-87705751D01*
X92070306Y-87705751D02*
X91736972Y-87622417D01*
X91736972Y-87622417D02*
X91570306Y-87539084D01*
X91570306Y-87539084D02*
X91486972Y-87455751D01*
X91486972Y-87455751D02*
X91403639Y-87289084D01*
X91403639Y-87289084D02*
X91403639Y-87122417D01*
X91403639Y-87122417D02*
X91486972Y-86955751D01*
X91486972Y-86955751D02*
X91570306Y-86872417D01*
X91570306Y-86872417D02*
X91736972Y-86789084D01*
X91736972Y-86789084D02*
X92153639Y-86789084D01*
X92153639Y-86789084D02*
X92403639Y-86872417D01*
X92736973Y-88705751D02*
X94070306Y-88705751D01*
X94403639Y-88455751D02*
X94653639Y-88539084D01*
X94653639Y-88539084D02*
X95070306Y-88539084D01*
X95070306Y-88539084D02*
X95236972Y-88455751D01*
X95236972Y-88455751D02*
X95320306Y-88372417D01*
X95320306Y-88372417D02*
X95403639Y-88205751D01*
X95403639Y-88205751D02*
X95403639Y-88039084D01*
X95403639Y-88039084D02*
X95320306Y-87872417D01*
X95320306Y-87872417D02*
X95236972Y-87789084D01*
X95236972Y-87789084D02*
X95070306Y-87705751D01*
X95070306Y-87705751D02*
X94736972Y-87622417D01*
X94736972Y-87622417D02*
X94570306Y-87539084D01*
X94570306Y-87539084D02*
X94486972Y-87455751D01*
X94486972Y-87455751D02*
X94403639Y-87289084D01*
X94403639Y-87289084D02*
X94403639Y-87122417D01*
X94403639Y-87122417D02*
X94486972Y-86955751D01*
X94486972Y-86955751D02*
X94570306Y-86872417D01*
X94570306Y-86872417D02*
X94736972Y-86789084D01*
X94736972Y-86789084D02*
X95153639Y-86789084D01*
X95153639Y-86789084D02*
X95403639Y-86872417D01*
X96153639Y-88539084D02*
X96153639Y-86789084D01*
X96153639Y-86789084D02*
X96570306Y-86789084D01*
X96570306Y-86789084D02*
X96820306Y-86872417D01*
X96820306Y-86872417D02*
X96986973Y-87039084D01*
X96986973Y-87039084D02*
X97070306Y-87205751D01*
X97070306Y-87205751D02*
X97153639Y-87539084D01*
X97153639Y-87539084D02*
X97153639Y-87789084D01*
X97153639Y-87789084D02*
X97070306Y-88122417D01*
X97070306Y-88122417D02*
X96986973Y-88289084D01*
X96986973Y-88289084D02*
X96820306Y-88455751D01*
X96820306Y-88455751D02*
X96570306Y-88539084D01*
X96570306Y-88539084D02*
X96153639Y-88539084D01*
X97820306Y-88039084D02*
X98653639Y-88039084D01*
X97653639Y-88539084D02*
X98236973Y-86789084D01*
X98236973Y-86789084D02*
X98820306Y-88539084D01*
X89903639Y-81709084D02*
X90903639Y-81709084D01*
X90403639Y-83459084D02*
X90403639Y-81709084D01*
X91403639Y-83375751D02*
X91653639Y-83459084D01*
X91653639Y-83459084D02*
X92070306Y-83459084D01*
X92070306Y-83459084D02*
X92236972Y-83375751D01*
X92236972Y-83375751D02*
X92320306Y-83292417D01*
X92320306Y-83292417D02*
X92403639Y-83125751D01*
X92403639Y-83125751D02*
X92403639Y-82959084D01*
X92403639Y-82959084D02*
X92320306Y-82792417D01*
X92320306Y-82792417D02*
X92236972Y-82709084D01*
X92236972Y-82709084D02*
X92070306Y-82625751D01*
X92070306Y-82625751D02*
X91736972Y-82542417D01*
X91736972Y-82542417D02*
X91570306Y-82459084D01*
X91570306Y-82459084D02*
X91486972Y-82375751D01*
X91486972Y-82375751D02*
X91403639Y-82209084D01*
X91403639Y-82209084D02*
X91403639Y-82042417D01*
X91403639Y-82042417D02*
X91486972Y-81875751D01*
X91486972Y-81875751D02*
X91570306Y-81792417D01*
X91570306Y-81792417D02*
X91736972Y-81709084D01*
X91736972Y-81709084D02*
X92153639Y-81709084D01*
X92153639Y-81709084D02*
X92403639Y-81792417D01*
X92736973Y-83625751D02*
X94070306Y-83625751D01*
X94403639Y-83375751D02*
X94653639Y-83459084D01*
X94653639Y-83459084D02*
X95070306Y-83459084D01*
X95070306Y-83459084D02*
X95236972Y-83375751D01*
X95236972Y-83375751D02*
X95320306Y-83292417D01*
X95320306Y-83292417D02*
X95403639Y-83125751D01*
X95403639Y-83125751D02*
X95403639Y-82959084D01*
X95403639Y-82959084D02*
X95320306Y-82792417D01*
X95320306Y-82792417D02*
X95236972Y-82709084D01*
X95236972Y-82709084D02*
X95070306Y-82625751D01*
X95070306Y-82625751D02*
X94736972Y-82542417D01*
X94736972Y-82542417D02*
X94570306Y-82459084D01*
X94570306Y-82459084D02*
X94486972Y-82375751D01*
X94486972Y-82375751D02*
X94403639Y-82209084D01*
X94403639Y-82209084D02*
X94403639Y-82042417D01*
X94403639Y-82042417D02*
X94486972Y-81875751D01*
X94486972Y-81875751D02*
X94570306Y-81792417D01*
X94570306Y-81792417D02*
X94736972Y-81709084D01*
X94736972Y-81709084D02*
X95153639Y-81709084D01*
X95153639Y-81709084D02*
X95403639Y-81792417D01*
X97153639Y-83292417D02*
X97070306Y-83375751D01*
X97070306Y-83375751D02*
X96820306Y-83459084D01*
X96820306Y-83459084D02*
X96653639Y-83459084D01*
X96653639Y-83459084D02*
X96403639Y-83375751D01*
X96403639Y-83375751D02*
X96236973Y-83209084D01*
X96236973Y-83209084D02*
X96153639Y-83042417D01*
X96153639Y-83042417D02*
X96070306Y-82709084D01*
X96070306Y-82709084D02*
X96070306Y-82459084D01*
X96070306Y-82459084D02*
X96153639Y-82125751D01*
X96153639Y-82125751D02*
X96236973Y-81959084D01*
X96236973Y-81959084D02*
X96403639Y-81792417D01*
X96403639Y-81792417D02*
X96653639Y-81709084D01*
X96653639Y-81709084D02*
X96820306Y-81709084D01*
X96820306Y-81709084D02*
X97070306Y-81792417D01*
X97070306Y-81792417D02*
X97153639Y-81875751D01*
X98736973Y-83459084D02*
X97903639Y-83459084D01*
X97903639Y-83459084D02*
X97903639Y-81709084D01*
X90986973Y-68219084D02*
X90153639Y-68219084D01*
X90153639Y-68219084D02*
X90153639Y-66469084D01*
X92570306Y-68052417D02*
X92486973Y-68135751D01*
X92486973Y-68135751D02*
X92236973Y-68219084D01*
X92236973Y-68219084D02*
X92070306Y-68219084D01*
X92070306Y-68219084D02*
X91820306Y-68135751D01*
X91820306Y-68135751D02*
X91653640Y-67969084D01*
X91653640Y-67969084D02*
X91570306Y-67802417D01*
X91570306Y-67802417D02*
X91486973Y-67469084D01*
X91486973Y-67469084D02*
X91486973Y-67219084D01*
X91486973Y-67219084D02*
X91570306Y-66885751D01*
X91570306Y-66885751D02*
X91653640Y-66719084D01*
X91653640Y-66719084D02*
X91820306Y-66552417D01*
X91820306Y-66552417D02*
X92070306Y-66469084D01*
X92070306Y-66469084D02*
X92236973Y-66469084D01*
X92236973Y-66469084D02*
X92486973Y-66552417D01*
X92486973Y-66552417D02*
X92570306Y-66635751D01*
X93320306Y-68219084D02*
X93320306Y-66469084D01*
X93320306Y-66469084D02*
X93736973Y-66469084D01*
X93736973Y-66469084D02*
X93986973Y-66552417D01*
X93986973Y-66552417D02*
X94153640Y-66719084D01*
X94153640Y-66719084D02*
X94236973Y-66885751D01*
X94236973Y-66885751D02*
X94320306Y-67219084D01*
X94320306Y-67219084D02*
X94320306Y-67469084D01*
X94320306Y-67469084D02*
X94236973Y-67802417D01*
X94236973Y-67802417D02*
X94153640Y-67969084D01*
X94153640Y-67969084D02*
X93986973Y-68135751D01*
X93986973Y-68135751D02*
X93736973Y-68219084D01*
X93736973Y-68219084D02*
X93320306Y-68219084D01*
X94653640Y-68385751D02*
X95986973Y-68385751D01*
X97403639Y-68219084D02*
X96820306Y-67385751D01*
X96403639Y-68219084D02*
X96403639Y-66469084D01*
X96403639Y-66469084D02*
X97070306Y-66469084D01*
X97070306Y-66469084D02*
X97236973Y-66552417D01*
X97236973Y-66552417D02*
X97320306Y-66635751D01*
X97320306Y-66635751D02*
X97403639Y-66802417D01*
X97403639Y-66802417D02*
X97403639Y-67052417D01*
X97403639Y-67052417D02*
X97320306Y-67219084D01*
X97320306Y-67219084D02*
X97236973Y-67302417D01*
X97236973Y-67302417D02*
X97070306Y-67385751D01*
X97070306Y-67385751D02*
X96403639Y-67385751D01*
X98070306Y-68135751D02*
X98320306Y-68219084D01*
X98320306Y-68219084D02*
X98736973Y-68219084D01*
X98736973Y-68219084D02*
X98903639Y-68135751D01*
X98903639Y-68135751D02*
X98986973Y-68052417D01*
X98986973Y-68052417D02*
X99070306Y-67885751D01*
X99070306Y-67885751D02*
X99070306Y-67719084D01*
X99070306Y-67719084D02*
X98986973Y-67552417D01*
X98986973Y-67552417D02*
X98903639Y-67469084D01*
X98903639Y-67469084D02*
X98736973Y-67385751D01*
X98736973Y-67385751D02*
X98403639Y-67302417D01*
X98403639Y-67302417D02*
X98236973Y-67219084D01*
X98236973Y-67219084D02*
X98153639Y-67135751D01*
X98153639Y-67135751D02*
X98070306Y-66969084D01*
X98070306Y-66969084D02*
X98070306Y-66802417D01*
X98070306Y-66802417D02*
X98153639Y-66635751D01*
X98153639Y-66635751D02*
X98236973Y-66552417D01*
X98236973Y-66552417D02*
X98403639Y-66469084D01*
X98403639Y-66469084D02*
X98820306Y-66469084D01*
X98820306Y-66469084D02*
X99070306Y-66552417D01*
X99570306Y-66469084D02*
X100570306Y-66469084D01*
X100070306Y-68219084D02*
X100070306Y-66469084D01*
X90153639Y-80919084D02*
X90153639Y-79169084D01*
X90153639Y-79169084D02*
X90736973Y-80419084D01*
X90736973Y-80419084D02*
X91320306Y-79169084D01*
X91320306Y-79169084D02*
X91320306Y-80919084D01*
X92153639Y-80919084D02*
X92153639Y-79169084D01*
X92903639Y-80835751D02*
X93153639Y-80919084D01*
X93153639Y-80919084D02*
X93570306Y-80919084D01*
X93570306Y-80919084D02*
X93736972Y-80835751D01*
X93736972Y-80835751D02*
X93820306Y-80752417D01*
X93820306Y-80752417D02*
X93903639Y-80585751D01*
X93903639Y-80585751D02*
X93903639Y-80419084D01*
X93903639Y-80419084D02*
X93820306Y-80252417D01*
X93820306Y-80252417D02*
X93736972Y-80169084D01*
X93736972Y-80169084D02*
X93570306Y-80085751D01*
X93570306Y-80085751D02*
X93236972Y-80002417D01*
X93236972Y-80002417D02*
X93070306Y-79919084D01*
X93070306Y-79919084D02*
X92986972Y-79835751D01*
X92986972Y-79835751D02*
X92903639Y-79669084D01*
X92903639Y-79669084D02*
X92903639Y-79502417D01*
X92903639Y-79502417D02*
X92986972Y-79335751D01*
X92986972Y-79335751D02*
X93070306Y-79252417D01*
X93070306Y-79252417D02*
X93236972Y-79169084D01*
X93236972Y-79169084D02*
X93653639Y-79169084D01*
X93653639Y-79169084D02*
X93903639Y-79252417D01*
X94986973Y-79169084D02*
X95320306Y-79169084D01*
X95320306Y-79169084D02*
X95486973Y-79252417D01*
X95486973Y-79252417D02*
X95653639Y-79419084D01*
X95653639Y-79419084D02*
X95736973Y-79752417D01*
X95736973Y-79752417D02*
X95736973Y-80335751D01*
X95736973Y-80335751D02*
X95653639Y-80669084D01*
X95653639Y-80669084D02*
X95486973Y-80835751D01*
X95486973Y-80835751D02*
X95320306Y-80919084D01*
X95320306Y-80919084D02*
X94986973Y-80919084D01*
X94986973Y-80919084D02*
X94820306Y-80835751D01*
X94820306Y-80835751D02*
X94653639Y-80669084D01*
X94653639Y-80669084D02*
X94570306Y-80335751D01*
X94570306Y-80335751D02*
X94570306Y-79752417D01*
X94570306Y-79752417D02*
X94653639Y-79419084D01*
X94653639Y-79419084D02*
X94820306Y-79252417D01*
X94820306Y-79252417D02*
X94986973Y-79169084D01*
X90986973Y-70759084D02*
X90153639Y-70759084D01*
X90153639Y-70759084D02*
X90153639Y-69009084D01*
X92570306Y-70592417D02*
X92486973Y-70675751D01*
X92486973Y-70675751D02*
X92236973Y-70759084D01*
X92236973Y-70759084D02*
X92070306Y-70759084D01*
X92070306Y-70759084D02*
X91820306Y-70675751D01*
X91820306Y-70675751D02*
X91653640Y-70509084D01*
X91653640Y-70509084D02*
X91570306Y-70342417D01*
X91570306Y-70342417D02*
X91486973Y-70009084D01*
X91486973Y-70009084D02*
X91486973Y-69759084D01*
X91486973Y-69759084D02*
X91570306Y-69425751D01*
X91570306Y-69425751D02*
X91653640Y-69259084D01*
X91653640Y-69259084D02*
X91820306Y-69092417D01*
X91820306Y-69092417D02*
X92070306Y-69009084D01*
X92070306Y-69009084D02*
X92236973Y-69009084D01*
X92236973Y-69009084D02*
X92486973Y-69092417D01*
X92486973Y-69092417D02*
X92570306Y-69175751D01*
X93320306Y-70759084D02*
X93320306Y-69009084D01*
X93320306Y-69009084D02*
X93736973Y-69009084D01*
X93736973Y-69009084D02*
X93986973Y-69092417D01*
X93986973Y-69092417D02*
X94153640Y-69259084D01*
X94153640Y-69259084D02*
X94236973Y-69425751D01*
X94236973Y-69425751D02*
X94320306Y-69759084D01*
X94320306Y-69759084D02*
X94320306Y-70009084D01*
X94320306Y-70009084D02*
X94236973Y-70342417D01*
X94236973Y-70342417D02*
X94153640Y-70509084D01*
X94153640Y-70509084D02*
X93986973Y-70675751D01*
X93986973Y-70675751D02*
X93736973Y-70759084D01*
X93736973Y-70759084D02*
X93320306Y-70759084D01*
X94653640Y-70925751D02*
X95986973Y-70925751D01*
X97403639Y-70759084D02*
X96820306Y-69925751D01*
X96403639Y-70759084D02*
X96403639Y-69009084D01*
X96403639Y-69009084D02*
X97070306Y-69009084D01*
X97070306Y-69009084D02*
X97236973Y-69092417D01*
X97236973Y-69092417D02*
X97320306Y-69175751D01*
X97320306Y-69175751D02*
X97403639Y-69342417D01*
X97403639Y-69342417D02*
X97403639Y-69592417D01*
X97403639Y-69592417D02*
X97320306Y-69759084D01*
X97320306Y-69759084D02*
X97236973Y-69842417D01*
X97236973Y-69842417D02*
X97070306Y-69925751D01*
X97070306Y-69925751D02*
X96403639Y-69925751D01*
X98070306Y-70675751D02*
X98320306Y-70759084D01*
X98320306Y-70759084D02*
X98736973Y-70759084D01*
X98736973Y-70759084D02*
X98903639Y-70675751D01*
X98903639Y-70675751D02*
X98986973Y-70592417D01*
X98986973Y-70592417D02*
X99070306Y-70425751D01*
X99070306Y-70425751D02*
X99070306Y-70259084D01*
X99070306Y-70259084D02*
X98986973Y-70092417D01*
X98986973Y-70092417D02*
X98903639Y-70009084D01*
X98903639Y-70009084D02*
X98736973Y-69925751D01*
X98736973Y-69925751D02*
X98403639Y-69842417D01*
X98403639Y-69842417D02*
X98236973Y-69759084D01*
X98236973Y-69759084D02*
X98153639Y-69675751D01*
X98153639Y-69675751D02*
X98070306Y-69509084D01*
X98070306Y-69509084D02*
X98070306Y-69342417D01*
X98070306Y-69342417D02*
X98153639Y-69175751D01*
X98153639Y-69175751D02*
X98236973Y-69092417D01*
X98236973Y-69092417D02*
X98403639Y-69009084D01*
X98403639Y-69009084D02*
X98820306Y-69009084D01*
X98820306Y-69009084D02*
X99070306Y-69092417D01*
X89903639Y-58849084D02*
X90486973Y-60599084D01*
X90486973Y-60599084D02*
X91070306Y-58849084D01*
X92653639Y-60432417D02*
X92570306Y-60515751D01*
X92570306Y-60515751D02*
X92320306Y-60599084D01*
X92320306Y-60599084D02*
X92153639Y-60599084D01*
X92153639Y-60599084D02*
X91903639Y-60515751D01*
X91903639Y-60515751D02*
X91736973Y-60349084D01*
X91736973Y-60349084D02*
X91653639Y-60182417D01*
X91653639Y-60182417D02*
X91570306Y-59849084D01*
X91570306Y-59849084D02*
X91570306Y-59599084D01*
X91570306Y-59599084D02*
X91653639Y-59265751D01*
X91653639Y-59265751D02*
X91736973Y-59099084D01*
X91736973Y-59099084D02*
X91903639Y-58932417D01*
X91903639Y-58932417D02*
X92153639Y-58849084D01*
X92153639Y-58849084D02*
X92320306Y-58849084D01*
X92320306Y-58849084D02*
X92570306Y-58932417D01*
X92570306Y-58932417D02*
X92653639Y-59015751D01*
X94403639Y-60432417D02*
X94320306Y-60515751D01*
X94320306Y-60515751D02*
X94070306Y-60599084D01*
X94070306Y-60599084D02*
X93903639Y-60599084D01*
X93903639Y-60599084D02*
X93653639Y-60515751D01*
X93653639Y-60515751D02*
X93486973Y-60349084D01*
X93486973Y-60349084D02*
X93403639Y-60182417D01*
X93403639Y-60182417D02*
X93320306Y-59849084D01*
X93320306Y-59849084D02*
X93320306Y-59599084D01*
X93320306Y-59599084D02*
X93403639Y-59265751D01*
X93403639Y-59265751D02*
X93486973Y-59099084D01*
X93486973Y-59099084D02*
X93653639Y-58932417D01*
X93653639Y-58932417D02*
X93903639Y-58849084D01*
X93903639Y-58849084D02*
X94070306Y-58849084D01*
X94070306Y-58849084D02*
X94320306Y-58932417D01*
X94320306Y-58932417D02*
X94403639Y-59015751D01*
X89903639Y-84249084D02*
X90903639Y-84249084D01*
X90403639Y-85999084D02*
X90403639Y-84249084D01*
X91403639Y-85915751D02*
X91653639Y-85999084D01*
X91653639Y-85999084D02*
X92070306Y-85999084D01*
X92070306Y-85999084D02*
X92236972Y-85915751D01*
X92236972Y-85915751D02*
X92320306Y-85832417D01*
X92320306Y-85832417D02*
X92403639Y-85665751D01*
X92403639Y-85665751D02*
X92403639Y-85499084D01*
X92403639Y-85499084D02*
X92320306Y-85332417D01*
X92320306Y-85332417D02*
X92236972Y-85249084D01*
X92236972Y-85249084D02*
X92070306Y-85165751D01*
X92070306Y-85165751D02*
X91736972Y-85082417D01*
X91736972Y-85082417D02*
X91570306Y-84999084D01*
X91570306Y-84999084D02*
X91486972Y-84915751D01*
X91486972Y-84915751D02*
X91403639Y-84749084D01*
X91403639Y-84749084D02*
X91403639Y-84582417D01*
X91403639Y-84582417D02*
X91486972Y-84415751D01*
X91486972Y-84415751D02*
X91570306Y-84332417D01*
X91570306Y-84332417D02*
X91736972Y-84249084D01*
X91736972Y-84249084D02*
X92153639Y-84249084D01*
X92153639Y-84249084D02*
X92403639Y-84332417D01*
X92736973Y-86165751D02*
X94070306Y-86165751D01*
X95486972Y-85999084D02*
X94903639Y-85165751D01*
X94486972Y-85999084D02*
X94486972Y-84249084D01*
X94486972Y-84249084D02*
X95153639Y-84249084D01*
X95153639Y-84249084D02*
X95320306Y-84332417D01*
X95320306Y-84332417D02*
X95403639Y-84415751D01*
X95403639Y-84415751D02*
X95486972Y-84582417D01*
X95486972Y-84582417D02*
X95486972Y-84832417D01*
X95486972Y-84832417D02*
X95403639Y-84999084D01*
X95403639Y-84999084D02*
X95320306Y-85082417D01*
X95320306Y-85082417D02*
X95153639Y-85165751D01*
X95153639Y-85165751D02*
X94486972Y-85165751D01*
X96153639Y-85915751D02*
X96403639Y-85999084D01*
X96403639Y-85999084D02*
X96820306Y-85999084D01*
X96820306Y-85999084D02*
X96986972Y-85915751D01*
X96986972Y-85915751D02*
X97070306Y-85832417D01*
X97070306Y-85832417D02*
X97153639Y-85665751D01*
X97153639Y-85665751D02*
X97153639Y-85499084D01*
X97153639Y-85499084D02*
X97070306Y-85332417D01*
X97070306Y-85332417D02*
X96986972Y-85249084D01*
X96986972Y-85249084D02*
X96820306Y-85165751D01*
X96820306Y-85165751D02*
X96486972Y-85082417D01*
X96486972Y-85082417D02*
X96320306Y-84999084D01*
X96320306Y-84999084D02*
X96236972Y-84915751D01*
X96236972Y-84915751D02*
X96153639Y-84749084D01*
X96153639Y-84749084D02*
X96153639Y-84582417D01*
X96153639Y-84582417D02*
X96236972Y-84415751D01*
X96236972Y-84415751D02*
X96320306Y-84332417D01*
X96320306Y-84332417D02*
X96486972Y-84249084D01*
X96486972Y-84249084D02*
X96903639Y-84249084D01*
X96903639Y-84249084D02*
X97153639Y-84332417D01*
X97653639Y-84249084D02*
X98653639Y-84249084D01*
X98153639Y-85999084D02*
X98153639Y-84249084D01*
X90070306Y-75755751D02*
X90320306Y-75839084D01*
X90320306Y-75839084D02*
X90736973Y-75839084D01*
X90736973Y-75839084D02*
X90903639Y-75755751D01*
X90903639Y-75755751D02*
X90986973Y-75672417D01*
X90986973Y-75672417D02*
X91070306Y-75505751D01*
X91070306Y-75505751D02*
X91070306Y-75339084D01*
X91070306Y-75339084D02*
X90986973Y-75172417D01*
X90986973Y-75172417D02*
X90903639Y-75089084D01*
X90903639Y-75089084D02*
X90736973Y-75005751D01*
X90736973Y-75005751D02*
X90403639Y-74922417D01*
X90403639Y-74922417D02*
X90236973Y-74839084D01*
X90236973Y-74839084D02*
X90153639Y-74755751D01*
X90153639Y-74755751D02*
X90070306Y-74589084D01*
X90070306Y-74589084D02*
X90070306Y-74422417D01*
X90070306Y-74422417D02*
X90153639Y-74255751D01*
X90153639Y-74255751D02*
X90236973Y-74172417D01*
X90236973Y-74172417D02*
X90403639Y-74089084D01*
X90403639Y-74089084D02*
X90820306Y-74089084D01*
X90820306Y-74089084D02*
X91070306Y-74172417D01*
X92820306Y-75672417D02*
X92736973Y-75755751D01*
X92736973Y-75755751D02*
X92486973Y-75839084D01*
X92486973Y-75839084D02*
X92320306Y-75839084D01*
X92320306Y-75839084D02*
X92070306Y-75755751D01*
X92070306Y-75755751D02*
X91903640Y-75589084D01*
X91903640Y-75589084D02*
X91820306Y-75422417D01*
X91820306Y-75422417D02*
X91736973Y-75089084D01*
X91736973Y-75089084D02*
X91736973Y-74839084D01*
X91736973Y-74839084D02*
X91820306Y-74505751D01*
X91820306Y-74505751D02*
X91903640Y-74339084D01*
X91903640Y-74339084D02*
X92070306Y-74172417D01*
X92070306Y-74172417D02*
X92320306Y-74089084D01*
X92320306Y-74089084D02*
X92486973Y-74089084D01*
X92486973Y-74089084D02*
X92736973Y-74172417D01*
X92736973Y-74172417D02*
X92820306Y-74255751D01*
X93570306Y-75839084D02*
X93570306Y-74089084D01*
X94570306Y-75839084D02*
X93820306Y-74839084D01*
X94570306Y-74089084D02*
X93570306Y-75089084D01*
X89903639Y-89329084D02*
X90903639Y-89329084D01*
X90403639Y-91079084D02*
X90403639Y-89329084D01*
X91403639Y-90995751D02*
X91653639Y-91079084D01*
X91653639Y-91079084D02*
X92070306Y-91079084D01*
X92070306Y-91079084D02*
X92236972Y-90995751D01*
X92236972Y-90995751D02*
X92320306Y-90912417D01*
X92320306Y-90912417D02*
X92403639Y-90745751D01*
X92403639Y-90745751D02*
X92403639Y-90579084D01*
X92403639Y-90579084D02*
X92320306Y-90412417D01*
X92320306Y-90412417D02*
X92236972Y-90329084D01*
X92236972Y-90329084D02*
X92070306Y-90245751D01*
X92070306Y-90245751D02*
X91736972Y-90162417D01*
X91736972Y-90162417D02*
X91570306Y-90079084D01*
X91570306Y-90079084D02*
X91486972Y-89995751D01*
X91486972Y-89995751D02*
X91403639Y-89829084D01*
X91403639Y-89829084D02*
X91403639Y-89662417D01*
X91403639Y-89662417D02*
X91486972Y-89495751D01*
X91486972Y-89495751D02*
X91570306Y-89412417D01*
X91570306Y-89412417D02*
X91736972Y-89329084D01*
X91736972Y-89329084D02*
X92153639Y-89329084D01*
X92153639Y-89329084D02*
X92403639Y-89412417D01*
X92736973Y-91245751D02*
X94070306Y-91245751D01*
X94486972Y-91079084D02*
X94486972Y-89329084D01*
X95320305Y-91079084D02*
X95320305Y-89329084D01*
X95320305Y-89329084D02*
X96320305Y-91079084D01*
X96320305Y-91079084D02*
X96320305Y-89329084D01*
X96903638Y-89329084D02*
X97903638Y-89329084D01*
X97403638Y-91079084D02*
X97403638Y-89329084D01*
X91070306Y-61472417D02*
X90903639Y-61389084D01*
X90903639Y-61389084D02*
X90653639Y-61389084D01*
X90653639Y-61389084D02*
X90403639Y-61472417D01*
X90403639Y-61472417D02*
X90236973Y-61639084D01*
X90236973Y-61639084D02*
X90153639Y-61805751D01*
X90153639Y-61805751D02*
X90070306Y-62139084D01*
X90070306Y-62139084D02*
X90070306Y-62389084D01*
X90070306Y-62389084D02*
X90153639Y-62722417D01*
X90153639Y-62722417D02*
X90236973Y-62889084D01*
X90236973Y-62889084D02*
X90403639Y-63055751D01*
X90403639Y-63055751D02*
X90653639Y-63139084D01*
X90653639Y-63139084D02*
X90820306Y-63139084D01*
X90820306Y-63139084D02*
X91070306Y-63055751D01*
X91070306Y-63055751D02*
X91153639Y-62972417D01*
X91153639Y-62972417D02*
X91153639Y-62389084D01*
X91153639Y-62389084D02*
X90820306Y-62389084D01*
X91903639Y-63139084D02*
X91903639Y-61389084D01*
X91903639Y-61389084D02*
X92903639Y-63139084D01*
X92903639Y-63139084D02*
X92903639Y-61389084D01*
X93736972Y-63139084D02*
X93736972Y-61389084D01*
X93736972Y-61389084D02*
X94153639Y-61389084D01*
X94153639Y-61389084D02*
X94403639Y-61472417D01*
X94403639Y-61472417D02*
X94570306Y-61639084D01*
X94570306Y-61639084D02*
X94653639Y-61805751D01*
X94653639Y-61805751D02*
X94736972Y-62139084D01*
X94736972Y-62139084D02*
X94736972Y-62389084D01*
X94736972Y-62389084D02*
X94653639Y-62722417D01*
X94653639Y-62722417D02*
X94570306Y-62889084D01*
X94570306Y-62889084D02*
X94403639Y-63055751D01*
X94403639Y-63055751D02*
X94153639Y-63139084D01*
X94153639Y-63139084D02*
X93736972Y-63139084D01*
X90986973Y-65679084D02*
X90153639Y-65679084D01*
X90153639Y-65679084D02*
X90153639Y-63929084D01*
X92570306Y-65512417D02*
X92486973Y-65595751D01*
X92486973Y-65595751D02*
X92236973Y-65679084D01*
X92236973Y-65679084D02*
X92070306Y-65679084D01*
X92070306Y-65679084D02*
X91820306Y-65595751D01*
X91820306Y-65595751D02*
X91653640Y-65429084D01*
X91653640Y-65429084D02*
X91570306Y-65262417D01*
X91570306Y-65262417D02*
X91486973Y-64929084D01*
X91486973Y-64929084D02*
X91486973Y-64679084D01*
X91486973Y-64679084D02*
X91570306Y-64345751D01*
X91570306Y-64345751D02*
X91653640Y-64179084D01*
X91653640Y-64179084D02*
X91820306Y-64012417D01*
X91820306Y-64012417D02*
X92070306Y-63929084D01*
X92070306Y-63929084D02*
X92236973Y-63929084D01*
X92236973Y-63929084D02*
X92486973Y-64012417D01*
X92486973Y-64012417D02*
X92570306Y-64095751D01*
X93320306Y-65679084D02*
X93320306Y-63929084D01*
X93320306Y-63929084D02*
X93736973Y-63929084D01*
X93736973Y-63929084D02*
X93986973Y-64012417D01*
X93986973Y-64012417D02*
X94153640Y-64179084D01*
X94153640Y-64179084D02*
X94236973Y-64345751D01*
X94236973Y-64345751D02*
X94320306Y-64679084D01*
X94320306Y-64679084D02*
X94320306Y-64929084D01*
X94320306Y-64929084D02*
X94236973Y-65262417D01*
X94236973Y-65262417D02*
X94153640Y-65429084D01*
X94153640Y-65429084D02*
X93986973Y-65595751D01*
X93986973Y-65595751D02*
X93736973Y-65679084D01*
X93736973Y-65679084D02*
X93320306Y-65679084D01*
X94653640Y-65845751D02*
X95986973Y-65845751D01*
X97403639Y-65512417D02*
X97320306Y-65595751D01*
X97320306Y-65595751D02*
X97070306Y-65679084D01*
X97070306Y-65679084D02*
X96903639Y-65679084D01*
X96903639Y-65679084D02*
X96653639Y-65595751D01*
X96653639Y-65595751D02*
X96486973Y-65429084D01*
X96486973Y-65429084D02*
X96403639Y-65262417D01*
X96403639Y-65262417D02*
X96320306Y-64929084D01*
X96320306Y-64929084D02*
X96320306Y-64679084D01*
X96320306Y-64679084D02*
X96403639Y-64345751D01*
X96403639Y-64345751D02*
X96486973Y-64179084D01*
X96486973Y-64179084D02*
X96653639Y-64012417D01*
X96653639Y-64012417D02*
X96903639Y-63929084D01*
X96903639Y-63929084D02*
X97070306Y-63929084D01*
X97070306Y-63929084D02*
X97320306Y-64012417D01*
X97320306Y-64012417D02*
X97403639Y-64095751D01*
X98070306Y-65595751D02*
X98320306Y-65679084D01*
X98320306Y-65679084D02*
X98736973Y-65679084D01*
X98736973Y-65679084D02*
X98903639Y-65595751D01*
X98903639Y-65595751D02*
X98986973Y-65512417D01*
X98986973Y-65512417D02*
X99070306Y-65345751D01*
X99070306Y-65345751D02*
X99070306Y-65179084D01*
X99070306Y-65179084D02*
X98986973Y-65012417D01*
X98986973Y-65012417D02*
X98903639Y-64929084D01*
X98903639Y-64929084D02*
X98736973Y-64845751D01*
X98736973Y-64845751D02*
X98403639Y-64762417D01*
X98403639Y-64762417D02*
X98236973Y-64679084D01*
X98236973Y-64679084D02*
X98153639Y-64595751D01*
X98153639Y-64595751D02*
X98070306Y-64429084D01*
X98070306Y-64429084D02*
X98070306Y-64262417D01*
X98070306Y-64262417D02*
X98153639Y-64095751D01*
X98153639Y-64095751D02*
X98236973Y-64012417D01*
X98236973Y-64012417D02*
X98403639Y-63929084D01*
X98403639Y-63929084D02*
X98820306Y-63929084D01*
X98820306Y-63929084D02*
X99070306Y-64012417D01*
X90153639Y-73299084D02*
X90153639Y-71549084D01*
X90153639Y-71549084D02*
X90736973Y-72799084D01*
X90736973Y-72799084D02*
X91320306Y-71549084D01*
X91320306Y-71549084D02*
X91320306Y-73299084D01*
X92486973Y-71549084D02*
X92820306Y-71549084D01*
X92820306Y-71549084D02*
X92986973Y-71632417D01*
X92986973Y-71632417D02*
X93153639Y-71799084D01*
X93153639Y-71799084D02*
X93236973Y-72132417D01*
X93236973Y-72132417D02*
X93236973Y-72715751D01*
X93236973Y-72715751D02*
X93153639Y-73049084D01*
X93153639Y-73049084D02*
X92986973Y-73215751D01*
X92986973Y-73215751D02*
X92820306Y-73299084D01*
X92820306Y-73299084D02*
X92486973Y-73299084D01*
X92486973Y-73299084D02*
X92320306Y-73215751D01*
X92320306Y-73215751D02*
X92153639Y-73049084D01*
X92153639Y-73049084D02*
X92070306Y-72715751D01*
X92070306Y-72715751D02*
X92070306Y-72132417D01*
X92070306Y-72132417D02*
X92153639Y-71799084D01*
X92153639Y-71799084D02*
X92320306Y-71632417D01*
X92320306Y-71632417D02*
X92486973Y-71549084D01*
X93903639Y-73215751D02*
X94153639Y-73299084D01*
X94153639Y-73299084D02*
X94570306Y-73299084D01*
X94570306Y-73299084D02*
X94736972Y-73215751D01*
X94736972Y-73215751D02*
X94820306Y-73132417D01*
X94820306Y-73132417D02*
X94903639Y-72965751D01*
X94903639Y-72965751D02*
X94903639Y-72799084D01*
X94903639Y-72799084D02*
X94820306Y-72632417D01*
X94820306Y-72632417D02*
X94736972Y-72549084D01*
X94736972Y-72549084D02*
X94570306Y-72465751D01*
X94570306Y-72465751D02*
X94236972Y-72382417D01*
X94236972Y-72382417D02*
X94070306Y-72299084D01*
X94070306Y-72299084D02*
X93986972Y-72215751D01*
X93986972Y-72215751D02*
X93903639Y-72049084D01*
X93903639Y-72049084D02*
X93903639Y-71882417D01*
X93903639Y-71882417D02*
X93986972Y-71715751D01*
X93986972Y-71715751D02*
X94070306Y-71632417D01*
X94070306Y-71632417D02*
X94236972Y-71549084D01*
X94236972Y-71549084D02*
X94653639Y-71549084D01*
X94653639Y-71549084D02*
X94903639Y-71632417D01*
X95653639Y-73299084D02*
X95653639Y-71549084D01*
X90986973Y-78379084D02*
X90153639Y-78379084D01*
X90153639Y-78379084D02*
X90153639Y-76629084D01*
X91570306Y-77462417D02*
X92153640Y-77462417D01*
X92403640Y-78379084D02*
X91570306Y-78379084D01*
X91570306Y-78379084D02*
X91570306Y-76629084D01*
X91570306Y-76629084D02*
X92403640Y-76629084D01*
X93153639Y-78379084D02*
X93153639Y-76629084D01*
X93153639Y-76629084D02*
X93570306Y-76629084D01*
X93570306Y-76629084D02*
X93820306Y-76712417D01*
X93820306Y-76712417D02*
X93986973Y-76879084D01*
X93986973Y-76879084D02*
X94070306Y-77045751D01*
X94070306Y-77045751D02*
X94153639Y-77379084D01*
X94153639Y-77379084D02*
X94153639Y-77629084D01*
X94153639Y-77629084D02*
X94070306Y-77962417D01*
X94070306Y-77962417D02*
X93986973Y-78129084D01*
X93986973Y-78129084D02*
X93820306Y-78295751D01*
X93820306Y-78295751D02*
X93570306Y-78379084D01*
X93570306Y-78379084D02*
X93153639Y-78379084D01*
D11*
X176487642Y-82728080D02*
X176440023Y-82775700D01*
X176440023Y-82775700D02*
X176297166Y-82823319D01*
X176297166Y-82823319D02*
X176201928Y-82823319D01*
X176201928Y-82823319D02*
X176059071Y-82775700D01*
X176059071Y-82775700D02*
X175963833Y-82680461D01*
X175963833Y-82680461D02*
X175916214Y-82585223D01*
X175916214Y-82585223D02*
X175868595Y-82394747D01*
X175868595Y-82394747D02*
X175868595Y-82251890D01*
X175868595Y-82251890D02*
X175916214Y-82061414D01*
X175916214Y-82061414D02*
X175963833Y-81966176D01*
X175963833Y-81966176D02*
X176059071Y-81870938D01*
X176059071Y-81870938D02*
X176201928Y-81823319D01*
X176201928Y-81823319D02*
X176297166Y-81823319D01*
X176297166Y-81823319D02*
X176440023Y-81870938D01*
X176440023Y-81870938D02*
X176487642Y-81918557D01*
X177440023Y-82823319D02*
X176868595Y-82823319D01*
X177154309Y-82823319D02*
X177154309Y-81823319D01*
X177154309Y-81823319D02*
X177059071Y-81966176D01*
X177059071Y-81966176D02*
X176963833Y-82061414D01*
X176963833Y-82061414D02*
X176868595Y-82109033D01*
X178059071Y-81823319D02*
X178154309Y-81823319D01*
X178154309Y-81823319D02*
X178249547Y-81870938D01*
X178249547Y-81870938D02*
X178297166Y-81918557D01*
X178297166Y-81918557D02*
X178344785Y-82013795D01*
X178344785Y-82013795D02*
X178392404Y-82204271D01*
X178392404Y-82204271D02*
X178392404Y-82442366D01*
X178392404Y-82442366D02*
X178344785Y-82632842D01*
X178344785Y-82632842D02*
X178297166Y-82728080D01*
X178297166Y-82728080D02*
X178249547Y-82775700D01*
X178249547Y-82775700D02*
X178154309Y-82823319D01*
X178154309Y-82823319D02*
X178059071Y-82823319D01*
X178059071Y-82823319D02*
X177963833Y-82775700D01*
X177963833Y-82775700D02*
X177916214Y-82728080D01*
X177916214Y-82728080D02*
X177868595Y-82632842D01*
X177868595Y-82632842D02*
X177820976Y-82442366D01*
X177820976Y-82442366D02*
X177820976Y-82204271D01*
X177820976Y-82204271D02*
X177868595Y-82013795D01*
X177868595Y-82013795D02*
X177916214Y-81918557D01*
X177916214Y-81918557D02*
X177963833Y-81870938D01*
X177963833Y-81870938D02*
X178059071Y-81823319D01*
X125699319Y-93933357D02*
X125223128Y-94266690D01*
X125699319Y-94504785D02*
X124699319Y-94504785D01*
X124699319Y-94504785D02*
X124699319Y-94123833D01*
X124699319Y-94123833D02*
X124746938Y-94028595D01*
X124746938Y-94028595D02*
X124794557Y-93980976D01*
X124794557Y-93980976D02*
X124889795Y-93933357D01*
X124889795Y-93933357D02*
X125032652Y-93933357D01*
X125032652Y-93933357D02*
X125127890Y-93980976D01*
X125127890Y-93980976D02*
X125175509Y-94028595D01*
X125175509Y-94028595D02*
X125223128Y-94123833D01*
X125223128Y-94123833D02*
X125223128Y-94504785D01*
X125699319Y-92980976D02*
X125699319Y-93552404D01*
X125699319Y-93266690D02*
X124699319Y-93266690D01*
X124699319Y-93266690D02*
X124842176Y-93361928D01*
X124842176Y-93361928D02*
X124937414Y-93457166D01*
X124937414Y-93457166D02*
X124985033Y-93552404D01*
X125699319Y-92504785D02*
X125699319Y-92314309D01*
X125699319Y-92314309D02*
X125651700Y-92219071D01*
X125651700Y-92219071D02*
X125604080Y-92171452D01*
X125604080Y-92171452D02*
X125461223Y-92076214D01*
X125461223Y-92076214D02*
X125270747Y-92028595D01*
X125270747Y-92028595D02*
X124889795Y-92028595D01*
X124889795Y-92028595D02*
X124794557Y-92076214D01*
X124794557Y-92076214D02*
X124746938Y-92123833D01*
X124746938Y-92123833D02*
X124699319Y-92219071D01*
X124699319Y-92219071D02*
X124699319Y-92409547D01*
X124699319Y-92409547D02*
X124746938Y-92504785D01*
X124746938Y-92504785D02*
X124794557Y-92552404D01*
X124794557Y-92552404D02*
X124889795Y-92600023D01*
X124889795Y-92600023D02*
X125127890Y-92600023D01*
X125127890Y-92600023D02*
X125223128Y-92552404D01*
X125223128Y-92552404D02*
X125270747Y-92504785D01*
X125270747Y-92504785D02*
X125318366Y-92409547D01*
X125318366Y-92409547D02*
X125318366Y-92219071D01*
X125318366Y-92219071D02*
X125270747Y-92123833D01*
X125270747Y-92123833D02*
X125223128Y-92076214D01*
X125223128Y-92076214D02*
X125127890Y-92028595D01*
X191243833Y-57550319D02*
X190910500Y-57074128D01*
X190672405Y-57550319D02*
X190672405Y-56550319D01*
X190672405Y-56550319D02*
X191053357Y-56550319D01*
X191053357Y-56550319D02*
X191148595Y-56597938D01*
X191148595Y-56597938D02*
X191196214Y-56645557D01*
X191196214Y-56645557D02*
X191243833Y-56740795D01*
X191243833Y-56740795D02*
X191243833Y-56883652D01*
X191243833Y-56883652D02*
X191196214Y-56978890D01*
X191196214Y-56978890D02*
X191148595Y-57026509D01*
X191148595Y-57026509D02*
X191053357Y-57074128D01*
X191053357Y-57074128D02*
X190672405Y-57074128D01*
X192196214Y-57550319D02*
X191624786Y-57550319D01*
X191910500Y-57550319D02*
X191910500Y-56550319D01*
X191910500Y-56550319D02*
X191815262Y-56693176D01*
X191815262Y-56693176D02*
X191720024Y-56788414D01*
X191720024Y-56788414D02*
X191624786Y-56836033D01*
X162319642Y-106827319D02*
X161986309Y-106351128D01*
X161748214Y-106827319D02*
X161748214Y-105827319D01*
X161748214Y-105827319D02*
X162129166Y-105827319D01*
X162129166Y-105827319D02*
X162224404Y-105874938D01*
X162224404Y-105874938D02*
X162272023Y-105922557D01*
X162272023Y-105922557D02*
X162319642Y-106017795D01*
X162319642Y-106017795D02*
X162319642Y-106160652D01*
X162319642Y-106160652D02*
X162272023Y-106255890D01*
X162272023Y-106255890D02*
X162224404Y-106303509D01*
X162224404Y-106303509D02*
X162129166Y-106351128D01*
X162129166Y-106351128D02*
X161748214Y-106351128D01*
X163272023Y-106827319D02*
X162700595Y-106827319D01*
X162986309Y-106827319D02*
X162986309Y-105827319D01*
X162986309Y-105827319D02*
X162891071Y-105970176D01*
X162891071Y-105970176D02*
X162795833Y-106065414D01*
X162795833Y-106065414D02*
X162700595Y-106113033D01*
X164176785Y-105827319D02*
X163700595Y-105827319D01*
X163700595Y-105827319D02*
X163652976Y-106303509D01*
X163652976Y-106303509D02*
X163700595Y-106255890D01*
X163700595Y-106255890D02*
X163795833Y-106208271D01*
X163795833Y-106208271D02*
X164033928Y-106208271D01*
X164033928Y-106208271D02*
X164129166Y-106255890D01*
X164129166Y-106255890D02*
X164176785Y-106303509D01*
X164176785Y-106303509D02*
X164224404Y-106398747D01*
X164224404Y-106398747D02*
X164224404Y-106636842D01*
X164224404Y-106636842D02*
X164176785Y-106732080D01*
X164176785Y-106732080D02*
X164129166Y-106779700D01*
X164129166Y-106779700D02*
X164033928Y-106827319D01*
X164033928Y-106827319D02*
X163795833Y-106827319D01*
X163795833Y-106827319D02*
X163700595Y-106779700D01*
X163700595Y-106779700D02*
X163652976Y-106732080D01*
X131744405Y-77322319D02*
X131744405Y-76322319D01*
X131744405Y-76322319D02*
X131982500Y-76322319D01*
X131982500Y-76322319D02*
X132125357Y-76369938D01*
X132125357Y-76369938D02*
X132220595Y-76465176D01*
X132220595Y-76465176D02*
X132268214Y-76560414D01*
X132268214Y-76560414D02*
X132315833Y-76750890D01*
X132315833Y-76750890D02*
X132315833Y-76893747D01*
X132315833Y-76893747D02*
X132268214Y-77084223D01*
X132268214Y-77084223D02*
X132220595Y-77179461D01*
X132220595Y-77179461D02*
X132125357Y-77274700D01*
X132125357Y-77274700D02*
X131982500Y-77322319D01*
X131982500Y-77322319D02*
X131744405Y-77322319D01*
X133172976Y-76322319D02*
X132982500Y-76322319D01*
X132982500Y-76322319D02*
X132887262Y-76369938D01*
X132887262Y-76369938D02*
X132839643Y-76417557D01*
X132839643Y-76417557D02*
X132744405Y-76560414D01*
X132744405Y-76560414D02*
X132696786Y-76750890D01*
X132696786Y-76750890D02*
X132696786Y-77131842D01*
X132696786Y-77131842D02*
X132744405Y-77227080D01*
X132744405Y-77227080D02*
X132792024Y-77274700D01*
X132792024Y-77274700D02*
X132887262Y-77322319D01*
X132887262Y-77322319D02*
X133077738Y-77322319D01*
X133077738Y-77322319D02*
X133172976Y-77274700D01*
X133172976Y-77274700D02*
X133220595Y-77227080D01*
X133220595Y-77227080D02*
X133268214Y-77131842D01*
X133268214Y-77131842D02*
X133268214Y-76893747D01*
X133268214Y-76893747D02*
X133220595Y-76798509D01*
X133220595Y-76798509D02*
X133172976Y-76750890D01*
X133172976Y-76750890D02*
X133077738Y-76703271D01*
X133077738Y-76703271D02*
X132887262Y-76703271D01*
X132887262Y-76703271D02*
X132792024Y-76750890D01*
X132792024Y-76750890D02*
X132744405Y-76798509D01*
X132744405Y-76798509D02*
X132696786Y-76893747D01*
X197085833Y-70507080D02*
X197038214Y-70554700D01*
X197038214Y-70554700D02*
X196895357Y-70602319D01*
X196895357Y-70602319D02*
X196800119Y-70602319D01*
X196800119Y-70602319D02*
X196657262Y-70554700D01*
X196657262Y-70554700D02*
X196562024Y-70459461D01*
X196562024Y-70459461D02*
X196514405Y-70364223D01*
X196514405Y-70364223D02*
X196466786Y-70173747D01*
X196466786Y-70173747D02*
X196466786Y-70030890D01*
X196466786Y-70030890D02*
X196514405Y-69840414D01*
X196514405Y-69840414D02*
X196562024Y-69745176D01*
X196562024Y-69745176D02*
X196657262Y-69649938D01*
X196657262Y-69649938D02*
X196800119Y-69602319D01*
X196800119Y-69602319D02*
X196895357Y-69602319D01*
X196895357Y-69602319D02*
X197038214Y-69649938D01*
X197038214Y-69649938D02*
X197085833Y-69697557D01*
X197942976Y-69602319D02*
X197752500Y-69602319D01*
X197752500Y-69602319D02*
X197657262Y-69649938D01*
X197657262Y-69649938D02*
X197609643Y-69697557D01*
X197609643Y-69697557D02*
X197514405Y-69840414D01*
X197514405Y-69840414D02*
X197466786Y-70030890D01*
X197466786Y-70030890D02*
X197466786Y-70411842D01*
X197466786Y-70411842D02*
X197514405Y-70507080D01*
X197514405Y-70507080D02*
X197562024Y-70554700D01*
X197562024Y-70554700D02*
X197657262Y-70602319D01*
X197657262Y-70602319D02*
X197847738Y-70602319D01*
X197847738Y-70602319D02*
X197942976Y-70554700D01*
X197942976Y-70554700D02*
X197990595Y-70507080D01*
X197990595Y-70507080D02*
X198038214Y-70411842D01*
X198038214Y-70411842D02*
X198038214Y-70173747D01*
X198038214Y-70173747D02*
X197990595Y-70078509D01*
X197990595Y-70078509D02*
X197942976Y-70030890D01*
X197942976Y-70030890D02*
X197847738Y-69983271D01*
X197847738Y-69983271D02*
X197657262Y-69983271D01*
X197657262Y-69983271D02*
X197562024Y-70030890D01*
X197562024Y-70030890D02*
X197514405Y-70078509D01*
X197514405Y-70078509D02*
X197466786Y-70173747D01*
X130101261Y-91440557D02*
X130006023Y-91392938D01*
X130006023Y-91392938D02*
X129910785Y-91297700D01*
X129910785Y-91297700D02*
X129767928Y-91154842D01*
X129767928Y-91154842D02*
X129672690Y-91107223D01*
X129672690Y-91107223D02*
X129577452Y-91107223D01*
X129625071Y-91345319D02*
X129529833Y-91297700D01*
X129529833Y-91297700D02*
X129434595Y-91202461D01*
X129434595Y-91202461D02*
X129386976Y-91011985D01*
X129386976Y-91011985D02*
X129386976Y-90678652D01*
X129386976Y-90678652D02*
X129434595Y-90488176D01*
X129434595Y-90488176D02*
X129529833Y-90392938D01*
X129529833Y-90392938D02*
X129625071Y-90345319D01*
X129625071Y-90345319D02*
X129815547Y-90345319D01*
X129815547Y-90345319D02*
X129910785Y-90392938D01*
X129910785Y-90392938D02*
X130006023Y-90488176D01*
X130006023Y-90488176D02*
X130053642Y-90678652D01*
X130053642Y-90678652D02*
X130053642Y-91011985D01*
X130053642Y-91011985D02*
X130006023Y-91202461D01*
X130006023Y-91202461D02*
X129910785Y-91297700D01*
X129910785Y-91297700D02*
X129815547Y-91345319D01*
X129815547Y-91345319D02*
X129625071Y-91345319D01*
X130910785Y-90678652D02*
X130910785Y-91345319D01*
X130672690Y-90297700D02*
X130434595Y-91011985D01*
X130434595Y-91011985D02*
X131053642Y-91011985D01*
X130162261Y-81788557D02*
X130067023Y-81740938D01*
X130067023Y-81740938D02*
X129971785Y-81645700D01*
X129971785Y-81645700D02*
X129828928Y-81502842D01*
X129828928Y-81502842D02*
X129733690Y-81455223D01*
X129733690Y-81455223D02*
X129638452Y-81455223D01*
X129686071Y-81693319D02*
X129590833Y-81645700D01*
X129590833Y-81645700D02*
X129495595Y-81550461D01*
X129495595Y-81550461D02*
X129447976Y-81359985D01*
X129447976Y-81359985D02*
X129447976Y-81026652D01*
X129447976Y-81026652D02*
X129495595Y-80836176D01*
X129495595Y-80836176D02*
X129590833Y-80740938D01*
X129590833Y-80740938D02*
X129686071Y-80693319D01*
X129686071Y-80693319D02*
X129876547Y-80693319D01*
X129876547Y-80693319D02*
X129971785Y-80740938D01*
X129971785Y-80740938D02*
X130067023Y-80836176D01*
X130067023Y-80836176D02*
X130114642Y-81026652D01*
X130114642Y-81026652D02*
X130114642Y-81359985D01*
X130114642Y-81359985D02*
X130067023Y-81550461D01*
X130067023Y-81550461D02*
X129971785Y-81645700D01*
X129971785Y-81645700D02*
X129876547Y-81693319D01*
X129876547Y-81693319D02*
X129686071Y-81693319D01*
X131019404Y-80693319D02*
X130543214Y-80693319D01*
X130543214Y-80693319D02*
X130495595Y-81169509D01*
X130495595Y-81169509D02*
X130543214Y-81121890D01*
X130543214Y-81121890D02*
X130638452Y-81074271D01*
X130638452Y-81074271D02*
X130876547Y-81074271D01*
X130876547Y-81074271D02*
X130971785Y-81121890D01*
X130971785Y-81121890D02*
X131019404Y-81169509D01*
X131019404Y-81169509D02*
X131067023Y-81264747D01*
X131067023Y-81264747D02*
X131067023Y-81502842D01*
X131067023Y-81502842D02*
X131019404Y-81598080D01*
X131019404Y-81598080D02*
X130971785Y-81645700D01*
X130971785Y-81645700D02*
X130876547Y-81693319D01*
X130876547Y-81693319D02*
X130638452Y-81693319D01*
X130638452Y-81693319D02*
X130543214Y-81645700D01*
X130543214Y-81645700D02*
X130495595Y-81598080D01*
X105697080Y-59942166D02*
X105744700Y-59989785D01*
X105744700Y-59989785D02*
X105792319Y-60132642D01*
X105792319Y-60132642D02*
X105792319Y-60227880D01*
X105792319Y-60227880D02*
X105744700Y-60370737D01*
X105744700Y-60370737D02*
X105649461Y-60465975D01*
X105649461Y-60465975D02*
X105554223Y-60513594D01*
X105554223Y-60513594D02*
X105363747Y-60561213D01*
X105363747Y-60561213D02*
X105220890Y-60561213D01*
X105220890Y-60561213D02*
X105030414Y-60513594D01*
X105030414Y-60513594D02*
X104935176Y-60465975D01*
X104935176Y-60465975D02*
X104839938Y-60370737D01*
X104839938Y-60370737D02*
X104792319Y-60227880D01*
X104792319Y-60227880D02*
X104792319Y-60132642D01*
X104792319Y-60132642D02*
X104839938Y-59989785D01*
X104839938Y-59989785D02*
X104887557Y-59942166D01*
X105220890Y-59370737D02*
X105173271Y-59465975D01*
X105173271Y-59465975D02*
X105125652Y-59513594D01*
X105125652Y-59513594D02*
X105030414Y-59561213D01*
X105030414Y-59561213D02*
X104982795Y-59561213D01*
X104982795Y-59561213D02*
X104887557Y-59513594D01*
X104887557Y-59513594D02*
X104839938Y-59465975D01*
X104839938Y-59465975D02*
X104792319Y-59370737D01*
X104792319Y-59370737D02*
X104792319Y-59180261D01*
X104792319Y-59180261D02*
X104839938Y-59085023D01*
X104839938Y-59085023D02*
X104887557Y-59037404D01*
X104887557Y-59037404D02*
X104982795Y-58989785D01*
X104982795Y-58989785D02*
X105030414Y-58989785D01*
X105030414Y-58989785D02*
X105125652Y-59037404D01*
X105125652Y-59037404D02*
X105173271Y-59085023D01*
X105173271Y-59085023D02*
X105220890Y-59180261D01*
X105220890Y-59180261D02*
X105220890Y-59370737D01*
X105220890Y-59370737D02*
X105268509Y-59465975D01*
X105268509Y-59465975D02*
X105316128Y-59513594D01*
X105316128Y-59513594D02*
X105411366Y-59561213D01*
X105411366Y-59561213D02*
X105601842Y-59561213D01*
X105601842Y-59561213D02*
X105697080Y-59513594D01*
X105697080Y-59513594D02*
X105744700Y-59465975D01*
X105744700Y-59465975D02*
X105792319Y-59370737D01*
X105792319Y-59370737D02*
X105792319Y-59180261D01*
X105792319Y-59180261D02*
X105744700Y-59085023D01*
X105744700Y-59085023D02*
X105697080Y-59037404D01*
X105697080Y-59037404D02*
X105601842Y-58989785D01*
X105601842Y-58989785D02*
X105411366Y-58989785D01*
X105411366Y-58989785D02*
X105316128Y-59037404D01*
X105316128Y-59037404D02*
X105268509Y-59085023D01*
X105268509Y-59085023D02*
X105220890Y-59180261D01*
X182766642Y-72568080D02*
X182719023Y-72615700D01*
X182719023Y-72615700D02*
X182576166Y-72663319D01*
X182576166Y-72663319D02*
X182480928Y-72663319D01*
X182480928Y-72663319D02*
X182338071Y-72615700D01*
X182338071Y-72615700D02*
X182242833Y-72520461D01*
X182242833Y-72520461D02*
X182195214Y-72425223D01*
X182195214Y-72425223D02*
X182147595Y-72234747D01*
X182147595Y-72234747D02*
X182147595Y-72091890D01*
X182147595Y-72091890D02*
X182195214Y-71901414D01*
X182195214Y-71901414D02*
X182242833Y-71806176D01*
X182242833Y-71806176D02*
X182338071Y-71710938D01*
X182338071Y-71710938D02*
X182480928Y-71663319D01*
X182480928Y-71663319D02*
X182576166Y-71663319D01*
X182576166Y-71663319D02*
X182719023Y-71710938D01*
X182719023Y-71710938D02*
X182766642Y-71758557D01*
X183719023Y-72663319D02*
X183147595Y-72663319D01*
X183433309Y-72663319D02*
X183433309Y-71663319D01*
X183433309Y-71663319D02*
X183338071Y-71806176D01*
X183338071Y-71806176D02*
X183242833Y-71901414D01*
X183242833Y-71901414D02*
X183147595Y-71949033D01*
X184099976Y-71758557D02*
X184147595Y-71710938D01*
X184147595Y-71710938D02*
X184242833Y-71663319D01*
X184242833Y-71663319D02*
X184480928Y-71663319D01*
X184480928Y-71663319D02*
X184576166Y-71710938D01*
X184576166Y-71710938D02*
X184623785Y-71758557D01*
X184623785Y-71758557D02*
X184671404Y-71853795D01*
X184671404Y-71853795D02*
X184671404Y-71949033D01*
X184671404Y-71949033D02*
X184623785Y-72091890D01*
X184623785Y-72091890D02*
X184052357Y-72663319D01*
X184052357Y-72663319D02*
X184671404Y-72663319D01*
X174117128Y-77764690D02*
X174593319Y-77764690D01*
X173593319Y-78098023D02*
X174117128Y-77764690D01*
X174117128Y-77764690D02*
X173593319Y-77431357D01*
X174593319Y-76574214D02*
X174593319Y-77145642D01*
X174593319Y-76859928D02*
X173593319Y-76859928D01*
X173593319Y-76859928D02*
X173736176Y-76955166D01*
X173736176Y-76955166D02*
X173831414Y-77050404D01*
X173831414Y-77050404D02*
X173879033Y-77145642D01*
X165526405Y-84188319D02*
X165526405Y-83188319D01*
X165526405Y-83188319D02*
X165764500Y-83188319D01*
X165764500Y-83188319D02*
X165907357Y-83235938D01*
X165907357Y-83235938D02*
X166002595Y-83331176D01*
X166002595Y-83331176D02*
X166050214Y-83426414D01*
X166050214Y-83426414D02*
X166097833Y-83616890D01*
X166097833Y-83616890D02*
X166097833Y-83759747D01*
X166097833Y-83759747D02*
X166050214Y-83950223D01*
X166050214Y-83950223D02*
X166002595Y-84045461D01*
X166002595Y-84045461D02*
X165907357Y-84140700D01*
X165907357Y-84140700D02*
X165764500Y-84188319D01*
X165764500Y-84188319D02*
X165526405Y-84188319D01*
X166431167Y-83188319D02*
X167050214Y-83188319D01*
X167050214Y-83188319D02*
X166716881Y-83569271D01*
X166716881Y-83569271D02*
X166859738Y-83569271D01*
X166859738Y-83569271D02*
X166954976Y-83616890D01*
X166954976Y-83616890D02*
X167002595Y-83664509D01*
X167002595Y-83664509D02*
X167050214Y-83759747D01*
X167050214Y-83759747D02*
X167050214Y-83997842D01*
X167050214Y-83997842D02*
X167002595Y-84093080D01*
X167002595Y-84093080D02*
X166954976Y-84140700D01*
X166954976Y-84140700D02*
X166859738Y-84188319D01*
X166859738Y-84188319D02*
X166574024Y-84188319D01*
X166574024Y-84188319D02*
X166478786Y-84140700D01*
X166478786Y-84140700D02*
X166431167Y-84093080D01*
X92037319Y-56785833D02*
X92751604Y-56785833D01*
X92751604Y-56785833D02*
X92894461Y-56833452D01*
X92894461Y-56833452D02*
X92989700Y-56928690D01*
X92989700Y-56928690D02*
X93037319Y-57071547D01*
X93037319Y-57071547D02*
X93037319Y-57166785D01*
X93037319Y-56309642D02*
X92037319Y-56309642D01*
X92037319Y-56309642D02*
X92037319Y-55928690D01*
X92037319Y-55928690D02*
X92084938Y-55833452D01*
X92084938Y-55833452D02*
X92132557Y-55785833D01*
X92132557Y-55785833D02*
X92227795Y-55738214D01*
X92227795Y-55738214D02*
X92370652Y-55738214D01*
X92370652Y-55738214D02*
X92465890Y-55785833D01*
X92465890Y-55785833D02*
X92513509Y-55833452D01*
X92513509Y-55833452D02*
X92561128Y-55928690D01*
X92561128Y-55928690D02*
X92561128Y-56309642D01*
X92037319Y-55404880D02*
X92037319Y-54785833D01*
X92037319Y-54785833D02*
X92418271Y-55119166D01*
X92418271Y-55119166D02*
X92418271Y-54976309D01*
X92418271Y-54976309D02*
X92465890Y-54881071D01*
X92465890Y-54881071D02*
X92513509Y-54833452D01*
X92513509Y-54833452D02*
X92608747Y-54785833D01*
X92608747Y-54785833D02*
X92846842Y-54785833D01*
X92846842Y-54785833D02*
X92942080Y-54833452D01*
X92942080Y-54833452D02*
X92989700Y-54881071D01*
X92989700Y-54881071D02*
X93037319Y-54976309D01*
X93037319Y-54976309D02*
X93037319Y-55262023D01*
X93037319Y-55262023D02*
X92989700Y-55357261D01*
X92989700Y-55357261D02*
X92942080Y-55404880D01*
X91333452Y-115207319D02*
X90857262Y-115207319D01*
X90857262Y-115207319D02*
X90857262Y-114207319D01*
X91666786Y-114683509D02*
X92000119Y-114683509D01*
X92142976Y-115207319D02*
X91666786Y-115207319D01*
X91666786Y-115207319D02*
X91666786Y-114207319D01*
X91666786Y-114207319D02*
X92142976Y-114207319D01*
X92571548Y-115207319D02*
X92571548Y-114207319D01*
X92571548Y-114207319D02*
X92809643Y-114207319D01*
X92809643Y-114207319D02*
X92952500Y-114254938D01*
X92952500Y-114254938D02*
X93047738Y-114350176D01*
X93047738Y-114350176D02*
X93095357Y-114445414D01*
X93095357Y-114445414D02*
X93142976Y-114635890D01*
X93142976Y-114635890D02*
X93142976Y-114778747D01*
X93142976Y-114778747D02*
X93095357Y-114969223D01*
X93095357Y-114969223D02*
X93047738Y-115064461D01*
X93047738Y-115064461D02*
X92952500Y-115159700D01*
X92952500Y-115159700D02*
X92809643Y-115207319D01*
X92809643Y-115207319D02*
X92571548Y-115207319D01*
X93476310Y-114207319D02*
X94095357Y-114207319D01*
X94095357Y-114207319D02*
X93762024Y-114588271D01*
X93762024Y-114588271D02*
X93904881Y-114588271D01*
X93904881Y-114588271D02*
X94000119Y-114635890D01*
X94000119Y-114635890D02*
X94047738Y-114683509D01*
X94047738Y-114683509D02*
X94095357Y-114778747D01*
X94095357Y-114778747D02*
X94095357Y-115016842D01*
X94095357Y-115016842D02*
X94047738Y-115112080D01*
X94047738Y-115112080D02*
X94000119Y-115159700D01*
X94000119Y-115159700D02*
X93904881Y-115207319D01*
X93904881Y-115207319D02*
X93619167Y-115207319D01*
X93619167Y-115207319D02*
X93523929Y-115159700D01*
X93523929Y-115159700D02*
X93476310Y-115112080D01*
X170149319Y-77455166D02*
X169673128Y-77788499D01*
X170149319Y-78026594D02*
X169149319Y-78026594D01*
X169149319Y-78026594D02*
X169149319Y-77645642D01*
X169149319Y-77645642D02*
X169196938Y-77550404D01*
X169196938Y-77550404D02*
X169244557Y-77502785D01*
X169244557Y-77502785D02*
X169339795Y-77455166D01*
X169339795Y-77455166D02*
X169482652Y-77455166D01*
X169482652Y-77455166D02*
X169577890Y-77502785D01*
X169577890Y-77502785D02*
X169625509Y-77550404D01*
X169625509Y-77550404D02*
X169673128Y-77645642D01*
X169673128Y-77645642D02*
X169673128Y-78026594D01*
X170149319Y-76978975D02*
X170149319Y-76788499D01*
X170149319Y-76788499D02*
X170101700Y-76693261D01*
X170101700Y-76693261D02*
X170054080Y-76645642D01*
X170054080Y-76645642D02*
X169911223Y-76550404D01*
X169911223Y-76550404D02*
X169720747Y-76502785D01*
X169720747Y-76502785D02*
X169339795Y-76502785D01*
X169339795Y-76502785D02*
X169244557Y-76550404D01*
X169244557Y-76550404D02*
X169196938Y-76598023D01*
X169196938Y-76598023D02*
X169149319Y-76693261D01*
X169149319Y-76693261D02*
X169149319Y-76883737D01*
X169149319Y-76883737D02*
X169196938Y-76978975D01*
X169196938Y-76978975D02*
X169244557Y-77026594D01*
X169244557Y-77026594D02*
X169339795Y-77074213D01*
X169339795Y-77074213D02*
X169577890Y-77074213D01*
X169577890Y-77074213D02*
X169673128Y-77026594D01*
X169673128Y-77026594D02*
X169720747Y-76978975D01*
X169720747Y-76978975D02*
X169768366Y-76883737D01*
X169768366Y-76883737D02*
X169768366Y-76693261D01*
X169768366Y-76693261D02*
X169720747Y-76598023D01*
X169720747Y-76598023D02*
X169673128Y-76550404D01*
X169673128Y-76550404D02*
X169577890Y-76502785D01*
X161629167Y-110364700D02*
X161772024Y-110412319D01*
X161772024Y-110412319D02*
X162010119Y-110412319D01*
X162010119Y-110412319D02*
X162105357Y-110364700D01*
X162105357Y-110364700D02*
X162152976Y-110317080D01*
X162152976Y-110317080D02*
X162200595Y-110221842D01*
X162200595Y-110221842D02*
X162200595Y-110126604D01*
X162200595Y-110126604D02*
X162152976Y-110031366D01*
X162152976Y-110031366D02*
X162105357Y-109983747D01*
X162105357Y-109983747D02*
X162010119Y-109936128D01*
X162010119Y-109936128D02*
X161819643Y-109888509D01*
X161819643Y-109888509D02*
X161724405Y-109840890D01*
X161724405Y-109840890D02*
X161676786Y-109793271D01*
X161676786Y-109793271D02*
X161629167Y-109698033D01*
X161629167Y-109698033D02*
X161629167Y-109602795D01*
X161629167Y-109602795D02*
X161676786Y-109507557D01*
X161676786Y-109507557D02*
X161724405Y-109459938D01*
X161724405Y-109459938D02*
X161819643Y-109412319D01*
X161819643Y-109412319D02*
X162057738Y-109412319D01*
X162057738Y-109412319D02*
X162200595Y-109459938D01*
X162533929Y-109412319D02*
X162772024Y-110412319D01*
X162772024Y-110412319D02*
X162962500Y-109698033D01*
X162962500Y-109698033D02*
X163152976Y-110412319D01*
X163152976Y-110412319D02*
X163391072Y-109412319D01*
X164200595Y-109745652D02*
X164200595Y-110412319D01*
X163962500Y-109364700D02*
X163724405Y-110078985D01*
X163724405Y-110078985D02*
X164343452Y-110078985D01*
X179940833Y-69184080D02*
X179893214Y-69231700D01*
X179893214Y-69231700D02*
X179750357Y-69279319D01*
X179750357Y-69279319D02*
X179655119Y-69279319D01*
X179655119Y-69279319D02*
X179512262Y-69231700D01*
X179512262Y-69231700D02*
X179417024Y-69136461D01*
X179417024Y-69136461D02*
X179369405Y-69041223D01*
X179369405Y-69041223D02*
X179321786Y-68850747D01*
X179321786Y-68850747D02*
X179321786Y-68707890D01*
X179321786Y-68707890D02*
X179369405Y-68517414D01*
X179369405Y-68517414D02*
X179417024Y-68422176D01*
X179417024Y-68422176D02*
X179512262Y-68326938D01*
X179512262Y-68326938D02*
X179655119Y-68279319D01*
X179655119Y-68279319D02*
X179750357Y-68279319D01*
X179750357Y-68279319D02*
X179893214Y-68326938D01*
X179893214Y-68326938D02*
X179940833Y-68374557D01*
X180797976Y-68612652D02*
X180797976Y-69279319D01*
X180559881Y-68231700D02*
X180321786Y-68945985D01*
X180321786Y-68945985D02*
X180940833Y-68945985D01*
X100807319Y-63104166D02*
X100331128Y-63437499D01*
X100807319Y-63675594D02*
X99807319Y-63675594D01*
X99807319Y-63675594D02*
X99807319Y-63294642D01*
X99807319Y-63294642D02*
X99854938Y-63199404D01*
X99854938Y-63199404D02*
X99902557Y-63151785D01*
X99902557Y-63151785D02*
X99997795Y-63104166D01*
X99997795Y-63104166D02*
X100140652Y-63104166D01*
X100140652Y-63104166D02*
X100235890Y-63151785D01*
X100235890Y-63151785D02*
X100283509Y-63199404D01*
X100283509Y-63199404D02*
X100331128Y-63294642D01*
X100331128Y-63294642D02*
X100331128Y-63675594D01*
X99807319Y-62199404D02*
X99807319Y-62675594D01*
X99807319Y-62675594D02*
X100283509Y-62723213D01*
X100283509Y-62723213D02*
X100235890Y-62675594D01*
X100235890Y-62675594D02*
X100188271Y-62580356D01*
X100188271Y-62580356D02*
X100188271Y-62342261D01*
X100188271Y-62342261D02*
X100235890Y-62247023D01*
X100235890Y-62247023D02*
X100283509Y-62199404D01*
X100283509Y-62199404D02*
X100378747Y-62151785D01*
X100378747Y-62151785D02*
X100616842Y-62151785D01*
X100616842Y-62151785D02*
X100712080Y-62199404D01*
X100712080Y-62199404D02*
X100759700Y-62247023D01*
X100759700Y-62247023D02*
X100807319Y-62342261D01*
X100807319Y-62342261D02*
X100807319Y-62580356D01*
X100807319Y-62580356D02*
X100759700Y-62675594D01*
X100759700Y-62675594D02*
X100712080Y-62723213D01*
X117496595Y-89145319D02*
X117496595Y-89954842D01*
X117496595Y-89954842D02*
X117544214Y-90050080D01*
X117544214Y-90050080D02*
X117591833Y-90097700D01*
X117591833Y-90097700D02*
X117687071Y-90145319D01*
X117687071Y-90145319D02*
X117877547Y-90145319D01*
X117877547Y-90145319D02*
X117972785Y-90097700D01*
X117972785Y-90097700D02*
X118020404Y-90050080D01*
X118020404Y-90050080D02*
X118068023Y-89954842D01*
X118068023Y-89954842D02*
X118068023Y-89145319D01*
X118972785Y-89145319D02*
X118782309Y-89145319D01*
X118782309Y-89145319D02*
X118687071Y-89192938D01*
X118687071Y-89192938D02*
X118639452Y-89240557D01*
X118639452Y-89240557D02*
X118544214Y-89383414D01*
X118544214Y-89383414D02*
X118496595Y-89573890D01*
X118496595Y-89573890D02*
X118496595Y-89954842D01*
X118496595Y-89954842D02*
X118544214Y-90050080D01*
X118544214Y-90050080D02*
X118591833Y-90097700D01*
X118591833Y-90097700D02*
X118687071Y-90145319D01*
X118687071Y-90145319D02*
X118877547Y-90145319D01*
X118877547Y-90145319D02*
X118972785Y-90097700D01*
X118972785Y-90097700D02*
X119020404Y-90050080D01*
X119020404Y-90050080D02*
X119068023Y-89954842D01*
X119068023Y-89954842D02*
X119068023Y-89716747D01*
X119068023Y-89716747D02*
X119020404Y-89621509D01*
X119020404Y-89621509D02*
X118972785Y-89573890D01*
X118972785Y-89573890D02*
X118877547Y-89526271D01*
X118877547Y-89526271D02*
X118687071Y-89526271D01*
X118687071Y-89526271D02*
X118591833Y-89573890D01*
X118591833Y-89573890D02*
X118544214Y-89621509D01*
X118544214Y-89621509D02*
X118496595Y-89716747D01*
X171876405Y-80188319D02*
X171876405Y-79188319D01*
X171876405Y-79188319D02*
X172114500Y-79188319D01*
X172114500Y-79188319D02*
X172257357Y-79235938D01*
X172257357Y-79235938D02*
X172352595Y-79331176D01*
X172352595Y-79331176D02*
X172400214Y-79426414D01*
X172400214Y-79426414D02*
X172447833Y-79616890D01*
X172447833Y-79616890D02*
X172447833Y-79759747D01*
X172447833Y-79759747D02*
X172400214Y-79950223D01*
X172400214Y-79950223D02*
X172352595Y-80045461D01*
X172352595Y-80045461D02*
X172257357Y-80140700D01*
X172257357Y-80140700D02*
X172114500Y-80188319D01*
X172114500Y-80188319D02*
X171876405Y-80188319D01*
X172828786Y-79283557D02*
X172876405Y-79235938D01*
X172876405Y-79235938D02*
X172971643Y-79188319D01*
X172971643Y-79188319D02*
X173209738Y-79188319D01*
X173209738Y-79188319D02*
X173304976Y-79235938D01*
X173304976Y-79235938D02*
X173352595Y-79283557D01*
X173352595Y-79283557D02*
X173400214Y-79378795D01*
X173400214Y-79378795D02*
X173400214Y-79474033D01*
X173400214Y-79474033D02*
X173352595Y-79616890D01*
X173352595Y-79616890D02*
X172781167Y-80188319D01*
X172781167Y-80188319D02*
X173400214Y-80188319D01*
X117303595Y-80045319D02*
X117303595Y-80854842D01*
X117303595Y-80854842D02*
X117351214Y-80950080D01*
X117351214Y-80950080D02*
X117398833Y-80997700D01*
X117398833Y-80997700D02*
X117494071Y-81045319D01*
X117494071Y-81045319D02*
X117684547Y-81045319D01*
X117684547Y-81045319D02*
X117779785Y-80997700D01*
X117779785Y-80997700D02*
X117827404Y-80950080D01*
X117827404Y-80950080D02*
X117875023Y-80854842D01*
X117875023Y-80854842D02*
X117875023Y-80045319D01*
X118255976Y-80045319D02*
X118922642Y-80045319D01*
X118922642Y-80045319D02*
X118494071Y-81045319D01*
X174225833Y-67094080D02*
X174178214Y-67141700D01*
X174178214Y-67141700D02*
X174035357Y-67189319D01*
X174035357Y-67189319D02*
X173940119Y-67189319D01*
X173940119Y-67189319D02*
X173797262Y-67141700D01*
X173797262Y-67141700D02*
X173702024Y-67046461D01*
X173702024Y-67046461D02*
X173654405Y-66951223D01*
X173654405Y-66951223D02*
X173606786Y-66760747D01*
X173606786Y-66760747D02*
X173606786Y-66617890D01*
X173606786Y-66617890D02*
X173654405Y-66427414D01*
X173654405Y-66427414D02*
X173702024Y-66332176D01*
X173702024Y-66332176D02*
X173797262Y-66236938D01*
X173797262Y-66236938D02*
X173940119Y-66189319D01*
X173940119Y-66189319D02*
X174035357Y-66189319D01*
X174035357Y-66189319D02*
X174178214Y-66236938D01*
X174178214Y-66236938D02*
X174225833Y-66284557D01*
X174559167Y-66189319D02*
X175178214Y-66189319D01*
X175178214Y-66189319D02*
X174844881Y-66570271D01*
X174844881Y-66570271D02*
X174987738Y-66570271D01*
X174987738Y-66570271D02*
X175082976Y-66617890D01*
X175082976Y-66617890D02*
X175130595Y-66665509D01*
X175130595Y-66665509D02*
X175178214Y-66760747D01*
X175178214Y-66760747D02*
X175178214Y-66998842D01*
X175178214Y-66998842D02*
X175130595Y-67094080D01*
X175130595Y-67094080D02*
X175082976Y-67141700D01*
X175082976Y-67141700D02*
X174987738Y-67189319D01*
X174987738Y-67189319D02*
X174702024Y-67189319D01*
X174702024Y-67189319D02*
X174606786Y-67141700D01*
X174606786Y-67141700D02*
X174559167Y-67094080D01*
X179940833Y-62374319D02*
X179464643Y-62374319D01*
X179464643Y-62374319D02*
X179464643Y-61374319D01*
X180797976Y-62374319D02*
X180226548Y-62374319D01*
X180512262Y-62374319D02*
X180512262Y-61374319D01*
X180512262Y-61374319D02*
X180417024Y-61517176D01*
X180417024Y-61517176D02*
X180321786Y-61612414D01*
X180321786Y-61612414D02*
X180226548Y-61660033D01*
X131744405Y-90657319D02*
X131744405Y-89657319D01*
X131744405Y-89657319D02*
X131982500Y-89657319D01*
X131982500Y-89657319D02*
X132125357Y-89704938D01*
X132125357Y-89704938D02*
X132220595Y-89800176D01*
X132220595Y-89800176D02*
X132268214Y-89895414D01*
X132268214Y-89895414D02*
X132315833Y-90085890D01*
X132315833Y-90085890D02*
X132315833Y-90228747D01*
X132315833Y-90228747D02*
X132268214Y-90419223D01*
X132268214Y-90419223D02*
X132220595Y-90514461D01*
X132220595Y-90514461D02*
X132125357Y-90609700D01*
X132125357Y-90609700D02*
X131982500Y-90657319D01*
X131982500Y-90657319D02*
X131744405Y-90657319D01*
X132649167Y-89657319D02*
X133315833Y-89657319D01*
X133315833Y-89657319D02*
X132887262Y-90657319D01*
X195919167Y-62074700D02*
X196062024Y-62122319D01*
X196062024Y-62122319D02*
X196300119Y-62122319D01*
X196300119Y-62122319D02*
X196395357Y-62074700D01*
X196395357Y-62074700D02*
X196442976Y-62027080D01*
X196442976Y-62027080D02*
X196490595Y-61931842D01*
X196490595Y-61931842D02*
X196490595Y-61836604D01*
X196490595Y-61836604D02*
X196442976Y-61741366D01*
X196442976Y-61741366D02*
X196395357Y-61693747D01*
X196395357Y-61693747D02*
X196300119Y-61646128D01*
X196300119Y-61646128D02*
X196109643Y-61598509D01*
X196109643Y-61598509D02*
X196014405Y-61550890D01*
X196014405Y-61550890D02*
X195966786Y-61503271D01*
X195966786Y-61503271D02*
X195919167Y-61408033D01*
X195919167Y-61408033D02*
X195919167Y-61312795D01*
X195919167Y-61312795D02*
X195966786Y-61217557D01*
X195966786Y-61217557D02*
X196014405Y-61169938D01*
X196014405Y-61169938D02*
X196109643Y-61122319D01*
X196109643Y-61122319D02*
X196347738Y-61122319D01*
X196347738Y-61122319D02*
X196490595Y-61169938D01*
X196823929Y-61122319D02*
X197062024Y-62122319D01*
X197062024Y-62122319D02*
X197252500Y-61408033D01*
X197252500Y-61408033D02*
X197442976Y-62122319D01*
X197442976Y-62122319D02*
X197681072Y-61122319D01*
X198585833Y-62122319D02*
X198014405Y-62122319D01*
X198300119Y-62122319D02*
X198300119Y-61122319D01*
X198300119Y-61122319D02*
X198204881Y-61265176D01*
X198204881Y-61265176D02*
X198109643Y-61360414D01*
X198109643Y-61360414D02*
X198014405Y-61408033D01*
X98142080Y-55042166D02*
X98189700Y-55089785D01*
X98189700Y-55089785D02*
X98237319Y-55232642D01*
X98237319Y-55232642D02*
X98237319Y-55327880D01*
X98237319Y-55327880D02*
X98189700Y-55470737D01*
X98189700Y-55470737D02*
X98094461Y-55565975D01*
X98094461Y-55565975D02*
X97999223Y-55613594D01*
X97999223Y-55613594D02*
X97808747Y-55661213D01*
X97808747Y-55661213D02*
X97665890Y-55661213D01*
X97665890Y-55661213D02*
X97475414Y-55613594D01*
X97475414Y-55613594D02*
X97380176Y-55565975D01*
X97380176Y-55565975D02*
X97284938Y-55470737D01*
X97284938Y-55470737D02*
X97237319Y-55327880D01*
X97237319Y-55327880D02*
X97237319Y-55232642D01*
X97237319Y-55232642D02*
X97284938Y-55089785D01*
X97284938Y-55089785D02*
X97332557Y-55042166D01*
X97237319Y-54708832D02*
X97237319Y-54042166D01*
X97237319Y-54042166D02*
X98237319Y-54470737D01*
X125506319Y-84281357D02*
X125030128Y-84614690D01*
X125506319Y-84852785D02*
X124506319Y-84852785D01*
X124506319Y-84852785D02*
X124506319Y-84471833D01*
X124506319Y-84471833D02*
X124553938Y-84376595D01*
X124553938Y-84376595D02*
X124601557Y-84328976D01*
X124601557Y-84328976D02*
X124696795Y-84281357D01*
X124696795Y-84281357D02*
X124839652Y-84281357D01*
X124839652Y-84281357D02*
X124934890Y-84328976D01*
X124934890Y-84328976D02*
X124982509Y-84376595D01*
X124982509Y-84376595D02*
X125030128Y-84471833D01*
X125030128Y-84471833D02*
X125030128Y-84852785D01*
X124601557Y-83900404D02*
X124553938Y-83852785D01*
X124553938Y-83852785D02*
X124506319Y-83757547D01*
X124506319Y-83757547D02*
X124506319Y-83519452D01*
X124506319Y-83519452D02*
X124553938Y-83424214D01*
X124553938Y-83424214D02*
X124601557Y-83376595D01*
X124601557Y-83376595D02*
X124696795Y-83328976D01*
X124696795Y-83328976D02*
X124792033Y-83328976D01*
X124792033Y-83328976D02*
X124934890Y-83376595D01*
X124934890Y-83376595D02*
X125506319Y-83948023D01*
X125506319Y-83948023D02*
X125506319Y-83328976D01*
X125506319Y-82376595D02*
X125506319Y-82948023D01*
X125506319Y-82662309D02*
X124506319Y-82662309D01*
X124506319Y-82662309D02*
X124649176Y-82757547D01*
X124649176Y-82757547D02*
X124744414Y-82852785D01*
X124744414Y-82852785D02*
X124792033Y-82948023D01*
X102587080Y-55042166D02*
X102634700Y-55089785D01*
X102634700Y-55089785D02*
X102682319Y-55232642D01*
X102682319Y-55232642D02*
X102682319Y-55327880D01*
X102682319Y-55327880D02*
X102634700Y-55470737D01*
X102634700Y-55470737D02*
X102539461Y-55565975D01*
X102539461Y-55565975D02*
X102444223Y-55613594D01*
X102444223Y-55613594D02*
X102253747Y-55661213D01*
X102253747Y-55661213D02*
X102110890Y-55661213D01*
X102110890Y-55661213D02*
X101920414Y-55613594D01*
X101920414Y-55613594D02*
X101825176Y-55565975D01*
X101825176Y-55565975D02*
X101729938Y-55470737D01*
X101729938Y-55470737D02*
X101682319Y-55327880D01*
X101682319Y-55327880D02*
X101682319Y-55232642D01*
X101682319Y-55232642D02*
X101729938Y-55089785D01*
X101729938Y-55089785D02*
X101777557Y-55042166D01*
X101682319Y-54137404D02*
X101682319Y-54613594D01*
X101682319Y-54613594D02*
X102158509Y-54661213D01*
X102158509Y-54661213D02*
X102110890Y-54613594D01*
X102110890Y-54613594D02*
X102063271Y-54518356D01*
X102063271Y-54518356D02*
X102063271Y-54280261D01*
X102063271Y-54280261D02*
X102110890Y-54185023D01*
X102110890Y-54185023D02*
X102158509Y-54137404D01*
X102158509Y-54137404D02*
X102253747Y-54089785D01*
X102253747Y-54089785D02*
X102491842Y-54089785D01*
X102491842Y-54089785D02*
X102587080Y-54137404D01*
X102587080Y-54137404D02*
X102634700Y-54185023D01*
X102634700Y-54185023D02*
X102682319Y-54280261D01*
X102682319Y-54280261D02*
X102682319Y-54518356D01*
X102682319Y-54518356D02*
X102634700Y-54613594D01*
X102634700Y-54613594D02*
X102587080Y-54661213D01*
X168627080Y-54341166D02*
X168674700Y-54388785D01*
X168674700Y-54388785D02*
X168722319Y-54531642D01*
X168722319Y-54531642D02*
X168722319Y-54626880D01*
X168722319Y-54626880D02*
X168674700Y-54769737D01*
X168674700Y-54769737D02*
X168579461Y-54864975D01*
X168579461Y-54864975D02*
X168484223Y-54912594D01*
X168484223Y-54912594D02*
X168293747Y-54960213D01*
X168293747Y-54960213D02*
X168150890Y-54960213D01*
X168150890Y-54960213D02*
X167960414Y-54912594D01*
X167960414Y-54912594D02*
X167865176Y-54864975D01*
X167865176Y-54864975D02*
X167769938Y-54769737D01*
X167769938Y-54769737D02*
X167722319Y-54626880D01*
X167722319Y-54626880D02*
X167722319Y-54531642D01*
X167722319Y-54531642D02*
X167769938Y-54388785D01*
X167769938Y-54388785D02*
X167817557Y-54341166D01*
X167817557Y-53960213D02*
X167769938Y-53912594D01*
X167769938Y-53912594D02*
X167722319Y-53817356D01*
X167722319Y-53817356D02*
X167722319Y-53579261D01*
X167722319Y-53579261D02*
X167769938Y-53484023D01*
X167769938Y-53484023D02*
X167817557Y-53436404D01*
X167817557Y-53436404D02*
X167912795Y-53388785D01*
X167912795Y-53388785D02*
X168008033Y-53388785D01*
X168008033Y-53388785D02*
X168150890Y-53436404D01*
X168150890Y-53436404D02*
X168722319Y-54007832D01*
X168722319Y-54007832D02*
X168722319Y-53388785D01*
X108255142Y-84473319D02*
X107921809Y-83997128D01*
X107683714Y-84473319D02*
X107683714Y-83473319D01*
X107683714Y-83473319D02*
X108064666Y-83473319D01*
X108064666Y-83473319D02*
X108159904Y-83520938D01*
X108159904Y-83520938D02*
X108207523Y-83568557D01*
X108207523Y-83568557D02*
X108255142Y-83663795D01*
X108255142Y-83663795D02*
X108255142Y-83806652D01*
X108255142Y-83806652D02*
X108207523Y-83901890D01*
X108207523Y-83901890D02*
X108159904Y-83949509D01*
X108159904Y-83949509D02*
X108064666Y-83997128D01*
X108064666Y-83997128D02*
X107683714Y-83997128D01*
X108636095Y-83568557D02*
X108683714Y-83520938D01*
X108683714Y-83520938D02*
X108778952Y-83473319D01*
X108778952Y-83473319D02*
X109017047Y-83473319D01*
X109017047Y-83473319D02*
X109112285Y-83520938D01*
X109112285Y-83520938D02*
X109159904Y-83568557D01*
X109159904Y-83568557D02*
X109207523Y-83663795D01*
X109207523Y-83663795D02*
X109207523Y-83759033D01*
X109207523Y-83759033D02*
X109159904Y-83901890D01*
X109159904Y-83901890D02*
X108588476Y-84473319D01*
X108588476Y-84473319D02*
X109207523Y-84473319D01*
X109826571Y-83473319D02*
X109921809Y-83473319D01*
X109921809Y-83473319D02*
X110017047Y-83520938D01*
X110017047Y-83520938D02*
X110064666Y-83568557D01*
X110064666Y-83568557D02*
X110112285Y-83663795D01*
X110112285Y-83663795D02*
X110159904Y-83854271D01*
X110159904Y-83854271D02*
X110159904Y-84092366D01*
X110159904Y-84092366D02*
X110112285Y-84282842D01*
X110112285Y-84282842D02*
X110064666Y-84378080D01*
X110064666Y-84378080D02*
X110017047Y-84425700D01*
X110017047Y-84425700D02*
X109921809Y-84473319D01*
X109921809Y-84473319D02*
X109826571Y-84473319D01*
X109826571Y-84473319D02*
X109731333Y-84425700D01*
X109731333Y-84425700D02*
X109683714Y-84378080D01*
X109683714Y-84378080D02*
X109636095Y-84282842D01*
X109636095Y-84282842D02*
X109588476Y-84092366D01*
X109588476Y-84092366D02*
X109588476Y-83854271D01*
X109588476Y-83854271D02*
X109636095Y-83663795D01*
X109636095Y-83663795D02*
X109683714Y-83568557D01*
X109683714Y-83568557D02*
X109731333Y-83520938D01*
X109731333Y-83520938D02*
X109826571Y-83473319D01*
X95877319Y-78375833D02*
X96591604Y-78375833D01*
X96591604Y-78375833D02*
X96734461Y-78423452D01*
X96734461Y-78423452D02*
X96829700Y-78518690D01*
X96829700Y-78518690D02*
X96877319Y-78661547D01*
X96877319Y-78661547D02*
X96877319Y-78756785D01*
X96877319Y-77899642D02*
X95877319Y-77899642D01*
X95877319Y-77899642D02*
X95877319Y-77518690D01*
X95877319Y-77518690D02*
X95924938Y-77423452D01*
X95924938Y-77423452D02*
X95972557Y-77375833D01*
X95972557Y-77375833D02*
X96067795Y-77328214D01*
X96067795Y-77328214D02*
X96210652Y-77328214D01*
X96210652Y-77328214D02*
X96305890Y-77375833D01*
X96305890Y-77375833D02*
X96353509Y-77423452D01*
X96353509Y-77423452D02*
X96401128Y-77518690D01*
X96401128Y-77518690D02*
X96401128Y-77899642D01*
X95972557Y-76947261D02*
X95924938Y-76899642D01*
X95924938Y-76899642D02*
X95877319Y-76804404D01*
X95877319Y-76804404D02*
X95877319Y-76566309D01*
X95877319Y-76566309D02*
X95924938Y-76471071D01*
X95924938Y-76471071D02*
X95972557Y-76423452D01*
X95972557Y-76423452D02*
X96067795Y-76375833D01*
X96067795Y-76375833D02*
X96163033Y-76375833D01*
X96163033Y-76375833D02*
X96305890Y-76423452D01*
X96305890Y-76423452D02*
X96877319Y-76994880D01*
X96877319Y-76994880D02*
X96877319Y-76375833D01*
X195800952Y-58819319D02*
X195324762Y-58819319D01*
X195324762Y-58819319D02*
X195324762Y-57819319D01*
X196134286Y-58295509D02*
X196467619Y-58295509D01*
X196610476Y-58819319D02*
X196134286Y-58819319D01*
X196134286Y-58819319D02*
X196134286Y-57819319D01*
X196134286Y-57819319D02*
X196610476Y-57819319D01*
X197039048Y-58819319D02*
X197039048Y-57819319D01*
X197039048Y-57819319D02*
X197277143Y-57819319D01*
X197277143Y-57819319D02*
X197420000Y-57866938D01*
X197420000Y-57866938D02*
X197515238Y-57962176D01*
X197515238Y-57962176D02*
X197562857Y-58057414D01*
X197562857Y-58057414D02*
X197610476Y-58247890D01*
X197610476Y-58247890D02*
X197610476Y-58390747D01*
X197610476Y-58390747D02*
X197562857Y-58581223D01*
X197562857Y-58581223D02*
X197515238Y-58676461D01*
X197515238Y-58676461D02*
X197420000Y-58771700D01*
X197420000Y-58771700D02*
X197277143Y-58819319D01*
X197277143Y-58819319D02*
X197039048Y-58819319D01*
X198562857Y-58819319D02*
X197991429Y-58819319D01*
X198277143Y-58819319D02*
X198277143Y-57819319D01*
X198277143Y-57819319D02*
X198181905Y-57962176D01*
X198181905Y-57962176D02*
X198086667Y-58057414D01*
X198086667Y-58057414D02*
X197991429Y-58105033D01*
X176963833Y-72822080D02*
X176916214Y-72869700D01*
X176916214Y-72869700D02*
X176773357Y-72917319D01*
X176773357Y-72917319D02*
X176678119Y-72917319D01*
X176678119Y-72917319D02*
X176535262Y-72869700D01*
X176535262Y-72869700D02*
X176440024Y-72774461D01*
X176440024Y-72774461D02*
X176392405Y-72679223D01*
X176392405Y-72679223D02*
X176344786Y-72488747D01*
X176344786Y-72488747D02*
X176344786Y-72345890D01*
X176344786Y-72345890D02*
X176392405Y-72155414D01*
X176392405Y-72155414D02*
X176440024Y-72060176D01*
X176440024Y-72060176D02*
X176535262Y-71964938D01*
X176535262Y-71964938D02*
X176678119Y-71917319D01*
X176678119Y-71917319D02*
X176773357Y-71917319D01*
X176773357Y-71917319D02*
X176916214Y-71964938D01*
X176916214Y-71964938D02*
X176963833Y-72012557D01*
X177440024Y-72917319D02*
X177630500Y-72917319D01*
X177630500Y-72917319D02*
X177725738Y-72869700D01*
X177725738Y-72869700D02*
X177773357Y-72822080D01*
X177773357Y-72822080D02*
X177868595Y-72679223D01*
X177868595Y-72679223D02*
X177916214Y-72488747D01*
X177916214Y-72488747D02*
X177916214Y-72107795D01*
X177916214Y-72107795D02*
X177868595Y-72012557D01*
X177868595Y-72012557D02*
X177820976Y-71964938D01*
X177820976Y-71964938D02*
X177725738Y-71917319D01*
X177725738Y-71917319D02*
X177535262Y-71917319D01*
X177535262Y-71917319D02*
X177440024Y-71964938D01*
X177440024Y-71964938D02*
X177392405Y-72012557D01*
X177392405Y-72012557D02*
X177344786Y-72107795D01*
X177344786Y-72107795D02*
X177344786Y-72345890D01*
X177344786Y-72345890D02*
X177392405Y-72441128D01*
X177392405Y-72441128D02*
X177440024Y-72488747D01*
X177440024Y-72488747D02*
X177535262Y-72536366D01*
X177535262Y-72536366D02*
X177725738Y-72536366D01*
X177725738Y-72536366D02*
X177820976Y-72488747D01*
X177820976Y-72488747D02*
X177868595Y-72441128D01*
X177868595Y-72441128D02*
X177916214Y-72345890D01*
X178077319Y-60262594D02*
X177077319Y-60262594D01*
X177077319Y-60262594D02*
X177077319Y-60024499D01*
X177077319Y-60024499D02*
X177124938Y-59881642D01*
X177124938Y-59881642D02*
X177220176Y-59786404D01*
X177220176Y-59786404D02*
X177315414Y-59738785D01*
X177315414Y-59738785D02*
X177505890Y-59691166D01*
X177505890Y-59691166D02*
X177648747Y-59691166D01*
X177648747Y-59691166D02*
X177839223Y-59738785D01*
X177839223Y-59738785D02*
X177934461Y-59786404D01*
X177934461Y-59786404D02*
X178029700Y-59881642D01*
X178029700Y-59881642D02*
X178077319Y-60024499D01*
X178077319Y-60024499D02*
X178077319Y-60262594D01*
X178077319Y-58738785D02*
X178077319Y-59310213D01*
X178077319Y-59024499D02*
X177077319Y-59024499D01*
X177077319Y-59024499D02*
X177220176Y-59119737D01*
X177220176Y-59119737D02*
X177315414Y-59214975D01*
X177315414Y-59214975D02*
X177363033Y-59310213D01*
X103209167Y-110364700D02*
X103352024Y-110412319D01*
X103352024Y-110412319D02*
X103590119Y-110412319D01*
X103590119Y-110412319D02*
X103685357Y-110364700D01*
X103685357Y-110364700D02*
X103732976Y-110317080D01*
X103732976Y-110317080D02*
X103780595Y-110221842D01*
X103780595Y-110221842D02*
X103780595Y-110126604D01*
X103780595Y-110126604D02*
X103732976Y-110031366D01*
X103732976Y-110031366D02*
X103685357Y-109983747D01*
X103685357Y-109983747D02*
X103590119Y-109936128D01*
X103590119Y-109936128D02*
X103399643Y-109888509D01*
X103399643Y-109888509D02*
X103304405Y-109840890D01*
X103304405Y-109840890D02*
X103256786Y-109793271D01*
X103256786Y-109793271D02*
X103209167Y-109698033D01*
X103209167Y-109698033D02*
X103209167Y-109602795D01*
X103209167Y-109602795D02*
X103256786Y-109507557D01*
X103256786Y-109507557D02*
X103304405Y-109459938D01*
X103304405Y-109459938D02*
X103399643Y-109412319D01*
X103399643Y-109412319D02*
X103637738Y-109412319D01*
X103637738Y-109412319D02*
X103780595Y-109459938D01*
X104113929Y-109412319D02*
X104352024Y-110412319D01*
X104352024Y-110412319D02*
X104542500Y-109698033D01*
X104542500Y-109698033D02*
X104732976Y-110412319D01*
X104732976Y-110412319D02*
X104971072Y-109412319D01*
X105304405Y-109507557D02*
X105352024Y-109459938D01*
X105352024Y-109459938D02*
X105447262Y-109412319D01*
X105447262Y-109412319D02*
X105685357Y-109412319D01*
X105685357Y-109412319D02*
X105780595Y-109459938D01*
X105780595Y-109459938D02*
X105828214Y-109507557D01*
X105828214Y-109507557D02*
X105875833Y-109602795D01*
X105875833Y-109602795D02*
X105875833Y-109698033D01*
X105875833Y-109698033D02*
X105828214Y-109840890D01*
X105828214Y-109840890D02*
X105256786Y-110412319D01*
X105256786Y-110412319D02*
X105875833Y-110412319D01*
X175361761Y-93573557D02*
X175266523Y-93525938D01*
X175266523Y-93525938D02*
X175171285Y-93430700D01*
X175171285Y-93430700D02*
X175028428Y-93287842D01*
X175028428Y-93287842D02*
X174933190Y-93240223D01*
X174933190Y-93240223D02*
X174837952Y-93240223D01*
X174885571Y-93478319D02*
X174790333Y-93430700D01*
X174790333Y-93430700D02*
X174695095Y-93335461D01*
X174695095Y-93335461D02*
X174647476Y-93144985D01*
X174647476Y-93144985D02*
X174647476Y-92811652D01*
X174647476Y-92811652D02*
X174695095Y-92621176D01*
X174695095Y-92621176D02*
X174790333Y-92525938D01*
X174790333Y-92525938D02*
X174885571Y-92478319D01*
X174885571Y-92478319D02*
X175076047Y-92478319D01*
X175076047Y-92478319D02*
X175171285Y-92525938D01*
X175171285Y-92525938D02*
X175266523Y-92621176D01*
X175266523Y-92621176D02*
X175314142Y-92811652D01*
X175314142Y-92811652D02*
X175314142Y-93144985D01*
X175314142Y-93144985D02*
X175266523Y-93335461D01*
X175266523Y-93335461D02*
X175171285Y-93430700D01*
X175171285Y-93430700D02*
X175076047Y-93478319D01*
X175076047Y-93478319D02*
X174885571Y-93478319D01*
X175695095Y-92573557D02*
X175742714Y-92525938D01*
X175742714Y-92525938D02*
X175837952Y-92478319D01*
X175837952Y-92478319D02*
X176076047Y-92478319D01*
X176076047Y-92478319D02*
X176171285Y-92525938D01*
X176171285Y-92525938D02*
X176218904Y-92573557D01*
X176218904Y-92573557D02*
X176266523Y-92668795D01*
X176266523Y-92668795D02*
X176266523Y-92764033D01*
X176266523Y-92764033D02*
X176218904Y-92906890D01*
X176218904Y-92906890D02*
X175647476Y-93478319D01*
X175647476Y-93478319D02*
X176266523Y-93478319D01*
X168701405Y-93078319D02*
X168701405Y-92078319D01*
X168701405Y-92078319D02*
X168939500Y-92078319D01*
X168939500Y-92078319D02*
X169082357Y-92125938D01*
X169082357Y-92125938D02*
X169177595Y-92221176D01*
X169177595Y-92221176D02*
X169225214Y-92316414D01*
X169225214Y-92316414D02*
X169272833Y-92506890D01*
X169272833Y-92506890D02*
X169272833Y-92649747D01*
X169272833Y-92649747D02*
X169225214Y-92840223D01*
X169225214Y-92840223D02*
X169177595Y-92935461D01*
X169177595Y-92935461D02*
X169082357Y-93030700D01*
X169082357Y-93030700D02*
X168939500Y-93078319D01*
X168939500Y-93078319D02*
X168701405Y-93078319D01*
X170129976Y-92411652D02*
X170129976Y-93078319D01*
X169891881Y-92030700D02*
X169653786Y-92744985D01*
X169653786Y-92744985D02*
X170272833Y-92744985D01*
X120989167Y-110364700D02*
X121132024Y-110412319D01*
X121132024Y-110412319D02*
X121370119Y-110412319D01*
X121370119Y-110412319D02*
X121465357Y-110364700D01*
X121465357Y-110364700D02*
X121512976Y-110317080D01*
X121512976Y-110317080D02*
X121560595Y-110221842D01*
X121560595Y-110221842D02*
X121560595Y-110126604D01*
X121560595Y-110126604D02*
X121512976Y-110031366D01*
X121512976Y-110031366D02*
X121465357Y-109983747D01*
X121465357Y-109983747D02*
X121370119Y-109936128D01*
X121370119Y-109936128D02*
X121179643Y-109888509D01*
X121179643Y-109888509D02*
X121084405Y-109840890D01*
X121084405Y-109840890D02*
X121036786Y-109793271D01*
X121036786Y-109793271D02*
X120989167Y-109698033D01*
X120989167Y-109698033D02*
X120989167Y-109602795D01*
X120989167Y-109602795D02*
X121036786Y-109507557D01*
X121036786Y-109507557D02*
X121084405Y-109459938D01*
X121084405Y-109459938D02*
X121179643Y-109412319D01*
X121179643Y-109412319D02*
X121417738Y-109412319D01*
X121417738Y-109412319D02*
X121560595Y-109459938D01*
X121893929Y-109412319D02*
X122132024Y-110412319D01*
X122132024Y-110412319D02*
X122322500Y-109698033D01*
X122322500Y-109698033D02*
X122512976Y-110412319D01*
X122512976Y-110412319D02*
X122751072Y-109412319D01*
X123036786Y-109412319D02*
X123655833Y-109412319D01*
X123655833Y-109412319D02*
X123322500Y-109793271D01*
X123322500Y-109793271D02*
X123465357Y-109793271D01*
X123465357Y-109793271D02*
X123560595Y-109840890D01*
X123560595Y-109840890D02*
X123608214Y-109888509D01*
X123608214Y-109888509D02*
X123655833Y-109983747D01*
X123655833Y-109983747D02*
X123655833Y-110221842D01*
X123655833Y-110221842D02*
X123608214Y-110317080D01*
X123608214Y-110317080D02*
X123560595Y-110364700D01*
X123560595Y-110364700D02*
X123465357Y-110412319D01*
X123465357Y-110412319D02*
X123179643Y-110412319D01*
X123179643Y-110412319D02*
X123084405Y-110364700D01*
X123084405Y-110364700D02*
X123036786Y-110317080D01*
X178949167Y-110364700D02*
X179092024Y-110412319D01*
X179092024Y-110412319D02*
X179330119Y-110412319D01*
X179330119Y-110412319D02*
X179425357Y-110364700D01*
X179425357Y-110364700D02*
X179472976Y-110317080D01*
X179472976Y-110317080D02*
X179520595Y-110221842D01*
X179520595Y-110221842D02*
X179520595Y-110126604D01*
X179520595Y-110126604D02*
X179472976Y-110031366D01*
X179472976Y-110031366D02*
X179425357Y-109983747D01*
X179425357Y-109983747D02*
X179330119Y-109936128D01*
X179330119Y-109936128D02*
X179139643Y-109888509D01*
X179139643Y-109888509D02*
X179044405Y-109840890D01*
X179044405Y-109840890D02*
X178996786Y-109793271D01*
X178996786Y-109793271D02*
X178949167Y-109698033D01*
X178949167Y-109698033D02*
X178949167Y-109602795D01*
X178949167Y-109602795D02*
X178996786Y-109507557D01*
X178996786Y-109507557D02*
X179044405Y-109459938D01*
X179044405Y-109459938D02*
X179139643Y-109412319D01*
X179139643Y-109412319D02*
X179377738Y-109412319D01*
X179377738Y-109412319D02*
X179520595Y-109459938D01*
X179853929Y-109412319D02*
X180092024Y-110412319D01*
X180092024Y-110412319D02*
X180282500Y-109698033D01*
X180282500Y-109698033D02*
X180472976Y-110412319D01*
X180472976Y-110412319D02*
X180711072Y-109412319D01*
X181568214Y-109412319D02*
X181092024Y-109412319D01*
X181092024Y-109412319D02*
X181044405Y-109888509D01*
X181044405Y-109888509D02*
X181092024Y-109840890D01*
X181092024Y-109840890D02*
X181187262Y-109793271D01*
X181187262Y-109793271D02*
X181425357Y-109793271D01*
X181425357Y-109793271D02*
X181520595Y-109840890D01*
X181520595Y-109840890D02*
X181568214Y-109888509D01*
X181568214Y-109888509D02*
X181615833Y-109983747D01*
X181615833Y-109983747D02*
X181615833Y-110221842D01*
X181615833Y-110221842D02*
X181568214Y-110317080D01*
X181568214Y-110317080D02*
X181520595Y-110364700D01*
X181520595Y-110364700D02*
X181425357Y-110412319D01*
X181425357Y-110412319D02*
X181187262Y-110412319D01*
X181187262Y-110412319D02*
X181092024Y-110364700D01*
X181092024Y-110364700D02*
X181044405Y-110317080D01*
X181577319Y-54611166D02*
X181101128Y-54944499D01*
X181577319Y-55182594D02*
X180577319Y-55182594D01*
X180577319Y-55182594D02*
X180577319Y-54801642D01*
X180577319Y-54801642D02*
X180624938Y-54706404D01*
X180624938Y-54706404D02*
X180672557Y-54658785D01*
X180672557Y-54658785D02*
X180767795Y-54611166D01*
X180767795Y-54611166D02*
X180910652Y-54611166D01*
X180910652Y-54611166D02*
X181005890Y-54658785D01*
X181005890Y-54658785D02*
X181053509Y-54706404D01*
X181053509Y-54706404D02*
X181101128Y-54801642D01*
X181101128Y-54801642D02*
X181101128Y-55182594D01*
X180672557Y-54230213D02*
X180624938Y-54182594D01*
X180624938Y-54182594D02*
X180577319Y-54087356D01*
X180577319Y-54087356D02*
X180577319Y-53849261D01*
X180577319Y-53849261D02*
X180624938Y-53754023D01*
X180624938Y-53754023D02*
X180672557Y-53706404D01*
X180672557Y-53706404D02*
X180767795Y-53658785D01*
X180767795Y-53658785D02*
X180863033Y-53658785D01*
X180863033Y-53658785D02*
X181005890Y-53706404D01*
X181005890Y-53706404D02*
X181577319Y-54277832D01*
X181577319Y-54277832D02*
X181577319Y-53658785D01*
X168752319Y-64136166D02*
X168276128Y-64469499D01*
X168752319Y-64707594D02*
X167752319Y-64707594D01*
X167752319Y-64707594D02*
X167752319Y-64326642D01*
X167752319Y-64326642D02*
X167799938Y-64231404D01*
X167799938Y-64231404D02*
X167847557Y-64183785D01*
X167847557Y-64183785D02*
X167942795Y-64136166D01*
X167942795Y-64136166D02*
X168085652Y-64136166D01*
X168085652Y-64136166D02*
X168180890Y-64183785D01*
X168180890Y-64183785D02*
X168228509Y-64231404D01*
X168228509Y-64231404D02*
X168276128Y-64326642D01*
X168276128Y-64326642D02*
X168276128Y-64707594D01*
X167752319Y-63802832D02*
X167752319Y-63183785D01*
X167752319Y-63183785D02*
X168133271Y-63517118D01*
X168133271Y-63517118D02*
X168133271Y-63374261D01*
X168133271Y-63374261D02*
X168180890Y-63279023D01*
X168180890Y-63279023D02*
X168228509Y-63231404D01*
X168228509Y-63231404D02*
X168323747Y-63183785D01*
X168323747Y-63183785D02*
X168561842Y-63183785D01*
X168561842Y-63183785D02*
X168657080Y-63231404D01*
X168657080Y-63231404D02*
X168704700Y-63279023D01*
X168704700Y-63279023D02*
X168752319Y-63374261D01*
X168752319Y-63374261D02*
X168752319Y-63659975D01*
X168752319Y-63659975D02*
X168704700Y-63755213D01*
X168704700Y-63755213D02*
X168657080Y-63802832D01*
X98267319Y-59929166D02*
X97791128Y-60262499D01*
X98267319Y-60500594D02*
X97267319Y-60500594D01*
X97267319Y-60500594D02*
X97267319Y-60119642D01*
X97267319Y-60119642D02*
X97314938Y-60024404D01*
X97314938Y-60024404D02*
X97362557Y-59976785D01*
X97362557Y-59976785D02*
X97457795Y-59929166D01*
X97457795Y-59929166D02*
X97600652Y-59929166D01*
X97600652Y-59929166D02*
X97695890Y-59976785D01*
X97695890Y-59976785D02*
X97743509Y-60024404D01*
X97743509Y-60024404D02*
X97791128Y-60119642D01*
X97791128Y-60119642D02*
X97791128Y-60500594D01*
X97267319Y-59072023D02*
X97267319Y-59262499D01*
X97267319Y-59262499D02*
X97314938Y-59357737D01*
X97314938Y-59357737D02*
X97362557Y-59405356D01*
X97362557Y-59405356D02*
X97505414Y-59500594D01*
X97505414Y-59500594D02*
X97695890Y-59548213D01*
X97695890Y-59548213D02*
X98076842Y-59548213D01*
X98076842Y-59548213D02*
X98172080Y-59500594D01*
X98172080Y-59500594D02*
X98219700Y-59452975D01*
X98219700Y-59452975D02*
X98267319Y-59357737D01*
X98267319Y-59357737D02*
X98267319Y-59167261D01*
X98267319Y-59167261D02*
X98219700Y-59072023D01*
X98219700Y-59072023D02*
X98172080Y-59024404D01*
X98172080Y-59024404D02*
X98076842Y-58976785D01*
X98076842Y-58976785D02*
X97838747Y-58976785D01*
X97838747Y-58976785D02*
X97743509Y-59024404D01*
X97743509Y-59024404D02*
X97695890Y-59072023D01*
X97695890Y-59072023D02*
X97648271Y-59167261D01*
X97648271Y-59167261D02*
X97648271Y-59357737D01*
X97648271Y-59357737D02*
X97695890Y-59452975D01*
X97695890Y-59452975D02*
X97743509Y-59500594D01*
X97743509Y-59500594D02*
X97838747Y-59548213D01*
X182467319Y-96981357D02*
X181991128Y-97314690D01*
X182467319Y-97552785D02*
X181467319Y-97552785D01*
X181467319Y-97552785D02*
X181467319Y-97171833D01*
X181467319Y-97171833D02*
X181514938Y-97076595D01*
X181514938Y-97076595D02*
X181562557Y-97028976D01*
X181562557Y-97028976D02*
X181657795Y-96981357D01*
X181657795Y-96981357D02*
X181800652Y-96981357D01*
X181800652Y-96981357D02*
X181895890Y-97028976D01*
X181895890Y-97028976D02*
X181943509Y-97076595D01*
X181943509Y-97076595D02*
X181991128Y-97171833D01*
X181991128Y-97171833D02*
X181991128Y-97552785D01*
X182467319Y-96028976D02*
X182467319Y-96600404D01*
X182467319Y-96314690D02*
X181467319Y-96314690D01*
X181467319Y-96314690D02*
X181610176Y-96409928D01*
X181610176Y-96409928D02*
X181705414Y-96505166D01*
X181705414Y-96505166D02*
X181753033Y-96600404D01*
X181467319Y-95409928D02*
X181467319Y-95314690D01*
X181467319Y-95314690D02*
X181514938Y-95219452D01*
X181514938Y-95219452D02*
X181562557Y-95171833D01*
X181562557Y-95171833D02*
X181657795Y-95124214D01*
X181657795Y-95124214D02*
X181848271Y-95076595D01*
X181848271Y-95076595D02*
X182086366Y-95076595D01*
X182086366Y-95076595D02*
X182276842Y-95124214D01*
X182276842Y-95124214D02*
X182372080Y-95171833D01*
X182372080Y-95171833D02*
X182419700Y-95219452D01*
X182419700Y-95219452D02*
X182467319Y-95314690D01*
X182467319Y-95314690D02*
X182467319Y-95409928D01*
X182467319Y-95409928D02*
X182419700Y-95505166D01*
X182419700Y-95505166D02*
X182372080Y-95552785D01*
X182372080Y-95552785D02*
X182276842Y-95600404D01*
X182276842Y-95600404D02*
X182086366Y-95648023D01*
X182086366Y-95648023D02*
X181848271Y-95648023D01*
X181848271Y-95648023D02*
X181657795Y-95600404D01*
X181657795Y-95600404D02*
X181562557Y-95552785D01*
X181562557Y-95552785D02*
X181514938Y-95505166D01*
X181514938Y-95505166D02*
X181467319Y-95409928D01*
X179464642Y-106827319D02*
X179131309Y-106351128D01*
X178893214Y-106827319D02*
X178893214Y-105827319D01*
X178893214Y-105827319D02*
X179274166Y-105827319D01*
X179274166Y-105827319D02*
X179369404Y-105874938D01*
X179369404Y-105874938D02*
X179417023Y-105922557D01*
X179417023Y-105922557D02*
X179464642Y-106017795D01*
X179464642Y-106017795D02*
X179464642Y-106160652D01*
X179464642Y-106160652D02*
X179417023Y-106255890D01*
X179417023Y-106255890D02*
X179369404Y-106303509D01*
X179369404Y-106303509D02*
X179274166Y-106351128D01*
X179274166Y-106351128D02*
X178893214Y-106351128D01*
X180417023Y-106827319D02*
X179845595Y-106827319D01*
X180131309Y-106827319D02*
X180131309Y-105827319D01*
X180131309Y-105827319D02*
X180036071Y-105970176D01*
X180036071Y-105970176D02*
X179940833Y-106065414D01*
X179940833Y-106065414D02*
X179845595Y-106113033D01*
X181274166Y-106160652D02*
X181274166Y-106827319D01*
X181036071Y-105779700D02*
X180797976Y-106493985D01*
X180797976Y-106493985D02*
X181417023Y-106493985D01*
X172052319Y-59968666D02*
X171576128Y-60301999D01*
X172052319Y-60540094D02*
X171052319Y-60540094D01*
X171052319Y-60540094D02*
X171052319Y-60159142D01*
X171052319Y-60159142D02*
X171099938Y-60063904D01*
X171099938Y-60063904D02*
X171147557Y-60016285D01*
X171147557Y-60016285D02*
X171242795Y-59968666D01*
X171242795Y-59968666D02*
X171385652Y-59968666D01*
X171385652Y-59968666D02*
X171480890Y-60016285D01*
X171480890Y-60016285D02*
X171528509Y-60063904D01*
X171528509Y-60063904D02*
X171576128Y-60159142D01*
X171576128Y-60159142D02*
X171576128Y-60540094D01*
X171385652Y-59111523D02*
X172052319Y-59111523D01*
X171004700Y-59349618D02*
X171718985Y-59587713D01*
X171718985Y-59587713D02*
X171718985Y-58968666D01*
X116206595Y-67373319D02*
X116206595Y-68182842D01*
X116206595Y-68182842D02*
X116254214Y-68278080D01*
X116254214Y-68278080D02*
X116301833Y-68325700D01*
X116301833Y-68325700D02*
X116397071Y-68373319D01*
X116397071Y-68373319D02*
X116587547Y-68373319D01*
X116587547Y-68373319D02*
X116682785Y-68325700D01*
X116682785Y-68325700D02*
X116730404Y-68278080D01*
X116730404Y-68278080D02*
X116778023Y-68182842D01*
X116778023Y-68182842D02*
X116778023Y-67373319D01*
X117158976Y-67373319D02*
X117778023Y-67373319D01*
X117778023Y-67373319D02*
X117444690Y-67754271D01*
X117444690Y-67754271D02*
X117587547Y-67754271D01*
X117587547Y-67754271D02*
X117682785Y-67801890D01*
X117682785Y-67801890D02*
X117730404Y-67849509D01*
X117730404Y-67849509D02*
X117778023Y-67944747D01*
X117778023Y-67944747D02*
X117778023Y-68182842D01*
X117778023Y-68182842D02*
X117730404Y-68278080D01*
X117730404Y-68278080D02*
X117682785Y-68325700D01*
X117682785Y-68325700D02*
X117587547Y-68373319D01*
X117587547Y-68373319D02*
X117301833Y-68373319D01*
X117301833Y-68373319D02*
X117206595Y-68325700D01*
X117206595Y-68325700D02*
X117158976Y-68278080D01*
X111304213Y-50633319D02*
X111304213Y-49633319D01*
X111875641Y-50633319D02*
X111447070Y-50061890D01*
X111875641Y-49633319D02*
X111304213Y-50204747D01*
X112685165Y-50585700D02*
X112589927Y-50633319D01*
X112589927Y-50633319D02*
X112399451Y-50633319D01*
X112399451Y-50633319D02*
X112304213Y-50585700D01*
X112304213Y-50585700D02*
X112256594Y-50490461D01*
X112256594Y-50490461D02*
X112256594Y-50109509D01*
X112256594Y-50109509D02*
X112304213Y-50014271D01*
X112304213Y-50014271D02*
X112399451Y-49966652D01*
X112399451Y-49966652D02*
X112589927Y-49966652D01*
X112589927Y-49966652D02*
X112685165Y-50014271D01*
X112685165Y-50014271D02*
X112732784Y-50109509D01*
X112732784Y-50109509D02*
X112732784Y-50204747D01*
X112732784Y-50204747D02*
X112256594Y-50299985D01*
X113542308Y-50585700D02*
X113447070Y-50633319D01*
X113447070Y-50633319D02*
X113256594Y-50633319D01*
X113256594Y-50633319D02*
X113161356Y-50585700D01*
X113161356Y-50585700D02*
X113113737Y-50490461D01*
X113113737Y-50490461D02*
X113113737Y-50109509D01*
X113113737Y-50109509D02*
X113161356Y-50014271D01*
X113161356Y-50014271D02*
X113256594Y-49966652D01*
X113256594Y-49966652D02*
X113447070Y-49966652D01*
X113447070Y-49966652D02*
X113542308Y-50014271D01*
X113542308Y-50014271D02*
X113589927Y-50109509D01*
X113589927Y-50109509D02*
X113589927Y-50204747D01*
X113589927Y-50204747D02*
X113113737Y-50299985D01*
X114018499Y-49966652D02*
X114018499Y-50966652D01*
X114018499Y-50014271D02*
X114113737Y-49966652D01*
X114113737Y-49966652D02*
X114304213Y-49966652D01*
X114304213Y-49966652D02*
X114399451Y-50014271D01*
X114399451Y-50014271D02*
X114447070Y-50061890D01*
X114447070Y-50061890D02*
X114494689Y-50157128D01*
X114494689Y-50157128D02*
X114494689Y-50442842D01*
X114494689Y-50442842D02*
X114447070Y-50538080D01*
X114447070Y-50538080D02*
X114399451Y-50585700D01*
X114399451Y-50585700D02*
X114304213Y-50633319D01*
X114304213Y-50633319D02*
X114113737Y-50633319D01*
X114113737Y-50633319D02*
X114018499Y-50585700D01*
X115875642Y-49633319D02*
X116066118Y-49633319D01*
X116066118Y-49633319D02*
X116161356Y-49680938D01*
X116161356Y-49680938D02*
X116256594Y-49776176D01*
X116256594Y-49776176D02*
X116304213Y-49966652D01*
X116304213Y-49966652D02*
X116304213Y-50299985D01*
X116304213Y-50299985D02*
X116256594Y-50490461D01*
X116256594Y-50490461D02*
X116161356Y-50585700D01*
X116161356Y-50585700D02*
X116066118Y-50633319D01*
X116066118Y-50633319D02*
X115875642Y-50633319D01*
X115875642Y-50633319D02*
X115780404Y-50585700D01*
X115780404Y-50585700D02*
X115685166Y-50490461D01*
X115685166Y-50490461D02*
X115637547Y-50299985D01*
X115637547Y-50299985D02*
X115637547Y-49966652D01*
X115637547Y-49966652D02*
X115685166Y-49776176D01*
X115685166Y-49776176D02*
X115780404Y-49680938D01*
X115780404Y-49680938D02*
X115875642Y-49633319D01*
X117161356Y-49966652D02*
X117161356Y-50633319D01*
X116732785Y-49966652D02*
X116732785Y-50490461D01*
X116732785Y-50490461D02*
X116780404Y-50585700D01*
X116780404Y-50585700D02*
X116875642Y-50633319D01*
X116875642Y-50633319D02*
X117018499Y-50633319D01*
X117018499Y-50633319D02*
X117113737Y-50585700D01*
X117113737Y-50585700D02*
X117161356Y-50538080D01*
X117494690Y-49966652D02*
X117875642Y-49966652D01*
X117637547Y-49633319D02*
X117637547Y-50490461D01*
X117637547Y-50490461D02*
X117685166Y-50585700D01*
X117685166Y-50585700D02*
X117780404Y-50633319D01*
X117780404Y-50633319D02*
X117875642Y-50633319D01*
X118923262Y-50347604D02*
X119399452Y-50347604D01*
X118828024Y-50633319D02*
X119161357Y-49633319D01*
X119161357Y-49633319D02*
X119494690Y-50633319D01*
X119828024Y-50633319D02*
X119828024Y-49966652D01*
X119828024Y-50157128D02*
X119875643Y-50061890D01*
X119875643Y-50061890D02*
X119923262Y-50014271D01*
X119923262Y-50014271D02*
X120018500Y-49966652D01*
X120018500Y-49966652D02*
X120113738Y-49966652D01*
X120828024Y-50585700D02*
X120732786Y-50633319D01*
X120732786Y-50633319D02*
X120542310Y-50633319D01*
X120542310Y-50633319D02*
X120447072Y-50585700D01*
X120447072Y-50585700D02*
X120399453Y-50490461D01*
X120399453Y-50490461D02*
X120399453Y-50109509D01*
X120399453Y-50109509D02*
X120447072Y-50014271D01*
X120447072Y-50014271D02*
X120542310Y-49966652D01*
X120542310Y-49966652D02*
X120732786Y-49966652D01*
X120732786Y-49966652D02*
X120828024Y-50014271D01*
X120828024Y-50014271D02*
X120875643Y-50109509D01*
X120875643Y-50109509D02*
X120875643Y-50204747D01*
X120875643Y-50204747D02*
X120399453Y-50299985D01*
X121732786Y-50633319D02*
X121732786Y-50109509D01*
X121732786Y-50109509D02*
X121685167Y-50014271D01*
X121685167Y-50014271D02*
X121589929Y-49966652D01*
X121589929Y-49966652D02*
X121399453Y-49966652D01*
X121399453Y-49966652D02*
X121304215Y-50014271D01*
X121732786Y-50585700D02*
X121637548Y-50633319D01*
X121637548Y-50633319D02*
X121399453Y-50633319D01*
X121399453Y-50633319D02*
X121304215Y-50585700D01*
X121304215Y-50585700D02*
X121256596Y-50490461D01*
X121256596Y-50490461D02*
X121256596Y-50395223D01*
X121256596Y-50395223D02*
X121304215Y-50299985D01*
X121304215Y-50299985D02*
X121399453Y-50252366D01*
X121399453Y-50252366D02*
X121637548Y-50252366D01*
X121637548Y-50252366D02*
X121732786Y-50204747D01*
X166339319Y-77931357D02*
X165863128Y-78264690D01*
X166339319Y-78502785D02*
X165339319Y-78502785D01*
X165339319Y-78502785D02*
X165339319Y-78121833D01*
X165339319Y-78121833D02*
X165386938Y-78026595D01*
X165386938Y-78026595D02*
X165434557Y-77978976D01*
X165434557Y-77978976D02*
X165529795Y-77931357D01*
X165529795Y-77931357D02*
X165672652Y-77931357D01*
X165672652Y-77931357D02*
X165767890Y-77978976D01*
X165767890Y-77978976D02*
X165815509Y-78026595D01*
X165815509Y-78026595D02*
X165863128Y-78121833D01*
X165863128Y-78121833D02*
X165863128Y-78502785D01*
X166339319Y-76978976D02*
X166339319Y-77550404D01*
X166339319Y-77264690D02*
X165339319Y-77264690D01*
X165339319Y-77264690D02*
X165482176Y-77359928D01*
X165482176Y-77359928D02*
X165577414Y-77455166D01*
X165577414Y-77455166D02*
X165625033Y-77550404D01*
X165434557Y-76598023D02*
X165386938Y-76550404D01*
X165386938Y-76550404D02*
X165339319Y-76455166D01*
X165339319Y-76455166D02*
X165339319Y-76217071D01*
X165339319Y-76217071D02*
X165386938Y-76121833D01*
X165386938Y-76121833D02*
X165434557Y-76074214D01*
X165434557Y-76074214D02*
X165529795Y-76026595D01*
X165529795Y-76026595D02*
X165625033Y-76026595D01*
X165625033Y-76026595D02*
X165767890Y-76074214D01*
X165767890Y-76074214D02*
X166339319Y-76645642D01*
X166339319Y-76645642D02*
X166339319Y-76026595D01*
X108368142Y-94125319D02*
X108034809Y-93649128D01*
X107796714Y-94125319D02*
X107796714Y-93125319D01*
X107796714Y-93125319D02*
X108177666Y-93125319D01*
X108177666Y-93125319D02*
X108272904Y-93172938D01*
X108272904Y-93172938D02*
X108320523Y-93220557D01*
X108320523Y-93220557D02*
X108368142Y-93315795D01*
X108368142Y-93315795D02*
X108368142Y-93458652D01*
X108368142Y-93458652D02*
X108320523Y-93553890D01*
X108320523Y-93553890D02*
X108272904Y-93601509D01*
X108272904Y-93601509D02*
X108177666Y-93649128D01*
X108177666Y-93649128D02*
X107796714Y-93649128D01*
X109320523Y-94125319D02*
X108749095Y-94125319D01*
X109034809Y-94125319D02*
X109034809Y-93125319D01*
X109034809Y-93125319D02*
X108939571Y-93268176D01*
X108939571Y-93268176D02*
X108844333Y-93363414D01*
X108844333Y-93363414D02*
X108749095Y-93411033D01*
X109891952Y-93553890D02*
X109796714Y-93506271D01*
X109796714Y-93506271D02*
X109749095Y-93458652D01*
X109749095Y-93458652D02*
X109701476Y-93363414D01*
X109701476Y-93363414D02*
X109701476Y-93315795D01*
X109701476Y-93315795D02*
X109749095Y-93220557D01*
X109749095Y-93220557D02*
X109796714Y-93172938D01*
X109796714Y-93172938D02*
X109891952Y-93125319D01*
X109891952Y-93125319D02*
X110082428Y-93125319D01*
X110082428Y-93125319D02*
X110177666Y-93172938D01*
X110177666Y-93172938D02*
X110225285Y-93220557D01*
X110225285Y-93220557D02*
X110272904Y-93315795D01*
X110272904Y-93315795D02*
X110272904Y-93363414D01*
X110272904Y-93363414D02*
X110225285Y-93458652D01*
X110225285Y-93458652D02*
X110177666Y-93506271D01*
X110177666Y-93506271D02*
X110082428Y-93553890D01*
X110082428Y-93553890D02*
X109891952Y-93553890D01*
X109891952Y-93553890D02*
X109796714Y-93601509D01*
X109796714Y-93601509D02*
X109749095Y-93649128D01*
X109749095Y-93649128D02*
X109701476Y-93744366D01*
X109701476Y-93744366D02*
X109701476Y-93934842D01*
X109701476Y-93934842D02*
X109749095Y-94030080D01*
X109749095Y-94030080D02*
X109796714Y-94077700D01*
X109796714Y-94077700D02*
X109891952Y-94125319D01*
X109891952Y-94125319D02*
X110082428Y-94125319D01*
X110082428Y-94125319D02*
X110177666Y-94077700D01*
X110177666Y-94077700D02*
X110225285Y-94030080D01*
X110225285Y-94030080D02*
X110272904Y-93934842D01*
X110272904Y-93934842D02*
X110272904Y-93744366D01*
X110272904Y-93744366D02*
X110225285Y-93649128D01*
X110225285Y-93649128D02*
X110177666Y-93601509D01*
X110177666Y-93601509D02*
X110082428Y-93553890D01*
X164588905Y-94393319D02*
X164588905Y-93393319D01*
X164588905Y-93393319D02*
X164827000Y-93393319D01*
X164827000Y-93393319D02*
X164969857Y-93440938D01*
X164969857Y-93440938D02*
X165065095Y-93536176D01*
X165065095Y-93536176D02*
X165112714Y-93631414D01*
X165112714Y-93631414D02*
X165160333Y-93821890D01*
X165160333Y-93821890D02*
X165160333Y-93964747D01*
X165160333Y-93964747D02*
X165112714Y-94155223D01*
X165112714Y-94155223D02*
X165065095Y-94250461D01*
X165065095Y-94250461D02*
X164969857Y-94345700D01*
X164969857Y-94345700D02*
X164827000Y-94393319D01*
X164827000Y-94393319D02*
X164588905Y-94393319D01*
X166065095Y-93393319D02*
X165588905Y-93393319D01*
X165588905Y-93393319D02*
X165541286Y-93869509D01*
X165541286Y-93869509D02*
X165588905Y-93821890D01*
X165588905Y-93821890D02*
X165684143Y-93774271D01*
X165684143Y-93774271D02*
X165922238Y-93774271D01*
X165922238Y-93774271D02*
X166017476Y-93821890D01*
X166017476Y-93821890D02*
X166065095Y-93869509D01*
X166065095Y-93869509D02*
X166112714Y-93964747D01*
X166112714Y-93964747D02*
X166112714Y-94202842D01*
X166112714Y-94202842D02*
X166065095Y-94298080D01*
X166065095Y-94298080D02*
X166017476Y-94345700D01*
X166017476Y-94345700D02*
X165922238Y-94393319D01*
X165922238Y-94393319D02*
X165684143Y-94393319D01*
X165684143Y-94393319D02*
X165588905Y-94345700D01*
X165588905Y-94345700D02*
X165541286Y-94298080D01*
X191715319Y-81431833D02*
X192429604Y-81431833D01*
X192429604Y-81431833D02*
X192572461Y-81479452D01*
X192572461Y-81479452D02*
X192667700Y-81574690D01*
X192667700Y-81574690D02*
X192715319Y-81717547D01*
X192715319Y-81717547D02*
X192715319Y-81812785D01*
X191715319Y-80527071D02*
X191715319Y-80717547D01*
X191715319Y-80717547D02*
X191762938Y-80812785D01*
X191762938Y-80812785D02*
X191810557Y-80860404D01*
X191810557Y-80860404D02*
X191953414Y-80955642D01*
X191953414Y-80955642D02*
X192143890Y-81003261D01*
X192143890Y-81003261D02*
X192524842Y-81003261D01*
X192524842Y-81003261D02*
X192620080Y-80955642D01*
X192620080Y-80955642D02*
X192667700Y-80908023D01*
X192667700Y-80908023D02*
X192715319Y-80812785D01*
X192715319Y-80812785D02*
X192715319Y-80622309D01*
X192715319Y-80622309D02*
X192667700Y-80527071D01*
X192667700Y-80527071D02*
X192620080Y-80479452D01*
X192620080Y-80479452D02*
X192524842Y-80431833D01*
X192524842Y-80431833D02*
X192286747Y-80431833D01*
X192286747Y-80431833D02*
X192191509Y-80479452D01*
X192191509Y-80479452D02*
X192143890Y-80527071D01*
X192143890Y-80527071D02*
X192096271Y-80622309D01*
X192096271Y-80622309D02*
X192096271Y-80812785D01*
X192096271Y-80812785D02*
X192143890Y-80908023D01*
X192143890Y-80908023D02*
X192191509Y-80955642D01*
X192191509Y-80955642D02*
X192286747Y-81003261D01*
X175313261Y-99288557D02*
X175218023Y-99240938D01*
X175218023Y-99240938D02*
X175122785Y-99145700D01*
X175122785Y-99145700D02*
X174979928Y-99002842D01*
X174979928Y-99002842D02*
X174884690Y-98955223D01*
X174884690Y-98955223D02*
X174789452Y-98955223D01*
X174837071Y-99193319D02*
X174741833Y-99145700D01*
X174741833Y-99145700D02*
X174646595Y-99050461D01*
X174646595Y-99050461D02*
X174598976Y-98859985D01*
X174598976Y-98859985D02*
X174598976Y-98526652D01*
X174598976Y-98526652D02*
X174646595Y-98336176D01*
X174646595Y-98336176D02*
X174741833Y-98240938D01*
X174741833Y-98240938D02*
X174837071Y-98193319D01*
X174837071Y-98193319D02*
X175027547Y-98193319D01*
X175027547Y-98193319D02*
X175122785Y-98240938D01*
X175122785Y-98240938D02*
X175218023Y-98336176D01*
X175218023Y-98336176D02*
X175265642Y-98526652D01*
X175265642Y-98526652D02*
X175265642Y-98859985D01*
X175265642Y-98859985D02*
X175218023Y-99050461D01*
X175218023Y-99050461D02*
X175122785Y-99145700D01*
X175122785Y-99145700D02*
X175027547Y-99193319D01*
X175027547Y-99193319D02*
X174837071Y-99193319D01*
X175598976Y-98193319D02*
X176218023Y-98193319D01*
X176218023Y-98193319D02*
X175884690Y-98574271D01*
X175884690Y-98574271D02*
X176027547Y-98574271D01*
X176027547Y-98574271D02*
X176122785Y-98621890D01*
X176122785Y-98621890D02*
X176170404Y-98669509D01*
X176170404Y-98669509D02*
X176218023Y-98764747D01*
X176218023Y-98764747D02*
X176218023Y-99002842D01*
X176218023Y-99002842D02*
X176170404Y-99098080D01*
X176170404Y-99098080D02*
X176122785Y-99145700D01*
X176122785Y-99145700D02*
X176027547Y-99193319D01*
X176027547Y-99193319D02*
X175741833Y-99193319D01*
X175741833Y-99193319D02*
X175646595Y-99145700D01*
X175646595Y-99145700D02*
X175598976Y-99098080D01*
X148336080Y-114507357D02*
X148383700Y-114554976D01*
X148383700Y-114554976D02*
X148431319Y-114697833D01*
X148431319Y-114697833D02*
X148431319Y-114793071D01*
X148431319Y-114793071D02*
X148383700Y-114935928D01*
X148383700Y-114935928D02*
X148288461Y-115031166D01*
X148288461Y-115031166D02*
X148193223Y-115078785D01*
X148193223Y-115078785D02*
X148002747Y-115126404D01*
X148002747Y-115126404D02*
X147859890Y-115126404D01*
X147859890Y-115126404D02*
X147669414Y-115078785D01*
X147669414Y-115078785D02*
X147574176Y-115031166D01*
X147574176Y-115031166D02*
X147478938Y-114935928D01*
X147478938Y-114935928D02*
X147431319Y-114793071D01*
X147431319Y-114793071D02*
X147431319Y-114697833D01*
X147431319Y-114697833D02*
X147478938Y-114554976D01*
X147478938Y-114554976D02*
X147526557Y-114507357D01*
X148431319Y-113554976D02*
X148431319Y-114126404D01*
X148431319Y-113840690D02*
X147431319Y-113840690D01*
X147431319Y-113840690D02*
X147574176Y-113935928D01*
X147574176Y-113935928D02*
X147669414Y-114031166D01*
X147669414Y-114031166D02*
X147717033Y-114126404D01*
X147431319Y-113221642D02*
X147431319Y-112602595D01*
X147431319Y-112602595D02*
X147812271Y-112935928D01*
X147812271Y-112935928D02*
X147812271Y-112793071D01*
X147812271Y-112793071D02*
X147859890Y-112697833D01*
X147859890Y-112697833D02*
X147907509Y-112650214D01*
X147907509Y-112650214D02*
X148002747Y-112602595D01*
X148002747Y-112602595D02*
X148240842Y-112602595D01*
X148240842Y-112602595D02*
X148336080Y-112650214D01*
X148336080Y-112650214D02*
X148383700Y-112697833D01*
X148383700Y-112697833D02*
X148431319Y-112793071D01*
X148431319Y-112793071D02*
X148431319Y-113078785D01*
X148431319Y-113078785D02*
X148383700Y-113174023D01*
X148383700Y-113174023D02*
X148336080Y-113221642D01*
X188049319Y-81860404D02*
X188858842Y-81860404D01*
X188858842Y-81860404D02*
X188954080Y-81812785D01*
X188954080Y-81812785D02*
X189001700Y-81765166D01*
X189001700Y-81765166D02*
X189049319Y-81669928D01*
X189049319Y-81669928D02*
X189049319Y-81479452D01*
X189049319Y-81479452D02*
X189001700Y-81384214D01*
X189001700Y-81384214D02*
X188954080Y-81336595D01*
X188954080Y-81336595D02*
X188858842Y-81288976D01*
X188858842Y-81288976D02*
X188049319Y-81288976D01*
X188382652Y-80384214D02*
X189049319Y-80384214D01*
X188001700Y-80622309D02*
X188715985Y-80860404D01*
X188715985Y-80860404D02*
X188715985Y-80241357D01*
X121679642Y-106827319D02*
X121346309Y-106351128D01*
X121108214Y-106827319D02*
X121108214Y-105827319D01*
X121108214Y-105827319D02*
X121489166Y-105827319D01*
X121489166Y-105827319D02*
X121584404Y-105874938D01*
X121584404Y-105874938D02*
X121632023Y-105922557D01*
X121632023Y-105922557D02*
X121679642Y-106017795D01*
X121679642Y-106017795D02*
X121679642Y-106160652D01*
X121679642Y-106160652D02*
X121632023Y-106255890D01*
X121632023Y-106255890D02*
X121584404Y-106303509D01*
X121584404Y-106303509D02*
X121489166Y-106351128D01*
X121489166Y-106351128D02*
X121108214Y-106351128D01*
X122632023Y-106827319D02*
X122060595Y-106827319D01*
X122346309Y-106827319D02*
X122346309Y-105827319D01*
X122346309Y-105827319D02*
X122251071Y-105970176D01*
X122251071Y-105970176D02*
X122155833Y-106065414D01*
X122155833Y-106065414D02*
X122060595Y-106113033D01*
X123489166Y-105827319D02*
X123298690Y-105827319D01*
X123298690Y-105827319D02*
X123203452Y-105874938D01*
X123203452Y-105874938D02*
X123155833Y-105922557D01*
X123155833Y-105922557D02*
X123060595Y-106065414D01*
X123060595Y-106065414D02*
X123012976Y-106255890D01*
X123012976Y-106255890D02*
X123012976Y-106636842D01*
X123012976Y-106636842D02*
X123060595Y-106732080D01*
X123060595Y-106732080D02*
X123108214Y-106779700D01*
X123108214Y-106779700D02*
X123203452Y-106827319D01*
X123203452Y-106827319D02*
X123393928Y-106827319D01*
X123393928Y-106827319D02*
X123489166Y-106779700D01*
X123489166Y-106779700D02*
X123536785Y-106732080D01*
X123536785Y-106732080D02*
X123584404Y-106636842D01*
X123584404Y-106636842D02*
X123584404Y-106398747D01*
X123584404Y-106398747D02*
X123536785Y-106303509D01*
X123536785Y-106303509D02*
X123489166Y-106255890D01*
X123489166Y-106255890D02*
X123393928Y-106208271D01*
X123393928Y-106208271D02*
X123203452Y-106208271D01*
X123203452Y-106208271D02*
X123108214Y-106255890D01*
X123108214Y-106255890D02*
X123060595Y-106303509D01*
X123060595Y-106303509D02*
X123012976Y-106398747D01*
X169281142Y-98443319D02*
X168947809Y-97967128D01*
X168709714Y-98443319D02*
X168709714Y-97443319D01*
X168709714Y-97443319D02*
X169090666Y-97443319D01*
X169090666Y-97443319D02*
X169185904Y-97490938D01*
X169185904Y-97490938D02*
X169233523Y-97538557D01*
X169233523Y-97538557D02*
X169281142Y-97633795D01*
X169281142Y-97633795D02*
X169281142Y-97776652D01*
X169281142Y-97776652D02*
X169233523Y-97871890D01*
X169233523Y-97871890D02*
X169185904Y-97919509D01*
X169185904Y-97919509D02*
X169090666Y-97967128D01*
X169090666Y-97967128D02*
X168709714Y-97967128D01*
X170233523Y-98443319D02*
X169662095Y-98443319D01*
X169947809Y-98443319D02*
X169947809Y-97443319D01*
X169947809Y-97443319D02*
X169852571Y-97586176D01*
X169852571Y-97586176D02*
X169757333Y-97681414D01*
X169757333Y-97681414D02*
X169662095Y-97729033D01*
X170566857Y-97443319D02*
X171185904Y-97443319D01*
X171185904Y-97443319D02*
X170852571Y-97824271D01*
X170852571Y-97824271D02*
X170995428Y-97824271D01*
X170995428Y-97824271D02*
X171090666Y-97871890D01*
X171090666Y-97871890D02*
X171138285Y-97919509D01*
X171138285Y-97919509D02*
X171185904Y-98014747D01*
X171185904Y-98014747D02*
X171185904Y-98252842D01*
X171185904Y-98252842D02*
X171138285Y-98348080D01*
X171138285Y-98348080D02*
X171090666Y-98395700D01*
X171090666Y-98395700D02*
X170995428Y-98443319D01*
X170995428Y-98443319D02*
X170709714Y-98443319D01*
X170709714Y-98443319D02*
X170614476Y-98395700D01*
X170614476Y-98395700D02*
X170566857Y-98348080D01*
X182339319Y-91266357D02*
X181863128Y-91599690D01*
X182339319Y-91837785D02*
X181339319Y-91837785D01*
X181339319Y-91837785D02*
X181339319Y-91456833D01*
X181339319Y-91456833D02*
X181386938Y-91361595D01*
X181386938Y-91361595D02*
X181434557Y-91313976D01*
X181434557Y-91313976D02*
X181529795Y-91266357D01*
X181529795Y-91266357D02*
X181672652Y-91266357D01*
X181672652Y-91266357D02*
X181767890Y-91313976D01*
X181767890Y-91313976D02*
X181815509Y-91361595D01*
X181815509Y-91361595D02*
X181863128Y-91456833D01*
X181863128Y-91456833D02*
X181863128Y-91837785D01*
X182339319Y-90313976D02*
X182339319Y-90885404D01*
X182339319Y-90599690D02*
X181339319Y-90599690D01*
X181339319Y-90599690D02*
X181482176Y-90694928D01*
X181482176Y-90694928D02*
X181577414Y-90790166D01*
X181577414Y-90790166D02*
X181625033Y-90885404D01*
X182339319Y-89361595D02*
X182339319Y-89933023D01*
X182339319Y-89647309D02*
X181339319Y-89647309D01*
X181339319Y-89647309D02*
X181482176Y-89742547D01*
X181482176Y-89742547D02*
X181577414Y-89837785D01*
X181577414Y-89837785D02*
X181625033Y-89933023D01*
X103899642Y-106827319D02*
X103566309Y-106351128D01*
X103328214Y-106827319D02*
X103328214Y-105827319D01*
X103328214Y-105827319D02*
X103709166Y-105827319D01*
X103709166Y-105827319D02*
X103804404Y-105874938D01*
X103804404Y-105874938D02*
X103852023Y-105922557D01*
X103852023Y-105922557D02*
X103899642Y-106017795D01*
X103899642Y-106017795D02*
X103899642Y-106160652D01*
X103899642Y-106160652D02*
X103852023Y-106255890D01*
X103852023Y-106255890D02*
X103804404Y-106303509D01*
X103804404Y-106303509D02*
X103709166Y-106351128D01*
X103709166Y-106351128D02*
X103328214Y-106351128D01*
X104852023Y-106827319D02*
X104280595Y-106827319D01*
X104566309Y-106827319D02*
X104566309Y-105827319D01*
X104566309Y-105827319D02*
X104471071Y-105970176D01*
X104471071Y-105970176D02*
X104375833Y-106065414D01*
X104375833Y-106065414D02*
X104280595Y-106113033D01*
X105185357Y-105827319D02*
X105852023Y-105827319D01*
X105852023Y-105827319D02*
X105423452Y-106827319D01*
X92310833Y-109367319D02*
X91977500Y-108891128D01*
X91739405Y-109367319D02*
X91739405Y-108367319D01*
X91739405Y-108367319D02*
X92120357Y-108367319D01*
X92120357Y-108367319D02*
X92215595Y-108414938D01*
X92215595Y-108414938D02*
X92263214Y-108462557D01*
X92263214Y-108462557D02*
X92310833Y-108557795D01*
X92310833Y-108557795D02*
X92310833Y-108700652D01*
X92310833Y-108700652D02*
X92263214Y-108795890D01*
X92263214Y-108795890D02*
X92215595Y-108843509D01*
X92215595Y-108843509D02*
X92120357Y-108891128D01*
X92120357Y-108891128D02*
X91739405Y-108891128D01*
X92644167Y-108367319D02*
X93310833Y-108367319D01*
X93310833Y-108367319D02*
X92882262Y-109367319D01*
X130791833Y-69869319D02*
X130458500Y-69393128D01*
X130220405Y-69869319D02*
X130220405Y-68869319D01*
X130220405Y-68869319D02*
X130601357Y-68869319D01*
X130601357Y-68869319D02*
X130696595Y-68916938D01*
X130696595Y-68916938D02*
X130744214Y-68964557D01*
X130744214Y-68964557D02*
X130791833Y-69059795D01*
X130791833Y-69059795D02*
X130791833Y-69202652D01*
X130791833Y-69202652D02*
X130744214Y-69297890D01*
X130744214Y-69297890D02*
X130696595Y-69345509D01*
X130696595Y-69345509D02*
X130601357Y-69393128D01*
X130601357Y-69393128D02*
X130220405Y-69393128D01*
X131363262Y-69297890D02*
X131268024Y-69250271D01*
X131268024Y-69250271D02*
X131220405Y-69202652D01*
X131220405Y-69202652D02*
X131172786Y-69107414D01*
X131172786Y-69107414D02*
X131172786Y-69059795D01*
X131172786Y-69059795D02*
X131220405Y-68964557D01*
X131220405Y-68964557D02*
X131268024Y-68916938D01*
X131268024Y-68916938D02*
X131363262Y-68869319D01*
X131363262Y-68869319D02*
X131553738Y-68869319D01*
X131553738Y-68869319D02*
X131648976Y-68916938D01*
X131648976Y-68916938D02*
X131696595Y-68964557D01*
X131696595Y-68964557D02*
X131744214Y-69059795D01*
X131744214Y-69059795D02*
X131744214Y-69107414D01*
X131744214Y-69107414D02*
X131696595Y-69202652D01*
X131696595Y-69202652D02*
X131648976Y-69250271D01*
X131648976Y-69250271D02*
X131553738Y-69297890D01*
X131553738Y-69297890D02*
X131363262Y-69297890D01*
X131363262Y-69297890D02*
X131268024Y-69345509D01*
X131268024Y-69345509D02*
X131220405Y-69393128D01*
X131220405Y-69393128D02*
X131172786Y-69488366D01*
X131172786Y-69488366D02*
X131172786Y-69678842D01*
X131172786Y-69678842D02*
X131220405Y-69774080D01*
X131220405Y-69774080D02*
X131268024Y-69821700D01*
X131268024Y-69821700D02*
X131363262Y-69869319D01*
X131363262Y-69869319D02*
X131553738Y-69869319D01*
X131553738Y-69869319D02*
X131648976Y-69821700D01*
X131648976Y-69821700D02*
X131696595Y-69774080D01*
X131696595Y-69774080D02*
X131744214Y-69678842D01*
X131744214Y-69678842D02*
X131744214Y-69488366D01*
X131744214Y-69488366D02*
X131696595Y-69393128D01*
X131696595Y-69393128D02*
X131648976Y-69345509D01*
X131648976Y-69345509D02*
X131553738Y-69297890D01*
%TO.C,U8*%
X140876500Y-112519500D02*
X140876500Y-115294500D01*
X144276500Y-112519500D02*
X144276500Y-115469500D01*
D13*
X141166500Y-115894500D02*
X140886500Y-115614500D01*
X141166500Y-115614500D01*
X141166500Y-115894500D01*
G36*
X141166500Y-115894500D02*
G01*
X140886500Y-115614500D01*
X141166500Y-115614500D01*
X141166500Y-115894500D01*
G37*
%TO.C,R23*%
X129915500Y-58773436D02*
X129915500Y-59227564D01*
X128445500Y-58773436D02*
X128445500Y-59227564D01*
%TO.C,R22*%
X129915500Y-54963436D02*
X129915500Y-55417564D01*
X128445500Y-54963436D02*
X128445500Y-55417564D01*
%TO.C,U1*%
X174392500Y-52799500D02*
X173592500Y-52799500D01*
X174392500Y-52799500D02*
X175192500Y-52799500D01*
X174392500Y-55919500D02*
X173592500Y-55919500D01*
X174392500Y-55919500D02*
X175192500Y-55919500D01*
X173092500Y-52849500D02*
X172852500Y-52519500D01*
X173332500Y-52519500D01*
X173092500Y-52849500D01*
G36*
X173092500Y-52849500D02*
G01*
X172852500Y-52519500D01*
X173332500Y-52519500D01*
X173092500Y-52849500D01*
G37*
%TO.C,LED2*%
X195920000Y-54118500D02*
X198605000Y-54118500D01*
X198605000Y-52198500D02*
X195920000Y-52198500D01*
X198605000Y-54118500D02*
X198605000Y-52198500D01*
%TO.C,C11*%
X186845752Y-86967500D02*
X186323248Y-86967500D01*
X186845752Y-88437500D02*
X186323248Y-88437500D01*
%TO.C,JP1*%
X88302500Y-57352500D02*
X88302500Y-54552500D01*
X89002500Y-53902500D02*
X89602500Y-53902500D01*
X89602500Y-58002500D02*
X89002500Y-58002500D01*
X90302500Y-54552500D02*
X90302500Y-57352500D01*
X90502500Y-57152500D02*
X90802500Y-56852500D01*
X90502500Y-57152500D02*
X90802500Y-57452500D01*
X90802500Y-57452500D02*
X90802500Y-56852500D01*
X88302500Y-54602500D02*
G75*
G02*
X89002500Y-53902500I700000J0D01*
G01*
X89002500Y-58002500D02*
G75*
G02*
X88302500Y-57302500I-1J699999D01*
G01*
X89602500Y-53902500D02*
G75*
G02*
X90302500Y-54602500I0J-700000D01*
G01*
X90302500Y-57302500D02*
G75*
G02*
X89602500Y-58002500I-699999J-1D01*
G01*
%TO.C,C1*%
X174653752Y-57519500D02*
X174131248Y-57519500D01*
X174653752Y-58989500D02*
X174131248Y-58989500D01*
%TO.C,Q1*%
X163307500Y-60462000D02*
X163307500Y-59812000D01*
X163307500Y-60462000D02*
X163307500Y-61112000D01*
X166427500Y-60462000D02*
X166427500Y-59812000D01*
X166427500Y-60462000D02*
X166427500Y-61112000D01*
X163357500Y-61624500D02*
X163027500Y-61864500D01*
X163027500Y-61384500D01*
X163357500Y-61624500D01*
G36*
X163357500Y-61624500D02*
G01*
X163027500Y-61864500D01*
X163027500Y-61384500D01*
X163357500Y-61624500D01*
G37*
D14*
%TO.C,U2*%
X173031101Y-63074150D02*
X173031101Y-65029950D01*
X175070762Y-63074150D02*
X174344240Y-63074150D01*
X176383901Y-65029950D02*
X176383901Y-63074150D01*
D13*
%TO.C,C10*%
X176989920Y-80373500D02*
X177271080Y-80373500D01*
X176989920Y-81393500D02*
X177271080Y-81393500D01*
%TO.C,R19*%
X126159500Y-93517564D02*
X126159500Y-93063436D01*
X127629500Y-93517564D02*
X127629500Y-93063436D01*
%TO.C,R1*%
X191183436Y-54455500D02*
X191637564Y-54455500D01*
X191183436Y-55925500D02*
X191637564Y-55925500D01*
%TO.C,R15*%
X162735436Y-107287500D02*
X163189564Y-107287500D01*
X162735436Y-108757500D02*
X163189564Y-108757500D01*
%TO.C,D6*%
X135992500Y-72717500D02*
X130482500Y-72717500D01*
X135992500Y-76017500D02*
X130482500Y-76017500D01*
X135992500Y-76017500D02*
X135992500Y-72717500D01*
%TO.C,C6*%
X196991248Y-71092500D02*
X197513752Y-71092500D01*
X196991248Y-72562500D02*
X197513752Y-72562500D01*
%TO.C,Q4*%
X130196500Y-91730500D02*
X129546500Y-91730500D01*
X130196500Y-91730500D02*
X130846500Y-91730500D01*
X130196500Y-94850500D02*
X129546500Y-94850500D01*
X130196500Y-94850500D02*
X130846500Y-94850500D01*
X129034000Y-91780500D02*
X128794000Y-91450500D01*
X129274000Y-91450500D01*
X129034000Y-91780500D01*
G36*
X129034000Y-91780500D02*
G01*
X128794000Y-91450500D01*
X129274000Y-91450500D01*
X129034000Y-91780500D01*
G37*
%TO.C,Q5*%
X130257500Y-82078500D02*
X129607500Y-82078500D01*
X130257500Y-82078500D02*
X130907500Y-82078500D01*
X130257500Y-85198500D02*
X129607500Y-85198500D01*
X130257500Y-85198500D02*
X130907500Y-85198500D01*
X129095000Y-82128500D02*
X128855000Y-81798500D01*
X129335000Y-81798500D01*
X129095000Y-82128500D01*
G36*
X129095000Y-82128500D02*
G01*
X128855000Y-81798500D01*
X129335000Y-81798500D01*
X129095000Y-82128500D01*
G37*
%TO.C,C8*%
X103397500Y-59634920D02*
X103397500Y-59916080D01*
X104417500Y-59634920D02*
X104417500Y-59916080D01*
%TO.C,C12*%
X183670752Y-73251500D02*
X183148248Y-73251500D01*
X183670752Y-74721500D02*
X183148248Y-74721500D01*
%TO.C,Y1*%
X179059500Y-75638500D02*
X175059500Y-75638500D01*
X179059500Y-78938500D02*
X179059500Y-75638500D01*
%TO.C,D3*%
X168624500Y-80733500D02*
X164614500Y-80733500D01*
X168624500Y-82733500D02*
X164614500Y-82733500D01*
X168624500Y-82733500D02*
X168624500Y-80733500D01*
%TO.C,JP3*%
X93382500Y-57352500D02*
X93382500Y-54552500D01*
X94082500Y-53902500D02*
X94682500Y-53902500D01*
X94682500Y-58002500D02*
X94082500Y-58002500D01*
X95382500Y-54552500D02*
X95382500Y-57352500D01*
X95582500Y-57152500D02*
X95882500Y-56852500D01*
X95582500Y-57152500D02*
X95882500Y-57452500D01*
X95882500Y-57452500D02*
X95882500Y-56852500D01*
X93382500Y-54602500D02*
G75*
G02*
X94082500Y-53902500I700000J0D01*
G01*
X94082500Y-58002500D02*
G75*
G02*
X93382500Y-57302500I-1J699999D01*
G01*
X94682500Y-53902500D02*
G75*
G02*
X95382500Y-54602500I0J-700000D01*
G01*
X95382500Y-57302500D02*
G75*
G02*
X94682500Y-58002500I-699999J-1D01*
G01*
%TO.C,LED3*%
X91452500Y-114062500D02*
X94137500Y-114062500D01*
X94137500Y-112142500D02*
X91452500Y-112142500D01*
X94137500Y-114062500D02*
X94137500Y-112142500D01*
%TO.C,R9*%
X170609500Y-77515564D02*
X170609500Y-77061436D01*
X172079500Y-77515564D02*
X172079500Y-77061436D01*
%TO.C,SW4*%
X160212500Y-112707500D02*
X160212500Y-114707500D01*
X161212500Y-111407500D02*
X161662500Y-110957500D01*
X161212500Y-116007500D02*
X161662500Y-116457500D01*
X161662500Y-110957500D02*
X164262500Y-110957500D01*
X161662500Y-116457500D02*
X164262500Y-116457500D01*
X164712500Y-111407500D02*
X164262500Y-110957500D01*
X164712500Y-116007500D02*
X164262500Y-116457500D01*
X165712500Y-112707500D02*
X165712500Y-114707500D01*
%TO.C,C4*%
X180368752Y-66409500D02*
X179846248Y-66409500D01*
X180368752Y-67879500D02*
X179846248Y-67879500D01*
%TO.C,R5*%
X101267500Y-63164564D02*
X101267500Y-62710436D01*
X102737500Y-63164564D02*
X102737500Y-62710436D01*
%TO.C,U6*%
X115023500Y-90690500D02*
X115023500Y-95890500D01*
X115023500Y-95890500D02*
X121493500Y-95890500D01*
X117258500Y-90690500D02*
X115023500Y-90690500D01*
X121493500Y-90690500D02*
X119258500Y-90690500D01*
X121493500Y-95890500D02*
X121493500Y-90690500D01*
X119258500Y-90690500D02*
G75*
G02*
X117258500Y-90690500I-1000000J0D01*
G01*
%TO.C,D2*%
X170254500Y-80733500D02*
X170254500Y-82733500D01*
X170254500Y-80733500D02*
X174264500Y-80733500D01*
X170254500Y-82733500D02*
X174264500Y-82733500D01*
%TO.C,U7*%
X114830500Y-81038500D02*
X114830500Y-86238500D01*
X114830500Y-86238500D02*
X121300500Y-86238500D01*
X117065500Y-81038500D02*
X114830500Y-81038500D01*
X121300500Y-81038500D02*
X119065500Y-81038500D01*
X121300500Y-86238500D02*
X121300500Y-81038500D01*
X119065500Y-81038500D02*
G75*
G02*
X117065500Y-81038500I-1000000J0D01*
G01*
%TO.C,C3*%
X174131248Y-67679500D02*
X174653752Y-67679500D01*
X174131248Y-69149500D02*
X174653752Y-69149500D01*
%TO.C,L1*%
X179846248Y-62859500D02*
X180368752Y-62859500D01*
X179846248Y-65079500D02*
X180368752Y-65079500D01*
%TO.C,D7*%
X135992500Y-86052500D02*
X130482500Y-86052500D01*
X135992500Y-89352500D02*
X130482500Y-89352500D01*
X135992500Y-89352500D02*
X135992500Y-86052500D01*
%TO.C,SW1*%
X194502500Y-64987500D02*
X194502500Y-67587500D01*
X194952500Y-64537500D02*
X194502500Y-64987500D01*
X194952500Y-68037500D02*
X194502500Y-67587500D01*
X198252500Y-63537500D02*
X196252500Y-63537500D01*
X198252500Y-69037500D02*
X196252500Y-69037500D01*
X199552500Y-64537500D02*
X200002500Y-64987500D01*
X199552500Y-68037500D02*
X200002500Y-67587500D01*
X200002500Y-64987500D02*
X200002500Y-67587500D01*
%TO.C,C7*%
X98727500Y-55136752D02*
X98727500Y-54614248D01*
X100197500Y-55136752D02*
X100197500Y-54614248D01*
%TO.C,R21*%
X125966500Y-83865564D02*
X125966500Y-83411436D01*
X127436500Y-83865564D02*
X127436500Y-83411436D01*
%TO.C,C5*%
X103172500Y-55136752D02*
X103172500Y-54614248D01*
X104642500Y-55136752D02*
X104642500Y-54614248D01*
%TO.C,C2*%
X169212500Y-54435752D02*
X169212500Y-53913248D01*
X170682500Y-54435752D02*
X170682500Y-53913248D01*
%TO.C,R20*%
X109125064Y-81633500D02*
X108670936Y-81633500D01*
X109125064Y-83103500D02*
X108670936Y-83103500D01*
%TO.C,JP2*%
X97222500Y-78942500D02*
X97222500Y-76142500D01*
X97922500Y-75492500D02*
X98522500Y-75492500D01*
X98522500Y-79592500D02*
X97922500Y-79592500D01*
X99222500Y-76142500D02*
X99222500Y-78942500D01*
X99422500Y-78742500D02*
X99722500Y-78442500D01*
X99422500Y-78742500D02*
X99722500Y-79042500D01*
X99722500Y-79042500D02*
X99722500Y-78442500D01*
X97222500Y-76192500D02*
G75*
G02*
X97922500Y-75492500I700000J0D01*
G01*
X97922500Y-79592500D02*
G75*
G02*
X97222500Y-78892500I-1J699999D01*
G01*
X98522500Y-75492500D02*
G75*
G02*
X99222500Y-76192500I0J-700000D01*
G01*
X99222500Y-78892500D02*
G75*
G02*
X98522500Y-79592500I-699999J-1D01*
G01*
%TO.C,LED1*%
X195920000Y-57674500D02*
X198605000Y-57674500D01*
X198605000Y-55754500D02*
X195920000Y-55754500D01*
X198605000Y-57674500D02*
X198605000Y-55754500D01*
%TO.C,C9*%
X177271080Y-73388500D02*
X176989920Y-73388500D01*
X177271080Y-74408500D02*
X176989920Y-74408500D01*
%TO.C,D1*%
X178622500Y-61134500D02*
X178622500Y-58474500D01*
X178622500Y-61134500D02*
X180322500Y-61134500D01*
X180322500Y-61134500D02*
X180322500Y-58474500D01*
%TO.C,SW2*%
X101792500Y-112707500D02*
X101792500Y-114707500D01*
X102792500Y-111407500D02*
X103242500Y-110957500D01*
X102792500Y-116007500D02*
X103242500Y-116457500D01*
X103242500Y-110957500D02*
X105842500Y-110957500D01*
X103242500Y-116457500D02*
X105842500Y-116457500D01*
X106292500Y-111407500D02*
X105842500Y-110957500D01*
X106292500Y-116007500D02*
X105842500Y-116457500D01*
X107292500Y-112707500D02*
X107292500Y-114707500D01*
%TO.C,Q2*%
X175457000Y-89063500D02*
X174807000Y-89063500D01*
X175457000Y-89063500D02*
X176107000Y-89063500D01*
X175457000Y-92183500D02*
X174807000Y-92183500D01*
X175457000Y-92183500D02*
X176107000Y-92183500D01*
X176859500Y-92463500D02*
X176379500Y-92463500D01*
X176619500Y-92133500D01*
X176859500Y-92463500D01*
G36*
X176859500Y-92463500D02*
G01*
X176379500Y-92463500D01*
X176619500Y-92133500D01*
X176859500Y-92463500D01*
G37*
%TO.C,D4*%
X171799500Y-89623500D02*
X167789500Y-89623500D01*
X171799500Y-91623500D02*
X167789500Y-91623500D01*
X171799500Y-91623500D02*
X171799500Y-89623500D01*
%TO.C,SW3*%
X119572500Y-112707500D02*
X119572500Y-114707500D01*
X120572500Y-111407500D02*
X121022500Y-110957500D01*
X120572500Y-116007500D02*
X121022500Y-116457500D01*
X121022500Y-110957500D02*
X123622500Y-110957500D01*
X121022500Y-116457500D02*
X123622500Y-116457500D01*
X124072500Y-111407500D02*
X123622500Y-110957500D01*
X124072500Y-116007500D02*
X123622500Y-116457500D01*
X125072500Y-112707500D02*
X125072500Y-114707500D01*
%TO.C,SW5*%
X177532500Y-112707500D02*
X177532500Y-114707500D01*
X178532500Y-111407500D02*
X178982500Y-110957500D01*
X178532500Y-116007500D02*
X178982500Y-116457500D01*
X178982500Y-110957500D02*
X181582500Y-110957500D01*
X178982500Y-116457500D02*
X181582500Y-116457500D01*
X182032500Y-111407500D02*
X181582500Y-110957500D01*
X182032500Y-116007500D02*
X181582500Y-116457500D01*
X183032500Y-112707500D02*
X183032500Y-114707500D01*
%TO.C,R2*%
X178737500Y-54217436D02*
X178737500Y-54671564D01*
X180207500Y-54217436D02*
X180207500Y-54671564D01*
%TO.C,R3*%
X169212500Y-64196564D02*
X169212500Y-63742436D01*
X170682500Y-64196564D02*
X170682500Y-63742436D01*
%TO.C,R6*%
X98727500Y-59989564D02*
X98727500Y-59535436D01*
X100197500Y-59989564D02*
X100197500Y-59535436D01*
%TO.C,R10*%
X179499500Y-96565564D02*
X179499500Y-96111436D01*
X180969500Y-96565564D02*
X180969500Y-96111436D01*
%TO.C,R14*%
X179880436Y-107287500D02*
X180334564Y-107287500D01*
X179880436Y-108757500D02*
X180334564Y-108757500D01*
%TO.C,R4*%
X169212500Y-59574936D02*
X169212500Y-60029064D01*
X170682500Y-59574936D02*
X170682500Y-60029064D01*
%TO.C,U3*%
X106628500Y-46158500D02*
X106628500Y-79558500D01*
X106628500Y-79558500D02*
X127628500Y-79558500D01*
X127628500Y-46158500D02*
X106628500Y-46158500D01*
X127628500Y-53358500D02*
X106628500Y-53358500D01*
X127628500Y-79558500D02*
X127628500Y-46158500D01*
%TO.C,R12*%
X166799500Y-77515564D02*
X166799500Y-77061436D01*
X168269500Y-77515564D02*
X168269500Y-77061436D01*
%TO.C,R18*%
X109238064Y-91285500D02*
X108783936Y-91285500D01*
X109238064Y-92755500D02*
X108783936Y-92755500D01*
%TO.C,D5*%
X165327000Y-94778500D02*
X164677000Y-94778500D01*
X165327000Y-94778500D02*
X165977000Y-94778500D01*
X165327000Y-97898500D02*
X164677000Y-97898500D01*
X165327000Y-97898500D02*
X165977000Y-97898500D01*
X164164500Y-94828500D02*
X163924500Y-94498500D01*
X164404500Y-94498500D01*
X164164500Y-94828500D01*
G36*
X164164500Y-94828500D02*
G01*
X163924500Y-94498500D01*
X164404500Y-94498500D01*
X164164500Y-94828500D01*
G37*
%TO.C,J6*%
X195910500Y-85678500D02*
X197830500Y-85678500D01*
X197830500Y-76518500D02*
X195910500Y-76518500D01*
X199840500Y-76518500D02*
X201545500Y-76518500D01*
X201545500Y-76518500D02*
X201545500Y-85678500D01*
X201545500Y-85678500D02*
X199840500Y-85678500D01*
%TO.C,Q3*%
X175457000Y-94778500D02*
X174807000Y-94778500D01*
X175457000Y-94778500D02*
X176107000Y-94778500D01*
X175457000Y-97898500D02*
X174807000Y-97898500D01*
X175457000Y-97898500D02*
X176107000Y-97898500D01*
X176859500Y-98178500D02*
X176379500Y-98178500D01*
X176619500Y-97848500D01*
X176859500Y-98178500D01*
G36*
X176859500Y-98178500D02*
G01*
X176379500Y-98178500D01*
X176619500Y-97848500D01*
X176859500Y-98178500D01*
G37*
%TO.C,C13*%
X145463500Y-114125752D02*
X145463500Y-113603248D01*
X146933500Y-114125752D02*
X146933500Y-113603248D01*
%TO.C,U4*%
X180334500Y-78338500D02*
X180609500Y-78338500D01*
X180334500Y-81098500D02*
X180334500Y-78338500D01*
X180334500Y-81098500D02*
X180334500Y-83858500D01*
X180334500Y-83858500D02*
X180609500Y-83858500D01*
X187754500Y-78338500D02*
X187479500Y-78338500D01*
X187754500Y-81098500D02*
X187754500Y-78338500D01*
X187754500Y-81098500D02*
X187754500Y-83858500D01*
X187754500Y-83858500D02*
X187479500Y-83858500D01*
X187809500Y-77788500D02*
X187479500Y-77548500D01*
X187809500Y-77308500D01*
X187809500Y-77788500D01*
G36*
X187809500Y-77788500D02*
G01*
X187479500Y-77548500D01*
X187809500Y-77308500D01*
X187809500Y-77788500D01*
G37*
%TO.C,R16*%
X122095436Y-107287500D02*
X122549564Y-107287500D01*
X122095436Y-108757500D02*
X122549564Y-108757500D01*
%TO.C,R13*%
X170151064Y-95603500D02*
X169696936Y-95603500D01*
X170151064Y-97073500D02*
X169696936Y-97073500D01*
%TO.C,R11*%
X179499500Y-90396436D02*
X179499500Y-90850564D01*
X180969500Y-90396436D02*
X180969500Y-90850564D01*
%TO.C,R17*%
X104315436Y-107287500D02*
X104769564Y-107287500D01*
X104315436Y-108757500D02*
X104769564Y-108757500D01*
%TO.C,R7*%
X92250436Y-109827500D02*
X92704564Y-109827500D01*
X92250436Y-111297500D02*
X92704564Y-111297500D01*
%TO.C,R8*%
X131185564Y-70203500D02*
X130731436Y-70203500D01*
X131185564Y-71673500D02*
X130731436Y-71673500D01*
%TD*%
%LPC*%
D15*
%TO.C,U8*%
X141626500Y-115394500D03*
X142576500Y-115394500D03*
X143526500Y-115394500D03*
X143526500Y-112594500D03*
X142576500Y-112594500D03*
X141626500Y-112594500D03*
D16*
X142576500Y-113994500D03*
%TD*%
D17*
%TO.C,R23*%
X129180500Y-58088000D03*
X129180500Y-59913000D03*
%TD*%
%TO.C,R22*%
X129180500Y-54278000D03*
X129180500Y-56103000D03*
%TD*%
D18*
%TO.C,U1*%
X173255000Y-53409500D03*
X173255000Y-54359500D03*
X173255000Y-55309500D03*
X175530000Y-55309500D03*
X175530000Y-54359500D03*
X175530000Y-53409500D03*
%TD*%
D19*
%TO.C,LED2*%
X197857500Y-53158500D03*
X195982500Y-53158500D03*
%TD*%
D20*
%TO.C,C11*%
X187534500Y-87702500D03*
X185634500Y-87702500D03*
%TD*%
D21*
%TO.C,JP1*%
X89302500Y-57252500D03*
D22*
X89302500Y-55952500D03*
D23*
X89302500Y-54652500D03*
%TD*%
D20*
%TO.C,C1*%
X175342500Y-58254500D03*
X173442500Y-58254500D03*
%TD*%
D24*
%TO.C,Q1*%
X163917500Y-61399500D03*
X165817500Y-61399500D03*
X164867500Y-59524500D03*
%TD*%
D25*
%TO.C,U2*%
X173757500Y-65404600D03*
X174707501Y-65404600D03*
X175657502Y-65404600D03*
X175657502Y-62699500D03*
X173757500Y-62699500D03*
%TD*%
D26*
%TO.C,DISP1*%
X88762500Y-48832500D03*
X88762500Y-103712500D03*
X190762500Y-48832500D03*
X190762500Y-103712500D03*
D27*
X87762500Y-59762500D03*
D28*
X87762500Y-62302500D03*
X87762500Y-64842500D03*
X87762500Y-67382500D03*
X87762500Y-69922500D03*
X87762500Y-72462500D03*
X87762500Y-75002500D03*
X87762500Y-77542500D03*
X87762500Y-80082500D03*
X87762500Y-82622500D03*
X87762500Y-85162500D03*
X87762500Y-87742500D03*
X87762500Y-90242500D03*
X87762500Y-92782500D03*
%TD*%
D29*
%TO.C,C10*%
X176355500Y-80883500D03*
X177905500Y-80883500D03*
%TD*%
D30*
%TO.C,R19*%
X126894500Y-94203000D03*
X126894500Y-92378000D03*
%TD*%
D31*
%TO.C,R1*%
X190498000Y-55190500D03*
X192323000Y-55190500D03*
%TD*%
%TO.C,R15*%
X162050000Y-108022500D03*
X163875000Y-108022500D03*
%TD*%
D32*
%TO.C,D6*%
X134482500Y-74367500D03*
X130482500Y-74367500D03*
%TD*%
D33*
%TO.C,C6*%
X196302500Y-71827500D03*
X198202500Y-71827500D03*
%TD*%
D34*
%TO.C,Q4*%
X129259000Y-92340500D03*
X129259000Y-94240500D03*
X131134000Y-93290500D03*
%TD*%
%TO.C,Q5*%
X129320000Y-82688500D03*
X129320000Y-84588500D03*
X131195000Y-83638500D03*
%TD*%
D35*
%TO.C,C8*%
X103907500Y-59000500D03*
X103907500Y-60550500D03*
%TD*%
D20*
%TO.C,C12*%
X184359500Y-73986500D03*
X182459500Y-73986500D03*
%TD*%
D36*
%TO.C,Y1*%
X178159500Y-76438500D03*
X175959500Y-76438500D03*
X175959500Y-78138500D03*
X178159500Y-78138500D03*
%TD*%
D37*
%TO.C,D3*%
X167914500Y-81733500D03*
X164614500Y-81733500D03*
%TD*%
D21*
%TO.C,JP3*%
X94382500Y-57252500D03*
D22*
X94382500Y-55952500D03*
D23*
X94382500Y-54652500D03*
%TD*%
D19*
%TO.C,LED3*%
X93390000Y-113102500D03*
X91515000Y-113102500D03*
%TD*%
D30*
%TO.C,R9*%
X171344500Y-78201000D03*
X171344500Y-76376000D03*
%TD*%
D38*
%TO.C,SW4*%
X159962500Y-111832500D03*
X165962500Y-111832500D03*
X159962500Y-115582500D03*
X165962500Y-115582500D03*
%TD*%
D20*
%TO.C,C4*%
X181057500Y-67144500D03*
X179157500Y-67144500D03*
%TD*%
D30*
%TO.C,R5*%
X102002500Y-63850000D03*
X102002500Y-62025000D03*
%TD*%
D39*
%TO.C,U6*%
X113493500Y-92020500D03*
X113493500Y-94560500D03*
X123023500Y-94560500D03*
X123023500Y-92020500D03*
%TD*%
D40*
%TO.C,D2*%
X170964500Y-81733500D03*
X174264500Y-81733500D03*
%TD*%
D39*
%TO.C,U7*%
X113300500Y-82368500D03*
X113300500Y-84908500D03*
X122830500Y-84908500D03*
X122830500Y-82368500D03*
%TD*%
D33*
%TO.C,C3*%
X173442500Y-68414500D03*
X175342500Y-68414500D03*
%TD*%
D41*
%TO.C,L1*%
X179032500Y-63969500D03*
X181182500Y-63969500D03*
%TD*%
D32*
%TO.C,D7*%
X134482500Y-87702500D03*
X130482500Y-87702500D03*
%TD*%
D42*
%TO.C,SW1*%
X199127500Y-63287500D03*
X199127500Y-69287500D03*
X195377500Y-63287500D03*
X195377500Y-69287500D03*
%TD*%
D43*
%TO.C,C7*%
X99462500Y-55825500D03*
X99462500Y-53925500D03*
%TD*%
D30*
%TO.C,R21*%
X126701500Y-84551000D03*
X126701500Y-82726000D03*
%TD*%
D43*
%TO.C,C5*%
X103907500Y-55825500D03*
X103907500Y-53925500D03*
%TD*%
%TO.C,C2*%
X169947500Y-55124500D03*
X169947500Y-53224500D03*
%TD*%
D44*
%TO.C,R20*%
X109810500Y-82368500D03*
X107985500Y-82368500D03*
%TD*%
D21*
%TO.C,JP2*%
X98222500Y-78842500D03*
D22*
X98222500Y-77542500D03*
D23*
X98222500Y-76242500D03*
%TD*%
D19*
%TO.C,LED1*%
X197857500Y-56714500D03*
X195982500Y-56714500D03*
%TD*%
D45*
%TO.C,C9*%
X177905500Y-73898500D03*
X176355500Y-73898500D03*
%TD*%
D46*
%TO.C,D1*%
X179472500Y-60574500D03*
X179472500Y-58474500D03*
%TD*%
D38*
%TO.C,SW2*%
X101542500Y-111832500D03*
X107542500Y-111832500D03*
X101542500Y-115582500D03*
X107542500Y-115582500D03*
%TD*%
D47*
%TO.C,Q2*%
X176394500Y-91573500D03*
X176394500Y-89673500D03*
X174519500Y-90623500D03*
%TD*%
D37*
%TO.C,D4*%
X171089500Y-90623500D03*
X167789500Y-90623500D03*
%TD*%
D38*
%TO.C,SW3*%
X119322500Y-111832500D03*
X125322500Y-111832500D03*
X119322500Y-115582500D03*
X125322500Y-115582500D03*
%TD*%
%TO.C,SW5*%
X177282500Y-111832500D03*
X183282500Y-111832500D03*
X177282500Y-115582500D03*
X183282500Y-115582500D03*
%TD*%
D48*
%TO.C,R2*%
X179472500Y-53444500D03*
X179472500Y-55444500D03*
%TD*%
D30*
%TO.C,R3*%
X169947500Y-64882000D03*
X169947500Y-63057000D03*
%TD*%
%TO.C,R6*%
X99462500Y-60675000D03*
X99462500Y-58850000D03*
%TD*%
%TO.C,R10*%
X180234500Y-97251000D03*
X180234500Y-95426000D03*
%TD*%
D31*
%TO.C,R14*%
X179195000Y-108022500D03*
X181020000Y-108022500D03*
%TD*%
D17*
%TO.C,R4*%
X169947500Y-58889500D03*
X169947500Y-60714500D03*
%TD*%
D49*
%TO.C,U3*%
X108378500Y-54428500D03*
X108378500Y-55698500D03*
X108378500Y-56968500D03*
X108378500Y-58238500D03*
X108378500Y-59508500D03*
X108378500Y-60778500D03*
X108378500Y-62048500D03*
X108378500Y-63318500D03*
X108378500Y-64588500D03*
X108378500Y-65858500D03*
X108378500Y-67128500D03*
X108378500Y-68398500D03*
X108378500Y-69668500D03*
X108378500Y-70938500D03*
X108378500Y-72208500D03*
X108378500Y-73478500D03*
X108378500Y-74748500D03*
X108378500Y-76018500D03*
X108378500Y-77288500D03*
X125878500Y-77288500D03*
X125878500Y-76018500D03*
X125878500Y-74748500D03*
X125878500Y-73478500D03*
X125878500Y-72208500D03*
X125878500Y-70938500D03*
X125878500Y-69668500D03*
X125878500Y-68398500D03*
X125878500Y-67128500D03*
X125878500Y-65858500D03*
X125878500Y-64588500D03*
X125878500Y-63318500D03*
X125878500Y-62048500D03*
X125878500Y-60778500D03*
X125878500Y-59508500D03*
X125878500Y-58238500D03*
X125878500Y-56968500D03*
X125878500Y-55698500D03*
X125878500Y-54428500D03*
D50*
X114228500Y-61438500D03*
X114228500Y-62838500D03*
X114228500Y-64238500D03*
X115628500Y-61438500D03*
X115628500Y-62838500D03*
X115628500Y-64238500D03*
X117028500Y-61438500D03*
X117028500Y-62838500D03*
X117028500Y-64238500D03*
%TD*%
D30*
%TO.C,R12*%
X167534500Y-78201000D03*
X167534500Y-76376000D03*
%TD*%
D44*
%TO.C,R18*%
X109923500Y-92020500D03*
X108098500Y-92020500D03*
%TD*%
D34*
%TO.C,D5*%
X164389500Y-95388500D03*
X164389500Y-97288500D03*
X166264500Y-96338500D03*
%TD*%
D51*
%TO.C,J6*%
X195155500Y-83988500D03*
X195155500Y-78208500D03*
D52*
X194035500Y-84298500D03*
X194035500Y-83498500D03*
D53*
X194035500Y-82348500D03*
X194035500Y-81348500D03*
X194035500Y-80848500D03*
X194035500Y-79848500D03*
D52*
X194035500Y-78698500D03*
X194035500Y-77898500D03*
X194035500Y-77898500D03*
X194035500Y-78698500D03*
D53*
X194035500Y-79348500D03*
X194035500Y-80348500D03*
X194035500Y-81848500D03*
X194035500Y-82848500D03*
D52*
X194035500Y-83498500D03*
X194035500Y-84298500D03*
D54*
X194635500Y-85418500D03*
D55*
X198835500Y-85418500D03*
D54*
X194635500Y-76778500D03*
D55*
X198835500Y-76778500D03*
%TD*%
D47*
%TO.C,Q3*%
X176394500Y-97288500D03*
X176394500Y-95388500D03*
X174519500Y-96338500D03*
%TD*%
D43*
%TO.C,C13*%
X146198500Y-112914500D03*
X146198500Y-114814500D03*
%TD*%
D56*
%TO.C,U4*%
X186969500Y-77598500D03*
X186319500Y-77598500D03*
X185669500Y-77598500D03*
X185019500Y-77598500D03*
X184369500Y-77598500D03*
X183719500Y-77598500D03*
X183069500Y-77598500D03*
X182419500Y-77598500D03*
X181769500Y-77598500D03*
X181119500Y-77598500D03*
X181119500Y-84598500D03*
X181769500Y-84598500D03*
X182419500Y-84598500D03*
X183069500Y-84598500D03*
X183719500Y-84598500D03*
X184369500Y-84598500D03*
X185019500Y-84598500D03*
X185669500Y-84598500D03*
X186319500Y-84598500D03*
X186969500Y-84598500D03*
%TD*%
D31*
%TO.C,R16*%
X121410000Y-108022500D03*
X123235000Y-108022500D03*
%TD*%
D44*
%TO.C,R13*%
X170836500Y-96338500D03*
X169011500Y-96338500D03*
%TD*%
D17*
%TO.C,R11*%
X180234500Y-89711000D03*
X180234500Y-91536000D03*
%TD*%
D31*
%TO.C,R17*%
X103630000Y-108022500D03*
X105455000Y-108022500D03*
%TD*%
%TO.C,R7*%
X91565000Y-110562500D03*
X93390000Y-110562500D03*
%TD*%
D44*
%TO.C,R8*%
X131871000Y-70938500D03*
X130046000Y-70938500D03*
%TD*%
D57*
%TO.C,J1*%
X135784500Y-53682500D03*
D58*
X135784500Y-55682500D03*
%TD*%
D59*
%TO.C,J5*%
X151532500Y-71192500D03*
D60*
X151532500Y-76192500D03*
X151532500Y-81192500D03*
%TD*%
D59*
%TO.C,J3*%
X151532500Y-54047500D03*
D60*
X151532500Y-59047500D03*
X151532500Y-64047500D03*
%TD*%
D59*
%TO.C,J4*%
X151457500Y-88337500D03*
D60*
X151457500Y-93337500D03*
X151457500Y-98337500D03*
%TD*%
%LPD*%
M02*
